<svg xmlns="http://www.w3.org/2000/svg" xmlns:xlink="http://www.w3.org/1999/xlink" contentStyleType="text/css" data-diagram-type="ACTIVITY" height="1477px" preserveAspectRatio="none" style="width:1200px;height:1477px;background:#F4EEE3;" version="1.1" viewBox="0 0 1200 1477" width="1200px" zoomAndPan="magnify"><?plantuml 1.2026.4?><defs/><g><rect fill="#F4EEE3" height="1477" style="stroke:none;stroke-width:1;" width="1200" x="0" y="0"/><g class="title" data-source-line="3"><text fill="#000000" font-family="'Inter, Helvetica, sans-serif'" font-size="14" font-weight="700" lengthAdjust="spacing" textLength="296.7196" x="451.0405" y="33.5623">Activit&#233; &#8212; flux de d&#233;cision `models.route`</text></g><ellipse cx="369.6053" cy="62.9429" fill="#222222" rx="10" ry="10" style="stroke:#222222;stroke-width:1;"/><rect fill="#F1F1F1" height="49.0447" rx="4" ry="4" style="stroke:#181818;stroke-width:0.5;" width="179.0983" x="280.0562" y="92.9429"/><text fill="#000000" font-family="'Inter, Helvetica, sans-serif'" font-size="12" lengthAdjust="spacing" textLength="134.1954" x="290.0562" y="114.5676">Charge `routingConfig`</text><text fill="#000000" font-family="'Inter, Helvetica, sans-serif'" font-size="12" lengthAdjust="spacing" textLength="159.0983" x="290.0562" y="129.0899">+ `effectiveRoutingParams`</text><rect fill="#F1F1F1" height="49.0447" rx="4" ry="4" style="stroke:#181818;stroke-width:0.5;" width="226.2789" x="256.4659" y="161.9876"/><text fill="#000000" font-family="'Inter, Helvetica, sans-serif'" font-size="12" lengthAdjust="spacing" textLength="136.0022" x="266.4659" y="183.6123">Liste candidats &#233;ligibles</text><text fill="#000000" font-family="'Inter, Helvetica, sans-serif'" font-size="12" lengthAdjust="spacing" textLength="206.2789" x="266.4659" y="198.1347">(D9 : signature compl&#232;te seulement)</text><rect fill="#F1F1F1" height="49.0447" rx="4" ry="4" style="stroke:#181818;stroke-width:0.5;" width="136.9288" x="301.1409" y="231.0323"/><text fill="#000000" font-family="'Inter, Helvetica, sans-serif'" font-size="12" lengthAdjust="spacing" textLength="116.9288" x="311.1409" y="252.657">Sonde m&#233;moire libre</text><text fill="#000000" font-family="'Inter, Helvetica, sans-serif'" font-size="12" lengthAdjust="spacing" textLength="73.9924" x="311.1409" y="267.1794">(VRAM/RAM)</text><polygon fill="#F1F1F1" points="300.7605,300.077,438.4502,300.077,450.4502,314.5994,438.4502,329.1217,300.7605,329.1217,288.7605,314.5994,300.7605,300.077" style="stroke:#181818;stroke-width:0.5;stroke-linejoin:miter;stroke-miterlimit:10;"/><text fill="#000000" font-family="'Inter, Helvetica, sans-serif'" font-size="12" lengthAdjust="spacing" textLength="115.5652" x="300.7605" y="311.7017">Embedder configur&#233;</text><text fill="#000000" font-family="'Inter, Helvetica, sans-serif'" font-size="12" lengthAdjust="spacing" textLength="137.6897" x="300.7605" y="326.2241">(managed ou external) ?</text><text fill="#000000" font-family="'Inter, Helvetica, sans-serif'" font-size="12" lengthAdjust="spacing" textLength="21.204" x="267.5565" y="311.7017">non</text><text fill="#000000" font-family="'Inter, Helvetica, sans-serif'" font-size="12" lengthAdjust="spacing" textLength="16.9768" x="450.4502" y="311.7017">oui</text><path d="M164.9518,339.1217 L164.9518,361.9053 L144.9518,365.9053 L164.9518,369.9053 L164.9518,392.6888 A0,0 0 0 0 164.9518,392.6888 L342.5103,392.6888 A0,0 0 0 0 342.5103,392.6888 L342.5103,349.1217 L332.5103,339.1217 L164.9518,339.1217 A0,0 0 0 0 164.9518,339.1217" fill="#FFFDF6" style="stroke:#C68A3A;stroke-width:0.5;"/><path d="M332.5103,339.1217 L332.5103,349.1217 L342.5103,349.1217 L332.5103,339.1217" fill="#FFFDF6" style="stroke:#C68A3A;stroke-width:0.5;"/><text fill="#0E1014" font-family="'Inter, Helvetica, sans-serif'" font-size="12" lengthAdjust="spacing" textLength="137.4511" x="170.9518" y="355.7465">classifyQuery() retourne</text><text fill="#0E1014" font-family="'Inter, Helvetica, sans-serif'" font-size="12" lengthAdjust="spacing" textLength="156.5585" x="170.9518" y="370.2688">axisWeights depuis analyse</text><text fill="#0E1014" font-family="'Inter, Helvetica, sans-serif'" font-size="12" lengthAdjust="spacing" textLength="95.5885" x="170.9518" y="384.7912">regex / keyword.</text><rect fill="#F1F1F1" height="49.0447" rx="4" ry="4" style="stroke:#181818;stroke-width:0.5;" width="128.9518" x="16" y="341.3829"/><text fill="#000000" font-family="'Inter, Helvetica, sans-serif'" font-size="12" lengthAdjust="spacing" textLength="108.9518" x="26" y="363.0076">Utilise le classifieur</text><text fill="#000000" font-family="'Inter, Helvetica, sans-serif'" font-size="12" lengthAdjust="spacing" textLength="89.367" x="26" y="377.53">d&#233;terministe R5</text><rect fill="#F1F1F1" height="49.0447" rx="4" ry="4" style="stroke:#181818;stroke-width:0.5;" width="161.3544" x="578.0576" y="339.1217"/><text fill="#000000" font-family="'Inter, Helvetica, sans-serif'" font-size="12" lengthAdjust="spacing" textLength="141.3544" x="588.0576" y="360.7465">ensureEmbedderReady()</text><text fill="#000000" font-family="'Inter, Helvetica, sans-serif'" font-size="12" lengthAdjust="spacing" textLength="107.4518" x="588.0576" y="375.2688">OU lit URL external</text><polygon fill="#F1F1F1" points="605.9379,412.6888,711.5318,412.6888,723.5318,424.6888,711.5318,436.6888,605.9379,436.6888,593.9379,424.6888,605.9379,412.6888" style="stroke:#181818;stroke-width:0.5;stroke-linejoin:miter;stroke-miterlimit:10;"/><text fill="#000000" font-family="'Inter, Helvetica, sans-serif'" font-size="12" lengthAdjust="spacing" textLength="105.5939" x="605.9379" y="429.0523">Embedder vivant ?</text><text fill="#000000" font-family="'Inter, Helvetica, sans-serif'" font-size="12" lengthAdjust="spacing" textLength="21.204" x="572.7339" y="421.7912">non</text><text fill="#000000" font-family="'Inter, Helvetica, sans-serif'" font-size="12" lengthAdjust="spacing" textLength="16.9768" x="723.5318" y="421.7912">oui</text><rect fill="#F1F1F1" height="49.0447" rx="4" ry="4" style="stroke:#181818;stroke-width:0.5;" width="199.7398" x="372.5103" y="446.6888"/><text fill="#000000" font-family="'Inter, Helvetica, sans-serif'" font-size="12" lengthAdjust="spacing" textLength="152.3995" x="382.5103" y="468.3135">Fallback silencieux vers R5</text><text fill="#000000" font-family="'Inter, Helvetica, sans-serif'" font-size="12" lengthAdjust="spacing" textLength="179.7398" x="382.5103" y="482.8359">(gateReason:'embedder-down')</text><rect fill="#F1F1F1" height="63.5671" rx="4" ry="4" style="stroke:#181818;stroke-width:0.5;" width="157.2465" x="766.4662" y="446.6888"/><text fill="#000000" font-family="'Inter, Helvetica, sans-serif'" font-size="12" lengthAdjust="spacing" textLength="100.0031" x="776.4662" y="468.3135">Mesure la fiabilit&#233;</text><text fill="#000000" font-family="'Inter, Helvetica, sans-serif'" font-size="12" lengthAdjust="spacing" textLength="137.2465" x="776.4662" y="482.8359">d'embedding par langue</text><text fill="#000000" font-family="'Inter, Helvetica, sans-serif'" font-size="12" lengthAdjust="spacing" textLength="96.4748" x="776.4662" y="497.3582">(triplets fr/zh/en)</text><polygon fill="#F1F1F1" points="776.56,530.2559,913.619,530.2559,925.619,542.2559,913.619,554.2559,776.56,554.2559,764.56,542.2559,776.56,530.2559" style="stroke:#181818;stroke-width:0.5;stroke-linejoin:miter;stroke-miterlimit:10;"/><text fill="#000000" font-family="'Inter, Helvetica, sans-serif'" font-size="12" lengthAdjust="spacing" textLength="137.059" x="776.56" y="546.6194">Toutes langues &#8805; seuil ?</text><text fill="#000000" font-family="'Inter, Helvetica, sans-serif'" font-size="12" lengthAdjust="spacing" textLength="21.204" x="743.3559" y="539.3582">non</text><text fill="#000000" font-family="'Inter, Helvetica, sans-serif'" font-size="12" lengthAdjust="spacing" textLength="16.9768" x="925.619" y="539.3582">oui</text><rect fill="#F1F1F1" height="63.5671" rx="4" ry="4" style="stroke:#181818;stroke-width:0.5;" width="179.5754" x="602.25" y="564.2559"/><text fill="#000000" font-family="'Inter, Helvetica, sans-serif'" font-size="12" lengthAdjust="spacing" textLength="93.0658" x="612.25" y="585.8806">Fallback vers R5</text><text fill="#000000" font-family="'Inter, Helvetica, sans-serif'" font-size="12" lengthAdjust="spacing" textLength="74.964" x="612.25" y="600.403">(gateReason:</text><text fill="#000000" font-family="'Inter, Helvetica, sans-serif'" font-size="12" lengthAdjust="spacing" textLength="159.5754" x="612.25" y="614.9253">'reliability-below-threshold')</text><rect fill="#F1F1F1" height="34.5224" rx="4" ry="4" style="stroke:#181818;stroke-width:0.5;" width="95.2879" x="950.4972" y="564.2559"/><text fill="#000000" font-family="'Inter, Helvetica, sans-serif'" font-size="12" lengthAdjust="spacing" textLength="75.2879" x="960.4972" y="585.8806">Embed query</text><rect fill="#F1F1F1" height="34.5224" rx="4" ry="4" style="stroke:#181818;stroke-width:0.5;" width="189.2059" x="903.5382" y="633.7783"/><text fill="#000000" font-family="'Inter, Helvetica, sans-serif'" font-size="12" lengthAdjust="spacing" textLength="169.2059" x="913.5382" y="655.403">Projette sur 32 ancres feuilles</text><polygon fill="#F1F1F1" points="938.7307,688.3006,1057.5516,688.3006,1069.5516,702.823,1057.5516,717.3453,938.7307,717.3453,926.7307,702.823,938.7307,688.3006" style="stroke:#181818;stroke-width:0.5;stroke-linejoin:miter;stroke-miterlimit:10;"/><text fill="#000000" font-family="'Inter, Helvetica, sans-serif'" font-size="12" lengthAdjust="spacing" textLength="118.8208" x="938.7307" y="699.9253">Confiance par-feuille</text><text fill="#000000" font-family="'Inter, Helvetica, sans-serif'" font-size="12" lengthAdjust="spacing" textLength="62.1802" x="938.7307" y="714.4477">q[i] &#8805; &#952;_q ?</text><text fill="#000000" font-family="'Inter, Helvetica, sans-serif'" font-size="12" lengthAdjust="spacing" textLength="16.9768" x="909.7539" y="699.9253">oui</text><text fill="#000000" font-family="'Inter, Helvetica, sans-serif'" font-size="12" lengthAdjust="spacing" textLength="21.204" x="1069.5516" y="699.9253">non</text><rect fill="#F1F1F1" height="49.0447" rx="4" ry="4" style="stroke:#181818;stroke-width:0.5;" width="178.1438" x="811.8255" y="727.3453"/><text fill="#000000" font-family="'Inter, Helvetica, sans-serif'" font-size="12" lengthAdjust="spacing" textLength="158.1438" x="821.8255" y="748.97">Descend au niveau FEUILLE</text><text fill="#000000" font-family="'Inter, Helvetica, sans-serif'" font-size="12" lengthAdjust="spacing" textLength="64.6006" x="821.8255" y="763.4924">(level:'leaf')</text><rect fill="#F1F1F1" height="49.0447" rx="4" ry="4" style="stroke:#181818;stroke-width:0.5;" width="170.8314" x="1009.9692" y="727.3453"/><text fill="#000000" font-family="'Inter, Helvetica, sans-serif'" font-size="12" lengthAdjust="spacing" textLength="150.8314" x="1019.9692" y="748.97">Reste au niveau BRANCHE</text><text fill="#000000" font-family="'Inter, Helvetica, sans-serif'" font-size="12" lengthAdjust="spacing" textLength="83.1627" x="1019.9692" y="763.4924">(level:'branch')</text><polygon fill="#F1F1F1" points="998.1412,782.39,1010.1412,794.39,998.1412,806.39,986.1412,794.39,998.1412,782.39" style="stroke:#181818;stroke-width:0.5;stroke-linejoin:miter;stroke-miterlimit:10;"/><rect fill="#F1F1F1" height="63.5671" rx="4" ry="4" style="stroke:#181818;stroke-width:0.5;" width="175.1608" x="910.5607" y="826.39"/><text fill="#000000" font-family="'Inter, Helvetica, sans-serif'" font-size="12" lengthAdjust="spacing" textLength="150.9507" x="920.5607" y="848.0147">Blend v = &#945;&#183;v_d&#233;terministe</text><text fill="#000000" font-family="'Inter, Helvetica, sans-serif'" font-size="12" lengthAdjust="spacing" textLength="155.1608" x="920.5607" y="862.5371">+ &#946;&#183;max(0, topic_coverage)</text><text fill="#000000" font-family="'Inter, Helvetica, sans-serif'" font-size="12" lengthAdjust="spacing" textLength="82.14" x="920.5607" y="877.0595">(&#945;=0.7, &#946;=0.3)</text><rect fill="#F1F1F1" height="49.0447" rx="4" ry="4" style="stroke:#181818;stroke-width:0.5;" width="174.9051" x="910.6886" y="909.9571"/><text fill="#000000" font-family="'Inter, Helvetica, sans-serif'" font-size="12" lengthAdjust="spacing" textLength="129.2694" x="920.6886" y="931.5818">score_m = &#931; q[i]&#183;v_m[i]</text><text fill="#000000" font-family="'Inter, Helvetica, sans-serif'" font-size="12" lengthAdjust="spacing" textLength="154.9051" x="920.6886" y="946.1042">+ w_fit&#183;fit_m + w_hot&#183;hot_m</text><polygon fill="#F1F1F1" points="845.0895,972.9218,857.0895,984.9218,845.0895,996.9218,833.0895,984.9218,845.0895,972.9218" style="stroke:#181818;stroke-width:0.5;stroke-linejoin:miter;stroke-miterlimit:10;"/><text fill="#000000" font-family="'Inter, Helvetica, sans-serif'" font-size="12" lengthAdjust="spacing" textLength="42.7148" x="790.3746" y="982.0242">r5_path</text><text fill="#000000" font-family="'Inter, Helvetica, sans-serif'" font-size="12" lengthAdjust="spacing" textLength="70.396" x="857.0895" y="982.0242">vector_done</text><polygon fill="#F1F1F1" points="658.7348,1010.8419,670.7348,1022.8419,658.7348,1034.8419,646.7348,1022.8419,658.7348,1010.8419" style="stroke:#181818;stroke-width:0.5;stroke-linejoin:miter;stroke-miterlimit:10;"/><text fill="#000000" font-family="'Inter, Helvetica, sans-serif'" font-size="12" lengthAdjust="spacing" textLength="42.7148" x="604.02" y="1019.9442">r5_path</text><polygon fill="#F1F1F1" points="369.6053,1048.7619,381.6053,1060.7619,369.6053,1072.7619,357.6053,1060.7619,369.6053,1048.7619" style="stroke:#181818;stroke-width:0.5;stroke-linejoin:miter;stroke-miterlimit:10;"/><text fill="#000000" font-family="'Inter, Helvetica, sans-serif'" font-size="12" lengthAdjust="spacing" textLength="42.7148" x="314.8905" y="1057.8642">r5_path</text><rect fill="#F1F1F1" height="34.5224" rx="4" ry="4" style="stroke:#181818;stroke-width:0.5;" width="207.0179" x="266.0964" y="1092.7619"/><text fill="#000000" font-family="'Inter, Helvetica, sans-serif'" font-size="12" lengthAdjust="spacing" textLength="187.0179" x="276.0964" y="1114.3866">axisWeights &#8594; priors de branche</text><rect fill="#F1F1F1" height="34.5224" rx="4" ry="4" style="stroke:#181818;stroke-width:0.5;" width="170.1837" x="284.5135" y="1147.2842"/><text fill="#000000" font-family="'Inter, Helvetica, sans-serif'" font-size="12" lengthAdjust="spacing" textLength="150.1837" x="294.5135" y="1168.9089">score_m avec les poids R5</text><rect fill="#F1F1F1" height="49.0447" rx="4" ry="4" style="stroke:#181818;stroke-width:0.5;" width="152.2012" x="293.5048" y="1201.8066"/><text fill="#000000" font-family="'Inter, Helvetica, sans-serif'" font-size="12" lengthAdjust="spacing" textLength="121.3946" x="303.5048" y="1223.4313">Filtre aux &#233;ligibles D9</text><text fill="#000000" font-family="'Inter, Helvetica, sans-serif'" font-size="12" lengthAdjust="spacing" textLength="132.2012" x="303.5048" y="1237.9536">classe par score (desc)</text><rect fill="#F1F1F1" height="92.6118" rx="4" ry="4" style="stroke:#181818;stroke-width:0.5;" width="157.3999" x="290.9054" y="1270.8513"/><text fill="#000000" font-family="'Inter, Helvetica, sans-serif'" font-size="12" lengthAdjust="spacing" textLength="114.7641" x="300.9054" y="1292.476">Construit la r&#233;ponse</text><text fill="#000000" font-family="'Inter, Helvetica, sans-serif'" font-size="12" lengthAdjust="spacing" textLength="133.633" x="300.9054" y="1306.9984">{routedBy, gateReason,</text><text fill="#000000" font-family="'Inter, Helvetica, sans-serif'" font-size="12" lengthAdjust="spacing" textLength="137.3999" x="300.9054" y="1321.5207">best, ranked, resources,</text><text fill="#000000" font-family="'Inter, Helvetica, sans-serif'" font-size="12" lengthAdjust="spacing" textLength="127.5308" x="300.9054" y="1336.0431">embeddingReliability?,</text><text fill="#000000" font-family="'Inter, Helvetica, sans-serif'" font-size="12" lengthAdjust="spacing" textLength="118.2243" x="300.9054" y="1350.5654">level?, axisWeights?}</text><path d="M400.6053,1373.4631 L400.6053,1410.769 L380.6053,1414.769 L400.6053,1418.769 L400.6053,1456.0749 A0,0 0 0 0 400.6053,1456.0749 L622.89,1456.0749 A0,0 0 0 0 622.89,1456.0749 L622.89,1383.4631 L612.89,1373.4631 L400.6053,1373.4631 A0,0 0 0 0 400.6053,1373.4631" fill="#FFFDF6" style="stroke:#C68A3A;stroke-width:0.5;"/><path d="M612.89,1373.4631 L612.89,1383.4631 L622.89,1383.4631 L612.89,1373.4631" fill="#FFFDF6" style="stroke:#C68A3A;stroke-width:0.5;"/><text fill="#0E1014" font-family="'Inter, Helvetica, sans-serif'" font-size="12" lengthAdjust="spacing" textLength="72.8845" x="406.6053" y="1390.0878">routedBy est</text><text fill="#0E1014" font-family="'Inter, Helvetica, sans-serif'" font-size="12" font-weight="700" lengthAdjust="spacing" textLength="49.209" x="482.8648" y="1390.0878">toujours</text><text fill="#0E1014" font-family="'Inter, Helvetica, sans-serif'" font-size="12" lengthAdjust="spacing" textLength="47.3681" x="535.4487" y="1390.0878">explicite</text><text fill="#0E1014" font-family="'Inter, Helvetica, sans-serif'" font-size="12" lengthAdjust="spacing" textLength="193.6996" x="406.6053" y="1404.6102">dans la r&#233;ponse : 'vector' (pipeline</text><text fill="#0E1014" font-family="'Inter, Helvetica, sans-serif'" font-size="12" lengthAdjust="spacing" textLength="147.7121" x="406.6053" y="1419.1325">complet) ou 'r5' (fallback).</text><text fill="#0E1014" font-family="'Inter, Helvetica, sans-serif'" font-size="12" lengthAdjust="spacing" textLength="201.2847" x="406.6053" y="1433.6549">gateReason explique pourquoi pour</text><text fill="#0E1014" font-family="'Inter, Helvetica, sans-serif'" font-size="12" lengthAdjust="spacing" textLength="158.0074" x="406.6053" y="1448.1772">chaque r&#233;sultat non-vector.</text><ellipse cx="369.6053" cy="1414.769" fill="none" rx="11" ry="11" style="stroke:#222222;stroke-width:1;"/><ellipse cx="369.6053" cy="1414.769" fill="#222222" rx="6" ry="6" style="stroke:#222222;stroke-width:1;"/><line style="stroke:#1A1D24;stroke-width:1;" x1="369.6053" x2="369.6053" y1="72.9429" y2="92.9429"/><polygon fill="#1A1D24" points="365.6053,82.9429,369.6053,92.9429,373.6053,82.9429,369.6053,86.9429" style="stroke:#1A1D24;stroke-width:1;stroke-linejoin:miter;stroke-miterlimit:10;"/><line style="stroke:#1A1D24;stroke-width:1;" x1="369.6053" x2="369.6053" y1="141.9876" y2="161.9876"/><polygon fill="#1A1D24" points="365.6053,151.9876,369.6053,161.9876,373.6053,151.9876,369.6053,155.9876" style="stroke:#1A1D24;stroke-width:1;stroke-linejoin:miter;stroke-miterlimit:10;"/><line style="stroke:#1A1D24;stroke-width:1;" x1="369.6053" x2="369.6053" y1="211.0323" y2="231.0323"/><polygon fill="#1A1D24" points="365.6053,221.0323,369.6053,231.0323,373.6053,221.0323,369.6053,225.0323" style="stroke:#1A1D24;stroke-width:1;stroke-linejoin:miter;stroke-miterlimit:10;"/><line style="stroke:#1A1D24;stroke-width:1;" x1="998.1412" x2="998.1412" y1="598.7783" y2="633.7783"/><polygon fill="#1A1D24" points="994.1412,623.7783,998.1412,633.7783,1002.1412,623.7783,998.1412,627.7783" style="stroke:#1A1D24;stroke-width:1;stroke-linejoin:miter;stroke-miterlimit:10;"/><line style="stroke:#1A1D24;stroke-width:1;" x1="926.7307" x2="900.8974" y1="702.823" y2="702.823"/><line style="stroke:#1A1D24;stroke-width:1;" x1="900.8974" x2="900.8974" y1="702.823" y2="727.3453"/><polygon fill="#1A1D24" points="896.8974,717.3453,900.8974,727.3453,904.8974,717.3453,900.8974,721.3453" style="stroke:#1A1D24;stroke-width:1;stroke-linejoin:miter;stroke-miterlimit:10;"/><line style="stroke:#1A1D24;stroke-width:1;" x1="1069.5516" x2="1095.3849" y1="702.823" y2="702.823"/><line style="stroke:#1A1D24;stroke-width:1;" x1="1095.3849" x2="1095.3849" y1="702.823" y2="727.3453"/><polygon fill="#1A1D24" points="1091.3849,717.3453,1095.3849,727.3453,1099.3849,717.3453,1095.3849,721.3453" style="stroke:#1A1D24;stroke-width:1;stroke-linejoin:miter;stroke-miterlimit:10;"/><line style="stroke:#1A1D24;stroke-width:1;" x1="900.8974" x2="900.8974" y1="776.39" y2="794.39"/><line style="stroke:#1A1D24;stroke-width:1;" x1="900.8974" x2="986.1412" y1="794.39" y2="794.39"/><polygon fill="#1A1D24" points="976.1412,790.39,986.1412,794.39,976.1412,798.39,980.1412,794.39" style="stroke:#1A1D24;stroke-width:1;stroke-linejoin:miter;stroke-miterlimit:10;"/><line style="stroke:#1A1D24;stroke-width:1;" x1="1095.3849" x2="1095.3849" y1="776.39" y2="794.39"/><line style="stroke:#1A1D24;stroke-width:1;" x1="1095.3849" x2="1010.1412" y1="794.39" y2="794.39"/><polygon fill="#1A1D24" points="1020.1412,790.39,1010.1412,794.39,1020.1412,798.39,1016.1412,794.39" style="stroke:#1A1D24;stroke-width:1;stroke-linejoin:miter;stroke-miterlimit:10;"/><line style="stroke:#1A1D24;stroke-width:1;" x1="998.1412" x2="998.1412" y1="668.3006" y2="688.3006"/><polygon fill="#1A1D24" points="994.1412,678.3006,998.1412,688.3006,1002.1412,678.3006,998.1412,682.3006" style="stroke:#1A1D24;stroke-width:1;stroke-linejoin:miter;stroke-miterlimit:10;"/><line style="stroke:#1A1D24;stroke-width:1;" x1="998.1412" x2="998.1412" y1="806.39" y2="826.39"/><polygon fill="#1A1D24" points="994.1412,816.39,998.1412,826.39,1002.1412,816.39,998.1412,820.39" style="stroke:#1A1D24;stroke-width:1;stroke-linejoin:miter;stroke-miterlimit:10;"/><line style="stroke:#1A1D24;stroke-width:1;" x1="998.1412" x2="998.1412" y1="889.9571" y2="909.9571"/><polygon fill="#1A1D24" points="994.1412,899.9571,998.1412,909.9571,1002.1412,899.9571,998.1412,903.9571" style="stroke:#1A1D24;stroke-width:1;stroke-linejoin:miter;stroke-miterlimit:10;"/><line style="stroke:#1A1D24;stroke-width:1;" x1="764.56" x2="692.0378" y1="542.2559" y2="542.2559"/><line style="stroke:#1A1D24;stroke-width:1;" x1="692.0378" x2="692.0378" y1="542.2559" y2="564.2559"/><polygon fill="#1A1D24" points="688.0378,554.2559,692.0378,564.2559,696.0378,554.2559,692.0378,558.2559" style="stroke:#1A1D24;stroke-width:1;stroke-linejoin:miter;stroke-miterlimit:10;"/><line style="stroke:#1A1D24;stroke-width:1;" x1="925.619" x2="998.1412" y1="542.2559" y2="542.2559"/><line style="stroke:#1A1D24;stroke-width:1;" x1="998.1412" x2="998.1412" y1="542.2559" y2="564.2559"/><polygon fill="#1A1D24" points="994.1412,554.2559,998.1412,564.2559,1002.1412,554.2559,998.1412,558.2559" style="stroke:#1A1D24;stroke-width:1;stroke-linejoin:miter;stroke-miterlimit:10;"/><line style="stroke:#1A1D24;stroke-width:1;" x1="692.0378" x2="692.0378" y1="627.823" y2="984.9218"/><line style="stroke:#1A1D24;stroke-width:1;" x1="692.0378" x2="833.0895" y1="984.9218" y2="984.9218"/><polygon fill="#1A1D24" points="823.0895,980.9218,833.0895,984.9218,823.0895,988.9218,827.0895,984.9218" style="stroke:#1A1D24;stroke-width:1;stroke-linejoin:miter;stroke-miterlimit:10;"/><line style="stroke:#1A1D24;stroke-width:1;" x1="998.1412" x2="998.1412" y1="959.0018" y2="984.9218"/><line style="stroke:#1A1D24;stroke-width:1;" x1="998.1412" x2="857.0895" y1="984.9218" y2="984.9218"/><polygon fill="#1A1D24" points="867.0895,980.9218,857.0895,984.9218,867.0895,988.9218,863.0895,984.9218" style="stroke:#1A1D24;stroke-width:1;stroke-linejoin:miter;stroke-miterlimit:10;"/><line style="stroke:#1A1D24;stroke-width:1;" x1="845.0895" x2="845.0895" y1="510.2559" y2="530.2559"/><polygon fill="#1A1D24" points="841.0895,520.2559,845.0895,530.2559,849.0895,520.2559,845.0895,524.2559" style="stroke:#1A1D24;stroke-width:1;stroke-linejoin:miter;stroke-miterlimit:10;"/><line style="stroke:#1A1D24;stroke-width:1;" x1="593.9379" x2="472.3802" y1="424.6888" y2="424.6888"/><line style="stroke:#1A1D24;stroke-width:1;" x1="472.3802" x2="472.3802" y1="424.6888" y2="446.6888"/><polygon fill="#1A1D24" points="468.3802,436.6888,472.3802,446.6888,476.3802,436.6888,472.3802,440.6888" style="stroke:#1A1D24;stroke-width:1;stroke-linejoin:miter;stroke-miterlimit:10;"/><line style="stroke:#1A1D24;stroke-width:1;" x1="723.5318" x2="845.0895" y1="424.6888" y2="424.6888"/><line style="stroke:#1A1D24;stroke-width:1;" x1="845.0895" x2="845.0895" y1="424.6888" y2="446.6888"/><polygon fill="#1A1D24" points="841.0895,436.6888,845.0895,446.6888,849.0895,436.6888,845.0895,440.6888" style="stroke:#1A1D24;stroke-width:1;stroke-linejoin:miter;stroke-miterlimit:10;"/><line style="stroke:#1A1D24;stroke-width:1;" x1="472.3802" x2="472.3802" y1="495.7335" y2="1022.8419"/><line style="stroke:#1A1D24;stroke-width:1;" x1="472.3802" x2="646.7348" y1="1022.8419" y2="1022.8419"/><polygon fill="#1A1D24" points="636.7348,1018.8419,646.7348,1022.8419,636.7348,1026.8419,640.7348,1022.8419" style="stroke:#1A1D24;stroke-width:1;stroke-linejoin:miter;stroke-miterlimit:10;"/><line style="stroke:#1A1D24;stroke-width:1;" x1="845.0895" x2="845.0895" y1="996.9218" y2="1022.8419"/><line style="stroke:#1A1D24;stroke-width:1;" x1="845.0895" x2="670.7348" y1="1022.8419" y2="1022.8419"/><polygon fill="#1A1D24" points="680.7348,1018.8419,670.7348,1022.8419,680.7348,1026.8419,676.7348,1022.8419" style="stroke:#1A1D24;stroke-width:1;stroke-linejoin:miter;stroke-miterlimit:10;"/><line style="stroke:#1A1D24;stroke-width:1;" x1="658.7348" x2="658.7348" y1="388.1665" y2="412.6888"/><polygon fill="#1A1D24" points="654.7348,402.6888,658.7348,412.6888,662.7348,402.6888,658.7348,406.6888" style="stroke:#1A1D24;stroke-width:1;stroke-linejoin:miter;stroke-miterlimit:10;"/><line style="stroke:#1A1D24;stroke-width:1;" x1="288.7605" x2="80.4759" y1="314.5994" y2="314.5994"/><line style="stroke:#1A1D24;stroke-width:1;" x1="80.4759" x2="80.4759" y1="314.5994" y2="341.3829"/><polygon fill="#1A1D24" points="76.4759,331.3829,80.4759,341.3829,84.4759,331.3829,80.4759,335.3829" style="stroke:#1A1D24;stroke-width:1;stroke-linejoin:miter;stroke-miterlimit:10;"/><line style="stroke:#1A1D24;stroke-width:1;" x1="450.4502" x2="658.7348" y1="314.5994" y2="314.5994"/><line style="stroke:#1A1D24;stroke-width:1;" x1="658.7348" x2="658.7348" y1="314.5994" y2="339.1217"/><polygon fill="#1A1D24" points="654.7348,329.1217,658.7348,339.1217,662.7348,329.1217,658.7348,333.1217" style="stroke:#1A1D24;stroke-width:1;stroke-linejoin:miter;stroke-miterlimit:10;"/><line style="stroke:#1A1D24;stroke-width:1;" x1="80.4759" x2="80.4759" y1="390.4276" y2="1060.7619"/><line style="stroke:#1A1D24;stroke-width:1;" x1="80.4759" x2="357.6053" y1="1060.7619" y2="1060.7619"/><polygon fill="#1A1D24" points="347.6053,1056.7619,357.6053,1060.7619,347.6053,1064.7619,351.6053,1060.7619" style="stroke:#1A1D24;stroke-width:1;stroke-linejoin:miter;stroke-miterlimit:10;"/><line style="stroke:#1A1D24;stroke-width:1;" x1="658.7348" x2="658.7348" y1="1034.8419" y2="1060.7619"/><line style="stroke:#1A1D24;stroke-width:1;" x1="658.7348" x2="381.6053" y1="1060.7619" y2="1060.7619"/><polygon fill="#1A1D24" points="391.6053,1056.7619,381.6053,1060.7619,391.6053,1064.7619,387.6053,1060.7619" style="stroke:#1A1D24;stroke-width:1;stroke-linejoin:miter;stroke-miterlimit:10;"/><line style="stroke:#1A1D24;stroke-width:1;" x1="369.6053" x2="369.6053" y1="280.077" y2="300.077"/><polygon fill="#1A1D24" points="365.6053,290.077,369.6053,300.077,373.6053,290.077,369.6053,294.077" style="stroke:#1A1D24;stroke-width:1;stroke-linejoin:miter;stroke-miterlimit:10;"/><line style="stroke:#1A1D24;stroke-width:1;" x1="369.6053" x2="369.6053" y1="1072.7619" y2="1092.7619"/><polygon fill="#1A1D24" points="365.6053,1082.7619,369.6053,1092.7619,373.6053,1082.7619,369.6053,1086.7619" style="stroke:#1A1D24;stroke-width:1;stroke-linejoin:miter;stroke-miterlimit:10;"/><line style="stroke:#1A1D24;stroke-width:1;" x1="369.6053" x2="369.6053" y1="1127.2842" y2="1147.2842"/><polygon fill="#1A1D24" points="365.6053,1137.2842,369.6053,1147.2842,373.6053,1137.2842,369.6053,1141.2842" style="stroke:#1A1D24;stroke-width:1;stroke-linejoin:miter;stroke-miterlimit:10;"/><line style="stroke:#1A1D24;stroke-width:1;" x1="369.6053" x2="369.6053" y1="1181.8066" y2="1201.8066"/><polygon fill="#1A1D24" points="365.6053,1191.8066,369.6053,1201.8066,373.6053,1191.8066,369.6053,1195.8066" style="stroke:#1A1D24;stroke-width:1;stroke-linejoin:miter;stroke-miterlimit:10;"/><line style="stroke:#1A1D24;stroke-width:1;" x1="369.6053" x2="369.6053" y1="1250.8513" y2="1270.8513"/><polygon fill="#1A1D24" points="365.6053,1260.8513,369.6053,1270.8513,373.6053,1260.8513,369.6053,1264.8513" style="stroke:#1A1D24;stroke-width:1;stroke-linejoin:miter;stroke-miterlimit:10;"/><line style="stroke:#1A1D24;stroke-width:1;" x1="369.6053" x2="369.6053" y1="1363.4631" y2="1403.769"/><polygon fill="#1A1D24" points="365.6053,1393.769,369.6053,1403.769,373.6053,1393.769,369.6053,1397.769" style="stroke:#1A1D24;stroke-width:1;stroke-linejoin:miter;stroke-miterlimit:10;"/><?plantuml-src VLJDRfmm4BxxAQQdPjLqeoRDfQYL39WDZGDRO9kksieYu5qiyPE0DwlS-X1zWqgzjvVSym1vY3v93MmI4fPSZCVVp3VV31w_47cKhc8Eu_4Us-ohlKfUfNmiLbcAa1GovU077lC2anWii0DA47e9E9BYKiWhY4MuBCCC5aK9Ck5G5YifyYN4F1ALA798YwM8nc2AIfr74XPbaTMUYgJY5okUHnnsrec84gYIObt1wP4BKPYcpMu4_txyX8IN7DQySMYow1vsZ2FRcIYM7R40dftnEERbBYYZvAa8prBU6BT_zcx_WhBoU5Tn_HwD4QfaM4g4tZtKvGTaogYBJMPO4wsFs7x03EoOVX-RUgvED8HKhfq7oBOOET6PuJgMFHdLclCkxBWZ1F2KQkOJvXrg2iaBgLefbebK1a0tCAXz67qp1EmF0GSAK5rekDNszGSe3zbvA1CDyRJYNNbpuc_JHnn_vYaoWirvhN9hoTJ-J8OAxbDQc58T6yVCT4yThN7f2bEAjqlhCvqGl557MvwUEfMAKUnC_65vpmWCZZnju_DOuJCQjxJmH2Sc-pGZtbmRS54NwYCnWZkuLyQKU9HWgxbR_KewkVlK9l4DLWVVaJzL_j27Vh0Vu3bh1-y-F8_5Og0CdHB7lA-nYegIimpUm-qlkFWgljzSNx9CVR_bhs3D5aBUNAj5UTHcKYXJBIphjFoIHx8eMLpaVDFsJVRsswue3SzuUlTxUiEAlzW-2rpLOzlrjWopRxXUEuCjJoTdpzUoQK3K2NQE-qJwpAQckel-LAlVc-8SeKSp_MG-BTl1j1tgxSZ-878mYBmTH0xH_KFm7m00?></g></svg>