<svg xmlns="http://www.w3.org/2000/svg" xmlns:xlink="http://www.w3.org/1999/xlink" contentStyleType="text/css" data-diagram-type="ACTIVITY" height="2075px" preserveAspectRatio="none" style="width:938px;height:2075px;background:#F4EEE3;" version="1.1" viewBox="0 0 938 2075" width="938px" zoomAndPan="magnify"><?plantuml 1.2026.4?><defs/><g><rect fill="#F4EEE3" height="2075" style="stroke:none;stroke-width:1;" width="938" x="0" y="0"/><g class="title" data-source-line="3"><text fill="#000000" font-family="'Inter, Helvetica, sans-serif'" font-size="14" font-weight="700" lengthAdjust="spacing" textLength="301.0945" x="317.9229" y="33.5623">Activit&#233; &#8212; chemins de kill sandbox (POSIX)</text><text fill="#000000" font-family="'Inter, Helvetica, sans-serif'" font-size="14" font-weight="700" lengthAdjust="spacing" textLength="317.9977" x="309.4713" y="50.5051">ce qui fail l'assert vs ce qui invalide la mesure</text></g><ellipse cx="454.8033" cy="79.8858" fill="#222222" rx="10" ry="10" style="stroke:#222222;stroke-width:1;"/><rect fill="#F1F1F1" height="49.0447" rx="4" ry="4" style="stroke:#181818;stroke-width:0.5;" width="184.314" x="362.6462" y="109.8858"/><text fill="#000000" font-family="'Inter, Helvetica, sans-serif'" font-size="12" lengthAdjust="spacing" textLength="164.314" x="372.6462" y="131.5105">characterizeRunner construit</text><text fill="#000000" font-family="'Inter, Helvetica, sans-serif'" font-size="12" lengthAdjust="spacing" textLength="115.48" x="372.6462" y="146.0328">le seam runSandbox</text><rect fill="#F1F1F1" height="49.0447" rx="4" ry="4" style="stroke:#181818;stroke-width:0.5;" width="231.9889" x="338.8088" y="178.9305"/><text fill="#000000" font-family="'Inter, Helvetica, sans-serif'" font-size="12" lengthAdjust="spacing" textLength="172.5127" x="348.8088" y="200.5552">staircase.evaluateItem appelle</text><text fill="#000000" font-family="'Inter, Helvetica, sans-serif'" font-size="12" lengthAdjust="spacing" textLength="211.9889" x="348.8088" y="215.0776">runSandbox({codeLang, code, tests})</text><polygon fill="#F1F1F1" points="78.1919,247.9752,125.8668,247.9752,137.8668,259.9752,125.8668,271.9752,78.1919,271.9752,66.1919,259.9752,78.1919,247.9752" style="stroke:#181818;stroke-width:0.5;stroke-linejoin:miter;stroke-miterlimit:10;"/><text fill="#000000" font-family="'Inter, Helvetica, sans-serif'" font-size="12" lengthAdjust="spacing" textLength="90.2534" x="106.0293" y="283.5999">UnsafeSandbox</text><text fill="#000000" font-family="'Inter, Helvetica, sans-serif'" font-size="12" lengthAdjust="spacing" textLength="47.6749" x="78.1919" y="264.3387">Provider</text><rect fill="#F1F1F1" height="49.0447" rx="4" ry="4" style="stroke:#181818;stroke-width:0.5;" width="172.0586" x="16" y="306.4976"/><text fill="#000000" font-family="'Inter, Helvetica, sans-serif'" font-size="12" lengthAdjust="spacing" textLength="152.0586" x="26" y="328.1223">throw SandboxUnavailable</text><text fill="#000000" font-family="'Inter, Helvetica, sans-serif'" font-size="12" lengthAdjust="spacing" textLength="71.7936" x="26" y="342.6446">("opt-in off")</text><polygon fill="#F1F1F1" points="392.8501,247.9752,586.0895,247.9752,598.0895,259.9752,586.0895,271.9752,392.8501,271.9752,380.8501,259.9752,392.8501,247.9752" style="stroke:#181818;stroke-width:0.5;stroke-linejoin:miter;stroke-miterlimit:10;"/><text fill="#000000" font-family="'Inter, Helvetica, sans-serif'" font-size="12" lengthAdjust="spacing" textLength="193.2394" x="392.8501" y="264.3387">PosixSandbox / WindowsSandbox</text><rect fill="#F1F1F1" height="49.0447" rx="4" ry="4" style="stroke:#181818;stroke-width:0.5;" width="172.0586" x="403.4405" y="341.2364"/><text fill="#000000" font-family="'Inter, Helvetica, sans-serif'" font-size="12" lengthAdjust="spacing" textLength="152.0586" x="413.4405" y="362.8611">throw SandboxUnavailable</text><text fill="#000000" font-family="'Inter, Helvetica, sans-serif'" font-size="12" lengthAdjust="spacing" textLength="99.5429" x="413.4405" y="377.3834">("pas de python")</text><polygon fill="#F1F1F1" points="434.7553,291.9752,544.1844,291.9752,556.1844,303.9752,544.1844,315.9752,434.7553,315.9752,422.7553,303.9752,434.7553,291.9752" style="stroke:#181818;stroke-width:0.5;stroke-linejoin:miter;stroke-miterlimit:10;"/><text fill="#000000" font-family="'Inter, Helvetica, sans-serif'" font-size="12" lengthAdjust="spacing" textLength="21.204" x="493.4698" y="327.5999">non</text><text fill="#000000" font-family="'Inter, Helvetica, sans-serif'" font-size="12" lengthAdjust="spacing" textLength="109.429" x="434.7553" y="308.3387">trouve python OK ?</text><polygon fill="#F1F1F1" points="489.4698,416.2011,501.4698,428.2011,489.4698,440.2011,477.4698,428.2011,489.4698,416.2011" style="stroke:#181818;stroke-width:0.5;stroke-linejoin:miter;stroke-miterlimit:10;"/><text fill="#000000" font-family="'Inter, Helvetica, sans-serif'" font-size="12" lengthAdjust="spacing" textLength="63.9529" x="495.4698" y="413.3035">unavailable</text><rect fill="#F1F1F1" height="49.0447" rx="4" ry="4" style="stroke:#181818;stroke-width:0.5;" width="172.0586" x="403.4405" y="509.4623"/><text fill="#000000" font-family="'Inter, Helvetica, sans-serif'" font-size="12" lengthAdjust="spacing" textLength="152.0586" x="413.4405" y="531.087">throw SandboxUnavailable</text><text fill="#000000" font-family="'Inter, Helvetica, sans-serif'" font-size="12" lengthAdjust="spacing" textLength="121.0026" x="413.4405" y="545.6094">("mkdtemp" / "write")</text><polygon fill="#F1F1F1" points="416.4234,460.2011,562.5163,460.2011,574.5163,472.2011,562.5163,484.2011,416.4234,484.2011,404.4234,472.2011,416.4234,460.2011" style="stroke:#181818;stroke-width:0.5;stroke-linejoin:miter;stroke-miterlimit:10;"/><text fill="#000000" font-family="'Inter, Helvetica, sans-serif'" font-size="12" lengthAdjust="spacing" textLength="21.204" x="493.4698" y="495.8258">non</text><text fill="#000000" font-family="'Inter, Helvetica, sans-serif'" font-size="12" lengthAdjust="spacing" textLength="146.0928" x="416.4234" y="476.5646">mkdtemp + writeFile OK ?</text><polygon fill="#F1F1F1" points="489.4698,584.427,501.4698,596.427,489.4698,608.427,477.4698,596.427,489.4698,584.427" style="stroke:#181818;stroke-width:0.5;stroke-linejoin:miter;stroke-miterlimit:10;"/><text fill="#000000" font-family="'Inter, Helvetica, sans-serif'" font-size="12" lengthAdjust="spacing" textLength="63.9529" x="495.4698" y="581.5294">unavailable</text><path d="M609.5608,618.427 L609.5608,701.0388 L843.6065,701.0388 L843.6065,628.427 L833.6065,618.427 L609.5608,618.427" fill="#FFFDF6" style="stroke:#C68A3A;stroke-width:0.5;"/><path d="M833.6065,618.427 L833.6065,628.427 L843.6065,628.427 L833.6065,618.427" fill="#FFFDF6" style="stroke:#C68A3A;stroke-width:0.5;"/><text fill="#0E1014" font-family="'Inter, Helvetica, sans-serif'" font-size="12" lengthAdjust="spacing" textLength="126.1843" x="615.5608" y="635.0517">Les &#233;checs rlimit dans</text><text fill="#0E1014" font-family="'Inter, Helvetica, sans-serif'" font-size="12" lengthAdjust="spacing" textLength="213.0457" x="615.5608" y="649.5741">Python sont silencieusement pass&#233;s ;</text><text fill="#0E1014" font-family="'Inter, Helvetica, sans-serif'" font-size="12" lengthAdjust="spacing" textLength="137.3488" x="615.5608" y="664.0964">le vrai &#233;chec surface via</text><text fill="#0E1014" font-family="'Inter, Helvetica, sans-serif'" font-size="12" lengthAdjust="spacing" textLength="99.2532" x="615.5608" y="678.6188">RLIMIT_FSIZE = 0</text><text fill="#0E1014" font-family="'Inter, Helvetica, sans-serif'" font-size="12" lengthAdjust="spacing" textLength="124.1559" x="615.5608" y="693.1412">ou le timer wall-clock.</text><polygon fill="#F1F1F1" points="381.3789,701.0388,597.5608,701.0388,609.5608,713.0388,597.5608,725.0388,381.3789,725.0388,369.3789,713.0388,381.3789,701.0388" style="stroke:#181818;stroke-width:0.5;stroke-linejoin:miter;stroke-miterlimit:10;"/><text fill="#000000" font-family="'Inter, Helvetica, sans-serif'" font-size="12" lengthAdjust="spacing" textLength="216.1819" x="381.3789" y="717.4023">POSIX : setrlimit r&#233;ussit dans le child ?</text><text fill="#000000" font-family="'Inter, Helvetica, sans-serif'" font-size="12" lengthAdjust="spacing" textLength="21.204" x="348.1749" y="710.1412">non</text><polygon fill="#F1F1F1" points="489.4698,741.0388,501.4698,753.0388,489.4698,765.0388,477.4698,753.0388,489.4698,741.0388" style="stroke:#181818;stroke-width:0.5;stroke-linejoin:miter;stroke-miterlimit:10;"/><rect fill="#F1F1F1" height="49.0447" rx="4" ry="4" style="stroke:#181818;stroke-width:0.5;" width="183.7685" x="397.5856" y="785.0388"/><text fill="#000000" font-family="'Inter, Helvetica, sans-serif'" font-size="12" lengthAdjust="spacing" textLength="163.7685" x="407.5856" y="806.6635">spawn child (Python -I -S -B,</text><text fill="#000000" font-family="'Inter, Helvetica, sans-serif'" font-size="12" lengthAdjust="spacing" textLength="135.2352" x="407.5856" y="821.1859">pgrp d&#233;tach&#233;, env vide)</text><rect fill="#F1F1F1" height="49.0447" rx="4" ry="4" style="stroke:#181818;stroke-width:0.5;" width="172.0586" x="403.4405" y="903.3447"/><text fill="#000000" font-family="'Inter, Helvetica, sans-serif'" font-size="12" lengthAdjust="spacing" textLength="152.0586" x="413.4405" y="924.9694">throw SandboxUnavailable</text><text fill="#000000" font-family="'Inter, Helvetica, sans-serif'" font-size="12" lengthAdjust="spacing" textLength="93.2192" x="413.4405" y="939.4918">("erreur spawn")</text><polygon fill="#F1F1F1" points="413.8922,854.0835,565.0475,854.0835,577.0475,866.0835,565.0475,878.0835,413.8922,878.0835,401.8922,866.0835,413.8922,854.0835" style="stroke:#181818;stroke-width:0.5;stroke-linejoin:miter;stroke-miterlimit:10;"/><text fill="#000000" font-family="'Inter, Helvetica, sans-serif'" font-size="12" lengthAdjust="spacing" textLength="16.9768" x="493.4698" y="889.7082">oui</text><text fill="#000000" font-family="'Inter, Helvetica, sans-serif'" font-size="12" lengthAdjust="spacing" textLength="151.1553" x="413.8922" y="870.447">&#233;v&#233;nement erreur spawn ?</text><polygon fill="#F1F1F1" points="489.4698,987.8989,501.4698,999.8989,489.4698,1011.8989,477.4698,999.8989,489.4698,987.8989" style="stroke:#181818;stroke-width:0.5;stroke-linejoin:miter;stroke-miterlimit:10;"/><text fill="#000000" font-family="'Inter, Helvetica, sans-serif'" font-size="12" lengthAdjust="spacing" textLength="63.9529" x="495.4698" y="985.0012">unavailable</text><rect fill="#555555" height="6" rx="2.5" ry="2.5" style="stroke:#555555;stroke-width:1;" width="554.3742" x="212.2827" y="1031.8989"/><rect fill="#F1F1F1" height="34.5224" rx="4" ry="4" style="stroke:#181818;stroke-width:0.5;" width="103.5717" x="226.2827" y="1168.9436"/><text fill="#000000" font-family="'Inter, Helvetica, sans-serif'" font-size="12" lengthAdjust="spacing" textLength="83.5717" x="236.2827" y="1190.5683">Attend `close`</text><rect fill="#F1F1F1" height="49.0447" rx="4" ry="4" style="stroke:#181818;stroke-width:0.5;" width="155.0988" x="357.8545" y="1057.8989"/><text fill="#000000" font-family="'Inter, Helvetica, sans-serif'" font-size="12" lengthAdjust="spacing" textLength="93.4749" x="367.8545" y="1079.5236">Timer wall-clock</text><text fill="#000000" font-family="'Inter, Helvetica, sans-serif'" font-size="12" lengthAdjust="spacing" textLength="135.0988" x="367.8545" y="1094.0459">(timeoutMs d&#233;faut 10 s)</text><rect fill="#F1F1F1" height="34.5224" rx="4" ry="4" style="stroke:#181818;stroke-width:0.5;" width="125.1678" x="372.82" y="1176.2048"/><text fill="#000000" font-family="'Inter, Helvetica, sans-serif'" font-size="12" lengthAdjust="spacing" textLength="105.1678" x="382.82" y="1197.8295">kill(-pgid, SIGKILL)</text><rect fill="#F1F1F1" height="34.5224" rx="4" ry="4" style="stroke:#181818;stroke-width:0.5;" width="121.7758" x="374.516" y="1245.7271"/><text fill="#000000" font-family="'Inter, Helvetica, sans-serif'" font-size="12" lengthAdjust="spacing" textLength="101.7758" x="384.516" y="1267.3518">reason = 'timeout'</text><polygon fill="#F1F1F1" points="411.7539,1126.9436,459.0538,1126.9436,471.0538,1138.9436,459.0538,1150.9436,411.7539,1150.9436,399.7539,1138.9436,411.7539,1126.9436" style="stroke:#181818;stroke-width:0.5;stroke-linejoin:miter;stroke-miterlimit:10;"/><text fill="#000000" font-family="'Inter, Helvetica, sans-serif'" font-size="12" lengthAdjust="spacing" textLength="16.9768" x="439.4039" y="1162.5683">oui</text><text fill="#000000" font-family="'Inter, Helvetica, sans-serif'" font-size="12" lengthAdjust="spacing" textLength="47.2999" x="411.7539" y="1143.3071">&#201;coul&#233; ?</text><polygon fill="#F1F1F1" points="435.4039,1300.2495,447.4039,1312.2495,435.4039,1324.2495,423.4039,1312.2495,435.4039,1300.2495" style="stroke:#181818;stroke-width:0.5;stroke-linejoin:miter;stroke-miterlimit:10;"/><rect fill="#F1F1F1" height="49.0447" rx="4" ry="4" style="stroke:#181818;stroke-width:0.5;" width="194.6433" x="547.9878" y="1057.8989"/><text fill="#000000" font-family="'Inter, Helvetica, sans-serif'" font-size="12" lengthAdjust="spacing" textLength="98.3839" x="557.9878" y="1079.5236">Watcher d'output</text><text fill="#000000" font-family="'Inter, Helvetica, sans-serif'" font-size="12" lengthAdjust="spacing" textLength="174.6433" x="557.9878" y="1094.0459">(maxOutputBytes d&#233;faut 1 MB)</text><rect fill="#F1F1F1" height="34.5224" rx="4" ry="4" style="stroke:#181818;stroke-width:0.5;" width="125.1678" x="582.7255" y="1176.2048"/><text fill="#000000" font-family="'Inter, Helvetica, sans-serif'" font-size="12" lengthAdjust="spacing" textLength="105.1678" x="592.7255" y="1197.8295">kill(-pgid, SIGKILL)</text><rect fill="#F1F1F1" height="34.5224" rx="4" ry="4" style="stroke:#181818;stroke-width:0.5;" width="170.695" x="559.9619" y="1245.7271"/><text fill="#000000" font-family="'Inter, Helvetica, sans-serif'" font-size="12" lengthAdjust="spacing" textLength="150.695" x="569.9619" y="1267.3518">reason = 'output-overflow'</text><polygon fill="#F1F1F1" points="606.8814,1126.9436,683.7374,1126.9436,695.7374,1138.9436,683.7374,1150.9436,606.8814,1150.9436,594.8814,1138.9436,606.8814,1126.9436" style="stroke:#181818;stroke-width:0.5;stroke-linejoin:miter;stroke-miterlimit:10;"/><text fill="#000000" font-family="'Inter, Helvetica, sans-serif'" font-size="12" lengthAdjust="spacing" textLength="16.9768" x="649.3094" y="1162.5683">oui</text><text fill="#000000" font-family="'Inter, Helvetica, sans-serif'" font-size="12" lengthAdjust="spacing" textLength="76.856" x="606.8814" y="1143.3071">Seuil atteint ?</text><polygon fill="#F1F1F1" points="645.3094,1300.2495,657.3094,1312.2495,645.3094,1324.2495,633.3094,1312.2495,645.3094,1300.2495" style="stroke:#181818;stroke-width:0.5;stroke-linejoin:miter;stroke-miterlimit:10;"/><rect fill="#555555" height="6" rx="2.5" ry="2.5" style="stroke:#555555;stroke-width:1;" width="554.3742" x="212.2827" y="1344.2495"/><polygon fill="#F1F1F1" points="263.466,1370.2495,348.282,1370.2495,360.282,1382.2495,348.282,1394.2495,263.466,1394.2495,251.466,1382.2495,263.466,1370.2495" style="stroke:#181818;stroke-width:0.5;stroke-linejoin:miter;stroke-miterlimit:10;"/><text fill="#000000" font-family="'Inter, Helvetica, sans-serif'" font-size="12" lengthAdjust="spacing" textLength="16.9768" x="309.874" y="1405.8742">oui</text><text fill="#000000" font-family="'Inter, Helvetica, sans-serif'" font-size="12" lengthAdjust="spacing" textLength="84.816" x="263.466" y="1386.613">Code d'exit 0 ?</text><rect fill="#F1F1F1" height="34.5224" rx="4" ry="4" style="stroke:#181818;stroke-width:0.5;" width="133.213" x="239.2675" y="1428.7718"/><text fill="#000000" font-family="'Inter, Helvetica, sans-serif'" font-size="12" lengthAdjust="spacing" textLength="113.213" x="249.2675" y="1450.3965">retourne {pass:true}</text><polygon fill="#F1F1F1" points="446.8061,1370.2495,521.1906,1370.2495,533.1906,1382.2495,521.1906,1394.2495,446.8061,1394.2495,434.8061,1382.2495,446.8061,1370.2495" style="stroke:#181818;stroke-width:0.5;stroke-linejoin:miter;stroke-miterlimit:10;"/><text fill="#000000" font-family="'Inter, Helvetica, sans-serif'" font-size="12" lengthAdjust="spacing" textLength="16.9768" x="487.9984" y="1405.8742">oui</text><text fill="#000000" font-family="'Inter, Helvetica, sans-serif'" font-size="12" lengthAdjust="spacing" textLength="74.3845" x="446.8061" y="1386.613">Tu&#233; par nous</text><text fill="#000000" font-family="'Inter, Helvetica, sans-serif'" font-size="12" lengthAdjust="spacing" textLength="84.7649" x="533.1906" y="1379.3518">autre non-z&#233;ro</text><rect fill="#F1F1F1" height="34.5224" rx="4" ry="4" style="stroke:#181818;stroke-width:0.5;" width="183.0356" x="392.4806" y="1428.7718"/><text fill="#000000" font-family="'Inter, Helvetica, sans-serif'" font-size="12" lengthAdjust="spacing" textLength="163.0356" x="402.4806" y="1450.3965">retourne {pass:false, reason}</text><rect fill="#F1F1F1" height="49.0447" rx="4" ry="4" style="stroke:#181818;stroke-width:0.5;" width="144.1559" x="595.5162" y="1417.2495"/><text fill="#000000" font-family="'Inter, Helvetica, sans-serif'" font-size="12" lengthAdjust="spacing" textLength="116.6391" x="605.5162" y="1438.8742">retourne {pass:false,</text><text fill="#000000" font-family="'Inter, Helvetica, sans-serif'" font-size="12" lengthAdjust="spacing" textLength="124.1559" x="605.5162" y="1453.3965">reason:'exit-nonzero'}</text><rect fill="#F1F1F1" height="49.0447" rx="4" ry="4" style="stroke:#181818;stroke-width:0.5;" width="136.5539" x="386.5263" y="1526.2942"/><text fill="#000000" font-family="'Inter, Helvetica, sans-serif'" font-size="12" lengthAdjust="spacing" textLength="116.5539" x="396.5263" y="1547.9189">Item enregistr&#233; avec</text><text fill="#000000" font-family="'Inter, Helvetica, sans-serif'" font-size="12" lengthAdjust="spacing" textLength="98.0771" x="396.5263" y="1562.4412">{status: pass/fail}</text><ellipse cx="454.8033" cy="1606.3389" fill="none" rx="11" ry="11" style="stroke:#222222;stroke-width:1;"/><ellipse cx="454.8033" cy="1606.3389" fill="#222222" rx="6" ry="6" style="stroke:#222222;stroke-width:1;"/><rect fill="#F1F1F1" height="49.0447" rx="4" ry="4" style="stroke:#181818;stroke-width:0.5;" width="177.2915" x="366.1575" y="1637.3389"/><text fill="#000000" font-family="'Inter, Helvetica, sans-serif'" font-size="12" lengthAdjust="spacing" textLength="157.2915" x="376.1575" y="1658.9636">L'appelant (staircase) catch</text><text fill="#000000" font-family="'Inter, Helvetica, sans-serif'" font-size="12" lengthAdjust="spacing" textLength="115.855" x="376.1575" y="1673.486">SandboxUnavailable</text><rect fill="#F1F1F1" height="63.5671" rx="4" ry="4" style="stroke:#181818;stroke-width:0.5;" width="171.7177" x="368.9444" y="1706.3836"/><text fill="#000000" font-family="'Inter, Helvetica, sans-serif'" font-size="12" lengthAdjust="spacing" textLength="131.1273" x="378.9444" y="1728.0083">Item enregistr&#233; comme</text><text fill="#000000" font-family="'Inter, Helvetica, sans-serif'" font-size="12" lengthAdjust="spacing" textLength="121.6674" x="378.9444" y="1742.5307">{status:'unmeasured',</text><text fill="#000000" font-family="'Inter, Helvetica, sans-serif'" font-size="12" lengthAdjust="spacing" textLength="151.7177" x="378.9444" y="1757.053">reason:'sandbox-pending'}</text><rect fill="#F1F1F1" height="49.0447" rx="4" ry="4" style="stroke:#181818;stroke-width:0.5;" width="213.2905" x="348.158" y="1789.9507"/><text fill="#000000" font-family="'Inter, Helvetica, sans-serif'" font-size="12" lengthAdjust="spacing" textLength="193.2905" x="358.158" y="1811.5754">Feuille laiss&#233;e au prior de branche</text><text fill="#000000" font-family="'Inter, Helvetica, sans-serif'" font-size="12" lengthAdjust="spacing" textLength="153.7972" x="358.158" y="1826.0978">(D12, confiance plus faible)</text><path d="M218.0724,1858.9954 L218.0724,1941.6072 L412.7953,1941.6072 L412.7953,1868.9954 L402.7953,1858.9954 L218.0724,1858.9954" fill="#FFFDF6" style="stroke:#C68A3A;stroke-width:0.5;"/><path d="M402.7953,1858.9954 L402.7953,1868.9954 L412.7953,1868.9954 L402.7953,1858.9954" fill="#FFFDF6" style="stroke:#C68A3A;stroke-width:0.5;"/><text fill="#0E1014" font-family="'Inter, Helvetica, sans-serif'" font-size="12" font-weight="700" lengthAdjust="spacing" textLength="59.3338" x="224.0724" y="1875.6201">measured</text><text fill="#0E1014" font-family="'Inter, Helvetica, sans-serif'" font-size="12" lengthAdjust="spacing" textLength="11.9997" x="286.7811" y="1875.6201">&#8212;</text><text fill="#0E1014" font-family="'Inter, Helvetica, sans-serif'" font-size="12" lengthAdjust="spacing" textLength="133.4966" x="224.0724" y="1890.1425">VRAI signal de mesure :</text><text fill="#0E1014" font-family="'Inter, Helvetica, sans-serif'" font-size="12" lengthAdjust="spacing" textLength="172.1547" x="224.0724" y="1904.6648">entre dans scores_per_leaf via</text><text fill="#0E1014" font-family="'Inter, Helvetica, sans-serif'" font-size="12" lengthAdjust="spacing" textLength="173.7229" x="224.0724" y="1919.1872">Beta-Laplace (passes_per_leaf</text><text fill="#0E1014" font-family="'Inter, Helvetica, sans-serif'" font-size="12" lengthAdjust="spacing" textLength="113.963" x="224.0724" y="1933.7095">incr&#233;ment&#233; si pass).</text><path d="M197.0644,1961.6072 L197.0644,2044.219 L433.8033,2044.219 L433.8033,1971.6072 L423.8033,1961.6072 L197.0644,1961.6072" fill="#FFFDF6" style="stroke:#C68A3A;stroke-width:0.5;"/><path d="M423.8033,1961.6072 L423.8033,1971.6072 L433.8033,1971.6072 L423.8033,1961.6072" fill="#FFFDF6" style="stroke:#C68A3A;stroke-width:0.5;"/><text fill="#0E1014" font-family="'Inter, Helvetica, sans-serif'" font-size="12" font-weight="700" lengthAdjust="spacing" textLength="68.0779" x="203.0644" y="1978.2319">unavailable</text><text fill="#0E1014" font-family="'Inter, Helvetica, sans-serif'" font-size="12" lengthAdjust="spacing" textLength="11.9997" x="274.5173" y="1978.2319">&#8212;</text><text fill="#0E1014" font-family="'Inter, Helvetica, sans-serif'" font-size="12" lengthAdjust="spacing" textLength="108.6109" x="203.0644" y="1992.7543">PAS une mesure &#8212;</text><text fill="#0E1014" font-family="'Inter, Helvetica, sans-serif'" font-size="12" lengthAdjust="spacing" textLength="147.8656" x="203.0644" y="2007.2766">passes_per_leaf n'est PAS</text><text fill="#0E1014" font-family="'Inter, Helvetica, sans-serif'" font-size="12" lengthAdjust="spacing" textLength="140.2124" x="203.0644" y="2021.799">touch&#233; (seules les vraies</text><text fill="#0E1014" font-family="'Inter, Helvetica, sans-serif'" font-size="12" lengthAdjust="spacing" textLength="215.7388" x="203.0644" y="2036.3213">mont&#233;es comptent vers la saturation).</text><ellipse cx="454.8033" cy="1951.6072" fill="none" rx="11" ry="11" style="stroke:#222222;stroke-width:1;"/><ellipse cx="454.8033" cy="1951.6072" fill="#222222" rx="6" ry="6" style="stroke:#222222;stroke-width:1;"/><line style="stroke:#1A1D24;stroke-width:1;" x1="454.8033" x2="454.8033" y1="89.8858" y2="109.8858"/><polygon fill="#1A1D24" points="450.8033,99.8858,454.8033,109.8858,458.8033,99.8858,454.8033,103.8858" style="stroke:#1A1D24;stroke-width:1;stroke-linejoin:miter;stroke-miterlimit:10;"/><line style="stroke:#1A1D24;stroke-width:1;" x1="454.8033" x2="454.8033" y1="158.9305" y2="178.9305"/><polygon fill="#1A1D24" points="450.8033,168.9305,454.8033,178.9305,458.8033,168.9305,454.8033,172.9305" style="stroke:#1A1D24;stroke-width:1;stroke-linejoin:miter;stroke-miterlimit:10;"/><line style="stroke:#1A1D24;stroke-width:1;" x1="489.4698" x2="489.4698" y1="315.9752" y2="341.2364"/><polygon fill="#1A1D24" points="485.4698,331.2364,489.4698,341.2364,493.4698,331.2364,489.4698,335.2364" style="stroke:#1A1D24;stroke-width:1;stroke-linejoin:miter;stroke-miterlimit:10;"/><line style="stroke:#1A1D24;stroke-width:1;" x1="556.1844" x2="585.4991" y1="303.9752" y2="303.9752"/><polygon fill="#1A1D24" points="581.4991,363.0199,585.4991,373.0199,589.4991,363.0199,585.4991,367.0199" style="stroke:#1A1D24;stroke-width:1;stroke-linejoin:miter;stroke-miterlimit:10;"/><line style="stroke:#1A1D24;stroke-width:1;" x1="585.4991" x2="585.4991" y1="303.9752" y2="428.2011"/><line style="stroke:#1A1D24;stroke-width:1;" x1="585.4991" x2="501.4698" y1="428.2011" y2="428.2011"/><polygon fill="#1A1D24" points="511.4698,424.2011,501.4698,428.2011,511.4698,432.2011,507.4698,428.2011" style="stroke:#1A1D24;stroke-width:1;stroke-linejoin:miter;stroke-miterlimit:10;"/><line style="stroke:#1A1D24;stroke-width:1;" x1="489.4698" x2="489.4698" y1="390.2811" y2="416.2011"/><polygon fill="#1A1D24" points="485.4698,406.2011,489.4698,416.2011,493.4698,406.2011,489.4698,410.2011" style="stroke:#1A1D24;stroke-width:1;stroke-linejoin:miter;stroke-miterlimit:10;"/><line style="stroke:#1A1D24;stroke-width:1;" x1="489.4698" x2="489.4698" y1="484.2011" y2="509.4623"/><polygon fill="#1A1D24" points="485.4698,499.4623,489.4698,509.4623,493.4698,499.4623,489.4698,503.4623" style="stroke:#1A1D24;stroke-width:1;stroke-linejoin:miter;stroke-miterlimit:10;"/><line style="stroke:#1A1D24;stroke-width:1;" x1="574.5163" x2="586.5163" y1="472.2011" y2="472.2011"/><polygon fill="#1A1D24" points="582.5163,531.2458,586.5163,541.2458,590.5163,531.2458,586.5163,535.2458" style="stroke:#1A1D24;stroke-width:1;stroke-linejoin:miter;stroke-miterlimit:10;"/><line style="stroke:#1A1D24;stroke-width:1;" x1="586.5163" x2="586.5163" y1="472.2011" y2="596.427"/><line style="stroke:#1A1D24;stroke-width:1;" x1="586.5163" x2="501.4698" y1="596.427" y2="596.427"/><polygon fill="#1A1D24" points="511.4698,592.427,501.4698,596.427,511.4698,600.427,507.4698,596.427" style="stroke:#1A1D24;stroke-width:1;stroke-linejoin:miter;stroke-miterlimit:10;"/><line style="stroke:#1A1D24;stroke-width:1;" x1="489.4698" x2="489.4698" y1="558.507" y2="584.427"/><polygon fill="#1A1D24" points="485.4698,574.427,489.4698,584.427,493.4698,574.427,489.4698,578.427" style="stroke:#1A1D24;stroke-width:1;stroke-linejoin:miter;stroke-miterlimit:10;"/><line style="stroke:#1A1D24;stroke-width:1;" x1="489.4698" x2="489.4698" y1="440.2011" y2="460.2011"/><polygon fill="#1A1D24" points="485.4698,450.2011,489.4698,460.2011,493.4698,450.2011,489.4698,454.2011" style="stroke:#1A1D24;stroke-width:1;stroke-linejoin:miter;stroke-miterlimit:10;"/><line style="stroke:#1A1D24;stroke-width:1;" x1="369.3789" x2="359.3789" y1="713.0388" y2="713.0388"/><polygon fill="#1A1D24" points="355.3789,723.0388,359.3789,733.0388,363.3789,723.0388,359.3789,727.0388" style="stroke:#1A1D24;stroke-width:1;stroke-linejoin:miter;stroke-miterlimit:10;"/><line style="stroke:#1A1D24;stroke-width:1;" x1="359.3789" x2="359.3789" y1="713.0388" y2="753.0388"/><line style="stroke:#1A1D24;stroke-width:1;" x1="359.3789" x2="477.4698" y1="753.0388" y2="753.0388"/><polygon fill="#1A1D24" points="467.4698,749.0388,477.4698,753.0388,467.4698,757.0388,471.4698,753.0388" style="stroke:#1A1D24;stroke-width:1;stroke-linejoin:miter;stroke-miterlimit:10;"/><line style="stroke:#1A1D24;stroke-width:1;" x1="609.5608" x2="619.5608" y1="713.0388" y2="713.0388"/><polygon fill="#1A1D24" points="615.5608,723.0388,619.5608,733.0388,623.5608,723.0388,619.5608,727.0388" style="stroke:#1A1D24;stroke-width:1;stroke-linejoin:miter;stroke-miterlimit:10;"/><line style="stroke:#1A1D24;stroke-width:1;" x1="619.5608" x2="619.5608" y1="713.0388" y2="753.0388"/><line style="stroke:#1A1D24;stroke-width:1;" x1="619.5608" x2="501.4698" y1="753.0388" y2="753.0388"/><polygon fill="#1A1D24" points="511.4698,749.0388,501.4698,753.0388,511.4698,757.0388,507.4698,753.0388" style="stroke:#1A1D24;stroke-width:1;stroke-linejoin:miter;stroke-miterlimit:10;"/><line style="stroke:#1A1D24;stroke-width:1;" x1="489.4698" x2="489.4698" y1="608.427" y2="701.0388"/><polygon fill="#1A1D24" points="485.4698,691.0388,489.4698,701.0388,493.4698,691.0388,489.4698,695.0388" style="stroke:#1A1D24;stroke-width:1;stroke-linejoin:miter;stroke-miterlimit:10;"/><line style="stroke:#1A1D24;stroke-width:1;" x1="489.4698" x2="489.4698" y1="765.0388" y2="785.0388"/><polygon fill="#1A1D24" points="485.4698,775.0388,489.4698,785.0388,493.4698,775.0388,489.4698,779.0388" style="stroke:#1A1D24;stroke-width:1;stroke-linejoin:miter;stroke-miterlimit:10;"/><line style="stroke:#1A1D24;stroke-width:1;" x1="489.4698" x2="489.4698" y1="878.0835" y2="903.3447"/><polygon fill="#1A1D24" points="485.4698,893.3447,489.4698,903.3447,493.4698,893.3447,489.4698,897.3447" style="stroke:#1A1D24;stroke-width:1;stroke-linejoin:miter;stroke-miterlimit:10;"/><line style="stroke:#1A1D24;stroke-width:1;" x1="577.0475" x2="589.0475" y1="866.0835" y2="866.0835"/><polygon fill="#1A1D24" points="585.0475,925.1282,589.0475,935.1282,593.0475,925.1282,589.0475,929.1282" style="stroke:#1A1D24;stroke-width:1;stroke-linejoin:miter;stroke-miterlimit:10;"/><line style="stroke:#1A1D24;stroke-width:1;" x1="589.0475" x2="589.0475" y1="866.0835" y2="999.8989"/><line style="stroke:#1A1D24;stroke-width:1;" x1="589.0475" x2="501.4698" y1="999.8989" y2="999.8989"/><polygon fill="#1A1D24" points="511.4698,995.8989,501.4698,999.8989,511.4698,1003.8989,507.4698,999.8989" style="stroke:#1A1D24;stroke-width:1;stroke-linejoin:miter;stroke-miterlimit:10;"/><line style="stroke:#1A1D24;stroke-width:1;" x1="489.4698" x2="489.4698" y1="952.3894" y2="987.8989"/><polygon fill="#1A1D24" points="485.4698,977.8989,489.4698,987.8989,493.4698,977.8989,489.4698,981.8989" style="stroke:#1A1D24;stroke-width:1;stroke-linejoin:miter;stroke-miterlimit:10;"/><line style="stroke:#1A1D24;stroke-width:1;" x1="489.4698" x2="489.4698" y1="834.0835" y2="854.0835"/><polygon fill="#1A1D24" points="485.4698,844.0835,489.4698,854.0835,493.4698,844.0835,489.4698,848.0835" style="stroke:#1A1D24;stroke-width:1;stroke-linejoin:miter;stroke-miterlimit:10;"/><line style="stroke:#1A1D24;stroke-width:1;" x1="435.4039" x2="435.4039" y1="1210.7271" y2="1245.7271"/><polygon fill="#1A1D24" points="431.4039,1235.7271,435.4039,1245.7271,439.4039,1235.7271,435.4039,1239.7271" style="stroke:#1A1D24;stroke-width:1;stroke-linejoin:miter;stroke-miterlimit:10;"/><line style="stroke:#1A1D24;stroke-width:1;" x1="435.4039" x2="435.4039" y1="1150.9436" y2="1176.2048"/><polygon fill="#1A1D24" points="431.4039,1166.2048,435.4039,1176.2048,439.4039,1166.2048,435.4039,1170.2048" style="stroke:#1A1D24;stroke-width:1;stroke-linejoin:miter;stroke-miterlimit:10;"/><line style="stroke:#1A1D24;stroke-width:1;" x1="471.0538" x2="507.9878" y1="1138.9436" y2="1138.9436"/><polygon fill="#1A1D24" points="503.9878,1218.2271,507.9878,1228.2271,511.9878,1218.2271,507.9878,1222.2271" style="stroke:#1A1D24;stroke-width:1;stroke-linejoin:miter;stroke-miterlimit:10;"/><line style="stroke:#1A1D24;stroke-width:1;" x1="507.9878" x2="507.9878" y1="1138.9436" y2="1312.2495"/><line style="stroke:#1A1D24;stroke-width:1;" x1="507.9878" x2="447.4039" y1="1312.2495" y2="1312.2495"/><polygon fill="#1A1D24" points="457.4039,1308.2495,447.4039,1312.2495,457.4039,1316.2495,453.4039,1312.2495" style="stroke:#1A1D24;stroke-width:1;stroke-linejoin:miter;stroke-miterlimit:10;"/><line style="stroke:#1A1D24;stroke-width:1;" x1="435.4039" x2="435.4039" y1="1280.2495" y2="1300.2495"/><polygon fill="#1A1D24" points="431.4039,1290.2495,435.4039,1300.2495,439.4039,1290.2495,435.4039,1294.2495" style="stroke:#1A1D24;stroke-width:1;stroke-linejoin:miter;stroke-miterlimit:10;"/><line style="stroke:#1A1D24;stroke-width:1;" x1="435.4039" x2="435.4039" y1="1106.9436" y2="1126.9436"/><polygon fill="#1A1D24" points="431.4039,1116.9436,435.4039,1126.9436,439.4039,1116.9436,435.4039,1120.9436" style="stroke:#1A1D24;stroke-width:1;stroke-linejoin:miter;stroke-miterlimit:10;"/><line style="stroke:#1A1D24;stroke-width:1;" x1="645.3094" x2="645.3094" y1="1210.7271" y2="1245.7271"/><polygon fill="#1A1D24" points="641.3094,1235.7271,645.3094,1245.7271,649.3094,1235.7271,645.3094,1239.7271" style="stroke:#1A1D24;stroke-width:1;stroke-linejoin:miter;stroke-miterlimit:10;"/><line style="stroke:#1A1D24;stroke-width:1;" x1="645.3094" x2="645.3094" y1="1150.9436" y2="1176.2048"/><polygon fill="#1A1D24" points="641.3094,1166.2048,645.3094,1176.2048,649.3094,1166.2048,645.3094,1170.2048" style="stroke:#1A1D24;stroke-width:1;stroke-linejoin:miter;stroke-miterlimit:10;"/><line style="stroke:#1A1D24;stroke-width:1;" x1="695.7374" x2="740.6569" y1="1138.9436" y2="1138.9436"/><polygon fill="#1A1D24" points="736.6569,1218.2271,740.6569,1228.2271,744.6569,1218.2271,740.6569,1222.2271" style="stroke:#1A1D24;stroke-width:1;stroke-linejoin:miter;stroke-miterlimit:10;"/><line style="stroke:#1A1D24;stroke-width:1;" x1="740.6569" x2="740.6569" y1="1138.9436" y2="1312.2495"/><line style="stroke:#1A1D24;stroke-width:1;" x1="740.6569" x2="657.3094" y1="1312.2495" y2="1312.2495"/><polygon fill="#1A1D24" points="667.3094,1308.2495,657.3094,1312.2495,667.3094,1316.2495,663.3094,1312.2495" style="stroke:#1A1D24;stroke-width:1;stroke-linejoin:miter;stroke-miterlimit:10;"/><line style="stroke:#1A1D24;stroke-width:1;" x1="645.3094" x2="645.3094" y1="1280.2495" y2="1300.2495"/><polygon fill="#1A1D24" points="641.3094,1290.2495,645.3094,1300.2495,649.3094,1290.2495,645.3094,1294.2495" style="stroke:#1A1D24;stroke-width:1;stroke-linejoin:miter;stroke-miterlimit:10;"/><line style="stroke:#1A1D24;stroke-width:1;" x1="645.3094" x2="645.3094" y1="1106.9436" y2="1126.9436"/><polygon fill="#1A1D24" points="641.3094,1116.9436,645.3094,1126.9436,649.3094,1116.9436,645.3094,1120.9436" style="stroke:#1A1D24;stroke-width:1;stroke-linejoin:miter;stroke-miterlimit:10;"/><line style="stroke:#1A1D24;stroke-width:1;" x1="278.0686" x2="278.0686" y1="1037.8989" y2="1168.9436"/><polygon fill="#1A1D24" points="274.0686,1158.9436,278.0686,1168.9436,282.0686,1158.9436,278.0686,1162.9436" style="stroke:#1A1D24;stroke-width:1;stroke-linejoin:miter;stroke-miterlimit:10;"/><line style="stroke:#1A1D24;stroke-width:1;" x1="435.4039" x2="435.4039" y1="1037.8989" y2="1057.8989"/><polygon fill="#1A1D24" points="431.4039,1047.8989,435.4039,1057.8989,439.4039,1047.8989,435.4039,1051.8989" style="stroke:#1A1D24;stroke-width:1;stroke-linejoin:miter;stroke-miterlimit:10;"/><line style="stroke:#1A1D24;stroke-width:1;" x1="645.3094" x2="645.3094" y1="1037.8989" y2="1057.8989"/><polygon fill="#1A1D24" points="641.3094,1047.8989,645.3094,1057.8989,649.3094,1047.8989,645.3094,1051.8989" style="stroke:#1A1D24;stroke-width:1;stroke-linejoin:miter;stroke-miterlimit:10;"/><line style="stroke:#1A1D24;stroke-width:1;" x1="278.0686" x2="278.0686" y1="1203.4659" y2="1344.2495"/><polygon fill="#1A1D24" points="274.0686,1334.2495,278.0686,1344.2495,282.0686,1334.2495,278.0686,1338.2495" style="stroke:#1A1D24;stroke-width:1;stroke-linejoin:miter;stroke-miterlimit:10;"/><line style="stroke:#1A1D24;stroke-width:1;" x1="435.4039" x2="435.4039" y1="1324.2495" y2="1344.2495"/><polygon fill="#1A1D24" points="431.4039,1334.2495,435.4039,1344.2495,439.4039,1334.2495,435.4039,1338.2495" style="stroke:#1A1D24;stroke-width:1;stroke-linejoin:miter;stroke-miterlimit:10;"/><line style="stroke:#1A1D24;stroke-width:1;" x1="645.3094" x2="645.3094" y1="1324.2495" y2="1344.2495"/><polygon fill="#1A1D24" points="641.3094,1334.2495,645.3094,1344.2495,649.3094,1334.2495,645.3094,1338.2495" style="stroke:#1A1D24;stroke-width:1;stroke-linejoin:miter;stroke-miterlimit:10;"/><line style="stroke:#1A1D24;stroke-width:1;" x1="489.4698" x2="489.4698" y1="1011.8989" y2="1031.8989"/><polygon fill="#1A1D24" points="485.4698,1021.8989,489.4698,1031.8989,493.4698,1021.8989,489.4698,1025.8989" style="stroke:#1A1D24;stroke-width:1;stroke-linejoin:miter;stroke-miterlimit:10;"/><line style="stroke:#1A1D24;stroke-width:1;" x1="305.874" x2="305.874" y1="1394.2495" y2="1428.7718"/><polygon fill="#1A1D24" points="301.874,1418.7718,305.874,1428.7718,309.874,1418.7718,305.874,1422.7718" style="stroke:#1A1D24;stroke-width:1;stroke-linejoin:miter;stroke-miterlimit:10;"/><line style="stroke:#1A1D24;stroke-width:1;" x1="305.874" x2="305.874" y1="1463.2942" y2="1486.2942"/><polygon fill="#1A1D24" points="301.874,1476.2942,305.874,1486.2942,309.874,1476.2942,305.874,1480.2942" style="stroke:#1A1D24;stroke-width:1;stroke-linejoin:miter;stroke-miterlimit:10;"/><line style="stroke:#1A1D24;stroke-width:1;" x1="483.9984" x2="483.9984" y1="1394.2495" y2="1428.7718"/><polygon fill="#1A1D24" points="479.9984,1418.7718,483.9984,1428.7718,487.9984,1418.7718,483.9984,1422.7718" style="stroke:#1A1D24;stroke-width:1;stroke-linejoin:miter;stroke-miterlimit:10;"/><line style="stroke:#1A1D24;stroke-width:1;" x1="483.9984" x2="483.9984" y1="1463.2942" y2="1486.2942"/><polygon fill="#1A1D24" points="479.9984,1476.2942,483.9984,1486.2942,487.9984,1476.2942,483.9984,1480.2942" style="stroke:#1A1D24;stroke-width:1;stroke-linejoin:miter;stroke-miterlimit:10;"/><line style="stroke:#1A1D24;stroke-width:1;" x1="360.282" x2="434.8061" y1="1382.2495" y2="1382.2495"/><polygon fill="#1A1D24" points="424.8061,1378.2495,434.8061,1382.2495,424.8061,1386.2495,428.8061,1382.2495" style="stroke:#1A1D24;stroke-width:1;stroke-linejoin:miter;stroke-miterlimit:10;"/><line style="stroke:#1A1D24;stroke-width:1;" x1="489.4698" x2="489.4698" y1="1350.2495" y2="1355.2495"/><line style="stroke:#1A1D24;stroke-width:1;" x1="489.4698" x2="305.874" y1="1355.2495" y2="1355.2495"/><line style="stroke:#1A1D24;stroke-width:1;" x1="305.874" x2="305.874" y1="1355.2495" y2="1370.2495"/><polygon fill="#1A1D24" points="301.874,1360.2495,305.874,1370.2495,309.874,1360.2495,305.874,1364.2495" style="stroke:#1A1D24;stroke-width:1;stroke-linejoin:miter;stroke-miterlimit:10;"/><line style="stroke:#1A1D24;stroke-width:1;" x1="533.1906" x2="667.5942" y1="1382.2495" y2="1382.2495"/><line style="stroke:#1A1D24;stroke-width:1;" x1="667.5942" x2="667.5942" y1="1382.2495" y2="1417.2495"/><polygon fill="#1A1D24" points="663.5942,1407.2495,667.5942,1417.2495,671.5942,1407.2495,667.5942,1411.2495" style="stroke:#1A1D24;stroke-width:1;stroke-linejoin:miter;stroke-miterlimit:10;"/><line style="stroke:#1A1D24;stroke-width:1;" x1="667.5942" x2="667.5942" y1="1466.2942" y2="1486.2942"/><polygon fill="#1A1D24" points="663.5942,1476.2942,667.5942,1486.2942,671.5942,1476.2942,667.5942,1480.2942" style="stroke:#1A1D24;stroke-width:1;stroke-linejoin:miter;stroke-miterlimit:10;"/><line style="stroke:#1A1D24;stroke-width:1;" x1="305.874" x2="667.5942" y1="1486.2942" y2="1486.2942"/><line style="stroke:#1A1D24;stroke-width:1;" x1="102.0293" x2="102.0293" y1="271.9752" y2="306.4976"/><polygon fill="#1A1D24" points="98.0293,296.4976,102.0293,306.4976,106.0293,296.4976,102.0293,300.4976" style="stroke:#1A1D24;stroke-width:1;stroke-linejoin:miter;stroke-miterlimit:10;"/><line style="stroke:#1A1D24;stroke-width:1;" x1="102.0293" x2="102.0293" y1="355.5423" y2="1506.2942"/><polygon fill="#1A1D24" points="98.0293,1496.2942,102.0293,1506.2942,106.0293,1496.2942,102.0293,1500.2942" style="stroke:#1A1D24;stroke-width:1;stroke-linejoin:miter;stroke-miterlimit:10;"/><text fill="#000000" font-family="'Inter, Helvetica, sans-serif'" font-size="12" lengthAdjust="spacing" textLength="63.9529" x="106.0293" y="975.4118">unavailable</text><line style="stroke:#1A1D24;stroke-width:1;" x1="489.4698" x2="489.4698" y1="271.9752" y2="291.9752"/><polygon fill="#1A1D24" points="485.4698,281.9752,489.4698,291.9752,493.4698,281.9752,489.4698,285.9752" style="stroke:#1A1D24;stroke-width:1;stroke-linejoin:miter;stroke-miterlimit:10;"/><line style="stroke:#1A1D24;stroke-width:1;" x1="489.4698" x2="489.4698" y1="1486.2942" y2="1506.2942"/><polygon fill="#1A1D24" points="485.4698,1496.2942,489.4698,1506.2942,493.4698,1496.2942,489.4698,1500.2942" style="stroke:#1A1D24;stroke-width:1;stroke-linejoin:miter;stroke-miterlimit:10;"/><line style="stroke:#1A1D24;stroke-width:1;" x1="137.8668" x2="380.8501" y1="259.9752" y2="259.9752"/><polygon fill="#1A1D24" points="370.8501,255.9752,380.8501,259.9752,370.8501,263.9752,374.8501,259.9752" style="stroke:#1A1D24;stroke-width:1;stroke-linejoin:miter;stroke-miterlimit:10;"/><line style="stroke:#1A1D24;stroke-width:1;" x1="454.8033" x2="454.8033" y1="227.9752" y2="232.9752"/><line style="stroke:#1A1D24;stroke-width:1;" x1="454.8033" x2="102.0293" y1="232.9752" y2="232.9752"/><line style="stroke:#1A1D24;stroke-width:1;" x1="102.0293" x2="102.0293" y1="232.9752" y2="247.9752"/><polygon fill="#1A1D24" points="98.0293,237.9752,102.0293,247.9752,106.0293,237.9752,102.0293,241.9752" style="stroke:#1A1D24;stroke-width:1;stroke-linejoin:miter;stroke-miterlimit:10;"/><line style="stroke:#1A1D24;stroke-width:1;" x1="598.0895" x2="857.6065" y1="259.9752" y2="259.9752"/><line style="stroke:#1A1D24;stroke-width:1;" x1="857.6065" x2="857.6065" y1="259.9752" y2="909.0388"/><line style="stroke:#1A1D24;stroke-width:1;" x1="857.6065" x2="857.6065" y1="909.0388" y2="1506.2942"/><polygon fill="#1A1D24" points="853.6065,1496.2942,857.6065,1506.2942,861.6065,1496.2942,857.6065,1500.2942" style="stroke:#1A1D24;stroke-width:1;stroke-linejoin:miter;stroke-miterlimit:10;"/><text fill="#000000" font-family="'Inter, Helvetica, sans-serif'" font-size="12" lengthAdjust="spacing" textLength="56.3338" x="861.6065" y="1271.0236">measured</text><line style="stroke:#1A1D24;stroke-width:1;" x1="102.0293" x2="857.6065" y1="1506.2942" y2="1506.2942"/><line style="stroke:#1A1D24;stroke-width:1;" x1="454.8033" x2="454.8033" y1="1506.2942" y2="1526.2942"/><polygon fill="#1A1D24" points="450.8033,1516.2942,454.8033,1526.2942,458.8033,1516.2942,454.8033,1520.2942" style="stroke:#1A1D24;stroke-width:1;stroke-linejoin:miter;stroke-miterlimit:10;"/><line style="stroke:#1A1D24;stroke-width:1;" x1="454.8033" x2="454.8033" y1="1575.3389" y2="1595.3389"/><polygon fill="#1A1D24" points="450.8033,1585.3389,454.8033,1595.3389,458.8033,1585.3389,454.8033,1589.3389" style="stroke:#1A1D24;stroke-width:1;stroke-linejoin:miter;stroke-miterlimit:10;"/><line style="stroke:#1A1D24;stroke-width:1;" x1="454.8033" x2="454.8033" y1="1622.3389" y2="1637.3389"/><polygon fill="#1A1D24" points="450.8033,1627.3389,454.8033,1637.3389,458.8033,1627.3389,454.8033,1631.3389" style="stroke:#1A1D24;stroke-width:1;stroke-linejoin:miter;stroke-miterlimit:10;"/><line style="stroke:#1A1D24;stroke-width:1;" x1="454.8033" x2="454.8033" y1="1686.3836" y2="1706.3836"/><polygon fill="#1A1D24" points="450.8033,1696.3836,454.8033,1706.3836,458.8033,1696.3836,454.8033,1700.3836" style="stroke:#1A1D24;stroke-width:1;stroke-linejoin:miter;stroke-miterlimit:10;"/><line style="stroke:#1A1D24;stroke-width:1;" x1="454.8033" x2="454.8033" y1="1769.9507" y2="1789.9507"/><polygon fill="#1A1D24" points="450.8033,1779.9507,454.8033,1789.9507,458.8033,1779.9507,454.8033,1783.9507" style="stroke:#1A1D24;stroke-width:1;stroke-linejoin:miter;stroke-miterlimit:10;"/><line style="stroke:#1A1D24;stroke-width:1;" x1="454.8033" x2="454.8033" y1="1838.9954" y2="1940.6072"/><polygon fill="#1A1D24" points="450.8033,1930.6072,454.8033,1940.6072,458.8033,1930.6072,454.8033,1934.6072" style="stroke:#1A1D24;stroke-width:1;stroke-linejoin:miter;stroke-miterlimit:10;"/><?plantuml-src hLNBRjiu5DthA-vuOnjeaZut4MO0DQOdGcL94AccAGOG68jsY4YKGL9n7-Yw-tvYlsIkB3lns9Qd0RgYm7FlkUU-g3-acXPrBk3qz2nRVvipOpyNubJMPU4uLjf206L9Hj_vGP0ndmN4SVemaeQNDt9USoiCs5i1uoXDG0jkAcL0roh-R6yhnOInPZ14mDOQWQyBRipvZ1T6V4EQ-zQN-XyUNAN5Arqj3L2kyflgKwhuFPS5lq5LmD1wLkbIQ906E5AWNm7JMwxvr0ejlt0hAmL6pXNU3nhsiif5qJSmnHDocQk-XMMbxuPk4nmf2cvjIzXR2fZoni3gsZHAyB94PRKMfL2s1p-__u0qd12FfWaPdJgEiLnRv_onHfIHE7kR-i4eeyIRk7iOUUy5sOKN1AxZo1aCObtTorpeOID7mI1LXi_4ElkX0x1Bm2wJw2gBOkQ7Bi8dVq7zM2FN4LZS5MzbvASr3Pp1bLGvbdMBjp5wfFR7sTWFHrbylH7oY8LHOz-b98pGoLqPx6e142gNiqF19kz6Z4pY8y5MSt1W3FvHWrvvbrjHBdgOM6-ffHMzuPCLKCAIm9_uh5k3ggm0BUUt5ivX6sOaQtst0knMXyRUrQf3-v4R92D9iX_vcj1ZjNxWF9OfRiZTGOuhpsVPHH1HugxDWC-vL8S3-XEIjA7s4Y215rCoEY8V-UvaKGnE5dEPFyCL_xl1rqr2iDrt-1FwLfQYgcs_XRPpE28kIXbcmoukEoLYlGYzZ8BV8n85BcfxKjqBFIkgvOvOF3T5to_L1vyzVqAV4yAosADqrT3rAl-7i3d9A7jxdQNqYRnZpm_mmwDHkA7VzeqObXE7E_n8akX_M9gqme_RKuVpk7ugSto4LfSEZgOe7gxtda8VNu1LiWsbYszfjTZuR8tsdjj5qtZtC5lxEE-30V76MPpuKRA9Wtt4duMQjqjUY9d597PslE7AWXTTmCiku5KNyBeBUDEKR2NbrvIbeVV-eB8MUDa5lEe2NdS1Myh-1G00?></g></svg>