<svg xmlns="http://www.w3.org/2000/svg" xmlns:xlink="http://www.w3.org/1999/xlink" contentStyleType="text/css" data-diagram-type="DESCRIPTION" height="503px" preserveAspectRatio="none" style="width:1064px;height:503px;background:#F4EEE3;" version="1.1" viewBox="0 0 1064 503" width="1064px" zoomAndPan="magnify"><?plantuml 1.2026.4?><defs/><g><rect fill="#F4EEE3" height="503" style="stroke:none;stroke-width:1;" width="1064" x="0" y="0"/><g class="title" data-source-line="13"><text fill="#000000" font-family="'Inter, Helvetica, sans-serif'" font-size="14" font-weight="700" lengthAdjust="spacing" textLength="171.3978" x="443.0511" y="23.5623">Maestria &#8212; Contexte C4</text></g><!--cluster MCP--><g class="cluster" data-qualified-name="MCP" data-source-line="18" id="ent0003"><rect fill="#F4EEE3" height="284" rx="4" ry="4" style="stroke:#C68A3A;stroke-width:1;" width="257" x="793.5" y="44.9429"/><text fill="#C68A3A" font-family="'Inter, Helvetica, sans-serif'" font-size="10" font-style="italic" lengthAdjust="spacing" textLength="44.9872" x="899.5064" y="56.6307">&#171;system&#187;</text><text fill="#000000" font-family="'Inter, Helvetica, sans-serif'" font-size="12" font-weight="700" lengthAdjust="spacing" textLength="129.1503" x="857.4249" y="70.6702">Clients MCP externes</text></g><!--entity MCP_CC--><g class="entity" data-qualified-name="MCP.MCP_CC" data-source-line="19" id="ent0004"><rect fill="#F1F1F1" height="34.5224" rx="4" ry="4" style="stroke:#181818;stroke-width:0.5;" width="93.447" x="837" y="97.9429"/><text fill="#000000" font-family="'Inter, Helvetica, sans-serif'" font-size="12" lengthAdjust="spacing" textLength="73.447" x="847" y="119.5676">Claude Code</text></g><!--entity MCP_CUR--><g class="entity" data-qualified-name="MCP.MCP_CUR" data-source-line="20" id="ent0005"><rect fill="#F1F1F1" height="34.5224" rx="4" ry="4" style="stroke:#181818;stroke-width:0.5;" width="58.0615" x="965.5" y="97.9429"/><text fill="#000000" font-family="'Inter, Helvetica, sans-serif'" font-size="12" lengthAdjust="spacing" textLength="38.0615" x="975.5" y="119.5676">Cursor</text></g><!--entity MCP_DF--><g class="entity" data-qualified-name="MCP.MCP_DF" data-source-line="21" id="ent0006"><rect fill="#F1F1F1" height="34.5224" rx="4" ry="4" style="stroke:#181818;stroke-width:0.5;" width="75.4986" x="826" y="269.9429"/><text fill="#000000" font-family="'Inter, Helvetica, sans-serif'" font-size="12" lengthAdjust="spacing" textLength="55.4986" x="836" y="291.5676">deer-flow</text></g><!--entity MCP_SH--><g class="entity" data-qualified-name="MCP.MCP_SH" data-source-line="22" id="ent0007"><rect fill="#F1F1F1" height="34.5224" rx="4" ry="4" style="stroke:#181818;stroke-width:0.5;" width="90.2425" x="936.5" y="269.9429"/><text fill="#000000" font-family="'Inter, Helvetica, sans-serif'" font-size="12" lengthAdjust="spacing" textLength="70.2425" x="946.5" y="291.5676">scripts / curl</text></g><!--entity USER--><g class="entity" data-qualified-name="USER" data-source-line="15" id="ent0001"><ellipse cx="420.5669" cy="86.4429" fill="#FFFFFF" rx="8" ry="8" style="stroke:#0E1014;stroke-width:0.5;"/><path d="M420.5669,94.4429 L420.5669,121.4429 M407.5669,102.4429 L433.5669,102.4429 M420.5669,121.4429 L407.5669,136.4429 M420.5669,121.4429 L433.5669,136.4429" fill="none" style="stroke:#0E1014;stroke-width:0.5;"/><text fill="#000000" font-family="'Inter, Helvetica, sans-serif'" font-size="12" lengthAdjust="spacing" textLength="102.1338" x="369.5" y="149.5676">Utilisateur humain</text></g><!--entity SYS--><g class="entity" data-qualified-name="SYS" data-source-line="16" id="ent0002"><rect fill="#FFFDF6" height="58.7276" rx="4" ry="4" style="stroke:#181818;stroke-width:0.5;" width="247.1944" x="399" y="257.9429"/><text fill="#000000" font-family="'Inter, Helvetica, sans-serif'" font-size="12" font-weight="700" lengthAdjust="spacing" textLength="52.1408" x="409" y="279.5676">Maestria</text><text fill="#000000" font-family="'Inter, Helvetica, sans-serif'" font-size="10" lengthAdjust="spacing" textLength="227.1944" x="409" y="292.153">navigateur et gestionnaire de mod&#232;les IA locaux</text><text fill="#000000" font-family="'Inter, Helvetica, sans-serif'" font-size="10" lengthAdjust="spacing" textLength="169.3092" x="409" y="304.2557">AGPL-3.0, offline, pas de t&#233;l&#233;m&#233;trie</text></g><!--entity LLAMA--><g class="entity" data-qualified-name="LLAMA" data-source-line="24" id="ent0008"><rect fill="#F1F1F1" height="61.1474" rx="4" ry="4" style="stroke:#181818;stroke-width:0.5;" width="153.4284" x="7" y="421.4429"/><text fill="#000000" font-family="'Inter, Helvetica, sans-serif'" font-size="10" font-style="italic" lengthAdjust="spacing" textLength="44.9872" x="61.2206" y="441.1307">&#171;system&#187;</text><text fill="#000000" font-family="'Inter, Helvetica, sans-serif'" font-size="12" lengthAdjust="spacing" textLength="54.2884" x="17" y="455.1702">llama.cpp</text><text fill="#000000" font-family="'Inter, Helvetica, sans-serif'" font-size="12" lengthAdjust="spacing" textLength="133.4284" x="17" y="469.6926">(binaire `llama-server`)</text></g><!--entity FS--><g class="entity" data-qualified-name="FS" data-source-line="25" id="ent0009"><rect fill="#F1F1F1" height="75.6697" rx="4" ry="4" style="stroke:#181818;stroke-width:0.5;" width="191.1831" x="427" y="413.9429"/><text fill="#000000" font-family="'Inter, Helvetica, sans-serif'" font-size="10" font-style="italic" lengthAdjust="spacing" textLength="46.9332" x="499.1249" y="433.6307">&#171;storage&#187;</text><text fill="#000000" font-family="'Inter, Helvetica, sans-serif'" font-size="12" lengthAdjust="spacing" textLength="171.1831" x="437" y="447.6702">Syst&#232;me de fichiers utilisateur</text><text fill="#000000" font-family="'Inter, Helvetica, sans-serif'" font-size="12" lengthAdjust="spacing" textLength="141.1498" x="437" y="462.1926">(D:\models, sidecars .ts/,</text><text fill="#000000" font-family="'Inter, Helvetica, sans-serif'" font-size="12" lengthAdjust="spacing" textLength="152.0075" x="437" y="476.7149">donn&#233;es app /.tagspaces/)</text></g><g class="entity" data-qualified-name="GMN14" data-source-line="33" id="ent0015"><path d="M653,436.4429 L653,467.4876 A4,4 0 0 0 657,471.4876 L883.6252,471.4876 A4,4 0 0 0 887.6252,467.4876 L887.6252,442.4429 L877.6252,432.4429 L657,432.4429 A4,4 0 0 0 653,436.4429" fill="#FFFDF6" style="stroke:#C68A3A;stroke-width:0.5;"/><path d="M877.6252,432.4429 L877.6252,440.4429 A2,2 0 0 0 879.6252,442.4429 L887.6252,442.4429 L877.6252,432.4429" fill="#FFFDF6" style="stroke:#C68A3A;stroke-width:1;"/><text fill="#0E1014" font-family="'Inter, Helvetica, sans-serif'" font-size="12" lengthAdjust="spacing" textLength="134.9966" x="659" y="449.0676">Rien ne quitte 127.0.0.1.</text><text fill="#0E1014" font-family="'Inter, Helvetica, sans-serif'" font-size="12" lengthAdjust="spacing" textLength="213.6252" x="659" y="463.5899">Pas de t&#233;l&#233;m&#233;trie, pas d'auto-update.</text></g><g class="entity" data-qualified-name="GMN17" data-source-line="38" id="ent0018"><path d="M195.5,421.9429 L195.5,447.9429 L160.2,451.9429 L195.5,455.9429 L195.5,482.0323 A4,4 0 0 0 199.5,486.0323 L387.3308,486.0323 A4,4 0 0 0 391.3308,482.0323 L391.3308,427.9429 L381.3308,417.9429 L199.5,417.9429 A4,4 0 0 0 195.5,421.9429" fill="#FFFDF6" style="stroke:#C68A3A;stroke-width:0.5;"/><path d="M381.3308,417.9429 L381.3308,425.9429 A2,2 0 0 0 383.3308,427.9429 L391.3308,427.9429 L381.3308,417.9429" fill="#FFFDF6" style="stroke:#C68A3A;stroke-width:0.5;"/><text fill="#0E1014" font-family="'Inter, Helvetica, sans-serif'" font-size="12" lengthAdjust="spacing" textLength="158.7573" x="201.5" y="434.5676">Binaire externe, non bundl&#233;.</text><text fill="#0E1014" font-family="'Inter, Helvetica, sans-serif'" font-size="12" lengthAdjust="spacing" textLength="173.6546" x="201.5" y="449.0899">L'utilisateur l'installe lui-m&#234;me.</text><text fill="#0E1014" font-family="'Inter, Helvetica, sans-serif'" font-size="12" lengthAdjust="spacing" textLength="174.8308" x="201.5" y="463.6123">Maestria le d&#233;tecte + autotune</text><text fill="#0E1014" font-family="'Inter, Helvetica, sans-serif'" font-size="12" lengthAdjust="spacing" textLength="103.9235" x="201.5" y="478.1347">selon le hardware.</text></g><!--link USER to SYS--><g class="link" data-entity-1="ent0001" data-entity-2="ent0002" data-link-type="dependency" data-source-line="27" id="lnk10"><path d="M410.15,153.0329 C405.79,176.0729 404.35,205.5729 417.5,227.9429 C424.69,240.1729 431.2958,247.2904 443.2458,255.1704" fill="none" id="USER-to-SYS" style="stroke:#1A1D24;stroke-width:1;"/><polygon fill="#1A1D24" points="447.42,257.9229,442.1085,249.629,443.2458,255.1704,437.7045,256.3077,447.42,257.9229" style="stroke:#1A1D24;stroke-width:1;stroke-linejoin:miter;stroke-miterlimit:10;"/><text fill="#000000" font-family="'Inter, Helvetica, sans-serif'" font-size="12" lengthAdjust="spacing" textLength="140.2635" x="430.2014" y="195.5676">Ouvre .gguf, caract&#233;rise,</text><text fill="#000000" font-family="'Inter, Helvetica, sans-serif'" font-size="12" lengthAdjust="spacing" textLength="139.8033" x="430.4315" y="210.0899">tague, configure routing,</text><text fill="#000000" font-family="'Inter, Helvetica, sans-serif'" font-size="12" lengthAdjust="spacing" textLength="163.6663" x="418.5" y="224.6123">chat ouvert-dans-navigateur</text></g><!--link SYS to LLAMA--><g class="link" data-entity-1="ent0002" data-entity-2="ent0008" data-link-type="dependency" data-source-line="28" id="lnk11"><path d="M442.11,317.0129 C372.05,342.0729 267.8,379.7529 177.5,413.9429 C171.19,416.3329 169.3018,417.0351 162.7518,419.5751" fill="none" id="SYS-to-LLAMA" style="stroke:#1A1D24;stroke-width:1;"/><polygon fill="#1A1D24" points="158.09,421.3829,167.9274,421.8583,162.7518,419.5751,165.035,414.3995,158.09,421.3829" style="stroke:#1A1D24;stroke-width:1;stroke-linejoin:miter;stroke-miterlimit:10;"/><text fill="#000000" font-family="'Inter, Helvetica, sans-serif'" font-size="12" lengthAdjust="spacing" textLength="143.5191" x="339.5" y="365.5676">Spawn processus enfant,</text><text fill="#000000" font-family="'Inter, Helvetica, sans-serif'" font-size="12" lengthAdjust="spacing" textLength="111.2017" x="355.6587" y="380.0899">monitore PID + URL</text></g><!--link SYS to FS--><g class="link" data-entity-1="ent0002" data-entity-2="ent0009" data-link-type="dependency" data-source-line="29" id="lnk12"><path d="M522.5,317.1229 C522.5,344.0029 522.5,379.3329 522.5,408.6929" fill="none" id="SYS-to-FS" style="stroke:#1A1D24;stroke-width:1;"/><polygon fill="#1A1D24" points="522.5,413.6929,526.5,404.6929,522.5,408.6929,518.5,404.6929,522.5,413.6929" style="stroke:#1A1D24;stroke-width:1;stroke-linejoin:miter;stroke-miterlimit:10;"/><text fill="#000000" font-family="'Inter, Helvetica, sans-serif'" font-size="12" lengthAdjust="spacing" textLength="68.8278" x="544.6443" y="365.5676">Lit mod&#232;les,</text><text fill="#000000" font-family="'Inter, Helvetica, sans-serif'" font-size="12" lengthAdjust="spacing" textLength="111.1165" x="523.5" y="380.0899">&#233;crit sidecars / logs</text></g><!--link MCP to SYS--><g class="link" data-entity-1="ent0003" data-entity-2="ent0002" data-link-type="dependency" data-source-line="30" id="lnk13"><path d="M793.1507,118.5147 C793.0323,118.5452 792.9127,118.576 792.792,118.6072 C792.5506,118.6695 792.3046,118.7332 792.0542,118.7982 C791.5533,118.9282 791.0345,119.0636 790.4983,119.2043 C788.3533,119.767 785.9293,120.4152 783.2572,121.148 C772.5687,124.0794 757.9113,128.366 741.27,133.9641 C707.9875,145.1604 666.77,161.6029 633.5,182.9429 C609.16,198.5529 607.62,208.1829 586.5,227.9429 C576.06,237.7129 568.2426,244.9117 557.9026,254.3517" fill="none" id="MCP-to-SYS" style="stroke:#1A1D24;stroke-width:1;"/><polygon fill="#1A1D24" points="554.21,257.7229,563.5536,254.6088,557.9026,254.3517,558.1597,248.7007,554.21,257.7229" style="stroke:#1A1D24;stroke-width:1;stroke-linejoin:miter;stroke-miterlimit:10;"/><text fill="#000000" font-family="'Inter, Helvetica, sans-serif'" font-size="12" lengthAdjust="spacing" textLength="174.0978" x="634.5" y="195.5676">HTTP+SSE sur 127.0.0.1:41541</text><text fill="#000000" font-family="'Inter, Helvetica, sans-serif'" font-size="12" lengthAdjust="spacing" textLength="106.9916" x="668.0531" y="210.0899">auth Bearer-token,</text><text fill="#000000" font-family="'Inter, Helvetica, sans-serif'" font-size="12" lengthAdjust="spacing" textLength="51.2373" x="695.9302" y="224.6123">tools/call</text></g><!--link SYS to GMN14--><g class="link" data-entity-1="ent0002" data-entity-2="ent0015" data-link-type="association" data-source-line="33" id="lnk16"><path d="M580.87,317.0329 C601.12,327.6129 623.7,340.1529 643.5,352.9429 C682.33,378.0229 724.21,411.7829 748.85,432.4229" fill="none" id="SYS-GMN14" style="stroke:#1A1D24;stroke-width:1;stroke-dasharray:7,7;"/></g><?plantuml-src TPFTRjf048Nlzoccz89M5Kv9KI-Y28auM5GoRSI2r5wXnHvWnRABrkCGKbNgG_G9-oITDOIV1kviptVEp9nTlz4sCsME44LNuzrpSLNGnc2aowKHeWvtpfO5_Ftz1-8MnCuIFX7aMisyMaRGqxCvUb26D0KZcYiBhlIGkUNAMRG4ZnhNDspKLrYGrmfK0GecHcKBcBWd-03uY7u3x8lUAWF5fY1SWYOWLsPpB29HP_sxdh9vmpjZCA_cMIEeHwTpRehWfbETQLR7hSQ3KPP6_HICddZ5reLZc2roP-i4sf9tUPcn72pIsla5x9QFtWjHBBHTATuEF6QaxCmW_1G0aiT3HviL9fo2rCy8pO_Ybn2yEYDoE1Z7hNZuVJpyCaoxGgYCd8VQuVj8TWUri7ru40Vp8qJ-aEEqSzTDAuxVu6sI9FV9Pt6UxySFB_pjxJQtTZj8kL0DVQIAZGed5BiSQpja7CV_CQKld3-KHuFJUexe6rFZrdlaFZabJcUJlJqeUvpLMJ1DE_tE-JMgqdbL8eyadBIQuLQJI252mj1ejAi8RuxEPj1DgtC8IOjG353LvHLMdKNL_uLBv5c86uQuBxMhbkTkmZf2ll54RidNDR3XLktPhz-6tMtJveNlrm9j3i5cP-RvxwFWjPtpbMgNRFDYvVfYvTF5IkimnJy0?></g></svg>