<svg xmlns="http://www.w3.org/2000/svg" xmlns:xlink="http://www.w3.org/1999/xlink" contentStyleType="text/css" data-diagram-type="DESCRIPTION" height="503px" preserveAspectRatio="none" style="width:1129px;height:503px;background:#F4EEE3;" version="1.1" viewBox="0 0 1129 503" width="1129px" zoomAndPan="magnify"><?plantuml 1.2026.4?><defs/><g><rect fill="#F4EEE3" height="503" style="stroke:none;stroke-width:1;" width="1129" x="0" y="0"/><g class="title" data-source-line="13"><text fill="#000000" font-family="'Inter, Helvetica, sans-serif'" font-size="14" font-weight="700" lengthAdjust="spacing" textLength="171.3978" x="475.5511" y="23.5623">Maestria &#8212; Contexte C4</text></g><!--cluster MCP--><g class="cluster" data-qualified-name="MCP" data-source-line="18" id="ent0003"><rect fill="#F4EEE3" height="284" rx="4" ry="4" style="stroke:#C68A3A;stroke-width:1;" width="257" x="858.5" y="44.9429"/><text fill="#C68A3A" font-family="'Inter, Helvetica, sans-serif'" font-size="10" font-style="italic" lengthAdjust="spacing" textLength="44.9872" x="964.5064" y="56.6307">&#171;system&#187;</text><text fill="#000000" font-family="'Inter, Helvetica, sans-serif'" font-size="12" font-weight="700" lengthAdjust="spacing" textLength="129.1503" x="922.4249" y="70.6702">Clients MCP externes</text></g><!--entity MCP_CC--><g class="entity" data-qualified-name="MCP.MCP_CC" data-source-line="19" id="ent0004"><rect fill="#F1F1F1" height="34.5224" rx="4" ry="4" style="stroke:#181818;stroke-width:0.5;" width="93.447" x="902" y="97.9429"/><text fill="#000000" font-family="'Inter, Helvetica, sans-serif'" font-size="12" lengthAdjust="spacing" textLength="73.447" x="912" y="119.5676">Claude Code</text></g><!--entity MCP_CUR--><g class="entity" data-qualified-name="MCP.MCP_CUR" data-source-line="20" id="ent0005"><rect fill="#F1F1F1" height="34.5224" rx="4" ry="4" style="stroke:#181818;stroke-width:0.5;" width="58.0615" x="1030.5" y="97.9429"/><text fill="#000000" font-family="'Inter, Helvetica, sans-serif'" font-size="12" lengthAdjust="spacing" textLength="38.0615" x="1040.5" y="119.5676">Cursor</text></g><!--entity MCP_DF--><g class="entity" data-qualified-name="MCP.MCP_DF" data-source-line="21" id="ent0006"><rect fill="#F1F1F1" height="34.5224" rx="4" ry="4" style="stroke:#181818;stroke-width:0.5;" width="75.4986" x="891" y="269.9429"/><text fill="#000000" font-family="'Inter, Helvetica, sans-serif'" font-size="12" lengthAdjust="spacing" textLength="55.4986" x="901" y="291.5676">deer-flow</text></g><!--entity MCP_SH--><g class="entity" data-qualified-name="MCP.MCP_SH" data-source-line="22" id="ent0007"><rect fill="#F1F1F1" height="34.5224" rx="4" ry="4" style="stroke:#181818;stroke-width:0.5;" width="90.2425" x="1001.5" y="269.9429"/><text fill="#000000" font-family="'Inter, Helvetica, sans-serif'" font-size="12" lengthAdjust="spacing" textLength="70.2425" x="1011.5" y="291.5676">scripts / curl</text></g><!--entity USER--><g class="entity" data-qualified-name="USER" data-source-line="15" id="ent0001"><ellipse cx="485.5669" cy="86.4429" fill="#FFFFFF" rx="8" ry="8" style="stroke:#0E1014;stroke-width:0.5;"/><path d="M485.5669,94.4429 L485.5669,121.4429 M472.5669,102.4429 L498.5669,102.4429 M485.5669,121.4429 L472.5669,136.4429 M485.5669,121.4429 L498.5669,136.4429" fill="none" style="stroke:#0E1014;stroke-width:0.5;"/><text fill="#000000" font-family="'Inter, Helvetica, sans-serif'" font-size="12" lengthAdjust="spacing" textLength="102.1338" x="434.5" y="149.5676">Utilisateur humain</text></g><!--entity SYS--><g class="entity" data-qualified-name="SYS" data-source-line="16" id="ent0002"><rect fill="#FFFDF6" height="58.7276" rx="4" ry="4" style="stroke:#181818;stroke-width:0.5;" width="247.1944" x="464" y="257.9429"/><text fill="#000000" font-family="'Inter, Helvetica, sans-serif'" font-size="12" font-weight="700" lengthAdjust="spacing" textLength="52.1408" x="474" y="279.5676">Maestria</text><text fill="#000000" font-family="'Inter, Helvetica, sans-serif'" font-size="10" lengthAdjust="spacing" textLength="227.1944" x="474" y="292.153">navigateur et gestionnaire de mod&#232;les IA locaux</text><text fill="#000000" font-family="'Inter, Helvetica, sans-serif'" font-size="10" lengthAdjust="spacing" textLength="169.3092" x="474" y="304.2557">AGPL-3.0, offline, pas de t&#233;l&#233;m&#233;trie</text></g><!--entity LLAMA--><g class="entity" data-qualified-name="LLAMA" data-source-line="24" id="ent0008"><rect fill="#F1F1F1" height="61.1474" rx="4" ry="4" style="stroke:#181818;stroke-width:0.5;" width="153.4284" x="7" y="421.4429"/><text fill="#000000" font-family="'Inter, Helvetica, sans-serif'" font-size="10" font-style="italic" lengthAdjust="spacing" textLength="44.9872" x="61.2206" y="441.1307">&#171;system&#187;</text><text fill="#000000" font-family="'Inter, Helvetica, sans-serif'" font-size="12" lengthAdjust="spacing" textLength="54.2884" x="17" y="455.1702">llama.cpp</text><text fill="#000000" font-family="'Inter, Helvetica, sans-serif'" font-size="12" lengthAdjust="spacing" textLength="133.4284" x="17" y="469.6926">(binaire `llama-server`)</text></g><!--entity HF--><g class="entity" data-qualified-name="HF" data-source-line="25" id="ent0009"><rect fill="#F1F1F1" height="61.1474" rx="4" ry="4" style="stroke:#181818;stroke-width:0.5;" width="128.4234" x="426.5" y="421.4429"/><text fill="#000000" font-family="'Inter, Helvetica, sans-serif'" font-size="10" font-style="italic" lengthAdjust="spacing" textLength="44.9872" x="468.2181" y="441.1307">&#171;system&#187;</text><text fill="#000000" font-family="'Inter, Helvetica, sans-serif'" font-size="12" lengthAdjust="spacing" textLength="78.5264" x="436.5" y="455.1702">Hugging Face</text><text fill="#000000" font-family="'Inter, Helvetica, sans-serif'" font-size="12" lengthAdjust="spacing" textLength="108.4234" x="436.5" y="469.6926">(API m&#233;tadonn&#233;es)</text></g><!--entity FS--><g class="entity" data-qualified-name="FS" data-source-line="26" id="ent0010"><rect fill="#F1F1F1" height="75.6697" rx="4" ry="4" style="stroke:#181818;stroke-width:0.5;" width="191.1831" x="590" y="413.9429"/><text fill="#000000" font-family="'Inter, Helvetica, sans-serif'" font-size="10" font-style="italic" lengthAdjust="spacing" textLength="46.9332" x="662.1249" y="433.6307">&#171;storage&#187;</text><text fill="#000000" font-family="'Inter, Helvetica, sans-serif'" font-size="12" lengthAdjust="spacing" textLength="171.1831" x="600" y="447.6702">Syst&#232;me de fichiers utilisateur</text><text fill="#000000" font-family="'Inter, Helvetica, sans-serif'" font-size="12" lengthAdjust="spacing" textLength="141.1498" x="600" y="462.1926">(D:\models, sidecars .ts/,</text><text fill="#000000" font-family="'Inter, Helvetica, sans-serif'" font-size="12" lengthAdjust="spacing" textLength="152.0075" x="600" y="476.7149">donn&#233;es app /.tagspaces/)</text></g><g class="entity" data-qualified-name="GMN16" data-source-line="35" id="ent0017"><path d="M816,421.9429 L816,482.0323 A4,4 0 0 0 820,486.0323 L1046.6252,486.0323 A4,4 0 0 0 1050.6252,482.0323 L1050.6252,427.9429 L1040.6252,417.9429 L820,417.9429 A4,4 0 0 0 816,421.9429" fill="#FFFDF6" style="stroke:#C68A3A;stroke-width:0.5;"/><path d="M1040.6252,417.9429 L1040.6252,425.9429 A2,2 0 0 0 1042.6252,427.9429 L1050.6252,427.9429 L1040.6252,417.9429" fill="#FFFDF6" style="stroke:#C68A3A;stroke-width:1;"/><text fill="#0E1014" font-family="'Inter, Helvetica, sans-serif'" font-size="12" lengthAdjust="spacing" textLength="131.6898" x="822" y="434.5676">Rien ne quitte 127.0.0.1</text><text fill="#0E1014" font-family="'Inter, Helvetica, sans-serif'" font-size="12" lengthAdjust="spacing" textLength="153.2348" x="822" y="449.0899">sauf hf.fetch (et seulement</text><text fill="#0E1014" font-family="'Inter, Helvetica, sans-serif'" font-size="12" lengthAdjust="spacing" textLength="173.416" x="822" y="463.6123">sur action utilisateur explicite).</text><text fill="#0E1014" font-family="'Inter, Helvetica, sans-serif'" font-size="12" lengthAdjust="spacing" textLength="213.6252" x="822" y="478.1347">Pas de t&#233;l&#233;m&#233;trie, pas d'auto-update.</text></g><g class="entity" data-qualified-name="GMN19" data-source-line="42" id="ent0020"><path d="M195.5,421.9429 L195.5,447.9429 L160.2,451.9429 L195.5,455.9429 L195.5,482.0323 A4,4 0 0 0 199.5,486.0323 L387.3308,486.0323 A4,4 0 0 0 391.3308,482.0323 L391.3308,427.9429 L381.3308,417.9429 L199.5,417.9429 A4,4 0 0 0 195.5,421.9429" fill="#FFFDF6" style="stroke:#C68A3A;stroke-width:0.5;"/><path d="M381.3308,417.9429 L381.3308,425.9429 A2,2 0 0 0 383.3308,427.9429 L391.3308,427.9429 L381.3308,417.9429" fill="#FFFDF6" style="stroke:#C68A3A;stroke-width:0.5;"/><text fill="#0E1014" font-family="'Inter, Helvetica, sans-serif'" font-size="12" lengthAdjust="spacing" textLength="158.7573" x="201.5" y="434.5676">Binaire externe, non bundl&#233;.</text><text fill="#0E1014" font-family="'Inter, Helvetica, sans-serif'" font-size="12" lengthAdjust="spacing" textLength="173.6546" x="201.5" y="449.0899">L'utilisateur l'installe lui-m&#234;me.</text><text fill="#0E1014" font-family="'Inter, Helvetica, sans-serif'" font-size="12" lengthAdjust="spacing" textLength="174.8308" x="201.5" y="463.6123">Maestria le d&#233;tecte + autotune</text><text fill="#0E1014" font-family="'Inter, Helvetica, sans-serif'" font-size="12" lengthAdjust="spacing" textLength="103.9235" x="201.5" y="478.1347">selon le hardware.</text></g><!--link USER to SYS--><g class="link" data-entity-1="ent0001" data-entity-2="ent0002" data-link-type="dependency" data-source-line="28" id="lnk11"><path d="M475.15,153.0329 C470.79,176.0729 469.35,205.5729 482.5,227.9429 C489.69,240.1729 496.2958,247.2904 508.2458,255.1704" fill="none" id="USER-to-SYS" style="stroke:#1A1D24;stroke-width:1;"/><polygon fill="#1A1D24" points="512.42,257.9229,507.1085,249.629,508.2458,255.1704,502.7045,256.3077,512.42,257.9229" style="stroke:#1A1D24;stroke-width:1;stroke-linejoin:miter;stroke-miterlimit:10;"/><text fill="#000000" font-family="'Inter, Helvetica, sans-serif'" font-size="12" lengthAdjust="spacing" textLength="140.2635" x="495.2014" y="195.5676">Ouvre .gguf, caract&#233;rise,</text><text fill="#000000" font-family="'Inter, Helvetica, sans-serif'" font-size="12" lengthAdjust="spacing" textLength="139.8033" x="495.4315" y="210.0899">tague, configure routing,</text><text fill="#000000" font-family="'Inter, Helvetica, sans-serif'" font-size="12" lengthAdjust="spacing" textLength="163.6663" x="483.5" y="224.6123">chat ouvert-dans-navigateur</text></g><!--link SYS to LLAMA--><g class="link" data-entity-1="ent0002" data-entity-2="ent0008" data-link-type="dependency" data-source-line="29" id="lnk12"><path d="M465.6,316.9929 C424.62,327.3529 378.82,339.7829 337.5,352.9429 C264.99,376.0429 248.46,386.4529 177.5,413.9429 C171.29,416.3529 169.4981,417.0458 163.0381,419.5658" fill="none" id="SYS-to-LLAMA" style="stroke:#1A1D24;stroke-width:1;"/><polygon fill="#1A1D24" points="158.38,421.3829,168.2183,421.8386,163.0381,419.5658,165.3109,414.3856,158.38,421.3829" style="stroke:#1A1D24;stroke-width:1;stroke-linejoin:miter;stroke-miterlimit:10;"/><text fill="#000000" font-family="'Inter, Helvetica, sans-serif'" font-size="12" lengthAdjust="spacing" textLength="143.5191" x="338.5" y="365.5676">Spawn processus enfant,</text><text fill="#000000" font-family="'Inter, Helvetica, sans-serif'" font-size="12" lengthAdjust="spacing" textLength="111.2017" x="354.6587" y="380.0899">monitore PID + URL</text></g><!--link SYS to FS--><g class="link" data-entity-1="ent0002" data-entity-2="ent0010" data-link-type="dependency" data-source-line="30" id="lnk13"><path d="M617.85,317.1029 C627.89,327.6829 638.52,340.2129 646.5,352.9429 C658.27,371.7129 665.9755,389.9211 672.5755,408.8711" fill="none" id="SYS-to-FS" style="stroke:#1A1D24;stroke-width:1;"/><polygon fill="#1A1D24" points="674.22,413.5929,675.0373,403.778,672.5755,408.8711,667.4824,406.4093,674.22,413.5929" style="stroke:#1A1D24;stroke-width:1;stroke-linejoin:miter;stroke-miterlimit:10;"/><text fill="#000000" font-family="'Inter, Helvetica, sans-serif'" font-size="12" lengthAdjust="spacing" textLength="68.8278" x="684.6443" y="365.5676">Lit mod&#232;les,</text><text fill="#000000" font-family="'Inter, Helvetica, sans-serif'" font-size="12" lengthAdjust="spacing" textLength="111.1165" x="663.5" y="380.0899">&#233;crit sidecars / logs</text></g><!--link SYS to HF--><g class="link" data-entity-1="ent0002" data-entity-2="ent0009" data-link-type="dependency" data-source-line="31" id="lnk14"><path d="M534.39,317.0729 C521.23,326.7229 508.59,338.7229 500.5,352.9429 C488.74,373.6029 486.644,395.7256 487.324,416.1956" fill="none" id="SYS-to-HF" style="stroke:#1A1D24;stroke-width:1;"/><polygon fill="#1A1D24" points="487.49,421.1929,491.189,412.065,487.324,416.1956,483.1934,412.3307,487.49,421.1929" style="stroke:#1A1D24;stroke-width:1;stroke-linejoin:miter;stroke-miterlimit:10;"/><text fill="#000000" font-family="'Inter, Helvetica, sans-serif'" font-size="12" lengthAdjust="spacing" textLength="125.0253" x="509.1021" y="365.5676">hf.fetch m&#233;tadonn&#233;es</text><text fill="#000000" font-family="'Inter, Helvetica, sans-serif'" font-size="12" lengthAdjust="spacing" textLength="140.2294" x="501.5" y="380.0899">(action utilisateur opt-in)</text></g><!--link MCP to SYS--><g class="link" data-entity-1="ent0003" data-entity-2="ent0002" data-link-type="dependency" data-source-line="32" id="lnk15"><path d="M858.1507,118.5147 C858.0323,118.5452 857.9127,118.576 857.792,118.6072 C857.5506,118.6695 857.3046,118.7332 857.0542,118.7982 C856.5533,118.9282 856.0345,119.0636 855.4983,119.2043 C853.3533,119.767 850.9293,120.4152 848.2572,121.148 C837.5687,124.0794 822.9113,128.366 806.27,133.9641 C772.9875,145.1604 731.77,161.6029 698.5,182.9429 C674.16,198.5529 672.62,208.1829 651.5,227.9429 C641.06,237.7129 633.2426,244.9117 622.9026,254.3517" fill="none" id="MCP-to-SYS" style="stroke:#1A1D24;stroke-width:1;"/><polygon fill="#1A1D24" points="619.21,257.7229,628.5536,254.6088,622.9026,254.3517,623.1597,248.7007,619.21,257.7229" style="stroke:#1A1D24;stroke-width:1;stroke-linejoin:miter;stroke-miterlimit:10;"/><text fill="#000000" font-family="'Inter, Helvetica, sans-serif'" font-size="12" lengthAdjust="spacing" textLength="174.0978" x="699.5" y="195.5676">HTTP+SSE sur 127.0.0.1:41541</text><text fill="#000000" font-family="'Inter, Helvetica, sans-serif'" font-size="12" lengthAdjust="spacing" textLength="106.9916" x="733.0531" y="210.0899">auth Bearer-token,</text><text fill="#000000" font-family="'Inter, Helvetica, sans-serif'" font-size="12" lengthAdjust="spacing" textLength="51.2373" x="760.9302" y="224.6123">tools/call</text></g><!--link SYS to GMN16--><g class="link" data-entity-1="ent0002" data-entity-2="ent0017" data-link-type="association" data-source-line="35" id="lnk18"><path d="M691.21,317.0029 C721.6,326.8429 754.45,338.9729 783.5,352.9429 C821.2,371.0829 860.69,397.2129 889.69,417.9229" fill="none" id="SYS-GMN16" style="stroke:#1A1D24;stroke-width:1;stroke-dasharray:7,7;"/></g><?plantuml-src RLHBRkD64Dtp51Ld8TiZKbRY981X693bKMH0HWHpl0WWOAPDbgZ6DBkP_iXsWWGvH0unoYANu4roahoMPKcU3BGHMAzUlNxr-KhgGeMIASjwxpV_NS_v9yMP3BLAaWvT6XqS_VldNrHAKLbHrqp3KneQxVdHPpHGNlh8qIZW5Y9ufby2apRUCYtnhp1rOvpGdix0ToFOUIj5_0ogUzF-uoDQ0ls6YeM8oUx9-VOJmYZ1LaV63Yl5v4qe5fmb7J0TZeKkKslmlLmBD9hQrLA2JWbIyfxCV2uBkKuSdgPJ1GrtDnDgJB04qaOuq4ZjhIb3h1yqlJXYsvLZ4RAZ974VfMu4NawM2ozq1RhV4g8SqjZufuP7C2ENlpBrJvBVamI60B9zQ9IsiIlgI19HU6FfuCvB9Ptm33MBK0kf3qWukilVtYQxIWV7nozCnySpVUvGvwn_Sg75KbRFoUof0a8QhKLy1kJNfcm_ANPqFI1b2X4UptinysAFOV3ZT99-cvrqeqzAQkv6HsAsRrUgNTNj2bLvaxZMbl-SqzUZqUXgz7soht6e96llw6OuVMcPEw3pyzX7hYykOcwCHTjUfOdezT2KVB21l1yEFyC4wupTXUzkNyTBPflEbNdOGgv6hn6kiBA1k1uLmQejB1-ZLtimfKGjig9fPlhmNZux-M7zCNLibsm_77t-fCbaS3FOvnY7gfAwef4e63I3wJL55qM9rhGhTlzZ68_sq_ENiOSfcDo5PEiexCO4b5TdincQoyfroScI2m58vbslEzClLKWq3VtHoxoeN0CbhlTS5rCdAdukFCgJ94uQfUd5kgrdz5DOuibPLOLvby2BCMrNLZe6DQW2vgCmUYwh09WrqAKhXB2odao0GJujXNRfRZAJI1mBh8r2YRmH3veQQo3AuLomdcCdGL8RBI6FQNfzXJDmTplPvewYjedqsva6l5sXftvdG0z3NhbjodY4bCKycxCl5gyx00lnBgpAlgza6fzAVPJ46TqPCdxtRlecpz-I0wJ_pG_P2NxzizF-TwVzcSQbMz0b2ulvy-OZwsYJCShr2g5mEd40utdptjHOi4Y9iRp5dj3wdacFy9OK8IV2V2Vw44ljE2YkiLWn2WbV4CwFZSA9ytoK0JJzmlfkbhe3kIODJOcyB65TnWFD6vLMLWiVHJuFDD7bPlutkzm5MDDzq2LuOw59Pr-4waZjl8XdLWMPrktVDKVKzW8YK48D1ZtU-AZ41ytnLQn0ZF12sF81Lkv9-my0?></g></svg>