<svg xmlns="http://www.w3.org/2000/svg" xmlns:xlink="http://www.w3.org/1999/xlink" contentStyleType="text/css" data-diagram-type="DESCRIPTION" height="836px" preserveAspectRatio="none" style="width:2224px;height:836px;background:#F4EEE3;" version="1.1" viewBox="0 0 2224 836" width="2224px" zoomAndPan="magnify"><?plantuml 1.2026.4?><defs/><g><rect fill="#F4EEE3" height="836" style="stroke:none;stroke-width:1;" width="2224" x="0" y="0"/><g class="title" data-source-line="4"><text fill="#000000" font-family="'Inter, Helvetica, sans-serif'" font-size="14" font-weight="700" lengthAdjust="spacing" textLength="271.1859" x="973.3373" y="23.5623">Maestria &#8212; processus runtime et ports</text></g><!--cluster HOST--><g class="cluster" data-qualified-name="HOST" data-source-line="6" id="ent0008"><polygon fill="#1A1D24" points="16,233.4429,26,223.4429,1191,223.4429,1191,801.9429,1181,811.9429,16,811.9429,16,233.4429" style="stroke:#0E1014;stroke-width:1;stroke-linejoin:miter;stroke-miterlimit:10;"/><line style="stroke:#0E1014;stroke-width:1;" x1="1181" x2="1191" y1="233.4429" y2="223.4429"/><line style="stroke:#0E1014;stroke-width:1;" x1="16" x2="1181" y1="233.4429" y2="233.4429"/><line style="stroke:#0E1014;stroke-width:1;" x1="1181" x2="1181" y1="233.4429" y2="811.9429"/><text fill="#F4EEE3" font-family="'Inter, Helvetica, sans-serif'" font-size="12" font-weight="700" lengthAdjust="spacing" textLength="138.7296" x="530.1352" y="248.0676">Machine de l'utilisateur</text></g><!--cluster MAESTRIA--><g class="cluster" data-qualified-name="HOST.MAESTRIA" data-source-line="7" id="ent0009"><polygon fill="#1A1D24" points="662,279.4429,672,269.4429,932,269.4429,932,562.9429,922,572.9429,662,572.9429,662,279.4429" style="stroke:#0E1014;stroke-width:1;stroke-linejoin:miter;stroke-miterlimit:10;"/><line style="stroke:#0E1014;stroke-width:1;" x1="922" x2="932" y1="279.4429" y2="269.4429"/><line style="stroke:#0E1014;stroke-width:1;" x1="662" x2="922" y1="279.4429" y2="279.4429"/><line style="stroke:#0E1014;stroke-width:1;" x1="922" x2="922" y1="279.4429" y2="572.9429"/><text fill="#F4EEE3" font-family="'Inter, Helvetica, sans-serif'" font-size="12" font-weight="700" lengthAdjust="spacing" textLength="194.2965" x="695.8518" y="294.0676">Maestria.exe / .dmg / .AppImage</text><text fill="#F4EEE3" font-family="'Inter, Helvetica, sans-serif'" font-size="12" font-weight="700" lengthAdjust="spacing" textLength="173.7231" x="706.1385" y="308.5899">(Electron &#8212; main + renderer)</text></g><!--cluster SUBS--><g class="cluster" data-qualified-name="HOST.SUBS" data-source-line="12" id="ent0012"><polygon fill="#1A1D24" points="40,654.9429,50,644.9429,539,644.9429,539,777.9429,529,787.9429,40,787.9429,40,654.9429" style="stroke:#0E1014;stroke-width:1;stroke-linejoin:miter;stroke-miterlimit:10;"/><line style="stroke:#0E1014;stroke-width:1;" x1="529" x2="539" y1="654.9429" y2="644.9429"/><line style="stroke:#0E1014;stroke-width:1;" x1="40" x2="529" y1="654.9429" y2="654.9429"/><line style="stroke:#0E1014;stroke-width:1;" x1="529" x2="529" y1="654.9429" y2="787.9429"/><text fill="#F4EEE3" font-family="'Inter, Helvetica, sans-serif'" font-size="12" font-weight="700" lengthAdjust="spacing" textLength="163.3597" x="203.8201" y="669.5676">Sous-processus optionnels</text><text fill="#F4EEE3" font-family="'Inter, Helvetica, sans-serif'" font-size="12" font-weight="700" lengthAdjust="spacing" textLength="265.255" x="152.8725" y="684.0899">(spawn&#233;s par Maestria, PIDs enfants trac&#233;s)</text></g><!--cluster Syst?me de fichiers utilisateur--><g class="cluster" data-qualified-name="HOST.Syst.me de fichiers utilisateur" data-source-line="18" id="ent0016"><path d="M563,663.4429 C563,653.4429 865,653.4429 865,653.4429 C865,653.4429 1167,653.4429 1167,663.4429 L1167,774.4429 C1167,784.4429 865,784.4429 865,784.4429 C865,784.4429 563,784.4429 563,774.4429 L563,663.4429" fill="#E6DFD2" style="stroke:#C68A3A;stroke-width:1;"/><path d="M563,663.4429 C563,673.4429 865,673.4429 865,673.4429 C865,673.4429 1167,673.4429 1167,663.4429" fill="none" style="stroke:#C68A3A;stroke-width:1;"/><text fill="#000000" font-family="'Inter, Helvetica, sans-serif'" font-size="12" font-weight="700" lengthAdjust="spacing" textLength="181.6831" x="774.1584" y="687.0676">Syst&#232;me de fichiers utilisateur</text></g><!--cluster EXT_CLIENTS--><g class="cluster" data-qualified-name="EXT_CLIENTS" data-source-line="25" id="ent0020"><polygon fill="#1A1D24" points="1223,278.4429,1233,268.4429,1517,268.4429,1517,563.9429,1507,573.9429,1223,573.9429,1223,278.4429" style="stroke:#0E1014;stroke-width:1;stroke-linejoin:miter;stroke-miterlimit:10;"/><line style="stroke:#0E1014;stroke-width:1;" x1="1507" x2="1517" y1="278.4429" y2="268.4429"/><line style="stroke:#0E1014;stroke-width:1;" x1="1223" x2="1507" y1="278.4429" y2="278.4429"/><line style="stroke:#0E1014;stroke-width:1;" x1="1507" x2="1507" y1="278.4429" y2="573.9429"/><text fill="#F4EEE3" font-family="'Inter, Helvetica, sans-serif'" font-size="12" font-weight="700" lengthAdjust="spacing" textLength="129.1503" x="1301.4249" y="293.0676">Clients MCP externes</text><text fill="#F4EEE3" font-family="'Inter, Helvetica, sans-serif'" font-size="12" font-weight="700" lengthAdjust="spacing" textLength="122.2982" x="1304.8509" y="307.5899">(processus s&#233;par&#233;s)</text></g><!--entity R--><g class="entity" data-qualified-name="HOST.MAESTRIA.R" data-source-line="8" id="ent0010"><rect fill="#FFFFFF" height="59.0447" rx="4" ry="4" style="stroke:#0E1014;stroke-width:0.5;" width="96.6236" x="742.5" y="322.4429"/><rect fill="#FFFFFF" height="10" style="stroke:#0E1014;stroke-width:0.5;" width="15" x="819.1236" y="327.4429"/><rect fill="#FFFFFF" height="2" style="stroke:#0E1014;stroke-width:0.5;" width="4" x="817.1236" y="329.4429"/><rect fill="#FFFFFF" height="2" style="stroke:#0E1014;stroke-width:0.5;" width="4" x="817.1236" y="333.4429"/><text fill="#0E1014" font-family="'Inter, Helvetica, sans-serif'" font-size="12" lengthAdjust="spacing" textLength="52.0385" x="757.5" y="354.0676">Renderer</text><text fill="#0E1014" font-family="'Inter, Helvetica, sans-serif'" font-size="12" lengthAdjust="spacing" textLength="56.6236" x="757.5" y="368.5899">(UI React)</text></g><!--entity M--><g class="entity" data-qualified-name="HOST.MAESTRIA.M" data-source-line="9" id="ent0011"><rect fill="#FFFFFF" height="59.0447" rx="4" ry="4" style="stroke:#0E1014;stroke-width:0.5;" width="129.1625" x="732.5" y="497.9429"/><rect fill="#FFFFFF" height="10" style="stroke:#0E1014;stroke-width:0.5;" width="15" x="841.6625" y="502.9429"/><rect fill="#FFFFFF" height="2" style="stroke:#0E1014;stroke-width:0.5;" width="4" x="839.6625" y="504.9429"/><rect fill="#FFFFFF" height="2" style="stroke:#0E1014;stroke-width:0.5;" width="4" x="839.6625" y="508.9429"/><text fill="#0E1014" font-family="'Inter, Helvetica, sans-serif'" font-size="12" lengthAdjust="spacing" textLength="89.1625" x="747.5" y="529.5676">Processus main</text><text fill="#0E1014" font-family="'Inter, Helvetica, sans-serif'" font-size="12" lengthAdjust="spacing" textLength="51.7487" x="747.5" y="544.0899">(Node.js)</text></g><!--entity P_CHAT--><g class="entity" data-qualified-name="HOST.SUBS.P_CHAT" data-source-line="13" id="ent0013"><polygon fill="#1A1D24" points="253.5,707.9429,263.5,697.9429,372.3503,697.9429,372.3503,761.51,362.3503,771.51,253.5,771.51,253.5,707.9429" style="stroke:#0E1014;stroke-width:0.5;stroke-linejoin:miter;stroke-miterlimit:10;"/><line style="stroke:#0E1014;stroke-width:0.5;" x1="362.3503" x2="372.3503" y1="707.9429" y2="697.9429"/><line style="stroke:#0E1014;stroke-width:0.5;" x1="253.5" x2="362.3503" y1="707.9429" y2="707.9429"/><line style="stroke:#0E1014;stroke-width:0.5;" x1="362.3503" x2="362.3503" y1="707.9429" y2="771.51"/><text fill="#F4EEE3" font-family="'Inter, Helvetica, sans-serif'" font-size="12" lengthAdjust="spacing" textLength="71.0436" x="268.5" y="729.5676">llama-server</text><text fill="#F4EEE3" font-family="'Inter, Helvetica, sans-serif'" font-size="12" lengthAdjust="spacing" textLength="78.8503" x="268.5" y="744.0899">(mod&#232;le chat)</text><text fill="#F4EEE3" font-family="'Inter, Helvetica, sans-serif'" font-size="12" lengthAdjust="spacing" textLength="55.2429" x="268.5" y="758.6123">port :auto</text></g><!--entity P_EMB--><g class="entity" data-qualified-name="HOST.SUBS.P_EMB" data-source-line="14" id="ent0014"><polygon fill="#1A1D24" points="407.5,707.9429,417.5,697.9429,522.481,697.9429,522.481,761.51,512.481,771.51,407.5,771.51,407.5,707.9429" style="stroke:#0E1014;stroke-width:0.5;stroke-linejoin:miter;stroke-miterlimit:10;"/><line style="stroke:#0E1014;stroke-width:0.5;" x1="512.481" x2="522.481" y1="707.9429" y2="697.9429"/><line style="stroke:#0E1014;stroke-width:0.5;" x1="407.5" x2="512.481" y1="707.9429" y2="707.9429"/><line style="stroke:#0E1014;stroke-width:0.5;" x1="512.481" x2="512.481" y1="707.9429" y2="771.51"/><text fill="#F4EEE3" font-family="'Inter, Helvetica, sans-serif'" font-size="12" lengthAdjust="spacing" textLength="71.0436" x="422.5" y="729.5676">llama-server</text><text fill="#F4EEE3" font-family="'Inter, Helvetica, sans-serif'" font-size="12" lengthAdjust="spacing" textLength="74.981" x="422.5" y="744.0899">--embedding</text><text fill="#F4EEE3" font-family="'Inter, Helvetica, sans-serif'" font-size="12" lengthAdjust="spacing" textLength="54.5441" x="422.5" y="758.6123">port 8081</text></g><!--entity P_PY--><g class="entity" data-qualified-name="HOST.SUBS.P_PY" data-source-line="15" id="ent0015"><polygon fill="#1A1D24" points="56,707.9429,66,697.9429,217.6844,697.9429,217.6844,761.51,207.6844,771.51,56,771.51,56,707.9429" style="stroke:#0E1014;stroke-width:0.5;stroke-linejoin:miter;stroke-miterlimit:10;"/><line style="stroke:#0E1014;stroke-width:0.5;" x1="207.6844" x2="217.6844" y1="707.9429" y2="697.9429"/><line style="stroke:#0E1014;stroke-width:0.5;" x1="56" x2="207.6844" y1="707.9429" y2="707.9429"/><line style="stroke:#0E1014;stroke-width:0.5;" x1="207.6844" x2="207.6844" y1="707.9429" y2="771.51"/><text fill="#F4EEE3" font-family="'Inter, Helvetica, sans-serif'" font-size="12" lengthAdjust="spacing" textLength="121.6844" x="71" y="729.5676">python3 / python.exe</text><text fill="#F4EEE3" font-family="'Inter, Helvetica, sans-serif'" font-size="12" lengthAdjust="spacing" textLength="63.2882" x="71" y="744.0899">(sandbox&#233;,</text><text fill="#F4EEE3" font-family="'Inter, Helvetica, sans-serif'" font-size="12" lengthAdjust="spacing" textLength="111.5256" x="71" y="758.6123">&#233;ph&#233;m&#232;re par item)</text></g><!--entity MODELS--><g class="entity" data-qualified-name="HOST.Syst.me de fichiers utilisateur.MODELS" data-source-line="19" id="ent0017"><path d="M583.5,701.4429 L621.5,701.4429 A6,6 0 0 1 625.5,705.4429 L632.5,722.4429 L792.8588,722.4429 A4,4 0 0 1 796.8588,726.4429 L796.8588,764.4876 A4,4 0 0 1 792.8588,768.4876 L583.5,768.4876 A4,4 0 0 1 579.5,764.4876 L579.5,705.4429 A4,4 0 0 1 583.5,701.4429" fill="#F1F1F1" style="stroke:#181818;stroke-width:0.5;"/><line style="stroke:#181818;stroke-width:0.5;" x1="579.5" x2="632.5" y1="722.4429" y2="722.4429"/><text fill="#000000" font-family="'Inter, Helvetica, sans-serif'" font-size="12" lengthAdjust="spacing" textLength="61.6348" x="589.5" y="741.0676">D:\models\</text><text fill="#000000" font-family="'Inter, Helvetica, sans-serif'" font-size="12" lengthAdjust="spacing" textLength="187.3588" x="589.5" y="755.5899">ou dossier de mod&#232;les utilisateur</text></g><!--entity SC--><g class="entity" data-qualified-name="HOST.Syst.me de fichiers utilisateur.SC" data-source-line="20" id="ent0018"><path d="M835.5,701.4429 L873.5,701.4429 A6,6 0 0 1 877.5,705.4429 L884.5,722.4429 L956.9918,722.4429 A4,4 0 0 1 960.9918,726.4429 L960.9918,764.4876 A4,4 0 0 1 956.9918,768.4876 L835.5,768.4876 A4,4 0 0 1 831.5,764.4876 L831.5,705.4429 A4,4 0 0 1 835.5,701.4429" fill="#F1F1F1" style="stroke:#181818;stroke-width:0.5;"/><line style="stroke:#181818;stroke-width:0.5;" x1="831.5" x2="884.5" y1="722.4429" y2="722.4429"/><text fill="#000000" font-family="'Inter, Helvetica, sans-serif'" font-size="12" lengthAdjust="spacing" textLength="69.3562" x="841.5" y="741.0676">sidecars .ts/</text><text fill="#000000" font-family="'Inter, Helvetica, sans-serif'" font-size="12" lengthAdjust="spacing" textLength="99.4918" x="841.5" y="755.5899">JSON par mod&#232;le</text></g><!--entity APP_DATA--><g class="entity" data-qualified-name="HOST.Syst.me de fichiers utilisateur.APP_DATA" data-source-line="21" id="ent0019"><path d="M999.5,701.4429 L1037.5,701.4429 A6,6 0 0 1 1041.5,705.4429 L1048.5,722.4429 L1146.048,722.4429 A4,4 0 0 1 1150.048,726.4429 L1150.048,764.4876 A4,4 0 0 1 1146.048,768.4876 L999.5,768.4876 A4,4 0 0 1 995.5,764.4876 L995.5,705.4429 A4,4 0 0 1 999.5,701.4429" fill="#F1F1F1" style="stroke:#181818;stroke-width:0.5;"/><line style="stroke:#181818;stroke-width:0.5;" x1="995.5" x2="1048.5" y1="722.4429" y2="722.4429"/><text fill="#000000" font-family="'Inter, Helvetica, sans-serif'" font-size="12" lengthAdjust="spacing" textLength="70.6176" x="1005.5" y="741.0676">/.tagspaces/</text><text fill="#000000" font-family="'Inter, Helvetica, sans-serif'" font-size="12" lengthAdjust="spacing" textLength="124.548" x="1005.5" y="755.5899">mcp.log + param&#232;tres</text></g><!--entity C_CC--><g class="entity" data-qualified-name="EXT_CLIENTS.C_CC" data-source-line="26" id="ent0021"><rect fill="#FFFFFF" height="44.5224" rx="4" ry="4" style="stroke:#0E1014;stroke-width:0.5;" width="113.447" x="1266.5" y="329.4429"/><rect fill="#FFFFFF" height="10" style="stroke:#0E1014;stroke-width:0.5;" width="15" x="1359.947" y="334.4429"/><rect fill="#FFFFFF" height="2" style="stroke:#0E1014;stroke-width:0.5;" width="4" x="1357.947" y="336.4429"/><rect fill="#FFFFFF" height="2" style="stroke:#0E1014;stroke-width:0.5;" width="4" x="1357.947" y="340.4429"/><text fill="#0E1014" font-family="'Inter, Helvetica, sans-serif'" font-size="12" lengthAdjust="spacing" textLength="73.447" x="1281.5" y="361.0676">Claude Code</text></g><!--entity C_CUR--><g class="entity" data-qualified-name="EXT_CLIENTS.C_CUR" data-source-line="27" id="ent0022"><rect fill="#FFFFFF" height="44.5224" rx="4" ry="4" style="stroke:#0E1014;stroke-width:0.5;" width="78.0615" x="1415" y="329.4429"/><rect fill="#FFFFFF" height="10" style="stroke:#0E1014;stroke-width:0.5;" width="15" x="1473.0615" y="334.4429"/><rect fill="#FFFFFF" height="2" style="stroke:#0E1014;stroke-width:0.5;" width="4" x="1471.0615" y="336.4429"/><rect fill="#FFFFFF" height="2" style="stroke:#0E1014;stroke-width:0.5;" width="4" x="1471.0615" y="340.4429"/><text fill="#0E1014" font-family="'Inter, Helvetica, sans-serif'" font-size="12" lengthAdjust="spacing" textLength="38.0615" x="1430" y="361.0676">Cursor</text></g><!--entity C_DF--><g class="entity" data-qualified-name="EXT_CLIENTS.C_DF" data-source-line="28" id="ent0023"><rect fill="#FFFFFF" height="44.5224" rx="4" ry="4" style="stroke:#0E1014;stroke-width:0.5;" width="95.4986" x="1262.5" y="504.9429"/><rect fill="#FFFFFF" height="10" style="stroke:#0E1014;stroke-width:0.5;" width="15" x="1337.9986" y="509.9429"/><rect fill="#FFFFFF" height="2" style="stroke:#0E1014;stroke-width:0.5;" width="4" x="1335.9986" y="511.9429"/><rect fill="#FFFFFF" height="2" style="stroke:#0E1014;stroke-width:0.5;" width="4" x="1335.9986" y="515.9429"/><text fill="#0E1014" font-family="'Inter, Helvetica, sans-serif'" font-size="12" lengthAdjust="spacing" textLength="55.4986" x="1277.5" y="536.5676">deer-flow</text></g><!--entity C_SH--><g class="entity" data-qualified-name="EXT_CLIENTS.C_SH" data-source-line="29" id="ent0024"><rect fill="#FFFFFF" height="44.5224" rx="4" ry="4" style="stroke:#0E1014;stroke-width:0.5;" width="99.5894" x="1393" y="504.9429"/><rect fill="#FFFFFF" height="10" style="stroke:#0E1014;stroke-width:0.5;" width="15" x="1472.5894" y="509.9429"/><rect fill="#FFFFFF" height="2" style="stroke:#0E1014;stroke-width:0.5;" width="4" x="1470.5894" y="511.9429"/><rect fill="#FFFFFF" height="2" style="stroke:#0E1014;stroke-width:0.5;" width="4" x="1470.5894" y="515.9429"/><text fill="#0E1014" font-family="'Inter, Helvetica, sans-serif'" font-size="12" lengthAdjust="spacing" textLength="59.5894" x="1408" y="536.5676">bash / curl</text></g><!--entity USER--><g class="entity" data-qualified-name="USER" data-source-line="4" id="ent0001"><ellipse cx="790.8146" cy="73.4429" fill="#FFFFFF" rx="8" ry="8" style="stroke:#0E1014;stroke-width:0.5;"/><path d="M790.8146,81.4429 L790.8146,108.4429 M777.8146,89.4429 L803.8146,89.4429 M790.8146,108.4429 L777.8146,123.4429 M790.8146,108.4429 L803.8146,123.4429" fill="none" style="stroke:#0E1014;stroke-width:0.5;"/><text fill="#000000" font-family="'Inter, Helvetica, sans-serif'" font-size="12" lengthAdjust="spacing" textLength="57.6292" x="762" y="136.5676">Utilisateur</text></g><!--entity MCP_CLIENT--><g class="entity" data-qualified-name="MCP_CLIENT" data-source-line="5" id="ent0002"><ellipse cx="1619.0757" cy="51.9429" fill="#FFFFFF" rx="8" ry="8" style="stroke:#0E1014;stroke-width:0.5;"/><path d="M1619.0757,59.9429 L1619.0757,86.9429 M1606.0757,67.9429 L1632.0757,67.9429 M1619.0757,86.9429 L1606.0757,101.9429 M1619.0757,86.9429 L1632.0757,101.9429" fill="none" style="stroke:#0E1014;stroke-width:0.5;"/><text fill="#000000" font-family="'Inter, Helvetica, sans-serif'" font-size="12" lengthAdjust="spacing" textLength="63.1859" x="1578.5" y="115.0676">Client MCP</text><text fill="#000000" font-family="'Inter, Helvetica, sans-serif'" font-size="12" lengthAdjust="spacing" textLength="81.1513" x="1578.5" y="129.5899">(Claude Code,</text><text fill="#000000" font-family="'Inter, Helvetica, sans-serif'" font-size="12" lengthAdjust="spacing" textLength="41.4194" x="1578.5" y="144.1123">Cursor,</text><text fill="#000000" font-family="'Inter, Helvetica, sans-serif'" font-size="12" lengthAdjust="spacing" textLength="76.4299" x="1578.5" y="158.6347">deer-flow, &#8230;)</text></g><!--entity LLAMA_CHAT--><g class="entity" data-qualified-name="LLAMA_CHAT" data-source-line="6" id="ent0003"><polygon fill="#1A1D24" points="1694.5,82.9429,1704.5,72.9429,1813.3503,72.9429,1813.3503,121.9876,1803.3503,131.9876,1694.5,131.9876,1694.5,82.9429" style="stroke:#0E1014;stroke-width:0.5;stroke-linejoin:miter;stroke-miterlimit:10;"/><line style="stroke:#0E1014;stroke-width:0.5;" x1="1803.3503" x2="1813.3503" y1="82.9429" y2="72.9429"/><line style="stroke:#0E1014;stroke-width:0.5;" x1="1694.5" x2="1803.3503" y1="82.9429" y2="82.9429"/><line style="stroke:#0E1014;stroke-width:0.5;" x1="1803.3503" x2="1803.3503" y1="82.9429" y2="131.9876"/><text fill="#F4EEE3" font-family="'Inter, Helvetica, sans-serif'" font-size="12" lengthAdjust="spacing" textLength="71.0436" x="1709.5" y="104.5676">llama-server</text><text fill="#F4EEE3" font-family="'Inter, Helvetica, sans-serif'" font-size="12" lengthAdjust="spacing" textLength="78.8503" x="1709.5" y="119.0899">(mod&#232;le chat)</text></g><!--entity LLAMA_EMBED--><g class="entity" data-qualified-name="LLAMA_EMBED" data-source-line="7" id="ent0004"><polygon fill="#1A1D24" points="1849,75.4429,1859,65.4429,2017.2297,65.4429,2017.2297,129.01,2007.2297,139.01,1849,139.01,1849,75.4429" style="stroke:#0E1014;stroke-width:0.5;stroke-linejoin:miter;stroke-miterlimit:10;"/><line style="stroke:#0E1014;stroke-width:0.5;" x1="2007.2297" x2="2017.2297" y1="75.4429" y2="65.4429"/><line style="stroke:#0E1014;stroke-width:0.5;" x1="1849" x2="2007.2297" y1="75.4429" y2="75.4429"/><line style="stroke:#0E1014;stroke-width:0.5;" x1="2007.2297" x2="2007.2297" y1="75.4429" y2="139.01"/><text fill="#F4EEE3" font-family="'Inter, Helvetica, sans-serif'" font-size="12" lengthAdjust="spacing" textLength="71.0436" x="1864" y="97.0676">llama-server</text><text fill="#F4EEE3" font-family="'Inter, Helvetica, sans-serif'" font-size="12" lengthAdjust="spacing" textLength="74.981" x="1864" y="111.5899">--embedding</text><text fill="#F4EEE3" font-family="'Inter, Helvetica, sans-serif'" font-size="12" lengthAdjust="spacing" textLength="128.2297" x="1864" y="126.1123">(embedder de routing)</text></g><!--entity PYTHON_SANDBOX--><g class="entity" data-qualified-name="PYTHON_SANDBOX" data-source-line="8" id="ent0005"><polygon fill="#1A1D24" points="1541.5,332.4429,1551.5,322.4429,1696.2471,322.4429,1696.2471,371.4876,1686.2471,381.4876,1541.5,381.4876,1541.5,332.4429" style="stroke:#0E1014;stroke-width:0.5;stroke-linejoin:miter;stroke-miterlimit:10;"/><line style="stroke:#0E1014;stroke-width:0.5;" x1="1686.2471" x2="1696.2471" y1="332.4429" y2="322.4429"/><line style="stroke:#0E1014;stroke-width:0.5;" x1="1541.5" x2="1686.2471" y1="332.4429" y2="332.4429"/><line style="stroke:#0E1014;stroke-width:0.5;" x1="1686.2471" x2="1686.2471" y1="332.4429" y2="381.4876"/><text fill="#F4EEE3" font-family="'Inter, Helvetica, sans-serif'" font-size="12" lengthAdjust="spacing" textLength="47.2659" x="1556.5" y="354.0676">python3</text><text fill="#F4EEE3" font-family="'Inter, Helvetica, sans-serif'" font-size="12" lengthAdjust="spacing" textLength="114.7471" x="1556.5" y="368.5899">(sandbox&#233;, slice 2d)</text></g><!--entity SIDECARS--><g class="entity" data-qualified-name="SIDECARS" data-source-line="9" id="ent0006"><path d="M1731.5,325.4429 C1731.5,315.4429 1776.1781,315.4429 1776.1781,315.4429 C1776.1781,315.4429 1820.8562,315.4429 1820.8562,325.4429 L1820.8562,378.01 C1820.8562,388.01 1776.1781,388.01 1776.1781,388.01 C1776.1781,388.01 1731.5,388.01 1731.5,378.01 L1731.5,325.4429" fill="#E6DFD2" style="stroke:#0E1014;stroke-width:0.5;"/><path d="M1731.5,325.4429 C1731.5,335.4429 1776.1781,335.4429 1776.1781,335.4429 C1776.1781,335.4429 1820.8562,335.4429 1820.8562,325.4429" fill="none" style="stroke:#0E1014;stroke-width:0.5;"/><text fill="#000000" font-family="'Inter, Helvetica, sans-serif'" font-size="12" lengthAdjust="spacing" textLength="69.3562" x="1741.5" y="351.0676">sidecars .ts/</text><text fill="#000000" font-family="'Inter, Helvetica, sans-serif'" font-size="12" lengthAdjust="spacing" textLength="66.9869" x="1741.5" y="365.5899">(signatures,</text><text fill="#000000" font-family="'Inter, Helvetica, sans-serif'" font-size="12" lengthAdjust="spacing" textLength="57.6633" x="1741.5" y="380.1123">autoTags)</text></g><!--entity HF--><g class="entity" data-qualified-name="HF" data-source-line="10" id="ent0007"><path d="M2054,715.9429 C2054,705.9429 2126.9302,705.9429 2126.9302,705.9429 C2126.9302,705.9429 2199.8605,705.9429 2199.8605,715.9429 L2199.8605,753.9876 C2199.8605,763.9876 2126.9302,763.9876 2126.9302,763.9876 C2126.9302,763.9876 2054,763.9876 2054,753.9876 L2054,715.9429" fill="#E6DFD2" style="stroke:#0E1014;stroke-width:0.5;"/><path d="M2054,715.9429 C2054,725.9429 2126.9302,725.9429 2126.9302,725.9429 C2126.9302,725.9429 2199.8605,725.9429 2199.8605,715.9429" fill="none" style="stroke:#0E1014;stroke-width:0.5;"/><text fill="#000000" font-family="'Inter, Helvetica, sans-serif'" font-size="12" lengthAdjust="spacing" textLength="78.5264" x="2064" y="741.5676">Hugging Face</text><text fill="#000000" font-family="'Inter, Helvetica, sans-serif'" font-size="12" lengthAdjust="spacing" textLength="125.8605" x="2064" y="756.0899">(m&#233;tadonn&#233;es seules)</text></g><g class="entity" data-qualified-name="GMN35" data-source-line="45" id="ent0036"><path d="M1488,711.9429 L1488,757.51 A4,4 0 0 0 1492,761.51 L1733.7953,761.51 A4,4 0 0 0 1737.7953,757.51 L1737.7953,717.9429 L1727.7953,707.9429 L1492,707.9429 A4,4 0 0 0 1488,711.9429" fill="#FFFDF6" style="stroke:#C68A3A;stroke-width:0.5;"/><path d="M1727.7953,707.9429 L1727.7953,715.9429 A2,2 0 0 0 1729.7953,717.9429 L1737.7953,717.9429 L1727.7953,707.9429" fill="#FFFDF6" style="stroke:#C68A3A;stroke-width:1;"/><text fill="#0E1014" font-family="'Inter, Helvetica, sans-serif'" font-size="12" lengthAdjust="spacing" textLength="228.7953" x="1494" y="724.5676">Un processus par mod&#232;le chat en cours.</text><text fill="#0E1014" font-family="'Inter, Helvetica, sans-serif'" font-size="12" lengthAdjust="spacing" textLength="205.6311" x="1494" y="739.0899">L'utilisateur ouvre son UI web native</text><text fill="#0E1014" font-family="'Inter, Helvetica, sans-serif'" font-size="12" lengthAdjust="spacing" textLength="226.2727" x="1494" y="753.6123">dans le navigateur (pas de chat in-app).</text></g><g class="entity" data-qualified-name="GMN38" data-source-line="51" id="ent0039"><path d="M1773.5,719.4429 L1773.5,750.4876 A4,4 0 0 0 1777.5,754.4876 L2014.233,754.4876 A4,4 0 0 0 2018.233,750.4876 L2018.233,725.4429 L2008.233,715.4429 L1777.5,715.4429 A4,4 0 0 0 1773.5,719.4429" fill="#FFFDF6" style="stroke:#C68A3A;stroke-width:0.5;"/><path d="M2008.233,715.4429 L2008.233,723.4429 A2,2 0 0 0 2010.233,725.4429 L2018.233,725.4429 L2008.233,715.4429" fill="#FFFDF6" style="stroke:#C68A3A;stroke-width:1;"/><text fill="#0E1014" font-family="'Inter, Helvetica, sans-serif'" font-size="12" lengthAdjust="spacing" textLength="223.733" x="1779.5" y="732.0676">Singleton &#8212; `launchedBy: 'embedder'`.</text><text fill="#0E1014" font-family="'Inter, Helvetica, sans-serif'" font-size="12" lengthAdjust="spacing" textLength="210.2674" x="1779.5" y="746.5899">R&#233;utilis&#233; entre routing + caract&#233;riser.</text></g><g class="entity" data-qualified-name="GMN41" data-source-line="56" id="ent0042"><path d="M1207,711.9429 L1207,757.51 A4,4 0 0 0 1211,761.51 L1449.1818,761.51 A4,4 0 0 0 1453.1818,757.51 L1453.1818,717.9429 L1443.1818,707.9429 L1211,707.9429 A4,4 0 0 0 1207,711.9429" fill="#FFFDF6" style="stroke:#C68A3A;stroke-width:0.5;"/><path d="M1443.1818,707.9429 L1443.1818,715.9429 A2,2 0 0 0 1445.1818,717.9429 L1453.1818,717.9429 L1443.1818,707.9429" fill="#FFFDF6" style="stroke:#C68A3A;stroke-width:1;"/><text fill="#0E1014" font-family="'Inter, Helvetica, sans-serif'" font-size="12" lengthAdjust="spacing" textLength="225.1818" x="1213" y="724.5676">Par-item, tu&#233; imm&#233;diatement apr&#232;s que</text><text fill="#0E1014" font-family="'Inter, Helvetica, sans-serif'" font-size="12" lengthAdjust="spacing" textLength="130.9739" x="1213" y="739.0899">le bloc assert retourne.</text><text fill="#0E1014" font-family="'Inter, Helvetica, sans-serif'" font-size="12" lengthAdjust="spacing" textLength="173.6717" x="1213" y="753.6123">rlimits POSIX / Job Object Win.</text></g><g class="entity" data-qualified-name="GMN44" data-source-line="62" id="ent0045"><path d="M1541.5,497.4429 L1541.5,557.5323 A4,4 0 0 0 1545.5,561.5323 L1772.7389,561.5323 A4,4 0 0 0 1776.7389,557.5323 L1776.7389,503.4429 L1766.7389,493.4429 L1545.5,493.4429 A4,4 0 0 0 1541.5,497.4429" fill="#FFFDF6" style="stroke:#C68A3A;stroke-width:0.5;"/><path d="M1766.7389,493.4429 L1766.7389,501.4429 A2,2 0 0 0 1768.7389,503.4429 L1776.7389,503.4429 L1766.7389,493.4429" fill="#FFFDF6" style="stroke:#C68A3A;stroke-width:1;"/><text fill="#0E1014" font-family="'Inter, Helvetica, sans-serif'" font-size="12" lengthAdjust="spacing" textLength="214.2389" x="1547.5" y="510.0676">Tous les clients externes se bindent &#224;</text><text fill="#0E1014" font-family="'Inter, Helvetica, sans-serif'" font-size="12" lengthAdjust="spacing" textLength="207.5913" x="1547.5" y="524.5899">127.0.0.1 &#8212; le serveur MCP n'&#233;coute</text><text fill="#0E1014" font-family="'Inter, Helvetica, sans-serif'" font-size="12" lengthAdjust="spacing" textLength="210.2674" x="1547.5" y="539.1123">JAMAIS sur 0.0.0.0. M&#234;me les clients</text><text fill="#0E1014" font-family="'Inter, Helvetica, sans-serif'" font-size="12" lengthAdjust="spacing" textLength="183.4726" x="1547.5" y="553.6347">cross-machine doivent tunneler.</text></g><!--link USER to R--><g class="link" data-entity-1="ent0001" data-entity-2="ent0010" data-link-type="dependency" data-source-line="32" id="lnk25"><path d="M791,139.9629 C791,189.5829 791,272.2629 791,317.3729" fill="none" id="USER-to-R" style="stroke:#1A1D24;stroke-width:1;"/><polygon fill="#1A1D24" points="791,322.3729,795,313.3729,791,317.3729,787,313.3729,791,322.3729" style="stroke:#1A1D24;stroke-width:1;stroke-linejoin:miter;stroke-miterlimit:10;"/><text fill="#000000" font-family="'Inter, Helvetica, sans-serif'" font-size="12" lengthAdjust="spacing" textLength="82.3104" x="792" y="204.0676">clavier / souris</text></g><!--link M to P_CHAT--><g class="link" data-entity-1="ent0011" data-entity-2="ent0013" data-link-type="dependency" data-source-line="33" id="lnk26"><path d="M732.24,531.3229 C646.3,538.1229 493.39,560.9029 390,636.9429 C367.83,653.2529 351.3908,673.3677 337.6808,693.5377" fill="none" id="M-to-P_CHAT" style="stroke:#1A1D24;stroke-width:1;"/><polygon fill="#1A1D24" points="334.87,697.6729,343.2375,692.4782,337.6808,693.5377,336.6212,687.981,334.87,697.6729" style="stroke:#1A1D24;stroke-width:1;stroke-linejoin:miter;stroke-miterlimit:10;"/><text fill="#000000" font-family="'Inter, Helvetica, sans-serif'" font-size="12" lengthAdjust="spacing" textLength="73.2595" x="449" y="618.0676">spawn / stop</text></g><!--link M to P_EMB--><g class="link" data-entity-1="ent0011" data-entity-2="ent0014" data-link-type="dependency" data-source-line="34" id="lnk27"><path d="M732.5,549.5829 C683,567.7929 614.63,597.3929 563,636.9429 C539.44,654.9929 519.1451,674.6797 500.9351,693.9397" fill="none" id="M-to-P_EMB" style="stroke:#1A1D24;stroke-width:1;"/><polygon fill="#1A1D24" points="497.5,697.5729,506.5897,693.7812,500.9351,693.9397,500.7767,688.2851,497.5,697.5729" style="stroke:#1A1D24;stroke-width:1;stroke-linejoin:miter;stroke-miterlimit:10;"/><text fill="#000000" font-family="'Inter, Helvetica, sans-serif'" font-size="12" lengthAdjust="spacing" textLength="73.2595" x="623" y="610.5676">spawn / stop</text><text fill="#000000" font-family="'Inter, Helvetica, sans-serif'" font-size="12" lengthAdjust="spacing" textLength="51.5612" x="633.8492" y="625.0899">(slice 7e)</text></g><!--link M to P_PY--><g class="link" data-entity-1="ent0011" data-entity-2="ent0015" data-link-type="dependency" data-source-line="35" id="lnk28"><path d="M732.33,529.9429 C636.56,533.8529 452.44,547.8729 305,597.9429 C248.86,617.0129 201.4003,660.6586 170.7103,694.1086" fill="none" id="M-to-P_PY" style="stroke:#1A1D24;stroke-width:1;"/><polygon fill="#1A1D24" points="167.33,697.7929,176.3619,693.8654,170.7103,694.1086,170.4671,688.457,167.33,697.7929" style="stroke:#1A1D24;stroke-width:1;stroke-linejoin:miter;stroke-miterlimit:10;"/><text fill="#000000" font-family="'Inter, Helvetica, sans-serif'" font-size="12" lengthAdjust="spacing" textLength="63.22" x="321.0848" y="610.5676">spawn / kill</text><text fill="#000000" font-family="'Inter, Helvetica, sans-serif'" font-size="12" lengthAdjust="spacing" textLength="93.3896" x="306" y="625.0899">(slice 2d, opt-in)</text></g><!--link M to SC--><g class="link" data-entity-1="ent0011" data-entity-2="ent0018" data-link-type="dependency" data-source-line="36" id="lnk29"><path d="M810.77,557.0129 C828.99,594.8429 858.8798,668.2281 878.0598,708.0381" fill="none" id="M-to-SC" style="stroke:#1A1D24;stroke-width:1;"/><polygon fill="#1A1D24" points="880.23,712.5426,879.9272,702.6984,878.0598,708.0381,872.7201,706.1707,880.23,712.5426" style="stroke:#1A1D24;stroke-width:1;stroke-linejoin:miter;stroke-miterlimit:10;"/><text fill="#000000" font-family="'Inter, Helvetica, sans-serif'" font-size="12" lengthAdjust="spacing" textLength="90.8329" x="844" y="618.0676">lit/&#233;crit sidecars</text></g><!--link M to MODELS--><g class="link" data-entity-1="ent0011" data-entity-2="ent0017" data-link-type="dependency" data-source-line="37" id="lnk30"><path d="M761.5,556.9729 C749.07,568.5429 735.98,582.7629 727,597.9429 C707.87,630.2929 698.5427,688.6296 693.4427,717.3996" fill="none" id="M-to-MODELS" style="stroke:#1A1D24;stroke-width:1;"/><polygon fill="#1A1D24" points="692.57,722.3229,698.0795,714.1592,693.4427,717.3996,690.2023,712.7629,692.57,722.3229" style="stroke:#1A1D24;stroke-width:1;stroke-linejoin:miter;stroke-miterlimit:10;"/><text fill="#000000" font-family="'Inter, Helvetica, sans-serif'" font-size="12" lengthAdjust="spacing" textLength="94.3101" x="728" y="618.0676">liste les mod&#232;les</text></g><!--link M to APP_DATA--><g class="link" data-entity-1="ent0011" data-entity-2="ent0019" data-link-type="dependency" data-source-line="38" id="lnk31"><path d="M861.61,553.1329 C888.06,564.7529 918.21,580.0129 943,597.9429 C984.16,627.7029 1020.1141,682.599 1044.4841,712.389" fill="none" id="M-to-APP_DATA" style="stroke:#1A1D24;stroke-width:1;"/><polygon fill="#1A1D24" points="1047.65,716.259,1045.0474,706.7603,1044.4841,712.389,1038.8554,711.8257,1047.65,716.259" style="stroke:#1A1D24;stroke-width:1;stroke-linejoin:miter;stroke-miterlimit:10;"/><text fill="#000000" font-family="'Inter, Helvetica, sans-serif'" font-size="12" lengthAdjust="spacing" textLength="96.7987" x="979" y="618.0676">log + param&#232;tres</text></g><!--link M to HF--><g class="link" data-entity-1="ent0011" data-entity-2="ent0007" data-link-type="dependency" data-source-line="39" id="lnk32"><path d="M861.51,538.8629 C948.56,552.5629 1108.58,576.4629 1246,589.9429 C1421.03,607.1129 1876.76,562.2929 2036,636.9429 C2067.57,651.7429 2090.7055,678.7278 2106.7055,701.7378" fill="none" id="M-to-HF" style="stroke:#1A1D24;stroke-width:1;"/><polygon fill="#1A1D24" points="2109.56,705.8429,2107.706,696.1701,2106.7055,701.7378,2101.1378,700.7373,2109.56,705.8429" style="stroke:#1A1D24;stroke-width:1;stroke-linejoin:miter;stroke-miterlimit:10;"/><text fill="#000000" font-family="'Inter, Helvetica, sans-serif'" font-size="12" lengthAdjust="spacing" textLength="44.1978" x="2030.1133" y="610.5676">hf.fetch</text><text fill="#000000" font-family="'Inter, Helvetica, sans-serif'" font-size="12" lengthAdjust="spacing" textLength="72.4243" x="2016" y="625.0899">(via internet)</text></g><!--link EXT_CLIENTS to M--><g class="link" data-entity-1="ent0020" data-entity-2="ent0011" data-link-type="association" data-source-line="41" id="lnk33"><path d="M1222.9264,356.1698 C1222.7374,356.2453 1222.5454,356.3221 1222.3502,356.4001 C1221.9599,356.5562 1221.5572,356.7172 1221.1424,356.8831 C1220.3126,357.2148 1219.4341,357.5661 1218.5082,357.9363 C1211.1012,360.8978 1200.6617,365.0715 1187.9022,370.1726 C1162.3831,380.3748 1127.5838,394.2866 1089.2025,409.6304 C1012.44,440.3179 921.35,476.7329 861.52,500.6529" fill="none" id="EXT_CLIENTS-M" style="stroke:#1A1D24;stroke-width:1;"/><text fill="#000000" font-family="'Inter, Helvetica, sans-serif'" font-size="12" lengthAdjust="spacing" textLength="62.2995" x="1078.5196" y="431.0676">HTTP+SSE</text><text fill="#000000" font-family="'Inter, Helvetica, sans-serif'" font-size="12" lengthAdjust="spacing" textLength="87.3387" x="1066" y="445.5899">127.0.0.1:41541</text><text fill="#000000" font-family="'Inter, Helvetica, sans-serif'" font-size="12" lengthAdjust="spacing" textLength="72.9186" x="1073.21" y="460.1123">Bearer token</text></g><!--link R to M--><g class="link" data-entity-1="ent0010" data-entity-2="ent0011" data-link-type="association" data-source-line="42" id="lnk34"><path d="M791.99,381.5929 C793.1,413.7429 794.9,465.5829 796.01,497.7529" fill="none" id="R-M" style="stroke:#1A1D24;stroke-width:1;"/><text fill="#000000" font-family="'Inter, Helvetica, sans-serif'" font-size="12" lengthAdjust="spacing" textLength="69.6119" x="795" y="445.5676">IPC Electron</text></g><!--link P_CHAT to GMN35--><g class="link" data-entity-1="ent0013" data-entity-2="ent0036" data-link-type="association" data-source-line="45" id="lnk37"><path d="M330.14,697.8829 C345.76,668.9729 371.85,630.8729 407.5,613.4429 C459.7,587.9129 1398.44,594.8629 1453.5,613.4429 C1508.58,632.0329 1559.67,678.0729 1588.54,707.8429" fill="none" id="P_CHAT-GMN35" style="stroke:#1A1D24;stroke-width:1;stroke-dasharray:7,7;"/></g><!--link P_EMB to GMN38--><g class="link" data-entity-1="ent0014" data-entity-2="ent0039" data-link-type="association" data-source-line="51" id="lnk40"><path d="M487.98,697.6829 C508.28,668.6429 540.78,630.4829 580.5,613.4429 C639.62,588.0729 1677.61,592.6829 1738.5,613.4429 C1797.99,633.7229 1852.5,686.5729 1879.04,715.4429" fill="none" id="P_EMB-GMN38" style="stroke:#1A1D24;stroke-width:1;stroke-dasharray:7,7;"/></g><!--link P_PY to GMN41--><g class="link" data-entity-1="ent0015" data-entity-2="ent0042" data-link-type="association" data-source-line="56" id="lnk43"><path d="M160.26,697.6729 C180.77,668.6229 213.58,630.4729 253.5,613.4429 C299.29,593.9129 1101.89,598.9129 1149.5,613.4429 C1209.84,631.8629 1268.26,677.9529 1301.6,707.7729" fill="none" id="P_PY-GMN41" style="stroke:#1A1D24;stroke-width:1;stroke-dasharray:7,7;"/></g><!--link EXT_CLIENTS to GMN44--><g class="link" data-entity-1="ent0020" data-entity-2="ent0045" data-link-type="association" data-source-line="62" id="lnk46"><path d="M1517.0669,492.367 C1517.5009,492.4815 1517.9346,492.5956 1518.3677,492.7096 C1519.2341,492.9376 1520.0986,493.1646 1520.9613,493.3908 C1527.8627,495.2001 1534.6438,496.9523 1541.27,498.6429" fill="none" id="EXT_CLIENTS-GMN44" style="stroke:#1A1D24;stroke-width:1;stroke-dasharray:7,7;"/></g><?plantuml-src VLLTRjj647xdAIP-SOIOb9saIA270ZAjm38iYn1bD044A2jo96sot6LtbxAD8aKFqGFqqUerU9EUfBFyaIKRBVGWWlFDxCnyttvynMKYYXHXtZoOhh4F0WDUPC9xzJBA4gkqgSEUvLOWZ1WQgpc3V_xu4tAj4ZIcCA0BQNc6W1PofQtnFAcerD689Mik4UXP71UM2swOnK8V0JDmEOwdy9i7q6BhqW7U8tGXIBEL--ld-J1ZAvp9rmE1YTLALeTdZ4ju0nfbYXfrfoevwW_YwMJOhye292hBbKHfuMZIuAZCxH0cIBFLAPFdo6WtbJk2y3VKNl3DD2SG_8UtQpfMXV6Vzg1oovMKA0pbcPpToN9h86TwjxWJY8ON1b0kcRG6h6O9GUhQyUrvt7HULnU2PSmtg3TLuvbAoqSY8Lapsvb9jsdeiSAgAZkQXvVzwNzc-pvc2qnJBbTDwiVJZsTDvc1qlfUOFzYrakze-_MJOyJDmsIwKFVbzcH6O-NhSfkLZnghyRZ5hDCKYxwqEqgPPGjct9uUZ2qViqe9IqwYG6tWG13rt4ibY2OukkZDPZIkM-Hi9bK1gJA6abn-iuPd-OwRySNWEZweOtYA2QEp0ckwCtaLZs-gVfiQzTh3WvJVku5bAoAFEAMKBCa3eLOaDSfZDB7LQAgyVXJDB_hJVZNjZrRoeU3ec1s54U2zHItHYU598uPsn_IEzC7dwJoy7WvkfZNtUqeC1NCNCgIw5JISX-4pHA6DqctmTd8OJH6rlnJghW5SV3gC4pLh8Zafj6WGyQKRv3OUJC3tVuO9z20HRECMtmMZ2isDDwf2jTeeNgdSHQtATp7IqxEGqu_W2S87xEnWqPSzr7Skn0xrDZrnbyddiaN78M45jzrocsXkeMMs2TVSLn1ZoMr87grE6aHBbyCyvxE1N7wYu7ePBD4cQ-fbGqR7PSMXxNZUFbM-3oC2NqwdqPiu7ipasTiFmIdzpdhlptvwVpQJvyZ8Ry2gxoYzIPimZ49eVSn9XdhLVBMse9PFD_XMxddhdbohcq_UGIGIyG4Xh_TT5LIneVjeo279u-vm0P9Pli7g9af3Iw4N6xwgmQzpeZnjQdBfippl11xP9BYkNlPMUqHC_Y7GDYRybHGgapMcvmyzEAuD1lNnLzVQfDpMlPLRQfcs35hH2-bMJyIH0PTRqXFg_pkqyfA8QTyPp0dOWehnB2ktAQSfCYTZbkloqS2lXPkJHbm8bP2QgR2bhuEbJKbq_MZ1CquNCnh7my-ajokrWF7Y6r41lt3veec5ibPbheizsgdCb1o_abVINFJsaWFvt8BJLuPwAlyYv4uHrQgeiygAQVFE6kGnwPZsuPg-we_wmnWCXKw3-WUZykyCzyznLrUJ2VfP-qrLH2sTPGltmJbOuxy0?></g></svg>