<svg xmlns="http://www.w3.org/2000/svg" xmlns:xlink="http://www.w3.org/1999/xlink" contentStyleType="text/css" data-diagram-type="DESCRIPTION" height="836px" preserveAspectRatio="none" style="width:2042px;height:836px;background:#F4EEE3;" version="1.1" viewBox="0 0 2042 836" width="2042px" zoomAndPan="magnify"><?plantuml 1.2026.4?><defs/><g><rect fill="#F4EEE3" height="836" style="stroke:none;stroke-width:1;" width="2042" x="0" y="0"/><g class="title" data-source-line="4"><text fill="#000000" font-family="'Inter, Helvetica, sans-serif'" font-size="14" font-weight="700" lengthAdjust="spacing" textLength="271.1859" x="882.0219" y="23.5623">Maestria &#8212; processus runtime et ports</text></g><!--cluster HOST--><g class="cluster" data-qualified-name="HOST" data-source-line="6" id="ent0007"><polygon fill="#1A1D24" points="16,233.4429,26,223.4429,1191,223.4429,1191,801.9429,1181,811.9429,16,811.9429,16,233.4429" style="stroke:#0E1014;stroke-width:1;stroke-linejoin:miter;stroke-miterlimit:10;"/><line style="stroke:#0E1014;stroke-width:1;" x1="1181" x2="1191" y1="233.4429" y2="223.4429"/><line style="stroke:#0E1014;stroke-width:1;" x1="16" x2="1181" y1="233.4429" y2="233.4429"/><line style="stroke:#0E1014;stroke-width:1;" x1="1181" x2="1181" y1="233.4429" y2="811.9429"/><text fill="#F4EEE3" font-family="'Inter, Helvetica, sans-serif'" font-size="12" font-weight="700" lengthAdjust="spacing" textLength="138.7296" x="530.1352" y="248.0676">Machine de l'utilisateur</text></g><!--cluster MAESTRIA--><g class="cluster" data-qualified-name="HOST.MAESTRIA" data-source-line="7" id="ent0008"><polygon fill="#1A1D24" points="553,279.4429,563,269.4429,823,269.4429,823,562.9429,813,572.9429,553,572.9429,553,279.4429" style="stroke:#0E1014;stroke-width:1;stroke-linejoin:miter;stroke-miterlimit:10;"/><line style="stroke:#0E1014;stroke-width:1;" x1="813" x2="823" y1="279.4429" y2="269.4429"/><line style="stroke:#0E1014;stroke-width:1;" x1="553" x2="813" y1="279.4429" y2="279.4429"/><line style="stroke:#0E1014;stroke-width:1;" x1="813" x2="813" y1="279.4429" y2="572.9429"/><text fill="#F4EEE3" font-family="'Inter, Helvetica, sans-serif'" font-size="12" font-weight="700" lengthAdjust="spacing" textLength="194.2965" x="586.8518" y="294.0676">Maestria.exe / .dmg / .AppImage</text><text fill="#F4EEE3" font-family="'Inter, Helvetica, sans-serif'" font-size="12" font-weight="700" lengthAdjust="spacing" textLength="173.7231" x="597.1385" y="308.5899">(Electron &#8212; main + renderer)</text></g><!--cluster SUBS--><g class="cluster" data-qualified-name="HOST.SUBS" data-source-line="12" id="ent0011"><polygon fill="#1A1D24" points="40,654.9429,50,644.9429,539,644.9429,539,777.9429,529,787.9429,40,787.9429,40,654.9429" style="stroke:#0E1014;stroke-width:1;stroke-linejoin:miter;stroke-miterlimit:10;"/><line style="stroke:#0E1014;stroke-width:1;" x1="529" x2="539" y1="654.9429" y2="644.9429"/><line style="stroke:#0E1014;stroke-width:1;" x1="40" x2="529" y1="654.9429" y2="654.9429"/><line style="stroke:#0E1014;stroke-width:1;" x1="529" x2="529" y1="654.9429" y2="787.9429"/><text fill="#F4EEE3" font-family="'Inter, Helvetica, sans-serif'" font-size="12" font-weight="700" lengthAdjust="spacing" textLength="163.3597" x="203.8201" y="669.5676">Sous-processus optionnels</text><text fill="#F4EEE3" font-family="'Inter, Helvetica, sans-serif'" font-size="12" font-weight="700" lengthAdjust="spacing" textLength="265.255" x="152.8725" y="684.0899">(spawn&#233;s par Maestria, PIDs enfants trac&#233;s)</text></g><!--cluster Syst?me de fichiers utilisateur--><g class="cluster" data-qualified-name="HOST.Syst.me de fichiers utilisateur" data-source-line="18" id="ent0015"><path d="M563,663.4429 C563,653.4429 865,653.4429 865,653.4429 C865,653.4429 1167,653.4429 1167,663.4429 L1167,774.4429 C1167,784.4429 865,784.4429 865,784.4429 C865,784.4429 563,784.4429 563,774.4429 L563,663.4429" fill="#E6DFD2" style="stroke:#C68A3A;stroke-width:1;"/><path d="M563,663.4429 C563,673.4429 865,673.4429 865,673.4429 C865,673.4429 1167,673.4429 1167,663.4429" fill="none" style="stroke:#C68A3A;stroke-width:1;"/><text fill="#000000" font-family="'Inter, Helvetica, sans-serif'" font-size="12" font-weight="700" lengthAdjust="spacing" textLength="181.6831" x="774.1584" y="687.0676">Syst&#232;me de fichiers utilisateur</text></g><!--cluster EXT_CLIENTS--><g class="cluster" data-qualified-name="EXT_CLIENTS" data-source-line="25" id="ent0019"><polygon fill="#1A1D24" points="1223,278.4429,1233,268.4429,1517,268.4429,1517,563.9429,1507,573.9429,1223,573.9429,1223,278.4429" style="stroke:#0E1014;stroke-width:1;stroke-linejoin:miter;stroke-miterlimit:10;"/><line style="stroke:#0E1014;stroke-width:1;" x1="1507" x2="1517" y1="278.4429" y2="268.4429"/><line style="stroke:#0E1014;stroke-width:1;" x1="1223" x2="1507" y1="278.4429" y2="278.4429"/><line style="stroke:#0E1014;stroke-width:1;" x1="1507" x2="1507" y1="278.4429" y2="573.9429"/><text fill="#F4EEE3" font-family="'Inter, Helvetica, sans-serif'" font-size="12" font-weight="700" lengthAdjust="spacing" textLength="129.1503" x="1301.4249" y="293.0676">Clients MCP externes</text><text fill="#F4EEE3" font-family="'Inter, Helvetica, sans-serif'" font-size="12" font-weight="700" lengthAdjust="spacing" textLength="122.2982" x="1304.8509" y="307.5899">(processus s&#233;par&#233;s)</text></g><!--entity R--><g class="entity" data-qualified-name="HOST.MAESTRIA.R" data-source-line="8" id="ent0009"><rect fill="#FFFFFF" height="59.0447" rx="4" ry="4" style="stroke:#0E1014;stroke-width:0.5;" width="96.6236" x="633.5" y="322.4429"/><rect fill="#FFFFFF" height="10" style="stroke:#0E1014;stroke-width:0.5;" width="15" x="710.1236" y="327.4429"/><rect fill="#FFFFFF" height="2" style="stroke:#0E1014;stroke-width:0.5;" width="4" x="708.1236" y="329.4429"/><rect fill="#FFFFFF" height="2" style="stroke:#0E1014;stroke-width:0.5;" width="4" x="708.1236" y="333.4429"/><text fill="#0E1014" font-family="'Inter, Helvetica, sans-serif'" font-size="12" lengthAdjust="spacing" textLength="52.0385" x="648.5" y="354.0676">Renderer</text><text fill="#0E1014" font-family="'Inter, Helvetica, sans-serif'" font-size="12" lengthAdjust="spacing" textLength="56.6236" x="648.5" y="368.5899">(UI React)</text></g><!--entity M--><g class="entity" data-qualified-name="HOST.MAESTRIA.M" data-source-line="9" id="ent0010"><rect fill="#FFFFFF" height="59.0447" rx="4" ry="4" style="stroke:#0E1014;stroke-width:0.5;" width="129.1625" x="623.5" y="497.9429"/><rect fill="#FFFFFF" height="10" style="stroke:#0E1014;stroke-width:0.5;" width="15" x="732.6625" y="502.9429"/><rect fill="#FFFFFF" height="2" style="stroke:#0E1014;stroke-width:0.5;" width="4" x="730.6625" y="504.9429"/><rect fill="#FFFFFF" height="2" style="stroke:#0E1014;stroke-width:0.5;" width="4" x="730.6625" y="508.9429"/><text fill="#0E1014" font-family="'Inter, Helvetica, sans-serif'" font-size="12" lengthAdjust="spacing" textLength="89.1625" x="638.5" y="529.5676">Processus main</text><text fill="#0E1014" font-family="'Inter, Helvetica, sans-serif'" font-size="12" lengthAdjust="spacing" textLength="51.7487" x="638.5" y="544.0899">(Node.js)</text></g><!--entity P_CHAT--><g class="entity" data-qualified-name="HOST.SUBS.P_CHAT" data-source-line="13" id="ent0012"><polygon fill="#1A1D24" points="56.5,707.9429,66.5,697.9429,175.3503,697.9429,175.3503,761.51,165.3503,771.51,56.5,771.51,56.5,707.9429" style="stroke:#0E1014;stroke-width:0.5;stroke-linejoin:miter;stroke-miterlimit:10;"/><line style="stroke:#0E1014;stroke-width:0.5;" x1="165.3503" x2="175.3503" y1="707.9429" y2="697.9429"/><line style="stroke:#0E1014;stroke-width:0.5;" x1="56.5" x2="165.3503" y1="707.9429" y2="707.9429"/><line style="stroke:#0E1014;stroke-width:0.5;" x1="165.3503" x2="165.3503" y1="707.9429" y2="771.51"/><text fill="#F4EEE3" font-family="'Inter, Helvetica, sans-serif'" font-size="12" lengthAdjust="spacing" textLength="71.0436" x="71.5" y="729.5676">llama-server</text><text fill="#F4EEE3" font-family="'Inter, Helvetica, sans-serif'" font-size="12" lengthAdjust="spacing" textLength="78.8503" x="71.5" y="744.0899">(mod&#232;le chat)</text><text fill="#F4EEE3" font-family="'Inter, Helvetica, sans-serif'" font-size="12" lengthAdjust="spacing" textLength="55.2429" x="71.5" y="758.6123">port :auto</text></g><!--entity P_EMB--><g class="entity" data-qualified-name="HOST.SUBS.P_EMB" data-source-line="14" id="ent0013"><polygon fill="#1A1D24" points="210.5,707.9429,220.5,697.9429,325.481,697.9429,325.481,761.51,315.481,771.51,210.5,771.51,210.5,707.9429" style="stroke:#0E1014;stroke-width:0.5;stroke-linejoin:miter;stroke-miterlimit:10;"/><line style="stroke:#0E1014;stroke-width:0.5;" x1="315.481" x2="325.481" y1="707.9429" y2="697.9429"/><line style="stroke:#0E1014;stroke-width:0.5;" x1="210.5" x2="315.481" y1="707.9429" y2="707.9429"/><line style="stroke:#0E1014;stroke-width:0.5;" x1="315.481" x2="315.481" y1="707.9429" y2="771.51"/><text fill="#F4EEE3" font-family="'Inter, Helvetica, sans-serif'" font-size="12" lengthAdjust="spacing" textLength="71.0436" x="225.5" y="729.5676">llama-server</text><text fill="#F4EEE3" font-family="'Inter, Helvetica, sans-serif'" font-size="12" lengthAdjust="spacing" textLength="74.981" x="225.5" y="744.0899">--embedding</text><text fill="#F4EEE3" font-family="'Inter, Helvetica, sans-serif'" font-size="12" lengthAdjust="spacing" textLength="54.5441" x="225.5" y="758.6123">port 8081</text></g><!--entity P_PY--><g class="entity" data-qualified-name="HOST.SUBS.P_PY" data-source-line="15" id="ent0014"><polygon fill="#1A1D24" points="361,707.9429,371,697.9429,522.6844,697.9429,522.6844,761.51,512.6844,771.51,361,771.51,361,707.9429" style="stroke:#0E1014;stroke-width:0.5;stroke-linejoin:miter;stroke-miterlimit:10;"/><line style="stroke:#0E1014;stroke-width:0.5;" x1="512.6844" x2="522.6844" y1="707.9429" y2="697.9429"/><line style="stroke:#0E1014;stroke-width:0.5;" x1="361" x2="512.6844" y1="707.9429" y2="707.9429"/><line style="stroke:#0E1014;stroke-width:0.5;" x1="512.6844" x2="512.6844" y1="707.9429" y2="771.51"/><text fill="#F4EEE3" font-family="'Inter, Helvetica, sans-serif'" font-size="12" lengthAdjust="spacing" textLength="121.6844" x="376" y="729.5676">python3 / python.exe</text><text fill="#F4EEE3" font-family="'Inter, Helvetica, sans-serif'" font-size="12" lengthAdjust="spacing" textLength="63.2882" x="376" y="744.0899">(sandbox&#233;,</text><text fill="#F4EEE3" font-family="'Inter, Helvetica, sans-serif'" font-size="12" lengthAdjust="spacing" textLength="111.5256" x="376" y="758.6123">&#233;ph&#233;m&#232;re par item)</text></g><!--entity MODELS--><g class="entity" data-qualified-name="HOST.Syst.me de fichiers utilisateur.MODELS" data-source-line="19" id="ent0016"><path d="M583.5,701.4429 L621.5,701.4429 A6,6 0 0 1 625.5,705.4429 L632.5,722.4429 L792.8588,722.4429 A4,4 0 0 1 796.8588,726.4429 L796.8588,764.4876 A4,4 0 0 1 792.8588,768.4876 L583.5,768.4876 A4,4 0 0 1 579.5,764.4876 L579.5,705.4429 A4,4 0 0 1 583.5,701.4429" fill="#F1F1F1" style="stroke:#181818;stroke-width:0.5;"/><line style="stroke:#181818;stroke-width:0.5;" x1="579.5" x2="632.5" y1="722.4429" y2="722.4429"/><text fill="#000000" font-family="'Inter, Helvetica, sans-serif'" font-size="12" lengthAdjust="spacing" textLength="61.6348" x="589.5" y="741.0676">D:\models\</text><text fill="#000000" font-family="'Inter, Helvetica, sans-serif'" font-size="12" lengthAdjust="spacing" textLength="187.3588" x="589.5" y="755.5899">ou dossier de mod&#232;les utilisateur</text></g><!--entity SC--><g class="entity" data-qualified-name="HOST.Syst.me de fichiers utilisateur.SC" data-source-line="20" id="ent0017"><path d="M835.5,701.4429 L873.5,701.4429 A6,6 0 0 1 877.5,705.4429 L884.5,722.4429 L956.9918,722.4429 A4,4 0 0 1 960.9918,726.4429 L960.9918,764.4876 A4,4 0 0 1 956.9918,768.4876 L835.5,768.4876 A4,4 0 0 1 831.5,764.4876 L831.5,705.4429 A4,4 0 0 1 835.5,701.4429" fill="#F1F1F1" style="stroke:#181818;stroke-width:0.5;"/><line style="stroke:#181818;stroke-width:0.5;" x1="831.5" x2="884.5" y1="722.4429" y2="722.4429"/><text fill="#000000" font-family="'Inter, Helvetica, sans-serif'" font-size="12" lengthAdjust="spacing" textLength="69.3562" x="841.5" y="741.0676">sidecars .ts/</text><text fill="#000000" font-family="'Inter, Helvetica, sans-serif'" font-size="12" lengthAdjust="spacing" textLength="99.4918" x="841.5" y="755.5899">JSON par mod&#232;le</text></g><!--entity APP_DATA--><g class="entity" data-qualified-name="HOST.Syst.me de fichiers utilisateur.APP_DATA" data-source-line="21" id="ent0018"><path d="M999.5,701.4429 L1037.5,701.4429 A6,6 0 0 1 1041.5,705.4429 L1048.5,722.4429 L1146.048,722.4429 A4,4 0 0 1 1150.048,726.4429 L1150.048,764.4876 A4,4 0 0 1 1146.048,768.4876 L999.5,768.4876 A4,4 0 0 1 995.5,764.4876 L995.5,705.4429 A4,4 0 0 1 999.5,701.4429" fill="#F1F1F1" style="stroke:#181818;stroke-width:0.5;"/><line style="stroke:#181818;stroke-width:0.5;" x1="995.5" x2="1048.5" y1="722.4429" y2="722.4429"/><text fill="#000000" font-family="'Inter, Helvetica, sans-serif'" font-size="12" lengthAdjust="spacing" textLength="70.6176" x="1005.5" y="741.0676">/.tagspaces/</text><text fill="#000000" font-family="'Inter, Helvetica, sans-serif'" font-size="12" lengthAdjust="spacing" textLength="124.548" x="1005.5" y="755.5899">mcp.log + param&#232;tres</text></g><!--entity C_CC--><g class="entity" data-qualified-name="EXT_CLIENTS.C_CC" data-source-line="26" id="ent0020"><rect fill="#FFFFFF" height="44.5224" rx="4" ry="4" style="stroke:#0E1014;stroke-width:0.5;" width="113.447" x="1266.5" y="329.4429"/><rect fill="#FFFFFF" height="10" style="stroke:#0E1014;stroke-width:0.5;" width="15" x="1359.947" y="334.4429"/><rect fill="#FFFFFF" height="2" style="stroke:#0E1014;stroke-width:0.5;" width="4" x="1357.947" y="336.4429"/><rect fill="#FFFFFF" height="2" style="stroke:#0E1014;stroke-width:0.5;" width="4" x="1357.947" y="340.4429"/><text fill="#0E1014" font-family="'Inter, Helvetica, sans-serif'" font-size="12" lengthAdjust="spacing" textLength="73.447" x="1281.5" y="361.0676">Claude Code</text></g><!--entity C_CUR--><g class="entity" data-qualified-name="EXT_CLIENTS.C_CUR" data-source-line="27" id="ent0021"><rect fill="#FFFFFF" height="44.5224" rx="4" ry="4" style="stroke:#0E1014;stroke-width:0.5;" width="78.0615" x="1415" y="329.4429"/><rect fill="#FFFFFF" height="10" style="stroke:#0E1014;stroke-width:0.5;" width="15" x="1473.0615" y="334.4429"/><rect fill="#FFFFFF" height="2" style="stroke:#0E1014;stroke-width:0.5;" width="4" x="1471.0615" y="336.4429"/><rect fill="#FFFFFF" height="2" style="stroke:#0E1014;stroke-width:0.5;" width="4" x="1471.0615" y="340.4429"/><text fill="#0E1014" font-family="'Inter, Helvetica, sans-serif'" font-size="12" lengthAdjust="spacing" textLength="38.0615" x="1430" y="361.0676">Cursor</text></g><!--entity C_DF--><g class="entity" data-qualified-name="EXT_CLIENTS.C_DF" data-source-line="28" id="ent0022"><rect fill="#FFFFFF" height="44.5224" rx="4" ry="4" style="stroke:#0E1014;stroke-width:0.5;" width="95.4986" x="1262.5" y="504.9429"/><rect fill="#FFFFFF" height="10" style="stroke:#0E1014;stroke-width:0.5;" width="15" x="1337.9986" y="509.9429"/><rect fill="#FFFFFF" height="2" style="stroke:#0E1014;stroke-width:0.5;" width="4" x="1335.9986" y="511.9429"/><rect fill="#FFFFFF" height="2" style="stroke:#0E1014;stroke-width:0.5;" width="4" x="1335.9986" y="515.9429"/><text fill="#0E1014" font-family="'Inter, Helvetica, sans-serif'" font-size="12" lengthAdjust="spacing" textLength="55.4986" x="1277.5" y="536.5676">deer-flow</text></g><!--entity C_SH--><g class="entity" data-qualified-name="EXT_CLIENTS.C_SH" data-source-line="29" id="ent0023"><rect fill="#FFFFFF" height="44.5224" rx="4" ry="4" style="stroke:#0E1014;stroke-width:0.5;" width="99.5894" x="1393" y="504.9429"/><rect fill="#FFFFFF" height="10" style="stroke:#0E1014;stroke-width:0.5;" width="15" x="1472.5894" y="509.9429"/><rect fill="#FFFFFF" height="2" style="stroke:#0E1014;stroke-width:0.5;" width="4" x="1470.5894" y="511.9429"/><rect fill="#FFFFFF" height="2" style="stroke:#0E1014;stroke-width:0.5;" width="4" x="1470.5894" y="515.9429"/><text fill="#0E1014" font-family="'Inter, Helvetica, sans-serif'" font-size="12" lengthAdjust="spacing" textLength="59.5894" x="1408" y="536.5676">bash / curl</text></g><!--entity USER--><g class="entity" data-qualified-name="USER" data-source-line="4" id="ent0001"><ellipse cx="681.8146" cy="73.4429" fill="#FFFFFF" rx="8" ry="8" style="stroke:#0E1014;stroke-width:0.5;"/><path d="M681.8146,81.4429 L681.8146,108.4429 M668.8146,89.4429 L694.8146,89.4429 M681.8146,108.4429 L668.8146,123.4429 M681.8146,108.4429 L694.8146,123.4429" fill="none" style="stroke:#0E1014;stroke-width:0.5;"/><text fill="#000000" font-family="'Inter, Helvetica, sans-serif'" font-size="12" lengthAdjust="spacing" textLength="57.6292" x="653" y="136.5676">Utilisateur</text></g><!--entity MCP_CLIENT--><g class="entity" data-qualified-name="MCP_CLIENT" data-source-line="5" id="ent0002"><ellipse cx="1619.0757" cy="51.9429" fill="#FFFFFF" rx="8" ry="8" style="stroke:#0E1014;stroke-width:0.5;"/><path d="M1619.0757,59.9429 L1619.0757,86.9429 M1606.0757,67.9429 L1632.0757,67.9429 M1619.0757,86.9429 L1606.0757,101.9429 M1619.0757,86.9429 L1632.0757,101.9429" fill="none" style="stroke:#0E1014;stroke-width:0.5;"/><text fill="#000000" font-family="'Inter, Helvetica, sans-serif'" font-size="12" lengthAdjust="spacing" textLength="63.1859" x="1578.5" y="115.0676">Client MCP</text><text fill="#000000" font-family="'Inter, Helvetica, sans-serif'" font-size="12" lengthAdjust="spacing" textLength="81.1513" x="1578.5" y="129.5899">(Claude Code,</text><text fill="#000000" font-family="'Inter, Helvetica, sans-serif'" font-size="12" lengthAdjust="spacing" textLength="41.4194" x="1578.5" y="144.1123">Cursor,</text><text fill="#000000" font-family="'Inter, Helvetica, sans-serif'" font-size="12" lengthAdjust="spacing" textLength="76.4299" x="1578.5" y="158.6347">deer-flow, &#8230;)</text></g><!--entity LLAMA_CHAT--><g class="entity" data-qualified-name="LLAMA_CHAT" data-source-line="6" id="ent0003"><polygon fill="#1A1D24" points="1694.5,82.9429,1704.5,72.9429,1813.3503,72.9429,1813.3503,121.9876,1803.3503,131.9876,1694.5,131.9876,1694.5,82.9429" style="stroke:#0E1014;stroke-width:0.5;stroke-linejoin:miter;stroke-miterlimit:10;"/><line style="stroke:#0E1014;stroke-width:0.5;" x1="1803.3503" x2="1813.3503" y1="82.9429" y2="72.9429"/><line style="stroke:#0E1014;stroke-width:0.5;" x1="1694.5" x2="1803.3503" y1="82.9429" y2="82.9429"/><line style="stroke:#0E1014;stroke-width:0.5;" x1="1803.3503" x2="1803.3503" y1="82.9429" y2="131.9876"/><text fill="#F4EEE3" font-family="'Inter, Helvetica, sans-serif'" font-size="12" lengthAdjust="spacing" textLength="71.0436" x="1709.5" y="104.5676">llama-server</text><text fill="#F4EEE3" font-family="'Inter, Helvetica, sans-serif'" font-size="12" lengthAdjust="spacing" textLength="78.8503" x="1709.5" y="119.0899">(mod&#232;le chat)</text></g><!--entity LLAMA_EMBED--><g class="entity" data-qualified-name="LLAMA_EMBED" data-source-line="7" id="ent0004"><polygon fill="#1A1D24" points="1849,75.4429,1859,65.4429,2017.2297,65.4429,2017.2297,129.01,2007.2297,139.01,1849,139.01,1849,75.4429" style="stroke:#0E1014;stroke-width:0.5;stroke-linejoin:miter;stroke-miterlimit:10;"/><line style="stroke:#0E1014;stroke-width:0.5;" x1="2007.2297" x2="2017.2297" y1="75.4429" y2="65.4429"/><line style="stroke:#0E1014;stroke-width:0.5;" x1="1849" x2="2007.2297" y1="75.4429" y2="75.4429"/><line style="stroke:#0E1014;stroke-width:0.5;" x1="2007.2297" x2="2007.2297" y1="75.4429" y2="139.01"/><text fill="#F4EEE3" font-family="'Inter, Helvetica, sans-serif'" font-size="12" lengthAdjust="spacing" textLength="71.0436" x="1864" y="97.0676">llama-server</text><text fill="#F4EEE3" font-family="'Inter, Helvetica, sans-serif'" font-size="12" lengthAdjust="spacing" textLength="74.981" x="1864" y="111.5899">--embedding</text><text fill="#F4EEE3" font-family="'Inter, Helvetica, sans-serif'" font-size="12" lengthAdjust="spacing" textLength="128.2297" x="1864" y="126.1123">(embedder de routing)</text></g><!--entity PYTHON_SANDBOX--><g class="entity" data-qualified-name="PYTHON_SANDBOX" data-source-line="8" id="ent0005"><polygon fill="#1A1D24" points="1541.5,332.4429,1551.5,322.4429,1696.2471,322.4429,1696.2471,371.4876,1686.2471,381.4876,1541.5,381.4876,1541.5,332.4429" style="stroke:#0E1014;stroke-width:0.5;stroke-linejoin:miter;stroke-miterlimit:10;"/><line style="stroke:#0E1014;stroke-width:0.5;" x1="1686.2471" x2="1696.2471" y1="332.4429" y2="322.4429"/><line style="stroke:#0E1014;stroke-width:0.5;" x1="1541.5" x2="1686.2471" y1="332.4429" y2="332.4429"/><line style="stroke:#0E1014;stroke-width:0.5;" x1="1686.2471" x2="1686.2471" y1="332.4429" y2="381.4876"/><text fill="#F4EEE3" font-family="'Inter, Helvetica, sans-serif'" font-size="12" lengthAdjust="spacing" textLength="47.2659" x="1556.5" y="354.0676">python3</text><text fill="#F4EEE3" font-family="'Inter, Helvetica, sans-serif'" font-size="12" lengthAdjust="spacing" textLength="114.7471" x="1556.5" y="368.5899">(sandbox&#233;, slice 2d)</text></g><!--entity SIDECARS--><g class="entity" data-qualified-name="SIDECARS" data-source-line="9" id="ent0006"><path d="M1731.5,325.4429 C1731.5,315.4429 1776.1781,315.4429 1776.1781,315.4429 C1776.1781,315.4429 1820.8562,315.4429 1820.8562,325.4429 L1820.8562,378.01 C1820.8562,388.01 1776.1781,388.01 1776.1781,388.01 C1776.1781,388.01 1731.5,388.01 1731.5,378.01 L1731.5,325.4429" fill="#E6DFD2" style="stroke:#0E1014;stroke-width:0.5;"/><path d="M1731.5,325.4429 C1731.5,335.4429 1776.1781,335.4429 1776.1781,335.4429 C1776.1781,335.4429 1820.8562,335.4429 1820.8562,325.4429" fill="none" style="stroke:#0E1014;stroke-width:0.5;"/><text fill="#000000" font-family="'Inter, Helvetica, sans-serif'" font-size="12" lengthAdjust="spacing" textLength="69.3562" x="1741.5" y="351.0676">sidecars .ts/</text><text fill="#000000" font-family="'Inter, Helvetica, sans-serif'" font-size="12" lengthAdjust="spacing" textLength="66.9869" x="1741.5" y="365.5899">(signatures,</text><text fill="#000000" font-family="'Inter, Helvetica, sans-serif'" font-size="12" lengthAdjust="spacing" textLength="57.6633" x="1741.5" y="380.1123">autoTags)</text></g><g class="entity" data-qualified-name="GMN33" data-source-line="44" id="ent0034"><path d="M1207,711.9429 L1207,757.51 A4,4 0 0 0 1211,761.51 L1452.7953,761.51 A4,4 0 0 0 1456.7953,757.51 L1456.7953,717.9429 L1446.7953,707.9429 L1211,707.9429 A4,4 0 0 0 1207,711.9429" fill="#FFFDF6" style="stroke:#C68A3A;stroke-width:0.5;"/><path d="M1446.7953,707.9429 L1446.7953,715.9429 A2,2 0 0 0 1448.7953,717.9429 L1456.7953,717.9429 L1446.7953,707.9429" fill="#FFFDF6" style="stroke:#C68A3A;stroke-width:1;"/><text fill="#0E1014" font-family="'Inter, Helvetica, sans-serif'" font-size="12" lengthAdjust="spacing" textLength="228.7953" x="1213" y="724.5676">Un processus par mod&#232;le chat en cours.</text><text fill="#0E1014" font-family="'Inter, Helvetica, sans-serif'" font-size="12" lengthAdjust="spacing" textLength="205.6311" x="1213" y="739.0899">L'utilisateur ouvre son UI web native</text><text fill="#0E1014" font-family="'Inter, Helvetica, sans-serif'" font-size="12" lengthAdjust="spacing" textLength="226.2727" x="1213" y="753.6123">dans le navigateur (pas de chat in-app).</text></g><g class="entity" data-qualified-name="GMN36" data-source-line="50" id="ent0037"><path d="M1492.5,719.4429 L1492.5,750.4876 A4,4 0 0 0 1496.5,754.4876 L1733.233,754.4876 A4,4 0 0 0 1737.233,750.4876 L1737.233,725.4429 L1727.233,715.4429 L1496.5,715.4429 A4,4 0 0 0 1492.5,719.4429" fill="#FFFDF6" style="stroke:#C68A3A;stroke-width:0.5;"/><path d="M1727.233,715.4429 L1727.233,723.4429 A2,2 0 0 0 1729.233,725.4429 L1737.233,725.4429 L1727.233,715.4429" fill="#FFFDF6" style="stroke:#C68A3A;stroke-width:1;"/><text fill="#0E1014" font-family="'Inter, Helvetica, sans-serif'" font-size="12" lengthAdjust="spacing" textLength="223.733" x="1498.5" y="732.0676">Singleton &#8212; `launchedBy: 'embedder'`.</text><text fill="#0E1014" font-family="'Inter, Helvetica, sans-serif'" font-size="12" lengthAdjust="spacing" textLength="210.2674" x="1498.5" y="746.5899">R&#233;utilis&#233; entre routing + caract&#233;riser.</text></g><g class="entity" data-qualified-name="GMN39" data-source-line="55" id="ent0040"><path d="M1773,711.9429 L1773,757.51 A4,4 0 0 0 1777,761.51 L2015.1818,761.51 A4,4 0 0 0 2019.1818,757.51 L2019.1818,717.9429 L2009.1818,707.9429 L1777,707.9429 A4,4 0 0 0 1773,711.9429" fill="#FFFDF6" style="stroke:#C68A3A;stroke-width:0.5;"/><path d="M2009.1818,707.9429 L2009.1818,715.9429 A2,2 0 0 0 2011.1818,717.9429 L2019.1818,717.9429 L2009.1818,707.9429" fill="#FFFDF6" style="stroke:#C68A3A;stroke-width:1;"/><text fill="#0E1014" font-family="'Inter, Helvetica, sans-serif'" font-size="12" lengthAdjust="spacing" textLength="225.1818" x="1779" y="724.5676">Par-item, tu&#233; imm&#233;diatement apr&#232;s que</text><text fill="#0E1014" font-family="'Inter, Helvetica, sans-serif'" font-size="12" lengthAdjust="spacing" textLength="130.9739" x="1779" y="739.0899">le bloc assert retourne.</text><text fill="#0E1014" font-family="'Inter, Helvetica, sans-serif'" font-size="12" lengthAdjust="spacing" textLength="173.6717" x="1779" y="753.6123">rlimits POSIX / Job Object Win.</text></g><g class="entity" data-qualified-name="GMN42" data-source-line="61" id="ent0043"><path d="M1541.5,497.4429 L1541.5,557.5323 A4,4 0 0 0 1545.5,561.5323 L1772.7389,561.5323 A4,4 0 0 0 1776.7389,557.5323 L1776.7389,503.4429 L1766.7389,493.4429 L1545.5,493.4429 A4,4 0 0 0 1541.5,497.4429" fill="#FFFDF6" style="stroke:#C68A3A;stroke-width:0.5;"/><path d="M1766.7389,493.4429 L1766.7389,501.4429 A2,2 0 0 0 1768.7389,503.4429 L1776.7389,503.4429 L1766.7389,493.4429" fill="#FFFDF6" style="stroke:#C68A3A;stroke-width:1;"/><text fill="#0E1014" font-family="'Inter, Helvetica, sans-serif'" font-size="12" lengthAdjust="spacing" textLength="214.2389" x="1547.5" y="510.0676">Tous les clients externes se bindent &#224;</text><text fill="#0E1014" font-family="'Inter, Helvetica, sans-serif'" font-size="12" lengthAdjust="spacing" textLength="207.5913" x="1547.5" y="524.5899">127.0.0.1 &#8212; le serveur MCP n'&#233;coute</text><text fill="#0E1014" font-family="'Inter, Helvetica, sans-serif'" font-size="12" lengthAdjust="spacing" textLength="210.2674" x="1547.5" y="539.1123">JAMAIS sur 0.0.0.0. M&#234;me les clients</text><text fill="#0E1014" font-family="'Inter, Helvetica, sans-serif'" font-size="12" lengthAdjust="spacing" textLength="183.4726" x="1547.5" y="553.6347">cross-machine doivent tunneler.</text></g><!--link USER to R--><g class="link" data-entity-1="ent0001" data-entity-2="ent0009" data-link-type="dependency" data-source-line="32" id="lnk24"><path d="M682,139.9629 C682,189.5829 682,272.2629 682,317.3729" fill="none" id="USER-to-R" style="stroke:#1A1D24;stroke-width:1;"/><polygon fill="#1A1D24" points="682,322.3729,686,313.3729,682,317.3729,678,313.3729,682,322.3729" style="stroke:#1A1D24;stroke-width:1;stroke-linejoin:miter;stroke-miterlimit:10;"/><text fill="#000000" font-family="'Inter, Helvetica, sans-serif'" font-size="12" lengthAdjust="spacing" textLength="82.3104" x="683" y="204.0676">clavier / souris</text></g><!--link M to P_CHAT--><g class="link" data-entity-1="ent0010" data-entity-2="ent0012" data-link-type="dependency" data-source-line="33" id="lnk25"><path d="M623.4,533.9829 C541.38,542.2329 396.22,560.9229 277,597.9429 C237.69,610.1529 225.33,611.4729 193,636.9429 C171.55,653.8429 155.2821,673.7361 141.4621,693.6361" fill="none" id="M-to-P_CHAT" style="stroke:#1A1D24;stroke-width:1;"/><polygon fill="#1A1D24" points="138.61,697.7429,147.0291,692.6323,141.4621,693.6361,140.4583,688.069,138.61,697.7429" style="stroke:#1A1D24;stroke-width:1;stroke-linejoin:miter;stroke-miterlimit:10;"/><text fill="#000000" font-family="'Inter, Helvetica, sans-serif'" font-size="12" lengthAdjust="spacing" textLength="73.2595" x="278" y="618.0676">spawn / stop</text></g><!--link M to P_EMB--><g class="link" data-entity-1="ent0010" data-entity-2="ent0013" data-link-type="dependency" data-source-line="34" id="lnk26"><path d="M623.35,537.0729 C550.16,549.3629 429.97,577.3829 344,636.9429 C321.31,652.6629 304.9275,672.9789 291.5475,693.4289" fill="none" id="M-to-P_EMB" style="stroke:#1A1D24;stroke-width:1;"/><polygon fill="#1A1D24" points="288.81,697.6129,297.0847,692.2717,291.5475,693.4289,290.3903,687.8916,288.81,697.6129" style="stroke:#1A1D24;stroke-width:1;stroke-linejoin:miter;stroke-miterlimit:10;"/><text fill="#000000" font-family="'Inter, Helvetica, sans-serif'" font-size="12" lengthAdjust="spacing" textLength="73.2595" x="413" y="610.5676">spawn / stop</text><text fill="#000000" font-family="'Inter, Helvetica, sans-serif'" font-size="12" lengthAdjust="spacing" textLength="51.5612" x="423.8492" y="625.0899">(slice 7e)</text></g><!--link M to P_PY--><g class="link" data-entity-1="ent0010" data-entity-2="ent0014" data-link-type="dependency" data-source-line="35" id="lnk27"><path d="M642.22,556.9729 C623.94,568.9729 602.99,583.4829 585,597.9429 C545.88,629.3829 508.2111,665.823 480.1411,694.283" fill="none" id="M-to-P_PY" style="stroke:#1A1D24;stroke-width:1;"/><polygon fill="#1A1D24" points="476.63,697.8429,485.7978,694.244,480.1411,694.283,480.102,688.6263,476.63,697.8429" style="stroke:#1A1D24;stroke-width:1;stroke-linejoin:miter;stroke-miterlimit:10;"/><text fill="#000000" font-family="'Inter, Helvetica, sans-serif'" font-size="12" lengthAdjust="spacing" textLength="63.22" x="601.0848" y="610.5676">spawn / kill</text><text fill="#000000" font-family="'Inter, Helvetica, sans-serif'" font-size="12" lengthAdjust="spacing" textLength="93.3896" x="586" y="625.0899">(slice 2d, opt-in)</text></g><!--link M to SC--><g class="link" data-entity-1="ent0010" data-entity-2="ent0017" data-link-type="dependency" data-source-line="36" id="lnk28"><path d="M737.82,557.0129 C755.86,568.5329 775.77,582.7129 792,597.9429 C825.38,629.2629 853.4837,671.3368 872.7637,700.5168" fill="none" id="M-to-SC" style="stroke:#1A1D24;stroke-width:1;"/><polygon fill="#1A1D24" points="875.52,704.6884,873.8959,694.9744,872.7637,700.5168,867.2213,699.3845,875.52,704.6884" style="stroke:#1A1D24;stroke-width:1;stroke-linejoin:miter;stroke-miterlimit:10;"/><text fill="#000000" font-family="'Inter, Helvetica, sans-serif'" font-size="12" lengthAdjust="spacing" textLength="90.8329" x="822" y="618.0676">lit/&#233;crit sidecars</text></g><!--link M to MODELS--><g class="link" data-entity-1="ent0010" data-entity-2="ent0016" data-link-type="dependency" data-source-line="37" id="lnk29"><path d="M688,557.0129 C688,594.8429 688,677.3929 688,717.2029" fill="none" id="M-to-MODELS" style="stroke:#1A1D24;stroke-width:1;"/><polygon fill="#1A1D24" points="688,722.2029,692,713.2029,688,717.2029,684,713.2029,688,722.2029" style="stroke:#1A1D24;stroke-width:1;stroke-linejoin:miter;stroke-miterlimit:10;"/><text fill="#000000" font-family="'Inter, Helvetica, sans-serif'" font-size="12" lengthAdjust="spacing" textLength="94.3101" x="689" y="618.0676">liste les mod&#232;les</text></g><!--link M to APP_DATA--><g class="link" data-entity-1="ent0010" data-entity-2="ent0018" data-link-type="dependency" data-source-line="38" id="lnk30"><path d="M752.52,541.9829 C800.43,553.3829 866.61,572.0029 921,597.9429 C948.71,611.1529 954.48,617.2129 978,636.9429 C1001.66,656.7829 1022.5887,687.3468 1040.6987,706.9668" fill="none" id="M-to-APP_DATA" style="stroke:#1A1D24;stroke-width:1;"/><polygon fill="#1A1D24" points="1044.09,710.6409,1040.9249,701.3145,1040.6987,706.9668,1035.0463,706.7406,1044.09,710.6409" style="stroke:#1A1D24;stroke-width:1;stroke-linejoin:miter;stroke-miterlimit:10;"/><text fill="#000000" font-family="'Inter, Helvetica, sans-serif'" font-size="12" lengthAdjust="spacing" textLength="96.7987" x="968" y="618.0676">log + param&#232;tres</text></g><!--link EXT_CLIENTS to M--><g class="link" data-entity-1="ent0019" data-entity-2="ent0010" data-link-type="association" data-source-line="40" id="lnk31"><path d="M1222.3861,355.6933 C1221.931,355.8387 1221.4589,355.9896 1220.97,356.1458 C1219.0143,356.7707 1216.7901,357.4813 1214.3129,358.2728 C1204.4042,361.4389 1190.4474,365.8984 1173.438,371.3332 C1139.4191,382.2029 1093.1894,396.9741 1042.7112,413.1029 C941.755,445.3604 823.805,483.0479 752.56,505.8129" fill="none" id="EXT_CLIENTS-M" style="stroke:#1A1D24;stroke-width:1;"/><text fill="#000000" font-family="'Inter, Helvetica, sans-serif'" font-size="12" lengthAdjust="spacing" textLength="62.2995" x="1037.5196" y="431.0676">HTTP+SSE</text><text fill="#000000" font-family="'Inter, Helvetica, sans-serif'" font-size="12" lengthAdjust="spacing" textLength="87.3387" x="1025" y="445.5899">127.0.0.1:41541</text><text fill="#000000" font-family="'Inter, Helvetica, sans-serif'" font-size="12" lengthAdjust="spacing" textLength="72.9186" x="1032.21" y="460.1123">Bearer token</text></g><!--link R to M--><g class="link" data-entity-1="ent0009" data-entity-2="ent0010" data-link-type="association" data-source-line="41" id="lnk32"><path d="M682.99,381.5929 C684.1,413.7429 685.9,465.5829 687.01,497.7529" fill="none" id="R-M" style="stroke:#1A1D24;stroke-width:1;"/><text fill="#000000" font-family="'Inter, Helvetica, sans-serif'" font-size="12" lengthAdjust="spacing" textLength="69.6119" x="686" y="445.5676">IPC Electron</text></g><!--link P_CHAT to GMN33--><g class="link" data-entity-1="ent0012" data-entity-2="ent0034" data-link-type="association" data-source-line="44" id="lnk35"><path d="M133.14,697.8829 C148.76,668.9729 174.85,630.8729 210.5,613.4429 C257.36,590.5229 1099.57,598.3429 1149.5,613.4429 C1210.34,631.8429 1269.47,677.9429 1303.23,707.7729" fill="none" id="P_CHAT-GMN33" style="stroke:#1A1D24;stroke-width:1;stroke-dasharray:7,7;"/></g><!--link P_EMB to GMN36--><g class="link" data-entity-1="ent0013" data-entity-2="ent0037" data-link-type="association" data-source-line="50" id="lnk38"><path d="M284.86,697.8929 C300.26,668.9829 326.04,630.9029 361.5,613.4429 C416.13,586.5529 1399.87,593.7929 1457.5,613.4429 C1516.99,633.7229 1571.5,686.5729 1598.04,715.4429" fill="none" id="P_EMB-GMN36" style="stroke:#1A1D24;stroke-width:1;stroke-dasharray:7,7;"/></g><!--link P_PY to GMN39--><g class="link" data-entity-1="ent0014" data-entity-2="ent0040" data-link-type="association" data-source-line="55" id="lnk41"><path d="M470.98,697.8129 C496.3,668.6429 535.9,630.2329 580.5,613.4429 C640.66,590.7929 1676.63,592.7929 1737.5,613.4429 C1792.33,632.0429 1843.08,678.0829 1871.73,707.8429" fill="none" id="P_PY-GMN39" style="stroke:#1A1D24;stroke-width:1;stroke-dasharray:7,7;"/></g><!--link EXT_CLIENTS to GMN42--><g class="link" data-entity-1="ent0019" data-entity-2="ent0043" data-link-type="association" data-source-line="61" id="lnk44"><path d="M1517.0669,492.367 C1517.5009,492.4815 1517.9346,492.5956 1518.3677,492.7096 C1519.2341,492.9376 1520.0986,493.1646 1520.9613,493.3908 C1527.8627,495.2001 1534.6438,496.9523 1541.27,498.6429" fill="none" id="EXT_CLIENTS-GMN42" style="stroke:#1A1D24;stroke-width:1;stroke-dasharray:7,7;"/></g><?plantuml-src TPFHQjim58Rl_HHgRhendDPfHaik1ewZaeBT6Ck11GAgOokDcI85MLaffR27s1FkIIPPJkBO3huvFl-dSuxqIrSvI-a-8m1NGN5Jo7TA-lb-Iwshjfgaael2o9RC9IK0nH6UmD37yLFiGyjYNAte7RFJ6Ofx82c03i271K0325oeuYUtX0u_9GX0ohSxpWYJDJugmUYY7fX2Il-qsjtGV8nAG0TLbmOIOc_gcfbDM8CeJRQ9NH3ncuWbissoNP4iozdhaksuaE3Xzi6fLi9Wt5qzN5H4k3WCcIKoMIL5dNj4s7V7qEzLGwuvpOYextCsWRxPYmcxCUIPxNhTiXk64pSsXwzYh7_AgJvRJiAVCVRy9_WScwwr_tB6cXaUJVIzyLI14lMmvpM8lIYuE8Zpw5pD217sclAt2fWydklgh3RW1gHxGIi2JVN4SmGZODi_G0H6fuiPGHzh1KTMKAh6LeKKk-IDgKA5vBkZfenhI4lsfQ1vIi0z-Nh4maMpHu13PQdHaTTMbGT6D7wrWSf70ntSQ6DAiQpwwTis21GsZUFm6q9moPp1VVzMVSvew7mVEais9ebGlal-Yp0hEYmugnlXG5ik2H3vwqO2lZvT_oFuF8iX3dKM-yubON19kBC8ou3kqUvadWjIJuaIoHduz-SlU57NYAKRaetVH-3Ql3KYhb_wxGPgkMvykNxvs1gBmaNdBdHwq9rkxM35fUHRtQ9cI6kjrZewbUb1T_gkEpqy3V0V?></g></svg>