<svg xmlns="http://www.w3.org/2000/svg" xmlns:xlink="http://www.w3.org/1999/xlink" contentStyleType="text/css" data-diagram-type="DESCRIPTION" height="981px" preserveAspectRatio="none" style="width:1506px;height:981px;background:#F4EEE3;" version="1.1" viewBox="0 0 1506 981" width="1506px" zoomAndPan="magnify"><?plantuml 1.2026.4?><defs/><g><rect fill="#F4EEE3" height="981" style="stroke:none;stroke-width:1;" width="1506" x="0" y="0"/><g class="title" data-source-line="4"><text fill="#000000" font-family="'Inter, Helvetica, sans-serif'" font-size="14" font-weight="700" lengthAdjust="spacing" textLength="413.7092" x="542.7477" y="23.5623">Embedder &#8212; double mode : serveur (interactif) + CLI (bulk)</text></g><!--cluster src/main/modelhub/--><g class="cluster" data-qualified-name="src.main.modelhub." data-source-line="6" id="ent0007"><path d="M105,238.4429 L223.4744,238.4429 A6,6 0 0 1 227.4744,242.4429 L234.4744,258.9652 L564,258.9652 A4,4 0 0 1 568,262.9652 L568,801.4429 A4,4 0 0 1 564,805.4429 L105,805.4429 A4,4 0 0 1 101,801.4429 L101,242.4429 A4,4 0 0 1 105,238.4429" fill="#F4EEE3" style="stroke:#C68A3A;stroke-width:1.5;"/><line style="stroke:#C68A3A;stroke-width:1.5;" x1="101" x2="234.4744" y1="258.9652" y2="258.9652"/><text fill="#0E1014" font-family="'Inter, Helvetica, sans-serif'" font-size="12" font-weight="700" lengthAdjust="spacing" textLength="120.4744" x="105" y="252.0676">src/main/modelhub/</text></g><!--entity EMBED_LC--><g class="entity" data-qualified-name="src.main.modelhub..EMBED_LC" data-source-line="7" id="ent0008"><rect fill="#FFFFFF" height="102.6118" rx="4" ry="4" style="stroke:#0E1014;stroke-width:0.5;" width="234.3303" x="315" y="522.4429"/><rect fill="#FFFFFF" height="10" style="stroke:#0E1014;stroke-width:0.5;" width="15" x="529.3303" y="527.4429"/><rect fill="#FFFFFF" height="2" style="stroke:#0E1014;stroke-width:0.5;" width="4" x="527.3303" y="529.4429"/><rect fill="#FFFFFF" height="2" style="stroke:#0E1014;stroke-width:0.5;" width="4" x="527.3303" y="533.4429"/><text fill="#0E1014" font-family="'Inter, Helvetica, sans-serif'" font-size="12" lengthAdjust="spacing" textLength="122.9798" x="330" y="554.0676">embedderLifecycle.ts</text><text fill="#0E1014" font-family="'Inter, Helvetica, sans-serif'" font-size="12" lengthAdjust="spacing" textLength="194.3303" x="330" y="568.5899">&#8226; ensureEmbedderReady(filePath)</text><text fill="#0E1014" font-family="'Inter, Helvetica, sans-serif'" font-size="12" lengthAdjust="spacing" textLength="146.3315" x="330" y="583.1123">&#8226; promesse de lancement</text><text fill="#0E1014" font-family="'Inter, Helvetica, sans-serif'" font-size="12" lengthAdjust="spacing" textLength="157.0017" x="336.7498" y="597.6347">in-flight (concurrency-safe)</text><text fill="#0E1014" font-family="'Inter, Helvetica, sans-serif'" font-size="12" lengthAdjust="spacing" textLength="161.5697" x="330" y="612.157">&#8226; stopManagedEmbedders()</text></g><!--entity EMBED_CLI--><g class="entity" data-qualified-name="src.main.modelhub..EMBED_CLI" data-source-line="8" id="ent0009"><rect fill="#FFFFFF" height="146.1789" rx="4" ry="4" style="stroke:#0E1014;stroke-width:0.5;" width="212.5297" x="338.5" y="271.4429"/><rect fill="#FFFFFF" height="10" style="stroke:#0E1014;stroke-width:0.5;" width="15" x="531.0297" y="276.4429"/><rect fill="#FFFFFF" height="2" style="stroke:#0E1014;stroke-width:0.5;" width="4" x="529.0297" y="278.4429"/><rect fill="#FFFFFF" height="2" style="stroke:#0E1014;stroke-width:0.5;" width="4" x="529.0297" y="282.4429"/><text fill="#0E1014" font-family="'Inter, Helvetica, sans-serif'" font-size="12" lengthAdjust="spacing" textLength="86.5716" x="353.5" y="303.0676">embedderCli.ts</text><text fill="#0E1014" font-family="'Inter, Helvetica, sans-serif'" font-size="12" lengthAdjust="spacing" textLength="78.9355" x="353.5" y="317.5899">(2026-05-23)</text><text fill="#0E1014" font-family="'Inter, Helvetica, sans-serif'" font-size="12" lengthAdjust="spacing" textLength="148.9394" x="353.5" y="332.1123">&#8226; embedViaLlamaCli(opts)</text><text fill="#0E1014" font-family="'Inter, Helvetica, sans-serif'" font-size="12" lengthAdjust="spacing" textLength="126.5422" x="360.2498" y="346.6347">spawn &#8594; JSON &#8594; exit</text><text fill="#0E1014" font-family="'Inter, Helvetica, sans-serif'" font-size="12" lengthAdjust="spacing" textLength="147.0985" x="353.5" y="361.157">&#8226; resolveEmbedderCliFn()</text><text fill="#0E1014" font-family="'Inter, Helvetica, sans-serif'" font-size="12" lengthAdjust="spacing" textLength="137.9112" x="360.2498" y="375.6794">d&#233;rive llama-embedding</text><text fill="#0E1014" font-family="'Inter, Helvetica, sans-serif'" font-size="12" lengthAdjust="spacing" textLength="165.7799" x="360.2498" y="390.2017">depuis le runner llama-server</text><text fill="#0E1014" font-family="'Inter, Helvetica, sans-serif'" font-size="12" lengthAdjust="spacing" textLength="169.0695" x="353.5" y="404.7241">&#8226; deriveLlamaEmbeddingPath</text></g><!--entity LAUNCH--><g class="entity" data-qualified-name="src.main.modelhub..LAUNCH" data-source-line="9" id="ent0010"><rect fill="#FFFFFF" height="88.0894" rx="4" ry="4" style="stroke:#0E1014;stroke-width:0.5;" width="195.0415" x="354.5" y="701.4429"/><rect fill="#FFFFFF" height="10" style="stroke:#0E1014;stroke-width:0.5;" width="15" x="529.5415" y="706.4429"/><rect fill="#FFFFFF" height="2" style="stroke:#0E1014;stroke-width:0.5;" width="4" x="527.5415" y="708.4429"/><rect fill="#FFFFFF" height="2" style="stroke:#0E1014;stroke-width:0.5;" width="4" x="527.5415" y="712.4429"/><text fill="#0E1014" font-family="'Inter, Helvetica, sans-serif'" font-size="12" lengthAdjust="spacing" textLength="112.8381" x="369.5" y="733.0676">launchModelByPath</text><text fill="#0E1014" font-family="'Inter, Helvetica, sans-serif'" font-size="12" lengthAdjust="spacing" textLength="79.7025" x="369.5" y="747.5899">(via launch.ts)</text><text fill="#0E1014" font-family="'Inter, Helvetica, sans-serif'" font-size="12" lengthAdjust="spacing" textLength="136.5306" x="369.5" y="762.1123">launchedBy: 'embedder'</text><text fill="#0E1014" font-family="'Inter, Helvetica, sans-serif'" font-size="12" lengthAdjust="spacing" textLength="155.0415" x="369.5" y="776.6347">customArgs: '--embedding'</text></g><!--entity EMBED_CLIENT--><g class="entity" data-qualified-name="src.main.modelhub..EMBED_CLIENT" data-source-line="10" id="ent0011"><rect fill="#FFFFFF" height="73.5671" rx="4" ry="4" style="stroke:#0E1014;stroke-width:0.5;" width="201.7913" x="117" y="708.4429"/><rect fill="#FFFFFF" height="10" style="stroke:#0E1014;stroke-width:0.5;" width="15" x="298.7913" y="713.4429"/><rect fill="#FFFFFF" height="2" style="stroke:#0E1014;stroke-width:0.5;" width="4" x="296.7913" y="715.4429"/><rect fill="#FFFFFF" height="2" style="stroke:#0E1014;stroke-width:0.5;" width="4" x="296.7913" y="719.4429"/><text fill="#0E1014" font-family="'Inter, Helvetica, sans-serif'" font-size="12" lengthAdjust="spacing" textLength="72.2879" x="132" y="740.0676">EmbedClient</text><text fill="#0E1014" font-family="'Inter, Helvetica, sans-serif'" font-size="12" lengthAdjust="spacing" textLength="106.3609" x="132" y="754.5899">(routing/embed.ts)</text><text fill="#0E1014" font-family="'Inter, Helvetica, sans-serif'" font-size="12" lengthAdjust="spacing" textLength="161.7913" x="132" y="769.1123">HTTP POST /v1/embeddings</text></g><!--entity RC--><g class="entity" data-qualified-name="src.main.modelhub..RC" data-source-line="11" id="ent0012"><rect fill="#FFFFFF" height="73.5671" rx="4" ry="4" style="stroke:#0E1014;stroke-width:0.5;" width="185.8883" x="117" y="307.4429"/><rect fill="#FFFFFF" height="10" style="stroke:#0E1014;stroke-width:0.5;" width="15" x="282.8883" y="312.4429"/><rect fill="#FFFFFF" height="2" style="stroke:#0E1014;stroke-width:0.5;" width="4" x="280.8883" y="314.4429"/><rect fill="#FFFFFF" height="2" style="stroke:#0E1014;stroke-width:0.5;" width="4" x="280.8883" y="318.4429"/><text fill="#0E1014" font-family="'Inter, Helvetica, sans-serif'" font-size="12" lengthAdjust="spacing" textLength="91.4806" x="132" y="339.0676">routingConfig.ts</text><text fill="#0E1014" font-family="'Inter, Helvetica, sans-serif'" font-size="12" lengthAdjust="spacing" textLength="135.3374" x="132" y="353.5899">.routingEmbedderPath /</text><text fill="#0E1014" font-family="'Inter, Helvetica, sans-serif'" font-size="12" lengthAdjust="spacing" textLength="145.8883" x="132" y="368.1123">.routingEmbedderBaseUrl</text></g><!--entity USER--><g class="entity" data-qualified-name="USER" data-source-line="4" id="ent0001"><ellipse cx="663.8146" cy="73.4429" fill="#FFFFFF" rx="8" ry="8" style="stroke:#0E1014;stroke-width:0.5;"/><path d="M663.8146,81.4429 L663.8146,108.4429 M650.8146,89.4429 L676.8146,89.4429 M663.8146,108.4429 L650.8146,123.4429 M663.8146,108.4429 L676.8146,123.4429" fill="none" style="stroke:#0E1014;stroke-width:0.5;"/><text fill="#000000" font-family="'Inter, Helvetica, sans-serif'" font-size="12" lengthAdjust="spacing" textLength="57.6292" x="635" y="136.5676">Utilisateur</text></g><!--entity MCP_CLIENT--><g class="entity" data-qualified-name="MCP_CLIENT" data-source-line="5" id="ent0002"><ellipse cx="769.0757" cy="51.9429" fill="#FFFFFF" rx="8" ry="8" style="stroke:#0E1014;stroke-width:0.5;"/><path d="M769.0757,59.9429 L769.0757,86.9429 M756.0757,67.9429 L782.0757,67.9429 M769.0757,86.9429 L756.0757,101.9429 M769.0757,86.9429 L782.0757,101.9429" fill="none" style="stroke:#0E1014;stroke-width:0.5;"/><text fill="#000000" font-family="'Inter, Helvetica, sans-serif'" font-size="12" lengthAdjust="spacing" textLength="63.1859" x="728.5" y="115.0676">Client MCP</text><text fill="#000000" font-family="'Inter, Helvetica, sans-serif'" font-size="12" lengthAdjust="spacing" textLength="81.1513" x="728.5" y="129.5899">(Claude Code,</text><text fill="#000000" font-family="'Inter, Helvetica, sans-serif'" font-size="12" lengthAdjust="spacing" textLength="41.4194" x="728.5" y="144.1123">Cursor,</text><text fill="#000000" font-family="'Inter, Helvetica, sans-serif'" font-size="12" lengthAdjust="spacing" textLength="76.4299" x="728.5" y="158.6347">deer-flow, &#8230;)</text></g><!--entity LLAMA_CHAT--><g class="entity" data-qualified-name="LLAMA_CHAT" data-source-line="6" id="ent0003"><polygon fill="#1A1D24" points="844.5,82.9429,854.5,72.9429,963.3503,72.9429,963.3503,121.9876,953.3503,131.9876,844.5,131.9876,844.5,82.9429" style="stroke:#0E1014;stroke-width:0.5;stroke-linejoin:miter;stroke-miterlimit:10;"/><line style="stroke:#0E1014;stroke-width:0.5;" x1="953.3503" x2="963.3503" y1="82.9429" y2="72.9429"/><line style="stroke:#0E1014;stroke-width:0.5;" x1="844.5" x2="953.3503" y1="82.9429" y2="82.9429"/><line style="stroke:#0E1014;stroke-width:0.5;" x1="953.3503" x2="953.3503" y1="82.9429" y2="131.9876"/><text fill="#F4EEE3" font-family="'Inter, Helvetica, sans-serif'" font-size="12" lengthAdjust="spacing" textLength="71.0436" x="859.5" y="104.5676">llama-server</text><text fill="#F4EEE3" font-family="'Inter, Helvetica, sans-serif'" font-size="12" lengthAdjust="spacing" textLength="78.8503" x="859.5" y="119.0899">(mod&#232;le chat)</text></g><!--entity LLAMA_EMBED--><g class="entity" data-qualified-name="LLAMA_EMBED" data-source-line="7" id="ent0004"><polygon fill="#1A1D24" points="368,892.4429,378,882.4429,536.2297,882.4429,536.2297,946.01,526.2297,956.01,368,956.01,368,892.4429" style="stroke:#0E1014;stroke-width:0.5;stroke-linejoin:miter;stroke-miterlimit:10;"/><line style="stroke:#0E1014;stroke-width:0.5;" x1="526.2297" x2="536.2297" y1="892.4429" y2="882.4429"/><line style="stroke:#0E1014;stroke-width:0.5;" x1="368" x2="526.2297" y1="892.4429" y2="892.4429"/><line style="stroke:#0E1014;stroke-width:0.5;" x1="526.2297" x2="526.2297" y1="892.4429" y2="956.01"/><text fill="#F4EEE3" font-family="'Inter, Helvetica, sans-serif'" font-size="12" lengthAdjust="spacing" textLength="71.0436" x="383" y="914.0676">llama-server</text><text fill="#F4EEE3" font-family="'Inter, Helvetica, sans-serif'" font-size="12" lengthAdjust="spacing" textLength="74.981" x="383" y="928.5899">--embedding</text><text fill="#F4EEE3" font-family="'Inter, Helvetica, sans-serif'" font-size="12" lengthAdjust="spacing" textLength="128.2297" x="383" y="943.1123">(embedder de routing)</text></g><!--entity PYTHON_SANDBOX--><g class="entity" data-qualified-name="PYTHON_SANDBOX" data-source-line="8" id="ent0005"><polygon fill="#1A1D24" points="586.5,324.9429,596.5,314.9429,741.2471,314.9429,741.2471,363.9876,731.2471,373.9876,586.5,373.9876,586.5,324.9429" style="stroke:#0E1014;stroke-width:0.5;stroke-linejoin:miter;stroke-miterlimit:10;"/><line style="stroke:#0E1014;stroke-width:0.5;" x1="731.2471" x2="741.2471" y1="324.9429" y2="314.9429"/><line style="stroke:#0E1014;stroke-width:0.5;" x1="586.5" x2="731.2471" y1="324.9429" y2="324.9429"/><line style="stroke:#0E1014;stroke-width:0.5;" x1="731.2471" x2="731.2471" y1="324.9429" y2="373.9876"/><text fill="#F4EEE3" font-family="'Inter, Helvetica, sans-serif'" font-size="12" lengthAdjust="spacing" textLength="47.2659" x="601.5" y="346.5676">python3</text><text fill="#F4EEE3" font-family="'Inter, Helvetica, sans-serif'" font-size="12" lengthAdjust="spacing" textLength="114.7471" x="601.5" y="361.0899">(sandbox&#233;, slice 2d)</text></g><!--entity SIDECARS--><g class="entity" data-qualified-name="SIDECARS" data-source-line="9" id="ent0006"><path d="M776.5,317.9429 C776.5,307.9429 821.1781,307.9429 821.1781,307.9429 C821.1781,307.9429 865.8562,307.9429 865.8562,317.9429 L865.8562,370.51 C865.8562,380.51 821.1781,380.51 821.1781,380.51 C821.1781,380.51 776.5,380.51 776.5,370.51 L776.5,317.9429" fill="#E6DFD2" style="stroke:#0E1014;stroke-width:0.5;"/><path d="M776.5,317.9429 C776.5,327.9429 821.1781,327.9429 821.1781,327.9429 C821.1781,327.9429 865.8562,327.9429 865.8562,317.9429" fill="none" style="stroke:#0E1014;stroke-width:0.5;"/><text fill="#000000" font-family="'Inter, Helvetica, sans-serif'" font-size="12" lengthAdjust="spacing" textLength="69.3562" x="786.5" y="343.5676">sidecars .ts/</text><text fill="#000000" font-family="'Inter, Helvetica, sans-serif'" font-size="12" lengthAdjust="spacing" textLength="66.9869" x="786.5" y="358.0899">(signatures,</text><text fill="#000000" font-family="'Inter, Helvetica, sans-serif'" font-size="12" lengthAdjust="spacing" textLength="57.6633" x="786.5" y="372.6123">autoTags)</text></g><!--entity CHAR_ALL--><g class="entity" data-qualified-name="CHAR_ALL" data-source-line="14" id="ent0013"><rect fill="#FFFFFF" height="59.0447" rx="4" ry="4" style="stroke:#0E1014;stroke-width:0.5;" width="184.4906" x="7" y="72.9429"/><rect fill="#FFFFFF" height="10" style="stroke:#0E1014;stroke-width:0.5;" width="15" x="171.4906" y="77.9429"/><rect fill="#FFFFFF" height="2" style="stroke:#0E1014;stroke-width:0.5;" width="4" x="169.4906" y="79.9429"/><rect fill="#FFFFFF" height="2" style="stroke:#0E1014;stroke-width:0.5;" width="4" x="169.4906" y="83.9429"/><text fill="#0E1014" font-family="'Inter, Helvetica, sans-serif'" font-size="12" lengthAdjust="spacing" textLength="84.441" x="22" y="104.5676">characterizeAll</text><text fill="#0E1014" font-family="'Inter, Helvetica, sans-serif'" font-size="12" lengthAdjust="spacing" textLength="144.4906" x="22" y="119.0899">(bulk, boucle par mod&#232;le)</text></g><!--entity ROUTE--><g class="entity" data-qualified-name="ROUTE" data-source-line="15" id="ent0014"><rect fill="#FFFFFF" height="59.0447" rx="4" ry="4" style="stroke:#0E1014;stroke-width:0.5;" width="144.5201" x="253.5" y="72.9429"/><rect fill="#FFFFFF" height="10" style="stroke:#0E1014;stroke-width:0.5;" width="15" x="378.0201" y="77.9429"/><rect fill="#FFFFFF" height="2" style="stroke:#0E1014;stroke-width:0.5;" width="4" x="376.0201" y="79.9429"/><rect fill="#FFFFFF" height="2" style="stroke:#0E1014;stroke-width:0.5;" width="4" x="376.0201" y="83.9429"/><text fill="#0E1014" font-family="'Inter, Helvetica, sans-serif'" font-size="12" lengthAdjust="spacing" textLength="88.4978" x="268.5" y="104.5676">routeByVectors</text><text fill="#0E1014" font-family="'Inter, Helvetica, sans-serif'" font-size="12" lengthAdjust="spacing" textLength="104.5201" x="268.5" y="119.0899">(query interactive)</text></g><!--entity LLAMA_EMBED_CLI--><g class="entity" data-qualified-name="LLAMA_EMBED_CLI" data-source-line="29" id="ent0024"><rect fill="#FFFFFF" height="59.0447" rx="4" ry="4" style="stroke:#0E1014;stroke-width:0.5;" width="162.8775" x="584.5" y="544.4429"/><rect fill="#FFFFFF" height="10" style="stroke:#0E1014;stroke-width:0.5;" width="15" x="727.3775" y="549.4429"/><rect fill="#FFFFFF" height="2" style="stroke:#0E1014;stroke-width:0.5;" width="4" x="725.3775" y="551.4429"/><rect fill="#FFFFFF" height="2" style="stroke:#0E1014;stroke-width:0.5;" width="4" x="725.3775" y="555.4429"/><text fill="#0E1014" font-family="'Inter, Helvetica, sans-serif'" font-size="12" lengthAdjust="spacing" textLength="122.8775" x="599.5" y="576.0676">llama-embedding.exe</text><text fill="#0E1014" font-family="'Inter, Helvetica, sans-serif'" font-size="12" lengthAdjust="spacing" textLength="82.2934" x="599.5" y="590.5899">(CLI one-shot)</text></g><g class="entity" data-qualified-name="GMN26" data-source-line="33" id="ent0027"><path d="M782.5,543.9429 L782.5,569.9429 L747.52,573.9429 L782.5,577.9429 L782.5,604.0323 A4,4 0 0 0 786.5,608.0323 L989.2793,608.0323 A4,4 0 0 0 993.2793,604.0323 L993.2793,549.9429 L983.2793,539.9429 L786.5,539.9429 A4,4 0 0 0 782.5,543.9429" fill="#FFFDF6" style="stroke:#C68A3A;stroke-width:0.5;"/><path d="M983.2793,539.9429 L983.2793,547.9429 A2,2 0 0 0 985.2793,549.9429 L993.2793,549.9429 L983.2793,539.9429" fill="#FFFDF6" style="stroke:#C68A3A;stroke-width:0.5;"/><text fill="#0E1014" font-family="'Inter, Helvetica, sans-serif'" font-size="12" lengthAdjust="spacing" textLength="174.3023" x="788.5" y="556.5676">Sibling de llama-server dans le</text><text fill="#0E1014" font-family="'Inter, Helvetica, sans-serif'" font-size="12" lengthAdjust="spacing" textLength="189.3872" x="788.5" y="571.0899">m&#234;me dossier de build llama.cpp.</text><text fill="#0E1014" font-family="'Inter, Helvetica, sans-serif'" font-size="12" lengthAdjust="spacing" textLength="189.7793" x="788.5" y="585.6123">Spawn&#233; par appel, imprime JSON</text><text fill="#0E1014" font-family="'Inter, Helvetica, sans-serif'" font-size="12" lengthAdjust="spacing" textLength="88.3784" x="788.5" y="600.1347">sur stdout, exit.</text></g><g class="entity" data-qualified-name="GMN29" data-source-line="40" id="ent0030"><path d="M584.5,715.4429 L584.5,775.5323 A4,4 0 0 0 588.5,779.5323 L845.9427,779.5323 A4,4 0 0 0 849.9427,775.5323 L849.9427,721.4429 L839.9427,711.4429 L588.5,711.4429 A4,4 0 0 0 584.5,715.4429" fill="#FFFDF6" style="stroke:#C68A3A;stroke-width:0.5;"/><path d="M839.9427,711.4429 L839.9427,719.4429 A2,2 0 0 0 841.9427,721.4429 L849.9427,721.4429 L839.9427,711.4429" fill="#FFFDF6" style="stroke:#C68A3A;stroke-width:1;"/><text fill="#0E1014" font-family="'Inter, Helvetica, sans-serif'" font-size="12" lengthAdjust="spacing" textLength="202.955" x="590.5" y="728.0676">Mode SERVEUR (routing interactif) :</text><text fill="#0E1014" font-family="'Inter, Helvetica, sans-serif'" font-size="12" lengthAdjust="spacing" textLength="244.4427" x="590.5" y="742.5899">processus r&#233;sident, queries basse-latence,</text><text fill="#0E1014" font-family="'Inter, Helvetica, sans-serif'" font-size="12" lengthAdjust="spacing" textLength="242.0734" x="590.5" y="757.1123">r&#233;utilis&#233; entre appels. Idempotent + crash-</text><text fill="#0E1014" font-family="'Inter, Helvetica, sans-serif'" font-size="12" lengthAdjust="spacing" textLength="219.1989" x="590.5" y="771.6347">safe (boot crash &#8658; null &#8658; fallback R5).</text></g><g class="entity" data-qualified-name="GMN32" data-source-line="47" id="ent0033"><path d="M1028.5,529.4429 L1028.5,618.577 A4,4 0 0 0 1032.5,622.577 L1487.2046,622.577 A4,4 0 0 0 1491.2046,618.577 L1491.2046,535.4429 L1481.2046,525.4429 L1032.5,525.4429 A4,4 0 0 0 1028.5,529.4429" fill="#FFFDF6" style="stroke:#C68A3A;stroke-width:0.5;"/><path d="M1481.2046,525.4429 L1481.2046,533.4429 A2,2 0 0 0 1483.2046,535.4429 L1491.2046,535.4429 L1481.2046,525.4429" fill="#FFFDF6" style="stroke:#C68A3A;stroke-width:1;"/><text fill="#0E1014" font-family="'Inter, Helvetica, sans-serif'" font-size="12" lengthAdjust="spacing" textLength="184.6998" x="1034.5" y="542.0676">Mode CLI (caract&#233;risation bulk) :</text><text fill="#0E1014" font-family="'Inter, Helvetica, sans-serif'" font-size="12" lengthAdjust="spacing" textLength="203.9777" x="1034.5" y="556.5899">spawn &#8594; embed &#8594; exit par mod&#232;le.</text><text fill="#0E1014" font-family="'Inter, Helvetica, sans-serif'" font-size="12" lengthAdjust="spacing" textLength="212.79" x="1034.5" y="571.1123">Z&#233;ro RAM r&#233;sidente entre mod&#232;les &#8212;</text><text fill="#0E1014" font-family="'Inter, Helvetica, sans-serif'" font-size="12" lengthAdjust="spacing" textLength="187.4952" x="1034.5" y="585.6347">le mod&#232;le de test est le seul gros</text><text fill="#0E1014" font-family="'Inter, Helvetica, sans-serif'" font-size="12" lengthAdjust="spacing" textLength="196.0689" x="1034.5" y="600.157">GGUF charg&#233; &#224; un moment donn&#233;.</text><text fill="#0E1014" font-family="'Inter, Helvetica, sans-serif'" font-size="12" lengthAdjust="spacing" textLength="441.7046" x="1034.5" y="614.6794">Les deux modes utilisent le M&#202;ME GGUF d'embedder (routingEmbedderPath).</text></g><g class="entity" data-qualified-name="GMN35" data-source-line="56" id="ent0036"><path d="M571,896.4429 L571,915.4429 L536.14,919.4429 L571,923.4429 L571,942.01 A4,4 0 0 0 575,946.01 L805.324,946.01 A4,4 0 0 0 809.324,942.01 L809.324,902.4429 L799.324,892.4429 L575,892.4429 A4,4 0 0 0 571,896.4429" fill="#FFFDF6" style="stroke:#C68A3A;stroke-width:0.5;"/><path d="M799.324,892.4429 L799.324,900.4429 A2,2 0 0 0 801.324,902.4429 L809.324,902.4429 L799.324,892.4429" fill="#FFFDF6" style="stroke:#C68A3A;stroke-width:0.5;"/><text fill="#0E1014" font-family="'Inter, Helvetica, sans-serif'" font-size="12" lengthAdjust="spacing" textLength="193.478" x="577" y="909.0676">Visible dans RunningModelsPanel,</text><text fill="#0E1014" font-family="'Inter, Helvetica, sans-serif'" font-size="12" lengthAdjust="spacing" textLength="217.324" x="577" y="923.5899">group&#233; par `launchedBy: 'embedder'`,</text><text fill="#0E1014" font-family="'Inter, Helvetica, sans-serif'" font-size="12" lengthAdjust="spacing" textLength="142.5475" x="577" y="938.1123">&#224; c&#244;t&#233; des mod&#232;les chat.</text></g><!--link CHAR_ALL to EMBED_CLI--><g class="link" data-entity-1="ent0013" data-entity-2="ent0009" data-link-type="dependency" data-source-line="17" id="lnk15"><path d="M86.72,132.0629 C77.28,159.1029 69.29,198.9229 92,222.4429 C100.8,231.5629 308.25,225.6829 320,230.4429 C342.64,239.6129 360.0839,251.4988 378.3339,267.8288" fill="none" id="CHAR_ALL-to-EMBED_CLI" style="stroke:#1A1D24;stroke-width:1;"/><polygon fill="#1A1D24" points="382.06,271.1629,378.0203,262.1806,378.3339,267.8288,372.6857,268.1424,382.06,271.1629" style="stroke:#1A1D24;stroke-width:1;stroke-linejoin:miter;stroke-miterlimit:10;"/><text fill="#000000" font-family="'Inter, Helvetica, sans-serif'" font-size="12" lengthAdjust="spacing" textLength="185.3134" x="93" y="204.0676">resolveEmbedderCliFn() une fois</text><text fill="#000000" font-family="'Inter, Helvetica, sans-serif'" font-size="12" lengthAdjust="spacing" textLength="141.9339" x="114.6898" y="218.5899">puis embed() par mod&#232;le</text></g><!--link ROUTE to RC--><g class="link" data-entity-1="ent0014" data-entity-2="ent0012" data-link-type="dependency" data-source-line="18" id="lnk16"><path d="M318.78,132.1029 C312.08,156.6929 301.03,192.7629 287,222.4429 C272.84,252.3829 255.4566,279.7623 239.2866,303.1123" fill="none" id="ROUTE-to-RC" style="stroke:#1A1D24;stroke-width:1;"/><polygon fill="#1A1D24" points="236.44,307.2229,244.8523,302.1011,239.2866,303.1123,238.2754,297.5466,236.44,307.2229" style="stroke:#1A1D24;stroke-width:1;stroke-linejoin:miter;stroke-miterlimit:10;"/><text fill="#000000" font-family="'Inter, Helvetica, sans-serif'" font-size="12" lengthAdjust="spacing" textLength="197.3984" x="300" y="211.5676">effectiveRoutingParams.embedder</text></g><!--link RC to EMBED_LC--><g class="link" data-entity-1="ent0012" data-entity-2="ent0008" data-link-type="dependency" data-source-line="20" id="lnk17"><path d="M245.18,381.4929 C282.22,419.4529 337.3583,475.9541 379.0483,518.6841" fill="none" id="RC-to-EMBED_LC" style="stroke:#1A1D24;stroke-width:1;"/><polygon fill="#1A1D24" points="382.54,522.2629,379.118,513.0276,379.0483,518.6841,373.3919,518.6144,382.54,522.2629" style="stroke:#1A1D24;stroke-width:1;stroke-linejoin:miter;stroke-miterlimit:10;"/><text fill="#000000" font-family="'Inter, Helvetica, sans-serif'" font-size="12" lengthAdjust="spacing" textLength="85.2081" x="352.3749" y="460.0676">kind:'managed'</text><text fill="#000000" font-family="'Inter, Helvetica, sans-serif'" font-size="12" lengthAdjust="spacing" textLength="54.135" x="367.9115" y="474.5899">+ filePath</text><text fill="#000000" font-family="'Inter, Helvetica, sans-serif'" font-size="12" lengthAdjust="spacing" textLength="91.9579" x="349" y="489.1123">(server-backed)</text></g><!--link RC to EMBED_CLIENT--><g class="link" data-entity-1="ent0012" data-entity-2="ent0011" data-link-type="dependency" data-source-line="21" id="lnk18"><path d="M204.92,381.7529 C198.17,435.2129 188,538.2029 196,625.4429 C198.57,653.4829 203.4294,679.8845 208.4694,703.3345" fill="none" id="RC-to-EMBED_CLIENT" style="stroke:#1A1D24;stroke-width:1;stroke-dasharray:7,7;"/><polygon fill="#1A1D24" points="209.52,708.2229,211.5396,698.5833,208.4694,703.3345,203.7182,700.2643,209.52,708.2229" style="stroke:#1A1D24;stroke-width:1;stroke-linejoin:miter;stroke-miterlimit:10;"/><text fill="#000000" font-family="'Inter, Helvetica, sans-serif'" font-size="12" lengthAdjust="spacing" textLength="78.3901" x="207.7298" y="571.0676">kind:'external'</text><text fill="#000000" font-family="'Inter, Helvetica, sans-serif'" font-size="12" lengthAdjust="spacing" textLength="99.8497" x="197" y="585.5899">+ baseUrl (direct)</text></g><!--link EMBED_LC to LAUNCH--><g class="link" data-entity-1="ent0008" data-entity-2="ent0010" data-link-type="dependency" data-source-line="23" id="lnk19"><path d="M438,625.8029 C440.84,649.8829 443.613,673.3775 446.333,696.3875" fill="none" id="EMBED_LC-to-LAUNCH" style="stroke:#1A1D24;stroke-width:1;"/><polygon fill="#1A1D24" points="446.92,701.3529,449.8358,691.9455,446.333,696.3875,441.8911,692.8847,446.92,701.3529" style="stroke:#1A1D24;stroke-width:1;stroke-linejoin:miter;stroke-miterlimit:10;"/><text fill="#000000" font-family="'Inter, Helvetica, sans-serif'" font-size="12" lengthAdjust="spacing" textLength="125.6729" x="444" y="668.0676">spawn si pas en cours</text></g><!--link LAUNCH to LLAMA_EMBED--><g class="link" data-entity-1="ent0010" data-entity-2="ent0004" data-link-type="dependency" data-source-line="24" id="lnk20"><path d="M452,789.8429 C452,818.4029 452,850.3529 452,877.3129" fill="none" id="LAUNCH-to-LLAMA_EMBED" style="stroke:#1A1D24;stroke-width:1;"/><polygon fill="#1A1D24" points="452,882.3129,456,873.3129,452,877.3129,448,873.3129,452,882.3129" style="stroke:#1A1D24;stroke-width:1;stroke-linejoin:miter;stroke-miterlimit:10;"/><text fill="#000000" font-family="'Inter, Helvetica, sans-serif'" font-size="12" lengthAdjust="spacing" textLength="71.0436" x="488.2747" y="834.0676">llama-server</text><text fill="#000000" font-family="'Inter, Helvetica, sans-serif'" font-size="12" lengthAdjust="spacing" textLength="141.593" x="453" y="848.5899">--embedding (port 8081)</text></g><!--link LLAMA_EMBED to EMBED_LC--><g class="link" data-entity-1="ent0004" data-entity-2="ent0008" data-link-type="dependency" data-source-line="25" id="lnk21"><path d="M536.07,887.8729 C542.11,885.9529 548.13,884.1229 554,882.4429 C690.98,843.3329 777.77,924.4829 867,813.4429 C898.18,774.6429 897.57,740.7229 867,701.4429 C782.52,592.8929 698.28,666.4929 567,625.4429 C561.15,623.6129 559.9195,623.2658 553.9095,621.2458" fill="none" id="LLAMA_EMBED-to-EMBED_LC" style="stroke:#1A1D24;stroke-width:1;"/><polygon fill="#1A1D24" points="549.17,619.6529,556.4267,626.3118,553.9095,621.2458,558.9754,618.7287,549.17,619.6529" style="stroke:#1A1D24;stroke-width:1;stroke-linejoin:miter;stroke-miterlimit:10;"/><text fill="#000000" font-family="'Inter, Helvetica, sans-serif'" font-size="12" lengthAdjust="spacing" textLength="82.2934" x="939.7999" y="742.5676">/v1/models OK</text><text fill="#000000" font-family="'Inter, Helvetica, sans-serif'" font-size="12" lengthAdjust="spacing" textLength="179.8931" x="891" y="757.0899">(sonde readiness, timeout 60 s)</text></g><!--link EMBED_LC to EMBED_CLIENT--><g class="link" data-entity-1="ent0008" data-entity-2="ent0011" data-link-type="dependency" data-source-line="26" id="lnk22"><path d="M368.08,625.5729 C334.46,652.2029 297.9398,681.1288 267.5198,705.2188" fill="none" id="EMBED_LC-to-EMBED_CLIENT" style="stroke:#1A1D24;stroke-width:1;"/><polygon fill="#1A1D24" points="263.6,708.3229,273.1389,705.8713,267.5198,705.2188,268.1723,699.5997,263.6,708.3229" style="stroke:#1A1D24;stroke-width:1;stroke-linejoin:miter;stroke-miterlimit:10;"/><text fill="#000000" font-family="'Inter, Helvetica, sans-serif'" font-size="12" lengthAdjust="spacing" textLength="43.6864" x="326" y="668.0676">baseUrl</text></g><!--link EMBED_CLIENT to LLAMA_EMBED--><g class="link" data-entity-1="ent0011" data-entity-2="ent0004" data-link-type="dependency" data-source-line="27" id="lnk23"><path d="M245.59,782.5829 C263.82,804.7529 289.23,832.5829 316,852.4429 C331.81,864.1729 345.5659,872.4408 363.4259,881.4508" fill="none" id="EMBED_CLIENT-to-LLAMA_EMBED" style="stroke:#1A1D24;stroke-width:1;"/><polygon fill="#1A1D24" points="367.89,883.7029,361.6562,876.0779,363.4259,881.4508,358.053,883.2205,367.89,883.7029" style="stroke:#1A1D24;stroke-width:1;stroke-linejoin:miter;stroke-miterlimit:10;"/><text fill="#000000" font-family="'Inter, Helvetica, sans-serif'" font-size="12" lengthAdjust="spacing" textLength="126.5081" x="317" y="841.5676">POST /v1/embeddings</text></g><!--link EMBED_CLI to LLAMA_EMBED_CLI--><g class="link" data-entity-1="ent0009" data-entity-2="ent0024" data-link-type="dependency" data-source-line="30" id="lnk25"><path d="M515.23,417.7429 C556.94,460.6729 604.0365,509.1461 634.7165,540.7361" fill="none" id="EMBED_CLI-to-LLAMA_EMBED_CLI" style="stroke:#1A1D24;stroke-width:1;stroke-dasharray:7,7;"/><polygon fill="#1A1D24" points="638.2,544.3229,634.7992,535.0798,634.7165,540.7361,629.0603,540.6534,638.2,544.3229" style="stroke:#1A1D24;stroke-width:1;stroke-linejoin:miter;stroke-miterlimit:10;"/><text fill="#000000" font-family="'Inter, Helvetica, sans-serif'" font-size="12" lengthAdjust="spacing" textLength="148.5985" x="582" y="474.5676">spawn one-shot par appel</text></g><!--link EMBED_LC to GMN29--><g class="link" data-entity-1="ent0008" data-entity-2="ent0030" data-link-type="association" data-source-line="40" id="lnk31"><path d="M525.98,625.5729 C543.39,635.2829 561.33,645.5229 578,655.4429 C607.92,673.2429 640.75,694.1929 666.99,711.2929" fill="none" id="EMBED_LC-GMN29" style="stroke:#1A1D24;stroke-width:1;stroke-dasharray:7,7;"/></g><!--link EMBED_CLI to GMN32--><g class="link" data-entity-1="ent0009" data-entity-2="ent0033" data-link-type="association" data-source-line="47" id="lnk34"><path d="M551.76,410.4529 C557.5,412.9929 563.27,415.3529 569,417.4429 C641.06,443.7729 663.89,431.7829 739,447.4429 C851.03,470.7929 975.68,500.6829 1074.96,525.4329" fill="none" id="EMBED_CLI-GMN32" style="stroke:#1A1D24;stroke-width:1;stroke-dasharray:7,7;"/></g><?plantuml-src XLHTZw8m57tlh-ZuecOZhCpkPkB398XiD44nYDbiOa8gL6q6YYdLhDdiVz-MeeBIp1FjlUUUU-u7VI4qJay9XePXHjMvC0j-IR51JbaANbe1AEOvAnG2SC9J35TX4BdpyMHcH-4iz5m0ZYZ-G7iCEmMBpGmHQcPvWjF3QMjsu5y0OPndnvnYoc6d5Yq-xYJod0v41RnUFa4xtgm65xScFaKd6X_cClluiaJyiA6zCq5GsGrUz3TKdN4olenW5sTRd2IOTJSqFXKypsosBuHzC50UGlVTCg5dhnVEj9dDbH0d9U8Yyh3yn0NSB0DLgcaOBk7INuNGF0_D6sFHBC5TX4tUYid9wOxi1TE66fN9hUJAqg3vR1-Z0gzPMl873lW7G7ipdQaTHBRdbS3hHOCD_7NeAaPv0k2AXuF1-xqAEAflHk1wAecuWpAkH0UEWE7T3iUSd76Wn2yHGrbXN4S1W43TgJqPya5eCkfcY8erIyIili0TIN4ru0ApCsQ3hTX2dFHbj66yDzfxOy1_E6OKfIN5LZKBzXB2XA0-0BUCChsQ-7DPgwNzQn7DVe8AK68zUrwjg0X8KvIXWPAreRLLWhrZpZXy-_esx8Dwp4Ev3na3rvxyZfQ1FtQR4Xzgh0e23VEpl9Q5rEs92hp-T3MQyjUxprus_C6hQvo_S5TJFmI0vXn3HlO73lFT4pUiHo_yq9NMo1lg79REyQfpV0EO9b2ggBHiSouU02cczXWzXdfEkmXfjpJsLutzKmNQHbZQJbZQLbZQNbXIYixpNUlvyIY_RPXjfPVUzYugbwLtlTwJ_WS0?></g></svg>