<svg xmlns="http://www.w3.org/2000/svg" xmlns:xlink="http://www.w3.org/1999/xlink" contentStyleType="text/css" data-diagram-type="DESCRIPTION" height="990px" preserveAspectRatio="none" style="width:1294px;height:990px;background:#F4EEE3;" version="1.1" viewBox="0 0 1294 990" width="1294px" zoomAndPan="magnify"><?plantuml 1.2026.4?><defs/><g><rect fill="#F4EEE3" height="990" style="stroke:none;stroke-width:1;" width="1294" x="0" y="0"/><g class="title" data-source-line="4"><text fill="#000000" font-family="'Inter, Helvetica, sans-serif'" font-size="14" font-weight="700" lengthAdjust="spacing" textLength="413.7092" x="437.026" y="23.5623">Embedder &#8212; double mode : serveur (interactif) + CLI (bulk)</text></g><!--cluster src/main/modelhub/--><g class="cluster" data-qualified-name="src.main.modelhub." data-source-line="6" id="ent0008"><path d="M105,238.4429 L223.4744,238.4429 A6,6 0 0 1 227.4744,242.4429 L234.4744,258.9652 L564,258.9652 A4,4 0 0 1 568,262.9652 L568,810.4429 A4,4 0 0 1 564,814.4429 L105,814.4429 A4,4 0 0 1 101,810.4429 L101,242.4429 A4,4 0 0 1 105,238.4429" fill="#F4EEE3" style="stroke:#C68A3A;stroke-width:1.5;"/><line style="stroke:#C68A3A;stroke-width:1.5;" x1="101" x2="234.4744" y1="258.9652" y2="258.9652"/><text fill="#0E1014" font-family="'Inter, Helvetica, sans-serif'" font-size="12" font-weight="700" lengthAdjust="spacing" textLength="120.4744" x="105" y="252.0676">src/main/modelhub/</text></g><!--entity EMBED_LC--><g class="entity" data-qualified-name="src.main.modelhub..EMBED_LC" data-source-line="7" id="ent0009"><rect fill="#FFFFFF" height="102.6118" rx="4" ry="4" style="stroke:#0E1014;stroke-width:0.5;" width="234.3303" x="315" y="526.9429"/><rect fill="#FFFFFF" height="10" style="stroke:#0E1014;stroke-width:0.5;" width="15" x="529.3303" y="531.9429"/><rect fill="#FFFFFF" height="2" style="stroke:#0E1014;stroke-width:0.5;" width="4" x="527.3303" y="533.9429"/><rect fill="#FFFFFF" height="2" style="stroke:#0E1014;stroke-width:0.5;" width="4" x="527.3303" y="537.9429"/><text fill="#0E1014" font-family="'Inter, Helvetica, sans-serif'" font-size="12" lengthAdjust="spacing" textLength="122.9798" x="330" y="558.5676">embedderLifecycle.ts</text><text fill="#0E1014" font-family="'Inter, Helvetica, sans-serif'" font-size="12" lengthAdjust="spacing" textLength="194.3303" x="330" y="573.0899">&#8226; ensureEmbedderReady(filePath)</text><text fill="#0E1014" font-family="'Inter, Helvetica, sans-serif'" font-size="12" lengthAdjust="spacing" textLength="146.3315" x="330" y="587.6123">&#8226; promesse de lancement</text><text fill="#0E1014" font-family="'Inter, Helvetica, sans-serif'" font-size="12" lengthAdjust="spacing" textLength="157.0017" x="336.7498" y="602.1347">in-flight (concurrency-safe)</text><text fill="#0E1014" font-family="'Inter, Helvetica, sans-serif'" font-size="12" lengthAdjust="spacing" textLength="161.5697" x="330" y="616.657">&#8226; stopManagedEmbedders()</text></g><!--entity EMBED_CLI--><g class="entity" data-qualified-name="src.main.modelhub..EMBED_CLI" data-source-line="8" id="ent0010"><rect fill="#FFFFFF" height="146.1789" rx="4" ry="4" style="stroke:#0E1014;stroke-width:0.5;" width="212.5297" x="338.5" y="271.4429"/><rect fill="#FFFFFF" height="10" style="stroke:#0E1014;stroke-width:0.5;" width="15" x="531.0297" y="276.4429"/><rect fill="#FFFFFF" height="2" style="stroke:#0E1014;stroke-width:0.5;" width="4" x="529.0297" y="278.4429"/><rect fill="#FFFFFF" height="2" style="stroke:#0E1014;stroke-width:0.5;" width="4" x="529.0297" y="282.4429"/><text fill="#0E1014" font-family="'Inter, Helvetica, sans-serif'" font-size="12" lengthAdjust="spacing" textLength="86.5716" x="353.5" y="303.0676">embedderCli.ts</text><text fill="#0E1014" font-family="'Inter, Helvetica, sans-serif'" font-size="12" lengthAdjust="spacing" textLength="78.9355" x="353.5" y="317.5899">(2026-05-23)</text><text fill="#0E1014" font-family="'Inter, Helvetica, sans-serif'" font-size="12" lengthAdjust="spacing" textLength="148.9394" x="353.5" y="332.1123">&#8226; embedViaLlamaCli(opts)</text><text fill="#0E1014" font-family="'Inter, Helvetica, sans-serif'" font-size="12" lengthAdjust="spacing" textLength="126.5422" x="360.2498" y="346.6347">spawn &#8594; JSON &#8594; exit</text><text fill="#0E1014" font-family="'Inter, Helvetica, sans-serif'" font-size="12" lengthAdjust="spacing" textLength="147.0985" x="353.5" y="361.157">&#8226; resolveEmbedderCliFn()</text><text fill="#0E1014" font-family="'Inter, Helvetica, sans-serif'" font-size="12" lengthAdjust="spacing" textLength="137.9112" x="360.2498" y="375.6794">d&#233;rive llama-embedding</text><text fill="#0E1014" font-family="'Inter, Helvetica, sans-serif'" font-size="12" lengthAdjust="spacing" textLength="165.7799" x="360.2498" y="390.2017">depuis le runner llama-server</text><text fill="#0E1014" font-family="'Inter, Helvetica, sans-serif'" font-size="12" lengthAdjust="spacing" textLength="169.0695" x="353.5" y="404.7241">&#8226; deriveLlamaEmbeddingPath</text></g><!--entity LAUNCH--><g class="entity" data-qualified-name="src.main.modelhub..LAUNCH" data-source-line="9" id="ent0011"><rect fill="#FFFFFF" height="88.0894" rx="4" ry="4" style="stroke:#0E1014;stroke-width:0.5;" width="195.0415" x="354.5" y="710.4429"/><rect fill="#FFFFFF" height="10" style="stroke:#0E1014;stroke-width:0.5;" width="15" x="529.5415" y="715.4429"/><rect fill="#FFFFFF" height="2" style="stroke:#0E1014;stroke-width:0.5;" width="4" x="527.5415" y="717.4429"/><rect fill="#FFFFFF" height="2" style="stroke:#0E1014;stroke-width:0.5;" width="4" x="527.5415" y="721.4429"/><text fill="#0E1014" font-family="'Inter, Helvetica, sans-serif'" font-size="12" lengthAdjust="spacing" textLength="112.8381" x="369.5" y="742.0676">launchModelByPath</text><text fill="#0E1014" font-family="'Inter, Helvetica, sans-serif'" font-size="12" lengthAdjust="spacing" textLength="79.7025" x="369.5" y="756.5899">(via launch.ts)</text><text fill="#0E1014" font-family="'Inter, Helvetica, sans-serif'" font-size="12" lengthAdjust="spacing" textLength="136.5306" x="369.5" y="771.1123">launchedBy: 'embedder'</text><text fill="#0E1014" font-family="'Inter, Helvetica, sans-serif'" font-size="12" lengthAdjust="spacing" textLength="155.0415" x="369.5" y="785.6347">customArgs: '--embedding'</text></g><!--entity EMBED_CLIENT--><g class="entity" data-qualified-name="src.main.modelhub..EMBED_CLIENT" data-source-line="10" id="ent0012"><rect fill="#FFFFFF" height="73.5671" rx="4" ry="4" style="stroke:#0E1014;stroke-width:0.5;" width="201.7913" x="117" y="717.4429"/><rect fill="#FFFFFF" height="10" style="stroke:#0E1014;stroke-width:0.5;" width="15" x="298.7913" y="722.4429"/><rect fill="#FFFFFF" height="2" style="stroke:#0E1014;stroke-width:0.5;" width="4" x="296.7913" y="724.4429"/><rect fill="#FFFFFF" height="2" style="stroke:#0E1014;stroke-width:0.5;" width="4" x="296.7913" y="728.4429"/><text fill="#0E1014" font-family="'Inter, Helvetica, sans-serif'" font-size="12" lengthAdjust="spacing" textLength="72.2879" x="132" y="749.0676">EmbedClient</text><text fill="#0E1014" font-family="'Inter, Helvetica, sans-serif'" font-size="12" lengthAdjust="spacing" textLength="106.3609" x="132" y="763.5899">(routing/embed.ts)</text><text fill="#0E1014" font-family="'Inter, Helvetica, sans-serif'" font-size="12" lengthAdjust="spacing" textLength="161.7913" x="132" y="778.1123">HTTP POST /v1/embeddings</text></g><!--entity RC--><g class="entity" data-qualified-name="src.main.modelhub..RC" data-source-line="11" id="ent0013"><rect fill="#FFFFFF" height="73.5671" rx="4" ry="4" style="stroke:#0E1014;stroke-width:0.5;" width="185.8883" x="117" y="307.4429"/><rect fill="#FFFFFF" height="10" style="stroke:#0E1014;stroke-width:0.5;" width="15" x="282.8883" y="312.4429"/><rect fill="#FFFFFF" height="2" style="stroke:#0E1014;stroke-width:0.5;" width="4" x="280.8883" y="314.4429"/><rect fill="#FFFFFF" height="2" style="stroke:#0E1014;stroke-width:0.5;" width="4" x="280.8883" y="318.4429"/><text fill="#0E1014" font-family="'Inter, Helvetica, sans-serif'" font-size="12" lengthAdjust="spacing" textLength="91.4806" x="132" y="339.0676">routingConfig.ts</text><text fill="#0E1014" font-family="'Inter, Helvetica, sans-serif'" font-size="12" lengthAdjust="spacing" textLength="135.3374" x="132" y="353.5899">.routingEmbedderPath /</text><text fill="#0E1014" font-family="'Inter, Helvetica, sans-serif'" font-size="12" lengthAdjust="spacing" textLength="145.8883" x="132" y="368.1123">.routingEmbedderBaseUrl</text></g><!--entity USER--><g class="entity" data-qualified-name="USER" data-source-line="4" id="ent0001"><ellipse cx="663.8146" cy="73.4429" fill="#FFFFFF" rx="8" ry="8" style="stroke:#0E1014;stroke-width:0.5;"/><path d="M663.8146,81.4429 L663.8146,108.4429 M650.8146,89.4429 L676.8146,89.4429 M663.8146,108.4429 L650.8146,123.4429 M663.8146,108.4429 L676.8146,123.4429" fill="none" style="stroke:#0E1014;stroke-width:0.5;"/><text fill="#000000" font-family="'Inter, Helvetica, sans-serif'" font-size="12" lengthAdjust="spacing" textLength="57.6292" x="635" y="136.5676">Utilisateur</text></g><!--entity MCP_CLIENT--><g class="entity" data-qualified-name="MCP_CLIENT" data-source-line="5" id="ent0002"><ellipse cx="769.0757" cy="51.9429" fill="#FFFFFF" rx="8" ry="8" style="stroke:#0E1014;stroke-width:0.5;"/><path d="M769.0757,59.9429 L769.0757,86.9429 M756.0757,67.9429 L782.0757,67.9429 M769.0757,86.9429 L756.0757,101.9429 M769.0757,86.9429 L782.0757,101.9429" fill="none" style="stroke:#0E1014;stroke-width:0.5;"/><text fill="#000000" font-family="'Inter, Helvetica, sans-serif'" font-size="12" lengthAdjust="spacing" textLength="63.1859" x="728.5" y="115.0676">Client MCP</text><text fill="#000000" font-family="'Inter, Helvetica, sans-serif'" font-size="12" lengthAdjust="spacing" textLength="81.1513" x="728.5" y="129.5899">(Claude Code,</text><text fill="#000000" font-family="'Inter, Helvetica, sans-serif'" font-size="12" lengthAdjust="spacing" textLength="41.4194" x="728.5" y="144.1123">Cursor,</text><text fill="#000000" font-family="'Inter, Helvetica, sans-serif'" font-size="12" lengthAdjust="spacing" textLength="76.4299" x="728.5" y="158.6347">deer-flow, &#8230;)</text></g><!--entity LLAMA_CHAT--><g class="entity" data-qualified-name="LLAMA_CHAT" data-source-line="6" id="ent0003"><polygon fill="#1A1D24" points="844.5,82.9429,854.5,72.9429,963.3503,72.9429,963.3503,121.9876,953.3503,131.9876,844.5,131.9876,844.5,82.9429" style="stroke:#0E1014;stroke-width:0.5;stroke-linejoin:miter;stroke-miterlimit:10;"/><line style="stroke:#0E1014;stroke-width:0.5;" x1="953.3503" x2="963.3503" y1="82.9429" y2="72.9429"/><line style="stroke:#0E1014;stroke-width:0.5;" x1="844.5" x2="953.3503" y1="82.9429" y2="82.9429"/><line style="stroke:#0E1014;stroke-width:0.5;" x1="953.3503" x2="953.3503" y1="82.9429" y2="131.9876"/><text fill="#F4EEE3" font-family="'Inter, Helvetica, sans-serif'" font-size="12" lengthAdjust="spacing" textLength="71.0436" x="859.5" y="104.5676">llama-server</text><text fill="#F4EEE3" font-family="'Inter, Helvetica, sans-serif'" font-size="12" lengthAdjust="spacing" textLength="78.8503" x="859.5" y="119.0899">(mod&#232;le chat)</text></g><!--entity LLAMA_EMBED--><g class="entity" data-qualified-name="LLAMA_EMBED" data-source-line="7" id="ent0004"><polygon fill="#1A1D24" points="368,901.4429,378,891.4429,536.2297,891.4429,536.2297,955.01,526.2297,965.01,368,965.01,368,901.4429" style="stroke:#0E1014;stroke-width:0.5;stroke-linejoin:miter;stroke-miterlimit:10;"/><line style="stroke:#0E1014;stroke-width:0.5;" x1="526.2297" x2="536.2297" y1="901.4429" y2="891.4429"/><line style="stroke:#0E1014;stroke-width:0.5;" x1="368" x2="526.2297" y1="901.4429" y2="901.4429"/><line style="stroke:#0E1014;stroke-width:0.5;" x1="526.2297" x2="526.2297" y1="901.4429" y2="965.01"/><text fill="#F4EEE3" font-family="'Inter, Helvetica, sans-serif'" font-size="12" lengthAdjust="spacing" textLength="71.0436" x="383" y="923.0676">llama-server</text><text fill="#F4EEE3" font-family="'Inter, Helvetica, sans-serif'" font-size="12" lengthAdjust="spacing" textLength="74.981" x="383" y="937.5899">--embedding</text><text fill="#F4EEE3" font-family="'Inter, Helvetica, sans-serif'" font-size="12" lengthAdjust="spacing" textLength="128.2297" x="383" y="952.1123">(embedder de routing)</text></g><!--entity PYTHON_SANDBOX--><g class="entity" data-qualified-name="PYTHON_SANDBOX" data-source-line="8" id="ent0005"><polygon fill="#1A1D24" points="586.5,324.9429,596.5,314.9429,741.2471,314.9429,741.2471,363.9876,731.2471,373.9876,586.5,373.9876,586.5,324.9429" style="stroke:#0E1014;stroke-width:0.5;stroke-linejoin:miter;stroke-miterlimit:10;"/><line style="stroke:#0E1014;stroke-width:0.5;" x1="731.2471" x2="741.2471" y1="324.9429" y2="314.9429"/><line style="stroke:#0E1014;stroke-width:0.5;" x1="586.5" x2="731.2471" y1="324.9429" y2="324.9429"/><line style="stroke:#0E1014;stroke-width:0.5;" x1="731.2471" x2="731.2471" y1="324.9429" y2="373.9876"/><text fill="#F4EEE3" font-family="'Inter, Helvetica, sans-serif'" font-size="12" lengthAdjust="spacing" textLength="47.2659" x="601.5" y="346.5676">python3</text><text fill="#F4EEE3" font-family="'Inter, Helvetica, sans-serif'" font-size="12" lengthAdjust="spacing" textLength="114.7471" x="601.5" y="361.0899">(sandbox&#233;, slice 2d)</text></g><!--entity SIDECARS--><g class="entity" data-qualified-name="SIDECARS" data-source-line="9" id="ent0006"><path d="M776.5,317.9429 C776.5,307.9429 821.1781,307.9429 821.1781,307.9429 C821.1781,307.9429 865.8562,307.9429 865.8562,317.9429 L865.8562,370.51 C865.8562,380.51 821.1781,380.51 821.1781,380.51 C821.1781,380.51 776.5,380.51 776.5,370.51 L776.5,317.9429" fill="#E6DFD2" style="stroke:#0E1014;stroke-width:0.5;"/><path d="M776.5,317.9429 C776.5,327.9429 821.1781,327.9429 821.1781,327.9429 C821.1781,327.9429 865.8562,327.9429 865.8562,317.9429" fill="none" style="stroke:#0E1014;stroke-width:0.5;"/><text fill="#000000" font-family="'Inter, Helvetica, sans-serif'" font-size="12" lengthAdjust="spacing" textLength="69.3562" x="786.5" y="343.5676">sidecars .ts/</text><text fill="#000000" font-family="'Inter, Helvetica, sans-serif'" font-size="12" lengthAdjust="spacing" textLength="66.9869" x="786.5" y="358.0899">(signatures,</text><text fill="#000000" font-family="'Inter, Helvetica, sans-serif'" font-size="12" lengthAdjust="spacing" textLength="57.6633" x="786.5" y="372.6123">autoTags)</text></g><!--entity HF--><g class="entity" data-qualified-name="HF" data-source-line="10" id="ent0007"><path d="M901,325.4429 C901,315.4429 973.9302,315.4429 973.9302,315.4429 C973.9302,315.4429 1046.8605,315.4429 1046.8605,325.4429 L1046.8605,363.4876 C1046.8605,373.4876 973.9302,373.4876 973.9302,373.4876 C973.9302,373.4876 901,373.4876 901,363.4876 L901,325.4429" fill="#E6DFD2" style="stroke:#0E1014;stroke-width:0.5;"/><path d="M901,325.4429 C901,335.4429 973.9302,335.4429 973.9302,335.4429 C973.9302,335.4429 1046.8605,335.4429 1046.8605,325.4429" fill="none" style="stroke:#0E1014;stroke-width:0.5;"/><text fill="#000000" font-family="'Inter, Helvetica, sans-serif'" font-size="12" lengthAdjust="spacing" textLength="78.5264" x="911" y="351.0676">Hugging Face</text><text fill="#000000" font-family="'Inter, Helvetica, sans-serif'" font-size="12" lengthAdjust="spacing" textLength="125.8605" x="911" y="365.5899">(m&#233;tadonn&#233;es seules)</text></g><!--entity CHAR_ALL--><g class="entity" data-qualified-name="CHAR_ALL" data-source-line="14" id="ent0014"><rect fill="#FFFFFF" height="59.0447" rx="4" ry="4" style="stroke:#0E1014;stroke-width:0.5;" width="184.4906" x="7" y="72.9429"/><rect fill="#FFFFFF" height="10" style="stroke:#0E1014;stroke-width:0.5;" width="15" x="171.4906" y="77.9429"/><rect fill="#FFFFFF" height="2" style="stroke:#0E1014;stroke-width:0.5;" width="4" x="169.4906" y="79.9429"/><rect fill="#FFFFFF" height="2" style="stroke:#0E1014;stroke-width:0.5;" width="4" x="169.4906" y="83.9429"/><text fill="#0E1014" font-family="'Inter, Helvetica, sans-serif'" font-size="12" lengthAdjust="spacing" textLength="84.441" x="22" y="104.5676">characterizeAll</text><text fill="#0E1014" font-family="'Inter, Helvetica, sans-serif'" font-size="12" lengthAdjust="spacing" textLength="144.4906" x="22" y="119.0899">(bulk, boucle par mod&#232;le)</text></g><!--entity ROUTE--><g class="entity" data-qualified-name="ROUTE" data-source-line="15" id="ent0015"><rect fill="#FFFFFF" height="59.0447" rx="4" ry="4" style="stroke:#0E1014;stroke-width:0.5;" width="144.5201" x="253.5" y="72.9429"/><rect fill="#FFFFFF" height="10" style="stroke:#0E1014;stroke-width:0.5;" width="15" x="378.0201" y="77.9429"/><rect fill="#FFFFFF" height="2" style="stroke:#0E1014;stroke-width:0.5;" width="4" x="376.0201" y="79.9429"/><rect fill="#FFFFFF" height="2" style="stroke:#0E1014;stroke-width:0.5;" width="4" x="376.0201" y="83.9429"/><text fill="#0E1014" font-family="'Inter, Helvetica, sans-serif'" font-size="12" lengthAdjust="spacing" textLength="88.4978" x="268.5" y="104.5676">routeByVectors</text><text fill="#0E1014" font-family="'Inter, Helvetica, sans-serif'" font-size="12" lengthAdjust="spacing" textLength="104.5201" x="268.5" y="119.0899">(query interactive)</text></g><!--entity LLAMA_EMBED_CLI--><g class="entity" data-qualified-name="LLAMA_EMBED_CLI" data-source-line="29" id="ent0025"><rect fill="#FFFFFF" height="59.0447" rx="4" ry="4" style="stroke:#0E1014;stroke-width:0.5;" width="162.8775" x="584.5" y="548.9429"/><rect fill="#FFFFFF" height="10" style="stroke:#0E1014;stroke-width:0.5;" width="15" x="727.3775" y="553.9429"/><rect fill="#FFFFFF" height="2" style="stroke:#0E1014;stroke-width:0.5;" width="4" x="725.3775" y="555.9429"/><rect fill="#FFFFFF" height="2" style="stroke:#0E1014;stroke-width:0.5;" width="4" x="725.3775" y="559.9429"/><text fill="#0E1014" font-family="'Inter, Helvetica, sans-serif'" font-size="12" lengthAdjust="spacing" textLength="122.8775" x="599.5" y="580.5676">llama-embedding.exe</text><text fill="#0E1014" font-family="'Inter, Helvetica, sans-serif'" font-size="12" lengthAdjust="spacing" textLength="82.2934" x="599.5" y="595.0899">(CLI one-shot)</text></g><g class="entity" data-qualified-name="GMN27" data-source-line="33" id="ent0028"><path d="M782.5,548.4429 L782.5,574.4429 L747.52,578.4429 L782.5,582.4429 L782.5,608.5323 A4,4 0 0 0 786.5,612.5323 L989.2793,612.5323 A4,4 0 0 0 993.2793,608.5323 L993.2793,554.4429 L983.2793,544.4429 L786.5,544.4429 A4,4 0 0 0 782.5,548.4429" fill="#FFFDF6" style="stroke:#C68A3A;stroke-width:0.5;"/><path d="M983.2793,544.4429 L983.2793,552.4429 A2,2 0 0 0 985.2793,554.4429 L993.2793,554.4429 L983.2793,544.4429" fill="#FFFDF6" style="stroke:#C68A3A;stroke-width:0.5;"/><text fill="#0E1014" font-family="'Inter, Helvetica, sans-serif'" font-size="12" lengthAdjust="spacing" textLength="174.3023" x="788.5" y="561.0676">Sibling de llama-server dans le</text><text fill="#0E1014" font-family="'Inter, Helvetica, sans-serif'" font-size="12" lengthAdjust="spacing" textLength="189.3872" x="788.5" y="575.5899">m&#234;me dossier de build llama.cpp.</text><text fill="#0E1014" font-family="'Inter, Helvetica, sans-serif'" font-size="12" lengthAdjust="spacing" textLength="189.7793" x="788.5" y="590.1123">Spawn&#233; par appel, imprime JSON</text><text fill="#0E1014" font-family="'Inter, Helvetica, sans-serif'" font-size="12" lengthAdjust="spacing" textLength="88.3784" x="788.5" y="604.6347">sur stdout, exit.</text></g><g class="entity" data-qualified-name="GMN30" data-source-line="40" id="ent0031"><path d="M584.5,716.9429 L584.5,791.5547 A4,4 0 0 0 588.5,795.5547 L845.9427,795.5547 A4,4 0 0 0 849.9427,791.5547 L849.9427,722.9429 L839.9427,712.9429 L588.5,712.9429 A4,4 0 0 0 584.5,716.9429" fill="#FFFDF6" style="stroke:#C68A3A;stroke-width:0.5;"/><path d="M839.9427,712.9429 L839.9427,720.9429 A2,2 0 0 0 841.9427,722.9429 L849.9427,722.9429 L839.9427,712.9429" fill="#FFFDF6" style="stroke:#C68A3A;stroke-width:1;"/><text fill="#0E1014" font-family="'Inter, Helvetica, sans-serif'" font-size="12" lengthAdjust="spacing" textLength="202.955" x="590.5" y="729.5676">Mode SERVEUR (routing interactif) :</text><text fill="#0E1014" font-family="'Inter, Helvetica, sans-serif'" font-size="12" lengthAdjust="spacing" textLength="244.4427" x="590.5" y="744.0899">processus r&#233;sident, queries basse-latence,</text><text fill="#0E1014" font-family="'Inter, Helvetica, sans-serif'" font-size="12" lengthAdjust="spacing" textLength="201.8812" x="590.5" y="758.6123">r&#233;utilis&#233; entre appels. Idempotent +</text><text fill="#0E1014" font-family="'Inter, Helvetica, sans-serif'" font-size="12" lengthAdjust="spacing" textLength="182.4158" x="590.5" y="773.1347">crash-safe (boot crash &#8658; null &#8658;</text><text fill="#0E1014" font-family="'Inter, Helvetica, sans-serif'" font-size="12" lengthAdjust="spacing" textLength="70.2255" x="590.5" y="787.657">fallback R5).</text></g><g class="entity" data-qualified-name="GMN33" data-source-line="48" id="ent0034"><path d="M1028.5,526.4429 L1028.5,630.0994 A4,4 0 0 0 1032.5,634.0994 L1275.7612,634.0994 A4,4 0 0 0 1279.7612,630.0994 L1279.7612,532.4429 L1269.7612,522.4429 L1032.5,522.4429 A4,4 0 0 0 1028.5,526.4429" fill="#FFFDF6" style="stroke:#C68A3A;stroke-width:0.5;"/><path d="M1269.7612,522.4429 L1269.7612,530.4429 A2,2 0 0 0 1271.7612,532.4429 L1279.7612,532.4429 L1269.7612,522.4429" fill="#FFFDF6" style="stroke:#C68A3A;stroke-width:1;"/><text fill="#0E1014" font-family="'Inter, Helvetica, sans-serif'" font-size="12" lengthAdjust="spacing" textLength="184.6998" x="1034.5" y="539.0676">Mode CLI (caract&#233;risation bulk) :</text><text fill="#0E1014" font-family="'Inter, Helvetica, sans-serif'" font-size="12" lengthAdjust="spacing" textLength="203.9777" x="1034.5" y="553.5899">spawn &#8594; embed &#8594; exit par mod&#232;le.</text><text fill="#0E1014" font-family="'Inter, Helvetica, sans-serif'" font-size="12" lengthAdjust="spacing" textLength="212.79" x="1034.5" y="568.1123">Z&#233;ro RAM r&#233;sidente entre mod&#232;les &#8212;</text><text fill="#0E1014" font-family="'Inter, Helvetica, sans-serif'" font-size="12" lengthAdjust="spacing" textLength="187.4952" x="1034.5" y="582.6347">le mod&#232;le de test est le seul gros</text><text fill="#0E1014" font-family="'Inter, Helvetica, sans-serif'" font-size="12" lengthAdjust="spacing" textLength="196.0689" x="1034.5" y="597.157">GGUF charg&#233; &#224; un moment donn&#233;.</text><text fill="#0E1014" font-family="'Inter, Helvetica, sans-serif'" font-size="12" lengthAdjust="spacing" textLength="230.2612" x="1034.5" y="611.6794">Les deux modes utilisent le M&#202;ME GGUF</text><text fill="#0E1014" font-family="'Inter, Helvetica, sans-serif'" font-size="12" lengthAdjust="spacing" textLength="208.0685" x="1034.5" y="626.2017">d'embedder (routingEmbedderPath).</text></g><g class="entity" data-qualified-name="GMN36" data-source-line="58" id="ent0037"><path d="M571,905.4429 L571,924.4429 L536.14,928.4429 L571,932.4429 L571,951.01 A4,4 0 0 0 575,955.01 L805.324,955.01 A4,4 0 0 0 809.324,951.01 L809.324,911.4429 L799.324,901.4429 L575,901.4429 A4,4 0 0 0 571,905.4429" fill="#FFFDF6" style="stroke:#C68A3A;stroke-width:0.5;"/><path d="M799.324,901.4429 L799.324,909.4429 A2,2 0 0 0 801.324,911.4429 L809.324,911.4429 L799.324,901.4429" fill="#FFFDF6" style="stroke:#C68A3A;stroke-width:0.5;"/><text fill="#0E1014" font-family="'Inter, Helvetica, sans-serif'" font-size="12" lengthAdjust="spacing" textLength="193.478" x="577" y="918.0676">Visible dans RunningModelsPanel,</text><text fill="#0E1014" font-family="'Inter, Helvetica, sans-serif'" font-size="12" lengthAdjust="spacing" textLength="217.324" x="577" y="932.5899">group&#233; par `launchedBy: 'embedder'`,</text><text fill="#0E1014" font-family="'Inter, Helvetica, sans-serif'" font-size="12" lengthAdjust="spacing" textLength="142.5475" x="577" y="947.1123">&#224; c&#244;t&#233; des mod&#232;les chat.</text></g><!--link CHAR_ALL to EMBED_CLI--><g class="link" data-entity-1="ent0014" data-entity-2="ent0010" data-link-type="dependency" data-source-line="17" id="lnk16"><path d="M86.72,132.0629 C77.28,159.1029 69.29,198.9229 92,222.4429 C100.8,231.5629 308.25,225.6829 320,230.4429 C342.64,239.6129 360.0839,251.4988 378.3339,267.8288" fill="none" id="CHAR_ALL-to-EMBED_CLI" style="stroke:#1A1D24;stroke-width:1;"/><polygon fill="#1A1D24" points="382.06,271.1629,378.0203,262.1806,378.3339,267.8288,372.6857,268.1424,382.06,271.1629" style="stroke:#1A1D24;stroke-width:1;stroke-linejoin:miter;stroke-miterlimit:10;"/><text fill="#000000" font-family="'Inter, Helvetica, sans-serif'" font-size="12" lengthAdjust="spacing" textLength="185.3134" x="93" y="204.0676">resolveEmbedderCliFn() une fois</text><text fill="#000000" font-family="'Inter, Helvetica, sans-serif'" font-size="12" lengthAdjust="spacing" textLength="141.9339" x="114.6898" y="218.5899">puis embed() par mod&#232;le</text></g><!--link ROUTE to RC--><g class="link" data-entity-1="ent0015" data-entity-2="ent0013" data-link-type="dependency" data-source-line="18" id="lnk17"><path d="M318.78,132.1029 C312.08,156.6929 301.03,192.7629 287,222.4429 C272.84,252.3829 255.4566,279.7623 239.2866,303.1123" fill="none" id="ROUTE-to-RC" style="stroke:#1A1D24;stroke-width:1;"/><polygon fill="#1A1D24" points="236.44,307.2229,244.8523,302.1011,239.2866,303.1123,238.2754,297.5466,236.44,307.2229" style="stroke:#1A1D24;stroke-width:1;stroke-linejoin:miter;stroke-miterlimit:10;"/><text fill="#000000" font-family="'Inter, Helvetica, sans-serif'" font-size="12" lengthAdjust="spacing" textLength="197.3984" x="300" y="211.5676">effectiveRoutingParams.embedder</text></g><!--link RC to EMBED_LC--><g class="link" data-entity-1="ent0013" data-entity-2="ent0009" data-link-type="dependency" data-source-line="20" id="lnk18"><path d="M244.69,381.6929 C282,420.6929 338.1628,479.3807 380.1028,523.2007" fill="none" id="RC-to-EMBED_LC" style="stroke:#1A1D24;stroke-width:1;"/><polygon fill="#1A1D24" points="383.56,526.8129,380.2268,517.5452,380.1028,523.2007,374.4473,523.0767,383.56,526.8129" style="stroke:#1A1D24;stroke-width:1;stroke-linejoin:miter;stroke-miterlimit:10;"/><text fill="#000000" font-family="'Inter, Helvetica, sans-serif'" font-size="12" lengthAdjust="spacing" textLength="85.2081" x="352.3749" y="460.0676">kind:'managed'</text><text fill="#000000" font-family="'Inter, Helvetica, sans-serif'" font-size="12" lengthAdjust="spacing" textLength="54.135" x="367.9115" y="474.5899">+ filePath</text><text fill="#000000" font-family="'Inter, Helvetica, sans-serif'" font-size="12" lengthAdjust="spacing" textLength="91.9579" x="349" y="489.1123">(server-backed)</text></g><!--link RC to EMBED_CLIENT--><g class="link" data-entity-1="ent0013" data-entity-2="ent0012" data-link-type="dependency" data-source-line="21" id="lnk19"><path d="M205.02,381.5529 C198.19,436.3329 187.68,543.6529 196,634.4429 C198.57,662.4829 203.4294,688.8845 208.4694,712.3345" fill="none" id="RC-to-EMBED_CLIENT" style="stroke:#1A1D24;stroke-width:1;stroke-dasharray:7,7;"/><polygon fill="#1A1D24" points="209.52,717.2229,211.5396,707.5833,208.4694,712.3345,203.7182,709.2643,209.52,717.2229" style="stroke:#1A1D24;stroke-width:1;stroke-linejoin:miter;stroke-miterlimit:10;"/><text fill="#000000" font-family="'Inter, Helvetica, sans-serif'" font-size="12" lengthAdjust="spacing" textLength="78.3901" x="207.7298" y="575.5676">kind:'external'</text><text fill="#000000" font-family="'Inter, Helvetica, sans-serif'" font-size="12" lengthAdjust="spacing" textLength="99.8497" x="197" y="590.0899">+ baseUrl (direct)</text></g><!--link EMBED_LC to LAUNCH--><g class="link" data-entity-1="ent0009" data-entity-2="ent0011" data-link-type="dependency" data-source-line="23" id="lnk20"><path d="M437.84,630.2429 C440.76,655.6129 443.6805,681.0254 446.4605,705.2754" fill="none" id="EMBED_LC-to-LAUNCH" style="stroke:#1A1D24;stroke-width:1;"/><polygon fill="#1A1D24" points="447.03,710.2429,449.9789,700.8459,446.4605,705.2754,442.031,701.757,447.03,710.2429" style="stroke:#1A1D24;stroke-width:1;stroke-linejoin:miter;stroke-miterlimit:10;"/><text fill="#000000" font-family="'Inter, Helvetica, sans-serif'" font-size="12" lengthAdjust="spacing" textLength="125.6729" x="444" y="677.0676">spawn si pas en cours</text></g><!--link LAUNCH to LLAMA_EMBED--><g class="link" data-entity-1="ent0011" data-entity-2="ent0004" data-link-type="dependency" data-source-line="24" id="lnk21"><path d="M452,798.8429 C452,827.4029 452,859.3529 452,886.3129" fill="none" id="LAUNCH-to-LLAMA_EMBED" style="stroke:#1A1D24;stroke-width:1;"/><polygon fill="#1A1D24" points="452,891.3129,456,882.3129,452,886.3129,448,882.3129,452,891.3129" style="stroke:#1A1D24;stroke-width:1;stroke-linejoin:miter;stroke-miterlimit:10;"/><text fill="#000000" font-family="'Inter, Helvetica, sans-serif'" font-size="12" lengthAdjust="spacing" textLength="71.0436" x="488.2747" y="843.0676">llama-server</text><text fill="#000000" font-family="'Inter, Helvetica, sans-serif'" font-size="12" lengthAdjust="spacing" textLength="141.593" x="453" y="857.5899">--embedding (port 8081)</text></g><!--link LLAMA_EMBED to EMBED_LC--><g class="link" data-entity-1="ent0004" data-entity-2="ent0009" data-link-type="dependency" data-source-line="25" id="lnk22"><path d="M536.07,896.8729 C542.11,894.9529 548.13,893.1229 554,891.4429 C690.98,852.3329 777.77,933.4829 867,822.4429 C898.18,783.6429 897.57,749.7229 867,710.4429 C782.52,601.8929 697.67,677.3829 567,634.4429 C561.11,632.5029 559.8171,632.129 553.7871,629.969" fill="none" id="LLAMA_EMBED-to-EMBED_LC" style="stroke:#1A1D24;stroke-width:1;"/><polygon fill="#1A1D24" points="549.08,628.2829,556.2039,635.0836,553.7871,629.969,558.9017,627.5522,549.08,628.2829" style="stroke:#1A1D24;stroke-width:1;stroke-linejoin:miter;stroke-miterlimit:10;"/><text fill="#000000" font-family="'Inter, Helvetica, sans-serif'" font-size="12" lengthAdjust="spacing" textLength="82.2934" x="939.7999" y="751.5676">/v1/models OK</text><text fill="#000000" font-family="'Inter, Helvetica, sans-serif'" font-size="12" lengthAdjust="spacing" textLength="179.8931" x="891" y="766.0899">(sonde readiness, timeout 60 s)</text></g><!--link EMBED_LC to EMBED_CLIENT--><g class="link" data-entity-1="ent0009" data-entity-2="ent0012" data-link-type="dependency" data-source-line="26" id="lnk23"><path d="M369.81,630.0029 C335.38,658.0029 297.28,688.9892 266.19,714.2592" fill="none" id="EMBED_LC-to-EMBED_CLIENT" style="stroke:#1A1D24;stroke-width:1;"/><polygon fill="#1A1D24" points="262.31,717.4129,271.8169,714.8403,266.19,714.2592,266.7711,708.6323,262.31,717.4129" style="stroke:#1A1D24;stroke-width:1;stroke-linejoin:miter;stroke-miterlimit:10;"/><text fill="#000000" font-family="'Inter, Helvetica, sans-serif'" font-size="12" lengthAdjust="spacing" textLength="43.6864" x="326" y="677.0676">baseUrl</text></g><!--link EMBED_CLIENT to LLAMA_EMBED--><g class="link" data-entity-1="ent0012" data-entity-2="ent0004" data-link-type="dependency" data-source-line="27" id="lnk24"><path d="M245.59,791.5829 C263.82,813.7529 289.23,841.5829 316,861.4429 C331.81,873.1729 345.5659,881.4408 363.4259,890.4508" fill="none" id="EMBED_CLIENT-to-LLAMA_EMBED" style="stroke:#1A1D24;stroke-width:1;"/><polygon fill="#1A1D24" points="367.89,892.7029,361.6562,885.0779,363.4259,890.4508,358.053,892.2205,367.89,892.7029" style="stroke:#1A1D24;stroke-width:1;stroke-linejoin:miter;stroke-miterlimit:10;"/><text fill="#000000" font-family="'Inter, Helvetica, sans-serif'" font-size="12" lengthAdjust="spacing" textLength="126.5081" x="317" y="850.5676">POST /v1/embeddings</text></g><!--link EMBED_CLI to LLAMA_EMBED_CLI--><g class="link" data-entity-1="ent0010" data-entity-2="ent0025" data-link-type="dependency" data-source-line="30" id="lnk26"><path d="M513.71,417.5729 C555.91,461.8729 604.1911,512.5528 635.2011,545.1028" fill="none" id="EMBED_CLI-to-LLAMA_EMBED_CLI" style="stroke:#1A1D24;stroke-width:1;stroke-dasharray:7,7;"/><polygon fill="#1A1D24" points="638.65,548.7229,635.3382,539.4476,635.2011,545.1028,629.5459,544.9657,638.65,548.7229" style="stroke:#1A1D24;stroke-width:1;stroke-linejoin:miter;stroke-miterlimit:10;"/><text fill="#000000" font-family="'Inter, Helvetica, sans-serif'" font-size="12" lengthAdjust="spacing" textLength="148.5985" x="582" y="474.5676">spawn one-shot par appel</text></g><!--link EMBED_LC to GMN30--><g class="link" data-entity-1="ent0009" data-entity-2="ent0031" data-link-type="association" data-source-line="40" id="lnk32"><path d="M520.37,630.0829 C539.46,641.2529 559.48,653.1329 578,664.4429 C603.31,679.9029 630.87,697.4129 654.73,712.7829" fill="none" id="EMBED_LC-GMN30" style="stroke:#1A1D24;stroke-width:1;stroke-dasharray:7,7;"/></g><!--link EMBED_CLI to GMN33--><g class="link" data-entity-1="ent0010" data-entity-2="ent0034" data-link-type="association" data-source-line="48" id="lnk35"><path d="M551.76,410.4529 C557.5,412.9929 563.27,415.3529 569,417.4429 C641.06,443.7729 664.16,430.5629 739,447.4429 C861.33,475.0329 891.89,483.2229 1011,522.4429 C1016.68,524.3129 1022.47,526.2829 1028.31,528.3129" fill="none" id="EMBED_CLI-GMN33" style="stroke:#1A1D24;stroke-width:1;stroke-dasharray:7,7;"/></g><?plantuml-src XLRBRXj74BplLxHr4Gc9Izc13KC70nH3Muv9IQ0UXq20FDnjaWFDpcncTXanGG2V4Y178nyGv1Jbd3_Wd-XBKZExV4a2SX103Qjhghfxklb2waILALCSjs_gpwxjYhdYM9QPYbuy2n19OQoh454X2yNKoqQSfcpfuSiVb9foXBFC8F2G7DiPbvOQKXTi4Il7JTgZRlyZDKQbkcr6KIwIMp5Xsd4sQMT2whQFLTDorDwXdoEYn6IvqQmBsk7wfhuSSp9FeBHmr_hXor_4sfMMbqg6BD9vOomLdubYsgmWkJKPEyS4PKheX3DmNciYgLjZ9IVJWXg9qKbfBUjatd9Yp7MeAqm-41eoq-KLhj7S8U6eDpZgVNlJxpuljAjaaDXuTV3gJUlWTUlLDpLbG5n9qLSY4u0rJ5wuffVZSl6ZfeTVlz9tvwSduGFVoQ8Ai-oCcgsC8l2zReImT75lvGpMF66h4Y3r97p5UIaTeIosr1g5gZ2XEBRY1HU2WvZUCjJdRiCZYhPjKebI9zE1hzRHt8FXSoO5LUTni5DzvlHeVaYxowpiNYFBo6dMiHE7yzPQxcwuiD-vFEaURzyMPC5lA5h3ch80l1q2gwkEBoxEwEpq_8BQivVj5QFRjj0xkTZchPcwHe_b91Ghhe-MIVRMgFtq_4WulhGgy0-xqIzHj46RJ8NlTwJr9-ue1Sc-t_TfP4hqBUN2-ZUo-5jnrKVTuyxmfjFlHu-ayT7yYiER0yKF9TivhTxIh8uTdbvUzA9eIK6jrhkrORp2vvk6IiqqDXB4eJr2nd2y8IqAp85ls0KHZ_7k_Bt3AXDdy9YvU5dNA09gVNdVXznAdHxkPjNZGU7tQFaiuQVgmDO88u3Jfe-EutTRjLeny1rCQw42nQZAF3LIQI48KsHrex--QXy_Vi9JSXAUu4-ZxALrKVrrGFOxWyvD20Py-rbiT2KrScCBUdlmzcKpsenvPDOtNfXUZau_UNz6OzXOJ2EfCNhsgP0P8tNqve1SSrlq8zUrnMZh-AdaP_fzgmqVJOEOxnYwV5i0q79JKrGjjC4Q7lgwVNn57dsxokoI8_ICo7F6Jj2cWEKmJitu2I_HkHmfdzAKj_9DgT1-H06HBVx9CAMDSzAVCurAgT8A7ITv7diMV__YVdtnFiaijqXlc9f0O1zWRcCT5VjXViOHwvIykbhZo1GOGLxanWptqupEUyEhtkMGbbE6DhVN8L1O9GdgMJgoYtidKwHwd_pZbEnyvHotb2YmHNWVQ610ewI3NY0jLufTJ1zJHgKANwazFvMiSDEmTx0T3T8Q3kZXjw-aIwNy1w36GYd_OcZuklc_fggS1rTXwIPXAlbLuKGXZQQmXOEfzTu9xR9QF9i3mQV-UqGR6dO6Q_DS-wfHplyI05AjJdmL2tO5-J_ywxXKDB760VNXm-LxykDoWlmi_iHOGfJVpMW1ZHhxE_lWJBcy2xyh75Nfz11m3HQ_3tg11S1qjMHMrTiSuqyJzbodWkTAEkb_nuIk769hWYXiEdScDBeD4CWlyxe5Fp-_vpvx72mbYt-HS_BILoc2uysU_0y0?></g></svg>