<svg xmlns="http://www.w3.org/2000/svg" xmlns:xlink="http://www.w3.org/1999/xlink" contentStyleType="text/css" data-diagram-type="SEQUENCE" height="1755px" preserveAspectRatio="none" style="width:1991px;height:1755px;background:#F4EEE3;" version="1.1" viewBox="0 0 1991 1755" width="1991px" zoomAndPan="magnify"><?plantuml 1.2026.4?><defs/><g><rect fill="#F4EEE3" height="1755" style="stroke:none;stroke-width:1;" width="1991" x="0" y="0"/><g class="title" data-source-line="3"><text fill="#000000" font-family="'Inter, Helvetica, sans-serif'" font-size="14" font-weight="700" lengthAdjust="spacing" textLength="436.1804" x="774.1821" y="28.5623">Embedder &#8212; deux routes (r&#233;&#233;criture single-pass 2026-05-23)</text></g><rect fill="#F4EEE3" height="846.2378" rx="4" ry="4" style="stroke:#C68A3A;stroke-width:1.5;" width="1019.801" x="10" y="175.0323"/><path d="M10,277.1217 L1029.801,277.1217 L1029.801,1017.2701 A4,4 0 0 1 1025.801,1021.2701 L14,1021.2701 A4,4 0 0 1 10,1017.2701 L10,277.1217" fill="#F4EEE3" style="stroke:none;stroke-width:1;"/><rect fill="#F4EEE3" height="670.5813" rx="4" ry="4" style="stroke:#C68A3A;stroke-width:1.5;" width="999.801" x="20" y="343.6888"/><path d="M20,417.2559 L1019.801,417.2559 L1019.801,1010.2701 A4,4 0 0 1 1015.801,1014.2701 L24,1014.2701 A4,4 0 0 1 20,1010.2701 L20,417.2559" fill="#F4EEE3" style="stroke:none;stroke-width:1;"/><rect fill="#F4EEE3" height="339.7907" rx="4" ry="4" style="stroke:#C68A3A;stroke-width:1.5;" width="979.801" x="30" y="625.9571"/><path d="M30,671.0018 L1009.801,671.0018 L1009.801,961.7478 A4,4 0 0 1 1005.801,965.7478 L34,965.7478 A4,4 0 0 1 30,961.7478 L30,671.0018" fill="#F4EEE3" style="stroke:none;stroke-width:1;"/><rect fill="#F4EEE3" height="264.2236" rx="4" ry="4" style="stroke:#C68A3A;stroke-width:1.5;" width="959.801" x="40" y="694.5242"/><rect fill="#F4EEE3" height="205.1789" rx="4" ry="4" style="stroke:#C68A3A;stroke-width:1.5;" width="939.801" x="50" y="746.5689"/><path d="M50,820.136 L989.801,820.136 L989.801,889.7031 A4,4 0 0 1 985.801,893.7031 L54,893.7031 A4,4 0 0 1 50,889.7031 L50,820.136" fill="#F4EEE3" style="stroke:none;stroke-width:1;"/><path d="M50,893.7031 L989.801,893.7031 L989.801,947.7478 A4,4 0 0 1 985.801,951.7478 L54,951.7478 A4,4 0 0 1 50,947.7478 L50,893.7031" fill="#F4EEE3" style="stroke:none;stroke-width:1;"/><rect fill="#F4EEE3" height="303.8354" rx="4" ry="4" style="stroke:#C68A3A;stroke-width:1.5;" width="800.4567" x="979.801" y="1291.5384"/><g class="participant-lifeline" data-entity-uid="part1" data-qualified-name="ROUTE" data-source-line="7" id="part1-lifeline"><g><title>routeByVectors</title><rect fill="#000000" fill-opacity="0.00000" height="1617.998" width="8" x="115.26" y="86.9876"/><line style="stroke:#7A7569;stroke-width:0.5;stroke-dasharray:5,5;" x1="119" x2="119" y1="86.9876" y2="1704.9856"/></g></g><g class="participant-lifeline" data-entity-uid="part2" data-qualified-name="LC" data-source-line="8" id="part2-lifeline"><g><title>embedderLifecycle</title><rect fill="#000000" fill-opacity="0.00000" height="1617.998" width="8" x="379.8505" y="86.9876"/><line style="stroke:#7A7569;stroke-width:0.5;stroke-dasharray:5,5;" x1="383.332" x2="383.332" y1="86.9876" y2="1704.9856"/></g></g><g class="participant-lifeline" data-entity-uid="part3" data-qualified-name="INFLIGHT" data-source-line="9" id="part3-lifeline"><g><title>promesse de</title><rect fill="#000000" fill-opacity="0.00000" height="1617.998" width="8" x="544.8128" y="86.9876"/><line style="stroke:#7A7569;stroke-width:0.5;stroke-dasharray:5,5;" x1="548.4704" x2="548.4704" y1="86.9876" y2="1704.9856"/></g></g><g class="participant-lifeline" data-entity-uid="part4" data-qualified-name="LIST" data-source-line="10" id="part4-lifeline"><g><title>listRunning..</title><rect fill="#000000" fill-opacity="0.00000" height="1617.998" width="8" x="657.6003" y="86.9876"/><line style="stroke:#7A7569;stroke-width:0.5;stroke-dasharray:5,5;" x1="661.1552" x2="661.1552" y1="86.9876" y2="1704.9856"/></g></g><g class="participant-lifeline" data-entity-uid="part5" data-qualified-name="LAUNCH" data-source-line="11" id="part5-lifeline"><g><title>launchModelByPath</title><rect fill="#000000" fill-opacity="0.00000" height="1617.998" width="8" x="773.4645" y="86.9876"/><line style="stroke:#7A7569;stroke-width:0.5;stroke-dasharray:5,5;" x1="777.0454" x2="777.0454" y1="86.9876" y2="1704.9856"/></g></g><g class="participant-lifeline" data-entity-uid="part6" data-qualified-name="EMB_SRV" data-source-line="12" id="part6-lifeline"><g><title>llama-server</title><rect fill="#000000" fill-opacity="0.00000" height="1617.998" width="8" x="911.3423" y="86.9876"/><line style="stroke:#7A7569;stroke-width:0.5;stroke-dasharray:5,5;" x1="914.8835" x2="914.8835" y1="86.9876" y2="1704.9856"/></g></g><g class="participant-lifeline" data-entity-uid="part7" data-qualified-name="CHAR_ALL" data-source-line="59" id="part7-lifeline"><g><title>characterizeAll</title><rect fill="#000000" fill-opacity="0.00000" height="1617.998" width="8" x="1049.7825" y="86.9876"/><line style="stroke:#7A7569;stroke-width:0.5;stroke-dasharray:5,5;" x1="1052.801" x2="1052.801" y1="86.9876" y2="1704.9856"/></g></g><g class="participant-lifeline" data-entity-uid="part8" data-qualified-name="EMB_CLI" data-source-line="60" id="part8-lifeline"><g><title>embedderCli.ts</title><rect fill="#000000" fill-opacity="0.00000" height="1617.998" width="8" x="1327.7704" y="86.9876"/><line style="stroke:#7A7569;stroke-width:0.5;stroke-dasharray:5,5;" x1="1331.4845" x2="1331.4845" y1="86.9876" y2="1704.9856"/></g></g><g class="participant-lifeline" data-entity-uid="part9" data-qualified-name="TMP" data-source-line="61" id="part9-lifeline"><g><title>fichier tmp</title><rect fill="#000000" fill-opacity="0.00000" height="1617.998" width="8" x="1546.1518" y="86.9876"/><line style="stroke:#7A7569;stroke-width:0.5;stroke-dasharray:5,5;" x1="1549.9233" x2="1549.9233" y1="86.9876" y2="1704.9856"/></g></g><g class="participant-lifeline" data-entity-uid="part10" data-qualified-name="EMB_CLI_PROC" data-source-line="62" id="part10-lifeline"><g><title>llama-embedding.exe</title><rect fill="#000000" fill-opacity="0.00000" height="1617.998" width="8" x="1697.819" y="86.9876"/><line style="stroke:#7A7569;stroke-width:0.5;stroke-dasharray:5,5;" x1="1701.3802" x2="1701.3802" y1="86.9876" y2="1704.9856"/></g></g><g class="participant participant-head" data-entity-uid="part1" data-qualified-name="ROUTE" data-source-line="7" id="part1-head"><rect fill="#FFFFFF" height="43.0447" rx="4" ry="4" style="stroke:#0E1014;stroke-width:0.5;" width="118.5201" x="60" y="42.9429"/><text fill="#0E1014" font-family="'Inter, Helvetica, sans-serif'" font-size="12" lengthAdjust="spacing" textLength="88.4978" x="75.0112" y="61.5676">routeByVectors</text><text fill="#0E1014" font-family="'Inter, Helvetica, sans-serif'" font-size="12" lengthAdjust="spacing" textLength="104.5201" x="67" y="76.0899">(query interactive)</text></g><g class="participant participant-tail" data-entity-uid="part1" data-qualified-name="ROUTE" data-source-line="7" id="part1-tail"><rect fill="#FFFFFF" height="43.0447" rx="4" ry="4" style="stroke:#0E1014;stroke-width:0.5;" width="118.5201" x="60" y="1703.9856"/><text fill="#0E1014" font-family="'Inter, Helvetica, sans-serif'" font-size="12" lengthAdjust="spacing" textLength="88.4978" x="75.0112" y="1722.6103">routeByVectors</text><text fill="#0E1014" font-family="'Inter, Helvetica, sans-serif'" font-size="12" lengthAdjust="spacing" textLength="104.5201" x="67" y="1737.1326">(query interactive)</text></g><g class="participant participant-head" data-entity-uid="part2" data-qualified-name="LC" data-source-line="8" id="part2-head"><rect fill="#FFFFFF" height="28.5224" rx="4" ry="4" style="stroke:#0E1014;stroke-width:0.5;" width="123.037" x="322.332" y="57.4652"/><text fill="#0E1014" font-family="'Inter, Helvetica, sans-serif'" font-size="12" lengthAdjust="spacing" textLength="109.037" x="329.332" y="76.0899">embedderLifecycle</text></g><g class="participant participant-tail" data-entity-uid="part2" data-qualified-name="LC" data-source-line="8" id="part2-tail"><rect fill="#FFFFFF" height="28.5224" rx="4" ry="4" style="stroke:#0E1014;stroke-width:0.5;" width="123.037" x="322.332" y="1703.9856"/><text fill="#0E1014" font-family="'Inter, Helvetica, sans-serif'" font-size="12" lengthAdjust="spacing" textLength="109.037" x="329.332" y="1722.6103">embedderLifecycle</text></g><g class="participant participant-head" data-entity-uid="part3" data-qualified-name="INFLIGHT" data-source-line="9" id="part3-head"><rect fill="#FFFFFF" height="43.0447" rx="4" ry="4" style="stroke:#0E1014;stroke-width:0.5;" width="120.6848" x="488.4704" y="42.9429"/><text fill="#0E1014" font-family="'Inter, Helvetica, sans-serif'" font-size="12" lengthAdjust="spacing" textLength="73.7027" x="511.9615" y="61.5676">promesse de</text><text fill="#0E1014" font-family="'Inter, Helvetica, sans-serif'" font-size="12" lengthAdjust="spacing" textLength="106.6848" x="495.4704" y="76.0899">lancement in-flight</text></g><g class="participant participant-tail" data-entity-uid="part3" data-qualified-name="INFLIGHT" data-source-line="9" id="part3-tail"><rect fill="#FFFFFF" height="43.0447" rx="4" ry="4" style="stroke:#0E1014;stroke-width:0.5;" width="120.6848" x="488.4704" y="1703.9856"/><text fill="#0E1014" font-family="'Inter, Helvetica, sans-serif'" font-size="12" lengthAdjust="spacing" textLength="73.7027" x="511.9615" y="1722.6103">promesse de</text><text fill="#0E1014" font-family="'Inter, Helvetica, sans-serif'" font-size="12" lengthAdjust="spacing" textLength="106.6848" x="495.4704" y="1737.1326">lancement in-flight</text></g><g class="participant participant-head" data-entity-uid="part4" data-qualified-name="LIST" data-source-line="10" id="part4-head"><rect fill="#FFFFFF" height="28.5224" rx="4" ry="4" style="stroke:#0E1014;stroke-width:0.5;" width="84.8902" x="619.1552" y="57.4652"/><text fill="#0E1014" font-family="'Inter, Helvetica, sans-serif'" font-size="12" lengthAdjust="spacing" textLength="70.8902" x="626.1552" y="76.0899">listRunning()</text></g><g class="participant participant-tail" data-entity-uid="part4" data-qualified-name="LIST" data-source-line="10" id="part4-tail"><rect fill="#FFFFFF" height="28.5224" rx="4" ry="4" style="stroke:#0E1014;stroke-width:0.5;" width="84.8902" x="619.1552" y="1703.9856"/><text fill="#0E1014" font-family="'Inter, Helvetica, sans-serif'" font-size="12" lengthAdjust="spacing" textLength="70.8902" x="626.1552" y="1722.6103">listRunning()</text></g><g class="participant participant-head" data-entity-uid="part5" data-qualified-name="LAUNCH" data-source-line="11" id="part5-head"><rect fill="#FFFFFF" height="28.5224" rx="4" ry="4" style="stroke:#0E1014;stroke-width:0.5;" width="126.8381" x="714.0454" y="57.4652"/><text fill="#0E1014" font-family="'Inter, Helvetica, sans-serif'" font-size="12" lengthAdjust="spacing" textLength="112.8381" x="721.0454" y="76.0899">launchModelByPath</text></g><g class="participant participant-tail" data-entity-uid="part5" data-qualified-name="LAUNCH" data-source-line="11" id="part5-tail"><rect fill="#FFFFFF" height="28.5224" rx="4" ry="4" style="stroke:#0E1014;stroke-width:0.5;" width="126.8381" x="714.0454" y="1703.9856"/><text fill="#0E1014" font-family="'Inter, Helvetica, sans-serif'" font-size="12" lengthAdjust="spacing" textLength="112.8381" x="721.0454" y="1722.6103">launchModelByPath</text></g><g class="participant participant-head" data-entity-uid="part6" data-qualified-name="EMB_SRV" data-source-line="12" id="part6-head"><rect fill="#FFFFFF" height="43.0447" rx="4" ry="4" style="stroke:#0E1014;stroke-width:0.5;" width="128.9175" x="850.8835" y="42.9429"/><text fill="#0E1014" font-family="'Inter, Helvetica, sans-serif'" font-size="12" lengthAdjust="spacing" textLength="71.0436" x="879.8204" y="61.5676">llama-server</text><text fill="#0E1014" font-family="'Inter, Helvetica, sans-serif'" font-size="12" lengthAdjust="spacing" textLength="114.9175" x="857.8835" y="76.0899">--embedding (8081)</text></g><g class="participant participant-tail" data-entity-uid="part6" data-qualified-name="EMB_SRV" data-source-line="12" id="part6-tail"><rect fill="#FFFFFF" height="43.0447" rx="4" ry="4" style="stroke:#0E1014;stroke-width:0.5;" width="128.9175" x="850.8835" y="1703.9856"/><text fill="#0E1014" font-family="'Inter, Helvetica, sans-serif'" font-size="12" lengthAdjust="spacing" textLength="71.0436" x="879.8204" y="1722.6103">llama-server</text><text fill="#0E1014" font-family="'Inter, Helvetica, sans-serif'" font-size="12" lengthAdjust="spacing" textLength="114.9175" x="857.8835" y="1737.1326">--embedding (8081)</text></g><g class="participant participant-head" data-entity-uid="part7" data-qualified-name="CHAR_ALL" data-source-line="59" id="part7-head"><rect fill="#FFFFFF" height="43.0447" rx="4" ry="4" style="stroke:#0E1014;stroke-width:0.5;" width="127.963" x="989.801" y="42.9429"/><text fill="#0E1014" font-family="'Inter, Helvetica, sans-serif'" font-size="12" lengthAdjust="spacing" textLength="84.441" x="1011.562" y="61.5676">characterizeAll</text><text fill="#0E1014" font-family="'Inter, Helvetica, sans-serif'" font-size="12" lengthAdjust="spacing" textLength="113.963" x="996.801" y="76.0899">(boucle par mod&#232;le)</text></g><g class="participant participant-tail" data-entity-uid="part7" data-qualified-name="CHAR_ALL" data-source-line="59" id="part7-tail"><rect fill="#FFFFFF" height="43.0447" rx="4" ry="4" style="stroke:#0E1014;stroke-width:0.5;" width="127.963" x="989.801" y="1703.9856"/><text fill="#0E1014" font-family="'Inter, Helvetica, sans-serif'" font-size="12" lengthAdjust="spacing" textLength="84.441" x="1011.562" y="1722.6103">characterizeAll</text><text fill="#0E1014" font-family="'Inter, Helvetica, sans-serif'" font-size="12" lengthAdjust="spacing" textLength="113.963" x="996.801" y="1737.1326">(boucle par mod&#232;le)</text></g><g class="participant participant-head" data-entity-uid="part8" data-qualified-name="EMB_CLI" data-source-line="60" id="part8-head"><rect fill="#FFFFFF" height="28.5224" rx="4" ry="4" style="stroke:#0E1014;stroke-width:0.5;" width="100.5716" x="1281.4845" y="57.4652"/><text fill="#0E1014" font-family="'Inter, Helvetica, sans-serif'" font-size="12" lengthAdjust="spacing" textLength="86.5716" x="1288.4845" y="76.0899">embedderCli.ts</text></g><g class="participant participant-tail" data-entity-uid="part8" data-qualified-name="EMB_CLI" data-source-line="60" id="part8-tail"><rect fill="#FFFFFF" height="28.5224" rx="4" ry="4" style="stroke:#0E1014;stroke-width:0.5;" width="100.5716" x="1281.4845" y="1703.9856"/><text fill="#0E1014" font-family="'Inter, Helvetica, sans-serif'" font-size="12" lengthAdjust="spacing" textLength="86.5716" x="1288.4845" y="1722.6103">embedderCli.ts</text></g><g class="participant participant-head" data-entity-uid="part9" data-qualified-name="TMP" data-source-line="61" id="part9-head"><rect fill="#FFFFFF" height="43.0447" rx="4" ry="4" style="stroke:#0E1014;stroke-width:0.5;" width="146.4568" x="1476.9233" y="42.9429"/><text fill="#0E1014" font-family="'Inter, Helvetica, sans-serif'" font-size="12" lengthAdjust="spacing" textLength="60.7484" x="1519.7775" y="61.5676">fichier tmp</text><text fill="#0E1014" font-family="'Inter, Helvetica, sans-serif'" font-size="12" lengthAdjust="spacing" textLength="132.4568" x="1483.9233" y="76.0899">(maestria-embed-*.txt)</text></g><g class="participant participant-tail" data-entity-uid="part9" data-qualified-name="TMP" data-source-line="61" id="part9-tail"><rect fill="#FFFFFF" height="43.0447" rx="4" ry="4" style="stroke:#0E1014;stroke-width:0.5;" width="146.4568" x="1476.9233" y="1703.9856"/><text fill="#0E1014" font-family="'Inter, Helvetica, sans-serif'" font-size="12" lengthAdjust="spacing" textLength="60.7484" x="1519.7775" y="1722.6103">fichier tmp</text><text fill="#0E1014" font-family="'Inter, Helvetica, sans-serif'" font-size="12" lengthAdjust="spacing" textLength="132.4568" x="1483.9233" y="1737.1326">(maestria-embed-*.txt)</text></g><g class="participant participant-head" data-entity-uid="part10" data-qualified-name="EMB_CLI_PROC" data-source-line="62" id="part10-head"><rect fill="#FFFFFF" height="43.0447" rx="4" ry="4" style="stroke:#0E1014;stroke-width:0.5;" width="136.8775" x="1633.3802" y="42.9429"/><text fill="#0E1014" font-family="'Inter, Helvetica, sans-serif'" font-size="12" lengthAdjust="spacing" textLength="122.8775" x="1640.3802" y="61.5676">llama-embedding.exe</text><text fill="#0E1014" font-family="'Inter, Helvetica, sans-serif'" font-size="12" lengthAdjust="spacing" textLength="84.6967" x="1659.4706" y="76.0899">(spawn &#8594; exit)</text></g><g class="participant participant-tail" data-entity-uid="part10" data-qualified-name="EMB_CLI_PROC" data-source-line="62" id="part10-tail"><rect fill="#FFFFFF" height="43.0447" rx="4" ry="4" style="stroke:#0E1014;stroke-width:0.5;" width="136.8775" x="1633.3802" y="1703.9856"/><text fill="#0E1014" font-family="'Inter, Helvetica, sans-serif'" font-size="12" lengthAdjust="spacing" textLength="122.8775" x="1640.3802" y="1722.6103">llama-embedding.exe</text><text fill="#0E1014" font-family="'Inter, Helvetica, sans-serif'" font-size="12" lengthAdjust="spacing" textLength="84.6967" x="1659.4706" y="1737.1326">(spawn &#8594; exit)</text></g><rect fill="#EEEEEE" height="3" rx="4" ry="4" style="stroke:#EEEEEE;stroke-width:1;" width="1985.5446" x="0" y="117.2488"/><line style="stroke:#000000;stroke-width:1;" x1="0" x2="1985.5446" y1="117.2488" y2="117.2488"/><line style="stroke:#000000;stroke-width:1;" x1="0" x2="1985.5446" y1="120.2488" y2="120.2488"/><rect fill="#EEEEEE" height="22.5224" rx="4" ry="4" style="stroke:#000000;stroke-width:2;" width="466.6141" x="759.4653" y="106.9876"/><text fill="#000000" font-family="'Inter, Helvetica, sans-serif'" font-size="12" font-weight="700" lengthAdjust="spacing" textLength="449.2392" x="765.4653" y="122.6123">Route A &#8212; `ensureEmbedderReady()` (serveur, utilis&#233; par routeByVectors)</text><g class="message" data-entity-1="part1" data-entity-2="part2" data-source-line="14" id="msg1"><polygon fill="#1A1D24" points="371.8505,156.0323,381.8505,160.0323,371.8505,164.0323,375.8505,160.0323" style="stroke:#1A1D24;stroke-width:1;stroke-linejoin:miter;stroke-miterlimit:10;"/><line style="stroke:#1A1D24;stroke-width:1;" x1="119.26" x2="377.8505" y1="160.0323" y2="160.0323"/><text fill="#000000" font-family="'Inter, Helvetica, sans-serif'" font-size="12" lengthAdjust="spacing" textLength="240.5905" x="126.26" y="155.1347">ensureEmbedderReady(filePath, {model?})</text></g><path d="M14,175.0323 L70.1019,175.0323 L70.1019,181.5547 L60.1019,191.5547 L10,191.5547 L10,179.0323 A4,4 0 0 1 14,175.0323" fill="#EEEEEE" style="stroke:#C68A3A;stroke-width:1.5;"/><rect fill="none" height="846.2378" rx="4" ry="4" style="stroke:#C68A3A;stroke-width:1.5;" width="1019.801" x="10" y="175.0323"/><text fill="#000000" font-family="'Inter, Helvetica, sans-serif'" font-size="12" font-weight="700" lengthAdjust="spacing" textLength="15.1019" x="25" y="187.657">alt</text><text fill="#C68A3A" font-family="'Inter, Helvetica, sans-serif'" font-size="12" font-weight="700" lengthAdjust="spacing" textLength="179.2457" x="85.1019" y="188.657">[un autre appelant lance d&#233;j&#224;]</text><g class="message" data-entity-1="part2" data-entity-2="part3" data-source-line="17" id="msg2"><polygon fill="#1A1D24" points="536.8128,208.077,546.8128,212.077,536.8128,216.077,540.8128,212.077" style="stroke:#1A1D24;stroke-width:1;stroke-linejoin:miter;stroke-miterlimit:10;"/><line style="stroke:#1A1D24;stroke-width:1;" x1="383.8505" x2="542.8128" y1="212.077" y2="212.077"/><text fill="#000000" font-family="'Inter, Helvetica, sans-serif'" font-size="12" lengthAdjust="spacing" textLength="140.9623" x="390.8505" y="207.1794">await la m&#234;me promesse</text></g><g class="message" data-entity-1="part3" data-entity-2="part2" data-source-line="18" id="msg3"><polygon fill="#1A1D24" points="394.8505,236.5994,384.8505,240.5994,394.8505,244.5994,390.8505,240.5994" style="stroke:#1A1D24;stroke-width:1;stroke-linejoin:miter;stroke-miterlimit:10;"/><line style="stroke:#1A1D24;stroke-width:1;stroke-dasharray:2,2;" x1="388.8505" x2="547.8128" y1="240.5994" y2="240.5994"/><text fill="#000000" font-family="'Inter, Helvetica, sans-serif'" font-size="12" lengthAdjust="spacing" textLength="99.6963" x="400.8505" y="235.7017">r&#233;sultat (r&#233;utilis&#233;)</text></g><g class="message" data-entity-1="part2" data-entity-2="part1" data-source-line="19" id="msg4"><polygon fill="#1A1D24" points="130.26,265.1217,120.26,269.1217,130.26,273.1217,126.26,269.1217" style="stroke:#1A1D24;stroke-width:1;stroke-linejoin:miter;stroke-miterlimit:10;"/><line style="stroke:#1A1D24;stroke-width:1;stroke-dasharray:2,2;" x1="124.26" x2="382.8505" y1="269.1217" y2="269.1217"/><text fill="#000000" font-family="'Inter, Helvetica, sans-serif'" font-size="12" lengthAdjust="spacing" textLength="169.7684" x="136.26" y="264.2241">{baseUrl, pid, source:'reused'}</text></g><line style="stroke:#C68A3A;stroke-width:1;stroke-dasharray:2,2;" x1="10" x2="1029.801" y1="278.1217" y2="278.1217"/><text fill="#C68A3A" font-family="'Inter, Helvetica, sans-serif'" font-size="12" font-weight="700" lengthAdjust="spacing" textLength="140.5535" x="15" y="289.7465">[premier/seul appelant]</text><g class="message" data-entity-1="part2" data-entity-2="part4" data-source-line="21" id="msg5"><polygon fill="#1A1D24" points="649.6003,324.6888,659.6003,328.6888,649.6003,332.6888,653.6003,328.6888" style="stroke:#1A1D24;stroke-width:1;stroke-linejoin:miter;stroke-miterlimit:10;"/><line style="stroke:#1A1D24;stroke-width:1;" x1="383.8505" x2="655.6003" y1="328.6888" y2="328.6888"/><text fill="#000000" font-family="'Inter, Helvetica, sans-serif'" font-size="12" lengthAdjust="spacing" textLength="197.8586" x="390.8505" y="309.2688">cherche `launchedBy: 'embedder'`</text><text fill="#000000" font-family="'Inter, Helvetica, sans-serif'" font-size="12" lengthAdjust="spacing" textLength="141.8828" x="390.8505" y="323.7912">+ match filePath + vivant</text></g><path d="M24,343.6888 L80.1019,343.6888 L80.1019,350.2112 L70.1019,360.2112 L20,360.2112 L20,347.6888 A4,4 0 0 1 24,343.6888" fill="#EEEEEE" style="stroke:#C68A3A;stroke-width:1.5;"/><rect fill="none" height="670.5813" rx="4" ry="4" style="stroke:#C68A3A;stroke-width:1.5;" width="999.801" x="20" y="343.6888"/><text fill="#000000" font-family="'Inter, Helvetica, sans-serif'" font-size="12" font-weight="700" lengthAdjust="spacing" textLength="15.1019" x="35" y="356.3135">alt</text><text fill="#C68A3A" font-family="'Inter, Helvetica, sans-serif'" font-size="12" font-weight="700" lengthAdjust="spacing" textLength="89.9467" x="95.1019" y="357.3135">[d&#233;j&#224; en cours]</text><g class="message" data-entity-1="part4" data-entity-2="part2" data-source-line="23" id="msg6"><polygon fill="#1A1D24" points="394.8505,376.7335,384.8505,380.7335,394.8505,384.7335,390.8505,380.7335" style="stroke:#1A1D24;stroke-width:1;stroke-linejoin:miter;stroke-miterlimit:10;"/><line style="stroke:#1A1D24;stroke-width:1;stroke-dasharray:2,2;" x1="388.8505" x2="660.6003" y1="380.7335" y2="380.7335"/><text fill="#000000" font-family="'Inter, Helvetica, sans-serif'" font-size="12" lengthAdjust="spacing" textLength="47.317" x="400.8505" y="375.8359">{pid, url}</text></g><g class="message" data-entity-1="part2" data-entity-2="part1" data-source-line="24" id="msg7"><polygon fill="#1A1D24" points="130.26,405.2559,120.26,409.2559,130.26,413.2559,126.26,409.2559" style="stroke:#1A1D24;stroke-width:1;stroke-linejoin:miter;stroke-miterlimit:10;"/><line style="stroke:#1A1D24;stroke-width:1;stroke-dasharray:2,2;" x1="124.26" x2="382.8505" y1="409.2559" y2="409.2559"/><text fill="#000000" font-family="'Inter, Helvetica, sans-serif'" font-size="12" lengthAdjust="spacing" textLength="166.3935" x="136.26" y="404.3582">{baseUrl: url, source:'reused'}</text></g><line style="stroke:#C68A3A;stroke-width:1;stroke-dasharray:2,2;" x1="20" x2="1019.801" y1="418.2559" y2="418.2559"/><text fill="#C68A3A" font-family="'Inter, Helvetica, sans-serif'" font-size="12" font-weight="700" lengthAdjust="spacing" textLength="75.1346" x="25" y="429.8806">[doit spawn]</text><g class="message" data-entity-1="part2" data-entity-2="part2" data-source-line="26" id="msg8"><line style="stroke:#1A1D24;stroke-width:1;" x1="383.8505" x2="425.8505" y1="454.3006" y2="454.3006"/><line style="stroke:#1A1D24;stroke-width:1;" x1="425.8505" x2="425.8505" y1="454.3006" y2="467.3006"/><line style="stroke:#1A1D24;stroke-width:1;" x1="384.8505" x2="425.8505" y1="467.3006" y2="467.3006"/><polygon fill="#1A1D24" points="394.8505,463.3006,384.8505,467.3006,394.8505,471.3006,390.8505,467.3006" style="stroke:#1A1D24;stroke-width:1;stroke-linejoin:miter;stroke-miterlimit:10;"/><text fill="#000000" font-family="'Inter, Helvetica, sans-serif'" font-size="12" lengthAdjust="spacing" textLength="145.0361" x="390.8505" y="449.403">pose promesse INFLIGHT</text></g><g class="message" data-entity-1="part2" data-entity-2="part5" data-source-line="27" id="msg9"><polygon fill="#1A1D24" points="765.4645,549.9124,775.4645,553.9124,765.4645,557.9124,769.4645,553.9124" style="stroke:#1A1D24;stroke-width:1;stroke-linejoin:miter;stroke-miterlimit:10;"/><line style="stroke:#1A1D24;stroke-width:1;" x1="383.8505" x2="771.4645" y1="553.9124" y2="553.9124"/><text fill="#000000" font-family="'Inter, Helvetica, sans-serif'" font-size="12" lengthAdjust="spacing" textLength="117.1845" x="390.8505" y="490.9253">launchModelByPath(</text><text fill="#000000" font-family="'Inter, Helvetica, sans-serif'" font-size="12" lengthAdjust="spacing" textLength="136.5136" x="397.6003" y="505.4477">launchedBy:'embedder',</text><text fill="#000000" font-family="'Inter, Helvetica, sans-serif'" font-size="12" lengthAdjust="spacing" textLength="61.2086" x="397.6003" y="519.97">port: 8081,</text><text fill="#000000" font-family="'Inter, Helvetica, sans-serif'" font-size="12" lengthAdjust="spacing" textLength="151.6666" x="397.6003" y="534.4924">customArgs:'--embedding'</text><text fill="#000000" font-family="'Inter, Helvetica, sans-serif'" font-size="12" lengthAdjust="spacing" textLength="4.3465" x="390.8505" y="549.0147">)</text></g><g class="message" data-entity-1="part5" data-entity-2="part6" data-source-line="28" id="msg10"><polygon fill="#1A1D24" points="903.3423,578.4348,913.3423,582.4348,903.3423,586.4348,907.3423,582.4348" style="stroke:#1A1D24;stroke-width:1;stroke-linejoin:miter;stroke-miterlimit:10;"/><line style="stroke:#1A1D24;stroke-width:1;" x1="777.4645" x2="909.3423" y1="582.4348" y2="582.4348"/><text fill="#000000" font-family="'Inter, Helvetica, sans-serif'" font-size="12" lengthAdjust="spacing" textLength="103.736" x="784.4645" y="577.5371">spawn (port 8081)</text></g><g class="message" data-entity-1="part5" data-entity-2="part2" data-source-line="29" id="msg11"><polygon fill="#1A1D24" points="394.8505,606.9571,384.8505,610.9571,394.8505,614.9571,390.8505,610.9571" style="stroke:#1A1D24;stroke-width:1;stroke-linejoin:miter;stroke-miterlimit:10;"/><line style="stroke:#1A1D24;stroke-width:1;stroke-dasharray:2,2;" x1="388.8505" x2="776.4645" y1="610.9571" y2="610.9571"/><text fill="#000000" font-family="'Inter, Helvetica, sans-serif'" font-size="12" lengthAdjust="spacing" textLength="67.7369" x="400.8505" y="606.0595">{pid, url, ok}</text></g><path d="M34,625.9571 L90.1019,625.9571 L90.1019,632.4795 L80.1019,642.4795 L30,642.4795 L30,629.9571 A4,4 0 0 1 34,625.9571" fill="#EEEEEE" style="stroke:#C68A3A;stroke-width:1.5;"/><rect fill="none" height="339.7907" rx="4" ry="4" style="stroke:#C68A3A;stroke-width:1.5;" width="979.801" x="30" y="625.9571"/><text fill="#000000" font-family="'Inter, Helvetica, sans-serif'" font-size="12" font-weight="700" lengthAdjust="spacing" textLength="15.1019" x="45" y="638.5818">alt</text><text fill="#C68A3A" font-family="'Inter, Helvetica, sans-serif'" font-size="12" font-weight="700" lengthAdjust="spacing" textLength="119.4688" x="105.1019" y="639.5818">[lancement &#233;chou&#233;]</text><g class="message" data-entity-1="part2" data-entity-2="part1" data-source-line="31" id="msg12"><polygon fill="#1A1D24" points="130.26,659.0018,120.26,663.0018,130.26,667.0018,126.26,663.0018" style="stroke:#1A1D24;stroke-width:1;stroke-linejoin:miter;stroke-miterlimit:10;"/><line style="stroke:#1A1D24;stroke-width:1;stroke-dasharray:2,2;" x1="124.26" x2="382.8505" y1="663.0018" y2="663.0018"/><text fill="#000000" font-family="'Inter, Helvetica, sans-serif'" font-size="12" lengthAdjust="spacing" textLength="181.4442" x="136.26" y="658.1042">null (fallback silencieux vers R5)</text></g><line style="stroke:#C68A3A;stroke-width:1;stroke-dasharray:2,2;" x1="30" x2="1009.801" y1="672.0018" y2="672.0018"/><text fill="#C68A3A" font-family="'Inter, Helvetica, sans-serif'" font-size="12" font-weight="700" lengthAdjust="spacing" textLength="41.6411" x="35" y="683.6265">[lanc&#233;]</text><path d="M44,694.5242 L110.9766,694.5242 L110.9766,701.0466 L100.9766,711.0466 L40,711.0466 L40,698.5242 A4,4 0 0 1 44,694.5242" fill="#EEEEEE" style="stroke:#C68A3A;stroke-width:1.5;"/><rect fill="none" height="264.2236" rx="4" ry="4" style="stroke:#C68A3A;stroke-width:1.5;" width="959.801" x="40" y="694.5242"/><text fill="#000000" font-family="'Inter, Helvetica, sans-serif'" font-size="12" font-weight="700" lengthAdjust="spacing" textLength="25.9766" x="55" y="707.1489">loop</text><text fill="#C68A3A" font-family="'Inter, Helvetica, sans-serif'" font-size="12" font-weight="700" lengthAdjust="spacing" textLength="238.5454" x="125.9766" y="708.1489">[jusqu'&#224; /v1/models OK ou timeout 60 s]</text><g class="message" data-entity-1="part2" data-entity-2="part6" data-source-line="34" id="msg13"><polygon fill="#1A1D24" points="903.3423,727.5689,913.3423,731.5689,903.3423,735.5689,907.3423,731.5689" style="stroke:#1A1D24;stroke-width:1;stroke-linejoin:miter;stroke-miterlimit:10;"/><line style="stroke:#1A1D24;stroke-width:1;" x1="383.8505" x2="909.3423" y1="731.5689" y2="731.5689"/><text fill="#000000" font-family="'Inter, Helvetica, sans-serif'" font-size="12" lengthAdjust="spacing" textLength="168.1321" x="390.8505" y="726.6713">fetch /v1/models (budget 4 s)</text></g><path d="M54,746.5689 L110.1019,746.5689 L110.1019,753.0913 L100.1019,763.0913 L50,763.0913 L50,750.5689 A4,4 0 0 1 54,746.5689" fill="#EEEEEE" style="stroke:#C68A3A;stroke-width:1.5;"/><rect fill="none" height="205.1789" rx="4" ry="4" style="stroke:#C68A3A;stroke-width:1.5;" width="939.801" x="50" y="746.5689"/><text fill="#000000" font-family="'Inter, Helvetica, sans-serif'" font-size="12" font-weight="700" lengthAdjust="spacing" textLength="15.1019" x="65" y="759.1936">alt</text><text fill="#C68A3A" font-family="'Inter, Helvetica, sans-serif'" font-size="12" font-weight="700" lengthAdjust="spacing" textLength="79.3617" x="125.1019" y="760.1936">[r&#233;ponse OK]</text><g class="message" data-entity-1="part6" data-entity-2="part2" data-source-line="36" id="msg14"><polygon fill="#1A1D24" points="394.8505,779.6136,384.8505,783.6136,394.8505,787.6136,390.8505,783.6136" style="stroke:#1A1D24;stroke-width:1;stroke-linejoin:miter;stroke-miterlimit:10;"/><line style="stroke:#1A1D24;stroke-width:1;stroke-dasharray:2,2;" x1="388.8505" x2="914.3423" y1="783.6136" y2="783.6136"/><text fill="#000000" font-family="'Inter, Helvetica, sans-serif'" font-size="12" lengthAdjust="spacing" textLength="22.2608" x="400.8505" y="778.716">200</text></g><g class="message" data-entity-1="part2" data-entity-2="part1" data-source-line="37" id="msg15"><polygon fill="#1A1D24" points="130.26,808.136,120.26,812.136,130.26,816.136,126.26,812.136" style="stroke:#1A1D24;stroke-width:1;stroke-linejoin:miter;stroke-miterlimit:10;"/><line style="stroke:#1A1D24;stroke-width:1;stroke-dasharray:2,2;" x1="124.26" x2="382.8505" y1="812.136" y2="812.136"/><text fill="#000000" font-family="'Inter, Helvetica, sans-serif'" font-size="12" lengthAdjust="spacing" textLength="182.4669" x="136.26" y="807.2383">{baseUrl, pid, source:'launched'}</text></g><line style="stroke:#C68A3A;stroke-width:1;stroke-dasharray:2,2;" x1="50" x2="989.801" y1="821.136" y2="821.136"/><text fill="#C68A3A" font-family="'Inter, Helvetica, sans-serif'" font-size="12" font-weight="700" lengthAdjust="spacing" textLength="111.9689" x="55" y="832.7607">[processus exited]</text><g class="message" data-entity-1="part2" data-entity-2="part5" data-source-line="39" id="msg16"><polygon fill="#1A1D24" points="765.4645,853.1807,775.4645,857.1807,765.4645,861.1807,769.4645,857.1807" style="stroke:#1A1D24;stroke-width:1;stroke-linejoin:miter;stroke-miterlimit:10;"/><line style="stroke:#1A1D24;stroke-width:1;" x1="383.8505" x2="771.4645" y1="857.1807" y2="857.1807"/><text fill="#000000" font-family="'Inter, Helvetica, sans-serif'" font-size="12" lengthAdjust="spacing" textLength="96.8839" x="390.8505" y="852.283">stopProcess(pid)</text></g><g class="message" data-entity-1="part2" data-entity-2="part1" data-source-line="40" id="msg17"><polygon fill="#1A1D24" points="130.26,881.7031,120.26,885.7031,130.26,889.7031,126.26,885.7031" style="stroke:#1A1D24;stroke-width:1;stroke-linejoin:miter;stroke-miterlimit:10;"/><line style="stroke:#1A1D24;stroke-width:1;stroke-dasharray:2,2;" x1="124.26" x2="382.8505" y1="885.7031" y2="885.7031"/><text fill="#000000" font-family="'Inter, Helvetica, sans-serif'" font-size="12" lengthAdjust="spacing" textLength="19.687" x="136.26" y="880.8054">null</text></g><line style="stroke:#C68A3A;stroke-width:1;stroke-dasharray:2,2;" x1="50" x2="989.801" y1="894.7031" y2="894.7031"/><text fill="#C68A3A" font-family="'Inter, Helvetica, sans-serif'" font-size="12" font-weight="700" lengthAdjust="spacing" textLength="118.3267" x="55" y="906.3278">[encore en chauffe]</text><g class="message" data-entity-1="part2" data-entity-2="part2" data-source-line="42" id="msg18"><line style="stroke:#1A1D24;stroke-width:1;" x1="383.8505" x2="425.8505" y1="930.7478" y2="930.7478"/><line style="stroke:#1A1D24;stroke-width:1;" x1="425.8505" x2="425.8505" y1="930.7478" y2="943.7478"/><line style="stroke:#1A1D24;stroke-width:1;" x1="384.8505" x2="425.8505" y1="943.7478" y2="943.7478"/><polygon fill="#1A1D24" points="394.8505,939.7478,384.8505,943.7478,394.8505,947.7478,390.8505,943.7478" style="stroke:#1A1D24;stroke-width:1;stroke-linejoin:miter;stroke-miterlimit:10;"/><text fill="#000000" font-family="'Inter, Helvetica, sans-serif'" font-size="12" lengthAdjust="spacing" textLength="49.0044" x="390.8505" y="925.8501">sleep 1 s</text></g><g class="message" data-entity-1="part2" data-entity-2="part2" data-source-line="46" id="msg19"><line style="stroke:#1A1D24;stroke-width:1;" x1="383.8505" x2="425.8505" y1="993.2701" y2="993.2701"/><line style="stroke:#1A1D24;stroke-width:1;" x1="425.8505" x2="425.8505" y1="993.2701" y2="1006.2701"/><line style="stroke:#1A1D24;stroke-width:1;" x1="384.8505" x2="425.8505" y1="1006.2701" y2="1006.2701"/><polygon fill="#1A1D24" points="394.8505,1002.2701,384.8505,1006.2701,394.8505,1010.2701,390.8505,1006.2701" style="stroke:#1A1D24;stroke-width:1;stroke-linejoin:miter;stroke-miterlimit:10;"/><text fill="#000000" font-family="'Inter, Helvetica, sans-serif'" font-size="12" lengthAdjust="spacing" textLength="85.8047" x="390.8505" y="988.3725">clear INFLIGHT</text></g><path d="M388,1037.2701 L388,1097.2701 A4,4 0 0 0 392,1101.2701 L709,1101.2701 A4,4 0 0 0 713,1097.2701 L713,1043.2701 L703,1033.2701 L392,1033.2701 A4,4 0 0 0 388,1037.2701" fill="#FFFDF6" style="stroke:#C68A3A;stroke-width:0.5;"/><path d="M703,1033.2701 L703,1041.2701 A2,2 0 0 0 705,1043.2701 L713,1043.2701 L703,1033.2701" fill="#FFFDF6" style="stroke:#C68A3A;stroke-width:0.5;"/><text fill="#0E1014" font-family="'Inter, Helvetica, sans-serif'" font-size="12" lengthAdjust="spacing" textLength="231.6418" x="394" y="1049.8948">Concurrency-safe : les queries parall&#232;les</text><text fill="#0E1014" font-family="'Inter, Helvetica, sans-serif'" font-size="12" lengthAdjust="spacing" textLength="292.9016" x="394" y="1064.4172">partagent UN lancement &#8212; jamais spawn deux fois.</text><text fill="#0E1014" font-family="'Inter, Helvetica, sans-serif'" font-size="12" lengthAdjust="spacing" textLength="304.3047" x="394" y="1078.9396">Le serveur reste r&#233;sident pour queries basse-latence.</text><text fill="#0E1014" font-family="'Inter, Helvetica, sans-serif'" font-size="12" lengthAdjust="spacing" textLength="304.3217" x="394" y="1093.4619">&#201;chec &#8658; null &#8658; fallback silencieux. NE throw JAMAIS.</text><rect fill="#EEEEEE" height="3" rx="4" ry="4" style="stroke:#EEEEEE;stroke-width:1;" width="1985.5446" x="0" y="1126.6207"/><line style="stroke:#000000;stroke-width:1;" x1="0" x2="1985.5446" y1="1126.6207" y2="1126.6207"/><line style="stroke:#000000;stroke-width:1;" x1="0" x2="1985.5446" y1="1129.6207" y2="1129.6207"/><rect fill="#EEEEEE" height="22.5224" rx="4" ry="4" style="stroke:#000000;stroke-width:2;" width="471.6423" x="756.9512" y="1116.3596"/><text fill="#000000" font-family="'Inter, Helvetica, sans-serif'" font-size="12" font-weight="700" lengthAdjust="spacing" textLength="454.2674" x="762.9512" y="1131.9843">Route B &#8212; `embedViaLlamaCli()` (one-shot, utilis&#233; par characterizeAll bulk)</text><g class="message" data-entity-1="part7" data-entity-2="part8" data-source-line="64" id="msg20"><polygon fill="#1A1D24" points="1319.7704,1179.9266,1329.7704,1183.9266,1319.7704,1187.9266,1323.7704,1183.9266" style="stroke:#1A1D24;stroke-width:1;stroke-linejoin:miter;stroke-miterlimit:10;"/><line style="stroke:#1A1D24;stroke-width:1;" x1="1053.7825" x2="1325.7704" y1="1183.9266" y2="1183.9266"/><text fill="#000000" font-family="'Inter, Helvetica, sans-serif'" font-size="12" lengthAdjust="spacing" textLength="136.9738" x="1060.7825" y="1164.5066">resolveEmbedderCliFn()</text><text fill="#000000" font-family="'Inter, Helvetica, sans-serif'" font-size="12" lengthAdjust="spacing" textLength="253.9878" x="1060.7825" y="1179.029">&#8594; EmbedFn (binPath + modelPath en cache)</text></g><path d="M1336,1200.9266 L1336,1274.9266 A4,4 0 0 0 1340,1278.9266 L1627,1278.9266 A4,4 0 0 0 1631,1274.9266 L1631,1206.9266 L1621,1196.9266 L1340,1196.9266 A4,4 0 0 0 1336,1200.9266" fill="#FFFDF6" style="stroke:#C68A3A;stroke-width:0.5;"/><path d="M1621,1196.9266 L1621,1204.9266 A2,2 0 0 0 1623,1206.9266 L1631,1206.9266 L1621,1196.9266" fill="#FFFDF6" style="stroke:#C68A3A;stroke-width:0.5;"/><text fill="#0E1014" font-family="'Inter, Helvetica, sans-serif'" font-size="12" lengthAdjust="spacing" textLength="213.4377" x="1342" y="1213.5513">R&#233;solu une fois au d&#233;but du run bulk :</text><text fill="#0E1014" font-family="'Inter, Helvetica, sans-serif'" font-size="12" lengthAdjust="spacing" textLength="207.3527" x="1342" y="1228.0737">valide le GGUF configur&#233; + le binaire</text><text fill="#0E1014" font-family="'Inter, Helvetica, sans-serif'" font-size="12" lengthAdjust="spacing" textLength="196.0177" x="1342" y="1242.5961">llama-embedding d&#233;riv&#233; du runner</text><text fill="#0E1014" font-family="'Inter, Helvetica, sans-serif'" font-size="12" lengthAdjust="spacing" textLength="240.7439" x="1342" y="1257.1184">llama-server. Throw sur config manquante</text><text fill="#0E1014" font-family="'Inter, Helvetica, sans-serif'" font-size="12" lengthAdjust="spacing" textLength="274.1351" x="1342" y="1271.6408">(l'appelant skip silencieusement les projections).</text><path d="M983.801,1291.5384 L1050.7777,1291.5384 L1050.7777,1298.0608 L1040.7777,1308.0608 L979.801,1308.0608 L979.801,1295.5384 A4,4 0 0 1 983.801,1291.5384" fill="#EEEEEE" style="stroke:#C68A3A;stroke-width:1.5;"/><rect fill="none" height="303.8354" rx="4" ry="4" style="stroke:#C68A3A;stroke-width:1.5;" width="800.4567" x="979.801" y="1291.5384"/><text fill="#000000" font-family="'Inter, Helvetica, sans-serif'" font-size="12" font-weight="700" lengthAdjust="spacing" textLength="25.9766" x="994.801" y="1304.1631">loop</text><text fill="#C68A3A" font-family="'Inter, Helvetica, sans-serif'" font-size="12" font-weight="700" lengthAdjust="spacing" textLength="249.6758" x="1065.7777" y="1305.1631">[par mod&#232;le avec freegen_text &#224; projeter]</text><g class="message" data-entity-1="part7" data-entity-2="part8" data-source-line="74" id="msg21"><polygon fill="#1A1D24" points="1319.7704,1324.5831,1329.7704,1328.5831,1319.7704,1332.5831,1323.7704,1328.5831" style="stroke:#1A1D24;stroke-width:1;stroke-linejoin:miter;stroke-miterlimit:10;"/><line style="stroke:#1A1D24;stroke-width:1;" x1="1053.7825" x2="1325.7704" y1="1328.5831" y2="1328.5831"/><text fill="#000000" font-family="'Inter, Helvetica, sans-serif'" font-size="12" lengthAdjust="spacing" textLength="199.0688" x="1060.7825" y="1323.6855">embed([freegen_text, ...17 ancres])</text></g><g class="message" data-entity-1="part8" data-entity-2="part9" data-source-line="75" id="msg22"><polygon fill="#1A1D24" points="1538.1518,1353.1055,1548.1518,1357.1055,1538.1518,1361.1055,1542.1518,1357.1055" style="stroke:#1A1D24;stroke-width:1;stroke-linejoin:miter;stroke-miterlimit:10;"/><line style="stroke:#1A1D24;stroke-width:1;" x1="1331.7704" x2="1544.1518" y1="1357.1055" y2="1357.1055"/><text fill="#000000" font-family="'Inter, Helvetica, sans-serif'" font-size="12" lengthAdjust="spacing" textLength="194.3814" x="1338.7704" y="1352.2078">&#233;crit les textes joints par &lt;#sep#&gt;</text></g><g class="message" data-entity-1="part8" data-entity-2="part10" data-source-line="76" id="msg23"><polygon fill="#1A1D24" points="1689.819,1468.762,1699.819,1472.762,1689.819,1476.762,1693.819,1472.762" style="stroke:#1A1D24;stroke-width:1;stroke-linejoin:miter;stroke-miterlimit:10;"/><line style="stroke:#1A1D24;stroke-width:1;" x1="1331.7704" x2="1695.819" y1="1472.762" y2="1472.762"/><text fill="#000000" font-family="'Inter, Helvetica, sans-serif'" font-size="12" lengthAdjust="spacing" textLength="43.8057" x="1338.7704" y="1380.7302">spawn :</text><text fill="#000000" font-family="'Inter, Helvetica, sans-serif'" font-size="12" lengthAdjust="spacing" textLength="83.4354" x="1345.5202" y="1395.2526">-m model.gguf</text><text fill="#000000" font-family="'Inter, Helvetica, sans-serif'" font-size="12" lengthAdjust="spacing" textLength="53.8452" x="1345.5202" y="1409.7749">-f tmp.txt</text><text fill="#000000" font-family="'Inter, Helvetica, sans-serif'" font-size="12" lengthAdjust="spacing" textLength="158.3482" x="1345.5202" y="1424.2973">--embd-separator &lt;#sep#&gt;</text><text fill="#000000" font-family="'Inter, Helvetica, sans-serif'" font-size="12" lengthAdjust="spacing" textLength="155.7403" x="1345.5202" y="1438.8196">--embd-output-format json</text><text fill="#000000" font-family="'Inter, Helvetica, sans-serif'" font-size="12" lengthAdjust="spacing" textLength="114.5425" x="1345.5202" y="1453.342">--embd-normalize 2</text><text fill="#000000" font-family="'Inter, Helvetica, sans-serif'" font-size="12" lengthAdjust="spacing" textLength="74.5038" x="1345.5202" y="1467.8644">--log-disable</text></g><g class="message" data-entity-1="part10" data-entity-2="part8" data-source-line="77" id="msg24"><polygon fill="#1A1D24" points="1342.7704,1511.8067,1332.7704,1515.8067,1342.7704,1519.8067,1338.7704,1515.8067" style="stroke:#1A1D24;stroke-width:1;stroke-linejoin:miter;stroke-miterlimit:10;"/><line style="stroke:#1A1D24;stroke-width:1;stroke-dasharray:2,2;" x1="1336.7704" x2="1700.819" y1="1515.8067" y2="1515.8067"/><text fill="#000000" font-family="'Inter, Helvetica, sans-serif'" font-size="12" lengthAdjust="spacing" textLength="154.3768" x="1348.7704" y="1496.3867">JSON {data:[{embedding}]}</text><text fill="#000000" font-family="'Inter, Helvetica, sans-serif'" font-size="12" lengthAdjust="spacing" textLength="166.2912" x="1348.7704" y="1510.9091">(processus exit, RAM lib&#233;r&#233;e)</text></g><g class="message" data-entity-1="part8" data-entity-2="part9" data-source-line="78" id="msg25"><polygon fill="#1A1D24" points="1538.1518,1540.3291,1548.1518,1544.3291,1538.1518,1548.3291,1542.1518,1544.3291" style="stroke:#1A1D24;stroke-width:1;stroke-linejoin:miter;stroke-miterlimit:10;"/><line style="stroke:#1A1D24;stroke-width:1;" x1="1331.7704" x2="1544.1518" y1="1544.3291" y2="1544.3291"/><text fill="#000000" font-family="'Inter, Helvetica, sans-serif'" font-size="12" lengthAdjust="spacing" textLength="147.6099" x="1338.7704" y="1539.4314">unlink (best-effort, finally)</text></g><g class="message" data-entity-1="part8" data-entity-2="part7" data-source-line="79" id="msg26"><polygon fill="#1A1D24" points="1064.7825,1583.3738,1054.7825,1587.3738,1064.7825,1591.3738,1060.7825,1587.3738" style="stroke:#1A1D24;stroke-width:1;stroke-linejoin:miter;stroke-miterlimit:10;"/><line style="stroke:#1A1D24;stroke-width:1;stroke-dasharray:2,2;" x1="1058.7825" x2="1330.7704" y1="1587.3738" y2="1587.3738"/><text fill="#000000" font-family="'Inter, Helvetica, sans-serif'" font-size="12" lengthAdjust="spacing" textLength="82.2593" x="1070.7825" y="1567.9538">Float32Array[]</text><text fill="#000000" font-family="'Inter, Helvetica, sans-serif'" font-size="12" lengthAdjust="spacing" textLength="83.4354" x="1070.7825" y="1582.4761">(tri&#233; par index)</text></g><path d="M1706,1611.3738 L1706,1685.3738 A4,4 0 0 0 1710,1689.3738 L1976,1689.3738 A4,4 0 0 0 1980,1685.3738 L1980,1617.3738 L1970,1607.3738 L1710,1607.3738 A4,4 0 0 0 1706,1611.3738" fill="#FFFDF6" style="stroke:#C68A3A;stroke-width:0.5;"/><path d="M1970,1607.3738 L1970,1615.3738 A2,2 0 0 0 1972,1617.3738 L1980,1617.3738 L1970,1607.3738" fill="#FFFDF6" style="stroke:#C68A3A;stroke-width:0.5;"/><text fill="#0E1014" font-family="'Inter, Helvetica, sans-serif'" font-size="12" lengthAdjust="spacing" textLength="212.9434" x="1712" y="1623.9985">Z&#233;ro m&#233;moire r&#233;sidente entre appels.</text><text fill="#0E1014" font-family="'Inter, Helvetica, sans-serif'" font-size="12" lengthAdjust="spacing" textLength="253.5446" x="1712" y="1638.5209">Co&#251;t : ~3 s de d&#233;marrage &#215; N mod&#232;les, mais</text><text fill="#0E1014" font-family="'Inter, Helvetica, sans-serif'" font-size="12" lengthAdjust="spacing" textLength="236.619" x="1712" y="1653.0432">le mod&#232;le de test ne coexiste jamais avec</text><text fill="#0E1014" font-family="'Inter, Helvetica, sans-serif'" font-size="12" lengthAdjust="spacing" textLength="236.1246" x="1712" y="1667.5656">l'embedder en RAM &#8212; r&#233;sout le probl&#232;me</text><text fill="#0E1014" font-family="'Inter, Helvetica, sans-serif'" font-size="12" lengthAdjust="spacing" textLength="167.0753" x="1712" y="1682.0879">"concurrence VRAM" du bulk.</text><?plantuml-src ZLNTRk8u5BxFKtZd1f20jhGhZP2wgn3SDbEJPEtGpaYLh9IODXhZeFpC5bMzdGUOHzmdMSSX8G63vWAHv7m-tpdV-V4VaLZmF6HWE3oZs-VqBCqsd0sZVCKD8uiopW3nCOK4_aDzsqVGCAwlTvzkiKUnE_SXDS7rjM6iWoIB5j4w41duLACKuXC8Kg2UsYYsUcPXo18KBTbYi-1C0P5rn9Vjt23xzivNgEgbZULHck5SY4YyT7kbDvliOu9SB5vdSSZuPEC5sMk9C-UETRU7vC4g6AGi-S6I9p4ObF5Atw3x-VppHKa0PnDAy8DXg0J1u2-P01W39j8yON2R8MP1kEak8yuAmZvuNnNqVt_q32FWsKvK4_dKzUyWfcKyjdDhWCAXT5jbB9tN-1cvfUQZQVlKm-xC9b2YQzoWYgK5nt1Eu7JhLIBAiCVW_Jb8sJpXVR2EmZv8upnPi74dONdAmiw7mNZQQ0Y82AGtDfRYLl4LIk-J8TUztwO2fvDl4dkGheamDAVVA9uxJfakA5tLuR-hWFA4VvH6VTpZ0g696m1Dv0w4KqA9PpuwjK-TM0JwTTirWIeZ2JxefUwJ0DklB9ninfsgnplzmhAEasmCYkPHhuiypUALcRoauqwZlJfFebUobJoISTjbaZ9T1_yAq2qyAKTjv85cVH1_BtKxKBuyGszC6wc6q8ZR4iEP8oJH24rCwrxXDSfMnTxwut6ytY5aEtXqxlWsegheMr0bwox95kyDz6MOCtSg2UeJ1zbWI3pNaH6uzpK8r2vhOKRdvmtpxyr0LS_EHtrKaxcSG8l2hxPV9wzf65dljPV42vQcNSdHEnwBo3a_HKUaYeW-cdXMJKsByB2L4OGUlTWfo4Hej9-g_uOBkPI313H6eC0KFqF46GD9zFAQWNXPB6smutDSUIqWYw8BxTUHzkkbzkjLmGOAicFNp-J4zMFTcLXs1rARkdhHNq8MZuPPMgzq2zb7VFepJw7al-wwgATuoDxOa-YMy_hVpr-0lKLPhqcWMiOmghYg4P2MmwLDNFGWDwwpftiLwhvqrG5D1MhJwBZfyhZfwhZfpqQjD8FloMjDJR7qy1ivoyzmIgsYOA36IBZKVH_wYENKKHz-zKaRsnJwO22AxL-ox0wLoC7ngBuGrr5JhWig5pmItq7tcQNPW2sNSaVtmJ8I0UURNlE0F54hiB_ja6lwboDAN5ni4isijRfdlnYLGLVvdMrqmdPvmdPrmjQe_ly0?></g></svg>