<svg xmlns="http://www.w3.org/2000/svg" xmlns:xlink="http://www.w3.org/1999/xlink" contentStyleType="text/css" data-diagram-type="STATE" height="2173px" preserveAspectRatio="none" style="width:681px;height:2173px;background:#F4EEE3;" version="1.1" viewBox="0 0 681 2173" width="681px" zoomAndPan="magnify"><?plantuml 1.2026.4?><defs/><g><rect fill="#F4EEE3" height="2173" style="stroke:none;stroke-width:1;" width="681" x="0" y="0"/><g class="title" data-source-line="3"><text fill="#000000" font-family="'Inter, Helvetica, sans-serif'" font-size="14" font-weight="700" lengthAdjust="spacing" textLength="435.2457" x="119.7639" y="23.5623">Sonde free-gen &#8212; slice 7c, s&#233;paration 2 phases (2026-05-22)</text></g><!--cluster PHASE1--><g class="cluster" data-qualified-name="PHASE1" data-source-line="8" id="ent0003"><path d="M19,290.9429 L227,290.9429 A4,4 0 0 1 231,294.9429 L231,324.9876 L15,324.9876 L15,294.9429 A4,4 0 0 1 19,290.9429" fill="#F1F1F1"/><rect fill="none" height="514.36" rx="4" ry="4" style="stroke:#181818;stroke-width:0.5;" width="216" x="15" y="290.9429"/><line style="stroke:#181818;stroke-width:0.5;" x1="15" x2="231" y1="324.9876" y2="324.9876"/><text fill="#000000" font-family="'Inter, Helvetica, sans-serif'" font-size="12" lengthAdjust="spacing" textLength="122.7753" x="61.6124" y="306.5676">PHASE 1 &#8212; texte seul</text><text fill="#000000" font-family="'Inter, Helvetica, sans-serif'" font-size="12" lengthAdjust="spacing" textLength="200.5007" x="22.7497" y="321.0899">freegen.generateFreeGenText(ask)</text></g><!--cluster PHASE2--><g class="cluster" data-qualified-name="PHASE2" data-source-line="16" id="ent0008"><path d="M11,1275.3029 L237,1275.3029 A4,4 0 0 1 241,1279.3029 L241,1338.3923 L7,1338.3923 L7,1279.3029 A4,4 0 0 1 11,1275.3029" fill="#F1F1F1"/><rect fill="none" height="634.86" rx="4" ry="4" style="stroke:#181818;stroke-width:0.5;" width="234" x="7" y="1275.3029"/><line style="stroke:#181818;stroke-width:0.5;" x1="7" x2="241" y1="1338.3923" y2="1338.3923"/><text fill="#000000" font-family="'Inter, Helvetica, sans-serif'" font-size="12" lengthAdjust="spacing" textLength="125.69" x="61.155" y="1290.9276">PHASE 2 &#8212; projection</text><text fill="#000000" font-family="'Inter, Helvetica, sans-serif'" font-size="12" lengthAdjust="spacing" textLength="165.5242" x="41.2379" y="1305.4499">freegen.projectFreeGenText(</text><text fill="#000000" font-family="'Inter, Helvetica, sans-serif'" font-size="12" lengthAdjust="spacing" textLength="120.4401" x="67.1549" y="1319.9723">text, embed, anchors</text><text fill="#000000" font-family="'Inter, Helvetica, sans-serif'" font-size="12" lengthAdjust="spacing" textLength="4.3465" x="121.8268" y="1334.4947">)</text></g><g class="entity" data-qualified-name="PHASE1.ASK" data-source-line="9" id="ent0004"><rect fill="#F1F1F1" height="78.0894" rx="4" ry="4" style="stroke:#181818;stroke-width:0.5;" width="130.0256" x="69" y="449.3029"/><line style="stroke:#181818;stroke-width:0.5;" x1="69" x2="199.0256" y1="517.3923" y2="517.3923"/><text fill="#000000" font-family="'Inter, Helvetica, sans-serif'" font-size="12" lengthAdjust="spacing" textLength="93.3215" x="79" y="465.9276">1&#215; appel mod&#232;le</text><text fill="#000000" font-family="'Inter, Helvetica, sans-serif'" font-size="12" lengthAdjust="spacing" textLength="110.0256" x="79" y="480.4499">FREEGEN_PROMPT</text><text fill="#000000" font-family="'Inter, Helvetica, sans-serif'" font-size="12" lengthAdjust="spacing" textLength="78.4071" x="79" y="494.9723">(topic-neutre,</text><text fill="#000000" font-family="'Inter, Helvetica, sans-serif'" font-size="12" lengthAdjust="spacing" textLength="94.259" x="79" y="509.4947">~600-800 mots)</text></g><g class="entity" data-qualified-name="PHASE1.STRIP" data-source-line="10" id="ent0005"><rect fill="#F1F1F1" height="50" rx="4" ry="4" style="stroke:#181818;stroke-width:0.5;" width="151.4853" x="53.5" y="597.3029"/><line style="stroke:#181818;stroke-width:0.5;" x1="53.5" x2="204.9853" y1="636.3476" y2="636.3476"/><text fill="#000000" font-family="'Inter, Helvetica, sans-serif'" font-size="12" lengthAdjust="spacing" textLength="131.4853" x="63.5" y="613.9276">Strip &lt;think&gt;&#8230;&lt;/think&gt;</text><text fill="#000000" font-family="'Inter, Helvetica, sans-serif'" font-size="12" lengthAdjust="spacing" textLength="28.4652" x="63.5" y="628.4499">(D11)</text></g><g class="entity" data-qualified-name="PHASE1.TEXT_OUT" data-source-line="11" id="ent0006"><rect fill="#F1F1F1" height="63.5671" rx="4" ry="4" style="stroke:#181818;stroke-width:0.5;" width="163.8941" x="43" y="717.3029"/><line style="stroke:#181818;stroke-width:0.5;" x1="43" x2="206.8941" y1="770.87" y2="770.87"/><text fill="#000000" font-family="'Inter, Helvetica, sans-serif'" font-size="12" lengthAdjust="spacing" textLength="40.1581" x="53" y="733.9276">Sortie :</text><text fill="#000000" font-family="'Inter, Helvetica, sans-serif'" font-size="12" lengthAdjust="spacing" textLength="143.8941" x="53" y="748.4499">&#8226; freegen_text (verbatim)</text><text fill="#000000" font-family="'Inter, Helvetica, sans-serif'" font-size="12" lengthAdjust="spacing" textLength="94.7362" x="53" y="762.9723">&#8226; freegen_words</text></g><g class="entity" data-qualified-name="PHASE2.EMB_TEXT" data-source-line="17" id="ent0009"><rect fill="#F1F1F1" height="50" rx="4" ry="4" style="stroke:#181818;stroke-width:0.5;" width="141.7867" x="53" y="1447.1629"/><line style="stroke:#181818;stroke-width:0.5;" x1="53" x2="194.7867" y1="1486.2076" y2="1486.2076"/><text fill="#000000" font-family="'Inter, Helvetica, sans-serif'" font-size="12" lengthAdjust="spacing" textLength="90.7647" x="63" y="1463.7876">1&#215; appel embed</text><text fill="#000000" font-family="'Inter, Helvetica, sans-serif'" font-size="12" lengthAdjust="spacing" textLength="121.7867" x="63" y="1478.3099">(freegen_text stock&#233;)</text></g><g class="entity" data-qualified-name="PHASE2.EMB_ANCHORS" data-source-line="18" id="ent0010"><rect fill="#F1F1F1" height="78.0894" rx="4" ry="4" style="stroke:#181818;stroke-width:0.5;" width="163.9622" x="42" y="1558.1629"/><line style="stroke:#181818;stroke-width:0.5;" x1="42" x2="205.9622" y1="1626.2523" y2="1626.2523"/><text fill="#000000" font-family="'Inter, Helvetica, sans-serif'" font-size="12" lengthAdjust="spacing" textLength="99.2872" x="52" y="1574.7876">K&#215; appels embed</text><text fill="#000000" font-family="'Inter, Helvetica, sans-serif'" font-size="12" lengthAdjust="spacing" textLength="117.2016" x="52" y="1589.3099">(17 ancres feuilles &#8212;</text><text fill="#000000" font-family="'Inter, Helvetica, sans-serif'" font-size="12" lengthAdjust="spacing" textLength="121.514" x="52" y="1603.8323">batched dans un seul</text><text fill="#000000" font-family="'Inter, Helvetica, sans-serif'" font-size="12" lengthAdjust="spacing" textLength="143.9622" x="52" y="1618.3547">spawn llama-embedding)</text></g><g class="entity" data-qualified-name="PHASE2.PROJECT" data-source-line="19" id="ent0011"><rect fill="#F1F1F1" height="63.5671" rx="4" ry="4" style="stroke:#181818;stroke-width:0.5;" width="139.6731" x="54" y="1697.1629"/><line style="stroke:#181818;stroke-width:0.5;" x1="54" x2="193.6731" y1="1750.73" y2="1750.73"/><text fill="#000000" font-family="'Inter, Helvetica, sans-serif'" font-size="12" lengthAdjust="spacing" textLength="103.7871" x="64" y="1713.7876">Projection cosinus</text><text fill="#000000" font-family="'Inter, Helvetica, sans-serif'" font-size="12" lengthAdjust="spacing" textLength="98.2305" x="64" y="1728.3099">sur chaque ancre</text><text fill="#000000" font-family="'Inter, Helvetica, sans-serif'" font-size="12" lengthAdjust="spacing" textLength="119.6731" x="64" y="1742.8323">(probe-anchors.json)</text></g><g class="entity" data-qualified-name="PHASE2.PROJ_OUT" data-source-line="20" id="ent0012"><rect fill="#F1F1F1" height="63.5671" rx="4" ry="4" style="stroke:#181818;stroke-width:0.5;" width="186.0867" x="31" y="1822.1629"/><line style="stroke:#181818;stroke-width:0.5;" x1="31" x2="217.0867" y1="1875.73" y2="1875.73"/><text fill="#000000" font-family="'Inter, Helvetica, sans-serif'" font-size="12" lengthAdjust="spacing" textLength="40.1581" x="41" y="1838.7876">Sortie :</text><text fill="#000000" font-family="'Inter, Helvetica, sans-serif'" font-size="12" lengthAdjust="spacing" textLength="147.5247" x="41" y="1853.3099">&#8226; topic_coverage_per_leaf</text><text fill="#000000" font-family="'Inter, Helvetica, sans-serif'" font-size="12" lengthAdjust="spacing" textLength="166.0867" x="41" y="1867.8323">&#8226; topic_coverage_per_branch</text></g><g class="entity" data-qualified-name="TREE_DONE" data-source-line="5" id="ent0001"><rect fill="#F1F1F1" height="50" rx="4" ry="4" style="stroke:#181818;stroke-width:0.5;" width="140.031" x="208" y="44.9429"/><line style="stroke:#181818;stroke-width:0.5;" x1="208" x2="348.031" y1="83.9876" y2="83.9876"/><text fill="#000000" font-family="'Inter, Helvetica, sans-serif'" font-size="12" lengthAdjust="spacing" textLength="120.031" x="218" y="61.5676">Caract&#233;risation arbre</text><text fill="#000000" font-family="'Inter, Helvetica, sans-serif'" font-size="12" lengthAdjust="spacing" textLength="105.5939" x="218" y="76.0899">termin&#233;e (slice 4c)</text></g><g class="entity" data-qualified-name="GATE_FG" data-source-line="6" id="ent0002"><rect fill="#F1F1F1" height="50" rx="4" ry="4" style="stroke:#181818;stroke-width:0.5;" width="193.5353" x="181" y="155.9429"/><line style="stroke:#181818;stroke-width:0.5;" x1="181" x2="374.5353" y1="194.9876" y2="194.9876"/><text fill="#000000" font-family="'Inter, Helvetica, sans-serif'" font-size="12" lengthAdjust="spacing" textLength="110.7245" x="191" y="172.5676">characterizeTree.ts</text><text fill="#000000" font-family="'Inter, Helvetica, sans-serif'" font-size="12" lengthAdjust="spacing" textLength="166.7855" x="197.7498" y="187.0899">if (opts.freegen !== false) {&#8230;}</text></g><g class="entity" data-qualified-name="MERGE_TEXT" data-source-line="14" id="ent0007"><rect fill="#F1F1F1" height="63.5671" rx="4" ry="4" style="stroke:#181818;stroke-width:0.5;" width="168.4792" x="41" y="860.3029"/><line style="stroke:#181818;stroke-width:0.5;" x1="41" x2="209.4792" y1="913.87" y2="913.87"/><text fill="#000000" font-family="'Inter, Helvetica, sans-serif'" font-size="12" lengthAdjust="spacing" textLength="123.4571" x="51" y="876.9276">merge dans signature</text><text fill="#000000" font-family="'Inter, Helvetica, sans-serif'" font-size="12" lengthAdjust="spacing" textLength="63.3393" x="51" y="891.4499">(texte seul,</text><text fill="#000000" font-family="'Inter, Helvetica, sans-serif'" font-size="12" lengthAdjust="spacing" textLength="148.4792" x="51" y="905.9723">PAS de projection encore)</text></g><g class="entity" data-qualified-name="MERGE_PROJ" data-source-line="23" id="ent0013"><rect fill="#F1F1F1" height="50" rx="4" ry="4" style="stroke:#181818;stroke-width:0.5;" width="147.3092" x="50.5" y="1965.1629"/><line style="stroke:#181818;stroke-width:0.5;" x1="50.5" x2="197.8092" y1="2004.2076" y2="2004.2076"/><text fill="#000000" font-family="'Inter, Helvetica, sans-serif'" font-size="12" lengthAdjust="spacing" textLength="127.3092" x="60.5" y="1981.7876">merge projection dans</text><text fill="#000000" font-family="'Inter, Helvetica, sans-serif'" font-size="12" lengthAdjust="spacing" textLength="101.1281" x="60.5" y="1996.3099">signature (additif)</text></g><g class="entity" data-qualified-name="SKIP_FG" data-source-line="25" id="ent0014"><rect fill="#F1F1F1" height="50" rx="4" ry="4" style="stroke:#181818;stroke-width:0.5;" width="158.8828" x="256.5" y="306.3029"/><line style="stroke:#181818;stroke-width:0.5;" x1="256.5" x2="415.3828" y1="345.3476" y2="345.3476"/><text fill="#000000" font-family="'Inter, Helvetica, sans-serif'" font-size="12" lengthAdjust="spacing" textLength="102.5258" x="266.5" y="322.9276">freegen d&#233;sactiv&#233;</text><text fill="#000000" font-family="'Inter, Helvetica, sans-serif'" font-size="12" lengthAdjust="spacing" textLength="138.8828" x="266.5" y="337.4499">(opts.freegen === false)</text></g><g class="entity" data-qualified-name="SKIP_E" data-source-line="26" id="ent0015"><rect fill="#F1F1F1" height="63.5671" rx="4" ry="4" style="stroke:#181818;stroke-width:0.5;" width="182.6095" x="263.5" y="456.3029"/><line style="stroke:#181818;stroke-width:0.5;" x1="263.5" x2="446.1095" y1="509.87" y2="509.87"/><text fill="#000000" font-family="'Inter, Helvetica, sans-serif'" font-size="12" lengthAdjust="spacing" textLength="79.5832" x="273.5" y="472.9276">phase 1 throw</text><text fill="#000000" font-family="'Inter, Helvetica, sans-serif'" font-size="12" lengthAdjust="spacing" textLength="125.1616" x="273.5" y="487.4499">(r&#233;ponse vide, etc.) &#8594;</text><text fill="#000000" font-family="'Inter, Helvetica, sans-serif'" font-size="12" lengthAdjust="spacing" textLength="162.6095" x="273.5" y="501.9723">isol&#233;, passe arbre conserv&#233;e</text></g><g class="entity" data-qualified-name="BULK_LOOP" data-source-line="36" id="ent0016"><rect fill="#F1F1F1" height="50" rx="4" ry="4" style="stroke:#181818;stroke-width:0.5;" width="164.4906" x="43" y="1015.3029"/><line style="stroke:#181818;stroke-width:0.5;" x1="43" x2="207.4906" y1="1054.3476" y2="1054.3476"/><text fill="#000000" font-family="'Inter, Helvetica, sans-serif'" font-size="12" lengthAdjust="spacing" textLength="84.441" x="53" y="1031.9276">characterizeAll</text><text fill="#000000" font-family="'Inter, Helvetica, sans-serif'" font-size="12" lengthAdjust="spacing" textLength="144.4906" x="53" y="1046.4499">(bulk, boucle par mod&#232;le)</text></g><g class="entity" data-qualified-name="PROJ_GATE" data-source-line="37" id="ent0017"><rect fill="#F1F1F1" height="50" rx="4" ry="4" style="stroke:#181818;stroke-width:0.5;" width="180.5129" x="34.5" y="1126.3029"/><line style="stroke:#181818;stroke-width:0.5;" x1="34.5" x2="215.0129" y1="1165.3476" y2="1165.3476"/><text fill="#000000" font-family="'Inter, Helvetica, sans-serif'" font-size="12" lengthAdjust="spacing" textLength="89.5886" x="44.5" y="1142.9276">skipProjection ?</text><text fill="#000000" font-family="'Inter, Helvetica, sans-serif'" font-size="12" lengthAdjust="spacing" textLength="160.5129" x="44.5" y="1157.4499">OU embedder indisponible ?</text></g><g class="end_entity" data-qualified-name=".end." data-source-line="41" id="ent0028"><ellipse cx="281" cy="1344.6629" fill="none" rx="11" ry="11" style="stroke:#222222;stroke-width:1;"/><ellipse cx="281" cy="1344.6629" fill="#222222" rx="6" ry="6" style="stroke:#222222;stroke-width:1;"/></g><g class="entity" data-qualified-name="GMN36" data-source-line="52" id="ent0037"><path d="M451,308.3029 L451,353.87 A4,4 0 0 0 455,357.87 L662.7735,357.87 A4,4 0 0 0 666.7735,353.87 L666.7735,314.3029 L656.7735,304.3029 L455,304.3029 A4,4 0 0 0 451,308.3029" fill="#FFFDF6" style="stroke:#C68A3A;stroke-width:0.5;"/><path d="M656.7735,304.3029 L656.7735,312.3029 A2,2 0 0 0 658.7735,314.3029 L666.7735,314.3029 L656.7735,304.3029" fill="#FFFDF6" style="stroke:#C68A3A;stroke-width:1;"/><text fill="#0E1014" font-family="'Inter, Helvetica, sans-serif'" font-size="12" lengthAdjust="spacing" textLength="173.6888" x="457" y="320.9276">AUCUN EMBEDDER touch&#233; ici.</text><text fill="#0E1014" font-family="'Inter, Helvetica, sans-serif'" font-size="12" lengthAdjust="spacing" textLength="169.5809" x="457" y="335.4499">Le mod&#232;le de test est la seule</text><text fill="#0E1014" font-family="'Inter, Helvetica, sans-serif'" font-size="12" lengthAdjust="spacing" textLength="194.7735" x="457" y="349.9723">chose en RAM pendant la phase 1.</text></g><g class="entity" data-qualified-name="GMN39" data-source-line="58" id="ent0040"><path d="M327,1307.1629 L327,1381.7747 A4,4 0 0 0 331,1385.7747 L581.3178,1385.7747 A4,4 0 0 0 585.3178,1381.7747 L585.3178,1313.1629 L575.3178,1303.1629 L331,1303.1629 A4,4 0 0 0 327,1307.1629" fill="#FFFDF6" style="stroke:#C68A3A;stroke-width:0.5;"/><path d="M575.3178,1303.1629 L575.3178,1311.1629 A2,2 0 0 0 577.3178,1313.1629 L585.3178,1313.1629 L575.3178,1303.1629" fill="#FFFDF6" style="stroke:#C68A3A;stroke-width:1;"/><text fill="#0E1014" font-family="'Inter, Helvetica, sans-serif'" font-size="12" lengthAdjust="spacing" textLength="237.3178" x="333" y="1319.7876">Chemin bulk : un spawn llama-embedding</text><text fill="#0E1014" font-family="'Inter, Helvetica, sans-serif'" font-size="12" lengthAdjust="spacing" textLength="178.9897" x="333" y="1334.3099">par mod&#232;le (embedderCli.ts), le</text><text fill="#0E1014" font-family="'Inter, Helvetica, sans-serif'" font-size="12" lengthAdjust="spacing" textLength="172.3763" x="333" y="1348.8323">processus exit &#8594; RAM lib&#233;r&#233;e.</text><text fill="#0E1014" font-family="'Inter, Helvetica, sans-serif'" font-size="12" lengthAdjust="spacing" textLength="180.4386" x="333" y="1363.3547">Le mod&#232;le de test n'est JAMAIS</text><text fill="#0E1014" font-family="'Inter, Helvetica, sans-serif'" font-size="12" lengthAdjust="spacing" textLength="159.8653" x="333" y="1377.877">coexistant avec l'embedder.</text></g><g class="entity" data-qualified-name="GMN42" data-source-line="66" id="ent0043"><path d="M19.5,2080.1629 L19.5,2154.7747 A4,4 0 0 0 23.5,2158.7747 L224.0464,2158.7747 A4,4 0 0 0 228.0464,2154.7747 L228.0464,2086.1629 L218.0464,2076.1629 L128,2076.1629 L124,2015.3629 L120,2076.1629 L23.5,2076.1629 A4,4 0 0 0 19.5,2080.1629" fill="#FFFDF6" style="stroke:#C68A3A;stroke-width:0.5;"/><path d="M218.0464,2076.1629 L218.0464,2084.1629 A2,2 0 0 0 220.0464,2086.1629 L228.0464,2086.1629 L218.0464,2076.1629" fill="#FFFDF6" style="stroke:#C68A3A;stroke-width:0.5;"/><text fill="#0E1014" font-family="'Inter, Helvetica, sans-serif'" font-size="12" lengthAdjust="spacing" textLength="187.5464" x="25.5" y="2092.7876">Les champs sont une **&#233;vidence</text><text fill="#0E1014" font-family="'Inter, Helvetica, sans-serif'" font-size="12" lengthAdjust="spacing" textLength="187.1884" x="25.5" y="2107.3099">suppl&#233;mentaire** dans le routing</text><text fill="#0E1014" font-family="'Inter, Helvetica, sans-serif'" font-size="12" lengthAdjust="spacing" textLength="150.4905" x="25.5" y="2121.8323">(blend &#945;=0.7 d&#233;terministe,</text><text fill="#0E1014" font-family="'Inter, Helvetica, sans-serif'" font-size="12" lengthAdjust="spacing" textLength="184.2056" x="25.5" y="2136.3547">&#946;=0.3 coverage). Ne remplacent</text><text fill="#0E1014" font-family="'Inter, Helvetica, sans-serif'" font-size="12" lengthAdjust="spacing" textLength="142.9395" x="25.5" y="2150.877">jamais `scores_per_leaf`.</text></g><g class="entity" data-qualified-name="GMN45" data-source-line="74" id="ent0046"><path d="M255.5,592.3029 L255.5,652.3923 A4,4 0 0 0 259.5,656.3923 L464.2735,656.3923 A4,4 0 0 0 468.2735,652.3923 L468.2735,598.3029 L458.2735,588.3029 L364.23,588.3029 L356.66,520.5829 L356.23,588.3029 L259.5,588.3029 A4,4 0 0 0 255.5,592.3029" fill="#FFFDF6" style="stroke:#C68A3A;stroke-width:0.5;"/><path d="M458.2735,588.3029 L458.2735,596.3029 A2,2 0 0 0 460.2735,598.3029 L468.2735,598.3029 L458.2735,588.3029" fill="#FFFDF6" style="stroke:#C68A3A;stroke-width:0.5;"/><text fill="#0E1014" font-family="'Inter, Helvetica, sans-serif'" font-size="12" lengthAdjust="spacing" textLength="147.644" x="261.5" y="604.9276">DECISIONS.md DCC &#167;5 &#8212;</text><text fill="#0E1014" font-family="'Inter, Helvetica, sans-serif'" font-size="12" lengthAdjust="spacing" textLength="191.7735" x="261.5" y="619.4499">&#233;chec de sonde NE coule JAMAIS</text><text fill="#0E1014" font-family="'Inter, Helvetica, sans-serif'" font-size="12" lengthAdjust="spacing" textLength="181.3761" x="261.5" y="633.9723">la passe arbre qui a d&#233;j&#224; calcul&#233;</text><text fill="#0E1014" font-family="'Inter, Helvetica, sans-serif'" font-size="12" lengthAdjust="spacing" textLength="91.7022" x="261.5" y="648.4947">scores_per_leaf.</text></g><!--link TREE_DONE to GATE_FG--><g class="link" data-entity-1="ent0001" data-entity-2="ent0002" data-link-type="dependency" data-source-line="28" id="lnk18"><path d="M278,95.1329 C278,113.1929 278,132.7729 278,150.8229" fill="none" id="TREE_DONE-to-GATE_FG" style="stroke:#1A1D24;stroke-width:1;"/><polygon fill="#1A1D24" points="278,155.8229,282,146.8229,278,150.8229,274,146.8229,278,155.8229" style="stroke:#1A1D24;stroke-width:1;stroke-linejoin:miter;stroke-miterlimit:10;"/></g><!--link GATE_FG to PHASE1--><g class="link" data-entity-1="ent0002" data-entity-2="ent0003" data-link-type="dependency" data-source-line="29" id="lnk19"><path d="M243,206.0129 C233.77,214.3229 225,224.4629 220,235.9429 C215.945,245.2554 213.9125,255.5916 213.1608,265.9096 C212.7849,271.0686 212.7293,276.223 212.9011,281.2426 C212.987,283.7524 213.1298,286.2285 213.3178,288.6546 C213.3648,289.2611 213.4147,289.8645 213.4672,290.4645 C213.4803,290.6145 213.0457,285.7844 213.0592,285.934" fill="none" id="GATE_FG-to-PHASE1" style="stroke:#1A1D24;stroke-width:1;"/><polygon fill="#1A1D24" points="213.507,290.9139,216.6848,281.5918,213.0592,285.934,208.717,282.3084,213.507,290.9139" style="stroke:#1A1D24;stroke-width:1;stroke-linejoin:miter;stroke-miterlimit:10;"/><text fill="#000000" font-family="'Inter, Helvetica, sans-serif'" font-size="12" lengthAdjust="spacing" textLength="65.6404" x="224.0425" y="248.5676">freegen ON</text><text fill="#000000" font-family="'Inter, Helvetica, sans-serif'" font-size="12" lengthAdjust="spacing" textLength="71.7255" x="221" y="263.0899">(d&#233;faut true)</text></g><!--link GATE_FG to SKIP_FG--><g class="link" data-entity-1="ent0002" data-entity-2="ent0014" data-link-type="dependency" data-source-line="30" id="lnk20"><path d="M287.45,206.1129 C298.23,233.7029 313.9483,273.9065 324.7383,301.4865" fill="none" id="GATE_FG-to-SKIP_FG" style="stroke:#1A1D24;stroke-width:1;"/><polygon fill="#1A1D24" points="326.56,306.1429,327.006,296.3041,324.7383,301.4865,319.5559,299.2188,326.56,306.1429" style="stroke:#1A1D24;stroke-width:1;stroke-linejoin:miter;stroke-miterlimit:10;"/><text fill="#000000" font-family="'Inter, Helvetica, sans-serif'" font-size="12" lengthAdjust="spacing" textLength="102.7645" x="311" y="256.0676">explicitement OFF</text></g><!--link PHASE1 to ASK--><g class="link" data-entity-1="ent0003" data-entity-2="ent0004" data-link-type="dependency" data-source-line="31" id="lnk21"><path d="M220.94,332.4129 C219.17,335.5729 182.9771,400.0426 157.8171,444.8726" fill="none" id="PHASE1-to-ASK" style="stroke:#1A1D24;stroke-width:1;"/><polygon fill="#1A1D24" points="155.37,449.2329,163.263,443.3421,157.8171,444.8726,156.2866,439.4268,155.37,449.2329" style="stroke:#1A1D24;stroke-width:1;stroke-linejoin:miter;stroke-miterlimit:10;"/></g><!--link ASK to STRIP--><g class="link" data-entity-1="ent0004" data-entity-2="ent0005" data-link-type="dependency" data-source-line="32" id="lnk22"><path d="M132.55,527.4829 C131.71,549.8729 130.8501,572.4865 130.1101,591.9365" fill="none" id="ASK-to-STRIP" style="stroke:#1A1D24;stroke-width:1;"/><polygon fill="#1A1D24" points="129.92,596.9329,134.2593,588.0915,130.1101,591.9365,126.2651,587.7873,129.92,596.9329" style="stroke:#1A1D24;stroke-width:1;stroke-linejoin:miter;stroke-miterlimit:10;"/></g><!--link STRIP to TEXT_OUT--><g class="link" data-entity-1="ent0005" data-entity-2="ent0006" data-link-type="dependency" data-source-line="33" id="lnk23"><path d="M128.23,647.4029 C127.59,667.2729 126.8498,690.5854 126.1598,712.1654" fill="none" id="STRIP-to-TEXT_OUT" style="stroke:#1A1D24;stroke-width:1;"/><polygon fill="#1A1D24" points="126,717.1629,130.2856,708.2953,126.1598,712.1654,122.2897,708.0397,126,717.1629" style="stroke:#1A1D24;stroke-width:1;stroke-linejoin:miter;stroke-miterlimit:10;"/></g><!--link TEXT_OUT to MERGE_TEXT--><g class="link" data-entity-1="ent0006" data-entity-2="ent0007" data-link-type="dependency" data-source-line="34" id="lnk24"><path d="M125,781.5929 C125,804.9629 125,831.7529 125,855.1029" fill="none" id="TEXT_OUT-to-MERGE_TEXT" style="stroke:#1A1D24;stroke-width:1;"/><polygon fill="#1A1D24" points="125,860.1029,129,851.1029,125,855.1029,121,851.1029,125,860.1029" style="stroke:#1A1D24;stroke-width:1;stroke-linejoin:miter;stroke-miterlimit:10;"/></g><!--link MERGE_TEXT to BULK_LOOP--><g class="link" data-entity-1="ent0007" data-entity-2="ent0016" data-link-type="dependency" data-source-line="38" id="lnk25"><path d="M125,924.6229 C125,951.7729 125,985.4829 125,1010.2529" fill="none" id="MERGE_TEXT-to-BULK_LOOP" style="stroke:#1A1D24;stroke-width:1;"/><polygon fill="#1A1D24" points="125,1015.2529,129,1006.2529,125,1010.2529,121,1006.2529,125,1015.2529" style="stroke:#1A1D24;stroke-width:1;stroke-linejoin:miter;stroke-miterlimit:10;"/><text fill="#000000" font-family="'Inter, Helvetica, sans-serif'" font-size="12" lengthAdjust="spacing" textLength="127.565" x="126" y="966.9276">signature sauv&#233;e avec</text><text fill="#000000" font-family="'Inter, Helvetica, sans-serif'" font-size="12" lengthAdjust="spacing" textLength="98.1623" x="140.7013" y="981.4499">freegen_text seul</text></g><!--link BULK_LOOP to PROJ_GATE--><g class="link" data-entity-1="ent0016" data-entity-2="ent0017" data-link-type="dependency" data-source-line="39" id="lnk26"><path d="M125,1065.4929 C125,1083.5529 125,1103.1329 125,1121.1829" fill="none" id="BULK_LOOP-to-PROJ_GATE" style="stroke:#1A1D24;stroke-width:1;"/><polygon fill="#1A1D24" points="125,1126.1829,129,1117.1829,125,1121.1829,121,1117.1829,125,1126.1829" style="stroke:#1A1D24;stroke-width:1;stroke-linejoin:miter;stroke-miterlimit:10;"/></g><!--link PROJ_GATE to PHASE2--><g class="link" data-entity-1="ent0017" data-entity-2="ent0008" data-link-type="dependency" data-source-line="40" id="lnk27"><path d="M120.65,1176.4129 C119.18,1185.7229 117.72,1196.4729 117,1206.3029 C115.895,1221.3054 115.7575,1237.2429 116.1783,1252.7465 C116.2835,1256.6224 116.4236,1260.4712 116.5922,1264.2714 C116.6764,1266.1716 116.7679,1268.0596 116.8656,1269.9328 C116.9145,1270.8694 116.9649,1271.8023 117.0169,1272.7312 C117.0428,1273.1956 117.0692,1273.659 117.0959,1274.1214 C117.1092,1274.3526 116.83,1269.5921 116.8435,1269.8227" fill="none" id="PROJ_GATE-to-PHASE2" style="stroke:#1A1D24;stroke-width:1;"/><polygon fill="#1A1D24" points="117.1362,1274.8142,120.6025,1265.5955,116.8435,1269.8227,112.6162,1266.0637,117.1362,1274.8142" style="stroke:#1A1D24;stroke-width:1;stroke-linejoin:miter;stroke-miterlimit:10;"/><text fill="#000000" font-family="'Inter, Helvetica, sans-serif'" font-size="12" lengthAdjust="spacing" textLength="119.7753" x="118" y="1225.9276">embedder disponible</text><text fill="#000000" font-family="'Inter, Helvetica, sans-serif'" font-size="12" lengthAdjust="spacing" textLength="101.7247" x="127.0253" y="1240.4499">ET !skipProjection</text></g><!--link PROJ_GATE to *end*--><g class="link" data-entity-1="ent0017" data-entity-2="ent0028" data-link-type="dependency" data-source-line="41" id="lnk29"><path d="M202.31,1176.4529 C217.12,1184.0329 231.31,1193.8029 242,1206.3029 C274.71,1244.5429 279.907,1303.5155 280.717,1328.3555" fill="none" id="PROJ_GATE-to-*end*" style="stroke:#1A1D24;stroke-width:1;"/><polygon fill="#1A1D24" points="280.88,1333.3529,284.5846,1324.2273,280.717,1328.3555,276.5888,1324.488,280.88,1333.3529" style="stroke:#1A1D24;stroke-width:1;stroke-linejoin:miter;stroke-miterlimit:10;"/><text fill="#000000" font-family="'Inter, Helvetica, sans-serif'" font-size="12" lengthAdjust="spacing" textLength="83.1967" x="290.3517" y="1218.9276">skip projection</text><text fill="#000000" font-family="'Inter, Helvetica, sans-serif'" font-size="12" lengthAdjust="spacing" textLength="129.9001" x="267" y="1233.4499">(texte reste, projetable</text><text fill="#000000" font-family="'Inter, Helvetica, sans-serif'" font-size="12" lengthAdjust="spacing" textLength="54.1691" x="304.8655" y="1247.9723">plus tard)</text></g><!--link PHASE2 to EMB_TEXT--><g class="link" data-entity-1="ent0008" data-entity-2="ent0009" data-link-type="dependency" data-source-line="43" id="lnk30"><path d="M124,1345.7529 C124,1348.4729 124,1406.3829 124,1442.0529" fill="none" id="PHASE2-to-EMB_TEXT" style="stroke:#1A1D24;stroke-width:1;"/><polygon fill="#1A1D24" points="124,1447.0529,128,1438.0529,124,1442.0529,120,1438.0529,124,1447.0529" style="stroke:#1A1D24;stroke-width:1;stroke-linejoin:miter;stroke-miterlimit:10;"/></g><!--link EMB_TEXT to EMB_ANCHORS--><g class="link" data-entity-1="ent0009" data-entity-2="ent0010" data-link-type="dependency" data-source-line="44" id="lnk31"><path d="M124,1497.1729 C124,1514.3729 124,1532.8929 124,1552.6929" fill="none" id="EMB_TEXT-to-EMB_ANCHORS" style="stroke:#1A1D24;stroke-width:1;"/><polygon fill="#1A1D24" points="124,1557.6929,128,1548.6929,124,1552.6929,120,1548.6929,124,1557.6929" style="stroke:#1A1D24;stroke-width:1;stroke-linejoin:miter;stroke-miterlimit:10;"/></g><!--link EMB_ANCHORS to PROJECT--><g class="link" data-entity-1="ent0010" data-entity-2="ent0011" data-link-type="dependency" data-source-line="45" id="lnk32"><path d="M124,1636.4629 C124,1655.7829 124,1673.9229 124,1692.1129" fill="none" id="EMB_ANCHORS-to-PROJECT" style="stroke:#1A1D24;stroke-width:1;"/><polygon fill="#1A1D24" points="124,1697.1129,128,1688.1129,124,1692.1129,120,1688.1129,124,1697.1129" style="stroke:#1A1D24;stroke-width:1;stroke-linejoin:miter;stroke-miterlimit:10;"/></g><!--link PROJECT to PROJ_OUT--><g class="link" data-entity-1="ent0011" data-entity-2="ent0012" data-link-type="dependency" data-source-line="46" id="lnk33"><path d="M124,1761.2029 C124,1779.8429 124,1798.4929 124,1817.1329" fill="none" id="PROJECT-to-PROJ_OUT" style="stroke:#1A1D24;stroke-width:1;"/><polygon fill="#1A1D24" points="124,1822.1329,128,1813.1329,124,1817.1329,120,1813.1329,124,1822.1329" style="stroke:#1A1D24;stroke-width:1;stroke-linejoin:miter;stroke-miterlimit:10;"/></g><!--link PROJ_OUT to MERGE_PROJ--><g class="link" data-entity-1="ent0012" data-entity-2="ent0013" data-link-type="dependency" data-source-line="47" id="lnk34"><path d="M124,1886.2429 C124,1910.2129 124,1937.8829 124,1959.9329" fill="none" id="PROJ_OUT-to-MERGE_PROJ" style="stroke:#1A1D24;stroke-width:1;"/><polygon fill="#1A1D24" points="124,1964.9329,128,1955.9329,124,1959.9329,120,1955.9329,124,1964.9329" style="stroke:#1A1D24;stroke-width:1;stroke-linejoin:miter;stroke-miterlimit:10;"/></g><!--link PHASE1 to SKIP_E--><g class="link" data-entity-1="ent0003" data-entity-2="ent0015" data-link-type="dependency" data-source-line="49" id="lnk35"><path d="M231.083,347.5569 C231.2021,347.7278 231.3218,347.899 231.4419,348.0706 C231.9225,348.757 232.4111,349.4489 232.9056,350.1424 C234.8838,352.9166 236.9575,355.7179 239,358.3029 C266.55,393.1529 297.4255,427.0392 321.5655,452.5792" fill="none" id="PHASE1-to-SKIP_E" style="stroke:#1A1D24;stroke-width:1;"/><polygon fill="#1A1D24" points="325,456.2129,321.7248,446.9246,321.5655,452.5792,315.9109,452.4198,325,456.2129" style="stroke:#1A1D24;stroke-width:1;stroke-linejoin:miter;stroke-miterlimit:10;"/><text fill="#000000" font-family="'Inter, Helvetica, sans-serif'" font-size="12" lengthAdjust="spacing" textLength="74.8106" x="310.9455" y="400.9276">throw catch&#233;</text><text fill="#000000" font-family="'Inter, Helvetica, sans-serif'" font-size="12" lengthAdjust="spacing" textLength="118.7015" x="289" y="415.4499">par characterizeTree</text></g><!--link PHASE1 to GMN36--><g class="link" data-entity-1="ent0003" data-entity-2="ent0037" data-link-type="association" data-source-line="52" id="lnk38"><path d="M225.7396,290.6666 C225.8117,290.3661 225.885,290.0652 225.9594,289.7639 C226.1082,289.1614 226.2614,288.5572 226.4192,287.9519 C226.7347,286.7413 227.0685,285.526 227.4217,284.309 C228.128,281.8751 228.9115,279.4343 229.7807,277.0108 C231.5192,272.1639 233.6004,267.3859 236.0917,262.8693 C241.0744,253.836 247.6975,245.8479 256.5,240.4429 C316.72,203.4629 347.63,220.7629 415.5,240.4429 C458.26,252.8429 500.51,282.2229 527.96,304.2429" fill="none" id="PHASE1-GMN36" style="stroke:#1A1D24;stroke-width:1;stroke-dasharray:7,7;"/></g><!--link PHASE2 to GMN39--><g class="link" data-entity-1="ent0008" data-entity-2="ent0040" data-link-type="association" data-source-line="58" id="lnk41"><path d="M170.9241,1274.5983 C171.3788,1274.057 171.8361,1273.5161 172.296,1272.9757 C174.1356,1270.8144 176.0167,1268.6623 177.9375,1266.5291 C208.67,1232.3979 249.545,1203.0929 292.5,1217.8029 C341.62,1234.6229 387.38,1272.8729 417.92,1303.0029" fill="none" id="PHASE2-GMN39" style="stroke:#1A1D24;stroke-width:1;stroke-dasharray:7,7;"/></g><?plantuml-src VLRDRXit4BxlKqnoYMH8YgmsSH742HHvxJYE9K6IWG9LeL2x8ulsYjoGN3jjaCAdFa1HeDUYXxOwjezGtVCGVf8EkRzAdHvaKoJdvvlvvgFkSH54IOZGQZsSPMlzK9ll8cpnP1Lvdk4cGXXBGPSM2h5vZW9kRtu67V40OIzeWDwiOwQOuL901-8bqwYXrcbt7ZVRZvgTJjtpj646uNwFhWLcirPSfzUPcYkS2eDgnSLcZL1BtNuPrEy3qp0P-VxiOD3tSm_1qhb0nR_72QNJCdeg0FW2QZ8skcLJj1dUsz-71Oiqrk7zxStl7vote-x4dnqU5UaCNtR7FkmwE0RVqPR699gAp4cBFaYuy92-7w6Oq9KQqvTfQivu5zvx09cxtSqlmE8O8rZ9SFDdHC0EAVyZlpyRZWQdmybKr8oCUT0Kc1Y5ZQduuN6xtVogtIOBerE_tV59wN9i58_XgLboSVcCS3nzc2x9qy7kRcemdeoEXnKJgGn7U38LjpU_GGPbPk51xGhLd0g_gcyVNaiLwhJU_jUJsU1iudqeYhH2TOuGCg51ytF1J68xLYlhHJ26tJ4GFs8bBp1mZKKHI8LfWgV-wCYVMTUVLBxZAbzQbPNFzgg5jsssGHk0gpc63M0YM4f5xQ_qetDtFvm59RrL3MraSBbPfzR-wOiqmyBw9BVMXVdkdWsgYDqBJ7WKqO80J0NLD5XYc1Of4HcBTCok1KGHMx6cyn1oSLv6w_PxBmUZSHbmM5Ola9gBXA3fH05H_cs2QMHAWaepnsO6ldMXPOv_D7ZbzoQV8u8ZtYoGH05sZhCOrIn2jlZiuLpP48NdEqbHwRU5Jkdc184Q8xY6BweCi7uA3_cWXfkrfe7cLvirWTkQuVrYXbEUdnmFxVHc3fpEqF2QfPBNPAf8XQIWhIiU8f741AqwtFxuqrHmBQFDkW4nqtJi98SgJ5SL1SNIj-zvXTv0i_ciq8lilzlBnlv9FZmmw5DmGh5WYG6Z4gnltS-o9WDy5vEsSOCh50O6XuTUvijUirDFdzJ43RJxwxuNGvaltEuTKrKLnsv45ApDa-Yo0NEP12JY9DAvCgKLVN7s-cJsUZ0OvWxq9OyhD7m-5OEpbFqXAk0Yv9fgpEVax7b93GlNAzDnsHMk2NZ92iqIMt9WLnWKmvvD8ysCLrgvKXVEYrNPWewjQ9vPcTTK-1EujutZ4_DlThwrIT6LBUd958scsn1zt8bXpcCS9HeCKo4zP5biwwUGZ7nHxEQZNLaNWEo8PlzBaBQv-QBIt7HWAYn9QKhPEz93O7N7petjxASle-S9QV7mywK1kSY8I_BGFUkTzMsU_i61FwBPJwmJ86gswFGrvXonYcwe6c0_4NCTGhf1maDZHCmVTKyXHa6ZxywpWMnvj0KszfqPTCX3Rudqt8Cb9s6nWdcNLDB52cEXbdUx5t5wzUiDSDbGemBKcZg4xxYn0-_oYlYSVcOGrpw3IJomVrzrJxl7Le83ITOq18J4SXEY1tcq_y2PIsFaokAfDCd6qBO5gvYUIKbk4e6mixDPMpKIWSrK9t5CEcIddt65EplfUq59APcO572D24VXFlwrtsxjMMrCVnbnoqaw_lWtxNy1kL3NMz2tZ5t54Gl8BTsue19o3M-qVNvr8VDl_WT6fdq01txlU7myw8zRgn0EUZtuvuz7ze6ZeysQ7hZ0La-xNu8aa84aEfGLj0IewElRX0Ep02usln9Feo0XwBO8stbLqleN?></g></svg>