<svg xmlns="http://www.w3.org/2000/svg" xmlns:xlink="http://www.w3.org/1999/xlink" contentStyleType="text/css" data-diagram-type="STATE" height="2159px" preserveAspectRatio="none" style="width:739px;height:2159px;background:#F4EEE3;" version="1.1" viewBox="0 0 739 2159" width="739px" zoomAndPan="magnify"><?plantuml 1.2026.4?><defs/><g><rect fill="#F4EEE3" height="2159" style="stroke:none;stroke-width:1;" width="739" x="0" y="0"/><g class="title" data-source-line="3"><text fill="#000000" font-family="'Inter, Helvetica, sans-serif'" font-size="14" font-weight="700" lengthAdjust="spacing" textLength="435.2457" x="148.7639" y="23.5623">Sonde free-gen &#8212; slice 7c, s&#233;paration 2 phases (2026-05-22)</text></g><!--cluster PHASE1--><g class="cluster" data-qualified-name="PHASE1" data-source-line="8" id="ent0003"><path d="M77,290.9429 L285,290.9429 A4,4 0 0 1 289,294.9429 L289,324.9876 L73,324.9876 L73,294.9429 A4,4 0 0 1 77,290.9429" fill="#F1F1F1"/><rect fill="none" height="514.36" rx="4" ry="4" style="stroke:#181818;stroke-width:0.5;" width="216" x="73" y="290.9429"/><line style="stroke:#181818;stroke-width:0.5;" x1="73" x2="289" y1="324.9876" y2="324.9876"/><text fill="#000000" font-family="'Inter, Helvetica, sans-serif'" font-size="12" lengthAdjust="spacing" textLength="122.7753" x="119.6124" y="306.5676">PHASE 1 &#8212; texte seul</text><text fill="#000000" font-family="'Inter, Helvetica, sans-serif'" font-size="12" lengthAdjust="spacing" textLength="200.5007" x="80.7497" y="321.0899">freegen.generateFreeGenText(ask)</text></g><!--cluster PHASE2--><g class="cluster" data-qualified-name="PHASE2" data-source-line="16" id="ent0008"><path d="M69,1275.3029 L295,1275.3029 A4,4 0 0 1 299,1279.3029 L299,1338.3923 L65,1338.3923 L65,1279.3029 A4,4 0 0 1 69,1275.3029" fill="#F1F1F1"/><rect fill="none" height="634.86" rx="4" ry="4" style="stroke:#181818;stroke-width:0.5;" width="234" x="65" y="1275.3029"/><line style="stroke:#181818;stroke-width:0.5;" x1="65" x2="299" y1="1338.3923" y2="1338.3923"/><text fill="#000000" font-family="'Inter, Helvetica, sans-serif'" font-size="12" lengthAdjust="spacing" textLength="125.69" x="119.155" y="1290.9276">PHASE 2 &#8212; projection</text><text fill="#000000" font-family="'Inter, Helvetica, sans-serif'" font-size="12" lengthAdjust="spacing" textLength="165.5242" x="99.2379" y="1305.4499">freegen.projectFreeGenText(</text><text fill="#000000" font-family="'Inter, Helvetica, sans-serif'" font-size="12" lengthAdjust="spacing" textLength="120.4401" x="125.1549" y="1319.9723">text, embed, anchors</text><text fill="#000000" font-family="'Inter, Helvetica, sans-serif'" font-size="12" lengthAdjust="spacing" textLength="4.3465" x="179.8268" y="1334.4947">)</text></g><g class="entity" data-qualified-name="PHASE1.ASK" data-source-line="9" id="ent0004"><rect fill="#F1F1F1" height="78.0894" rx="4" ry="4" style="stroke:#181818;stroke-width:0.5;" width="130.0256" x="127" y="449.3029"/><line style="stroke:#181818;stroke-width:0.5;" x1="127" x2="257.0256" y1="517.3923" y2="517.3923"/><text fill="#000000" font-family="'Inter, Helvetica, sans-serif'" font-size="12" lengthAdjust="spacing" textLength="93.3215" x="137" y="465.9276">1&#215; appel mod&#232;le</text><text fill="#000000" font-family="'Inter, Helvetica, sans-serif'" font-size="12" lengthAdjust="spacing" textLength="110.0256" x="137" y="480.4499">FREEGEN_PROMPT</text><text fill="#000000" font-family="'Inter, Helvetica, sans-serif'" font-size="12" lengthAdjust="spacing" textLength="78.4071" x="137" y="494.9723">(topic-neutre,</text><text fill="#000000" font-family="'Inter, Helvetica, sans-serif'" font-size="12" lengthAdjust="spacing" textLength="94.259" x="137" y="509.4947">~600-800 mots)</text></g><g class="entity" data-qualified-name="PHASE1.STRIP" data-source-line="10" id="ent0005"><rect fill="#F1F1F1" height="50" rx="4" ry="4" style="stroke:#181818;stroke-width:0.5;" width="151.4853" x="111.5" y="597.3029"/><line style="stroke:#181818;stroke-width:0.5;" x1="111.5" x2="262.9853" y1="636.3476" y2="636.3476"/><text fill="#000000" font-family="'Inter, Helvetica, sans-serif'" font-size="12" lengthAdjust="spacing" textLength="131.4853" x="121.5" y="613.9276">Strip &lt;think&gt;&#8230;&lt;/think&gt;</text><text fill="#000000" font-family="'Inter, Helvetica, sans-serif'" font-size="12" lengthAdjust="spacing" textLength="28.4652" x="121.5" y="628.4499">(D11)</text></g><g class="entity" data-qualified-name="PHASE1.TEXT_OUT" data-source-line="11" id="ent0006"><rect fill="#F1F1F1" height="63.5671" rx="4" ry="4" style="stroke:#181818;stroke-width:0.5;" width="163.8941" x="101" y="717.3029"/><line style="stroke:#181818;stroke-width:0.5;" x1="101" x2="264.8941" y1="770.87" y2="770.87"/><text fill="#000000" font-family="'Inter, Helvetica, sans-serif'" font-size="12" lengthAdjust="spacing" textLength="40.1581" x="111" y="733.9276">Sortie :</text><text fill="#000000" font-family="'Inter, Helvetica, sans-serif'" font-size="12" lengthAdjust="spacing" textLength="143.8941" x="111" y="748.4499">&#8226; freegen_text (verbatim)</text><text fill="#000000" font-family="'Inter, Helvetica, sans-serif'" font-size="12" lengthAdjust="spacing" textLength="94.7362" x="111" y="762.9723">&#8226; freegen_words</text></g><g class="entity" data-qualified-name="PHASE2.EMB_TEXT" data-source-line="17" id="ent0009"><rect fill="#F1F1F1" height="50" rx="4" ry="4" style="stroke:#181818;stroke-width:0.5;" width="141.7867" x="111" y="1447.1629"/><line style="stroke:#181818;stroke-width:0.5;" x1="111" x2="252.7867" y1="1486.2076" y2="1486.2076"/><text fill="#000000" font-family="'Inter, Helvetica, sans-serif'" font-size="12" lengthAdjust="spacing" textLength="90.7647" x="121" y="1463.7876">1&#215; appel embed</text><text fill="#000000" font-family="'Inter, Helvetica, sans-serif'" font-size="12" lengthAdjust="spacing" textLength="121.7867" x="121" y="1478.3099">(freegen_text stock&#233;)</text></g><g class="entity" data-qualified-name="PHASE2.EMB_ANCHORS" data-source-line="18" id="ent0010"><rect fill="#F1F1F1" height="78.0894" rx="4" ry="4" style="stroke:#181818;stroke-width:0.5;" width="163.9622" x="100" y="1558.1629"/><line style="stroke:#181818;stroke-width:0.5;" x1="100" x2="263.9622" y1="1626.2523" y2="1626.2523"/><text fill="#000000" font-family="'Inter, Helvetica, sans-serif'" font-size="12" lengthAdjust="spacing" textLength="99.2872" x="110" y="1574.7876">K&#215; appels embed</text><text fill="#000000" font-family="'Inter, Helvetica, sans-serif'" font-size="12" lengthAdjust="spacing" textLength="117.2016" x="110" y="1589.3099">(17 ancres feuilles &#8212;</text><text fill="#000000" font-family="'Inter, Helvetica, sans-serif'" font-size="12" lengthAdjust="spacing" textLength="121.514" x="110" y="1603.8323">batched dans un seul</text><text fill="#000000" font-family="'Inter, Helvetica, sans-serif'" font-size="12" lengthAdjust="spacing" textLength="143.9622" x="110" y="1618.3547">spawn llama-embedding)</text></g><g class="entity" data-qualified-name="PHASE2.PROJECT" data-source-line="19" id="ent0011"><rect fill="#F1F1F1" height="63.5671" rx="4" ry="4" style="stroke:#181818;stroke-width:0.5;" width="139.6731" x="112" y="1697.1629"/><line style="stroke:#181818;stroke-width:0.5;" x1="112" x2="251.6731" y1="1750.73" y2="1750.73"/><text fill="#000000" font-family="'Inter, Helvetica, sans-serif'" font-size="12" lengthAdjust="spacing" textLength="103.7871" x="122" y="1713.7876">Projection cosinus</text><text fill="#000000" font-family="'Inter, Helvetica, sans-serif'" font-size="12" lengthAdjust="spacing" textLength="98.2305" x="122" y="1728.3099">sur chaque ancre</text><text fill="#000000" font-family="'Inter, Helvetica, sans-serif'" font-size="12" lengthAdjust="spacing" textLength="119.6731" x="122" y="1742.8323">(probe-anchors.json)</text></g><g class="entity" data-qualified-name="PHASE2.PROJ_OUT" data-source-line="20" id="ent0012"><rect fill="#F1F1F1" height="63.5671" rx="4" ry="4" style="stroke:#181818;stroke-width:0.5;" width="186.0867" x="89" y="1822.1629"/><line style="stroke:#181818;stroke-width:0.5;" x1="89" x2="275.0867" y1="1875.73" y2="1875.73"/><text fill="#000000" font-family="'Inter, Helvetica, sans-serif'" font-size="12" lengthAdjust="spacing" textLength="40.1581" x="99" y="1838.7876">Sortie :</text><text fill="#000000" font-family="'Inter, Helvetica, sans-serif'" font-size="12" lengthAdjust="spacing" textLength="147.5247" x="99" y="1853.3099">&#8226; topic_coverage_per_leaf</text><text fill="#000000" font-family="'Inter, Helvetica, sans-serif'" font-size="12" lengthAdjust="spacing" textLength="166.0867" x="99" y="1867.8323">&#8226; topic_coverage_per_branch</text></g><g class="entity" data-qualified-name="TREE_DONE" data-source-line="5" id="ent0001"><rect fill="#F1F1F1" height="50" rx="4" ry="4" style="stroke:#181818;stroke-width:0.5;" width="140.031" x="266" y="44.9429"/><line style="stroke:#181818;stroke-width:0.5;" x1="266" x2="406.031" y1="83.9876" y2="83.9876"/><text fill="#000000" font-family="'Inter, Helvetica, sans-serif'" font-size="12" lengthAdjust="spacing" textLength="120.031" x="276" y="61.5676">Caract&#233;risation arbre</text><text fill="#000000" font-family="'Inter, Helvetica, sans-serif'" font-size="12" lengthAdjust="spacing" textLength="105.5939" x="276" y="76.0899">termin&#233;e (slice 4c)</text></g><g class="entity" data-qualified-name="GATE_FG" data-source-line="6" id="ent0002"><rect fill="#F1F1F1" height="50" rx="4" ry="4" style="stroke:#181818;stroke-width:0.5;" width="193.5353" x="239" y="155.9429"/><line style="stroke:#181818;stroke-width:0.5;" x1="239" x2="432.5353" y1="194.9876" y2="194.9876"/><text fill="#000000" font-family="'Inter, Helvetica, sans-serif'" font-size="12" lengthAdjust="spacing" textLength="110.7245" x="249" y="172.5676">characterizeTree.ts</text><text fill="#000000" font-family="'Inter, Helvetica, sans-serif'" font-size="12" lengthAdjust="spacing" textLength="166.7855" x="255.7498" y="187.0899">if (opts.freegen !== false) {&#8230;}</text></g><g class="entity" data-qualified-name="MERGE_TEXT" data-source-line="14" id="ent0007"><rect fill="#F1F1F1" height="63.5671" rx="4" ry="4" style="stroke:#181818;stroke-width:0.5;" width="168.4792" x="99" y="860.3029"/><line style="stroke:#181818;stroke-width:0.5;" x1="99" x2="267.4792" y1="913.87" y2="913.87"/><text fill="#000000" font-family="'Inter, Helvetica, sans-serif'" font-size="12" lengthAdjust="spacing" textLength="123.4571" x="109" y="876.9276">merge dans signature</text><text fill="#000000" font-family="'Inter, Helvetica, sans-serif'" font-size="12" lengthAdjust="spacing" textLength="63.3393" x="109" y="891.4499">(texte seul,</text><text fill="#000000" font-family="'Inter, Helvetica, sans-serif'" font-size="12" lengthAdjust="spacing" textLength="148.4792" x="109" y="905.9723">PAS de projection encore)</text></g><g class="entity" data-qualified-name="MERGE_PROJ" data-source-line="23" id="ent0013"><rect fill="#F1F1F1" height="50" rx="4" ry="4" style="stroke:#181818;stroke-width:0.5;" width="147.3092" x="108.5" y="1965.1629"/><line style="stroke:#181818;stroke-width:0.5;" x1="108.5" x2="255.8092" y1="2004.2076" y2="2004.2076"/><text fill="#000000" font-family="'Inter, Helvetica, sans-serif'" font-size="12" lengthAdjust="spacing" textLength="127.3092" x="118.5" y="1981.7876">merge projection dans</text><text fill="#000000" font-family="'Inter, Helvetica, sans-serif'" font-size="12" lengthAdjust="spacing" textLength="101.1281" x="118.5" y="1996.3099">signature (additif)</text></g><g class="entity" data-qualified-name="SKIP_FG" data-source-line="25" id="ent0014"><rect fill="#F1F1F1" height="50" rx="4" ry="4" style="stroke:#181818;stroke-width:0.5;" width="158.8828" x="314.5" y="306.3029"/><line style="stroke:#181818;stroke-width:0.5;" x1="314.5" x2="473.3828" y1="345.3476" y2="345.3476"/><text fill="#000000" font-family="'Inter, Helvetica, sans-serif'" font-size="12" lengthAdjust="spacing" textLength="102.5258" x="324.5" y="322.9276">freegen d&#233;sactiv&#233;</text><text fill="#000000" font-family="'Inter, Helvetica, sans-serif'" font-size="12" lengthAdjust="spacing" textLength="138.8828" x="324.5" y="337.4499">(opts.freegen === false)</text></g><g class="entity" data-qualified-name="SKIP_E" data-source-line="26" id="ent0015"><rect fill="#F1F1F1" height="63.5671" rx="4" ry="4" style="stroke:#181818;stroke-width:0.5;" width="182.6095" x="321.5" y="456.3029"/><line style="stroke:#181818;stroke-width:0.5;" x1="321.5" x2="504.1095" y1="509.87" y2="509.87"/><text fill="#000000" font-family="'Inter, Helvetica, sans-serif'" font-size="12" lengthAdjust="spacing" textLength="79.5832" x="331.5" y="472.9276">phase 1 throw</text><text fill="#000000" font-family="'Inter, Helvetica, sans-serif'" font-size="12" lengthAdjust="spacing" textLength="125.1616" x="331.5" y="487.4499">(r&#233;ponse vide, etc.) &#8594;</text><text fill="#000000" font-family="'Inter, Helvetica, sans-serif'" font-size="12" lengthAdjust="spacing" textLength="162.6095" x="331.5" y="501.9723">isol&#233;, passe arbre conserv&#233;e</text></g><g class="entity" data-qualified-name="BULK_LOOP" data-source-line="36" id="ent0016"><rect fill="#F1F1F1" height="50" rx="4" ry="4" style="stroke:#181818;stroke-width:0.5;" width="164.4906" x="101" y="1015.3029"/><line style="stroke:#181818;stroke-width:0.5;" x1="101" x2="265.4906" y1="1054.3476" y2="1054.3476"/><text fill="#000000" font-family="'Inter, Helvetica, sans-serif'" font-size="12" lengthAdjust="spacing" textLength="84.441" x="111" y="1031.9276">characterizeAll</text><text fill="#000000" font-family="'Inter, Helvetica, sans-serif'" font-size="12" lengthAdjust="spacing" textLength="144.4906" x="111" y="1046.4499">(bulk, boucle par mod&#232;le)</text></g><g class="entity" data-qualified-name="PROJ_GATE" data-source-line="37" id="ent0017"><rect fill="#F1F1F1" height="50" rx="4" ry="4" style="stroke:#181818;stroke-width:0.5;" width="180.5129" x="92.5" y="1126.3029"/><line style="stroke:#181818;stroke-width:0.5;" x1="92.5" x2="273.0129" y1="1165.3476" y2="1165.3476"/><text fill="#000000" font-family="'Inter, Helvetica, sans-serif'" font-size="12" lengthAdjust="spacing" textLength="89.5886" x="102.5" y="1142.9276">skipProjection ?</text><text fill="#000000" font-family="'Inter, Helvetica, sans-serif'" font-size="12" lengthAdjust="spacing" textLength="160.5129" x="102.5" y="1157.4499">OU embedder indisponible ?</text></g><g class="end_entity" data-qualified-name=".end." data-source-line="41" id="ent0028"><ellipse cx="339" cy="1344.6629" fill="none" rx="11" ry="11" style="stroke:#222222;stroke-width:1;"/><ellipse cx="339" cy="1344.6629" fill="#222222" rx="6" ry="6" style="stroke:#222222;stroke-width:1;"/></g><g class="entity" data-qualified-name="GMN36" data-source-line="52" id="ent0037"><path d="M509,308.3029 L509,353.87 A4,4 0 0 0 513,357.87 L720.7735,357.87 A4,4 0 0 0 724.7735,353.87 L724.7735,314.3029 L714.7735,304.3029 L513,304.3029 A4,4 0 0 0 509,308.3029" fill="#FFFDF6" style="stroke:#C68A3A;stroke-width:0.5;"/><path d="M714.7735,304.3029 L714.7735,312.3029 A2,2 0 0 0 716.7735,314.3029 L724.7735,314.3029 L714.7735,304.3029" fill="#FFFDF6" style="stroke:#C68A3A;stroke-width:1;"/><text fill="#0E1014" font-family="'Inter, Helvetica, sans-serif'" font-size="12" lengthAdjust="spacing" textLength="173.6888" x="515" y="320.9276">AUCUN EMBEDDER touch&#233; ici.</text><text fill="#0E1014" font-family="'Inter, Helvetica, sans-serif'" font-size="12" lengthAdjust="spacing" textLength="169.5809" x="515" y="335.4499">Le mod&#232;le de test est la seule</text><text fill="#0E1014" font-family="'Inter, Helvetica, sans-serif'" font-size="12" lengthAdjust="spacing" textLength="194.7735" x="515" y="349.9723">chose en RAM pendant la phase 1.</text></g><g class="entity" data-qualified-name="GMN39" data-source-line="58" id="ent0040"><path d="M385,1307.1629 L385,1381.7747 A4,4 0 0 0 389,1385.7747 L639.3178,1385.7747 A4,4 0 0 0 643.3178,1381.7747 L643.3178,1313.1629 L633.3178,1303.1629 L389,1303.1629 A4,4 0 0 0 385,1307.1629" fill="#FFFDF6" style="stroke:#C68A3A;stroke-width:0.5;"/><path d="M633.3178,1303.1629 L633.3178,1311.1629 A2,2 0 0 0 635.3178,1313.1629 L643.3178,1313.1629 L633.3178,1303.1629" fill="#FFFDF6" style="stroke:#C68A3A;stroke-width:1;"/><text fill="#0E1014" font-family="'Inter, Helvetica, sans-serif'" font-size="12" lengthAdjust="spacing" textLength="237.3178" x="391" y="1319.7876">Chemin bulk : un spawn llama-embedding</text><text fill="#0E1014" font-family="'Inter, Helvetica, sans-serif'" font-size="12" lengthAdjust="spacing" textLength="178.9897" x="391" y="1334.3099">par mod&#232;le (embedderCli.ts), le</text><text fill="#0E1014" font-family="'Inter, Helvetica, sans-serif'" font-size="12" lengthAdjust="spacing" textLength="172.3763" x="391" y="1348.8323">processus exit &#8594; RAM lib&#233;r&#233;e.</text><text fill="#0E1014" font-family="'Inter, Helvetica, sans-serif'" font-size="12" lengthAdjust="spacing" textLength="180.4386" x="391" y="1363.3547">Le mod&#232;le de test n'est JAMAIS</text><text fill="#0E1014" font-family="'Inter, Helvetica, sans-serif'" font-size="12" lengthAdjust="spacing" textLength="159.8653" x="391" y="1377.877">coexistant avec l'embedder.</text></g><g class="entity" data-qualified-name="GMN42" data-source-line="66" id="ent0043"><path d="M6,2080.1629 L6,2140.2523 A4,4 0 0 0 10,2144.2523 L353.5201,2144.2523 A4,4 0 0 0 357.5201,2140.2523 L357.5201,2086.1629 L347.5201,2076.1629 L186,2076.1629 L182,2015.3229 L178,2076.1629 L10,2076.1629 A4,4 0 0 0 6,2080.1629" fill="#FFFDF6" style="stroke:#C68A3A;stroke-width:0.5;"/><path d="M347.5201,2076.1629 L347.5201,2084.1629 A2,2 0 0 0 349.5201,2086.1629 L357.5201,2086.1629 L347.5201,2076.1629" fill="#FFFDF6" style="stroke:#C68A3A;stroke-width:0.5;"/><text fill="#0E1014" font-family="'Inter, Helvetica, sans-serif'" font-size="12" lengthAdjust="spacing" textLength="187.5464" x="12" y="2092.7876">Les champs sont une **&#233;vidence</text><text fill="#0E1014" font-family="'Inter, Helvetica, sans-serif'" font-size="12" lengthAdjust="spacing" textLength="187.1884" x="12" y="2107.3099">suppl&#233;mentaire** dans le routing</text><text fill="#0E1014" font-family="'Inter, Helvetica, sans-serif'" font-size="12" lengthAdjust="spacing" textLength="150.4905" x="12" y="2121.8323">(blend &#945;=0.7 d&#233;terministe,</text><text fill="#0E1014" font-family="'Inter, Helvetica, sans-serif'" font-size="12" lengthAdjust="spacing" textLength="330.5201" x="12" y="2136.3547">&#946;=0.3 coverage). Ne remplacent jamais `scores_per_leaf`.</text></g><g class="entity" data-qualified-name="GMN45" data-source-line="73" id="ent0046"><path d="M313.5,592.3029 L313.5,652.3923 A4,4 0 0 0 317.5,656.3923 L522.2735,656.3923 A4,4 0 0 0 526.2735,652.3923 L526.2735,598.3029 L516.2735,588.3029 L422.23,588.3029 L414.66,520.5829 L414.23,588.3029 L317.5,588.3029 A4,4 0 0 0 313.5,592.3029" fill="#FFFDF6" style="stroke:#C68A3A;stroke-width:0.5;"/><path d="M516.2735,588.3029 L516.2735,596.3029 A2,2 0 0 0 518.2735,598.3029 L526.2735,598.3029 L516.2735,588.3029" fill="#FFFDF6" style="stroke:#C68A3A;stroke-width:0.5;"/><text fill="#0E1014" font-family="'Inter, Helvetica, sans-serif'" font-size="12" lengthAdjust="spacing" textLength="147.644" x="319.5" y="604.9276">DECISIONS.md DCC &#167;5 &#8212;</text><text fill="#0E1014" font-family="'Inter, Helvetica, sans-serif'" font-size="12" lengthAdjust="spacing" textLength="191.7735" x="319.5" y="619.4499">&#233;chec de sonde NE coule JAMAIS</text><text fill="#0E1014" font-family="'Inter, Helvetica, sans-serif'" font-size="12" lengthAdjust="spacing" textLength="181.3761" x="319.5" y="633.9723">la passe arbre qui a d&#233;j&#224; calcul&#233;</text><text fill="#0E1014" font-family="'Inter, Helvetica, sans-serif'" font-size="12" lengthAdjust="spacing" textLength="91.7022" x="319.5" y="648.4947">scores_per_leaf.</text></g><!--link TREE_DONE to GATE_FG--><g class="link" data-entity-1="ent0001" data-entity-2="ent0002" data-link-type="dependency" data-source-line="28" id="lnk18"><path d="M336,95.1329 C336,113.1929 336,132.7729 336,150.8229" fill="none" id="TREE_DONE-to-GATE_FG" style="stroke:#1A1D24;stroke-width:1;"/><polygon fill="#1A1D24" points="336,155.8229,340,146.8229,336,150.8229,332,146.8229,336,155.8229" style="stroke:#1A1D24;stroke-width:1;stroke-linejoin:miter;stroke-miterlimit:10;"/></g><!--link GATE_FG to PHASE1--><g class="link" data-entity-1="ent0002" data-entity-2="ent0003" data-link-type="dependency" data-source-line="29" id="lnk19"><path d="M301,206.0129 C291.77,214.3229 283,224.4629 278,235.9429 C273.945,245.2554 271.9125,255.5916 271.1608,265.9096 C270.7849,271.0686 270.7293,276.223 270.9011,281.2426 C270.987,283.7524 271.1298,286.2285 271.3178,288.6546 C271.3648,289.2611 271.4147,289.8645 271.4672,290.4645 C271.4803,290.6145 271.0457,285.7844 271.0592,285.934" fill="none" id="GATE_FG-to-PHASE1" style="stroke:#1A1D24;stroke-width:1;"/><polygon fill="#1A1D24" points="271.507,290.9139,274.6848,281.5918,271.0592,285.934,266.717,282.3084,271.507,290.9139" style="stroke:#1A1D24;stroke-width:1;stroke-linejoin:miter;stroke-miterlimit:10;"/><text fill="#000000" font-family="'Inter, Helvetica, sans-serif'" font-size="12" lengthAdjust="spacing" textLength="65.6404" x="282.0425" y="248.5676">freegen ON</text><text fill="#000000" font-family="'Inter, Helvetica, sans-serif'" font-size="12" lengthAdjust="spacing" textLength="71.7255" x="279" y="263.0899">(d&#233;faut true)</text></g><!--link GATE_FG to SKIP_FG--><g class="link" data-entity-1="ent0002" data-entity-2="ent0014" data-link-type="dependency" data-source-line="30" id="lnk20"><path d="M345.45,206.1129 C356.23,233.7029 371.9483,273.9065 382.7383,301.4865" fill="none" id="GATE_FG-to-SKIP_FG" style="stroke:#1A1D24;stroke-width:1;"/><polygon fill="#1A1D24" points="384.56,306.1429,385.006,296.3041,382.7383,301.4865,377.5559,299.2188,384.56,306.1429" style="stroke:#1A1D24;stroke-width:1;stroke-linejoin:miter;stroke-miterlimit:10;"/><text fill="#000000" font-family="'Inter, Helvetica, sans-serif'" font-size="12" lengthAdjust="spacing" textLength="102.7645" x="369" y="256.0676">explicitement OFF</text></g><!--link PHASE1 to ASK--><g class="link" data-entity-1="ent0003" data-entity-2="ent0004" data-link-type="dependency" data-source-line="31" id="lnk21"><path d="M278.94,332.4129 C277.17,335.5729 240.9771,400.0426 215.8171,444.8726" fill="none" id="PHASE1-to-ASK" style="stroke:#1A1D24;stroke-width:1;"/><polygon fill="#1A1D24" points="213.37,449.2329,221.263,443.3421,215.8171,444.8726,214.2866,439.4268,213.37,449.2329" style="stroke:#1A1D24;stroke-width:1;stroke-linejoin:miter;stroke-miterlimit:10;"/></g><!--link ASK to STRIP--><g class="link" data-entity-1="ent0004" data-entity-2="ent0005" data-link-type="dependency" data-source-line="32" id="lnk22"><path d="M190.55,527.4829 C189.71,549.8729 188.8501,572.4865 188.1101,591.9365" fill="none" id="ASK-to-STRIP" style="stroke:#1A1D24;stroke-width:1;"/><polygon fill="#1A1D24" points="187.92,596.9329,192.2593,588.0915,188.1101,591.9365,184.2651,587.7873,187.92,596.9329" style="stroke:#1A1D24;stroke-width:1;stroke-linejoin:miter;stroke-miterlimit:10;"/></g><!--link STRIP to TEXT_OUT--><g class="link" data-entity-1="ent0005" data-entity-2="ent0006" data-link-type="dependency" data-source-line="33" id="lnk23"><path d="M186.23,647.4029 C185.59,667.2729 184.8498,690.5854 184.1598,712.1654" fill="none" id="STRIP-to-TEXT_OUT" style="stroke:#1A1D24;stroke-width:1;"/><polygon fill="#1A1D24" points="184,717.1629,188.2856,708.2953,184.1598,712.1654,180.2897,708.0397,184,717.1629" style="stroke:#1A1D24;stroke-width:1;stroke-linejoin:miter;stroke-miterlimit:10;"/></g><!--link TEXT_OUT to MERGE_TEXT--><g class="link" data-entity-1="ent0006" data-entity-2="ent0007" data-link-type="dependency" data-source-line="34" id="lnk24"><path d="M183,781.5929 C183,804.9629 183,831.7529 183,855.1029" fill="none" id="TEXT_OUT-to-MERGE_TEXT" style="stroke:#1A1D24;stroke-width:1;"/><polygon fill="#1A1D24" points="183,860.1029,187,851.1029,183,855.1029,179,851.1029,183,860.1029" style="stroke:#1A1D24;stroke-width:1;stroke-linejoin:miter;stroke-miterlimit:10;"/></g><!--link MERGE_TEXT to BULK_LOOP--><g class="link" data-entity-1="ent0007" data-entity-2="ent0016" data-link-type="dependency" data-source-line="38" id="lnk25"><path d="M183,924.6229 C183,951.7729 183,985.4829 183,1010.2529" fill="none" id="MERGE_TEXT-to-BULK_LOOP" style="stroke:#1A1D24;stroke-width:1;"/><polygon fill="#1A1D24" points="183,1015.2529,187,1006.2529,183,1010.2529,179,1006.2529,183,1015.2529" style="stroke:#1A1D24;stroke-width:1;stroke-linejoin:miter;stroke-miterlimit:10;"/><text fill="#000000" font-family="'Inter, Helvetica, sans-serif'" font-size="12" lengthAdjust="spacing" textLength="127.565" x="184" y="966.9276">signature sauv&#233;e avec</text><text fill="#000000" font-family="'Inter, Helvetica, sans-serif'" font-size="12" lengthAdjust="spacing" textLength="98.1623" x="198.7013" y="981.4499">freegen_text seul</text></g><!--link BULK_LOOP to PROJ_GATE--><g class="link" data-entity-1="ent0016" data-entity-2="ent0017" data-link-type="dependency" data-source-line="39" id="lnk26"><path d="M183,1065.4929 C183,1083.5529 183,1103.1329 183,1121.1829" fill="none" id="BULK_LOOP-to-PROJ_GATE" style="stroke:#1A1D24;stroke-width:1;"/><polygon fill="#1A1D24" points="183,1126.1829,187,1117.1829,183,1121.1829,179,1117.1829,183,1126.1829" style="stroke:#1A1D24;stroke-width:1;stroke-linejoin:miter;stroke-miterlimit:10;"/></g><!--link PROJ_GATE to PHASE2--><g class="link" data-entity-1="ent0017" data-entity-2="ent0008" data-link-type="dependency" data-source-line="40" id="lnk27"><path d="M178.65,1176.4129 C177.18,1185.7229 175.72,1196.4729 175,1206.3029 C173.895,1221.3054 173.7575,1237.2429 174.1783,1252.7465 C174.2835,1256.6224 174.4236,1260.4712 174.5922,1264.2714 C174.6764,1266.1716 174.7679,1268.0596 174.8656,1269.9328 C174.9145,1270.8694 174.9649,1271.8023 175.0169,1272.7312 C175.0428,1273.1956 175.0692,1273.659 175.0959,1274.1214 C175.1092,1274.3526 174.83,1269.5921 174.8435,1269.8227" fill="none" id="PROJ_GATE-to-PHASE2" style="stroke:#1A1D24;stroke-width:1;"/><polygon fill="#1A1D24" points="175.1362,1274.8142,178.6025,1265.5955,174.8435,1269.8227,170.6162,1266.0637,175.1362,1274.8142" style="stroke:#1A1D24;stroke-width:1;stroke-linejoin:miter;stroke-miterlimit:10;"/><text fill="#000000" font-family="'Inter, Helvetica, sans-serif'" font-size="12" lengthAdjust="spacing" textLength="119.7753" x="176" y="1225.9276">embedder disponible</text><text fill="#000000" font-family="'Inter, Helvetica, sans-serif'" font-size="12" lengthAdjust="spacing" textLength="101.7247" x="185.0253" y="1240.4499">ET !skipProjection</text></g><!--link PROJ_GATE to *end*--><g class="link" data-entity-1="ent0017" data-entity-2="ent0028" data-link-type="dependency" data-source-line="41" id="lnk29"><path d="M260.31,1176.4529 C275.12,1184.0329 289.31,1193.8029 300,1206.3029 C332.71,1244.5429 337.907,1303.5155 338.717,1328.3555" fill="none" id="PROJ_GATE-to-*end*" style="stroke:#1A1D24;stroke-width:1;"/><polygon fill="#1A1D24" points="338.88,1333.3529,342.5846,1324.2273,338.717,1328.3555,334.5888,1324.488,338.88,1333.3529" style="stroke:#1A1D24;stroke-width:1;stroke-linejoin:miter;stroke-miterlimit:10;"/><text fill="#000000" font-family="'Inter, Helvetica, sans-serif'" font-size="12" lengthAdjust="spacing" textLength="83.1967" x="348.3517" y="1218.9276">skip projection</text><text fill="#000000" font-family="'Inter, Helvetica, sans-serif'" font-size="12" lengthAdjust="spacing" textLength="129.9001" x="325" y="1233.4499">(texte reste, projetable</text><text fill="#000000" font-family="'Inter, Helvetica, sans-serif'" font-size="12" lengthAdjust="spacing" textLength="54.1691" x="362.8655" y="1247.9723">plus tard)</text></g><!--link PHASE2 to EMB_TEXT--><g class="link" data-entity-1="ent0008" data-entity-2="ent0009" data-link-type="dependency" data-source-line="43" id="lnk30"><path d="M182,1345.7529 C182,1348.4729 182,1406.3829 182,1442.0529" fill="none" id="PHASE2-to-EMB_TEXT" style="stroke:#1A1D24;stroke-width:1;"/><polygon fill="#1A1D24" points="182,1447.0529,186,1438.0529,182,1442.0529,178,1438.0529,182,1447.0529" style="stroke:#1A1D24;stroke-width:1;stroke-linejoin:miter;stroke-miterlimit:10;"/></g><!--link EMB_TEXT to EMB_ANCHORS--><g class="link" data-entity-1="ent0009" data-entity-2="ent0010" data-link-type="dependency" data-source-line="44" id="lnk31"><path d="M182,1497.1729 C182,1514.3729 182,1532.8929 182,1552.6929" fill="none" id="EMB_TEXT-to-EMB_ANCHORS" style="stroke:#1A1D24;stroke-width:1;"/><polygon fill="#1A1D24" points="182,1557.6929,186,1548.6929,182,1552.6929,178,1548.6929,182,1557.6929" style="stroke:#1A1D24;stroke-width:1;stroke-linejoin:miter;stroke-miterlimit:10;"/></g><!--link EMB_ANCHORS to PROJECT--><g class="link" data-entity-1="ent0010" data-entity-2="ent0011" data-link-type="dependency" data-source-line="45" id="lnk32"><path d="M182,1636.4629 C182,1655.7829 182,1673.9229 182,1692.1129" fill="none" id="EMB_ANCHORS-to-PROJECT" style="stroke:#1A1D24;stroke-width:1;"/><polygon fill="#1A1D24" points="182,1697.1129,186,1688.1129,182,1692.1129,178,1688.1129,182,1697.1129" style="stroke:#1A1D24;stroke-width:1;stroke-linejoin:miter;stroke-miterlimit:10;"/></g><!--link PROJECT to PROJ_OUT--><g class="link" data-entity-1="ent0011" data-entity-2="ent0012" data-link-type="dependency" data-source-line="46" id="lnk33"><path d="M182,1761.2029 C182,1779.8429 182,1798.4929 182,1817.1329" fill="none" id="PROJECT-to-PROJ_OUT" style="stroke:#1A1D24;stroke-width:1;"/><polygon fill="#1A1D24" points="182,1822.1329,186,1813.1329,182,1817.1329,178,1813.1329,182,1822.1329" style="stroke:#1A1D24;stroke-width:1;stroke-linejoin:miter;stroke-miterlimit:10;"/></g><!--link PROJ_OUT to MERGE_PROJ--><g class="link" data-entity-1="ent0012" data-entity-2="ent0013" data-link-type="dependency" data-source-line="47" id="lnk34"><path d="M182,1886.2429 C182,1910.2129 182,1937.8829 182,1959.9329" fill="none" id="PROJ_OUT-to-MERGE_PROJ" style="stroke:#1A1D24;stroke-width:1;"/><polygon fill="#1A1D24" points="182,1964.9329,186,1955.9329,182,1959.9329,178,1955.9329,182,1964.9329" style="stroke:#1A1D24;stroke-width:1;stroke-linejoin:miter;stroke-miterlimit:10;"/></g><!--link PHASE1 to SKIP_E--><g class="link" data-entity-1="ent0003" data-entity-2="ent0015" data-link-type="dependency" data-source-line="49" id="lnk35"><path d="M289.083,347.5569 C289.2021,347.7278 289.3218,347.899 289.4419,348.0706 C289.9225,348.757 290.4111,349.4489 290.9056,350.1424 C292.8837,352.9166 294.9575,355.7179 297,358.3029 C324.55,393.1529 355.4255,427.0392 379.5655,452.5792" fill="none" id="PHASE1-to-SKIP_E" style="stroke:#1A1D24;stroke-width:1;"/><polygon fill="#1A1D24" points="383,456.2129,379.7248,446.9246,379.5655,452.5792,373.9109,452.4198,383,456.2129" style="stroke:#1A1D24;stroke-width:1;stroke-linejoin:miter;stroke-miterlimit:10;"/><text fill="#000000" font-family="'Inter, Helvetica, sans-serif'" font-size="12" lengthAdjust="spacing" textLength="74.8106" x="368.9455" y="400.9276">throw catch&#233;</text><text fill="#000000" font-family="'Inter, Helvetica, sans-serif'" font-size="12" lengthAdjust="spacing" textLength="118.7015" x="347" y="415.4499">par characterizeTree</text></g><!--link PHASE1 to GMN36--><g class="link" data-entity-1="ent0003" data-entity-2="ent0037" data-link-type="association" data-source-line="52" id="lnk38"><path d="M283.7396,290.6666 C283.8117,290.3661 283.885,290.0652 283.9594,289.7639 C284.1082,289.1614 284.2614,288.5572 284.4192,287.9519 C284.7347,286.7413 285.0685,285.526 285.4217,284.309 C286.128,281.8751 286.9115,279.4343 287.7807,277.0108 C289.5192,272.1639 291.6004,267.3859 294.0917,262.8693 C299.0744,253.836 305.6975,245.8479 314.5,240.4429 C374.72,203.4629 405.63,220.7629 473.5,240.4429 C516.26,252.8429 558.51,282.2229 585.96,304.2429" fill="none" id="PHASE1-GMN36" style="stroke:#1A1D24;stroke-width:1;stroke-dasharray:7,7;"/></g><!--link PHASE2 to GMN39--><g class="link" data-entity-1="ent0008" data-entity-2="ent0040" data-link-type="association" data-source-line="58" id="lnk41"><path d="M228.9241,1274.5983 C229.3788,1274.057 229.8361,1273.5161 230.296,1272.9757 C232.1356,1270.8144 234.0167,1268.6623 235.9375,1266.5291 C266.67,1232.3979 307.545,1203.0929 350.5,1217.8029 C399.62,1234.6229 445.38,1272.8729 475.92,1303.0029" fill="none" id="PHASE2-GMN39" style="stroke:#1A1D24;stroke-width:1;stroke-dasharray:7,7;"/></g><?plantuml-src VLFHRfim57ttLxXzQYSrKKZtChMLQE802ma8I5TfdIoMEWrQ2XMu3rjLQL-p3zkNp3R6PiNkG-3Ua-Dxxhq-71Nbzl1yJ-1eDCOoRiOD_NaWe-BvyG00BUY1m3HByCAR1oxEWYn403GqfmGUz_048JoFrkWOvWrKMKVSxlCwtr9I5xz8LXCoeirT2M6nWoVL4sr6EuOza18UNLx2NNveo2by-VlxpwkevhaPOZ86rTXtKpGHf3Q4Bm320SrDbuB3ths_QLqymGkwByeVLqphOjo6T-N9V38v5GTOYI0sLSpGROQZJTPEAnFmQcXnXH8F2RxWwjGsZgF7SSpZeDMrBjWbDgAxdlbHaYgkp4tqE8a-erbRLiOscfgzIzwPdLDwi_FKm4sNGSp2TkrjR24XpM5EL5Q3PsTNoYhoBJ3fZ4yz5oSen0jsq4Dh7At_Oqlj0HtTnc4m2zX5BnP0bkHyxYdsQyyAkuYdo9Knka2WxrhWUXCkSHX5iHXIPS1y2xnnVGqy0xgw45CL1WEbWOTJzmRDWUQ8TQbIAj9hT8PxuPwwSOFm3VthXsz3IRxRzlvbDSvK3ku2XNPUxSMgHMvE-TPjyrrtGM_NFSc9lcGqw2_pa-WBdhaRpsTtKrPiutNniAUmsaaNiUz17rb7p3QnFy6X3NSi-1IGyXvo0QECyPXZaN4iCWwNCUFd5lpZsxQ-LvHMZxoltY87PrUniJKEEsPuQeRFxVhoSnySIv5HcyEE6PwQuPxsFm00?></g></svg>