<svg xmlns="http://www.w3.org/2000/svg" xmlns:xlink="http://www.w3.org/1999/xlink" contentStyleType="text/css" data-diagram-type="CLASS" height="916px" preserveAspectRatio="none" style="width:2286px;height:916px;background:#F4EEE3;" version="1.1" viewBox="0 0 2286 916" width="2286px" zoomAndPan="magnify"><?plantuml 1.2026.4?><defs/><g><rect fill="#F4EEE3" height="916" style="stroke:none;stroke-width:1;" width="2286" x="0" y="0"/><g class="title" data-source-line="4"><text fill="#000000" font-family="'Inter, Helvetica, sans-serif'" font-size="14" font-weight="700" lengthAdjust="spacing" textLength="507.3922" x="885.8039" y="23.5623">Diagramme d'objet &#8212; un mod&#232;le enti&#232;rement caract&#233;ris&#233; dans le sidecar</text></g><!--cluster PKG_ROUTING_TYPES--><g class="cluster" data-qualified-name="PKG_ROUTING_TYPES" data-source-line="10" id="ent0001"><path d="M1090,43.9429 L1255.0244,43.9429 A6,6 0 0 1 1259.0244,47.9429 L1266.0244,64.4652 L2267,64.4652 A4,4 0 0 1 2271,68.4652 L2271,661.4429 A4,4 0 0 1 2267,665.4429 L1090,665.4429 A4,4 0 0 1 1086,661.4429 L1086,47.9429 A4,4 0 0 1 1090,43.9429" fill="#F4EEE3" style="stroke:#C68A3A;stroke-width:1.5;"/><line style="stroke:#C68A3A;stroke-width:1.5;" x1="1086" x2="1266.0244" y1="64.4652" y2="64.4652"/><text fill="#0E1014" font-family="'Inter, Helvetica, sans-serif'" font-size="12" font-weight="700" lengthAdjust="spacing" textLength="167.0244" x="1090" y="57.5676">src/shared/RoutingTypes.ts</text><text fill="#C68A3A" font-family="'Inter, Helvetica, sans-serif'" font-size="12" font-style="italic" lengthAdjust="spacing" textLength="48.6806" x="1658.1597" y="78.0899">&#171;Frame&#187;</text></g><!--class Signature--><g class="entity" data-qualified-name="PKG_ROUTING_TYPES.Signature" data-source-line="12" id="ent0002"><rect fill="#FFFFFF" height="162.1789" rx="4" ry="4" style="stroke:#0E1014;stroke-width:0.5;" width="381.7523" x="1102" y="146.9429"/><ellipse cx="1261.6808" cy="161.9429" fill="#ADD1B2" rx="10" ry="10" style="stroke:#181818;stroke-width:1;"/><path d="M1263.1652,159.146 Q1263.2746,158.9898 1263.3996,158.9116 Q1263.5402,158.8335 1263.6964,158.8335 Q1263.9621,158.8335 1264.1183,159.021 Q1264.2902,159.2085 1264.2902,159.6304 L1264.2902,160.6616 Q1264.2902,161.0835 1264.1183,161.271 Q1263.9621,161.4585 1263.6964,161.4585 Q1263.4464,161.4585 1263.3058,161.3179 Q1263.1652,161.1929 1263.0871,160.8179 Q1263.0558,160.5679 1262.9308,160.4429 Q1262.6808,160.1773 1262.2433,160.021 Q1261.8214,159.8648 1261.3839,159.8648 Q1260.8527,159.8648 1260.3996,160.0991 Q1259.9464,160.3335 1259.6027,160.8648 Q1259.2589,161.3804 1259.2589,162.1148 L1259.2589,162.896 Q1259.2589,163.7554 1259.8839,164.3335 Q1260.5246,164.9116 1261.6339,164.9116 Q1262.3058,164.9116 1262.7746,164.7398 Q1263.0402,164.6304 1263.3371,164.3179 Q1263.5246,164.1304 1263.6339,164.0835 Q1263.7433,164.021 1263.8683,164.021 Q1264.1183,164.021 1264.2902,164.2085 Q1264.4777,164.3804 1264.4777,164.6304 Q1264.4777,164.8804 1264.2277,165.1616 Q1263.8683,165.5679 1263.3058,165.8023 Q1262.5558,166.1148 1261.6496,166.1148 Q1260.5714,166.1148 1259.7277,165.6773 Q1259.0246,165.3335 1258.5402,164.5679 Q1258.0558,163.8023 1258.0558,162.9116 L1258.0558,162.0991 Q1258.0558,161.1616 1258.4933,160.3491 Q1258.9308,159.5366 1259.6964,159.0991 Q1260.4777,158.6616 1261.3371,158.6616 Q1261.8683,158.6616 1262.3214,158.7866 Q1262.7746,158.896 1263.1652,159.146 Z " fill="#000000"/><text fill="#000000" font-family="'Inter, Helvetica, sans-serif'" font-size="12" lengthAdjust="spacing" textLength="54.3907" x="1280.6808" y="166.3064">Signature</text><line style="stroke:#0E1014;stroke-width:0.5;" x1="1103" x2="1482.7523" y1="176.9429" y2="176.9429"/><g data-visibility-modifier="PUBLIC_FIELD"><ellipse cx="1113" cy="189.7041" fill="none" rx="3" ry="3" style="stroke:#038048;stroke-width:1;"/></g><text fill="#000000" font-family="'Inter, Helvetica, sans-serif'" font-size="12" lengthAdjust="spacing" textLength="106.2245" x="1121" y="192.5676">modelHash : string</text><g data-visibility-modifier="PUBLIC_FIELD"><ellipse cx="1113" cy="204.2264" fill="none" rx="3" ry="3" style="stroke:#038048;stroke-width:1;"/></g><text fill="#000000" font-family="'Inter, Helvetica, sans-serif'" font-size="12" lengthAdjust="spacing" textLength="116.6391" x="1121" y="207.0899">suite_version : string</text><g data-visibility-modifier="PUBLIC_FIELD"><ellipse cx="1113" cy="218.7488" fill="none" rx="3" ry="3" style="stroke:#038048;stroke-width:1;"/></g><text fill="#000000" font-family="'Inter, Helvetica, sans-serif'" font-size="12" lengthAdjust="spacing" textLength="155.979" x="1121" y="221.6123">characterized_at : ISO 8601</text><g data-visibility-modifier="PUBLIC_FIELD"><ellipse cx="1113" cy="233.2711" fill="none" rx="3" ry="3" style="stroke:#038048;stroke-width:1;"/></g><text fill="#000000" font-family="'Inter, Helvetica, sans-serif'" font-size="12" lengthAdjust="spacing" textLength="356.7523" x="1121" y="236.1347">characterization_state : 'complete' | 'incomplete' | 'quarantined'</text><g data-visibility-modifier="PUBLIC_FIELD"><ellipse cx="1113" cy="247.7935" fill="none" rx="3" ry="3" style="stroke:#038048;stroke-width:1;"/></g><text fill="#000000" font-family="'Inter, Helvetica, sans-serif'" font-size="12" lengthAdjust="spacing" textLength="174.2001" x="1121" y="250.657">structural : StructuralSignature</text><g data-visibility-modifier="PUBLIC_FIELD"><ellipse cx="1113" cy="262.3159" fill="none" rx="3" ry="3" style="stroke:#038048;stroke-width:1;"/></g><text fill="#000000" font-family="'Inter, Helvetica, sans-serif'" font-size="12" lengthAdjust="spacing" textLength="182.9272" x="1121" y="265.1794">behavioral : BehavioralSignature</text><g data-visibility-modifier="PUBLIC_FIELD"><ellipse cx="1113" cy="276.8382" fill="none" rx="3" ry="3" style="stroke:#038048;stroke-width:1;"/></g><text fill="#000000" font-family="'Inter, Helvetica, sans-serif'" font-size="12" lengthAdjust="spacing" textLength="171.2854" x="1121" y="279.7017">qcm_reliability : QcmReliability</text><line style="stroke:#0E1014;stroke-width:0.5;" x1="1103" x2="1482.7523" y1="286.5994" y2="286.5994"/><g data-visibility-modifier="PUBLIC_METHOD"><ellipse cx="1113" cy="299.3606" fill="#84BE84" rx="3" ry="3" style="stroke:#038048;stroke-width:1;"/></g><text fill="#000000" font-family="'Inter, Helvetica, sans-serif'" font-size="12" lengthAdjust="spacing" textLength="116.2641" x="1121" y="302.2241">embedder_id : string</text><text fill="#000000" font-family="'Inter, Helvetica, sans-serif'" font-size="12" font-style="italic" lengthAdjust="spacing" textLength="51.2885" x="1247.3888" y="302.2241">(slice 7c)</text></g><!--class StructuralSignature--><g class="entity" data-qualified-name="PKG_ROUTING_TYPES.StructuralSignature" data-source-line="23" id="ent0003"><rect fill="#FFFFFF" height="133.1341" rx="4" ry="4" style="stroke:#0E1014;stroke-width:0.5;" width="281.4082" x="1519.5" y="161.4429"/><ellipse cx="1601.2254" cy="176.4429" fill="#ADD1B2" rx="10" ry="10" style="stroke:#181818;stroke-width:1;"/><path d="M1602.7098,173.646 Q1602.8191,173.4898 1602.9441,173.4116 Q1603.0848,173.3335 1603.241,173.3335 Q1603.5066,173.3335 1603.6629,173.521 Q1603.8348,173.7085 1603.8348,174.1304 L1603.8348,175.1616 Q1603.8348,175.5835 1603.6629,175.771 Q1603.5066,175.9585 1603.241,175.9585 Q1602.991,175.9585 1602.8504,175.8179 Q1602.7098,175.6929 1602.6316,175.3179 Q1602.6004,175.0679 1602.4754,174.9429 Q1602.2254,174.6773 1601.7879,174.521 Q1601.366,174.3648 1600.9285,174.3648 Q1600.3973,174.3648 1599.9441,174.5991 Q1599.491,174.8335 1599.1473,175.3648 Q1598.8035,175.8804 1598.8035,176.6148 L1598.8035,177.396 Q1598.8035,178.2554 1599.4285,178.8335 Q1600.0691,179.4116 1601.1785,179.4116 Q1601.8504,179.4116 1602.3191,179.2398 Q1602.5848,179.1304 1602.8816,178.8179 Q1603.0691,178.6304 1603.1785,178.5835 Q1603.2879,178.521 1603.4129,178.521 Q1603.6629,178.521 1603.8348,178.7085 Q1604.0223,178.8804 1604.0223,179.1304 Q1604.0223,179.3804 1603.7723,179.6616 Q1603.4129,180.0679 1602.8504,180.3023 Q1602.1004,180.6148 1601.1941,180.6148 Q1600.116,180.6148 1599.2723,180.1773 Q1598.5691,179.8335 1598.0848,179.0679 Q1597.6004,178.3023 1597.6004,177.4116 L1597.6004,176.5991 Q1597.6004,175.6616 1598.0379,174.8491 Q1598.4754,174.0366 1599.241,173.5991 Q1600.0223,173.1616 1600.8816,173.1616 Q1601.4129,173.1616 1601.866,173.2866 Q1602.3191,173.396 1602.7098,173.646 Z " fill="#000000"/><text fill="#000000" font-family="'Inter, Helvetica, sans-serif'" font-size="12" lengthAdjust="spacing" textLength="109.9574" x="1620.2254" y="180.8064">StructuralSignature</text><line style="stroke:#0E1014;stroke-width:0.5;" x1="1520.5" x2="1799.9082" y1="191.4429" y2="191.4429"/><g data-visibility-modifier="PUBLIC_FIELD"><ellipse cx="1530.5" cy="204.2041" fill="none" rx="3" ry="3" style="stroke:#038048;stroke-width:1;"/></g><text fill="#000000" font-family="'Inter, Helvetica, sans-serif'" font-size="12" lengthAdjust="spacing" textLength="127.2922" x="1538.5" y="207.0676">tensor_count : number</text><g data-visibility-modifier="PUBLIC_FIELD"><ellipse cx="1530.5" cy="218.7264" fill="none" rx="3" ry="3" style="stroke:#038048;stroke-width:1;"/></g><text fill="#000000" font-family="'Inter, Helvetica, sans-serif'" font-size="12" lengthAdjust="spacing" textLength="67.3619" x="1538.5" y="221.5899">arch : string</text><g data-visibility-modifier="PUBLIC_FIELD"><ellipse cx="1530.5" cy="233.2488" fill="none" rx="3" ry="3" style="stroke:#038048;stroke-width:1;"/></g><text fill="#000000" font-family="'Inter, Helvetica, sans-serif'" font-size="12" lengthAdjust="spacing" textLength="74.7765" x="1538.5" y="236.1123">quant : string</text><g data-visibility-modifier="PUBLIC_FIELD"><ellipse cx="1530.5" cy="247.7711" fill="none" rx="3" ry="3" style="stroke:#038048;stroke-width:1;"/></g><text fill="#000000" font-family="'Inter, Helvetica, sans-serif'" font-size="12" lengthAdjust="spacing" textLength="100.0202" x="1538.5" y="250.6347">ctx_max : number</text><g data-visibility-modifier="PUBLIC_FIELD"><ellipse cx="1530.5" cy="262.2935" fill="none" rx="3" ry="3" style="stroke:#038048;stroke-width:1;"/></g><text fill="#000000" font-family="'Inter, Helvetica, sans-serif'" font-size="12" lengthAdjust="spacing" textLength="9.852" x="1538.5" y="265.157">&#8230;</text><line style="stroke:#0E1014;stroke-width:0.5;" x1="1520.5" x2="1799.9082" y1="272.0547" y2="272.0547"/><g data-visibility-modifier="PUBLIC_METHOD"><ellipse cx="1530.5" cy="284.8159" fill="#84BE84" rx="3" ry="3" style="stroke:#038048;stroke-width:1;"/></g><text fill="#000000" font-family="'Inter, Helvetica, sans-serif'" font-size="12" lengthAdjust="spacing" textLength="162.6265" x="1538.5" y="287.6794">est_footprint_bytes : number</text><text fill="#000000" font-family="'Inter, Helvetica, sans-serif'" font-size="12" font-style="italic" lengthAdjust="spacing" textLength="87.0319" x="1707.8764" y="287.6794">(D9 fit-scoring)</text></g><!--class BehavioralSignature--><g class="entity" data-qualified-name="PKG_ROUTING_TYPES.BehavioralSignature" data-source-line="32" id="ent0004"><rect fill="#FFFFFF" height="271.8354" rx="4" ry="4" style="stroke:#0E1014;stroke-width:0.5;" width="418.5269" x="1835.5" y="91.9429"/><ellipse cx="1983.8587" cy="106.9429" fill="#ADD1B2" rx="10" ry="10" style="stroke:#181818;stroke-width:1;"/><path d="M1985.343,104.146 Q1985.4524,103.9898 1985.5774,103.9116 Q1985.718,103.8335 1985.8743,103.8335 Q1986.1399,103.8335 1986.2962,104.021 Q1986.468,104.2085 1986.468,104.6304 L1986.468,105.6616 Q1986.468,106.0835 1986.2962,106.271 Q1986.1399,106.4585 1985.8743,106.4585 Q1985.6243,106.4585 1985.4837,106.3179 Q1985.343,106.1929 1985.2649,105.8179 Q1985.2337,105.5679 1985.1087,105.4429 Q1984.8587,105.1773 1984.4212,105.021 Q1983.9993,104.8648 1983.5618,104.8648 Q1983.0305,104.8648 1982.5774,105.0991 Q1982.1243,105.3335 1981.7805,105.8648 Q1981.4368,106.3804 1981.4368,107.1148 L1981.4368,107.896 Q1981.4368,108.7554 1982.0618,109.3335 Q1982.7024,109.9116 1983.8118,109.9116 Q1984.4837,109.9116 1984.9524,109.7398 Q1985.218,109.6304 1985.5149,109.3179 Q1985.7024,109.1304 1985.8118,109.0835 Q1985.9212,109.021 1986.0462,109.021 Q1986.2962,109.021 1986.468,109.2085 Q1986.6555,109.3804 1986.6555,109.6304 Q1986.6555,109.8804 1986.4055,110.1616 Q1986.0462,110.5679 1985.4837,110.8023 Q1984.7337,111.1148 1983.8274,111.1148 Q1982.7493,111.1148 1981.9055,110.6773 Q1981.2024,110.3335 1980.718,109.5679 Q1980.2337,108.8023 1980.2337,107.9116 L1980.2337,107.0991 Q1980.2337,106.1616 1980.6712,105.3491 Q1981.1087,104.5366 1981.8743,104.0991 Q1982.6555,103.6616 1983.5149,103.6616 Q1984.0462,103.6616 1984.4993,103.7866 Q1984.9524,103.896 1985.343,104.146 Z " fill="#000000"/><text fill="#000000" font-family="'Inter, Helvetica, sans-serif'" font-size="12" lengthAdjust="spacing" textLength="113.8096" x="2002.8587" y="111.3064">BehavioralSignature</text><line style="stroke:#0E1014;stroke-width:0.5;" x1="1836.5" x2="2253.0269" y1="121.9429" y2="121.9429"/><g data-visibility-modifier="PUBLIC_FIELD"><ellipse cx="1846.5" cy="134.7041" fill="none" rx="3" ry="3" style="stroke:#038048;stroke-width:1;"/></g><text fill="#000000" font-family="'Inter, Helvetica, sans-serif'" font-size="12" lengthAdjust="spacing" textLength="318.6055" x="1854.5" y="137.5676">diagnostic_run : Record&lt;promptId, DiagnosticRunEntry&gt;</text><g data-visibility-modifier="PUBLIC_FIELD"><ellipse cx="1846.5" cy="149.2264" fill="none" rx="3" ry="3" style="stroke:#038048;stroke-width:1;"/></g><text fill="#000000" font-family="'Inter, Helvetica, sans-serif'" font-size="12" lengthAdjust="spacing" textLength="341.3094" x="1854.5" y="152.0899">scores_per_axis : Partial&lt;Record&lt;DiagnosticAxis, number&gt;&gt;</text><g data-visibility-modifier="PUBLIC_FIELD"><ellipse cx="1846.5" cy="163.7488" fill="none" rx="3" ry="3" style="stroke:#038048;stroke-width:1;"/></g><text fill="#000000" font-family="'Inter, Helvetica, sans-serif'" font-size="12" lengthAdjust="spacing" textLength="316.5601" x="1854.5" y="166.6123">n_per_axis? : Partial&lt;Record&lt;DiagnosticAxis, number&gt;&gt;</text><g data-visibility-modifier="PUBLIC_FIELD"><ellipse cx="1846.5" cy="178.2711" fill="none" rx="3" ry="3" style="stroke:#038048;stroke-width:1;"/></g><text fill="#000000" font-family="'Inter, Helvetica, sans-serif'" font-size="12" lengthAdjust="spacing" textLength="97.2248" x="1854.5" y="181.1347">overall? : number</text><line style="stroke:#0E1014;stroke-width:1;" x1="1836.5" x2="2253.0269" y1="188.0323" y2="188.0323"/><text fill="#000000" font-family="'Inter, Helvetica, sans-serif'" font-size="12" font-weight="700" lengthAdjust="spacing" textLength="192.3533" x="1854.5" y="203.657">Champs tree-routing (slice 4c+)</text><g data-visibility-modifier="PUBLIC_METHOD"><ellipse cx="1846.5" cy="215.3159" fill="#84BE84" rx="3" ry="3" style="stroke:#038048;stroke-width:1;"/></g><text fill="#000000" font-family="'Inter, Helvetica, sans-serif'" font-size="12" lengthAdjust="spacing" textLength="242.3972" x="1854.5" y="218.1794">scores_per_leaf? : Record&lt;leafId, number&gt;</text><text fill="#000000" font-family="'Inter, Helvetica, sans-serif'" font-size="12" font-style="italic" lengthAdjust="spacing" textLength="116.1788" x="2103.647" y="218.1794">(0..1 &#8212; voir scheme)</text><g data-visibility-modifier="PUBLIC_FIELD"><ellipse cx="1846.5" cy="229.8382" fill="none" rx="3" ry="3" style="stroke:#038048;stroke-width:1;"/></g><text fill="#000000" font-family="'Inter, Helvetica, sans-serif'" font-size="12" lengthAdjust="spacing" textLength="369.2463" x="1854.5" y="232.7017">branch_scores? : Partial&lt;Record&lt;CompetenceBranch, number&gt;&gt;</text><g data-visibility-modifier="PUBLIC_FIELD"><ellipse cx="1846.5" cy="244.3606" fill="none" rx="3" ry="3" style="stroke:#038048;stroke-width:1;"/></g><text fill="#000000" font-family="'Inter, Helvetica, sans-serif'" font-size="12" lengthAdjust="spacing" textLength="211.5628" x="1854.5" y="247.2241">n_per_leaf? : Record&lt;leafId, number&gt;</text><g data-visibility-modifier="PUBLIC_METHOD"><ellipse cx="1846.5" cy="258.8829" fill="#84BE84" rx="3" ry="3" style="stroke:#038048;stroke-width:1;"/></g><text fill="#000000" font-family="'Inter, Helvetica, sans-serif'" font-size="12" lengthAdjust="spacing" textLength="244.4256" x="1854.5" y="261.7465">passes_per_leaf? : Record&lt;leafId, number&gt;</text><text fill="#000000" font-family="'Inter, Helvetica, sans-serif'" font-size="12" font-style="italic" lengthAdjust="spacing" textLength="142.3515" x="2105.6754" y="261.7465">(beta-laplace seulement)</text><g data-visibility-modifier="PUBLIC_FIELD"><ellipse cx="1846.5" cy="273.4053" fill="none" rx="3" ry="3" style="stroke:#038048;stroke-width:1;"/></g><text fill="#000000" font-family="'Inter, Helvetica, sans-serif'" font-size="12" lengthAdjust="spacing" textLength="318.5885" x="1854.5" y="276.2688">scoring_scheme? : 'beta-laplace-v1' | 'breaking-rung-v0'</text><line style="stroke:#0E1014;stroke-width:1;" x1="1836.5" x2="2253.0269" y1="283.1665" y2="283.1665"/><text fill="#000000" font-family="'Inter, Helvetica, sans-serif'" font-size="12" font-weight="700" lengthAdjust="spacing" textLength="154.8713" x="1854.5" y="298.7912">Sonde Free-gen (slice 7c)</text><g data-visibility-modifier="PUBLIC_METHOD"><ellipse cx="1846.5" cy="310.45" fill="#84BE84" rx="3" ry="3" style="stroke:#038048;stroke-width:1;"/></g><text fill="#000000" font-family="'Inter, Helvetica, sans-serif'" font-size="12" lengthAdjust="spacing" textLength="291.4017" x="1854.5" y="313.3135">topic_coverage_per_leaf? : Record&lt;leafId, number&gt;</text><text fill="#000000" font-family="'Inter, Helvetica, sans-serif'" font-size="12" font-style="italic" lengthAdjust="spacing" textLength="51.9362" x="2152.6515" y="313.3135">(cosinus)</text><g data-visibility-modifier="PUBLIC_FIELD"><ellipse cx="1846.5" cy="324.9724" fill="none" rx="3" ry="3" style="stroke:#038048;stroke-width:1;"/></g><text fill="#000000" font-family="'Inter, Helvetica, sans-serif'" font-size="12" lengthAdjust="spacing" textLength="390.9446" x="1854.5" y="327.8359">topic_coverage_per_branch? : Record&lt;CompetenceBranch, number&gt;</text><g data-visibility-modifier="PUBLIC_FIELD"><ellipse cx="1846.5" cy="339.4947" fill="none" rx="3" ry="3" style="stroke:#038048;stroke-width:1;"/></g><text fill="#000000" font-family="'Inter, Helvetica, sans-serif'" font-size="12" lengthAdjust="spacing" textLength="144.0816" x="1854.5" y="342.3582">freegen_words? : number</text><g data-visibility-modifier="PUBLIC_FIELD"><ellipse cx="1846.5" cy="354.0171" fill="none" rx="3" ry="3" style="stroke:#038048;stroke-width:1;"/></g><text fill="#000000" font-family="'Inter, Helvetica, sans-serif'" font-size="12" lengthAdjust="spacing" textLength="141.2351" x="1854.5" y="356.8806">freegen_excerpt? : string</text></g><!--class DiagnosticRunEntry--><g class="entity" data-qualified-name="PKG_ROUTING_TYPES.DiagnosticRunEntry" data-source-line="52" id="ent0005"><rect fill="#FFFFFF" height="147.6565" rx="4" ry="4" style="stroke:#0E1014;stroke-width:0.5;" width="153.8774" x="1216" y="501.4429"/><ellipse cx="1235.6657" cy="516.4429" fill="#ADD1B2" rx="10" ry="10" style="stroke:#181818;stroke-width:1;"/><path d="M1237.1501,513.646 Q1237.2595,513.4898 1237.3845,513.4116 Q1237.5251,513.3335 1237.6813,513.3335 Q1237.947,513.3335 1238.1032,513.521 Q1238.2751,513.7085 1238.2751,514.1304 L1238.2751,515.1616 Q1238.2751,515.5835 1238.1032,515.771 Q1237.947,515.9585 1237.6813,515.9585 Q1237.4313,515.9585 1237.2907,515.8179 Q1237.1501,515.6929 1237.072,515.3179 Q1237.0407,515.0679 1236.9157,514.9429 Q1236.6657,514.6773 1236.2282,514.521 Q1235.8063,514.3648 1235.3688,514.3648 Q1234.8376,514.3648 1234.3845,514.5991 Q1233.9313,514.8335 1233.5876,515.3648 Q1233.2438,515.8804 1233.2438,516.6148 L1233.2438,517.396 Q1233.2438,518.2554 1233.8688,518.8335 Q1234.5095,519.4116 1235.6188,519.4116 Q1236.2907,519.4116 1236.7595,519.2398 Q1237.0251,519.1304 1237.322,518.8179 Q1237.5095,518.6304 1237.6188,518.5835 Q1237.7282,518.521 1237.8532,518.521 Q1238.1032,518.521 1238.2751,518.7085 Q1238.4626,518.8804 1238.4626,519.1304 Q1238.4626,519.3804 1238.2126,519.6616 Q1237.8532,520.0679 1237.2907,520.3023 Q1236.5407,520.6148 1235.6345,520.6148 Q1234.5563,520.6148 1233.7126,520.1773 Q1233.0095,519.8335 1232.5251,519.0679 Q1232.0407,518.3023 1232.0407,517.4116 L1232.0407,516.5991 Q1232.0407,515.6616 1232.4782,514.8491 Q1232.9157,514.0366 1233.6813,513.5991 Q1234.4626,513.1616 1235.322,513.1616 Q1235.8532,513.1616 1236.3063,513.2866 Q1236.7595,513.396 1237.1501,513.646 Z " fill="#000000"/><text fill="#000000" font-family="'Inter, Helvetica, sans-serif'" font-size="12" lengthAdjust="spacing" textLength="111.287" x="1249.9247" y="520.8064">DiagnosticRunEntry</text><line style="stroke:#0E1014;stroke-width:0.5;" x1="1217" x2="1368.8774" y1="531.4429" y2="531.4429"/><g data-visibility-modifier="PUBLIC_FIELD"><ellipse cx="1227" cy="544.2041" fill="none" rx="3" ry="3" style="stroke:#038048;stroke-width:1;"/></g><text fill="#000000" font-family="'Inter, Helvetica, sans-serif'" font-size="12" lengthAdjust="spacing" textLength="52.635" x="1235" y="547.0676">id : string</text><g data-visibility-modifier="PUBLIC_FIELD"><ellipse cx="1227" cy="558.7264" fill="none" rx="3" ry="3" style="stroke:#038048;stroke-width:1;"/></g><text fill="#000000" font-family="'Inter, Helvetica, sans-serif'" font-size="12" lengthAdjust="spacing" textLength="128.8774" x="1235" y="561.5899">axes : DiagnosticAxis[]</text><g data-visibility-modifier="PUBLIC_FIELD"><ellipse cx="1227" cy="573.2488" fill="none" rx="3" ry="3" style="stroke:#038048;stroke-width:1;"/></g><text fill="#000000" font-family="'Inter, Helvetica, sans-serif'" font-size="12" lengthAdjust="spacing" textLength="82.0718" x="1235" y="576.1123">pass : boolean</text><g data-visibility-modifier="PUBLIC_FIELD"><ellipse cx="1227" cy="587.7711" fill="none" rx="3" ry="3" style="stroke:#038048;stroke-width:1;"/></g><text fill="#000000" font-family="'Inter, Helvetica, sans-serif'" font-size="12" lengthAdjust="spacing" textLength="91.0545" x="1235" y="590.6347">score? : number</text><g data-visibility-modifier="PUBLIC_FIELD"><ellipse cx="1227" cy="602.2935" fill="none" rx="3" ry="3" style="stroke:#038048;stroke-width:1;"/></g><text fill="#000000" font-family="'Inter, Helvetica, sans-serif'" font-size="12" lengthAdjust="spacing" textLength="94.8214" x="1235" y="605.157">response : string</text><g data-visibility-modifier="PUBLIC_FIELD"><ellipse cx="1227" cy="616.8159" fill="none" rx="3" ry="3" style="stroke:#038048;stroke-width:1;"/></g><text fill="#000000" font-family="'Inter, Helvetica, sans-serif'" font-size="12" lengthAdjust="spacing" textLength="79.6854" x="1235" y="619.6794">detail? : string</text><g data-visibility-modifier="PUBLIC_FIELD"><ellipse cx="1227" cy="631.3382" fill="none" rx="3" ry="3" style="stroke:#038048;stroke-width:1;"/></g><text fill="#000000" font-family="'Inter, Helvetica, sans-serif'" font-size="12" lengthAdjust="spacing" textLength="75.9696" x="1235" y="634.2017">error? : string</text><line style="stroke:#0E1014;stroke-width:0.5;" x1="1217" x2="1368.8774" y1="641.0994" y2="641.0994"/></g><!--class QcmReliability--><g class="entity" data-qualified-name="PKG_ROUTING_TYPES.QcmReliability" data-source-line="62" id="ent0006"><rect fill="#FFFFFF" height="104.0894" rx="4" ry="4" style="stroke:#0E1014;stroke-width:0.5;" width="415.6633" x="1405" y="523.4429"/><ellipse cx="1568.6224" cy="538.4429" fill="#ADD1B2" rx="10" ry="10" style="stroke:#181818;stroke-width:1;"/><path d="M1570.1068,535.646 Q1570.2162,535.4898 1570.3412,535.4116 Q1570.4818,535.3335 1570.6381,535.3335 Q1570.9037,535.3335 1571.0599,535.521 Q1571.2318,535.7085 1571.2318,536.1304 L1571.2318,537.1616 Q1571.2318,537.5835 1571.0599,537.771 Q1570.9037,537.9585 1570.6381,537.9585 Q1570.3881,537.9585 1570.2474,537.8179 Q1570.1068,537.6929 1570.0287,537.3179 Q1569.9974,537.0679 1569.8724,536.9429 Q1569.6224,536.6773 1569.1849,536.521 Q1568.7631,536.3648 1568.3256,536.3648 Q1567.7943,536.3648 1567.3412,536.5991 Q1566.8881,536.8335 1566.5443,537.3648 Q1566.2006,537.8804 1566.2006,538.6148 L1566.2006,539.396 Q1566.2006,540.2554 1566.8256,540.8335 Q1567.4662,541.4116 1568.5756,541.4116 Q1569.2474,541.4116 1569.7162,541.2398 Q1569.9818,541.1304 1570.2787,540.8179 Q1570.4662,540.6304 1570.5756,540.5835 Q1570.6849,540.521 1570.8099,540.521 Q1571.0599,540.521 1571.2318,540.7085 Q1571.4193,540.8804 1571.4193,541.1304 Q1571.4193,541.3804 1571.1693,541.6616 Q1570.8099,542.0679 1570.2474,542.3023 Q1569.4974,542.6148 1568.5912,542.6148 Q1567.5131,542.6148 1566.6693,542.1773 Q1565.9662,541.8335 1565.4818,541.0679 Q1564.9974,540.3023 1564.9974,539.4116 L1564.9974,538.5991 Q1564.9974,537.6616 1565.4349,536.8491 Q1565.8724,536.0366 1566.6381,535.5991 Q1567.4193,535.1616 1568.2787,535.1616 Q1568.8099,535.1616 1569.2631,535.2866 Q1569.7162,535.396 1570.1068,535.646 Z " fill="#000000"/><text fill="#000000" font-family="'Inter, Helvetica, sans-serif'" font-size="12" lengthAdjust="spacing" textLength="80.4184" x="1587.6224" y="542.8064">QcmReliability</text><line style="stroke:#0E1014;stroke-width:0.5;" x1="1406" x2="1819.6633" y1="553.4429" y2="553.4429"/><g data-visibility-modifier="PUBLIC_FIELD"><ellipse cx="1416" cy="566.2041" fill="none" rx="3" ry="3" style="stroke:#038048;stroke-width:1;"/></g><text fill="#000000" font-family="'Inter, Helvetica, sans-serif'" font-size="12" lengthAdjust="spacing" textLength="121.4117" x="1424" y="569.0676">consistency : number</text><g data-visibility-modifier="PUBLIC_FIELD"><ellipse cx="1416" cy="580.7264" fill="none" rx="3" ry="3" style="stroke:#038048;stroke-width:1;"/></g><text fill="#000000" font-family="'Inter, Helvetica, sans-serif'" font-size="12" lengthAdjust="spacing" textLength="60.4075" x="1424" y="583.5899">n : number</text><line style="stroke:#0E1014;stroke-width:0.5;" x1="1406" x2="1819.6633" y1="590.4876" y2="590.4876"/><g data-visibility-modifier="PUBLIC_METHOD"><ellipse cx="1416" cy="603.2488" fill="#84BE84" rx="3" ry="3" style="stroke:#038048;stroke-width:1;"/></g><text fill="#000000" font-family="'Inter, Helvetica, sans-serif'" font-size="12" lengthAdjust="spacing" textLength="156.7801" x="1424" y="606.1123">format_adherence : number</text><text fill="#000000" font-family="'Inter, Helvetica, sans-serif'" font-size="12" font-style="italic" lengthAdjust="spacing" textLength="28.38" x="1587.5299" y="606.1123">(0..1)</text><g data-visibility-modifier="PUBLIC_METHOD"><ellipse cx="1416" cy="617.7711" fill="#84BE84" rx="3" ry="3" style="stroke:#038048;stroke-width:1;"/></g><text fill="#000000" font-family="'Inter, Helvetica, sans-serif'" font-size="12" lengthAdjust="spacing" textLength="91.1397" x="1424" y="620.6347">overall : number</text><text fill="#000000" font-family="'Inter, Helvetica, sans-serif'" font-size="12" font-style="italic" lengthAdjust="spacing" textLength="292.7737" x="1521.8895" y="620.6347">(affichage seul &#8212; N'ENTRE JAMAIS dans le routing)</text></g><g class="entity" data-qualified-name="O_SIG" data-source-line="11" id="ent0007"><rect fill="#F1F1F1" height="99.1341" rx="4" ry="4" style="stroke:#181818;stroke-width:0.5;" width="287.0385" x="556.5" y="178.4429"/><text fill="#000000" font-family="'Inter, Helvetica, sans-serif'" font-size="12" lengthAdjust="spacing" textLength="140.3658" x="629.8363" y="192.0676">LFM2_5_1_2B : Signature</text><line style="stroke:#181818;stroke-width:0.5;" x1="557.5" x2="842.5385" y1="196.9652" y2="196.9652"/><text fill="#000000" font-family="'Inter, Helvetica, sans-serif'" font-size="12" lengthAdjust="spacing" textLength="146.2974" x="562.5" y="212.5899">modelHash = "b59a&#8230;f23"</text><text fill="#000000" font-family="'Inter, Helvetica, sans-serif'" font-size="12" lengthAdjust="spacing" textLength="185.0919" x="562.5" y="227.1123">suite_version = "v1-30 / tree-v0"</text><text fill="#000000" font-family="'Inter, Helvetica, sans-serif'" font-size="12" lengthAdjust="spacing" textLength="250.1187" x="562.5" y="241.6347">characterized_at = "2026-05-21T14:32:18Z"</text><text fill="#000000" font-family="'Inter, Helvetica, sans-serif'" font-size="12" lengthAdjust="spacing" textLength="203.1085" x="562.5" y="256.157">characterization_state = "complete"</text><text fill="#000000" font-family="'Inter, Helvetica, sans-serif'" font-size="12" lengthAdjust="spacing" textLength="275.0385" x="562.5" y="270.6794">embedder_id = "Qwen3-Embedding-0.6B-Q8_0"</text></g><g class="entity" data-qualified-name="O_STRUCT" data-source-line="19" id="ent0008"><rect fill="#F1F1F1" height="99.1341" rx="4" ry="4" style="stroke:#181818;stroke-width:0.5;" width="225.3696" x="264.5" y="525.9429"/><text fill="#000000" font-family="'Inter, Helvetica, sans-serif'" font-size="12" lengthAdjust="spacing" textLength="174.2001" x="290.0848" y="539.5676">structural : StructuralSignature</text><line style="stroke:#181818;stroke-width:0.5;" x1="265.5" x2="488.8696" y1="544.4652" y2="544.4652"/><text fill="#000000" font-family="'Inter, Helvetica, sans-serif'" font-size="12" lengthAdjust="spacing" textLength="213.3696" x="270.5" y="560.0899">est_footprint_bytes = 1_300_000_000</text><text fill="#000000" font-family="'Inter, Helvetica, sans-serif'" font-size="12" lengthAdjust="spacing" textLength="108.9177" x="270.5" y="574.6123">tensor_count = 165</text><text fill="#000000" font-family="'Inter, Helvetica, sans-serif'" font-size="12" lengthAdjust="spacing" textLength="79.0207" x="270.5" y="589.1347">arch = "llama"</text><text fill="#000000" font-family="'Inter, Helvetica, sans-serif'" font-size="12" lengthAdjust="spacing" textLength="102.952" x="270.5" y="603.657">quant = "Q4_K_M"</text><text fill="#000000" font-family="'Inter, Helvetica, sans-serif'" font-size="12" lengthAdjust="spacing" textLength="91.4636" x="270.5" y="618.1794">ctx_max = 4096</text></g><g class="entity" data-qualified-name="O_BEH" data-source-line="27" id="ent0009"><rect fill="#F1F1F1" height="270.8801" rx="4" ry="4" style="stroke:#181818;stroke-width:0.5;" width="349.5256" x="525" y="439.9429"/><text fill="#000000" font-family="'Inter, Helvetica, sans-serif'" font-size="12" lengthAdjust="spacing" textLength="182.9272" x="608.2992" y="453.5676">behavioral : BehavioralSignature</text><line style="stroke:#181818;stroke-width:0.5;" x1="526" x2="873.5256" y1="458.4652" y2="458.4652"/><text fill="#000000" font-family="'Inter, Helvetica, sans-serif'" font-size="12" lengthAdjust="spacing" textLength="77.9639" x="531" y="474.0899">overall = 0.62</text><text fill="#000000" font-family="'Inter, Helvetica, sans-serif'" font-size="12" lengthAdjust="spacing" textLength="205.1028" x="531" y="488.6123">scoring_scheme = "beta-laplace-v1"</text><text fill="#000000" font-family="'Inter, Helvetica, sans-serif'" font-size="12" lengthAdjust="spacing" textLength="162.0982" x="531" y="521.657">scores_per_axis.code = 0.40</text><text fill="#000000" font-family="'Inter, Helvetica, sans-serif'" font-size="12" lengthAdjust="spacing" textLength="161.8425" x="531" y="536.1794">scores_per_axis.math = 0.55</text><text fill="#000000" font-family="'Inter, Helvetica, sans-serif'" font-size="12" lengthAdjust="spacing" textLength="189.4213" x="531" y="550.7017">scores_per_axis.reasoning = 0.66</text><line style="stroke:#181818;stroke-width:1;stroke-dasharray:1,2;" x1="526" x2="664.7779" y1="502.7711" y2="502.7711"/><text fill="#000000" font-family="'Inter, Helvetica, sans-serif'" font-size="12" lengthAdjust="spacing" textLength="69.9698" x="664.7779" y="506.6347">R5 (16 axes)</text><line style="stroke:#181818;stroke-width:1;stroke-dasharray:1,2;" x1="734.7477" x2="873.5256" y1="502.7711" y2="502.7711"/><text fill="#000000" font-family="'Inter, Helvetica, sans-serif'" font-size="12" lengthAdjust="spacing" textLength="207.8811" x="531" y="583.7465">scores_per_leaf['math.proba'] = 0.80</text><text fill="#000000" font-family="'Inter, Helvetica, sans-serif'" font-size="12" lengthAdjust="spacing" textLength="337.5256" x="531" y="598.2688">scores_per_leaf['code.python'] = (absent &#8212; UNMEASURED,</text><text fill="#000000" font-family="'Inter, Helvetica, sans-serif'" font-size="12" lengthAdjust="spacing" textLength="109.7358" x="531" y="612.7912">opt-in sandbox off)</text><text fill="#000000" font-family="'Inter, Helvetica, sans-serif'" font-size="12" lengthAdjust="spacing" textLength="191.8417" x="531" y="627.3135">passes_per_leaf['math.proba'] = 3</text><text fill="#000000" font-family="'Inter, Helvetica, sans-serif'" font-size="12" lengthAdjust="spacing" textLength="158.9789" x="531" y="641.8359">n_per_leaf['math.proba'] = 3</text><text fill="#000000" font-family="'Inter, Helvetica, sans-serif'" font-size="12" lengthAdjust="spacing" textLength="154.5472" x="531" y="656.3582">branch_scores.math = 0.70</text><line style="stroke:#181818;stroke-width:1;stroke-dasharray:1,2;" x1="526" x2="652.9913" y1="564.8606" y2="564.8606"/><text fill="#000000" font-family="'Inter, Helvetica, sans-serif'" font-size="12" lengthAdjust="spacing" textLength="93.5431" x="652.9913" y="568.7241">arbre (slice 4c+)</text><line style="stroke:#181818;stroke-width:1;stroke-dasharray:1,2;" x1="746.5343" x2="873.5256" y1="564.8606" y2="564.8606"/><text fill="#000000" font-family="'Inter, Helvetica, sans-serif'" font-size="12" lengthAdjust="spacing" textLength="256.7321" x="531" y="689.403">topic_coverage_per_leaf['math.proba'] = 0.62</text><text fill="#000000" font-family="'Inter, Helvetica, sans-serif'" font-size="12" lengthAdjust="spacing" textLength="118.9572" x="531" y="703.9253">freegen_words = 712</text><line style="stroke:#181818;stroke-width:1;stroke-dasharray:1,2;" x1="526" x2="650.3919" y1="670.5171" y2="670.5171"/><text fill="#000000" font-family="'Inter, Helvetica, sans-serif'" font-size="12" lengthAdjust="spacing" textLength="98.7418" x="650.3919" y="674.3806">freegen (slice 7c)</text><line style="stroke:#181818;stroke-width:1;stroke-dasharray:1,2;" x1="749.1337" x2="873.5256" y1="670.5171" y2="670.5171"/></g><g class="entity" data-qualified-name="O_QCM" data-source-line="45" id="ent0010"><rect fill="#F1F1F1" height="84.6118" rx="4" ry="4" style="stroke:#181818;stroke-width:0.5;" width="155.5532" x="910" y="532.9429"/><text fill="#000000" font-family="'Inter, Helvetica, sans-serif'" font-size="12" lengthAdjust="spacing" textLength="114.9175" x="930.3178" y="546.5676">qcm : QcmReliability</text><line style="stroke:#181818;stroke-width:0.5;" x1="911" x2="1064.5532" y1="551.4652" y2="551.4652"/><text fill="#000000" font-family="'Inter, Helvetica, sans-serif'" font-size="12" lengthAdjust="spacing" textLength="143.5532" x="916" y="567.0899">format_adherence = 0.85</text><text fill="#000000" font-family="'Inter, Helvetica, sans-serif'" font-size="12" lengthAdjust="spacing" textLength="107.7416" x="916" y="581.6123">consistency = 0.78</text><text fill="#000000" font-family="'Inter, Helvetica, sans-serif'" font-size="12" lengthAdjust="spacing" textLength="76.1912" x="916" y="596.1347">overall = 0.81</text><text fill="#000000" font-family="'Inter, Helvetica, sans-serif'" font-size="12" lengthAdjust="spacing" textLength="36.8172" x="916" y="610.657">n = 30</text></g><g class="entity" data-qualified-name="O_RUN1" data-source-line="52" id="ent0011"><rect fill="#F1F1F1" height="99.1341" rx="4" ry="4" style="stroke:#181818;stroke-width:0.5;" width="270.0105" x="565" y="801.9429"/><text fill="#000000" font-family="'Inter, Helvetica, sans-serif'" font-size="12" lengthAdjust="spacing" textLength="145.377" x="627.3168" y="815.5676">run1 : DiagnosticRunEntry</text><line style="stroke:#181818;stroke-width:0.5;" x1="566" x2="834.0105" y1="820.4652" y2="820.4652"/><text fill="#000000" font-family="'Inter, Helvetica, sans-serif'" font-size="12" lengthAdjust="spacing" textLength="112.9403" x="571" y="836.0899">id = "math-arith-01"</text><text fill="#000000" font-family="'Inter, Helvetica, sans-serif'" font-size="12" lengthAdjust="spacing" textLength="157.0017" x="571" y="850.6123">axes = ["math", "multistep"]</text><text fill="#000000" font-family="'Inter, Helvetica, sans-serif'" font-size="12" lengthAdjust="spacing" textLength="64.0722" x="571" y="865.1347">pass = true</text><text fill="#000000" font-family="'Inter, Helvetica, sans-serif'" font-size="12" lengthAdjust="spacing" textLength="62.6234" x="571" y="879.657">score = 1.0</text><text fill="#000000" font-family="'Inter, Helvetica, sans-serif'" font-size="12" lengthAdjust="spacing" textLength="258.0105" x="571" y="894.1794">response = "Le train A avait une avance de&#8230;"</text></g><g class="entity" data-qualified-name="O_RUN2" data-source-line="60" id="ent0012"><rect fill="#F1F1F1" height="84.6118" rx="4" ry="4" style="stroke:#181818;stroke-width:0.5;" width="275.6523" x="7" y="808.9429"/><text fill="#000000" font-family="'Inter, Helvetica, sans-serif'" font-size="12" lengthAdjust="spacing" textLength="147.0645" x="71.2939" y="822.5676">run2 : DiagnosticRunEntry</text><line style="stroke:#181818;stroke-width:0.5;" x1="8" x2="281.6523" y1="827.4652" y2="827.4652"/><text fill="#000000" font-family="'Inter, Helvetica, sans-serif'" font-size="12" lengthAdjust="spacing" textLength="123.2184" x="13" y="843.0899">id = "code-debug-01"</text><text fill="#000000" font-family="'Inter, Helvetica, sans-serif'" font-size="12" lengthAdjust="spacing" textLength="156.6438" x="13" y="857.6123">axes = ["code", "multistep"]</text><text fill="#000000" font-family="'Inter, Helvetica, sans-serif'" font-size="12" lengthAdjust="spacing" textLength="68.4869" x="13" y="872.1347">pass = false</text><text fill="#000000" font-family="'Inter, Helvetica, sans-serif'" font-size="12" lengthAdjust="spacing" textLength="263.6523" x="13" y="886.657">detail = "UNMEASURED &#8212; opt-in sandbox off"</text></g><g class="entity" data-qualified-name="GMN18" data-source-line="74" id="ent0019"><path d="M870,821.4429 L870,881.5323 A4,4 0 0 0 874,885.5323 L1054.3821,885.5323 A4,4 0 0 0 1058.3821,881.5323 L1058.3821,827.4429 L1048.3821,817.4429 L936,817.4429 L829.68,711.0329 L928,817.4429 L874,817.4429 A4,4 0 0 0 870,821.4429" fill="#FFFDF6" style="stroke:#C68A3A;stroke-width:0.5;"/><path d="M1048.3821,817.4429 L1048.3821,825.4429 A2,2 0 0 0 1050.3821,827.4429 L1058.3821,827.4429 L1048.3821,817.4429" fill="#FFFDF6" style="stroke:#C68A3A;stroke-width:0.5;"/><text fill="#0E1014" font-family="'Inter, Helvetica, sans-serif'" font-size="12" lengthAdjust="spacing" textLength="133.8546" x="876" y="834.0676">Exemple Beta-Laplace :</text><text fill="#0E1014" font-family="'Inter, Helvetica, sans-serif'" font-size="12" lengthAdjust="spacing" textLength="167.3821" x="876" y="848.5899">mont&#233;e 3/3 sur `math.proba`</text><text fill="#0E1014" font-family="'Inter, Helvetica, sans-serif'" font-size="12" lengthAdjust="spacing" textLength="124.1389" x="876" y="863.1123">&#8658; (1+3)/(2+3) = 0.80,</text><text fill="#0E1014" font-family="'Inter, Helvetica, sans-serif'" font-size="12" lengthAdjust="spacing" textLength="111.1506" x="876" y="877.6347">le plafond Phase-A.</text></g><g class="entity" data-qualified-name="GMN21" data-source-line="81" id="ent0022"><path d="M318.5,813.9429 L318.5,847.4429 L283.14,851.4429 L318.5,855.4429 L318.5,888.5547 A4,4 0 0 0 322.5,892.5547 L525.5349,892.5547 A4,4 0 0 0 529.5349,888.5547 L529.5349,819.9429 L519.5349,809.9429 L322.5,809.9429 A4,4 0 0 0 318.5,813.9429" fill="#FFFDF6" style="stroke:#C68A3A;stroke-width:0.5;"/><path d="M519.5349,809.9429 L519.5349,817.9429 A2,2 0 0 0 521.5349,819.9429 L529.5349,819.9429 L519.5349,809.9429" fill="#FFFDF6" style="stroke:#C68A3A;stroke-width:0.5;"/><text fill="#0E1014" font-family="'Inter, Helvetica, sans-serif'" font-size="12" lengthAdjust="spacing" textLength="157.7346" x="324.5" y="826.5676">Les items sandbox-pending</text><text fill="#0E1014" font-family="'Inter, Helvetica, sans-serif'" font-size="12" lengthAdjust="spacing" textLength="190.0349" x="324.5" y="841.0899">apparaissent dans diagnostic_run</text><text fill="#0E1014" font-family="'Inter, Helvetica, sans-serif'" font-size="12" lengthAdjust="spacing" textLength="166.4276" x="324.5" y="855.6123">avec un d&#233;tail UNMEASURED</text><text fill="#0E1014" font-family="'Inter, Helvetica, sans-serif'" font-size="12" lengthAdjust="spacing" textLength="140.7578" x="324.5" y="870.1347">clair &#8212; jamais comme un</text><text fill="#0E1014" font-family="'Inter, Helvetica, sans-serif'" font-size="12" lengthAdjust="spacing" textLength="65.6915" x="324.5" y="884.657">faux &#233;chec.</text></g><!--link O_SIG to O_STRUCT--><g class="link" data-entity-1="ent0007" data-entity-2="ent0008" data-link-type="dependency" data-source-line="67" id="lnk13"><path codeLine="67" d="M654.41,277.7129 C592.85,343.5629 487.2146,456.5504 425.7746,522.2704" fill="none" id="O_SIG-to-O_STRUCT" style="stroke:#1A1D24;stroke-width:1;"/><polygon fill="#1A1D24" points="422.36,525.9229,431.4283,522.0801,425.7746,522.2704,425.5843,516.6168,422.36,525.9229" style="stroke:#1A1D24;stroke-width:1;stroke-linejoin:miter;stroke-miterlimit:10;"/><text fill="#000000" font-family="'Inter, Helvetica, sans-serif'" font-size="12" lengthAdjust="spacing" textLength="54.1861" x="540" y="406.5676">structural</text></g><!--link O_SIG to O_BEH--><g class="link" data-entity-1="ent0007" data-entity-2="ent0009" data-link-type="dependency" data-source-line="68" id="lnk14"><path codeLine="68" d="M700,277.7129 C700,319.8429 700,377.7729 700,434.8429" fill="none" id="O_SIG-to-O_BEH" style="stroke:#1A1D24;stroke-width:1;"/><polygon fill="#1A1D24" points="700,439.8429,704,430.8429,700,434.8429,696,430.8429,700,439.8429" style="stroke:#1A1D24;stroke-width:1;stroke-linejoin:miter;stroke-miterlimit:10;"/><text fill="#000000" font-family="'Inter, Helvetica, sans-serif'" font-size="12" lengthAdjust="spacing" textLength="59.061" x="701" y="406.5676">behavioral</text></g><!--link O_SIG to O_QCM--><g class="link" data-entity-1="ent0007" data-entity-2="ent0010" data-link-type="dependency" data-source-line="69" id="lnk15"><path codeLine="69" d="M747.49,277.7729 C787.44,319.6329 845.34,382.1329 892,439.9429 C916.33,470.0829 938.8636,501.7084 957.4136,528.7784" fill="none" id="O_SIG-to-O_QCM" style="stroke:#1A1D24;stroke-width:1;"/><polygon fill="#1A1D24" points="960.24,532.9029,958.4522,523.2177,957.4136,528.7784,951.8529,527.7399,960.24,532.9029" style="stroke:#1A1D24;stroke-width:1;stroke-linejoin:miter;stroke-miterlimit:10;"/><text fill="#000000" font-family="'Inter, Helvetica, sans-serif'" font-size="12" lengthAdjust="spacing" textLength="80.8104" x="864" y="406.5676">qcm_reliability</text></g><!--link O_BEH to O_RUN1--><g class="link" data-entity-1="ent0009" data-entity-2="ent0011" data-link-type="dependency" data-source-line="70" id="lnk16"><path codeLine="70" d="M700,711.0329 C700,743.5129 700,771.1729 700,796.7129" fill="none" id="O_BEH-to-O_RUN1" style="stroke:#1A1D24;stroke-width:1;"/><polygon fill="#1A1D24" points="700,801.7129,704,792.7129,700,796.7129,696,792.7129,700,801.7129" style="stroke:#1A1D24;stroke-width:1;stroke-linejoin:miter;stroke-miterlimit:10;"/><text fill="#000000" font-family="'Inter, Helvetica, sans-serif'" font-size="12" lengthAdjust="spacing" textLength="82.6172" x="705.8493" y="753.5676">diagnostic_run</text><text fill="#000000" font-family="'Inter, Helvetica, sans-serif'" font-size="12" lengthAdjust="spacing" textLength="92.3158" x="701" y="768.0899">['math-arith-01']</text></g><!--link O_BEH to O_RUN2--><g class="link" data-entity-1="ent0009" data-entity-2="ent0012" data-link-type="dependency" data-source-line="71" id="lnk17"><path codeLine="71" d="M524.93,701.0429 C518.94,704.4729 512.95,707.7829 507,710.9429 C433.09,750.1929 350.3701,782.5633 279.9501,807.1733" fill="none" id="O_BEH-to-O_RUN2" style="stroke:#1A1D24;stroke-width:1;"/><polygon fill="#1A1D24" points="275.23,808.8229,285.0458,809.6298,279.9501,807.1733,282.4065,802.0777,275.23,808.8229" style="stroke:#1A1D24;stroke-width:1;stroke-linejoin:miter;stroke-miterlimit:10;"/><text fill="#000000" font-family="'Inter, Helvetica, sans-serif'" font-size="12" lengthAdjust="spacing" textLength="82.6172" x="451.9884" y="753.5676">diagnostic_run</text><text fill="#000000" font-family="'Inter, Helvetica, sans-serif'" font-size="12" lengthAdjust="spacing" textLength="102.594" x="442" y="768.0899">['code-debug-01']</text></g><?plantuml-src ZLRDKXj74BxhASQw2ChUPNU50AjYLu41snMm0vXBRDTuThObZMjtPfcPnIAfLFcMUohFa8Bdq9lm9EcU5GXaxEGWiQlkdlc-_lcQHqhBiYc0nV4Qdp-xDUSlIeXLKvMTHmywo58uXt-jQRpIuyXVrE3QW8vNlWIsgyJOYge2LlHC_Xayk_xwDsiqgqmnkqG7q5xDBYrK-C2ai4BwsPLLRdR52g4TGnUd2a1BfzDZhxNpGajWqcXfPvSUpmN7vZXOCRiQAQte2MFH__z0ZTdkxAeosbiy5jXPqsiqXewKd2Ymx5FitTfFSxZFuy_Ew4zqlLU4sCwke2nRzA96H8x8MVn8KzKbU3m9itQ7cF3AQ2REGRAoPseVASsSq4Lkfkpj_ZvRKSInB5ajR20a6iyGhJfhO3NkT2YBqhFkmVvXnWSyvTaE6x8JDTR2DnQwJ3Zsbf-yVib-xp1ACvIlX9kmPwoR3vwAww__ZB9-5qskKHxuELX7WD1ydaRzXAqnJ0H4vmdvo4a03bRz1WKNdjoo9Dk8aa6KfU_IzM4_6wPRloxv1euSQM1zC6AU2Y0lg78e2h1S5MGw-WAw7-s57waiIRon4nrjSRpzZmLNvsqZaPqeYUhjopUatnsVldWNU8FpV6IChwtIdkSN7dlY6KjvFqbuqdxGouDsnd9f6atKqeq1_YYi3DagIr49WdpMY63k7gtpd_bXuEgdl19J_74zURfn5seE4t6kJ0jrv_Pb6UhEtgk0qs3-gTZF63BFg2hI8EGnTtA2NHMg1bv4fQXB8R4iALqVnyS3jf9kC345jnh7ypXmlCRCYgboiSJ2XrFNamUibV2JO1qC7h1Q4DZbYAA5jH5k53R70LbnfS8XMPUFlxcs135wtwEJuzgQNFG-Xl2jv24tWXVN5tvYTF1R4RcZ6I9rE7rpkBTzSdgyj_laWrwQ43CQhU9vTHZcxr_RHn_zOtDkKKWcl4MsICXc4jYES0R6e6_uRigMhZUrajWlLBKn_8XsAERy5Fx5s8BwRpFDxlRAcQomIOvaTGob4hagbR-OzyVHYyFG7oDZyMWkYWbO8E4BAQMYeGGvvR23vKKBV6kfdRPIIWAnJUvUYjgKugqapDeuh-Hne_TG_6vkFZvzauQhsm4bOf6m2h-Jq7lKScXu7opT9-ZHb9w0rDsFyygW6MSKRkfEanLJMZ7HDQ8ENNq0w2EmijkeXK9vb4sW9-9O0AfKTmbqzX-WipkWgRkY0l9cl0oQBDy5FHAb8zG5JfoY97ONhHWwyzjc32XRkOsYvmiD6hA5Pjspq-0FsK8bxXcfwaE6RS7jeYCwRL3h4QepPCLj8ZYcveDk6_2sJhsFoq7PWq7tyeH17MrGiNFZlQcGNGiN4x8t1L9mr3EKeeDMYjWmh1UDMmrOVwsF-mINvM8EFg7v-i-_KAOUzrVNLZBydkl14xJWONZAoEY2_J8H3gBjk0FuGW3cCAmQJtoBWWXWq04M4NTMvMug4DKOWpf55QvnNmhbWeg4_npkqoKNshcucN6fXlekYalZL0fbGv4_e-mhH_iRzJS4uWgUijaLAhAyW_9V?></g></svg>