<svg xmlns="http://www.w3.org/2000/svg" xmlns:xlink="http://www.w3.org/1999/xlink" contentStyleType="text/css" data-diagram-type="STATE" height="1758px" preserveAspectRatio="none" style="width:594px;height:1758px;background:#F4EEE3;" version="1.1" viewBox="0 0 594 1758" width="594px" zoomAndPan="magnify"><?plantuml 1.2026.4?><defs/><g><rect fill="#F4EEE3" height="1758" style="stroke:none;stroke-width:1;" width="594" x="0" y="0"/><g class="title" data-source-line="4"><text fill="#000000" font-family="'Inter, Helvetica, sans-serif'" font-size="14" font-weight="700" lengthAdjust="spacing" textLength="336.8099" x="125.422" y="23.5623">Routing &#8212; pipeline `models.route` (slice 5b + 7)</text></g><!--cluster VEC--><g class="cluster" data-qualified-name="VEC" data-source-line="14" id="ent0007"><path d="M11,862.9429 L259,862.9429 A4,4 0 0 1 263,866.9429 L263,882.4652 L7,882.4652 L7,866.9429 A4,4 0 0 1 11,862.9429" fill="#F1F1F1"/><rect fill="none" height="417.22" rx="4" ry="4" style="stroke:#181818;stroke-width:0.5;" width="256" x="7" y="862.9429"/><line style="stroke:#181818;stroke-width:0.5;" x1="7" x2="263" y1="882.4652" y2="882.4652"/><text fill="#000000" font-family="'Inter, Helvetica, sans-serif'" font-size="12" lengthAdjust="spacing" textLength="210.881" x="29.5595" y="878.5676">Chemin VECTEUR (routedBy:'vector')</text></g><!--cluster R5--><g class="cluster" data-qualified-name="R5" data-source-line="20" id="ent0011"><path d="M307,862.9429 L519,862.9429 A4,4 0 0 1 523,866.9429 L523,882.4652 L303,882.4652 L303,866.9429 A4,4 0 0 1 307,862.9429" fill="#F1F1F1"/><rect fill="none" height="271.72" rx="4" ry="4" style="stroke:#181818;stroke-width:0.5;" width="220" x="303" y="862.9429"/><line style="stroke:#181818;stroke-width:0.5;" x1="303" x2="523" y1="882.4652" y2="882.4652"/><text fill="#000000" font-family="'Inter, Helvetica, sans-serif'" font-size="12" lengthAdjust="spacing" textLength="145.7861" x="340.107" y="878.5676">Chemin R5 (routedBy:'r5')</text></g><g class="entity" data-qualified-name="VEC.EMBED_Q" data-source-line="15" id="ent0008"><rect fill="#F1F1F1" height="50" rx="4" ry="4" style="stroke:#181818;stroke-width:0.5;" width="207.5975" x="31" y="949.6629"/><line style="stroke:#181818;stroke-width:0.5;" x1="31" x2="238.5975" y1="988.7076" y2="988.7076"/><text fill="#000000" font-family="'Inter, Helvetica, sans-serif'" font-size="12" lengthAdjust="spacing" textLength="169.4446" x="41" y="966.2876">EmbedClient &#8594; vecteur query</text><text fill="#000000" font-family="'Inter, Helvetica, sans-serif'" font-size="12" lengthAdjust="spacing" textLength="187.5975" x="41" y="980.8099">(slice 7e ensureEmbedderReady)</text></g><g class="entity" data-qualified-name="VEC.PROJECT" data-source-line="16" id="ent0009"><rect fill="#F1F1F1" height="50" rx="4" ry="4" style="stroke:#181818;stroke-width:0.5;" width="189.2059" x="46.5" y="1060.6629"/><line style="stroke:#181818;stroke-width:0.5;" x1="46.5" x2="235.7059" y1="1099.7076" y2="1099.7076"/><text fill="#000000" font-family="'Inter, Helvetica, sans-serif'" font-size="12" lengthAdjust="spacing" textLength="169.2059" x="56.5" y="1077.2876">Projette sur 32 ancres feuilles</text><text fill="#000000" font-family="'Inter, Helvetica, sans-serif'" font-size="12" lengthAdjust="spacing" textLength="131.6046" x="56.5" y="1091.8099">(`probe-anchors.json`)</text></g><g class="entity" data-qualified-name="VEC.BLEND" data-source-line="17" id="ent0010"><rect fill="#F1F1F1" height="50" rx="4" ry="4" style="stroke:#181818;stroke-width:0.5;" width="180.1209" x="59" y="1206.1629"/><line style="stroke:#181818;stroke-width:0.5;" x1="59" x2="239.1209" y1="1245.2076" y2="1245.2076"/><text fill="#000000" font-family="'Inter, Helvetica, sans-serif'" font-size="12" lengthAdjust="spacing" textLength="160.1209" x="69" y="1222.7876">Blend &#945;&#183;v_det + &#946;&#183;max(0, tc)</text><text fill="#000000" font-family="'Inter, Helvetica, sans-serif'" font-size="12" lengthAdjust="spacing" textLength="82.14" x="69" y="1237.3099">(&#945;=0.7, &#946;=0.3)</text></g><g class="entity" data-qualified-name="R5.CLASSIFY" data-source-line="21" id="ent0012"><rect fill="#F1F1F1" height="50" rx="4" ry="4" style="stroke:#181818;stroke-width:0.5;" width="171.7007" x="327" y="949.6629"/><line style="stroke:#181818;stroke-width:0.5;" x1="327" x2="498.7007" y1="988.7076" y2="988.7076"/><text fill="#000000" font-family="'Inter, Helvetica, sans-serif'" font-size="12" lengthAdjust="spacing" textLength="85.6513" x="337" y="966.2876">classifyQuery()</text><text fill="#000000" font-family="'Inter, Helvetica, sans-serif'" font-size="12" lengthAdjust="spacing" textLength="151.7007" x="337" y="980.8099">poids d'axes d&#233;terministes</text></g><g class="entity" data-qualified-name="R5.MAP_BRANCH" data-source-line="22" id="ent0013"><rect fill="#F1F1F1" height="50" rx="4" ry="4" style="stroke:#181818;stroke-width:0.5;" width="169.3996" x="327.5" y="1060.6629"/><line style="stroke:#181818;stroke-width:0.5;" x1="327.5" x2="496.8996" y1="1085.1852" y2="1085.1852"/><text fill="#000000" font-family="'Inter, Helvetica, sans-serif'" font-size="12" lengthAdjust="spacing" textLength="149.3996" x="337.5" y="1077.2876">Map sur priors de branche</text></g><g class="entity" data-qualified-name="ENTRY" data-source-line="7" id="ent0001"><rect fill="#F1F1F1" height="50" rx="4" ry="4" style="stroke:#181818;stroke-width:0.5;" width="149.6955" x="244" y="124.9429"/><line style="stroke:#181818;stroke-width:0.5;" x1="244" x2="393.6955" y1="149.4652" y2="149.4652"/><text fill="#000000" font-family="'Inter, Helvetica, sans-serif'" font-size="12" lengthAdjust="spacing" textLength="129.6955" x="254" y="141.5676">tool MCP models.route</text></g><g class="entity" data-qualified-name="CFG" data-source-line="8" id="ent0002"><rect fill="#F1F1F1" height="50" rx="4" ry="4" style="stroke:#181818;stroke-width:0.5;" width="175.8597" x="231" y="235.9429"/><line style="stroke:#181818;stroke-width:0.5;" x1="231" x2="406.8597" y1="274.9876" y2="274.9876"/><text fill="#000000" font-family="'Inter, Helvetica, sans-serif'" font-size="12" lengthAdjust="spacing" textLength="121.5821" x="241" y="252.5676">charge routing config</text><text fill="#000000" font-family="'Inter, Helvetica, sans-serif'" font-size="12" lengthAdjust="spacing" textLength="155.8597" x="241" y="267.0899">+ effectiveRoutingParams()</text></g><g class="entity" data-qualified-name="CANDS" data-source-line="9" id="ent0003"><rect fill="#F1F1F1" height="50" rx="4" ry="4" style="stroke:#181818;stroke-width:0.5;" width="247.517" x="195" y="346.9429"/><line style="stroke:#181818;stroke-width:0.5;" x1="195" x2="442.517" y1="385.9876" y2="385.9876"/><text fill="#000000" font-family="'Inter, Helvetica, sans-serif'" font-size="12" lengthAdjust="spacing" textLength="133.8375" x="205" y="363.5676">liste mod&#232;les candidats</text><text fill="#000000" font-family="'Inter, Helvetica, sans-serif'" font-size="12" lengthAdjust="spacing" textLength="227.517" x="205" y="378.0899">(seulement signatures compl&#232;tes &#8212; D9)</text></g><g class="entity" data-qualified-name="PROBE" data-source-line="10" id="ent0004"><rect fill="#F1F1F1" height="50" rx="4" ry="4" style="stroke:#181818;stroke-width:0.5;" width="205.4839" x="216.5" y="457.9429"/><line style="stroke:#181818;stroke-width:0.5;" x1="216.5" x2="421.9839" y1="496.9876" y2="496.9876"/><text fill="#000000" font-family="'Inter, Helvetica, sans-serif'" font-size="12" lengthAdjust="spacing" textLength="116.9288" x="226.5" y="474.5676">Sonde m&#233;moire libre</text><text fill="#000000" font-family="'Inter, Helvetica, sans-serif'" font-size="12" lengthAdjust="spacing" textLength="185.4839" x="226.5" y="489.0899">(VRAM/RAM, ensemble r&#233;sident)</text></g><g class="entity" data-qualified-name="Q_EMBED" data-source-line="11" id="ent0005"><rect fill="#F1F1F1" height="50" rx="4" ry="4" style="stroke:#181818;stroke-width:0.5;" width="145.0252" x="246.5" y="568.9429"/><line style="stroke:#181818;stroke-width:0.5;" x1="246.5" x2="391.5252" y1="593.4652" y2="593.4652"/><text fill="#000000" font-family="'Inter, Helvetica, sans-serif'" font-size="12" lengthAdjust="spacing" textLength="125.0252" x="256.5" y="585.5676">Embedder configur&#233; ?</text></g><g class="entity" data-qualified-name="Q_GATE" data-source-line="12" id="ent0006"><rect fill="#F1F1F1" height="50" rx="4" ry="4" style="stroke:#181818;stroke-width:0.5;" width="130.6392" x="69.5" y="718.9429"/><line style="stroke:#181818;stroke-width:0.5;" x1="69.5" x2="200.1392" y1="743.4652" y2="743.4652"/><text fill="#000000" font-family="'Inter, Helvetica, sans-serif'" font-size="12" lengthAdjust="spacing" textLength="110.6392" x="79.5" y="735.5676">Gate de fiabilit&#233; &#8805; &#952;</text></g><g class="entity" data-qualified-name="SCORE" data-source-line="25" id="ent0014"><rect fill="#F1F1F1" height="63.5671" rx="4" ry="4" style="stroke:#181818;stroke-width:0.5;" width="150.9058" x="151.5" y="1335.1629"/><line style="stroke:#181818;stroke-width:0.5;" x1="151.5" x2="302.4058" y1="1388.73" y2="1388.73"/><text fill="#000000" font-family="'Inter, Helvetica, sans-serif'" font-size="12" lengthAdjust="spacing" textLength="130.9058" x="161.5" y="1351.7876">Score chaque candidat</text><text fill="#000000" font-family="'Inter, Helvetica, sans-serif'" font-size="12" lengthAdjust="spacing" textLength="106.412" x="161.5" y="1366.3099">C_m = &#931; q[i]&#183;v_m[i]</text><text fill="#000000" font-family="'Inter, Helvetica, sans-serif'" font-size="12" lengthAdjust="spacing" textLength="123.2014" x="161.5" y="1380.8323">+ w_fit&#183;fit + w_hot&#183;hot</text></g><g class="entity" data-qualified-name="RANK" data-source-line="26" id="ent0015"><rect fill="#F1F1F1" height="50" rx="4" ry="4" style="stroke:#181818;stroke-width:0.5;" width="158.3885" x="148" y="1460.1629"/><line style="stroke:#181818;stroke-width:0.5;" x1="148" x2="306.3885" y1="1499.2076" y2="1499.2076"/><text fill="#000000" font-family="'Inter, Helvetica, sans-serif'" font-size="12" lengthAdjust="spacing" textLength="138.3885" x="158" y="1476.7876">rank + s&#233;lection meilleur</text><text fill="#000000" font-family="'Inter, Helvetica, sans-serif'" font-size="12" lengthAdjust="spacing" textLength="131.5705" x="158" y="1491.3099">filtre vers &#233;ligibles (D9)</text></g><g class="entity" data-qualified-name="OUT" data-source-line="27" id="ent0016"><rect fill="#F1F1F1" height="50" rx="4" ry="4" style="stroke:#181818;stroke-width:0.5;" width="205.4328" x="124.5" y="1571.1629"/><line style="stroke:#181818;stroke-width:0.5;" x1="124.5" x2="329.9328" y1="1610.2076" y2="1610.2076"/><text fill="#000000" font-family="'Inter, Helvetica, sans-serif'" font-size="12" lengthAdjust="spacing" textLength="185.4328" x="134.5" y="1587.7876">retourne {routedBy, gateReason,</text><text fill="#000000" font-family="'Inter, Helvetica, sans-serif'" font-size="12" lengthAdjust="spacing" textLength="154.9733" x="137.8749" y="1602.3099">best, ranked, resources, &#8230;}</text></g><g class="start_entity" data-qualified-name=".start." data-source-line="6" id="ent0017"><ellipse cx="319" cy="53.9429" fill="#222222" rx="10" ry="10" style="stroke:#222222;stroke-width:1;"/></g><g class="entity" data-qualified-name="GMN36" data-source-line="52" id="ent0037"><path d="M358,1193.6629 L358,1227.1629 L239,1231.1629 L358,1235.1629 L358,1268.2747 A4,4 0 0 0 362,1272.2747 L575.654,1272.2747 A4,4 0 0 0 579.654,1268.2747 L579.654,1199.6629 L569.654,1189.6629 L362,1189.6629 A4,4 0 0 0 358,1193.6629" fill="#FFFDF6" style="stroke:#C68A3A;stroke-width:0.5;"/><path d="M569.654,1189.6629 L569.654,1197.6629 A2,2 0 0 0 571.654,1199.6629 L579.654,1199.6629 L569.654,1189.6629" fill="#FFFDF6" style="stroke:#C68A3A;stroke-width:0.5;"/><text fill="#0E1014" font-family="'Inter, Helvetica, sans-serif'" font-size="12" lengthAdjust="spacing" textLength="137.3999" x="364" y="1206.2876">topic_coverage_per_leaf</text><text fill="#0E1014" font-family="'Inter, Helvetica, sans-serif'" font-size="12" lengthAdjust="spacing" textLength="163.6663" x="364" y="1220.8099">(slice 7c) est une **&#233;vidence</text><text fill="#0E1014" font-family="'Inter, Helvetica, sans-serif'" font-size="12" lengthAdjust="spacing" textLength="176.1944" x="364" y="1235.3323">suppl&#233;mentaire**, ne remplace</text><text fill="#0E1014" font-family="'Inter, Helvetica, sans-serif'" font-size="12" lengthAdjust="spacing" textLength="200.654" x="364" y="1249.8547">jamais la comp&#233;tence d&#233;terministe.</text><text fill="#0E1014" font-family="'Inter, Helvetica, sans-serif'" font-size="12" lengthAdjust="spacing" textLength="144.252" x="364" y="1264.377">Voir DECISIONS.md DCC.</text></g><g class="entity" data-qualified-name="GMN39" data-source-line="60" id="ent0040"><path d="M235.5,713.9429 L235.5,739.9429 L200.69,743.9429 L235.5,747.9429 L235.5,774.0323 A4,4 0 0 0 239.5,778.0323 L428.8648,778.0323 A4,4 0 0 0 432.8648,774.0323 L432.8648,719.9429 L422.8648,709.9429 L239.5,709.9429 A4,4 0 0 0 235.5,713.9429" fill="#FFFDF6" style="stroke:#C68A3A;stroke-width:0.5;"/><path d="M422.8648,709.9429 L422.8648,717.9429 A2,2 0 0 0 424.8648,719.9429 L432.8648,719.9429 L422.8648,709.9429" fill="#FFFDF6" style="stroke:#C68A3A;stroke-width:0.5;"/><text fill="#0E1014" font-family="'Inter, Helvetica, sans-serif'" font-size="12" lengthAdjust="spacing" textLength="176.3648" x="241.5" y="726.5676">&#201;chec d'embed de query ou de</text><text fill="#0E1014" font-family="'Inter, Helvetica, sans-serif'" font-size="12" lengthAdjust="spacing" textLength="164.2287" x="241.5" y="741.0899">lecture de fiabilit&#233; &#8658; fallback</text><text fill="#0E1014" font-family="'Inter, Helvetica, sans-serif'" font-size="12" lengthAdjust="spacing" textLength="166.0185" x="241.5" y="755.6123">silencieux vers R5. Le routing</text><text fill="#0E1014" font-family="'Inter, Helvetica, sans-serif'" font-size="12" lengthAdjust="spacing" textLength="27.3061" x="241.5" y="770.1347">n'est</text><text fill="#0E1014" font-family="'Inter, Helvetica, sans-serif'" font-size="12" font-weight="700" lengthAdjust="spacing" textLength="94.4466" x="272.181" y="770.1347">jamais bloquant</text><text fill="#0E1014" font-family="'Inter, Helvetica, sans-serif'" font-size="12" lengthAdjust="spacing" textLength="3.3067" x="366.6276" y="770.1347">.</text></g><!--link *start* to ENTRY--><g class="link" data-entity-1="ent0017" data-entity-2="ent0001" data-link-type="dependency" data-source-line="6" id="lnk18"><path d="M319,63.9529 C319,77.8329 319,99.9129 319,119.7829" fill="none" id="*start*-to-ENTRY" style="stroke:#1A1D24;stroke-width:1;"/><polygon fill="#1A1D24" points="319,124.7829,323,115.7829,319,119.7829,315,115.7829,319,124.7829" style="stroke:#1A1D24;stroke-width:1;stroke-linejoin:miter;stroke-miterlimit:10;"/></g><!--link ENTRY to CFG--><g class="link" data-entity-1="ent0001" data-entity-2="ent0002" data-link-type="dependency" data-source-line="29" id="lnk19"><path d="M319,175.1329 C319,193.1929 319,212.7729 319,230.8229" fill="none" id="ENTRY-to-CFG" style="stroke:#1A1D24;stroke-width:1;"/><polygon fill="#1A1D24" points="319,235.8229,323,226.8229,319,230.8229,315,226.8229,319,235.8229" style="stroke:#1A1D24;stroke-width:1;stroke-linejoin:miter;stroke-miterlimit:10;"/></g><!--link CFG to CANDS--><g class="link" data-entity-1="ent0002" data-entity-2="ent0003" data-link-type="dependency" data-source-line="30" id="lnk20"><path d="M319,286.1329 C319,304.1929 319,323.7729 319,341.8229" fill="none" id="CFG-to-CANDS" style="stroke:#1A1D24;stroke-width:1;"/><polygon fill="#1A1D24" points="319,346.8229,323,337.8229,319,341.8229,315,337.8229,319,346.8229" style="stroke:#1A1D24;stroke-width:1;stroke-linejoin:miter;stroke-miterlimit:10;"/></g><!--link CANDS to PROBE--><g class="link" data-entity-1="ent0003" data-entity-2="ent0004" data-link-type="dependency" data-source-line="31" id="lnk21"><path d="M319,397.1329 C319,415.1929 319,434.7729 319,452.8229" fill="none" id="CANDS-to-PROBE" style="stroke:#1A1D24;stroke-width:1;"/><polygon fill="#1A1D24" points="319,457.8229,323,448.8229,319,452.8229,315,448.8229,319,457.8229" style="stroke:#1A1D24;stroke-width:1;stroke-linejoin:miter;stroke-miterlimit:10;"/></g><!--link PROBE to Q_EMBED--><g class="link" data-entity-1="ent0004" data-entity-2="ent0005" data-link-type="dependency" data-source-line="32" id="lnk22"><path d="M319,508.1329 C319,526.1929 319,545.7729 319,563.8229" fill="none" id="PROBE-to-Q_EMBED" style="stroke:#1A1D24;stroke-width:1;"/><polygon fill="#1A1D24" points="319,568.8229,323,559.8229,319,563.8229,315,559.8229,319,568.8229" style="stroke:#1A1D24;stroke-width:1;stroke-linejoin:miter;stroke-miterlimit:10;"/></g><!--link Q_EMBED to Q_GATE--><g class="link" data-entity-1="ent0005" data-entity-2="ent0006" data-link-type="dependency" data-source-line="34" id="lnk23"><path d="M289.03,619.0529 C254.81,646.5729 203.0659,688.1889 168.8559,715.7089" fill="none" id="Q_EMBED-to-Q_GATE" style="stroke:#1A1D24;stroke-width:1;"/><polygon fill="#1A1D24" points="164.96,718.8429,174.4798,716.3184,168.8559,715.7089,169.4654,710.0849,164.96,718.8429" style="stroke:#1A1D24;stroke-width:1;stroke-linejoin:miter;stroke-miterlimit:10;"/><text fill="#000000" font-family="'Inter, Helvetica, sans-serif'" font-size="12" lengthAdjust="spacing" textLength="53.7941" x="286.2178" y="661.5676">configur&#233;</text><text fill="#000000" font-family="'Inter, Helvetica, sans-serif'" font-size="12" lengthAdjust="spacing" textLength="128.2297" x="249" y="676.0899">(managed ou external)</text></g><!--link Q_EMBED to R5--><g class="link" data-entity-1="ent0005" data-entity-2="ent0011" data-link-type="dependency" data-source-line="35" id="lnk24"><path d="M361.62,619.0829 C392.3,639.0629 431.42,670.5229 450,709.9429 C474.47,761.8829 477.72,785.3929 457,838.9429 C454.46,845.5054 450.5694,851.726 446.1314,857.3854 C445.0219,858.8002 443.8782,860.18 442.7129,861.5213 C442.4215,861.8566 442.1288,862.1895 441.835,862.5199 C441.7615,862.6025 445.021,858.958 444.9474,859.0403" fill="none" id="Q_EMBED-to-R5" style="stroke:#1A1D24;stroke-width:1;"/><polygon fill="#1A1D24" points="441.6144,862.7673,450.5955,858.7251,444.9474,859.0403,444.6323,853.3922,441.6144,862.7673" style="stroke:#1A1D24;stroke-width:1;stroke-linejoin:miter;stroke-miterlimit:10;"/><text fill="#000000" font-family="'Inter, Helvetica, sans-serif'" font-size="12" lengthAdjust="spacing" textLength="38.8627" x="487.2013" y="741.0676">absent</text><text fill="#000000" font-family="'Inter, Helvetica, sans-serif'" font-size="12" lengthAdjust="spacing" textLength="71.2652" x="471" y="755.5899">(fallback R5)</text></g><!--link Q_GATE to VEC--><g class="link" data-entity-1="ent0006" data-entity-2="ent0007" data-link-type="dependency" data-source-line="36" id="lnk25"><path d="M135,769.0929 C135,789.0829 135,818.0304 135,842.2754 C135,848.3366 135,854.104 135,859.364 C135,860.0215 135,860.6711 135,861.3123 C135,861.6329 135,861.9514 135,862.2678 C135,862.426 135,857.5837 135,857.7408" fill="none" id="Q_GATE-to-VEC" style="stroke:#1A1D24;stroke-width:1;"/><polygon fill="#1A1D24" points="135,862.7408,139,853.7408,135,857.7408,131,853.7408,135,862.7408" style="stroke:#1A1D24;stroke-width:1;stroke-linejoin:miter;stroke-miterlimit:10;"/><text fill="#000000" font-family="'Inter, Helvetica, sans-serif'" font-size="12" lengthAdjust="spacing" textLength="118.0879" x="136" y="820.5676">embeddingReliability</text><text fill="#000000" font-family="'Inter, Helvetica, sans-serif'" font-size="12" lengthAdjust="spacing" textLength="37.2093" x="176.4393" y="835.0899">&#8805; seuil</text></g><!--link Q_GATE to R5--><g class="link" data-entity-1="ent0006" data-entity-2="ent0011" data-link-type="dependency" data-source-line="37" id="lnk26"><path d="M184.71,768.9929 C208.48,780.5929 237.3,794.8229 263,807.9429 C296.065,824.8229 332.92,844.3104 361.8237,859.7504 C363.6302,860.7154 360.997,859.3058 362.7385,860.2376" fill="none" id="Q_GATE-to-R5" style="stroke:#1A1D24;stroke-width:1;"/><polygon fill="#1A1D24" points="367.1472,862.5963,361.0986,854.8236,362.7385,860.2376,357.3246,861.8775,367.1472,862.5963" style="stroke:#1A1D24;stroke-width:1;stroke-linejoin:miter;stroke-miterlimit:10;"/><text fill="#000000" font-family="'Inter, Helvetica, sans-serif'" font-size="12" lengthAdjust="spacing" textLength="69.1857" x="349.968" y="820.5676">sous le seuil</text><text fill="#000000" font-family="'Inter, Helvetica, sans-serif'" font-size="12" lengthAdjust="spacing" textLength="127.1218" x="321" y="835.0899">(gateReason explique)</text></g><!--link VEC to EMBED_Q--><g class="link" data-entity-1="ent0007" data-entity-2="ent0008" data-link-type="dependency" data-source-line="39" id="lnk27"><path d="M135,888.7229 C135,890.3729 135,919.7729 135,944.2729" fill="none" id="VEC-to-EMBED_Q" style="stroke:#1A1D24;stroke-width:1;"/><polygon fill="#1A1D24" points="135,949.2729,139,940.2729,135,944.2729,131,940.2729,135,949.2729" style="stroke:#1A1D24;stroke-width:1;stroke-linejoin:miter;stroke-miterlimit:10;"/></g><!--link EMBED_Q to PROJECT--><g class="link" data-entity-1="ent0008" data-entity-2="ent0009" data-link-type="dependency" data-source-line="40" id="lnk28"><path d="M136.33,999.8529 C137.33,1017.9129 138.4062,1037.5004 139.3962,1055.5504" fill="none" id="EMBED_Q-to-PROJECT" style="stroke:#1A1D24;stroke-width:1;"/><polygon fill="#1A1D24" points="139.67,1060.5429,143.1711,1051.3373,139.3962,1055.5504,135.1831,1051.7755,139.67,1060.5429" style="stroke:#1A1D24;stroke-width:1;stroke-linejoin:miter;stroke-miterlimit:10;"/></g><!--link PROJECT to BLEND--><g class="link" data-entity-1="ent0009" data-entity-2="ent0010" data-link-type="dependency" data-source-line="41" id="lnk29"><path d="M142.34,1110.6829 C143.82,1137.1729 145.9014,1174.5507 147.3814,1201.0707" fill="none" id="PROJECT-to-BLEND" style="stroke:#1A1D24;stroke-width:1;"/><polygon fill="#1A1D24" points="147.66,1206.0629,151.1523,1196.854,147.3814,1201.0707,143.1647,1197.2997,147.66,1206.0629" style="stroke:#1A1D24;stroke-width:1;stroke-linejoin:miter;stroke-miterlimit:10;"/></g><!--link BLEND to SCORE--><g class="link" data-entity-1="ent0010" data-entity-2="ent0014" data-link-type="dependency" data-source-line="42" id="lnk30"><path d="M163.13,1256.4329 C175.94,1278.4529 192.4048,1306.7216 206.3448,1330.6716" fill="none" id="BLEND-to-SCORE" style="stroke:#1A1D24;stroke-width:1;"/><polygon fill="#1A1D24" points="208.86,1334.9929,207.7897,1325.2024,206.3448,1330.6716,200.8756,1329.2267,208.86,1334.9929" style="stroke:#1A1D24;stroke-width:1;stroke-linejoin:miter;stroke-miterlimit:10;"/></g><!--link R5 to CLASSIFY--><g class="link" data-entity-1="ent0011" data-entity-2="ent0012" data-link-type="dependency" data-source-line="44" id="lnk31"><path d="M413,888.7229 C413,890.3729 413,919.7729 413,944.2729" fill="none" id="R5-to-CLASSIFY" style="stroke:#1A1D24;stroke-width:1;"/><polygon fill="#1A1D24" points="413,949.2729,417,940.2729,413,944.2729,409,940.2729,413,949.2729" style="stroke:#1A1D24;stroke-width:1;stroke-linejoin:miter;stroke-miterlimit:10;"/></g><!--link CLASSIFY to MAP_BRANCH--><g class="link" data-entity-1="ent0012" data-entity-2="ent0013" data-link-type="dependency" data-source-line="45" id="lnk32"><path d="M412.78,999.8529 C412.61,1017.9129 412.4371,1037.4931 412.2671,1055.5431" fill="none" id="CLASSIFY-to-MAP_BRANCH" style="stroke:#1A1D24;stroke-width:1;"/><polygon fill="#1A1D24" points="412.22,1060.5429,416.3046,1051.581,412.2671,1055.5431,408.3049,1051.5056,412.22,1060.5429" style="stroke:#1A1D24;stroke-width:1;stroke-linejoin:miter;stroke-miterlimit:10;"/></g><!--link MAP_BRANCH to SCORE--><g class="link" data-entity-1="ent0013" data-entity-2="ent0014" data-link-type="dependency" data-source-line="46" id="lnk33"><path d="M395.15,1110.6629 C380.64,1131.4529 359.21,1162.3829 341,1189.6629 C307.28,1240.1829 271.8815,1295.4228 249.3815,1330.8328" fill="none" id="MAP_BRANCH-to-SCORE" style="stroke:#1A1D24;stroke-width:1;"/><polygon fill="#1A1D24" points="246.7,1335.0529,254.9028,1329.6019,249.3815,1330.8328,248.1506,1325.3114,246.7,1335.0529" style="stroke:#1A1D24;stroke-width:1;stroke-linejoin:miter;stroke-miterlimit:10;"/></g><!--link SCORE to RANK--><g class="link" data-entity-1="ent0014" data-entity-2="ent0015" data-link-type="dependency" data-source-line="48" id="lnk34"><path d="M227,1399.2529 C227,1418.3129 227,1437.3529 227,1454.9829" fill="none" id="SCORE-to-RANK" style="stroke:#1A1D24;stroke-width:1;"/><polygon fill="#1A1D24" points="227,1459.9829,231,1450.9829,227,1454.9829,223,1450.9829,227,1459.9829" style="stroke:#1A1D24;stroke-width:1;stroke-linejoin:miter;stroke-miterlimit:10;"/></g><!--link RANK to OUT--><g class="link" data-entity-1="ent0015" data-entity-2="ent0016" data-link-type="dependency" data-source-line="49" id="lnk35"><path d="M227,1510.3529 C227,1528.4129 227,1547.9929 227,1566.0429" fill="none" id="RANK-to-OUT" style="stroke:#1A1D24;stroke-width:1;"/><polygon fill="#1A1D24" points="227,1571.0429,231,1562.0429,227,1566.0429,223,1562.0429,227,1571.0429" style="stroke:#1A1D24;stroke-width:1;stroke-linejoin:miter;stroke-miterlimit:10;"/></g><g class="legend" data-source-line="3"><rect fill="none" height="98.7144" rx="4" ry="4" style="stroke:#000000;stroke-width:1;" width="466.8814" x="108.7726" y="1641.1629"/><text fill="#000000" font-family="'Inter, Helvetica, sans-serif'" font-size="14" lengthAdjust="spacing" textLength="55.8002" x="117.71" y="1661.7251">symbole</text><text fill="#000000" font-family="'Inter, Helvetica, sans-serif'" font-size="14" lengthAdjust="spacing" textLength="79.7231" x="181.3851" y="1661.7251">signification</text><rect fill="#FFFFFF" height="16.9429" style="stroke:none;stroke-width:1;" width="63.675" x="113.7726" y="1665.1058"/><text fill="#000000" font-family="'Inter, Helvetica, sans-serif'" font-size="14" font-weight="700" lengthAdjust="spacing" textLength="31.8177" x="113.7726" y="1678.668">rung</text><text fill="#000000" font-family="'Inter, Helvetica, sans-serif'" font-size="14" lengthAdjust="spacing" textLength="3.9374" x="145.5902" y="1678.668">&#160;</text><text fill="#000000" font-family="'Inter, Helvetica, sans-serif'" font-size="14" lengthAdjust="spacing" textLength="333.5284" x="181.3851" y="1678.668">mont&#233;e r&#233;elle de l'escalier (r&#233;ussites enregistr&#233;es)</text><rect fill="#FFFDF6" height="16.9429" style="stroke:none;stroke-width:1;" width="63.675" x="113.7726" y="1682.0487"/><text fill="#000000" font-family="'Inter, Helvetica, sans-serif'" font-size="14" font-weight="700" lengthAdjust="spacing" textLength="32.812" x="113.7726" y="1695.6109">prior</text><text fill="#000000" font-family="'Inter, Helvetica, sans-serif'" font-size="14" lengthAdjust="spacing" textLength="3.9374" x="146.5845" y="1695.6109">&#160;</text><text fill="#000000" font-family="'Inter, Helvetica, sans-serif'" font-size="14" lengthAdjust="spacing" textLength="366.7778" x="181.3851" y="1695.6109">prior QCM/branche faible confiance (discount Dyy/D12)</text><rect fill="#E6DFD2" height="16.9429" style="stroke:none;stroke-width:1;" width="63.675" x="113.7726" y="1698.9915"/><text fill="#000000" font-family="'Inter, Helvetica, sans-serif'" font-size="14" font-weight="700" lengthAdjust="spacing" textLength="34.6415" x="113.7726" y="1712.5538">none</text><text fill="#000000" font-family="'Inter, Helvetica, sans-serif'" font-size="14" lengthAdjust="spacing" textLength="3.9374" x="148.414" y="1712.5538">&#160;</text><text fill="#000000" font-family="'Inter, Helvetica, sans-serif'" font-size="14" lengthAdjust="spacing" textLength="309.9038" x="181.3851" y="1712.5538">jamais mesur&#233; (D8.B : laisser vide, jamais z&#233;ro)</text><text fill="#000000" font-family="'Inter, Helvetica, sans-serif'" font-size="14" lengthAdjust="spacing" textLength="51.8826" x="117.71" y="1729.4967">scheme</text><text fill="#000000" font-family="'Inter, Helvetica, sans-serif'" font-size="14" lengthAdjust="spacing" textLength="385.3315" x="181.3851" y="1729.4967">`beta-laplace-v1` (actuel) ou `breaking-rung-v0` (legacy)</text><line style="stroke:#000000;stroke-width:1;" x1="113.7726" x2="570.654" y1="1648.1629" y2="1648.1629"/><line style="stroke:#000000;stroke-width:1;" x1="113.7726" x2="570.654" y1="1665.1058" y2="1665.1058"/><line style="stroke:#000000;stroke-width:1;" x1="113.7726" x2="570.654" y1="1682.0487" y2="1682.0487"/><line style="stroke:#000000;stroke-width:1;" x1="113.7726" x2="570.654" y1="1698.9915" y2="1698.9915"/><line style="stroke:#000000;stroke-width:1;" x1="113.7726" x2="570.654" y1="1715.9344" y2="1715.9344"/><line style="stroke:#000000;stroke-width:1;" x1="113.7726" x2="570.654" y1="1732.8773" y2="1732.8773"/><line style="stroke:#000000;stroke-width:1;" x1="113.7726" x2="113.7726" y1="1648.1629" y2="1732.8773"/><line style="stroke:#000000;stroke-width:1;" x1="177.4476" x2="177.4476" y1="1648.1629" y2="1732.8773"/><line style="stroke:#000000;stroke-width:1;" x1="570.654" x2="570.654" y1="1648.1629" y2="1732.8773"/></g><?plantuml-src TLFTJi8m5BxlKrIkK04L92OcccoZ_EZOe2iQewOXCfLaG2B3Q8mFXJVSym0ya-rfbosikrZFTyxthJqzv_HWEd-9LfCGrsedNEFboJB-ZiBQT3MBq85H48LluNoY52YUnb680qOvPQsUnLcFkGIXnwDdNArUO-8n-e2MyJWESIbLGRY4nyiYWTFk02siWRIyLg1eYVA20VLj0W90US6GaxvDMY3Hs2JgM8neZOGehxaZ3WY4nJy8u_nDvTvygEwgi4acyhmX3ajobZYLsP6eDzwjjvjFFWbZV8ntVzlDRFnLFgtW-ENmQLxUhQzEQnSLGGZRE8HzR9TuBVHho9esGK2RvfmTrmg2NbirA75Cmhuru3QrFASBqjGrdXeuFbNb16H8o_9kLM82v6b_fEeZB48mDp1YSaJ4fp3C0wpWg_R32dxIQwI13ihcuilC55FYSiVtshtEY0fvLYsAjg-qx42aW_G-KYJ7OLyblWVktsPbXhriulhtd7KfGd8JU4DwRBHDBWOpeYt4LBzX1LzL6Ob3e3H97nC0qKpBKfZz6unALZP5Bk114-OBqQ6FwTjxZ1Ul-doSkP3dCy8XpDspGgPUo3GAcVD2fedaOv6PxUUd7t7knw4C6nFKJBsGQHGovsaQ_m00?></g></svg>