<svg xmlns="http://www.w3.org/2000/svg" xmlns:xlink="http://www.w3.org/1999/xlink" contentStyleType="text/css" data-diagram-type="DESCRIPTION" height="984px" preserveAspectRatio="none" style="width:1156px;height:984px;background:#F4EEE3;" version="1.1" viewBox="0 0 1156 984" width="1156px" zoomAndPan="magnify"><?plantuml 1.2026.4?><defs/><g><rect fill="#F4EEE3" height="984" style="stroke:none;stroke-width:1;" width="1156" x="0" y="0"/><g class="title" data-source-line="3"><text fill="#000000" font-family="'Inter, Helvetica, sans-serif'" font-size="14" font-weight="700" lengthAdjust="spacing" textLength="459.447" x="345.2485" y="23.5623">Sandbox &#8212; isolation tests-code slice 2d (D&#945;&#945;, opt-in, fail-closed)</text></g><!--cluster src/main/modelhub/routing/sandbox/--><g class="cluster" data-qualified-name="src.main.modelhub.routing.sandbox." data-source-line="5" id="ent0001"><path d="M10,165.9429 L231.7674,165.9429 A6,6 0 0 1 235.7674,169.9429 L242.7674,186.4652 L613,186.4652 A4,4 0 0 1 617,190.4652 L617,801.9429 A4,4 0 0 1 613,805.9429 L10,805.9429 A4,4 0 0 1 6,801.9429 L6,169.9429 A4,4 0 0 1 10,165.9429" fill="#F4EEE3" style="stroke:#C68A3A;stroke-width:1.5;"/><line style="stroke:#C68A3A;stroke-width:1.5;" x1="6" x2="242.7674" y1="186.4652" y2="186.4652"/><text fill="#0E1014" font-family="'Inter, Helvetica, sans-serif'" font-size="12" font-weight="700" lengthAdjust="spacing" textLength="223.7674" x="10" y="179.5676">src/main/modelhub/routing/sandbox/</text></g><!--entity IDX--><g class="entity" data-qualified-name="src.main.modelhub.routing.sandbox..IDX" data-source-line="6" id="ent0002"><rect fill="#FFFFFF" height="88.0894" rx="4" ry="4" style="stroke:#0E1014;stroke-width:0.5;" width="181.6612" x="377" y="206.4429"/><rect fill="#FFFFFF" height="10" style="stroke:#0E1014;stroke-width:0.5;" width="15" x="538.6612" y="211.4429"/><rect fill="#FFFFFF" height="2" style="stroke:#0E1014;stroke-width:0.5;" width="4" x="536.6612" y="213.4429"/><rect fill="#FFFFFF" height="2" style="stroke:#0E1014;stroke-width:0.5;" width="4" x="536.6612" y="217.4429"/><text fill="#0E1014" font-family="'Inter, Helvetica, sans-serif'" font-size="12" lengthAdjust="spacing" textLength="44.7261" x="392" y="238.0676">index.ts</text><text fill="#0E1014" font-family="'Inter, Helvetica, sans-serif'" font-size="12" lengthAdjust="spacing" textLength="141.6612" x="392" y="252.5899">&#8226; getSandbox({enabled})</text><text fill="#0E1014" font-family="'Inter, Helvetica, sans-serif'" font-size="12" lengthAdjust="spacing" textLength="80.8445" x="392" y="267.1123">&#8226; dispatch par</text><text fill="#0E1014" font-family="'Inter, Helvetica, sans-serif'" font-size="12" lengthAdjust="spacing" textLength="96.151" x="398.7498" y="281.6347">process.platform</text></g><!--entity TYPES--><g class="entity" data-qualified-name="src.main.modelhub.routing.sandbox..TYPES" data-source-line="7" id="ent0003"><rect fill="#FFFFFF" height="102.6118" rx="4" ry="4" style="stroke:#0E1014;stroke-width:0.5;" width="184.4906" x="69" y="198.9429"/><rect fill="#FFFFFF" height="10" style="stroke:#0E1014;stroke-width:0.5;" width="15" x="233.4906" y="203.9429"/><rect fill="#FFFFFF" height="2" style="stroke:#0E1014;stroke-width:0.5;" width="4" x="231.4906" y="205.9429"/><rect fill="#FFFFFF" height="2" style="stroke:#0E1014;stroke-width:0.5;" width="4" x="231.4906" y="209.9429"/><text fill="#0E1014" font-family="'Inter, Helvetica, sans-serif'" font-size="12" lengthAdjust="spacing" textLength="45.5614" x="84" y="230.5676">types.ts</text><text fill="#0E1014" font-family="'Inter, Helvetica, sans-serif'" font-size="12" lengthAdjust="spacing" textLength="144.4906" x="84" y="245.0899">&#8226; SandboxProvider (ABC)</text><text fill="#0E1014" font-family="'Inter, Helvetica, sans-serif'" font-size="12" lengthAdjust="spacing" textLength="95.2135" x="84" y="259.6123">&#8226; SandboxResult</text><text fill="#0E1014" font-family="'Inter, Helvetica, sans-serif'" font-size="12" lengthAdjust="spacing" textLength="104.2133" x="84" y="274.1347">&#8226; SandboxOptions</text><text fill="#0E1014" font-family="'Inter, Helvetica, sans-serif'" font-size="12" lengthAdjust="spacing" textLength="125.9798" x="84" y="288.657">&#8226; SandboxUnavailable</text></g><!--entity UNSAFE--><g class="entity" data-qualified-name="src.main.modelhub.routing.sandbox..UNSAFE" data-source-line="9" id="ent0004"><rect fill="#FFFFFF" height="88.0894" rx="4" ry="4" style="stroke:#0E1014;stroke-width:0.5;" width="182.6839" x="215.5" y="435.9429"/><rect fill="#FFFFFF" height="10" style="stroke:#0E1014;stroke-width:0.5;" width="15" x="378.1839" y="440.9429"/><rect fill="#FFFFFF" height="2" style="stroke:#0E1014;stroke-width:0.5;" width="4" x="376.1839" y="442.9429"/><rect fill="#FFFFFF" height="2" style="stroke:#0E1014;stroke-width:0.5;" width="4" x="376.1839" y="446.9429"/><text fill="#0E1014" font-family="'Inter, Helvetica, sans-serif'" font-size="12" lengthAdjust="spacing" textLength="52.2941" x="230.5" y="467.5676">unsafe.ts</text><text fill="#0E1014" font-family="'Inter, Helvetica, sans-serif'" font-size="12" lengthAdjust="spacing" textLength="100.3781" x="230.5" y="482.0899">&#8226; UnsafeSandbox</text><text fill="#0E1014" font-family="'Inter, Helvetica, sans-serif'" font-size="12" lengthAdjust="spacing" textLength="122.281" x="230.5" y="496.6123">&#8226; throw &#224; chaque fois</text><text fill="#0E1014" font-family="'Inter, Helvetica, sans-serif'" font-size="12" lengthAdjust="spacing" textLength="142.6839" x="230.5" y="511.1347">&#8226; d&#233;faut quand opt-in off</text></g><!--entity POSIX--><g class="entity" data-qualified-name="src.main.modelhub.routing.sandbox..POSIX" data-source-line="10" id="ent0005"><rect fill="#FFFFFF" height="146.1789" rx="4" ry="4" style="stroke:#0E1014;stroke-width:0.5;" width="166.5933" x="433.5" y="406.9429"/><rect fill="#FFFFFF" height="10" style="stroke:#0E1014;stroke-width:0.5;" width="15" x="580.0933" y="411.9429"/><rect fill="#FFFFFF" height="2" style="stroke:#0E1014;stroke-width:0.5;" width="4" x="578.0933" y="413.9429"/><rect fill="#FFFFFF" height="2" style="stroke:#0E1014;stroke-width:0.5;" width="4" x="578.0933" y="417.9429"/><text fill="#0E1014" font-family="'Inter, Helvetica, sans-serif'" font-size="12" lengthAdjust="spacing" textLength="44.0102" x="448.5" y="438.5676">posix.ts</text><text fill="#0E1014" font-family="'Inter, Helvetica, sans-serif'" font-size="12" lengthAdjust="spacing" textLength="90.475" x="448.5" y="453.0899">&#8226; PosixSandbox</text><text fill="#0E1014" font-family="'Inter, Helvetica, sans-serif'" font-size="12" lengthAdjust="spacing" textLength="119.1617" x="448.5" y="467.6123">&#8226; rlimits NPROC=cur,</text><text fill="#0E1014" font-family="'Inter, Helvetica, sans-serif'" font-size="12" lengthAdjust="spacing" textLength="108.6961" x="455.2498" y="482.1347">AS/DATA=512 MiB,</text><text fill="#0E1014" font-family="'Inter, Helvetica, sans-serif'" font-size="12" lengthAdjust="spacing" textLength="107.1791" x="455.2498" y="496.657">CPU=10s, FSIZE=0</text><text fill="#0E1014" font-family="'Inter, Helvetica, sans-serif'" font-size="12" lengthAdjust="spacing" textLength="86.2478" x="448.5" y="511.1794">&#8226; pgrp d&#233;tach&#233;</text><text fill="#0E1014" font-family="'Inter, Helvetica, sans-serif'" font-size="12" lengthAdjust="spacing" textLength="126.5933" x="448.5" y="525.7017">&#8226; kill -pgid sur timeout</text><text fill="#0E1014" font-family="'Inter, Helvetica, sans-serif'" font-size="12" lengthAdjust="spacing" textLength="107.0086" x="448.5" y="540.2241">&#8226; `python -I -S -B`</text></g><!--entity WIN--><g class="entity" data-qualified-name="src.main.modelhub.routing.sandbox..WIN" data-source-line="11" id="ent0006"><rect fill="#FFFFFF" height="73.5671" rx="4" ry="4" style="stroke:#0E1014;stroke-width:0.5;" width="157.9174" x="22" y="442.9429"/><rect fill="#FFFFFF" height="10" style="stroke:#0E1014;stroke-width:0.5;" width="15" x="159.9174" y="447.9429"/><rect fill="#FFFFFF" height="2" style="stroke:#0E1014;stroke-width:0.5;" width="4" x="157.9174" y="449.9429"/><rect fill="#FFFFFF" height="2" style="stroke:#0E1014;stroke-width:0.5;" width="4" x="157.9174" y="453.9429"/><text fill="#0E1014" font-family="'Inter, Helvetica, sans-serif'" font-size="12" lengthAdjust="spacing" textLength="64.1915" x="37" y="474.5676">windows.ts</text><text fill="#0E1014" font-family="'Inter, Helvetica, sans-serif'" font-size="12" lengthAdjust="spacing" textLength="111.9858" x="37" y="489.0899">&#8226; WindowsSandbox</text><text fill="#0E1014" font-family="'Inter, Helvetica, sans-serif'" font-size="12" lengthAdjust="spacing" textLength="117.9174" x="37" y="503.6123">&#8226; dispatche vers PS1</text></g><!--entity PS1--><g class="entity" data-qualified-name="src.main.modelhub.routing.sandbox..PS1" data-source-line="12" id="ent0007"><rect fill="#FFFFFF" height="146.1789" rx="4" ry="4" style="stroke:#0E1014;stroke-width:0.5;" width="172.0137" x="22" y="643.9429"/><rect fill="#FFFFFF" height="10" style="stroke:#0E1014;stroke-width:0.5;" width="15" x="174.0137" y="648.9429"/><rect fill="#FFFFFF" height="2" style="stroke:#0E1014;stroke-width:0.5;" width="4" x="172.0137" y="650.9429"/><rect fill="#FFFFFF" height="2" style="stroke:#0E1014;stroke-width:0.5;" width="4" x="172.0137" y="654.9429"/><text fill="#0E1014" font-family="'Inter, Helvetica, sans-serif'" font-size="12" lengthAdjust="spacing" textLength="65.0608" x="37" y="675.5676">win-job.ps1</text><text fill="#0E1014" font-family="'Inter, Helvetica, sans-serif'" font-size="12" lengthAdjust="spacing" textLength="120.1674" x="37" y="690.0899">&#8226; Add-Type P/Invoke</text><text fill="#0E1014" font-family="'Inter, Helvetica, sans-serif'" font-size="12" lengthAdjust="spacing" textLength="107.0257" x="37" y="704.6123">&#8226; CreateJobObject</text><text fill="#0E1014" font-family="'Inter, Helvetica, sans-serif'" font-size="12" lengthAdjust="spacing" textLength="132.0137" x="37" y="719.1347">&#8226; ActiveProcessLimit=1</text><text fill="#0E1014" font-family="'Inter, Helvetica, sans-serif'" font-size="12" lengthAdjust="spacing" textLength="129.2353" x="37" y="733.657">&#8226; ProcessMemoryLimit</text><text fill="#0E1014" font-family="'Inter, Helvetica, sans-serif'" font-size="12" lengthAdjust="spacing" textLength="52.7373" x="43.7498" y="748.1794">=512 MiB</text><text fill="#0E1014" font-family="'Inter, Helvetica, sans-serif'" font-size="12" lengthAdjust="spacing" textLength="131.9456" x="37" y="762.7017">&#8226; KILL_ON_JOB_CLOSE</text><text fill="#0E1014" font-family="'Inter, Helvetica, sans-serif'" font-size="12" lengthAdjust="spacing" textLength="123.9343" x="37" y="777.2241">&#8226; streams marker-line</text></g><!--entity RUNNER--><g class="entity" data-qualified-name="RUNNER" data-source-line="15" id="ent0008"><rect fill="#FFFFFF" height="59.0447" rx="4" ry="4" style="stroke:#0E1014;stroke-width:0.5;" width="217.7114" x="359" y="44.9429"/><rect fill="#FFFFFF" height="10" style="stroke:#0E1014;stroke-width:0.5;" width="15" x="556.7114" y="49.9429"/><rect fill="#FFFFFF" height="2" style="stroke:#0E1014;stroke-width:0.5;" width="4" x="554.7114" y="51.9429"/><rect fill="#FFFFFF" height="2" style="stroke:#0E1014;stroke-width:0.5;" width="4" x="554.7114" y="55.9429"/><text fill="#0E1014" font-family="'Inter, Helvetica, sans-serif'" font-size="12" lengthAdjust="spacing" textLength="124.7184" x="374" y="76.5676">characterizeRunner.ts</text><text fill="#0E1014" font-family="'Inter, Helvetica, sans-serif'" font-size="12" lengthAdjust="spacing" textLength="177.7114" x="374" y="91.0899">(construit le seam runSandbox)</text></g><!--entity STAIR--><g class="entity" data-qualified-name="STAIR" data-source-line="16" id="ent0009"><rect fill="#FFFFFF" height="59.0447" rx="4" ry="4" style="stroke:#0E1014;stroke-width:0.5;" width="231.8417" x="317" y="895.4429"/><rect fill="#FFFFFF" height="10" style="stroke:#0E1014;stroke-width:0.5;" width="15" x="528.8417" y="900.4429"/><rect fill="#FFFFFF" height="2" style="stroke:#0E1014;stroke-width:0.5;" width="4" x="526.8417" y="902.4429"/><rect fill="#FFFFFF" height="2" style="stroke:#0E1014;stroke-width:0.5;" width="4" x="526.8417" y="906.4429"/><text fill="#0E1014" font-family="'Inter, Helvetica, sans-serif'" font-size="12" lengthAdjust="spacing" textLength="136.7693" x="332" y="927.0676">staircase.evaluateItem()</text><text fill="#0E1014" font-family="'Inter, Helvetica, sans-serif'" font-size="12" lengthAdjust="spacing" textLength="191.8417" x="332" y="941.5899">(catch le throw &#8658; UNMEASURED)</text></g><!--entity python3\n(enfant)--><g class="entity" data-qualified-name="python3.n.enfant." data-source-line="24" id="ent0015"><ellipse cx="664" cy="716.9429" fill="#F1F1F1" rx="8" ry="8" style="stroke:#181818;stroke-width:0.5;"/><text fill="#000000" font-family="'Inter, Helvetica, sans-serif'" font-size="12" lengthAdjust="spacing" textLength="47.2659" x="640.3671" y="745.5676">python3</text><text fill="#000000" font-family="'Inter, Helvetica, sans-serif'" font-size="12" lengthAdjust="spacing" textLength="45.1864" x="640.3671" y="760.0899">(enfant)</text></g><!--entity python.exe\n(enfant)--><g class="entity" data-qualified-name="python.exe.n.enfant." data-source-line="25" id="ent0017"><ellipse cx="96" cy="924.9429" fill="#F1F1F1" rx="8" ry="8" style="stroke:#181818;stroke-width:0.5;"/><text fill="#000000" font-family="'Inter, Helvetica, sans-serif'" font-size="12" lengthAdjust="spacing" textLength="63.3905" x="64.3048" y="953.5676">python.exe</text><text fill="#000000" font-family="'Inter, Helvetica, sans-serif'" font-size="12" lengthAdjust="spacing" textLength="45.1864" x="64.3048" y="968.0899">(enfant)</text></g><g class="entity" data-qualified-name="GMN22" data-source-line="32" id="ent0023"><path d="M932,435.4429 L932,524.577 A4,4 0 0 0 936,528.577 L1137.9441,528.577 A4,4 0 0 0 1141.9441,524.577 L1141.9441,441.4429 L1131.9441,431.4429 L936,431.4429 A4,4 0 0 0 932,435.4429" fill="#FFFDF6" style="stroke:#C68A3A;stroke-width:0.5;"/><path d="M1131.9441,431.4429 L1131.9441,439.4429 A2,2 0 0 0 1133.9441,441.4429 L1141.9441,441.4429 L1131.9441,431.4429" fill="#FFFDF6" style="stroke:#C68A3A;stroke-width:1;"/><text fill="#0E1014" font-family="'Inter, Helvetica, sans-serif'" font-size="12" lengthAdjust="spacing" textLength="122.8093" x="938" y="448.0676">Fail-closed (D&#945;&#945; &#167;3) :</text><text fill="#0E1014" font-family="'Inter, Helvetica, sans-serif'" font-size="12" lengthAdjust="spacing" textLength="163.6833" x="938" y="462.5899">TOUTE impossibilit&#233; d'&#233;tablir</text><text fill="#0E1014" font-family="'Inter, Helvetica, sans-serif'" font-size="12" lengthAdjust="spacing" textLength="150.8654" x="938" y="477.1123">la fronti&#232;re kernel &#8658; throw</text><text fill="#0E1014" font-family="'Inter, Helvetica, sans-serif'" font-size="12" lengthAdjust="spacing" textLength="188.9441" x="938" y="491.6347">SandboxUnavailable &#8658; l'appelant</text><text fill="#0E1014" font-family="'Inter, Helvetica, sans-serif'" font-size="12" lengthAdjust="spacing" textLength="167.0412" x="938" y="506.157">marque l'item UNMEASURED.</text><text fill="#0E1014" font-family="'Inter, Helvetica, sans-serif'" font-size="12" font-weight="700" lengthAdjust="spacing" textLength="41.8456" x="938" y="520.6794">Jamais</text><text fill="#0E1014" font-family="'Inter, Helvetica, sans-serif'" font-size="12" lengthAdjust="spacing" textLength="75.2197" x="983.2205" y="520.6794">un faux pass.</text></g><g class="entity" data-qualified-name="GMN25" data-source-line="41" id="ent0026"><path d="M635.5,449.9429 L635.5,475.9429 L600.65,479.9429 L635.5,483.9429 L635.5,510.0323 A4,4 0 0 0 639.5,514.0323 L892.92,514.0323 A4,4 0 0 0 896.92,510.0323 L896.92,455.9429 L886.92,445.9429 L639.5,445.9429 A4,4 0 0 0 635.5,449.9429" fill="#FFFDF6" style="stroke:#C68A3A;stroke-width:0.5;"/><path d="M886.92,445.9429 L886.92,453.9429 A2,2 0 0 0 888.92,455.9429 L896.92,455.9429 L886.92,445.9429" fill="#FFFDF6" style="stroke:#C68A3A;stroke-width:0.5;"/><text fill="#0E1014" font-family="'Inter, Helvetica, sans-serif'" font-size="12" lengthAdjust="spacing" textLength="240.42" x="641.5" y="462.5676">Pr&#233;ambule d&#233;fense-en-profondeur bloque</text><text fill="#0E1014" font-family="'Inter, Helvetica, sans-serif'" font-size="12" lengthAdjust="spacing" textLength="184.018" x="641.5" y="477.0899">les imports (socket, subprocess,</text><text fill="#0E1014" font-family="'Inter, Helvetica, sans-serif'" font-size="12" lengthAdjust="spacing" textLength="226.2556" x="641.5" y="491.6123">ctypes, &#8230;) &#8212; trivialement contournable,</text><text fill="#0E1014" font-family="'Inter, Helvetica, sans-serif'" font-size="12" lengthAdjust="spacing" textLength="158.7573" x="641.5" y="506.1347">les rlimits SONT la fronti&#232;re.</text></g><!--link RUNNER to IDX--><g class="link" data-entity-1="ent0008" data-entity-2="ent0002" data-link-type="dependency" data-source-line="18" id="lnk10"><path d="M468,104.1729 C468,131.9729 468,169.4629 468,201.3229" fill="none" id="RUNNER-to-IDX" style="stroke:#1A1D24;stroke-width:1;"/><polygon fill="#1A1D24" points="468,206.3229,472,197.3229,468,201.3229,464,197.3229,468,206.3229" style="stroke:#1A1D24;stroke-width:1;stroke-linejoin:miter;stroke-miterlimit:10;"/><text fill="#000000" font-family="'Inter, Helvetica, sans-serif'" font-size="12" lengthAdjust="spacing" textLength="131.5364" x="469" y="146.5676">getSandbox({enabled})</text></g><!--link IDX to UNSAFE--><g class="link" data-entity-1="ent0002" data-entity-2="ent0004" data-link-type="dependency" data-source-line="19" id="lnk11"><path d="M429.47,294.8429 C419.53,306.6229 409.09,319.5529 400,331.9429 C375.27,365.6729 352.6425,401.6454 334.7325,431.4954" fill="none" id="IDX-to-UNSAFE" style="stroke:#1A1D24;stroke-width:1;"/><polygon fill="#1A1D24" points="332.16,435.7829,340.2204,430.1234,334.7325,431.4954,333.3605,426.0075,332.16,435.7829" style="stroke:#1A1D24;stroke-width:1;stroke-linejoin:miter;stroke-miterlimit:10;"/><text fill="#000000" font-family="'Inter, Helvetica, sans-serif'" font-size="12" lengthAdjust="spacing" textLength="76.0208" x="401" y="344.5676">enabled:false</text><text fill="#000000" font-family="'Inter, Helvetica, sans-serif'" font-size="12" lengthAdjust="spacing" textLength="66.9699" x="405.5254" y="359.0899">(d&#233;faut) OU</text><text fill="#000000" font-family="'Inter, Helvetica, sans-serif'" font-size="12" lengthAdjust="spacing" textLength="64.9075" x="406.5567" y="373.6123">OS inconnu</text></g><!--link IDX to POSIX--><g class="link" data-entity-1="ent0002" data-entity-2="ent0005" data-link-type="dependency" data-source-line="20" id="lnk12"><path d="M477.27,294.5029 C484.07,326.0629 492.4076,364.7649 500.3476,401.6449" fill="none" id="IDX-to-POSIX" style="stroke:#1A1D24;stroke-width:1;"/><polygon fill="#1A1D24" points="501.4,406.5329,503.4162,396.8926,500.3476,401.6449,495.5954,398.5764,501.4,406.5329" style="stroke:#1A1D24;stroke-width:1;stroke-linejoin:miter;stroke-miterlimit:10;"/><text fill="#000000" font-family="'Inter, Helvetica, sans-serif'" font-size="12" lengthAdjust="spacing" textLength="71.6061" x="498.2101" y="351.5676">enabled:true</text><text fill="#000000" font-family="'Inter, Helvetica, sans-serif'" font-size="12" lengthAdjust="spacing" textLength="80.0264" x="494" y="366.0899">+ linux/darwin</text></g><!--link IDX to WIN--><g class="link" data-entity-1="ent0002" data-entity-2="ent0006" data-link-type="dependency" data-source-line="21" id="lnk13"><path d="M376.62,287.4629 C347.84,300.1429 316.42,315.3929 289,331.9429 C234.55,364.8129 181.5887,407.8385 144.8787,439.6485" fill="none" id="IDX-to-WIN" style="stroke:#1A1D24;stroke-width:1;"/><polygon fill="#1A1D24" points="141.1,442.9229,150.5212,440.052,144.8787,439.6485,145.2822,434.0061,141.1,442.9229" style="stroke:#1A1D24;stroke-width:1;stroke-linejoin:miter;stroke-miterlimit:10;"/><text fill="#000000" font-family="'Inter, Helvetica, sans-serif'" font-size="12" lengthAdjust="spacing" textLength="71.6061" x="290" y="351.5676">enabled:true</text><text fill="#000000" font-family="'Inter, Helvetica, sans-serif'" font-size="12" lengthAdjust="spacing" textLength="45.8" x="302.9031" y="366.0899">+ win32</text></g><!--link WIN to PS1--><g class="link" data-entity-1="ent0006" data-entity-2="ent0007" data-link-type="dependency" data-source-line="23" id="lnk14"><path d="M102.08,517.1429 C103.08,550.7529 104.451,596.7551 105.701,638.6851" fill="none" id="WIN-to-PS1" style="stroke:#1A1D24;stroke-width:1;"/><polygon fill="#1A1D24" points="105.85,643.6829,109.58,634.5677,105.701,638.6851,101.5836,634.8061,105.85,643.6829" style="stroke:#1A1D24;stroke-width:1;stroke-linejoin:miter;stroke-miterlimit:10;"/><text fill="#000000" font-family="'Inter, Helvetica, sans-serif'" font-size="12" lengthAdjust="spacing" textLength="125.9798" x="106" y="595.5676">spawn powershell.exe</text><text fill="#000000" font-family="'Inter, Helvetica, sans-serif'" font-size="12" lengthAdjust="spacing" textLength="93.6794" x="122.1502" y="610.0899">-File win-job.ps1</text></g><!--link POSIX to python3\n(enfant)--><g class="link" data-entity-1="ent0005" data-entity-2="ent0015" data-link-type="dependency" data-source-line="24" id="lnk16"><path d="M562.1,553.0429 C597.72,609.9829 641.1995,679.4832 656.3095,703.6532" fill="none" id="POSIX-to-python3\n(enfant)" style="stroke:#1A1D24;stroke-width:1;stroke-dasharray:7,7;"/><polygon fill="#1A1D24" points="658.96,707.8929,657.5809,698.1411,656.3095,703.6532,650.7974,702.3818,658.96,707.8929" style="stroke:#1A1D24;stroke-width:1;stroke-linejoin:miter;stroke-miterlimit:10;"/><text fill="#000000" font-family="'Inter, Helvetica, sans-serif'" font-size="12" lengthAdjust="spacing" textLength="37.1241" x="621.383" y="595.5676">spawn</text><text fill="#000000" font-family="'Inter, Helvetica, sans-serif'" font-size="12" lengthAdjust="spacing" textLength="79.89" x="600" y="610.0899">detached:true</text></g><!--link PS1 to python.exe\n(enfant)--><g class="link" data-entity-1="ent0007" data-entity-2="ent0017" data-link-type="dependency" data-source-line="25" id="lnk18"><path d="M96.25,789.9729 C94.9,800.6629 93.74,811.5729 93,821.9429 C92.01,835.6829 92.71,839.1729 93,852.9429 C93.48,875.6429 94.5487,897.4003 95.2687,910.6503" fill="none" id="PS1-to-python.exe\n(enfant)" style="stroke:#1A1D24;stroke-width:1;stroke-dasharray:7,7;"/><polygon fill="#1A1D24" points="95.54,915.6429,99.0458,906.4391,95.2687,910.6503,91.0576,906.8732,95.54,915.6429" style="stroke:#1A1D24;stroke-width:1;stroke-linejoin:miter;stroke-miterlimit:10;"/><text fill="#000000" font-family="'Inter, Helvetica, sans-serif'" font-size="12" lengthAdjust="spacing" textLength="87.6796" x="128.5503" y="834.5676">Process.Start +</text><text fill="#000000" font-family="'Inter, Helvetica, sans-serif'" font-size="12" lengthAdjust="spacing" textLength="156.7801" x="94" y="849.0899">AssignProcessToJobObject</text></g><!--link UNSAFE to STAIR--><g class="link" data-entity-1="ent0004" data-entity-2="ent0009" data-link-type="dependency" data-source-line="27" id="lnk19"><path d="M326.13,524.2129 C339.96,556.6929 358.36,602.5029 371,643.9429 C398.52,734.1929 418.41,839.3274 427.33,890.4174" fill="none" id="UNSAFE-to-STAIR" style="stroke:#1A1D24;stroke-width:1;stroke-dasharray:7,7;"/><polygon fill="#1A1D24" points="428.19,895.3429,430.5825,885.789,427.33,890.4174,422.7017,887.165,428.19,895.3429" style="stroke:#1A1D24;stroke-width:1;stroke-linejoin:miter;stroke-miterlimit:10;"/><text fill="#000000" font-family="'Inter, Helvetica, sans-serif'" font-size="12" lengthAdjust="spacing" textLength="32.8287" x="454.5132" y="714.0676">throw</text><text fill="#000000" font-family="'Inter, Helvetica, sans-serif'" font-size="12" lengthAdjust="spacing" textLength="115.855" x="413" y="728.5899">SandboxUnavailable</text></g><!--link POSIX to STAIR--><g class="link" data-entity-1="ent0005" data-entity-2="ent0009" data-link-type="dependency" data-source-line="28" id="lnk20"><path d="M600.71,542.6329 C606.48,546.2529 612.27,549.7229 618,552.9429 C647.51,569.5329 664.26,558.8229 688,582.9429 C760.44,656.5429 771.16,728.6129 713,813.9429 C676.23,867.8929 613.4772,894.2382 553.9072,908.2482" fill="none" id="POSIX-to-STAIR" style="stroke:#1A1D24;stroke-width:1;stroke-dasharray:7,7;"/><polygon fill="#1A1D24" points="549.04,909.3929,558.7167,911.2262,553.9072,908.2482,556.8852,903.4387,549.04,909.3929" style="stroke:#1A1D24;stroke-width:1;stroke-linejoin:miter;stroke-miterlimit:10;"/><text fill="#000000" font-family="'Inter, Helvetica, sans-serif'" font-size="12" lengthAdjust="spacing" textLength="84.6456" x="751" y="707.0676">{pass:bool} OU</text><text fill="#000000" font-family="'Inter, Helvetica, sans-serif'" font-size="12" lengthAdjust="spacing" textLength="53.9134" x="766.3661" y="721.5899">throw sur</text><text fill="#000000" font-family="'Inter, Helvetica, sans-serif'" font-size="12" lengthAdjust="spacing" textLength="83.9126" x="751.3665" y="736.1123">UNMEASURED</text></g><!--link WIN to STAIR--><g class="link" data-entity-1="ent0006" data-entity-2="ent0009" data-link-type="dependency" data-source-line="29" id="lnk21"><path d="M149.22,517.0029 C164.75,528.5529 182.06,541.3429 198,552.9429 C216.54,566.4429 227.92,563.4429 240,582.9429 C294.76,671.3329 221.97,725.7229 277,813.9429 C299.19,849.5129 333.1748,874.3446 366.2948,892.8446" fill="none" id="WIN-to-STAIR" style="stroke:#1A1D24;stroke-width:1;stroke-dasharray:7,7;"/><polygon fill="#1A1D24" points="370.66,895.2829,364.7533,887.4018,366.2948,892.8446,360.8521,894.3861,370.66,895.2829" style="stroke:#1A1D24;stroke-width:1;stroke-linejoin:miter;stroke-miterlimit:10;"/><text fill="#000000" font-family="'Inter, Helvetica, sans-serif'" font-size="12" lengthAdjust="spacing" textLength="84.6456" x="278" y="707.0676">{pass:bool} OU</text><text fill="#000000" font-family="'Inter, Helvetica, sans-serif'" font-size="12" lengthAdjust="spacing" textLength="53.9134" x="293.3661" y="721.5899">throw sur</text><text fill="#000000" font-family="'Inter, Helvetica, sans-serif'" font-size="12" lengthAdjust="spacing" textLength="83.9126" x="278.3665" y="736.1123">UNMEASURED</text></g><!--link IDX to GMN22--><g class="link" data-entity-1="ent0002" data-entity-2="ent0023" data-link-type="association" data-source-line="32" id="lnk24"><path d="M559.29,277.5729 C650.89,305.1029 795.07,352.0329 914,406.9429 C929.5,414.1029 945.58,422.6329 960.8,431.2729" fill="none" id="IDX-GMN22" style="stroke:#1A1D24;stroke-width:1;stroke-dasharray:7,7;"/></g><?plantuml-src VPFTQjim68RFTHLQZbfAR9nqE-X1mLbTy0X9Y1oQGi38jfQeKoHZoKrAAUnQTccxaigIsYPRr2D_w7s-lzVI5yfBrbO41a6OkrY6KZqn4j1som1GL342KJRFqMXvayPvbcRZ180Qbx_mci2URCfmYoaFjw8YRDCMOIDQHVawb9XNXTY7FVWC82p5jXQSS0Lx1zNIcsKFOWdrzvXHJpMHWP8h_lVt7uXigLaZ7cb56dWMZxwV7qbp8bkcZewcjQA27rTOSFo8ASC58wPlTZzB4F2EjvYW-3Onf0szv6oAKhkAYRpSNJenbFxwQw78La8HU07WD3HVJ2R9t70sz70eYrEBcGW0IyD-_xfp7Lx1DL7EdRDdmZjhgfTpq6aTO_VMs67lPEoiUSVCrffo1QvKqv8Llu2CydOVLhZPKVuEw-LFe9eO3W3eH5CHHHgIDTvnM8iTQUI6C1QGlORxjrJVIftGVn15KCi8sFv1S7tiv7q-ZaV9kFTMQSKhed2vSMr1r-J_f6IPVEJfIrSIAGEaSAFWnOh7Kj8rTyUP-26AQV50IWM0yweVwF6DspxRx5znGt-66yBHnfXFMAqx4d2X22o4Kc8BnK_tkWxmoJHBkhUNZoEVCF09GvzmwHE--eHlWF0ATiEwaHkwtgXkuhT7z6-QzUFar4uQ-AMXNxhycEGL?></g></svg>