<svg xmlns="http://www.w3.org/2000/svg" xmlns:xlink="http://www.w3.org/1999/xlink" contentStyleType="text/css" data-diagram-type="SEQUENCE" height="1743px" preserveAspectRatio="none" style="width:1439px;height:1743px;background:#F4EEE3;" version="1.1" viewBox="0 0 1439 1743" width="1439px" zoomAndPan="magnify"><?plantuml 1.2026.4?><defs/><g><rect fill="#F4EEE3" height="1743" style="stroke:none;stroke-width:1;" width="1439" x="0" y="0"/><g class="title" data-source-line="3"><text fill="#000000" font-family="'Inter, Helvetica, sans-serif'" font-size="14" font-weight="700" lengthAdjust="spacing" textLength="350.3124" x="541.2488" y="28.5623">Sandbox &#8212; cycle de vie isolation par OS (slice 2d)</text></g><rect fill="#F4EEE3" height="1443.7297" rx="4" ry="4" style="stroke:#C68A3A;stroke-width:1.5;" width="1413.81" x="10" y="218.5994"/><path d="M10,320.6888 L1423.81,320.6888 L1423.81,1166.8819 A4,4 0 0 1 1419.81,1170.8819 L14,1170.8819 A4,4 0 0 1 10,1166.8819 L10,320.6888" fill="#F4EEE3" style="stroke:none;stroke-width:1;"/><rect fill="#F4EEE3" height="749.626" rx="4" ry="4" style="stroke:#C68A3A;stroke-width:1.5;" width="1393.81" x="20" y="414.2559"/><path d="M20,487.823 L1413.81,487.823 L1413.81,1159.8819 A4,4 0 0 1 1409.81,1163.8819 L24,1163.8819 A4,4 0 0 1 20,1159.8819 L20,487.823" fill="#F4EEE3" style="stroke:none;stroke-width:1;"/><rect fill="#F4EEE3" height="348.7907" rx="4" ry="4" style="stroke:#C68A3A;stroke-width:1.5;" width="1022.154" x="215.1746" y="766.5689"/><path d="M215.1746,868.6583 L1237.3286,868.6583 L1237.3286,938.2254 A4,4 0 0 1 1233.3286,942.2254 L219.1746,942.2254 A4,4 0 0 1 215.1746,938.2254 L215.1746,868.6583" fill="#F4EEE3" style="stroke:none;stroke-width:1;"/><path d="M215.1746,942.2254 L1237.3286,942.2254 L1237.3286,1024.7925 A4,4 0 0 1 1233.3286,1028.7925 L219.1746,1028.7925 A4,4 0 0 1 215.1746,1024.7925 L215.1746,942.2254" fill="#F4EEE3" style="stroke:none;stroke-width:1;"/><path d="M215.1746,1028.7925 L1237.3286,1028.7925 L1237.3286,1111.3596 A4,4 0 0 1 1233.3286,1115.3596 L219.1746,1115.3596 A4,4 0 0 1 215.1746,1111.3596 L215.1746,1028.7925" fill="#F4EEE3" style="stroke:none;stroke-width:1;"/><path d="M10,1170.8819 L1423.81,1170.8819 L1423.81,1658.3291 A4,4 0 0 1 1419.81,1662.3291 L14,1662.3291 A4,4 0 0 1 10,1658.3291 L10,1170.8819" fill="#F4EEE3" style="stroke:none;stroke-width:1;"/><rect fill="#F4EEE3" height="161.6565" rx="4" ry="4" style="stroke:#C68A3A;stroke-width:1.5;" width="710.1778" x="527.1508" y="1465.1502"/><path d="M527.1508,1553.2396 L1237.3286,1553.2396 L1237.3286,1622.8067 A4,4 0 0 1 1233.3286,1626.8067 L531.1508,1626.8067 A4,4 0 0 1 527.1508,1622.8067 L527.1508,1553.2396" fill="#F4EEE3" style="stroke:none;stroke-width:1;"/><g class="participant-lifeline" data-entity-uid="part1" data-qualified-name="STAIR" data-source-line="5" id="part1-lifeline"><g><title>staircase.</title><rect fill="#000000" fill-opacity="0.00000" height="1577.8191" width="8" x="69.6639" y="101.51"/><line style="stroke:#7A7569;stroke-width:0.5;stroke-dasharray:5,5;" x1="73" x2="73" y1="101.51" y2="1679.3291"/></g></g><g class="participant-lifeline" data-entity-uid="part2" data-qualified-name="RUN" data-source-line="6" id="part2-lifeline"><g><title>characterizeRunner</title><rect fill="#000000" fill-opacity="0.00000" height="1577.8191" width="8" x="283.5624" y="101.51"/><line style="stroke:#7A7569;stroke-width:0.5;stroke-dasharray:5,5;" x1="287.1746" x2="287.1746" y1="101.51" y2="1679.3291"/></g></g><g class="participant-lifeline" data-entity-uid="part3" data-qualified-name="DISP" data-source-line="7" id="part3-lifeline"><g><title>getSandbox..enabled..</title><rect fill="#000000" fill-opacity="0.00000" height="1577.8191" width="8" x="450.3826" y="101.51"/><line style="stroke:#7A7569;stroke-width:0.5;stroke-dasharray:5,5;" x1="453.6144" x2="453.6144" y1="101.51" y2="1679.3291"/></g></g><g class="participant-lifeline" data-entity-uid="part4" data-qualified-name="PROV" data-source-line="8" id="part4-lifeline"><g><title>PosixSandbox</title><rect fill="#000000" fill-opacity="0.00000" height="1577.8191" width="8" x="594.908" y="101.51"/><line style="stroke:#7A7569;stroke-width:0.5;stroke-dasharray:5,5;" x1="598.1508" x2="598.1508" y1="101.51" y2="1679.3291"/></g></g><g class="participant-lifeline" data-entity-uid="part5" data-qualified-name="SPAWN" data-source-line="9" id="part5-lifeline"><g><title>spawn .child_process.</title><rect fill="#000000" fill-opacity="0.00000" height="1577.8191" width="8" x="801.4431" y="101.51"/><line style="stroke:#7A7569;stroke-width:0.5;stroke-dasharray:5,5;" x1="805.0867" x2="805.0867" y1="101.51" y2="1679.3291"/></g></g><g class="participant-lifeline" data-entity-uid="part6" data-qualified-name="KERNEL" data-source-line="10" id="part6-lifeline"><g><title>kernel</title><rect fill="#000000" fill-opacity="0.00000" height="1577.8191" width="8" x="982.2232" y="101.51"/><line style="stroke:#7A7569;stroke-width:0.5;stroke-dasharray:5,5;" x1="985.3383" x2="985.3383" y1="101.51" y2="1679.3291"/></g></g><g class="participant-lifeline" data-entity-uid="part7" data-qualified-name="PY" data-source-line="11" id="part7-lifeline"><g><title>child python</title><rect fill="#000000" fill-opacity="0.00000" height="1577.8191" width="8" x="1181.3608" y="101.51"/><line style="stroke:#7A7569;stroke-width:0.5;stroke-dasharray:5,5;" x1="1184.3929" x2="1184.3929" y1="101.51" y2="1679.3291"/></g></g><g class="participant participant-head" data-entity-uid="part1" data-qualified-name="STAIR" data-source-line="5" id="part1-head"><rect fill="#FFFFFF" height="43.0447" rx="4" ry="4" style="stroke:#0E1014;stroke-width:0.5;" width="87.3277" x="30" y="57.4652"/><text fill="#0E1014" font-family="'Inter, Helvetica, sans-serif'" font-size="12" lengthAdjust="spacing" textLength="54.7486" x="46.2896" y="76.0899">staircase.</text><text fill="#0E1014" font-family="'Inter, Helvetica, sans-serif'" font-size="12" lengthAdjust="spacing" textLength="73.3277" x="37" y="90.6123">evaluateItem</text></g><g class="participant participant-tail" data-entity-uid="part1" data-qualified-name="STAIR" data-source-line="5" id="part1-tail"><rect fill="#FFFFFF" height="43.0447" rx="4" ry="4" style="stroke:#0E1014;stroke-width:0.5;" width="87.3277" x="30" y="1678.3291"/><text fill="#0E1014" font-family="'Inter, Helvetica, sans-serif'" font-size="12" lengthAdjust="spacing" textLength="54.7486" x="46.2896" y="1696.9538">staircase.</text><text fill="#0E1014" font-family="'Inter, Helvetica, sans-serif'" font-size="12" lengthAdjust="spacing" textLength="73.3277" x="37" y="1711.4761">evaluateItem</text></g><g class="participant participant-head" data-entity-uid="part2" data-qualified-name="RUN" data-source-line="6" id="part2-head"><rect fill="#FFFFFF" height="43.0447" rx="4" ry="4" style="stroke:#0E1014;stroke-width:0.5;" width="124.7756" x="225.1746" y="57.4652"/><text fill="#0E1014" font-family="'Inter, Helvetica, sans-serif'" font-size="12" lengthAdjust="spacing" textLength="110.7756" x="232.1746" y="76.0899">characterizeRunner</text><text fill="#0E1014" font-family="'Inter, Helvetica, sans-serif'" font-size="12" lengthAdjust="spacing" textLength="105.9007" x="234.612" y="90.6123">(construit le seam)</text></g><g class="participant participant-tail" data-entity-uid="part2" data-qualified-name="RUN" data-source-line="6" id="part2-tail"><rect fill="#FFFFFF" height="43.0447" rx="4" ry="4" style="stroke:#0E1014;stroke-width:0.5;" width="124.7756" x="225.1746" y="1678.3291"/><text fill="#0E1014" font-family="'Inter, Helvetica, sans-serif'" font-size="12" lengthAdjust="spacing" textLength="110.7756" x="232.1746" y="1696.9538">characterizeRunner</text><text fill="#0E1014" font-family="'Inter, Helvetica, sans-serif'" font-size="12" lengthAdjust="spacing" textLength="105.9007" x="234.612" y="1711.4761">(construit le seam)</text></g><g class="participant participant-head" data-entity-uid="part3" data-qualified-name="DISP" data-source-line="7" id="part3-head"><rect fill="#FFFFFF" height="28.5224" rx="4" ry="4" style="stroke:#0E1014;stroke-width:0.5;" width="145.5364" x="381.6144" y="71.9876"/><text fill="#0E1014" font-family="'Inter, Helvetica, sans-serif'" font-size="12" lengthAdjust="spacing" textLength="131.5364" x="388.6144" y="90.6123">getSandbox({enabled})</text></g><g class="participant participant-tail" data-entity-uid="part3" data-qualified-name="DISP" data-source-line="7" id="part3-tail"><rect fill="#FFFFFF" height="28.5224" rx="4" ry="4" style="stroke:#0E1014;stroke-width:0.5;" width="145.5364" x="381.6144" y="1678.3291"/><text fill="#0E1014" font-family="'Inter, Helvetica, sans-serif'" font-size="12" lengthAdjust="spacing" textLength="131.5364" x="388.6144" y="1696.9538">getSandbox({enabled})</text></g><g class="participant participant-head" data-entity-uid="part4" data-qualified-name="PROV" data-source-line="8" id="part4-head"><rect fill="#FFFFFF" height="57.5671" rx="4" ry="4" style="stroke:#0E1014;stroke-width:0.5;" width="123.5143" x="537.1508" y="42.9429"/><text fill="#0E1014" font-family="'Inter, Helvetica, sans-serif'" font-size="12" lengthAdjust="spacing" textLength="80.3502" x="558.7329" y="61.5676">PosixSandbox</text><text fill="#0E1014" font-family="'Inter, Helvetica, sans-serif'" font-size="12" lengthAdjust="spacing" textLength="109.5143" x="544.1508" y="76.0899">/ WindowsSandbox</text><text fill="#0E1014" font-family="'Inter, Helvetica, sans-serif'" font-size="12" lengthAdjust="spacing" textLength="97.9066" x="549.9547" y="90.6123">/ UnsafeSandbox</text></g><g class="participant participant-tail" data-entity-uid="part4" data-qualified-name="PROV" data-source-line="8" id="part4-tail"><rect fill="#FFFFFF" height="57.5671" rx="4" ry="4" style="stroke:#0E1014;stroke-width:0.5;" width="123.5143" x="537.1508" y="1678.3291"/><text fill="#0E1014" font-family="'Inter, Helvetica, sans-serif'" font-size="12" lengthAdjust="spacing" textLength="80.3502" x="558.7329" y="1696.9538">PosixSandbox</text><text fill="#0E1014" font-family="'Inter, Helvetica, sans-serif'" font-size="12" lengthAdjust="spacing" textLength="109.5143" x="544.1508" y="1711.4761">/ WindowsSandbox</text><text fill="#0E1014" font-family="'Inter, Helvetica, sans-serif'" font-size="12" lengthAdjust="spacing" textLength="97.9066" x="549.9547" y="1725.9985">/ UnsafeSandbox</text></g><g class="participant participant-head" data-entity-uid="part5" data-qualified-name="SPAWN" data-source-line="9" id="part5-head"><rect fill="#FFFFFF" height="28.5224" rx="4" ry="4" style="stroke:#0E1014;stroke-width:0.5;" width="140.7127" x="735.0867" y="71.9876"/><text fill="#0E1014" font-family="'Inter, Helvetica, sans-serif'" font-size="12" lengthAdjust="spacing" textLength="126.7127" x="742.0867" y="90.6123">spawn (child_process)</text></g><g class="participant participant-tail" data-entity-uid="part5" data-qualified-name="SPAWN" data-source-line="9" id="part5-tail"><rect fill="#FFFFFF" height="28.5224" rx="4" ry="4" style="stroke:#0E1014;stroke-width:0.5;" width="140.7127" x="735.0867" y="1678.3291"/><text fill="#0E1014" font-family="'Inter, Helvetica, sans-serif'" font-size="12" lengthAdjust="spacing" textLength="126.7127" x="742.0867" y="1696.9538">spawn (child_process)</text></g><g class="participant participant-head" data-entity-uid="part6" data-qualified-name="KERNEL" data-source-line="10" id="part6-head"><rect fill="#FFFFFF" height="43.0447" rx="4" ry="4" style="stroke:#0E1014;stroke-width:0.5;" width="129.7697" x="921.3383" y="57.4652"/><text fill="#0E1014" font-family="'Inter, Helvetica, sans-serif'" font-size="12" lengthAdjust="spacing" textLength="34.84" x="968.8032" y="76.0899">kernel</text><text fill="#0E1014" font-family="'Inter, Helvetica, sans-serif'" font-size="12" lengthAdjust="spacing" textLength="115.7697" x="928.3383" y="90.6123">(rlimits / Job Object)</text></g><g class="participant participant-tail" data-entity-uid="part6" data-qualified-name="KERNEL" data-source-line="10" id="part6-tail"><rect fill="#FFFFFF" height="43.0447" rx="4" ry="4" style="stroke:#0E1014;stroke-width:0.5;" width="129.7697" x="921.3383" y="1678.3291"/><text fill="#0E1014" font-family="'Inter, Helvetica, sans-serif'" font-size="12" lengthAdjust="spacing" textLength="34.84" x="968.8032" y="1696.9538">kernel</text><text fill="#0E1014" font-family="'Inter, Helvetica, sans-serif'" font-size="12" lengthAdjust="spacing" textLength="115.7697" x="928.3383" y="1711.4761">(rlimits / Job Object)</text></g><g class="participant participant-head" data-entity-uid="part7" data-qualified-name="PY" data-source-line="11" id="part7-head"><rect fill="#FFFFFF" height="28.5224" rx="4" ry="4" style="stroke:#0E1014;stroke-width:0.5;" width="83.9357" x="1143.3929" y="71.9876"/><text fill="#0E1014" font-family="'Inter, Helvetica, sans-serif'" font-size="12" lengthAdjust="spacing" textLength="69.9357" x="1150.3929" y="90.6123">child python</text></g><g class="participant participant-tail" data-entity-uid="part7" data-qualified-name="PY" data-source-line="11" id="part7-tail"><rect fill="#FFFFFF" height="28.5224" rx="4" ry="4" style="stroke:#0E1014;stroke-width:0.5;" width="83.9357" x="1143.3929" y="1678.3291"/><text fill="#0E1014" font-family="'Inter, Helvetica, sans-serif'" font-size="12" lengthAdjust="spacing" textLength="69.9357" x="1150.3929" y="1696.9538">child python</text></g><g class="message" data-entity-1="part1" data-entity-2="part2" data-source-line="13" id="msg1"><polygon fill="#1A1D24" points="275.5624,142.5547,285.5624,146.5547,275.5624,150.5547,279.5624,146.5547" style="stroke:#1A1D24;stroke-width:1;stroke-linejoin:miter;stroke-miterlimit:10;"/><line style="stroke:#1A1D24;stroke-width:1;" x1="73.6639" x2="281.5624" y1="146.5547" y2="146.5547"/><text fill="#000000" font-family="'Inter, Helvetica, sans-serif'" font-size="12" lengthAdjust="spacing" textLength="146.4849" x="80.6639" y="127.1347">item est sandbox-request</text><text fill="#000000" font-family="'Inter, Helvetica, sans-serif'" font-size="12" lengthAdjust="spacing" textLength="180.0125" x="80.6639" y="141.657">(a besoin du seam runSandbox)</text></g><g class="message" data-entity-1="part2" data-entity-2="part3" data-source-line="14" id="msg2"><polygon fill="#1A1D24" points="442.3826,171.077,452.3826,175.077,442.3826,179.077,446.3826,175.077" style="stroke:#1A1D24;stroke-width:1;stroke-linejoin:miter;stroke-miterlimit:10;"/><line style="stroke:#1A1D24;stroke-width:1;" x1="287.5624" x2="448.3826" y1="175.077" y2="175.077"/><text fill="#000000" font-family="'Inter, Helvetica, sans-serif'" font-size="12" lengthAdjust="spacing" textLength="142.8202" x="294.5624" y="170.1794">params.enableSandbox ?</text></g><g class="message" data-entity-1="part3" data-entity-2="part2" data-source-line="15" id="msg3"><polygon fill="#1A1D24" points="298.5624,199.5994,288.5624,203.5994,298.5624,207.5994,294.5624,203.5994" style="stroke:#1A1D24;stroke-width:1;stroke-linejoin:miter;stroke-miterlimit:10;"/><line style="stroke:#1A1D24;stroke-width:1;stroke-dasharray:2,2;" x1="292.5624" x2="453.3826" y1="203.5994" y2="203.5994"/><text fill="#000000" font-family="'Inter, Helvetica, sans-serif'" font-size="12" lengthAdjust="spacing" textLength="98.7248" x="304.5624" y="198.7017">instance provider</text></g><path d="M14,218.5994 L70.1019,218.5994 L70.1019,225.1217 L60.1019,235.1217 L10,235.1217 L10,222.5994 A4,4 0 0 1 14,218.5994" fill="#EEEEEE" style="stroke:#C68A3A;stroke-width:1.5;"/><rect fill="none" height="1443.7297" rx="4" ry="4" style="stroke:#C68A3A;stroke-width:1.5;" width="1413.81" x="10" y="218.5994"/><text fill="#000000" font-family="'Inter, Helvetica, sans-serif'" font-size="12" font-weight="700" lengthAdjust="spacing" textLength="15.1019" x="25" y="231.2241">alt</text><text fill="#C68A3A" font-family="'Inter, Helvetica, sans-serif'" font-size="12" font-weight="700" lengthAdjust="spacing" textLength="227.807" x="85.1019" y="232.2241">[UnsafeSandbox (opt-in OFF, d&#233;faut)]</text><g class="message" data-entity-1="part2" data-entity-2="part4" data-source-line="18" id="msg4"><polygon fill="#1A1D24" points="586.908,251.6441,596.908,255.6441,586.908,259.6441,590.908,255.6441" style="stroke:#1A1D24;stroke-width:1;stroke-linejoin:miter;stroke-miterlimit:10;"/><line style="stroke:#1A1D24;stroke-width:1;" x1="287.5624" x2="592.908" y1="255.6441" y2="255.6441"/><text fill="#000000" font-family="'Inter, Helvetica, sans-serif'" font-size="12" lengthAdjust="spacing" textLength="161.9789" x="294.5624" y="250.7465">runPythonTests(code, tests)</text></g><g class="message" data-entity-1="part4" data-entity-2="part2" data-source-line="19" id="msg5"><polygon fill="#1A1D24" points="298.5624,280.1665,288.5624,284.1665,298.5624,288.1665,294.5624,284.1665" style="stroke:#1A1D24;stroke-width:1;stroke-linejoin:miter;stroke-miterlimit:10;"/><line style="stroke:#1A1D24;stroke-width:1;stroke-dasharray:2,2;" x1="292.5624" x2="597.908" y1="284.1665" y2="284.1665"/><text fill="#000000" font-family="'Inter, Helvetica, sans-serif'" font-size="12" lengthAdjust="spacing" textLength="152.0586" x="304.5624" y="279.2688">throw SandboxUnavailable</text></g><g class="message" data-entity-1="part2" data-entity-2="part1" data-source-line="20" id="msg6"><polygon fill="#1A1D24" points="84.6639,308.6888,74.6639,312.6888,84.6639,316.6888,80.6639,312.6888" style="stroke:#1A1D24;stroke-width:1;stroke-linejoin:miter;stroke-miterlimit:10;"/><line style="stroke:#1A1D24;stroke-width:1;stroke-dasharray:2,2;" x1="78.6639" x2="286.5624" y1="312.6888" y2="312.6888"/><text fill="#000000" font-family="'Inter, Helvetica, sans-serif'" font-size="12" lengthAdjust="spacing" textLength="189.8985" x="90.6639" y="307.7912">item &#8658; UNMEASURED (prior D12)</text></g><line style="stroke:#C68A3A;stroke-width:1;stroke-dasharray:2,2;" x1="10" x2="1423.81" y1="321.6888" y2="321.6888"/><text fill="#C68A3A" font-family="'Inter, Helvetica, sans-serif'" font-size="12" font-weight="700" lengthAdjust="spacing" textLength="246.2327" x="15" y="333.3135">[PosixSandbox (linux/darwin, opt-in ON)]</text><g class="message" data-entity-1="part2" data-entity-2="part4" data-source-line="22" id="msg7"><polygon fill="#1A1D24" points="586.908,353.7335,596.908,357.7335,586.908,361.7335,590.908,357.7335" style="stroke:#1A1D24;stroke-width:1;stroke-linejoin:miter;stroke-miterlimit:10;"/><line style="stroke:#1A1D24;stroke-width:1;" x1="287.5624" x2="592.908" y1="357.7335" y2="357.7335"/><text fill="#000000" font-family="'Inter, Helvetica, sans-serif'" font-size="12" lengthAdjust="spacing" textLength="161.9789" x="294.5624" y="352.8359">runPythonTests(code, tests)</text></g><g class="message" data-entity-1="part4" data-entity-2="part4" data-source-line="23" id="msg8"><line style="stroke:#1A1D24;stroke-width:1;" x1="598.908" x2="640.908" y1="386.2559" y2="386.2559"/><line style="stroke:#1A1D24;stroke-width:1;" x1="640.908" x2="640.908" y1="386.2559" y2="399.2559"/><line style="stroke:#1A1D24;stroke-width:1;" x1="599.908" x2="640.908" y1="399.2559" y2="399.2559"/><polygon fill="#1A1D24" points="609.908,395.2559,599.908,399.2559,609.908,403.2559,605.908,399.2559" style="stroke:#1A1D24;stroke-width:1;stroke-linejoin:miter;stroke-miterlimit:10;"/><text fill="#000000" font-family="'Inter, Helvetica, sans-serif'" font-size="12" lengthAdjust="spacing" textLength="108.5427" x="605.908" y="381.3582">sonde findPython()</text></g><path d="M24,414.2559 L80.1019,414.2559 L80.1019,420.7783 L70.1019,430.7783 L20,430.7783 L20,418.2559 A4,4 0 0 1 24,414.2559" fill="#EEEEEE" style="stroke:#C68A3A;stroke-width:1.5;"/><rect fill="none" height="749.626" rx="4" ry="4" style="stroke:#C68A3A;stroke-width:1.5;" width="1393.81" x="20" y="414.2559"/><text fill="#000000" font-family="'Inter, Helvetica, sans-serif'" font-size="12" font-weight="700" lengthAdjust="spacing" textLength="15.1019" x="35" y="426.8806">alt</text><text fill="#C68A3A" font-family="'Inter, Helvetica, sans-serif'" font-size="12" font-weight="700" lengthAdjust="spacing" textLength="93.7307" x="95.1019" y="427.8806">[sonde &#233;choue]</text><g class="message" data-entity-1="part4" data-entity-2="part2" data-source-line="25" id="msg9"><polygon fill="#1A1D24" points="298.5624,447.3006,288.5624,451.3006,298.5624,455.3006,294.5624,451.3006" style="stroke:#1A1D24;stroke-width:1;stroke-linejoin:miter;stroke-miterlimit:10;"/><line style="stroke:#1A1D24;stroke-width:1;stroke-dasharray:2,2;" x1="292.5624" x2="597.908" y1="451.3006" y2="451.3006"/><text fill="#000000" font-family="'Inter, Helvetica, sans-serif'" font-size="12" lengthAdjust="spacing" textLength="152.0586" x="304.5624" y="446.403">throw SandboxUnavailable</text></g><g class="message" data-entity-1="part2" data-entity-2="part1" data-source-line="26" id="msg10"><polygon fill="#1A1D24" points="84.6639,475.823,74.6639,479.823,84.6639,483.823,80.6639,479.823" style="stroke:#1A1D24;stroke-width:1;stroke-linejoin:miter;stroke-miterlimit:10;"/><line style="stroke:#1A1D24;stroke-width:1;stroke-dasharray:2,2;" x1="78.6639" x2="286.5624" y1="479.823" y2="479.823"/><text fill="#000000" font-family="'Inter, Helvetica, sans-serif'" font-size="12" lengthAdjust="spacing" textLength="83.9126" x="90.6639" y="474.9253">UNMEASURED</text></g><line style="stroke:#C68A3A;stroke-width:1;stroke-dasharray:2,2;" x1="20" x2="1413.81" y1="488.823" y2="488.823"/><text fill="#C68A3A" font-family="'Inter, Helvetica, sans-serif'" font-size="12" font-weight="700" lengthAdjust="spacing" textLength="67.2938" x="25" y="500.4477">[sonde OK]</text><g class="message" data-entity-1="part4" data-entity-2="part4" data-source-line="28" id="msg11"><line style="stroke:#1A1D24;stroke-width:1;" x1="598.908" x2="640.908" y1="539.39" y2="539.39"/><line style="stroke:#1A1D24;stroke-width:1;" x1="640.908" x2="640.908" y1="539.39" y2="552.39"/><line style="stroke:#1A1D24;stroke-width:1;" x1="599.908" x2="640.908" y1="552.39" y2="552.39"/><polygon fill="#1A1D24" points="609.908,548.39,599.908,552.39,609.908,556.39,605.908,552.39" style="stroke:#1A1D24;stroke-width:1;stroke-linejoin:miter;stroke-miterlimit:10;"/><text fill="#000000" font-family="'Inter, Helvetica, sans-serif'" font-size="12" lengthAdjust="spacing" textLength="128.8603" x="605.908" y="519.97">mkdtemp + &#233;crit script</text><text fill="#000000" font-family="'Inter, Helvetica, sans-serif'" font-size="12" lengthAdjust="spacing" textLength="154.7858" x="612.6578" y="534.4924">(pr&#233;ambule + code + tests)</text></g><g class="message" data-entity-1="part4" data-entity-2="part5" data-source-line="29" id="msg12"><polygon fill="#1A1D24" points="793.4431,605.9571,803.4431,609.9571,793.4431,613.9571,797.4431,609.9571" style="stroke:#1A1D24;stroke-width:1;stroke-linejoin:miter;stroke-miterlimit:10;"/><line style="stroke:#1A1D24;stroke-width:1;" x1="598.908" x2="799.4431" y1="609.9571" y2="609.9571"/><text fill="#000000" font-family="'Inter, Helvetica, sans-serif'" font-size="12" lengthAdjust="spacing" textLength="137.5874" x="605.908" y="576.0147">python -I -S -B script.py</text><text fill="#000000" font-family="'Inter, Helvetica, sans-serif'" font-size="12" lengthAdjust="spacing" textLength="159.4391" x="612.6578" y="590.5371">detached:true (pgrp propre)</text><text fill="#000000" font-family="'Inter, Helvetica, sans-serif'" font-size="12" lengthAdjust="spacing" textLength="67.2596" x="612.6578" y="605.0595">env minimal</text></g><g class="message" data-entity-1="part5" data-entity-2="part7" data-source-line="30" id="msg13"><polygon fill="#1A1D24" points="1173.3608,634.4795,1183.3608,638.4795,1173.3608,642.4795,1177.3608,638.4795" style="stroke:#1A1D24;stroke-width:1;stroke-linejoin:miter;stroke-miterlimit:10;"/><line style="stroke:#1A1D24;stroke-width:1;" x1="805.4431" x2="1179.3608" y1="638.4795" y2="638.4795"/><text fill="#000000" font-family="'Inter, Helvetica, sans-serif'" font-size="12" lengthAdjust="spacing" textLength="27.1527" x="812.4431" y="633.5818">exec</text></g><g class="message" data-entity-1="part7" data-entity-2="part6" data-source-line="31" id="msg14"><polygon fill="#1A1D24" points="997.2232,677.5242,987.2232,681.5242,997.2232,685.5242,993.2232,681.5242" style="stroke:#1A1D24;stroke-width:1;stroke-linejoin:miter;stroke-miterlimit:10;"/><line style="stroke:#1A1D24;stroke-width:1;" x1="991.2232" x2="1184.3608" y1="681.5242" y2="681.5242"/><text fill="#000000" font-family="'Inter, Helvetica, sans-serif'" font-size="12" lengthAdjust="spacing" textLength="120.389" x="1003.2232" y="662.1042">setrlimit NPROC=cur,</text><text fill="#000000" font-family="'Inter, Helvetica, sans-serif'" font-size="12" lengthAdjust="spacing" textLength="168.3878" x="1009.973" y="676.6265">AS=512M, CPU=10s, FSIZE=0</text></g><g class="message" data-entity-1="part6" data-entity-2="part7" data-source-line="32" id="msg15"><polygon fill="#1A1D24" points="1173.3608,706.0466,1183.3608,710.0466,1173.3608,714.0466,1177.3608,710.0466" style="stroke:#1A1D24;stroke-width:1;stroke-linejoin:miter;stroke-miterlimit:10;"/><line style="stroke:#1A1D24;stroke-width:1;stroke-dasharray:2,2;" x1="986.2232" x2="1179.3608" y1="710.0466" y2="710.0466"/><text fill="#000000" font-family="'Inter, Helvetica, sans-serif'" font-size="12" lengthAdjust="spacing" textLength="88.1057" x="993.2232" y="705.1489">arme les limites</text></g><g class="message" data-entity-1="part7" data-entity-2="part7" data-source-line="33" id="msg16"><line style="stroke:#1A1D24;stroke-width:1;" x1="1185.3608" x2="1227.3608" y1="738.5689" y2="738.5689"/><line style="stroke:#1A1D24;stroke-width:1;" x1="1227.3608" x2="1227.3608" y1="738.5689" y2="751.5689"/><line style="stroke:#1A1D24;stroke-width:1;" x1="1186.3608" x2="1227.3608" y1="751.5689" y2="751.5689"/><polygon fill="#1A1D24" points="1196.3608,747.5689,1186.3608,751.5689,1196.3608,755.5689,1192.3608,751.5689" style="stroke:#1A1D24;stroke-width:1;stroke-linejoin:miter;stroke-miterlimit:10;"/><text fill="#000000" font-family="'Inter, Helvetica, sans-serif'" font-size="12" lengthAdjust="spacing" textLength="209.4492" x="1192.3608" y="733.6713">ex&#233;cute le code du mod&#232;le + asserts</text></g><path d="M219.1746,766.5689 L275.2765,766.5689 L275.2765,773.0913 L265.2765,783.0913 L215.1746,783.0913 L215.1746,770.5689 A4,4 0 0 1 219.1746,766.5689" fill="#EEEEEE" style="stroke:#C68A3A;stroke-width:1.5;"/><rect fill="none" height="348.7907" rx="4" ry="4" style="stroke:#C68A3A;stroke-width:1.5;" width="1022.154" x="215.1746" y="766.5689"/><text fill="#000000" font-family="'Inter, Helvetica, sans-serif'" font-size="12" font-weight="700" lengthAdjust="spacing" textLength="15.1019" x="230.1746" y="779.1936">alt</text><text fill="#C68A3A" font-family="'Inter, Helvetica, sans-serif'" font-size="12" font-weight="700" lengthAdjust="spacing" textLength="125.5027" x="290.2765" y="780.1936">[asserts pass, exit 0]</text><g class="message" data-entity-1="part7" data-entity-2="part5" data-source-line="35" id="msg17"><polygon fill="#1A1D24" points="816.4431,799.6136,806.4431,803.6136,816.4431,807.6136,812.4431,803.6136" style="stroke:#1A1D24;stroke-width:1;stroke-linejoin:miter;stroke-miterlimit:10;"/><line style="stroke:#1A1D24;stroke-width:1;stroke-dasharray:2,2;" x1="810.4431" x2="1184.3608" y1="803.6136" y2="803.6136"/><text fill="#000000" font-family="'Inter, Helvetica, sans-serif'" font-size="12" lengthAdjust="spacing" textLength="31.5503" x="822.4431" y="798.716">exit 0</text></g><g class="message" data-entity-1="part5" data-entity-2="part4" data-source-line="36" id="msg18"><polygon fill="#1A1D24" points="609.908,828.136,599.908,832.136,609.908,836.136,605.908,832.136" style="stroke:#1A1D24;stroke-width:1;stroke-linejoin:miter;stroke-miterlimit:10;"/><line style="stroke:#1A1D24;stroke-width:1;stroke-dasharray:2,2;" x1="603.908" x2="804.4431" y1="832.136" y2="832.136"/><text fill="#000000" font-family="'Inter, Helvetica, sans-serif'" font-size="12" lengthAdjust="spacing" textLength="46.1579" x="615.908" y="827.2383">close(0)</text></g><g class="message" data-entity-1="part4" data-entity-2="part2" data-source-line="37" id="msg19"><polygon fill="#1A1D24" points="298.5624,856.6583,288.5624,860.6583,298.5624,864.6583,294.5624,860.6583" style="stroke:#1A1D24;stroke-width:1;stroke-linejoin:miter;stroke-miterlimit:10;"/><line style="stroke:#1A1D24;stroke-width:1;stroke-dasharray:2,2;" x1="292.5624" x2="597.908" y1="860.6583" y2="860.6583"/><text fill="#000000" font-family="'Inter, Helvetica, sans-serif'" font-size="12" lengthAdjust="spacing" textLength="64.7881" x="304.5624" y="855.7607">{pass: true}</text></g><line style="stroke:#C68A3A;stroke-width:1;stroke-dasharray:2,2;" x1="215.1746" x2="1237.3286" y1="869.6583" y2="869.6583"/><text fill="#C68A3A" font-family="'Inter, Helvetica, sans-serif'" font-size="12" font-weight="700" lengthAdjust="spacing" textLength="139.1217" x="220.1746" y="881.283">[assert fail / exception]</text><g class="message" data-entity-1="part7" data-entity-2="part5" data-source-line="39" id="msg20"><polygon fill="#1A1D24" points="816.4431,901.7031,806.4431,905.7031,816.4431,909.7031,812.4431,905.7031" style="stroke:#1A1D24;stroke-width:1;stroke-linejoin:miter;stroke-miterlimit:10;"/><line style="stroke:#1A1D24;stroke-width:1;stroke-dasharray:2,2;" x1="810.4431" x2="1184.3608" y1="905.7031" y2="905.7031"/><text fill="#000000" font-family="'Inter, Helvetica, sans-serif'" font-size="12" lengthAdjust="spacing" textLength="29.6242" x="822.4431" y="900.8054">exit 1</text></g><g class="message" data-entity-1="part4" data-entity-2="part2" data-source-line="40" id="msg21"><polygon fill="#1A1D24" points="298.5624,930.2254,288.5624,934.2254,298.5624,938.2254,294.5624,934.2254" style="stroke:#1A1D24;stroke-width:1;stroke-linejoin:miter;stroke-miterlimit:10;"/><line style="stroke:#1A1D24;stroke-width:1;stroke-dasharray:2,2;" x1="292.5624" x2="597.908" y1="934.2254" y2="934.2254"/><text fill="#000000" font-family="'Inter, Helvetica, sans-serif'" font-size="12" lengthAdjust="spacing" textLength="193.8019" x="304.5624" y="929.3278">{pass: false, reason: exit-nonzero}</text></g><line style="stroke:#C68A3A;stroke-width:1;stroke-dasharray:2,2;" x1="215.1746" x2="1237.3286" y1="943.2254" y2="943.2254"/><text fill="#C68A3A" font-family="'Inter, Helvetica, sans-serif'" font-size="12" font-weight="700" lengthAdjust="spacing" textLength="156.8315" x="220.1746" y="954.8501">[timeout (parent enforce)]</text><g class="message" data-entity-1="part4" data-entity-2="part4" data-source-line="42" id="msg22"><line style="stroke:#1A1D24;stroke-width:1;" x1="598.908" x2="640.908" y1="979.2701" y2="979.2701"/><line style="stroke:#1A1D24;stroke-width:1;" x1="640.908" x2="640.908" y1="979.2701" y2="992.2701"/><line style="stroke:#1A1D24;stroke-width:1;" x1="599.908" x2="640.908" y1="992.2701" y2="992.2701"/><polygon fill="#1A1D24" points="609.908,988.2701,599.908,992.2701,609.908,996.2701,605.908,992.2701" style="stroke:#1A1D24;stroke-width:1;stroke-linejoin:miter;stroke-miterlimit:10;"/><text fill="#000000" font-family="'Inter, Helvetica, sans-serif'" font-size="12" lengthAdjust="spacing" textLength="96.4919" x="605.908" y="974.3725">kill -pgid SIGKILL</text></g><g class="message" data-entity-1="part4" data-entity-2="part2" data-source-line="43" id="msg23"><polygon fill="#1A1D24" points="298.5624,1016.7925,288.5624,1020.7925,298.5624,1024.7925,294.5624,1020.7925" style="stroke:#1A1D24;stroke-width:1;stroke-linejoin:miter;stroke-miterlimit:10;"/><line style="stroke:#1A1D24;stroke-width:1;stroke-dasharray:2,2;" x1="292.5624" x2="597.908" y1="1020.7925" y2="1020.7925"/><text fill="#000000" font-family="'Inter, Helvetica, sans-serif'" font-size="12" lengthAdjust="spacing" textLength="164.4163" x="304.5624" y="1015.8948">{pass: false, reason: timeout}</text></g><line style="stroke:#C68A3A;stroke-width:1;stroke-dasharray:2,2;" x1="215.1746" x2="1237.3286" y1="1029.7925" y2="1029.7925"/><text fill="#C68A3A" font-family="'Inter, Helvetica, sans-serif'" font-size="12" font-weight="700" lengthAdjust="spacing" textLength="115.4461" x="220.1746" y="1041.4172">[overflow d'output]</text><g class="message" data-entity-1="part4" data-entity-2="part4" data-source-line="45" id="msg24"><line style="stroke:#1A1D24;stroke-width:1;" x1="598.908" x2="640.908" y1="1065.8372" y2="1065.8372"/><line style="stroke:#1A1D24;stroke-width:1;" x1="640.908" x2="640.908" y1="1065.8372" y2="1078.8372"/><line style="stroke:#1A1D24;stroke-width:1;" x1="599.908" x2="640.908" y1="1078.8372" y2="1078.8372"/><polygon fill="#1A1D24" points="609.908,1074.8372,599.908,1078.8372,609.908,1082.8372,605.908,1078.8372" style="stroke:#1A1D24;stroke-width:1;stroke-linejoin:miter;stroke-miterlimit:10;"/><text fill="#000000" font-family="'Inter, Helvetica, sans-serif'" font-size="12" lengthAdjust="spacing" textLength="96.4919" x="605.908" y="1060.9396">kill -pgid SIGKILL</text></g><g class="message" data-entity-1="part4" data-entity-2="part2" data-source-line="46" id="msg25"><polygon fill="#1A1D24" points="298.5624,1103.3596,288.5624,1107.3596,298.5624,1111.3596,294.5624,1107.3596" style="stroke:#1A1D24;stroke-width:1;stroke-linejoin:miter;stroke-miterlimit:10;"/><line style="stroke:#1A1D24;stroke-width:1;stroke-dasharray:2,2;" x1="292.5624" x2="597.908" y1="1107.3596" y2="1107.3596"/><text fill="#000000" font-family="'Inter, Helvetica, sans-serif'" font-size="12" lengthAdjust="spacing" textLength="213.3355" x="304.5624" y="1102.4619">{pass: false, reason: output-overflow}</text></g><g class="message" data-entity-1="part4" data-entity-2="part4" data-source-line="48" id="msg26"><line style="stroke:#1A1D24;stroke-width:1;" x1="598.908" x2="640.908" y1="1142.8819" y2="1142.8819"/><line style="stroke:#1A1D24;stroke-width:1;" x1="640.908" x2="640.908" y1="1142.8819" y2="1155.8819"/><line style="stroke:#1A1D24;stroke-width:1;" x1="599.908" x2="640.908" y1="1155.8819" y2="1155.8819"/><polygon fill="#1A1D24" points="609.908,1151.8819,599.908,1155.8819,609.908,1159.8819,605.908,1155.8819" style="stroke:#1A1D24;stroke-width:1;stroke-linejoin:miter;stroke-miterlimit:10;"/><text fill="#000000" font-family="'Inter, Helvetica, sans-serif'" font-size="12" lengthAdjust="spacing" textLength="129.1501" x="605.908" y="1137.9843">rmtree workdir (finally)</text></g><line style="stroke:#C68A3A;stroke-width:1;stroke-dasharray:2,2;" x1="10" x2="1423.81" y1="1171.8819" y2="1171.8819"/><text fill="#C68A3A" font-family="'Inter, Helvetica, sans-serif'" font-size="12" font-weight="700" lengthAdjust="spacing" textLength="231.6421" x="15" y="1183.5066">[WindowsSandbox (win32, opt-in ON)]</text><g class="message" data-entity-1="part2" data-entity-2="part4" data-source-line="51" id="msg27"><polygon fill="#1A1D24" points="586.908,1203.9266,596.908,1207.9266,586.908,1211.9266,590.908,1207.9266" style="stroke:#1A1D24;stroke-width:1;stroke-linejoin:miter;stroke-miterlimit:10;"/><line style="stroke:#1A1D24;stroke-width:1;" x1="287.5624" x2="592.908" y1="1207.9266" y2="1207.9266"/><text fill="#000000" font-family="'Inter, Helvetica, sans-serif'" font-size="12" lengthAdjust="spacing" textLength="161.9789" x="294.5624" y="1203.029">runPythonTests(code, tests)</text></g><g class="message" data-entity-1="part4" data-entity-2="part5" data-source-line="52" id="msg28"><polygon fill="#1A1D24" points="793.4431,1232.449,803.4431,1236.449,793.4431,1240.449,797.4431,1236.449" style="stroke:#1A1D24;stroke-width:1;stroke-linejoin:miter;stroke-miterlimit:10;"/><line style="stroke:#1A1D24;stroke-width:1;" x1="598.908" x2="799.4431" y1="1236.449" y2="1236.449"/><text fill="#000000" font-family="'Inter, Helvetica, sans-serif'" font-size="12" lengthAdjust="spacing" textLength="182.5351" x="605.908" y="1231.5513">powershell.exe -File win-job.ps1</text></g><g class="message" data-entity-1="part5" data-entity-2="part6" data-source-line="53" id="msg29"><polygon fill="#1A1D24" points="974.2232,1319.0608,984.2232,1323.0608,974.2232,1327.0608,978.2232,1323.0608" style="stroke:#1A1D24;stroke-width:1;stroke-linejoin:miter;stroke-miterlimit:10;"/><line style="stroke:#1A1D24;stroke-width:1;" x1="805.4431" x2="980.2232" y1="1323.0608" y2="1323.0608"/><text fill="#000000" font-family="'Inter, Helvetica, sans-serif'" font-size="12" lengthAdjust="spacing" textLength="108.1848" x="812.4431" y="1260.0737">CreateJobObject +</text><text fill="#000000" font-family="'Inter, Helvetica, sans-serif'" font-size="12" lengthAdjust="spacing" textLength="142.343" x="819.1929" y="1274.5961">SetInformationJobObject</text><text fill="#000000" font-family="'Inter, Helvetica, sans-serif'" font-size="12" lengthAdjust="spacing" textLength="102.3554" x="819.1929" y="1289.1184">(ActiveProcess=1,</text><text fill="#000000" font-family="'Inter, Helvetica, sans-serif'" font-size="12" lengthAdjust="spacing" textLength="126.3547" x="822.5678" y="1303.6408">MemoryLimit=512MiB,</text><text fill="#000000" font-family="'Inter, Helvetica, sans-serif'" font-size="12" lengthAdjust="spacing" textLength="126.1673" x="822.5678" y="1318.1631">KILL_ON_JOB_CLOSE)</text></g><g class="message" data-entity-1="part6" data-entity-2="part5" data-source-line="54" id="msg30"><polygon fill="#1A1D24" points="816.4431,1347.5831,806.4431,1351.5831,816.4431,1355.5831,812.4431,1351.5831" style="stroke:#1A1D24;stroke-width:1;stroke-linejoin:miter;stroke-miterlimit:10;"/><line style="stroke:#1A1D24;stroke-width:1;stroke-dasharray:2,2;" x1="810.4431" x2="985.2232" y1="1351.5831" y2="1351.5831"/><text fill="#000000" font-family="'Inter, Helvetica, sans-serif'" font-size="12" lengthAdjust="spacing" textLength="76.8048" x="822.4431" y="1346.6855">handle de job</text></g><g class="message" data-entity-1="part5" data-entity-2="part7" data-source-line="55" id="msg31"><polygon fill="#1A1D24" points="1173.3608,1376.1055,1183.3608,1380.1055,1173.3608,1384.1055,1177.3608,1380.1055" style="stroke:#1A1D24;stroke-width:1;stroke-linejoin:miter;stroke-miterlimit:10;"/><line style="stroke:#1A1D24;stroke-width:1;" x1="805.4431" x2="1179.3608" y1="1380.1055" y2="1380.1055"/><text fill="#000000" font-family="'Inter, Helvetica, sans-serif'" font-size="12" lengthAdjust="spacing" textLength="148.4792" x="812.4431" y="1375.2078">Process.Start(python.exe)</text></g><g class="message" data-entity-1="part5" data-entity-2="part6" data-source-line="56" id="msg32"><polygon fill="#1A1D24" points="974.2232,1404.6279,984.2232,1408.6279,974.2232,1412.6279,978.2232,1408.6279" style="stroke:#1A1D24;stroke-width:1;stroke-linejoin:miter;stroke-miterlimit:10;"/><line style="stroke:#1A1D24;stroke-width:1;" x1="805.4431" x2="980.2232" y1="1408.6279" y2="1408.6279"/><text fill="#000000" font-family="'Inter, Helvetica, sans-serif'" font-size="12" lengthAdjust="spacing" textLength="156.7801" x="812.4431" y="1403.7302">AssignProcessToJobObject</text></g><g class="message" data-entity-1="part7" data-entity-2="part7" data-source-line="57" id="msg33"><line style="stroke:#1A1D24;stroke-width:1;" x1="1185.3608" x2="1227.3608" y1="1437.1502" y2="1437.1502"/><line style="stroke:#1A1D24;stroke-width:1;" x1="1227.3608" x2="1227.3608" y1="1437.1502" y2="1450.1502"/><line style="stroke:#1A1D24;stroke-width:1;" x1="1186.3608" x2="1227.3608" y1="1450.1502" y2="1450.1502"/><polygon fill="#1A1D24" points="1196.3608,1446.1502,1186.3608,1450.1502,1196.3608,1454.1502,1192.3608,1450.1502" style="stroke:#1A1D24;stroke-width:1;stroke-linejoin:miter;stroke-miterlimit:10;"/><text fill="#000000" font-family="'Inter, Helvetica, sans-serif'" font-size="12" lengthAdjust="spacing" textLength="80.8105" x="1192.3608" y="1432.2526">ex&#233;cute script</text></g><path d="M531.1508,1465.1502 L587.2528,1465.1502 L587.2528,1471.6726 L577.2528,1481.6726 L527.1508,1481.6726 L527.1508,1469.1502 A4,4 0 0 1 531.1508,1465.1502" fill="#EEEEEE" style="stroke:#C68A3A;stroke-width:1.5;"/><rect fill="none" height="161.6565" rx="4" ry="4" style="stroke:#C68A3A;stroke-width:1.5;" width="710.1778" x="527.1508" y="1465.1502"/><text fill="#000000" font-family="'Inter, Helvetica, sans-serif'" font-size="12" font-weight="700" lengthAdjust="spacing" textLength="15.1019" x="542.1508" y="1477.7749">alt</text><text fill="#C68A3A" font-family="'Inter, Helvetica, sans-serif'" font-size="12" font-weight="700" lengthAdjust="spacing" textLength="184.3933" x="602.2528" y="1478.7749">[WaitForExit retourne &#224; temps]</text><g class="message" data-entity-1="part7" data-entity-2="part5" data-source-line="59" id="msg34"><polygon fill="#1A1D24" points="816.4431,1498.1949,806.4431,1502.1949,816.4431,1506.1949,812.4431,1502.1949" style="stroke:#1A1D24;stroke-width:1;stroke-linejoin:miter;stroke-miterlimit:10;"/><line style="stroke:#1A1D24;stroke-width:1;stroke-dasharray:2,2;" x1="810.4431" x2="1184.3608" y1="1502.1949" y2="1502.1949"/><text fill="#000000" font-family="'Inter, Helvetica, sans-serif'" font-size="12" lengthAdjust="spacing" textLength="62.453" x="822.4431" y="1497.2973">code d'exit</text></g><g class="message" data-entity-1="part5" data-entity-2="part4" data-source-line="60" id="msg35"><polygon fill="#1A1D24" points="609.908,1541.2396,599.908,1545.2396,609.908,1549.2396,605.908,1545.2396" style="stroke:#1A1D24;stroke-width:1;stroke-linejoin:miter;stroke-miterlimit:10;"/><line style="stroke:#1A1D24;stroke-width:1;stroke-dasharray:2,2;" x1="603.908" x2="804.4431" y1="1545.2396" y2="1545.2396"/><text fill="#000000" font-family="'Inter, Helvetica, sans-serif'" font-size="12" lengthAdjust="spacing" textLength="141.985" x="615.908" y="1525.8196">code d'exit + marker-line</text><text fill="#000000" font-family="'Inter, Helvetica, sans-serif'" font-size="12" lengthAdjust="spacing" textLength="74.8617" x="622.6578" y="1540.342">stdout/stderr</text></g><line style="stroke:#C68A3A;stroke-width:1;stroke-dasharray:2,2;" x1="527.1508" x2="1237.3286" y1="1554.2396" y2="1554.2396"/><text fill="#C68A3A" font-family="'Inter, Helvetica, sans-serif'" font-size="12" font-weight="700" lengthAdjust="spacing" textLength="55.1919" x="532.1508" y="1565.8644">[timeout]</text><g class="message" data-entity-1="part5" data-entity-2="part6" data-source-line="62" id="msg36"><polygon fill="#1A1D24" points="974.2232,1586.2844,984.2232,1590.2844,974.2232,1594.2844,978.2232,1590.2844" style="stroke:#1A1D24;stroke-width:1;stroke-linejoin:miter;stroke-miterlimit:10;"/><line style="stroke:#1A1D24;stroke-width:1;" x1="805.4431" x2="980.2232" y1="1590.2844" y2="1590.2844"/><text fill="#000000" font-family="'Inter, Helvetica, sans-serif'" font-size="12" lengthAdjust="spacing" textLength="133.8204" x="812.4431" y="1585.3867">TerminateJobObject (1)</text></g><g class="message" data-entity-1="part5" data-entity-2="part4" data-source-line="63" id="msg37"><polygon fill="#1A1D24" points="609.908,1614.8067,599.908,1618.8067,609.908,1622.8067,605.908,1618.8067" style="stroke:#1A1D24;stroke-width:1;stroke-linejoin:miter;stroke-miterlimit:10;"/><line style="stroke:#1A1D24;stroke-width:1;stroke-dasharray:2,2;" x1="603.908" x2="804.4431" y1="1618.8067" y2="1618.8067"/><text fill="#000000" font-family="'Inter, Helvetica, sans-serif'" font-size="12" lengthAdjust="spacing" textLength="44.5898" x="615.908" y="1613.9091">exit 124</text></g><g class="message" data-entity-1="part4" data-entity-2="part2" data-source-line="65" id="msg38"><polygon fill="#1A1D24" points="298.5624,1650.3291,288.5624,1654.3291,298.5624,1658.3291,294.5624,1654.3291" style="stroke:#1A1D24;stroke-width:1;stroke-linejoin:miter;stroke-miterlimit:10;"/><line style="stroke:#1A1D24;stroke-width:1;stroke-dasharray:2,2;" x1="292.5624" x2="597.908" y1="1654.3291" y2="1654.3291"/><text fill="#000000" font-family="'Inter, Helvetica, sans-serif'" font-size="12" lengthAdjust="spacing" textLength="80.7252" x="304.5624" y="1649.4314">{pass, reason}</text></g><?plantuml-src jLRDRXit4BxlKqnpoGhMofRRNWAuXMpBXM9R4hHM3HS636ftP37caXkIgvy41dhBFUW3z5W_XzyaJzBXSlNd2W5Ij1TR8eVVD_Dnlg6-up8HHOhGQEpVLP_Dlh4BWGrUP288BBS28MOo7QavVFdz3qWM2QtGcIb7u4O9PhcIa3CDlHX28tY2S9ZMWe2MB4zupgI5LyOohXDci74hSSf4mInsB6QlW1c8hrgTmNPyCc6Q9HOr_u23GahKjp9Cb3HM5zm2fM2GPRNo-63OtJvyZxPAEVo8aeq4fey-zBGJzxTZ-yhmUHLzA_VXcijKpSp6ob0QDiPgeKJf3tg_lYWlPpC9OJBX8htBjKhG6CyOzrlNBz9xG2rHK3rQy8nR0_lmLesWDtg7YVMdpjk3RllYfIG43ld2JfJqQTm4GIaTH3yv4U0DS98Kq5WmFjr8u_k2lXCPWn4QnIMaHQaTw49MHTK2Tvf0d3o4GhGiCmqltVBoVmxAtMZDHPV19DqsrJlbAUeWOC9komMXocr4fBspipgapqzZLjXQ050HEYK9YbBfbtLTKQw6xZd5EbZtsSMMGMjUEz5gjkp9eMHJneLBT8bAWLwLIeuldpx3i7lPRiN3GViKmbnpfU6qULWBK1Y4pGw0K71PpFTJfcTSrc6PVVVVvRmADagIPSRKM_vCw6ASMdxZ-IcPgC9Ly2tL_hFUTPcqNHRdyNld6z2hfBA7bFJ9OS_nQtALeRyvzGeuaPwVM3Ogo6Xxu6gZVwlYraXbTxkEAQk2g0DH3D5nXTJ85muiHSkI2QPloBj8qFSwTpsJQwovRPHJoBZa6HCbjiTqQTuGCiunyPGtRiqRmocArji7kfJCoL5IwBf3QyL7FpOFB-jmqXyUDGzC7SxYpc_jeuCIf3eUBT6Ppf26YO4I2iq6KyLEqXJMnNWLo3oPIf__AdLXng2s_f2xpEex-SSGByufEK_hCJVqsjgh2bvVJ2AKmV2WjZoxtH4V7Jmr1edvM4QK5-svOKpjGVC4vmdcRZ1_XRxvLVWn8zGwQ6JKGlv499NyW5fji5gUeIeiNIhJI4CAvLZf1BSpNzNrm8M0AB_dASITNyux5nVVaaB5jS6kfgZ7WkoHlgQDlB3_1wr7ZfPS5RrCTpbAPrOZmapfXvHh2CdmJ8Y5ayETA9FUVc0Wf3dp_U5_C6bMLbGpr6Q2GZJ8En2TSUfL8edUgL4ZD-xMLmvRkUc4ghL8hv1_X63FMIb6st7tcPLF_6gpd0-jnF8fzlrBTzGihGUNc2czk71MAat8Z_swa_okrxrxspk-ExdenMsNzuOLbwbFI1F_uu9o3LvEWegi4Ljw5KC_SLo9jPqLjOpXzx8wSwLMsGUx_Uq7LZMKhnctPqgtdKiqMbNGUmtFVuARbkiHiP6u7msldKc2tOvU1z3So9Yctm0HFJNez34sfIQZtrtqXkfWsrdR4t5LtHLg6fbRLnOsQxkvlTaFVmYMRRkhxPVz_XYucBy1?></g></svg>