<svg xmlns="http://www.w3.org/2000/svg" xmlns:xlink="http://www.w3.org/1999/xlink" contentStyleType="text/css" data-diagram-type="CLASS" height="1068px" preserveAspectRatio="none" style="width:1779px;height:1068px;background:#F4EEE3;" version="1.1" viewBox="0 0 1779 1068" width="1779px" zoomAndPan="magnify"><?plantuml 1.2026.4?><defs/><g><rect fill="#F4EEE3" height="1068" style="stroke:none;stroke-width:1;" width="1779" x="0" y="0"/><g class="title" data-source-line="11"><text fill="#000000" font-family="'Inter, Helvetica, sans-serif'" font-size="14" font-weight="700" lengthAdjust="spacing" textLength="430.672" x="670.8248" y="23.5623">BehavioralSignature &#8212; forme sur disque (`.ts/&lt;fichier&gt;.json`)</text></g><!--cluster PKG_ROUTING_TYPES--><g class="cluster" data-qualified-name="PKG_ROUTING_TYPES" data-source-line="10" id="ent0001"><path d="M200.5,161.9429 L365.5244,161.9429 A6,6 0 0 1 369.5244,165.9429 L376.5244,182.4652 L1411.5,182.4652 A4,4 0 0 1 1415.5,186.4652 L1415.5,925.9429 A4,4 0 0 1 1411.5,929.9429 L200.5,929.9429 A4,4 0 0 1 196.5,925.9429 L196.5,165.9429 A4,4 0 0 1 200.5,161.9429" fill="#F4EEE3" style="stroke:#C68A3A;stroke-width:1.5;"/><line style="stroke:#C68A3A;stroke-width:1.5;" x1="196.5" x2="376.5244" y1="182.4652" y2="182.4652"/><text fill="#0E1014" font-family="'Inter, Helvetica, sans-serif'" font-size="12" font-weight="700" lengthAdjust="spacing" textLength="167.0244" x="200.5" y="175.5676">src/shared/RoutingTypes.ts</text><text fill="#C68A3A" font-family="'Inter, Helvetica, sans-serif'" font-size="12" font-style="italic" lengthAdjust="spacing" textLength="48.6806" x="785.6597" y="196.0899">&#171;Frame&#187;</text></g><!--class Signature--><g class="entity" data-qualified-name="PKG_ROUTING_TYPES.Signature" data-source-line="12" id="ent0002"><rect fill="#FFFFFF" height="162.1789" rx="4" ry="4" style="stroke:#0E1014;stroke-width:0.5;" width="381.7523" x="423.5" y="209.9429"/><ellipse cx="583.1808" cy="224.9429" fill="#ADD1B2" rx="10" ry="10" style="stroke:#181818;stroke-width:1;"/><path d="M584.6652,222.146 Q584.7746,221.9898 584.8996,221.9116 Q585.0402,221.8335 585.1964,221.8335 Q585.4621,221.8335 585.6183,222.021 Q585.7902,222.2085 585.7902,222.6304 L585.7902,223.6616 Q585.7902,224.0835 585.6183,224.271 Q585.4621,224.4585 585.1964,224.4585 Q584.9464,224.4585 584.8058,224.3179 Q584.6652,224.1929 584.5871,223.8179 Q584.5558,223.5679 584.4308,223.4429 Q584.1808,223.1773 583.7433,223.021 Q583.3214,222.8648 582.8839,222.8648 Q582.3527,222.8648 581.8996,223.0991 Q581.4464,223.3335 581.1027,223.8648 Q580.7589,224.3804 580.7589,225.1148 L580.7589,225.896 Q580.7589,226.7554 581.3839,227.3335 Q582.0246,227.9116 583.1339,227.9116 Q583.8058,227.9116 584.2746,227.7398 Q584.5402,227.6304 584.8371,227.3179 Q585.0246,227.1304 585.1339,227.0835 Q585.2433,227.021 585.3683,227.021 Q585.6183,227.021 585.7902,227.2085 Q585.9777,227.3804 585.9777,227.6304 Q585.9777,227.8804 585.7277,228.1616 Q585.3683,228.5679 584.8058,228.8023 Q584.0558,229.1148 583.1496,229.1148 Q582.0714,229.1148 581.2277,228.6773 Q580.5246,228.3335 580.0402,227.5679 Q579.5558,226.8023 579.5558,225.9116 L579.5558,225.0991 Q579.5558,224.1616 579.9933,223.3491 Q580.4308,222.5366 581.1964,222.0991 Q581.9777,221.6616 582.8371,221.6616 Q583.3683,221.6616 583.8214,221.7866 Q584.2746,221.896 584.6652,222.146 Z " fill="#000000"/><text fill="#000000" font-family="'Inter, Helvetica, sans-serif'" font-size="12" lengthAdjust="spacing" textLength="54.3907" x="602.1808" y="229.3064">Signature</text><line style="stroke:#0E1014;stroke-width:0.5;" x1="424.5" x2="804.2523" y1="239.9429" y2="239.9429"/><g data-visibility-modifier="PUBLIC_FIELD"><ellipse cx="434.5" cy="252.7041" fill="none" rx="3" ry="3" style="stroke:#038048;stroke-width:1;"/></g><text fill="#000000" font-family="'Inter, Helvetica, sans-serif'" font-size="12" lengthAdjust="spacing" textLength="106.2245" x="442.5" y="255.5676">modelHash : string</text><g data-visibility-modifier="PUBLIC_FIELD"><ellipse cx="434.5" cy="267.2264" fill="none" rx="3" ry="3" style="stroke:#038048;stroke-width:1;"/></g><text fill="#000000" font-family="'Inter, Helvetica, sans-serif'" font-size="12" lengthAdjust="spacing" textLength="116.6391" x="442.5" y="270.0899">suite_version : string</text><g data-visibility-modifier="PUBLIC_FIELD"><ellipse cx="434.5" cy="281.7488" fill="none" rx="3" ry="3" style="stroke:#038048;stroke-width:1;"/></g><text fill="#000000" font-family="'Inter, Helvetica, sans-serif'" font-size="12" lengthAdjust="spacing" textLength="155.979" x="442.5" y="284.6123">characterized_at : ISO 8601</text><g data-visibility-modifier="PUBLIC_FIELD"><ellipse cx="434.5" cy="296.2711" fill="none" rx="3" ry="3" style="stroke:#038048;stroke-width:1;"/></g><text fill="#000000" font-family="'Inter, Helvetica, sans-serif'" font-size="12" lengthAdjust="spacing" textLength="356.7523" x="442.5" y="299.1347">characterization_state : 'complete' | 'incomplete' | 'quarantined'</text><g data-visibility-modifier="PUBLIC_FIELD"><ellipse cx="434.5" cy="310.7935" fill="none" rx="3" ry="3" style="stroke:#038048;stroke-width:1;"/></g><text fill="#000000" font-family="'Inter, Helvetica, sans-serif'" font-size="12" lengthAdjust="spacing" textLength="174.2001" x="442.5" y="313.657">structural : StructuralSignature</text><g data-visibility-modifier="PUBLIC_FIELD"><ellipse cx="434.5" cy="325.3159" fill="none" rx="3" ry="3" style="stroke:#038048;stroke-width:1;"/></g><text fill="#000000" font-family="'Inter, Helvetica, sans-serif'" font-size="12" lengthAdjust="spacing" textLength="182.9272" x="442.5" y="328.1794">behavioral : BehavioralSignature</text><g data-visibility-modifier="PUBLIC_FIELD"><ellipse cx="434.5" cy="339.8382" fill="none" rx="3" ry="3" style="stroke:#038048;stroke-width:1;"/></g><text fill="#000000" font-family="'Inter, Helvetica, sans-serif'" font-size="12" lengthAdjust="spacing" textLength="171.2854" x="442.5" y="342.7017">qcm_reliability : QcmReliability</text><line style="stroke:#0E1014;stroke-width:0.5;" x1="424.5" x2="804.2523" y1="349.5994" y2="349.5994"/><g data-visibility-modifier="PUBLIC_METHOD"><ellipse cx="434.5" cy="362.3606" fill="#84BE84" rx="3" ry="3" style="stroke:#038048;stroke-width:1;"/></g><text fill="#000000" font-family="'Inter, Helvetica, sans-serif'" font-size="12" lengthAdjust="spacing" textLength="116.2641" x="442.5" y="365.2241">embedder_id : string</text><text fill="#000000" font-family="'Inter, Helvetica, sans-serif'" font-size="12" font-style="italic" lengthAdjust="spacing" textLength="51.2885" x="568.8888" y="365.2241">(slice 7c)</text></g><!--class StructuralSignature--><g class="entity" data-qualified-name="PKG_ROUTING_TYPES.StructuralSignature" data-source-line="23" id="ent0003"><rect fill="#FFFFFF" height="133.1341" rx="4" ry="4" style="stroke:#0E1014;stroke-width:0.5;" width="281.4082" x="667" y="502.4429"/><ellipse cx="748.7254" cy="517.4429" fill="#ADD1B2" rx="10" ry="10" style="stroke:#181818;stroke-width:1;"/><path d="M750.2098,514.646 Q750.3191,514.4898 750.4441,514.4116 Q750.5848,514.3335 750.741,514.3335 Q751.0066,514.3335 751.1629,514.521 Q751.3348,514.7085 751.3348,515.1304 L751.3348,516.1616 Q751.3348,516.5835 751.1629,516.771 Q751.0066,516.9585 750.741,516.9585 Q750.491,516.9585 750.3504,516.8179 Q750.2098,516.6929 750.1316,516.3179 Q750.1004,516.0679 749.9754,515.9429 Q749.7254,515.6773 749.2879,515.521 Q748.866,515.3648 748.4285,515.3648 Q747.8973,515.3648 747.4441,515.5991 Q746.991,515.8335 746.6473,516.3648 Q746.3035,516.8804 746.3035,517.6148 L746.3035,518.396 Q746.3035,519.2554 746.9285,519.8335 Q747.5691,520.4116 748.6785,520.4116 Q749.3504,520.4116 749.8191,520.2398 Q750.0848,520.1304 750.3816,519.8179 Q750.5691,519.6304 750.6785,519.5835 Q750.7879,519.521 750.9129,519.521 Q751.1629,519.521 751.3348,519.7085 Q751.5223,519.8804 751.5223,520.1304 Q751.5223,520.3804 751.2723,520.6616 Q750.9129,521.0679 750.3504,521.3023 Q749.6004,521.6148 748.6941,521.6148 Q747.616,521.6148 746.7723,521.1773 Q746.0691,520.8335 745.5848,520.0679 Q745.1004,519.3023 745.1004,518.4116 L745.1004,517.5991 Q745.1004,516.6616 745.5379,515.8491 Q745.9754,515.0366 746.741,514.5991 Q747.5223,514.1616 748.3816,514.1616 Q748.9129,514.1616 749.366,514.2866 Q749.8191,514.396 750.2098,514.646 Z " fill="#000000"/><text fill="#000000" font-family="'Inter, Helvetica, sans-serif'" font-size="12" lengthAdjust="spacing" textLength="109.9574" x="767.7254" y="521.8064">StructuralSignature</text><line style="stroke:#0E1014;stroke-width:0.5;" x1="668" x2="947.4082" y1="532.4429" y2="532.4429"/><g data-visibility-modifier="PUBLIC_FIELD"><ellipse cx="678" cy="545.2041" fill="none" rx="3" ry="3" style="stroke:#038048;stroke-width:1;"/></g><text fill="#000000" font-family="'Inter, Helvetica, sans-serif'" font-size="12" lengthAdjust="spacing" textLength="127.2922" x="686" y="548.0676">tensor_count : number</text><g data-visibility-modifier="PUBLIC_FIELD"><ellipse cx="678" cy="559.7264" fill="none" rx="3" ry="3" style="stroke:#038048;stroke-width:1;"/></g><text fill="#000000" font-family="'Inter, Helvetica, sans-serif'" font-size="12" lengthAdjust="spacing" textLength="67.3619" x="686" y="562.5899">arch : string</text><g data-visibility-modifier="PUBLIC_FIELD"><ellipse cx="678" cy="574.2488" fill="none" rx="3" ry="3" style="stroke:#038048;stroke-width:1;"/></g><text fill="#000000" font-family="'Inter, Helvetica, sans-serif'" font-size="12" lengthAdjust="spacing" textLength="74.7765" x="686" y="577.1123">quant : string</text><g data-visibility-modifier="PUBLIC_FIELD"><ellipse cx="678" cy="588.7711" fill="none" rx="3" ry="3" style="stroke:#038048;stroke-width:1;"/></g><text fill="#000000" font-family="'Inter, Helvetica, sans-serif'" font-size="12" lengthAdjust="spacing" textLength="100.0202" x="686" y="591.6347">ctx_max : number</text><g data-visibility-modifier="PUBLIC_FIELD"><ellipse cx="678" cy="603.2935" fill="none" rx="3" ry="3" style="stroke:#038048;stroke-width:1;"/></g><text fill="#000000" font-family="'Inter, Helvetica, sans-serif'" font-size="12" lengthAdjust="spacing" textLength="9.852" x="686" y="606.157">&#8230;</text><line style="stroke:#0E1014;stroke-width:0.5;" x1="668" x2="947.4082" y1="613.0547" y2="613.0547"/><g data-visibility-modifier="PUBLIC_METHOD"><ellipse cx="678" cy="625.8159" fill="#84BE84" rx="3" ry="3" style="stroke:#038048;stroke-width:1;"/></g><text fill="#000000" font-family="'Inter, Helvetica, sans-serif'" font-size="12" lengthAdjust="spacing" textLength="162.6265" x="686" y="628.6794">est_footprint_bytes : number</text><text fill="#000000" font-family="'Inter, Helvetica, sans-serif'" font-size="12" font-style="italic" lengthAdjust="spacing" textLength="87.0319" x="855.3764" y="628.6794">(D9 fit-scoring)</text></g><!--class BehavioralSignature--><g class="entity" data-qualified-name="PKG_ROUTING_TYPES.BehavioralSignature" data-source-line="32" id="ent0004"><rect fill="#FFFFFF" height="271.8354" rx="4" ry="4" style="stroke:#0E1014;stroke-width:0.5;" width="418.5269" x="213" y="432.9429"/><ellipse cx="361.3587" cy="447.9429" fill="#ADD1B2" rx="10" ry="10" style="stroke:#181818;stroke-width:1;"/><path d="M362.843,445.146 Q362.9524,444.9898 363.0774,444.9116 Q363.218,444.8335 363.3743,444.8335 Q363.6399,444.8335 363.7962,445.021 Q363.968,445.2085 363.968,445.6304 L363.968,446.6616 Q363.968,447.0835 363.7962,447.271 Q363.6399,447.4585 363.3743,447.4585 Q363.1243,447.4585 362.9837,447.3179 Q362.843,447.1929 362.7649,446.8179 Q362.7337,446.5679 362.6087,446.4429 Q362.3587,446.1773 361.9212,446.021 Q361.4993,445.8648 361.0618,445.8648 Q360.5305,445.8648 360.0774,446.0991 Q359.6243,446.3335 359.2805,446.8648 Q358.9368,447.3804 358.9368,448.1148 L358.9368,448.896 Q358.9368,449.7554 359.5618,450.3335 Q360.2024,450.9116 361.3118,450.9116 Q361.9837,450.9116 362.4524,450.7398 Q362.718,450.6304 363.0149,450.3179 Q363.2024,450.1304 363.3118,450.0835 Q363.4212,450.021 363.5462,450.021 Q363.7962,450.021 363.968,450.2085 Q364.1555,450.3804 364.1555,450.6304 Q364.1555,450.8804 363.9055,451.1616 Q363.5462,451.5679 362.9837,451.8023 Q362.2337,452.1148 361.3274,452.1148 Q360.2493,452.1148 359.4055,451.6773 Q358.7024,451.3335 358.218,450.5679 Q357.7337,449.8023 357.7337,448.9116 L357.7337,448.0991 Q357.7337,447.1616 358.1712,446.3491 Q358.6087,445.5366 359.3743,445.0991 Q360.1555,444.6616 361.0149,444.6616 Q361.5462,444.6616 361.9993,444.7866 Q362.4524,444.896 362.843,445.146 Z " fill="#000000"/><text fill="#000000" font-family="'Inter, Helvetica, sans-serif'" font-size="12" lengthAdjust="spacing" textLength="113.8096" x="380.3587" y="452.3064">BehavioralSignature</text><line style="stroke:#0E1014;stroke-width:0.5;" x1="214" x2="630.5269" y1="462.9429" y2="462.9429"/><g data-visibility-modifier="PUBLIC_FIELD"><ellipse cx="224" cy="475.7041" fill="none" rx="3" ry="3" style="stroke:#038048;stroke-width:1;"/></g><text fill="#000000" font-family="'Inter, Helvetica, sans-serif'" font-size="12" lengthAdjust="spacing" textLength="318.6055" x="232" y="478.5676">diagnostic_run : Record&lt;promptId, DiagnosticRunEntry&gt;</text><g data-visibility-modifier="PUBLIC_FIELD"><ellipse cx="224" cy="490.2264" fill="none" rx="3" ry="3" style="stroke:#038048;stroke-width:1;"/></g><text fill="#000000" font-family="'Inter, Helvetica, sans-serif'" font-size="12" lengthAdjust="spacing" textLength="341.3094" x="232" y="493.0899">scores_per_axis : Partial&lt;Record&lt;DiagnosticAxis, number&gt;&gt;</text><g data-visibility-modifier="PUBLIC_FIELD"><ellipse cx="224" cy="504.7488" fill="none" rx="3" ry="3" style="stroke:#038048;stroke-width:1;"/></g><text fill="#000000" font-family="'Inter, Helvetica, sans-serif'" font-size="12" lengthAdjust="spacing" textLength="316.5601" x="232" y="507.6123">n_per_axis? : Partial&lt;Record&lt;DiagnosticAxis, number&gt;&gt;</text><g data-visibility-modifier="PUBLIC_FIELD"><ellipse cx="224" cy="519.2711" fill="none" rx="3" ry="3" style="stroke:#038048;stroke-width:1;"/></g><text fill="#000000" font-family="'Inter, Helvetica, sans-serif'" font-size="12" lengthAdjust="spacing" textLength="97.2248" x="232" y="522.1347">overall? : number</text><line style="stroke:#0E1014;stroke-width:1;" x1="214" x2="630.5269" y1="529.0323" y2="529.0323"/><text fill="#000000" font-family="'Inter, Helvetica, sans-serif'" font-size="12" font-weight="700" lengthAdjust="spacing" textLength="192.3533" x="232" y="544.657">Champs tree-routing (slice 4c+)</text><g data-visibility-modifier="PUBLIC_METHOD"><ellipse cx="224" cy="556.3159" fill="#84BE84" rx="3" ry="3" style="stroke:#038048;stroke-width:1;"/></g><text fill="#000000" font-family="'Inter, Helvetica, sans-serif'" font-size="12" lengthAdjust="spacing" textLength="242.3972" x="232" y="559.1794">scores_per_leaf? : Record&lt;leafId, number&gt;</text><text fill="#000000" font-family="'Inter, Helvetica, sans-serif'" font-size="12" font-style="italic" lengthAdjust="spacing" textLength="116.1788" x="481.147" y="559.1794">(0..1 &#8212; voir scheme)</text><g data-visibility-modifier="PUBLIC_FIELD"><ellipse cx="224" cy="570.8382" fill="none" rx="3" ry="3" style="stroke:#038048;stroke-width:1;"/></g><text fill="#000000" font-family="'Inter, Helvetica, sans-serif'" font-size="12" lengthAdjust="spacing" textLength="369.2463" x="232" y="573.7017">branch_scores? : Partial&lt;Record&lt;CompetenceBranch, number&gt;&gt;</text><g data-visibility-modifier="PUBLIC_FIELD"><ellipse cx="224" cy="585.3606" fill="none" rx="3" ry="3" style="stroke:#038048;stroke-width:1;"/></g><text fill="#000000" font-family="'Inter, Helvetica, sans-serif'" font-size="12" lengthAdjust="spacing" textLength="211.5628" x="232" y="588.2241">n_per_leaf? : Record&lt;leafId, number&gt;</text><g data-visibility-modifier="PUBLIC_METHOD"><ellipse cx="224" cy="599.8829" fill="#84BE84" rx="3" ry="3" style="stroke:#038048;stroke-width:1;"/></g><text fill="#000000" font-family="'Inter, Helvetica, sans-serif'" font-size="12" lengthAdjust="spacing" textLength="244.4256" x="232" y="602.7465">passes_per_leaf? : Record&lt;leafId, number&gt;</text><text fill="#000000" font-family="'Inter, Helvetica, sans-serif'" font-size="12" font-style="italic" lengthAdjust="spacing" textLength="142.3515" x="483.1754" y="602.7465">(beta-laplace seulement)</text><g data-visibility-modifier="PUBLIC_FIELD"><ellipse cx="224" cy="614.4053" fill="none" rx="3" ry="3" style="stroke:#038048;stroke-width:1;"/></g><text fill="#000000" font-family="'Inter, Helvetica, sans-serif'" font-size="12" lengthAdjust="spacing" textLength="318.5885" x="232" y="617.2688">scoring_scheme? : 'beta-laplace-v1' | 'breaking-rung-v0'</text><line style="stroke:#0E1014;stroke-width:1;" x1="214" x2="630.5269" y1="624.1665" y2="624.1665"/><text fill="#000000" font-family="'Inter, Helvetica, sans-serif'" font-size="12" font-weight="700" lengthAdjust="spacing" textLength="154.8713" x="232" y="639.7912">Sonde Free-gen (slice 7c)</text><g data-visibility-modifier="PUBLIC_METHOD"><ellipse cx="224" cy="651.45" fill="#84BE84" rx="3" ry="3" style="stroke:#038048;stroke-width:1;"/></g><text fill="#000000" font-family="'Inter, Helvetica, sans-serif'" font-size="12" lengthAdjust="spacing" textLength="291.4017" x="232" y="654.3135">topic_coverage_per_leaf? : Record&lt;leafId, number&gt;</text><text fill="#000000" font-family="'Inter, Helvetica, sans-serif'" font-size="12" font-style="italic" lengthAdjust="spacing" textLength="51.9362" x="530.1515" y="654.3135">(cosinus)</text><g data-visibility-modifier="PUBLIC_FIELD"><ellipse cx="224" cy="665.9724" fill="none" rx="3" ry="3" style="stroke:#038048;stroke-width:1;"/></g><text fill="#000000" font-family="'Inter, Helvetica, sans-serif'" font-size="12" lengthAdjust="spacing" textLength="390.9446" x="232" y="668.8359">topic_coverage_per_branch? : Record&lt;CompetenceBranch, number&gt;</text><g data-visibility-modifier="PUBLIC_FIELD"><ellipse cx="224" cy="680.4947" fill="none" rx="3" ry="3" style="stroke:#038048;stroke-width:1;"/></g><text fill="#000000" font-family="'Inter, Helvetica, sans-serif'" font-size="12" lengthAdjust="spacing" textLength="144.0816" x="232" y="683.3582">freegen_words? : number</text><g data-visibility-modifier="PUBLIC_FIELD"><ellipse cx="224" cy="695.0171" fill="none" rx="3" ry="3" style="stroke:#038048;stroke-width:1;"/></g><text fill="#000000" font-family="'Inter, Helvetica, sans-serif'" font-size="12" lengthAdjust="spacing" textLength="141.2351" x="232" y="697.8806">freegen_excerpt? : string</text></g><!--class DiagnosticRunEntry--><g class="entity" data-qualified-name="PKG_ROUTING_TYPES.DiagnosticRunEntry" data-source-line="52" id="ent0005"><rect fill="#FFFFFF" height="147.6565" rx="4" ry="4" style="stroke:#0E1014;stroke-width:0.5;" width="153.8774" x="345.5" y="765.9429"/><ellipse cx="365.1657" cy="780.9429" fill="#ADD1B2" rx="10" ry="10" style="stroke:#181818;stroke-width:1;"/><path d="M366.6501,778.146 Q366.7595,777.9898 366.8845,777.9116 Q367.0251,777.8335 367.1813,777.8335 Q367.447,777.8335 367.6032,778.021 Q367.7751,778.2085 367.7751,778.6304 L367.7751,779.6616 Q367.7751,780.0835 367.6032,780.271 Q367.447,780.4585 367.1813,780.4585 Q366.9313,780.4585 366.7907,780.3179 Q366.6501,780.1929 366.572,779.8179 Q366.5407,779.5679 366.4157,779.4429 Q366.1657,779.1773 365.7282,779.021 Q365.3063,778.8648 364.8688,778.8648 Q364.3376,778.8648 363.8845,779.0991 Q363.4313,779.3335 363.0876,779.8648 Q362.7438,780.3804 362.7438,781.1148 L362.7438,781.896 Q362.7438,782.7554 363.3688,783.3335 Q364.0095,783.9116 365.1188,783.9116 Q365.7907,783.9116 366.2595,783.7398 Q366.5251,783.6304 366.822,783.3179 Q367.0095,783.1304 367.1188,783.0835 Q367.2282,783.021 367.3532,783.021 Q367.6032,783.021 367.7751,783.2085 Q367.9626,783.3804 367.9626,783.6304 Q367.9626,783.8804 367.7126,784.1616 Q367.3532,784.5679 366.7907,784.8023 Q366.0407,785.1148 365.1345,785.1148 Q364.0563,785.1148 363.2126,784.6773 Q362.5095,784.3335 362.0251,783.5679 Q361.5407,782.8023 361.5407,781.9116 L361.5407,781.0991 Q361.5407,780.1616 361.9782,779.3491 Q362.4157,778.5366 363.1813,778.0991 Q363.9626,777.6616 364.822,777.6616 Q365.3532,777.6616 365.8063,777.7866 Q366.2595,777.896 366.6501,778.146 Z " fill="#000000"/><text fill="#000000" font-family="'Inter, Helvetica, sans-serif'" font-size="12" lengthAdjust="spacing" textLength="111.287" x="379.4247" y="785.3064">DiagnosticRunEntry</text><line style="stroke:#0E1014;stroke-width:0.5;" x1="346.5" x2="498.3774" y1="795.9429" y2="795.9429"/><g data-visibility-modifier="PUBLIC_FIELD"><ellipse cx="356.5" cy="808.7041" fill="none" rx="3" ry="3" style="stroke:#038048;stroke-width:1;"/></g><text fill="#000000" font-family="'Inter, Helvetica, sans-serif'" font-size="12" lengthAdjust="spacing" textLength="52.635" x="364.5" y="811.5676">id : string</text><g data-visibility-modifier="PUBLIC_FIELD"><ellipse cx="356.5" cy="823.2264" fill="none" rx="3" ry="3" style="stroke:#038048;stroke-width:1;"/></g><text fill="#000000" font-family="'Inter, Helvetica, sans-serif'" font-size="12" lengthAdjust="spacing" textLength="128.8774" x="364.5" y="826.0899">axes : DiagnosticAxis[]</text><g data-visibility-modifier="PUBLIC_FIELD"><ellipse cx="356.5" cy="837.7488" fill="none" rx="3" ry="3" style="stroke:#038048;stroke-width:1;"/></g><text fill="#000000" font-family="'Inter, Helvetica, sans-serif'" font-size="12" lengthAdjust="spacing" textLength="82.0718" x="364.5" y="840.6123">pass : boolean</text><g data-visibility-modifier="PUBLIC_FIELD"><ellipse cx="356.5" cy="852.2711" fill="none" rx="3" ry="3" style="stroke:#038048;stroke-width:1;"/></g><text fill="#000000" font-family="'Inter, Helvetica, sans-serif'" font-size="12" lengthAdjust="spacing" textLength="91.0545" x="364.5" y="855.1347">score? : number</text><g data-visibility-modifier="PUBLIC_FIELD"><ellipse cx="356.5" cy="866.7935" fill="none" rx="3" ry="3" style="stroke:#038048;stroke-width:1;"/></g><text fill="#000000" font-family="'Inter, Helvetica, sans-serif'" font-size="12" lengthAdjust="spacing" textLength="94.8214" x="364.5" y="869.657">response : string</text><g data-visibility-modifier="PUBLIC_FIELD"><ellipse cx="356.5" cy="881.3159" fill="none" rx="3" ry="3" style="stroke:#038048;stroke-width:1;"/></g><text fill="#000000" font-family="'Inter, Helvetica, sans-serif'" font-size="12" lengthAdjust="spacing" textLength="79.6854" x="364.5" y="884.1794">detail? : string</text><g data-visibility-modifier="PUBLIC_FIELD"><ellipse cx="356.5" cy="895.8382" fill="none" rx="3" ry="3" style="stroke:#038048;stroke-width:1;"/></g><text fill="#000000" font-family="'Inter, Helvetica, sans-serif'" font-size="12" lengthAdjust="spacing" textLength="75.9696" x="364.5" y="898.7017">error? : string</text><line style="stroke:#0E1014;stroke-width:0.5;" x1="346.5" x2="498.3774" y1="905.5994" y2="905.5994"/></g><!--class QcmReliability--><g class="entity" data-qualified-name="PKG_ROUTING_TYPES.QcmReliability" data-source-line="62" id="ent0006"><rect fill="#FFFFFF" height="104.0894" rx="4" ry="4" style="stroke:#0E1014;stroke-width:0.5;" width="415.6633" x="983.5" y="516.9429"/><ellipse cx="1147.1224" cy="531.9429" fill="#ADD1B2" rx="10" ry="10" style="stroke:#181818;stroke-width:1;"/><path d="M1148.6068,529.146 Q1148.7162,528.9898 1148.8412,528.9116 Q1148.9818,528.8335 1149.1381,528.8335 Q1149.4037,528.8335 1149.5599,529.021 Q1149.7318,529.2085 1149.7318,529.6304 L1149.7318,530.6616 Q1149.7318,531.0835 1149.5599,531.271 Q1149.4037,531.4585 1149.1381,531.4585 Q1148.8881,531.4585 1148.7474,531.3179 Q1148.6068,531.1929 1148.5287,530.8179 Q1148.4974,530.5679 1148.3724,530.4429 Q1148.1224,530.1773 1147.6849,530.021 Q1147.2631,529.8648 1146.8256,529.8648 Q1146.2943,529.8648 1145.8412,530.0991 Q1145.3881,530.3335 1145.0443,530.8648 Q1144.7006,531.3804 1144.7006,532.1148 L1144.7006,532.896 Q1144.7006,533.7554 1145.3256,534.3335 Q1145.9662,534.9116 1147.0756,534.9116 Q1147.7474,534.9116 1148.2162,534.7398 Q1148.4818,534.6304 1148.7787,534.3179 Q1148.9662,534.1304 1149.0756,534.0835 Q1149.1849,534.021 1149.3099,534.021 Q1149.5599,534.021 1149.7318,534.2085 Q1149.9193,534.3804 1149.9193,534.6304 Q1149.9193,534.8804 1149.6693,535.1616 Q1149.3099,535.5679 1148.7474,535.8023 Q1147.9974,536.1148 1147.0912,536.1148 Q1146.0131,536.1148 1145.1693,535.6773 Q1144.4662,535.3335 1143.9818,534.5679 Q1143.4974,533.8023 1143.4974,532.9116 L1143.4974,532.0991 Q1143.4974,531.1616 1143.9349,530.3491 Q1144.3724,529.5366 1145.1381,529.0991 Q1145.9193,528.6616 1146.7787,528.6616 Q1147.3099,528.6616 1147.7631,528.7866 Q1148.2162,528.896 1148.6068,529.146 Z " fill="#000000"/><text fill="#000000" font-family="'Inter, Helvetica, sans-serif'" font-size="12" lengthAdjust="spacing" textLength="80.4184" x="1166.1224" y="536.3064">QcmReliability</text><line style="stroke:#0E1014;stroke-width:0.5;" x1="984.5" x2="1398.1633" y1="546.9429" y2="546.9429"/><g data-visibility-modifier="PUBLIC_FIELD"><ellipse cx="994.5" cy="559.7041" fill="none" rx="3" ry="3" style="stroke:#038048;stroke-width:1;"/></g><text fill="#000000" font-family="'Inter, Helvetica, sans-serif'" font-size="12" lengthAdjust="spacing" textLength="121.4117" x="1002.5" y="562.5676">consistency : number</text><g data-visibility-modifier="PUBLIC_FIELD"><ellipse cx="994.5" cy="574.2264" fill="none" rx="3" ry="3" style="stroke:#038048;stroke-width:1;"/></g><text fill="#000000" font-family="'Inter, Helvetica, sans-serif'" font-size="12" lengthAdjust="spacing" textLength="60.4075" x="1002.5" y="577.0899">n : number</text><line style="stroke:#0E1014;stroke-width:0.5;" x1="984.5" x2="1398.1633" y1="583.9876" y2="583.9876"/><g data-visibility-modifier="PUBLIC_METHOD"><ellipse cx="994.5" cy="596.7488" fill="#84BE84" rx="3" ry="3" style="stroke:#038048;stroke-width:1;"/></g><text fill="#000000" font-family="'Inter, Helvetica, sans-serif'" font-size="12" lengthAdjust="spacing" textLength="156.7801" x="1002.5" y="599.6123">format_adherence : number</text><text fill="#000000" font-family="'Inter, Helvetica, sans-serif'" font-size="12" font-style="italic" lengthAdjust="spacing" textLength="28.38" x="1166.0299" y="599.6123">(0..1)</text><g data-visibility-modifier="PUBLIC_METHOD"><ellipse cx="994.5" cy="611.2711" fill="#84BE84" rx="3" ry="3" style="stroke:#038048;stroke-width:1;"/></g><text fill="#000000" font-family="'Inter, Helvetica, sans-serif'" font-size="12" lengthAdjust="spacing" textLength="91.1397" x="1002.5" y="614.1347">overall : number</text><text fill="#000000" font-family="'Inter, Helvetica, sans-serif'" font-size="12" font-style="italic" lengthAdjust="spacing" textLength="292.7737" x="1100.3895" y="614.1347">(affichage seul &#8212; N'ENTRE JAMAIS dans le routing)</text></g><!--class STORE--><g class="entity" data-qualified-name="STORE" data-source-line="19" id="ent0007"><rect fill="#FFFFFF" height="55.0447" rx="4" ry="4" style="stroke:#0E1014;stroke-width:0.5;" width="219.8304" x="20.5" y="44.9429"/><ellipse cx="34.5" cy="64.4652" fill="#ADD1B2" rx="10" ry="10" style="stroke:#181818;stroke-width:1;"/><path d="M35.9844,61.6684 Q36.0938,61.5121 36.2188,61.434 Q36.3594,61.3559 36.5156,61.3559 Q36.7813,61.3559 36.9375,61.5434 Q37.1094,61.7309 37.1094,62.1527 L37.1094,63.184 Q37.1094,63.6059 36.9375,63.7934 Q36.7813,63.9809 36.5156,63.9809 Q36.2656,63.9809 36.125,63.8402 Q35.9844,63.7152 35.9063,63.3402 Q35.875,63.0902 35.75,62.9652 Q35.5,62.6996 35.0625,62.5434 Q34.6406,62.3871 34.2031,62.3871 Q33.6719,62.3871 33.2188,62.6215 Q32.7656,62.8559 32.4219,63.3871 Q32.0781,63.9027 32.0781,64.6371 L32.0781,65.4184 Q32.0781,66.2777 32.7031,66.8559 Q33.3438,67.434 34.4531,67.434 Q35.125,67.434 35.5938,67.2621 Q35.8594,67.1527 36.1563,66.8402 Q36.3438,66.6527 36.4531,66.6059 Q36.5625,66.5434 36.6875,66.5434 Q36.9375,66.5434 37.1094,66.7309 Q37.2969,66.9027 37.2969,67.1527 Q37.2969,67.4027 37.0469,67.684 Q36.6875,68.0902 36.125,68.3246 Q35.375,68.6371 34.4688,68.6371 Q33.3906,68.6371 32.5469,68.1996 Q31.8438,67.8559 31.3594,67.0902 Q30.875,66.3246 30.875,65.434 L30.875,64.6215 Q30.875,63.684 31.3125,62.8715 Q31.75,62.059 32.5156,61.6215 Q33.2969,61.184 34.1563,61.184 Q34.6875,61.184 35.1406,61.309 Q35.5938,61.4184 35.9844,61.6684 Z " fill="#000000"/><text fill="#000000" font-family="'Inter, Helvetica, sans-serif'" font-size="12" lengthAdjust="spacing" textLength="97.5827" x="93.6238" y="61.5676">signatureStore.ts</text><text fill="#000000" font-family="'Inter, Helvetica, sans-serif'" font-size="12" lengthAdjust="spacing" textLength="189.8304" x="47.5" y="76.0899">loadSignature() / writeSignature()</text><line style="stroke:#0E1014;stroke-width:0.5;" x1="21.5" x2="239.3304" y1="83.9876" y2="83.9876"/><line style="stroke:#0E1014;stroke-width:0.5;" x1="21.5" x2="239.3304" y1="91.9876" y2="91.9876"/></g><!--class DISK--><g class="entity" data-qualified-name="DISK" data-source-line="20" id="ent0008"><rect fill="#FFFFFF" height="69.5671" rx="4" ry="4" style="stroke:#0E1014;stroke-width:0.5;" width="173.2975" x="7" y="255.9429"/><ellipse cx="21" cy="282.7264" fill="#ADD1B2" rx="10" ry="10" style="stroke:#181818;stroke-width:1;"/><path d="M22.4844,279.9295 Q22.5938,279.7733 22.7188,279.6952 Q22.8594,279.617 23.0156,279.617 Q23.2813,279.617 23.4375,279.8045 Q23.6094,279.992 23.6094,280.4139 L23.6094,281.4452 Q23.6094,281.867 23.4375,282.0545 Q23.2813,282.242 23.0156,282.242 Q22.7656,282.242 22.625,282.1014 Q22.4844,281.9764 22.4063,281.6014 Q22.375,281.3514 22.25,281.2264 Q22,280.9608 21.5625,280.8045 Q21.1406,280.6483 20.7031,280.6483 Q20.1719,280.6483 19.7188,280.8827 Q19.2656,281.117 18.9219,281.6483 Q18.5781,282.1639 18.5781,282.8983 L18.5781,283.6795 Q18.5781,284.5389 19.2031,285.117 Q19.8438,285.6952 20.9531,285.6952 Q21.625,285.6952 22.0938,285.5233 Q22.3594,285.4139 22.6563,285.1014 Q22.8438,284.9139 22.9531,284.867 Q23.0625,284.8045 23.1875,284.8045 Q23.4375,284.8045 23.6094,284.992 Q23.7969,285.1639 23.7969,285.4139 Q23.7969,285.6639 23.5469,285.9452 Q23.1875,286.3514 22.625,286.5858 Q21.875,286.8983 20.9688,286.8983 Q19.8906,286.8983 19.0469,286.4608 Q18.3438,286.117 17.8594,285.3514 Q17.375,284.5858 17.375,283.6952 L17.375,282.8827 Q17.375,281.9452 17.8125,281.1327 Q18.25,280.3202 19.0156,279.8827 Q19.7969,279.4452 20.6563,279.4452 Q21.1875,279.4452 21.6406,279.5702 Q22.0938,279.6795 22.4844,279.9295 Z " fill="#000000"/><text fill="#000000" font-family="Inter, Helvetica, sans-serif" font-size="12" font-style="italic" lengthAdjust="spacing" textLength="29.9822" x="90.6576" y="272.5676">&#171;file&#187;</text><text fill="#000000" font-family="'Inter, Helvetica, sans-serif'" font-size="12" lengthAdjust="spacing" textLength="143.2975" x="34" y="287.0899">.ts/&lt;fichier-mod&#232;le&gt;.json</text><text fill="#000000" font-family="'Inter, Helvetica, sans-serif'" font-size="12" lengthAdjust="spacing" textLength="117.3379" x="46.9798" y="301.6123">(sidecar par mod&#232;le)</text><line style="stroke:#0E1014;stroke-width:0.5;" x1="8" x2="179.2975" y1="309.51" y2="309.51"/><line style="stroke:#0E1014;stroke-width:0.5;" x1="8" x2="179.2975" y1="317.51" y2="317.51"/></g><path d="M1434.5,497.4429 L1434.5,520.9457 L597.3259,554.8159 L1434.5,528.9457 L1434.5,552.4485 A0,0 0 0 0 1434.5,552.4485 L1718.9138,552.4485 A0,0 0 0 0 1718.9138,552.4485 L1718.9138,507.4429 L1708.9138,497.4429 L1434.5,497.4429 A0,0 0 0 0 1434.5,497.4429" fill="#FFFDF6" style="stroke:#C68A3A;stroke-width:0.5;"/><path d="M1708.9138,497.4429 L1708.9138,507.4429 L1718.9138,507.4429 L1708.9138,497.4429" fill="#FFFDF6" style="stroke:#C68A3A;stroke-width:0.5;"/><text fill="#0E1014" font-family="'Inter, Helvetica, sans-serif'" font-size="12" lengthAdjust="spacing" textLength="244.7051" x="1440.5" y="515.3921">Beta-Laplace `(1+passes)/(2+asked)` &#8712; (0, 1].</text><text fill="#0E1014" font-family="'Inter, Helvetica, sans-serif'" font-size="12" lengthAdjust="spacing" textLength="196.1711" x="1440.5" y="530.0285">3/3 &#8658; 0.80, jamais 1.0 en Phase A.</text><text fill="#0E1014" font-family="'Inter, Helvetica, sans-serif'" font-size="12" lengthAdjust="spacing" textLength="263.4138" x="1440.5" y="544.5509">Coexiste avec `scores_per_axis` (fallback R5).</text><path d="M1434.5,562.4485 L1434.5,592.4933 L582.0877,649.95 L1434.5,600.4933 L1434.5,630.538 A0,0 0 0 0 1434.5,630.538 L1764.3217,630.538 A0,0 0 0 0 1764.3217,630.538 L1764.3217,572.4485 L1754.3217,562.4485 L1434.5,562.4485 A0,0 0 0 0 1434.5,562.4485" fill="#FFFDF6" style="stroke:#C68A3A;stroke-width:0.5;"/><path d="M1754.3217,562.4485 L1754.3217,572.4485 L1764.3217,572.4485 L1754.3217,562.4485" fill="#FFFDF6" style="stroke:#C68A3A;stroke-width:0.5;"/><text fill="#0E1014" font-family="'Inter, Helvetica, sans-serif'" font-size="12" lengthAdjust="spacing" textLength="211.0344" x="1440.5" y="579.0732">DCC &#167;4 carve-out. 32 cosinus contre</text><text fill="#0E1014" font-family="'Inter, Helvetica, sans-serif'" font-size="12" lengthAdjust="spacing" textLength="308.8217" x="1440.5" y="593.5956">les M&#202;MES ancres partag&#233;es utilis&#233;es par le routing &#8212;</text><text fill="#0E1014" font-family="'Inter, Helvetica, sans-serif'" font-size="12" lengthAdjust="spacing" textLength="255.164" x="1440.5" y="608.118">m&#234;me espace d'index que `scores_per_leaf`.</text><text fill="#0E1014" font-family="'Inter, Helvetica, sans-serif'" font-size="12" lengthAdjust="spacing" textLength="273.4533" x="1440.5" y="622.6403">&#201;vidence suppl&#233;mentaire, jamais remplacement.</text><g class="entity" data-qualified-name="GMN17" data-source-line="43" id="ent0018"><path d="M1432,816.9429 L1432,862.51 A4,4 0 0 0 1436,866.51 L1680.5907,866.51 A4,4 0 0 0 1684.5907,862.51 L1684.5907,822.9429 L1674.5907,812.9429 L1526.82,812.9429 L1261.39,621.1729 L1518.82,812.9429 L1436,812.9429 A4,4 0 0 0 1432,816.9429" fill="#FFFDF6" style="stroke:#C68A3A;stroke-width:0.5;"/><path d="M1674.5907,812.9429 L1674.5907,820.9429 A2,2 0 0 0 1676.5907,822.9429 L1684.5907,822.9429 L1674.5907,812.9429" fill="#FFFDF6" style="stroke:#C68A3A;stroke-width:0.5;"/><text fill="#0E1014" font-family="'Inter, Helvetica, sans-serif'" font-size="12" lengthAdjust="spacing" textLength="198.1142" x="1438" y="829.5676">SPEC &#167;6bis : l'aptitude QCM est un</text><text fill="#0E1014" font-family="'Inter, Helvetica, sans-serif'" font-size="12" lengthAdjust="spacing" textLength="210.0117" x="1438" y="844.0899">signal de candidature de juge, jamais</text><text fill="#0E1014" font-family="'Inter, Helvetica, sans-serif'" font-size="12" lengthAdjust="spacing" textLength="231.5907" x="1438" y="858.6123">un signal de comp&#233;tence pour le routing.</text></g><!--reverse link Signature to StructuralSignature--><g class="link" data-entity-1="ent0002" data-entity-2="ent0003" data-link-type="composition" data-source-line="22" id="lnk9"><path codeLine="22" d="M677.4574,381.9766 C706.3974,423.3566 734.38,463.3729 761.68,502.4129" fill="none" id="Signature-backto-StructuralSignature" style="stroke:#1A1D24;stroke-width:1;"/><polygon fill="#1A1D24" points="670.58,372.1429,670.7408,379.3522,677.4574,381.9766,677.2966,374.7673,670.58,372.1429" style="stroke:#1A1D24;stroke-width:1;stroke-linejoin:miter;stroke-miterlimit:10;"/></g><!--reverse link Signature to BehavioralSignature--><g class="link" data-entity-1="ent0002" data-entity-2="ent0004" data-link-type="composition" data-source-line="23" id="lnk10"><path codeLine="23" d="M551.8577,381.9941 C538.6277,401.0141 531,411.9729 516.58,432.6929" fill="none" id="Signature-backto-BehavioralSignature" style="stroke:#1A1D24;stroke-width:1;"/><polygon fill="#1A1D24" points="558.71,372.1429,552.0001,374.7844,551.8577,381.9941,558.5676,379.3526,558.71,372.1429" style="stroke:#1A1D24;stroke-width:1;stroke-linejoin:miter;stroke-miterlimit:10;"/></g><!--reverse link Signature to QcmReliability--><g class="link" data-entity-1="ent0002" data-entity-2="ent0006" data-link-type="composition" data-source-line="24" id="lnk11"><path codeLine="24" d="M817.0182,366.9984 C869.4982,388.0384 914.75,407.7829 965.5,432.9429 C1015.97,457.9629 1070.23,490.1829 1112.93,516.8729" fill="none" id="Signature-backto-QcmReliability" style="stroke:#1A1D24;stroke-width:1;"/><polygon fill="#1A1D24" points="805.88,362.5329,809.9606,368.4784,817.0182,366.9984,812.9376,361.0529,805.88,362.5329" style="stroke:#1A1D24;stroke-width:1;stroke-linejoin:miter;stroke-miterlimit:10;"/></g><!--reverse link BehavioralSignature to DiagnosticRunEntry--><g class="link" data-entity-1="ent0004" data-entity-2="ent0005" data-link-type="composition" data-source-line="25" id="lnk12"><path codeLine="25" d="M422.5,717.2329 C422.5,738.1629 422.5,747.0729 422.5,765.9229" fill="none" id="BehavioralSignature-backto-DiagnosticRunEntry" style="stroke:#1A1D24;stroke-width:1;"/><polygon fill="#1A1D24" points="422.5,705.2329,418.5,711.2329,422.5,717.2329,426.5,711.2329,422.5,705.2329" style="stroke:#1A1D24;stroke-width:1;stroke-linejoin:miter;stroke-miterlimit:10;"/><text fill="#000000" font-family="'Inter, Helvetica, sans-serif'" font-size="12" lengthAdjust="spacing" textLength="50.9476" x="369.9771" y="755.237">plusieurs</text></g><!--link STORE to Signature--><g class="link" data-entity-1="ent0007" data-entity-2="ent0002" data-link-type="dependency" data-source-line="26" id="lnk13"><path codeLine="26" d="M189.85,99.9929 C250.87,127.2829 344.3759,169.1111 430.9059,207.8211" fill="none" id="STORE-to-Signature" style="stroke:#1A1D24;stroke-width:1;stroke-dasharray:7,7;"/><polygon fill="#1A1D24" points="435.47,209.8629,428.888,202.5364,430.9059,207.8211,425.6212,209.8389,435.47,209.8629" style="stroke:#1A1D24;stroke-width:1;stroke-linejoin:miter;stroke-miterlimit:10;"/><text fill="#000000" font-family="'Inter, Helvetica, sans-serif'" font-size="12" lengthAdjust="spacing" textLength="89.1284" x="287.5" y="142.5676">s&#233;rialise / parse</text></g><!--link STORE to DISK--><g class="link" data-entity-1="ent0007" data-entity-2="ent0008" data-link-type="association" data-source-line="27" id="lnk14"><path codeLine="27" d="M125.96,99.9929 C119.27,139.1729 106.74,212.4929 99.36,255.6829" fill="none" id="STORE-DISK" style="stroke:#1A1D24;stroke-width:1;"/><text fill="#000000" font-family="'Inter, Helvetica, sans-serif'" font-size="12" lengthAdjust="spacing" textLength="32.3344" x="122.5" y="142.5676">JSON</text></g><g class="legend" data-source-line="3"><rect fill="none" height="98.7144" rx="4" ry="4" style="stroke:#000000;stroke-width:1;" width="466.8814" x="1293.4402" y="950.9429"/><text fill="#000000" font-family="'Inter, Helvetica, sans-serif'" font-size="14" lengthAdjust="spacing" textLength="55.8002" x="1302.3777" y="971.5051">symbole</text><text fill="#000000" font-family="'Inter, Helvetica, sans-serif'" font-size="14" lengthAdjust="spacing" textLength="79.7231" x="1366.0527" y="971.5051">signification</text><rect fill="#FFFFFF" height="16.9429" style="stroke:none;stroke-width:1;" width="63.675" x="1298.4402" y="974.8858"/><text fill="#000000" font-family="'Inter, Helvetica, sans-serif'" font-size="14" font-weight="700" lengthAdjust="spacing" textLength="31.8177" x="1298.4402" y="988.448">rung</text><text fill="#000000" font-family="'Inter, Helvetica, sans-serif'" font-size="14" lengthAdjust="spacing" textLength="3.9374" x="1330.2579" y="988.448">&#160;</text><text fill="#000000" font-family="'Inter, Helvetica, sans-serif'" font-size="14" lengthAdjust="spacing" textLength="333.5284" x="1366.0527" y="988.448">mont&#233;e r&#233;elle de l'escalier (r&#233;ussites enregistr&#233;es)</text><rect fill="#FFFDF6" height="16.9429" style="stroke:none;stroke-width:1;" width="63.675" x="1298.4402" y="991.8287"/><text fill="#000000" font-family="'Inter, Helvetica, sans-serif'" font-size="14" font-weight="700" lengthAdjust="spacing" textLength="32.812" x="1298.4402" y="1005.3909">prior</text><text fill="#000000" font-family="'Inter, Helvetica, sans-serif'" font-size="14" lengthAdjust="spacing" textLength="3.9374" x="1331.2522" y="1005.3909">&#160;</text><text fill="#000000" font-family="'Inter, Helvetica, sans-serif'" font-size="14" lengthAdjust="spacing" textLength="366.7778" x="1366.0527" y="1005.3909">prior QCM/branche faible confiance (discount Dyy/D12)</text><rect fill="#E6DFD2" height="16.9429" style="stroke:none;stroke-width:1;" width="63.675" x="1298.4402" y="1008.7715"/><text fill="#000000" font-family="'Inter, Helvetica, sans-serif'" font-size="14" font-weight="700" lengthAdjust="spacing" textLength="34.6415" x="1298.4402" y="1022.3338">none</text><text fill="#000000" font-family="'Inter, Helvetica, sans-serif'" font-size="14" lengthAdjust="spacing" textLength="3.9374" x="1333.0817" y="1022.3338">&#160;</text><text fill="#000000" font-family="'Inter, Helvetica, sans-serif'" font-size="14" lengthAdjust="spacing" textLength="309.9038" x="1366.0527" y="1022.3338">jamais mesur&#233; (D8.B : laisser vide, jamais z&#233;ro)</text><text fill="#000000" font-family="'Inter, Helvetica, sans-serif'" font-size="14" lengthAdjust="spacing" textLength="51.8826" x="1302.3777" y="1039.2767">scheme</text><text fill="#000000" font-family="'Inter, Helvetica, sans-serif'" font-size="14" lengthAdjust="spacing" textLength="385.3315" x="1366.0527" y="1039.2767">`beta-laplace-v1` (actuel) ou `breaking-rung-v0` (legacy)</text><line style="stroke:#000000;stroke-width:1;" x1="1298.4402" x2="1755.3217" y1="957.9429" y2="957.9429"/><line style="stroke:#000000;stroke-width:1;" x1="1298.4402" x2="1755.3217" y1="974.8858" y2="974.8858"/><line style="stroke:#000000;stroke-width:1;" x1="1298.4402" x2="1755.3217" y1="991.8287" y2="991.8287"/><line style="stroke:#000000;stroke-width:1;" x1="1298.4402" x2="1755.3217" y1="1008.7715" y2="1008.7715"/><line style="stroke:#000000;stroke-width:1;" x1="1298.4402" x2="1755.3217" y1="1025.7144" y2="1025.7144"/><line style="stroke:#000000;stroke-width:1;" x1="1298.4402" x2="1755.3217" y1="1042.6573" y2="1042.6573"/><line style="stroke:#000000;stroke-width:1;" x1="1298.4402" x2="1298.4402" y1="957.9429" y2="1042.6573"/><line style="stroke:#000000;stroke-width:1;" x1="1362.1153" x2="1362.1153" y1="957.9429" y2="1042.6573"/><line style="stroke:#000000;stroke-width:1;" x1="1755.3217" x2="1755.3217" y1="957.9429" y2="1042.6573"/></g><?plantuml-src ZLN1SXj54BtlLtHyiKIibHq3HRbIhWBP1o0cYPKBLQ6yezcMrFRip6PwLiItt0WSARu146U-WFqJVmazivAi6AMAYqixqzFTx_LxxKTajMbAX3mVNgr-yv33hS6ScifaZtO669oXBRk8R1z6hgeTO-FXxF9xk7lt6nXaADlbb2m5SbO-4BHHp7A-e0NQ0AMoB6_lawxkXzurWUni46vhv5GZXrTo1ge97g4aDVEggX3UD0HAKaoG7TbOmal9TkdHQlIWfHRFbII1NZ6ccLMXyLWSGF4LpjM2d5Tc-_ZktUzzoLRYmYiAKAoX5u86BjfVBiwXLZwGCWdYjQeKCNWKdDAwHvzd7w7huyYoB52Gz3iwIaMcpWjG5cPBuZSD2f8yyF3fbFISq9_cr-niqKz3QFyExH9gz4mS8WKfmqnvQH386h8O0UX8d4nZ7pa0rz8yJIcUg2QYtx3RQ-oASRqPR-qQdyYfd9KR7vb9jpvWbOQAaeFN4CR1oNEMGODHC56CSKYbixPTobIS7GYgctuEppgvH1fLqejaAL9YArcB99qvIkLOGorGnyALMujgiEewQKgk18sH36P_FOqFY0Vh6eOAmq5iHKiR8BU6E5B0JB7Nf1j9aT83QOBUWbZIcWudbV8tidOGAMNq0mvgOh2VPzsJlGz9aA6zjiQfSZFUNX-6yAEdW5j7Uw0Ong-UNvwlqsnFUo28spyDTbD_RNiiRMZbOmkmkkjId7qz_XQUoZi9FisoUqrzCXZ0EFX6ozUMrXv4x53ZWuYNkhf4GseYl8NRR9TyOzXURHecKGxlmPdCo3eEf2yRUoxokSqIKh7AATm_Em4M1ul9uZo67RkhG4cOW9t0D-FdtsMPTK56IxDv03VTrVJ92MiXdw_455S6rJG32Gjgy4pLHeaHYjxHupfvip_iFNci-0RBVW5txzz3x_00Zdx8vSNny1ZkVleL3lClv6nb-wFy4D32YtaKzPSnREJmRJHUfyzYgxAIym9wKsNCHEaRkFnCP2Bx4oA0_mKZk9hqbNOByS0Cj-6SZKRmpn-VWiXWWGEHUGx7JyIJJ5P4hfDD9IpkuxJ2ng2ibiRIAbEpvCDE_UbdL9BP-2Kk47bSjN_9Fa2k8sMbcAh4jsc750_eBI8FxS-Bw0uTrrPTctOP3QF8uy7zogmI_V7YFqHCN0YkYamyq1Z0-CLv1FlvH7ASYBjLBSipsllbw0BYDckiH2NZcVGFHzcIoavMyddTp3OzI9oijwrGsJNjijkQSSbjaR3LuRy0?></g></svg>