<svg xmlns="http://www.w3.org/2000/svg" xmlns:xlink="http://www.w3.org/1999/xlink" contentStyleType="text/css" data-diagram-type="STATE" height="1810px" preserveAspectRatio="none" style="width:2132px;height:1810px;background:#F4EEE3;" version="1.1" viewBox="0 0 2132 1810" width="2132px" zoomAndPan="magnify"><?plantuml 1.2026.4?><defs/><g><rect fill="#F4EEE3" height="1810" style="stroke:none;stroke-width:1;" width="2132" x="0" y="0"/><g class="title" data-source-line="3"><text fill="#000000" font-family="'Inter, Helvetica, sans-serif'" font-size="14" font-weight="700" lengthAdjust="spacing" textLength="389.2891" x="868.2963" y="23.5623">Machine &#224; &#233;tats &#8212; dispatch provider sandbox (slice 2d)</text></g><!--cluster POSIX_STATE--><g class="cluster" data-qualified-name="POSIX_STATE" data-source-line="23" id="ent0004"><path d="M1245,697.4429 L1886,697.4429 A4,4 0 0 1 1890,701.4429 L1890,716.9652 L1241,716.9652 L1241,701.4429 A4,4 0 0 1 1245,697.4429" fill="#F1F1F1"/><rect fill="none" height="1099.5" rx="4" ry="4" style="stroke:#181818;stroke-width:0.5;" width="649" x="1241" y="697.4429"/><line style="stroke:#181818;stroke-width:0.5;" x1="1241" x2="1890" y1="716.9652" y2="716.9652"/><text fill="#000000" font-family="'Inter, Helvetica, sans-serif'" font-size="12" lengthAdjust="spacing" textLength="80.3502" x="1525.3249" y="713.0676">PosixSandbox</text></g><g class="entity" data-qualified-name="POSIX_STATE.POSIX_PROBE" data-source-line="24" id="ent0005"><rect fill="#F1F1F1" height="50" rx="4" ry="4" style="stroke:#181818;stroke-width:0.5;" width="164.7804" x="1477.5" y="1170.9429"/><line style="stroke:#181818;stroke-width:0.5;" x1="1477.5" x2="1642.2804" y1="1209.9876" y2="1209.9876"/><text fill="#000000" font-family="'Inter, Helvetica, sans-serif'" font-size="12" lengthAdjust="spacing" textLength="131.1785" x="1487.5" y="1187.5676">trouve python3/python</text><text fill="#000000" font-family="'Inter, Helvetica, sans-serif'" font-size="12" lengthAdjust="spacing" textLength="144.7804" x="1487.5" y="1202.0899">+ sonde module resource</text></g><g class="entity" data-qualified-name="POSIX_STATE.POSIX_PREP" data-source-line="25" id="ent0006"><rect fill="#F1F1F1" height="50" rx="4" ry="4" style="stroke:#181818;stroke-width:0.5;" width="174.7858" x="1639.5" y="1296.9429"/><line style="stroke:#181818;stroke-width:0.5;" x1="1639.5" x2="1814.2858" y1="1335.9876" y2="1335.9876"/><text fill="#000000" font-family="'Inter, Helvetica, sans-serif'" font-size="12" lengthAdjust="spacing" textLength="128.8603" x="1649.5" y="1313.5676">mkdtemp + &#233;crit script</text><text fill="#000000" font-family="'Inter, Helvetica, sans-serif'" font-size="12" lengthAdjust="spacing" textLength="154.7858" x="1649.5" y="1328.0899">(pr&#233;ambule + code + tests)</text></g><g class="entity" data-qualified-name="POSIX_STATE.POSIX_RUN" data-source-line="26" id="ent0007"><rect fill="#F1F1F1" height="63.5671" rx="4" ry="4" style="stroke:#181818;stroke-width:0.5;" width="105.8046" x="1674" y="1447.4429"/><line style="stroke:#181818;stroke-width:0.5;" x1="1674" x2="1779.8046" y1="1501.01" y2="1501.01"/><text fill="#000000" font-family="'Inter, Helvetica, sans-serif'" font-size="12" lengthAdjust="spacing" textLength="85.8046" x="1684" y="1464.0676">spawn -I -S -B,</text><text fill="#000000" font-family="'Inter, Helvetica, sans-serif'" font-size="12" lengthAdjust="spacing" textLength="79.4809" x="1684" y="1478.5899">pgrp d&#233;tach&#233;,</text><text fill="#000000" font-family="'Inter, Helvetica, sans-serif'" font-size="12" lengthAdjust="spacing" textLength="48.0329" x="1684" y="1493.1123">env vide</text></g><g class="entity" data-qualified-name="POSIX_STATE.POSIX_WAIT" data-source-line="27" id="ent0008"><rect fill="#F1F1F1" height="50" rx="4" ry="4" style="stroke:#181818;stroke-width:0.5;" width="123.5314" x="1514" y="1581.9429"/><line style="stroke:#181818;stroke-width:0.5;" x1="1514" x2="1637.5314" y1="1620.9876" y2="1620.9876"/><text fill="#000000" font-family="'Inter, Helvetica, sans-serif'" font-size="12" lengthAdjust="spacing" textLength="77.9469" x="1524" y="1598.5676">attend close /</text><text fill="#000000" font-family="'Inter, Helvetica, sans-serif'" font-size="12" lengthAdjust="spacing" textLength="103.5314" x="1524" y="1613.0899">timeout / overflow</text></g><g class="entity" data-qualified-name="POSIX_STATE.POSIX_PASS" data-source-line="40" id="ent0009"><rect fill="#FFFDF6" height="50" rx="4" ry="4" style="stroke:#181818;stroke-width:0.5;" width="81.4132" x="1273.5" y="1722.9429"/><line style="stroke:#181818;stroke-width:0.5;" x1="1273.5" x2="1354.9132" y1="1747.4652" y2="1747.4652"/><text fill="#000000" font-family="'Inter, Helvetica, sans-serif'" font-size="12" lengthAdjust="spacing" textLength="61.4132" x="1283.5" y="1739.5676">{pass:true}</text></g><g class="entity" data-qualified-name="POSIX_STATE.POSIX_FAIL_EXIT" data-source-line="41" id="ent0010"><rect fill="#F1F1F1" height="50" rx="4" ry="4" style="stroke:#181818;stroke-width:0.5;" width="138.8379" x="1389.5" y="1722.9429"/><line style="stroke:#181818;stroke-width:0.5;" x1="1389.5" x2="1528.3379" y1="1761.9876" y2="1761.9876"/><text fill="#000000" font-family="'Inter, Helvetica, sans-serif'" font-size="12" lengthAdjust="spacing" textLength="64.8393" x="1399.5" y="1739.5676">{pass:false,</text><text fill="#000000" font-family="'Inter, Helvetica, sans-serif'" font-size="12" lengthAdjust="spacing" textLength="118.8379" x="1399.5" y="1754.0899">reason:exit-nonzero}</text></g><g class="entity" data-qualified-name="POSIX_STATE.POSIX_FAIL_TO" data-source-line="42" id="ent0011"><rect fill="#F1F1F1" height="50" rx="4" ry="4" style="stroke:#181818;stroke-width:0.5;" width="109.4523" x="1563.5" y="1722.9429"/><line style="stroke:#181818;stroke-width:0.5;" x1="1563.5" x2="1672.9523" y1="1761.9876" y2="1761.9876"/><text fill="#000000" font-family="'Inter, Helvetica, sans-serif'" font-size="12" lengthAdjust="spacing" textLength="64.8393" x="1573.5" y="1739.5676">{pass:false,</text><text fill="#000000" font-family="'Inter, Helvetica, sans-serif'" font-size="12" lengthAdjust="spacing" textLength="89.4523" x="1573.5" y="1754.0899">reason:timeout}</text></g><g class="entity" data-qualified-name="POSIX_STATE.POSIX_FAIL_OV" data-source-line="43" id="ent0012"><rect fill="#F1F1F1" height="50" rx="4" ry="4" style="stroke:#181818;stroke-width:0.5;" width="158.3715" x="1708" y="1722.9429"/><line style="stroke:#181818;stroke-width:0.5;" x1="1708" x2="1866.3715" y1="1761.9876" y2="1761.9876"/><text fill="#000000" font-family="'Inter, Helvetica, sans-serif'" font-size="12" lengthAdjust="spacing" textLength="64.8393" x="1718" y="1739.5676">{pass:false,</text><text fill="#000000" font-family="'Inter, Helvetica, sans-serif'" font-size="12" lengthAdjust="spacing" textLength="138.3715" x="1718" y="1754.0899">reason:output-overflow}</text></g><g class="entity" data-qualified-name="POSIX_STATE.POSIX_UNAVAIL" data-source-line="44" id="ent0013"><rect fill="#E6DFD2" height="50" rx="4" ry="4" style="stroke:#181818;stroke-width:0.5;" width="135.855" x="1503" y="1454.4429"/><line style="stroke:#181818;stroke-width:0.5;" x1="1503" x2="1638.855" y1="1493.4876" y2="1493.4876"/><text fill="#000000" font-family="'Inter, Helvetica, sans-serif'" font-size="12" lengthAdjust="spacing" textLength="32.8287" x="1513" y="1471.0676">throw</text><text fill="#000000" font-family="'Inter, Helvetica, sans-serif'" font-size="12" lengthAdjust="spacing" textLength="115.855" x="1513" y="1485.5899">SandboxUnavailable</text></g><g class="start_entity" data-qualified-name="POSIX_STATE..start.POSIX_STATE" data-source-line="29" id="ent0029"><ellipse cx="1560" cy="748.4429" fill="#222222" rx="10" ry="10" style="stroke:#222222;stroke-width:1;"/></g><g class="entity" data-qualified-name="Dispatch" data-source-line="11" id="ent0001"><path d="M695.5,124.9429 L906.1265,124.9429 A4,4 0 0 1 910.1265,128.9429 L910.1265,149.4652 L691.5,149.4652 L691.5,128.9429 A4,4 0 0 1 695.5,124.9429" fill="#F1F1F1"/><rect fill="none" height="156.6565" rx="4" ry="4" style="stroke:#181818;stroke-width:0.5;" width="218.6265" x="691.5" y="124.9429"/><line style="stroke:#181818;stroke-width:0.5;" x1="691.5" x2="910.1265" y1="149.4652" y2="149.4652"/><text fill="#000000" font-family="'Inter, Helvetica, sans-serif'" font-size="12" lengthAdjust="spacing" textLength="131.5364" x="735.0451" y="141.5676">getSandbox({enabled})</text><g class="entity" data-qualified-name="Dispatch.description" data-source-line="12" id="ent0002"><rect fill="#F1F1F1" height="107.1341" rx="4" ry="4" style="stroke:#181818;stroke-width:0.5;" width="182.6265" x="703.5" y="161.4652"/><line style="stroke:#181818;stroke-width:0.5;" x1="703.5" x2="886.1265" y1="185.9876" y2="185.9876"/><text fill="#000000" font-family="'Inter, Helvetica, sans-serif'" font-size="12" lengthAdjust="spacing" textLength="63.4245" x="763.101" y="178.0899">description</text><text fill="#000000" font-family="'Inter, Helvetica, sans-serif'" font-size="12" lengthAdjust="spacing" textLength="162.6265" x="708.5" y="202.6123">Lit `params.enableSandbox`</text><text fill="#000000" font-family="'Inter, Helvetica, sans-serif'" font-size="12" lengthAdjust="spacing" textLength="126.1161" x="708.5" y="217.1347">et `process.platform`.</text><text fill="#000000" font-family="'Inter, Helvetica, sans-serif'" font-size="12" lengthAdjust="spacing" textLength="85.7535" x="708.5" y="231.657">Throw toujours</text><text fill="#000000" font-family="'Inter, Helvetica, sans-serif'" font-size="12" lengthAdjust="spacing" textLength="115.855" x="708.5" y="246.1794">SandboxUnavailable</text><text fill="#000000" font-family="'Inter, Helvetica, sans-serif'" font-size="12" lengthAdjust="spacing" textLength="123.0821" x="708.5" y="260.7017">sur runPythonTests().</text></g></g><g class="entity" data-qualified-name="UNSAFE_STATE" data-source-line="19" id="ent0003"><rect fill="#F1F1F1" height="50" rx="4" ry="4" style="stroke:#181818;stroke-width:0.5;" width="110.2534" x="7" y="723.4429"/><line style="stroke:#181818;stroke-width:0.5;" x1="7" x2="117.2534" y1="762.4876" y2="762.4876"/><text fill="#000000" font-family="'Inter, Helvetica, sans-serif'" font-size="12" lengthAdjust="spacing" textLength="90.2534" x="17" y="740.0676">UnsafeSandbox</text><text fill="#000000" font-family="'Inter, Helvetica, sans-serif'" font-size="12" lengthAdjust="spacing" textLength="62.112" x="17" y="754.5899">(opt-in off)</text></g><g class="entity" data-qualified-name="WIN_STATE" data-source-line="47" id="ent0014"><path d="M156.5,386.9429 L897.9292,386.9429 A4,4 0 0 1 901.9292,390.9429 L901.9292,411.4652 L152.5,411.4652 L152.5,390.9429 A4,4 0 0 1 156.5,386.9429" fill="#F1F1F1"/><rect fill="none" height="722.5224" rx="4" ry="4" style="stroke:#181818;stroke-width:0.5;" width="749.4292" x="152.5" y="386.9429"/><line style="stroke:#181818;stroke-width:0.5;" x1="152.5" x2="901.9292" y1="411.4652" y2="411.4652"/><text fill="#000000" font-family="'Inter, Helvetica, sans-serif'" font-size="12" lengthAdjust="spacing" textLength="101.861" x="476.2841" y="403.5676">WindowsSandbox</text><g class="entity" data-qualified-name="WIN_STATE.WIN_PROBE" data-source-line="48" id="ent0015"><rect fill="#F1F1F1" height="50" rx="4" ry="4" style="stroke:#181818;stroke-width:0.5;" width="169.4508" x="629.5" y="479.4652"/><line style="stroke:#181818;stroke-width:0.5;" x1="629.5" x2="798.9508" y1="503.9876" y2="503.9876"/><text fill="#000000" font-family="'Inter, Helvetica, sans-serif'" font-size="12" lengthAdjust="spacing" textLength="149.4508" x="639.5" y="496.0899">trouve py/python/python3</text></g><g class="entity" data-qualified-name="WIN_STATE.WIN_PREP" data-source-line="49" id="ent0016"><rect fill="#F1F1F1" height="50" rx="4" ry="4" style="stroke:#181818;stroke-width:0.5;" width="170.3712" x="571" y="581.4652"/><line style="stroke:#181818;stroke-width:0.5;" x1="571" x2="741.3712" y1="620.51" y2="620.51"/><text fill="#000000" font-family="'Inter, Helvetica, sans-serif'" font-size="12" lengthAdjust="spacing" textLength="128.8603" x="581" y="598.0899">mkdtemp + &#233;crit script</text><text fill="#000000" font-family="'Inter, Helvetica, sans-serif'" font-size="12" lengthAdjust="spacing" textLength="150.3712" x="581" y="612.6123">v&#233;rifie win-job.ps1 pr&#233;sent</text></g><g class="entity" data-qualified-name="WIN_STATE.WIN_RUN" data-source-line="50" id="ent0017"><rect fill="#F1F1F1" height="50" rx="4" ry="4" style="stroke:#181818;stroke-width:0.5;" width="145.9798" x="466" y="668.4652"/><line style="stroke:#181818;stroke-width:0.5;" x1="466" x2="611.9798" y1="707.51" y2="707.51"/><text fill="#000000" font-family="'Inter, Helvetica, sans-serif'" font-size="12" lengthAdjust="spacing" textLength="125.9798" x="476" y="685.0899">spawn powershell.exe</text><text fill="#000000" font-family="'Inter, Helvetica, sans-serif'" font-size="12" lengthAdjust="spacing" textLength="93.6794" x="476" y="699.6123">-File win-job.ps1</text></g><g class="entity" data-qualified-name="WIN_STATE.WIN_JOB" data-source-line="51" id="ent0018"><rect fill="#F1F1F1" height="78.0894" rx="4" ry="4" style="stroke:#181818;stroke-width:0.5;" width="188.0639" x="396" y="770.4652"/><line style="stroke:#181818;stroke-width:0.5;" x1="396" x2="584.0639" y1="838.5547" y2="838.5547"/><text fill="#000000" font-family="'Inter, Helvetica, sans-serif'" font-size="12" lengthAdjust="spacing" textLength="127.8036" x="406" y="787.0899">PS1 : CreateJobObject</text><text fill="#000000" font-family="'Inter, Helvetica, sans-serif'" font-size="12" lengthAdjust="spacing" textLength="153.6268" x="406" y="801.6123">+ SetInformationJobObject</text><text fill="#000000" font-family="'Inter, Helvetica, sans-serif'" font-size="12" lengthAdjust="spacing" textLength="81.9013" x="406" y="816.1347">+ Start python</text><text fill="#000000" font-family="'Inter, Helvetica, sans-serif'" font-size="12" lengthAdjust="spacing" textLength="168.0639" x="406" y="830.657">+ AssignProcessToJobObject</text></g><g class="entity" data-qualified-name="WIN_STATE.WIN_WAIT" data-source-line="52" id="ent0019"><rect fill="#F1F1F1" height="50" rx="4" ry="4" style="stroke:#181818;stroke-width:0.5;" width="185.3367" x="240.5" y="929.4652"/><line style="stroke:#181818;stroke-width:0.5;" x1="240.5" x2="425.8367" y1="953.9876" y2="953.9876"/><text fill="#000000" font-family="'Inter, Helvetica, sans-serif'" font-size="12" lengthAdjust="spacing" textLength="165.3367" x="250.5" y="946.0899">WaitForExit(innerTimeoutMs)</text></g><g class="entity" data-qualified-name="WIN_STATE.WIN_PASS" data-source-line="66" id="ent0020"><rect fill="#FFFDF6" height="50" rx="4" ry="4" style="stroke:#181818;stroke-width:0.5;" width="81.4132" x="164.5" y="1046.4652"/><line style="stroke:#181818;stroke-width:0.5;" x1="164.5" x2="245.9132" y1="1070.9876" y2="1070.9876"/><text fill="#000000" font-family="'Inter, Helvetica, sans-serif'" font-size="12" lengthAdjust="spacing" textLength="61.4132" x="174.5" y="1063.0899">{pass:true}</text></g><g class="entity" data-qualified-name="WIN_STATE.WIN_FAIL_EXIT" data-source-line="67" id="ent0021"><rect fill="#F1F1F1" height="50" rx="4" ry="4" style="stroke:#181818;stroke-width:0.5;" width="138.8379" x="263.5" y="1046.4652"/><line style="stroke:#181818;stroke-width:0.5;" x1="263.5" x2="402.3379" y1="1085.51" y2="1085.51"/><text fill="#000000" font-family="'Inter, Helvetica, sans-serif'" font-size="12" lengthAdjust="spacing" textLength="64.8393" x="273.5" y="1063.0899">{pass:false,</text><text fill="#000000" font-family="'Inter, Helvetica, sans-serif'" font-size="12" lengthAdjust="spacing" textLength="118.8379" x="273.5" y="1077.6123">reason:exit-nonzero}</text></g><g class="entity" data-qualified-name="WIN_STATE.WIN_FAIL_TO" data-source-line="68" id="ent0022"><rect fill="#F1F1F1" height="50" rx="4" ry="4" style="stroke:#181818;stroke-width:0.5;" width="109.4523" x="420.5" y="1046.4652"/><line style="stroke:#181818;stroke-width:0.5;" x1="420.5" x2="529.9523" y1="1085.51" y2="1085.51"/><text fill="#000000" font-family="'Inter, Helvetica, sans-serif'" font-size="12" lengthAdjust="spacing" textLength="64.8393" x="430.5" y="1063.0899">{pass:false,</text><text fill="#000000" font-family="'Inter, Helvetica, sans-serif'" font-size="12" lengthAdjust="spacing" textLength="89.4523" x="430.5" y="1077.6123">reason:timeout}</text></g><g class="entity" data-qualified-name="WIN_STATE.WIN_UNAVAIL" data-source-line="69" id="ent0023"><rect fill="#E6DFD2" height="50" rx="4" ry="4" style="stroke:#181818;stroke-width:0.5;" width="135.855" x="588" y="929.4652"/><line style="stroke:#181818;stroke-width:0.5;" x1="588" x2="723.855" y1="968.51" y2="968.51"/><text fill="#000000" font-family="'Inter, Helvetica, sans-serif'" font-size="12" lengthAdjust="spacing" textLength="32.8287" x="598" y="946.0899">throw</text><text fill="#000000" font-family="'Inter, Helvetica, sans-serif'" font-size="12" lengthAdjust="spacing" textLength="115.855" x="598" y="960.6123">SandboxUnavailable</text></g><g class="start_entity" data-qualified-name="WIN_STATE..start.WIN_STATE" data-source-line="54" id="ent0040"><ellipse cx="714" cy="432.4652" fill="#222222" rx="10" ry="10" style="stroke:#222222;stroke-width:1;"/></g><!--link *start*WIN_STATE to WIN_PROBE--><g class="link" data-entity-1="ent0040" data-entity-2="ent0015" data-link-type="dependency" data-source-line="54" id="lnk41"><path d="M714,442.6152 C714,451.8852 714,461.6052 714,474.2452" fill="none" id="*start*WIN_STATE-to-WIN_PROBE" style="stroke:#1A1D24;stroke-width:1;"/><polygon fill="#1A1D24" points="714,479.2452,718,470.2452,714,474.2452,710,470.2452,714,479.2452" style="stroke:#1A1D24;stroke-width:1;stroke-linejoin:miter;stroke-miterlimit:10;"/></g><!--link WIN_PROBE to WIN_PREP--><g class="link" data-entity-1="ent0015" data-entity-2="ent0016" data-link-type="dependency" data-source-line="55" id="lnk42"><path d="M699.96,529.6752 C690.91,545.2752 681.6895,561.1806 672.6195,576.8106" fill="none" id="WIN_PROBE-to-WIN_PREP" style="stroke:#1A1D24;stroke-width:1;"/><polygon fill="#1A1D24" points="670.11,581.1352,678.0869,575.3586,672.6195,576.8106,671.1675,571.3433,670.11,581.1352" style="stroke:#1A1D24;stroke-width:1;stroke-linejoin:miter;stroke-miterlimit:10;"/><text fill="#000000" font-family="'Inter, Helvetica, sans-serif'" font-size="12" lengthAdjust="spacing" textLength="55.2259" x="690" y="560.0899">sonde OK</text></g><!--link WIN_PROBE to WIN_UNAVAIL--><g class="link" data-entity-1="ent0015" data-entity-2="ent0023" data-link-type="dependency" data-source-line="56" id="lnk43"><path d="M737.18,529.6152 C752.96,548.6452 771,576.6852 771,605.4652 C771,605.4652 771,605.4652 771,810.4652 C771,861.1152 730.6391,901.0141 697.0191,926.2441" fill="none" id="WIN_PROBE-to-WIN_UNAVAIL" style="stroke:#1A1D24;stroke-width:1;"/><polygon fill="#1A1D24" points="693.02,929.2452,702.6194,927.0425,697.0191,926.2441,697.8175,920.6439,693.02,929.2452" style="stroke:#1A1D24;stroke-width:1;stroke-linejoin:miter;stroke-miterlimit:10;"/><text fill="#000000" font-family="'Inter, Helvetica, sans-serif'" font-size="12" lengthAdjust="spacing" textLength="104.9292" x="772" y="690.5899">pas de python.exe</text><text fill="#000000" font-family="'Inter, Helvetica, sans-serif'" font-size="12" lengthAdjust="spacing" textLength="102.2872" x="773.321" y="705.1123">OU PS1 manquant</text></g><!--link WIN_PREP to WIN_RUN--><g class="link" data-entity-1="ent0016" data-entity-2="ent0017" data-link-type="dependency" data-source-line="57" id="lnk44"><path d="M622.79,631.5952 C606.98,643.0852 592.1656,653.847 576.3456,665.337" fill="none" id="WIN_PREP-to-WIN_RUN" style="stroke:#1A1D24;stroke-width:1;"/><polygon fill="#1A1D24" points="572.3,668.2752,581.9326,666.2228,576.3456,665.337,577.2314,659.7499,572.3,668.2752" style="stroke:#1A1D24;stroke-width:1;stroke-linejoin:miter;stroke-miterlimit:10;"/></g><!--link WIN_PREP to WIN_UNAVAIL--><g class="link" data-entity-1="ent0016" data-entity-2="ent0023" data-link-type="dependency" data-source-line="58" id="lnk45"><path d="M656,631.5252 C656,694.8152 656,860.4752 656,924.1052" fill="none" id="WIN_PREP-to-WIN_UNAVAIL" style="stroke:#1A1D24;stroke-width:1;"/><polygon fill="#1A1D24" points="656,929.1052,660,920.1052,656,924.1052,652,920.1052,656,929.1052" style="stroke:#1A1D24;stroke-width:1;stroke-linejoin:miter;stroke-miterlimit:10;"/><text fill="#000000" font-family="'Inter, Helvetica, sans-serif'" font-size="12" lengthAdjust="spacing" textLength="98.7759" x="657" y="749.0899">mkdtemp &#233;choue</text></g><!--link WIN_RUN to WIN_JOB--><g class="link" data-entity-1="ent0017" data-entity-2="ent0018" data-link-type="dependency" data-source-line="59" id="lnk46"><path d="M528.61,718.6452 C522.15,733.6752 515.6754,748.732 508.3254,765.822" fill="none" id="WIN_RUN-to-WIN_JOB" style="stroke:#1A1D24;stroke-width:1;"/><polygon fill="#1A1D24" points="506.35,770.4152,513.5804,763.7278,508.3254,765.822,506.2312,760.5671,506.35,770.4152" style="stroke:#1A1D24;stroke-width:1;stroke-linejoin:miter;stroke-miterlimit:10;"/></g><!--link WIN_JOB to WIN_WAIT--><g class="link" data-entity-1="ent0018" data-entity-2="ent0019" data-link-type="dependency" data-source-line="60" id="lnk47"><path d="M395.61,824.5152 C371.71,832.7752 348.69,845.8352 334,866.4652 C321.12,884.5552 321.7424,905.6478 325.4224,924.5078" fill="none" id="WIN_JOB-to-WIN_WAIT" style="stroke:#1A1D24;stroke-width:1;"/><polygon fill="#1A1D24" points="326.38,929.4152,328.5824,919.8158,325.4224,924.5078,320.7304,921.3479,326.38,929.4152" style="stroke:#1A1D24;stroke-width:1;stroke-linejoin:miter;stroke-miterlimit:10;"/><text fill="#000000" font-family="'Inter, Helvetica, sans-serif'" font-size="12" lengthAdjust="spacing" textLength="43.4819" x="379.3512" y="886.0899">assign&#233;</text><text fill="#000000" font-family="'Inter, Helvetica, sans-serif'" font-size="12" lengthAdjust="spacing" textLength="132.1842" x="335" y="900.6123">(petite fen&#234;tre de race)</text></g><!--link WIN_JOB to WIN_UNAVAIL--><g class="link" data-entity-1="ent0018" data-entity-2="ent0023" data-link-type="dependency" data-source-line="61" id="lnk48"><path d="M479.95,848.7052 C476.9,869.3452 477.35,894.0852 491,911.4652 C503.23,927.0452 542.9403,936.9796 582.7003,943.7196" fill="none" id="WIN_JOB-to-WIN_UNAVAIL" style="stroke:#1A1D24;stroke-width:1;"/><polygon fill="#1A1D24" points="587.63,944.5552,579.4251,939.1073,582.7003,943.7196,578.0881,946.9948,587.63,944.5552" style="stroke:#1A1D24;stroke-width:1;stroke-linejoin:miter;stroke-miterlimit:10;"/><text fill="#000000" font-family="'Inter, Helvetica, sans-serif'" font-size="12" lengthAdjust="spacing" textLength="142.3941" x="495.801" y="879.0899">&#233;chec CreateJobObject /</text><text fill="#000000" font-family="'Inter, Helvetica, sans-serif'" font-size="12" lengthAdjust="spacing" textLength="149.9962" x="492" y="893.6123">SetInformationJobObject /</text><text fill="#000000" font-family="'Inter, Helvetica, sans-serif'" font-size="12" lengthAdjust="spacing" textLength="57.2201" x="538.388" y="908.1347">Add-Type</text></g><!--link WIN_WAIT to WIN_PASS--><g class="link" data-entity-1="ent0019" data-entity-2="ent0020" data-link-type="dependency" data-source-line="62" id="lnk49"><path d="M306.17,979.5752 C284.32,999.1952 257.3496,1023.4339 235.5196,1043.0439" fill="none" id="WIN_WAIT-to-WIN_PASS" style="stroke:#1A1D24;stroke-width:1;"/><polygon fill="#1A1D24" points="231.8,1046.3852,241.1684,1043.3465,235.5196,1043.0439,235.8222,1037.3952,231.8,1046.3852" style="stroke:#1A1D24;stroke-width:1;stroke-linejoin:miter;stroke-miterlimit:10;"/><text fill="#000000" font-family="'Inter, Helvetica, sans-serif'" font-size="12" lengthAdjust="spacing" textLength="31.5503" x="286" y="1017.5899">exit 0</text></g><!--link WIN_WAIT to WIN_FAIL_EXIT--><g class="link" data-entity-1="ent0019" data-entity-2="ent0021" data-link-type="dependency" data-source-line="63" id="lnk50"><path d="M333,979.5752 C333,999.1952 333,1021.7752 333,1041.3852" fill="none" id="WIN_WAIT-to-WIN_FAIL_EXIT" style="stroke:#1A1D24;stroke-width:1;"/><polygon fill="#1A1D24" points="333,1046.3852,337,1037.3852,333,1041.3852,329,1037.3852,333,1046.3852" style="stroke:#1A1D24;stroke-width:1;stroke-linejoin:miter;stroke-miterlimit:10;"/><text fill="#000000" font-family="'Inter, Helvetica, sans-serif'" font-size="12" lengthAdjust="spacing" textLength="66.7312" x="334" y="1017.5899">exit &#8800; 0,124</text></g><!--link WIN_WAIT to WIN_FAIL_TO--><g class="link" data-entity-1="ent0019" data-entity-2="ent0022" data-link-type="dependency" data-source-line="64" id="lnk51"><path d="M378.81,979.6052 C387.8,985.0452 396.93,991.1052 405,997.4652 C423.48,1012.0252 438.5022,1027.587 451.7522,1042.687" fill="none" id="WIN_WAIT-to-WIN_FAIL_TO" style="stroke:#1A1D24;stroke-width:1;"/><polygon fill="#1A1D24" points="455.05,1046.4452,452.1206,1037.0421,451.7522,1042.687,446.1073,1042.3186,455.05,1046.4452" style="stroke:#1A1D24;stroke-width:1;stroke-linejoin:miter;stroke-miterlimit:10;"/><text fill="#000000" font-family="'Inter, Helvetica, sans-serif'" font-size="12" lengthAdjust="spacing" textLength="44.5898" x="500.1575" y="1010.0899">exit 124</text><text fill="#000000" font-family="'Inter, Helvetica, sans-serif'" font-size="12" lengthAdjust="spacing" textLength="166.9048" x="439" y="1024.6123">(TerminateJobObject de PS1)</text></g></g><g class="start_entity" data-qualified-name=".start." data-source-line="9" id="ent0024"><ellipse cx="801" cy="53.9429" fill="#222222" rx="10" ry="10" style="stroke:#222222;stroke-width:1;"/></g><g class="entity" data-qualified-name="GMN52" data-source-line="73" id="ent0053"><path d="M936.5,718.4429 L936.5,778.5323 A4,4 0 0 0 940.5,782.5323 L1209.4481,782.5323 A4,4 0 0 0 1213.4481,778.5323 L1213.4481,724.4429 L1203.4481,714.4429 L940.5,714.4429 A4,4 0 0 0 936.5,718.4429" fill="#FFFDF6" style="stroke:#C68A3A;stroke-width:0.5;"/><path d="M1203.4481,714.4429 L1203.4481,722.4429 A2,2 0 0 0 1205.4481,724.4429 L1213.4481,724.4429 L1203.4481,714.4429" fill="#FFFDF6" style="stroke:#C68A3A;stroke-width:1;"/><text fill="#0E1014" font-family="'Inter, Helvetica, sans-serif'" font-size="12" lengthAdjust="spacing" textLength="216.54" x="942.5" y="731.0676">Source de v&#233;rit&#233; unique &#8212; seule cette</text><text fill="#0E1014" font-family="'Inter, Helvetica, sans-serif'" font-size="12" lengthAdjust="spacing" textLength="213.3866" x="942.5" y="745.5899">machine &#224; &#233;tats conna&#238;t la plateforme</text><text fill="#0E1014" font-family="'Inter, Helvetica, sans-serif'" font-size="12" lengthAdjust="spacing" textLength="255.9481" x="942.5" y="760.1123">/ l'opt-in. Les appelants (characterizeRunner)</text><text fill="#0E1014" font-family="'Inter, Helvetica, sans-serif'" font-size="12" lengthAdjust="spacing" textLength="245.9256" x="942.5" y="774.6347">voient juste une instance SandboxProvider.</text></g><g class="entity" data-qualified-name="GMN55" data-source-line="80" id="ent0056"><path d="M1914.5,1441.9429 L1914.5,1516.5547 A4,4 0 0 0 1918.5,1520.5547 L2113.8817,1520.5547 A4,4 0 0 0 2117.8817,1516.5547 L2117.8817,1447.9429 L2107.8817,1437.9429 L1918.5,1437.9429 A4,4 0 0 0 1914.5,1441.9429" fill="#FFFDF6" style="stroke:#C68A3A;stroke-width:0.5;"/><path d="M2107.8817,1437.9429 L2107.8817,1445.9429 A2,2 0 0 0 2109.8817,1447.9429 L2117.8817,1447.9429 L2107.8817,1437.9429" fill="#FFFDF6" style="stroke:#C68A3A;stroke-width:1;"/><text fill="#0E1014" font-family="'Inter, Helvetica, sans-serif'" font-size="12" lengthAdjust="spacing" textLength="168.0128" x="1920.5" y="1454.5676">Fail-closed (D&#945;&#945; &#167;3) : chaque</text><text fill="#0E1014" font-family="'Inter, Helvetica, sans-serif'" font-size="12" lengthAdjust="spacing" textLength="172.3592" x="1920.5" y="1469.0899">transition SandboxUnavailable</text><text fill="#0E1014" font-family="'Inter, Helvetica, sans-serif'" font-size="12" lengthAdjust="spacing" textLength="182.3817" x="1920.5" y="1483.6123">dans l'escalier &#8658; UNMEASURED</text><text fill="#0E1014" font-family="'Inter, Helvetica, sans-serif'" font-size="12" lengthAdjust="spacing" textLength="170.1093" x="1920.5" y="1498.1347">(prior de branche D12), jamais</text><text fill="#0E1014" font-family="'Inter, Helvetica, sans-serif'" font-size="12" lengthAdjust="spacing" textLength="75.2197" x="1920.5" y="1512.657">un faux pass.</text></g><!--link *start* to Dispatch--><g class="link" data-entity-1="ent0024" data-entity-2="ent0001" data-link-type="dependency" data-source-line="9" id="lnk25"><path d="M801,64.1729 C801,76.7229 801,95.4029 801,119.6729" fill="none" id="*start*-to-Dispatch" style="stroke:#1A1D24;stroke-width:1;"/><polygon fill="#1A1D24" points="801,124.6729,805,115.6729,801,119.6729,797,115.6729,801,124.6729" style="stroke:#1A1D24;stroke-width:1;stroke-linejoin:miter;stroke-miterlimit:10;"/></g><!--link Dispatch to UNSAFE_STATE--><g class="link" data-entity-1="ent0001" data-entity-2="ent0003" data-link-type="dependency" data-source-line="15" id="lnk26"><path d="M691.49,220.3429 C522.69,247.0929 210.46,306.1929 135,386.9429 C44.96,483.2829 52.1883,653.7871 58.5383,718.0471" fill="none" id="Dispatch-to-UNSAFE_STATE" style="stroke:#1A1D24;stroke-width:1;"/><polygon fill="#1A1D24" points="59.03,723.0229,62.1256,713.6732,58.5383,718.0471,54.1643,714.4599,59.03,723.0229" style="stroke:#1A1D24;stroke-width:1;stroke-linejoin:miter;stroke-miterlimit:10;"/><text fill="#000000" font-family="'Inter, Helvetica, sans-serif'" font-size="12" lengthAdjust="spacing" textLength="76.0208" x="282.1476" y="324.5676">enabled:false</text><text fill="#000000" font-family="'Inter, Helvetica, sans-serif'" font-size="12" lengthAdjust="spacing" textLength="45.5614" x="297.3773" y="339.0899">(d&#233;faut)</text><text fill="#000000" font-family="'Inter, Helvetica, sans-serif'" font-size="12" lengthAdjust="spacing" textLength="86.316" x="277" y="353.6123">OU OS inconnu</text></g><!--link Dispatch to POSIX_STATE--><g class="link" data-entity-1="ent0001" data-entity-2="ent0004" data-link-type="dependency" data-source-line="16" id="lnk27"><path d="M910.51,218.1929 C1011.96,237.2829 1157.86,282.2229 1231,386.9429 C1242.39,403.2529 1246.91,492.1029 1248.5725,577.5054 C1249.4038,620.2066 1249.5206,662.046 1249.4247,693.5251 C1249.4217,694.5088 1249.4361,690.4824 1249.4327,691.4456" fill="none" id="Dispatch-to-POSIX_STATE" style="stroke:#1A1D24;stroke-width:1;"/><polygon fill="#1A1D24" points="1249.4151,696.4456,1253.4468,687.4598,1249.4327,691.4456,1245.4469,687.4315,1249.4151,696.4456" style="stroke:#1A1D24;stroke-width:1;stroke-linejoin:miter;stroke-miterlimit:10;"/><text fill="#000000" font-family="'Inter, Helvetica, sans-serif'" font-size="12" lengthAdjust="spacing" textLength="71.6061" x="1205.2101" y="331.5676">enabled:true</text><text fill="#000000" font-family="'Inter, Helvetica, sans-serif'" font-size="12" lengthAdjust="spacing" textLength="80.0264" x="1201" y="346.0899">+ linux/darwin</text></g><!--link Dispatch to WIN_STATE--><g class="link" data-entity-1="ent0001" data-entity-2="ent0014" data-link-type="dependency" data-source-line="17" id="lnk28"><path d="M761.89,281.9529 C746.88,311.6929 730.843,343.4793 711.163,382.4693" fill="none" id="Dispatch-to-WIN_STATE" style="stroke:#1A1D24;stroke-width:1;"/><polygon fill="#1A1D24" points="708.91,386.9329,716.5363,380.7007,711.163,382.4693,709.3945,377.096,708.91,386.9329" style="stroke:#1A1D24;stroke-width:1;stroke-linejoin:miter;stroke-miterlimit:10;"/><text fill="#000000" font-family="'Inter, Helvetica, sans-serif'" font-size="12" lengthAdjust="spacing" textLength="71.6061" x="743" y="331.5676">enabled:true</text><text fill="#000000" font-family="'Inter, Helvetica, sans-serif'" font-size="12" lengthAdjust="spacing" textLength="45.8" x="755.9031" y="346.0899">+ win32</text></g><!--link *start*POSIX_STATE to POSIX_PROBE--><g class="link" data-entity-1="ent0029" data-entity-2="ent0005" data-link-type="dependency" data-source-line="29" id="lnk30"><path d="M1560,758.7429 C1560,812.8529 1560,1082.4129 1560,1165.8529" fill="none" id="*start*POSIX_STATE-to-POSIX_PROBE" style="stroke:#1A1D24;stroke-width:1;"/><polygon fill="#1A1D24" points="1560,1170.8529,1564,1161.8529,1560,1165.8529,1556,1161.8529,1560,1170.8529" style="stroke:#1A1D24;stroke-width:1;stroke-linejoin:miter;stroke-miterlimit:10;"/></g><!--link POSIX_PROBE to POSIX_PREP--><g class="link" data-entity-1="ent0005" data-entity-2="ent0006" data-link-type="dependency" data-source-line="30" id="lnk31"><path d="M1592.6,1221.1429 C1622.02,1242.9929 1661.0756,1271.9921 1690.4756,1293.8221" fill="none" id="POSIX_PROBE-to-POSIX_PREP" style="stroke:#1A1D24;stroke-width:1;"/><polygon fill="#1A1D24" points="1694.49,1296.8029,1689.6487,1288.2261,1690.4756,1293.8221,1684.8795,1294.6491,1694.49,1296.8029" style="stroke:#1A1D24;stroke-width:1;stroke-linejoin:miter;stroke-miterlimit:10;"/><text fill="#000000" font-family="'Inter, Helvetica, sans-serif'" font-size="12" lengthAdjust="spacing" textLength="55.2259" x="1654" y="1263.5676">sonde OK</text></g><!--link POSIX_PROBE to POSIX_UNAVAIL--><g class="link" data-entity-1="ent0005" data-entity-2="ent0013" data-link-type="dependency" data-source-line="31" id="lnk32"><path d="M1543.21,1221.0929 C1530.74,1240.5629 1514.78,1269.1929 1508,1296.9429 C1502.72,1318.5329 1503.08,1325.2729 1508,1346.9429 C1517.03,1386.6829 1537.022,1424.1809 1552.542,1449.7009" fill="none" id="POSIX_PROBE-to-POSIX_UNAVAIL" style="stroke:#1A1D24;stroke-width:1;"/><polygon fill="#1A1D24" points="1555.14,1453.9729,1553.8812,1444.2048,1552.542,1449.7009,1547.0459,1448.3617,1555.14,1453.9729" style="stroke:#1A1D24;stroke-width:1;stroke-linejoin:miter;stroke-miterlimit:10;"/><text fill="#000000" font-family="'Inter, Helvetica, sans-serif'" font-size="12" lengthAdjust="spacing" textLength="81.1684" x="1524.8945" y="1319.0676">pas de python</text><text fill="#000000" font-family="'Inter, Helvetica, sans-serif'" font-size="12" lengthAdjust="spacing" textLength="112.9574" x="1509" y="1333.5899">OU pas de resource</text></g><!--link POSIX_PREP to POSIX_RUN--><g class="link" data-entity-1="ent0006" data-entity-2="ent0007" data-link-type="dependency" data-source-line="32" id="lnk33"><path d="M1727,1347.2429 C1727,1374.2329 1727,1412.8829 1727,1442.3529" fill="none" id="POSIX_PREP-to-POSIX_RUN" style="stroke:#1A1D24;stroke-width:1;"/><polygon fill="#1A1D24" points="1727,1447.3529,1731,1438.3529,1727,1442.3529,1723,1438.3529,1727,1447.3529" style="stroke:#1A1D24;stroke-width:1;stroke-linejoin:miter;stroke-miterlimit:10;"/><text fill="#000000" font-family="'Inter, Helvetica, sans-serif'" font-size="12" lengthAdjust="spacing" textLength="60.6973" x="1728" y="1397.0676">script &#233;crit</text></g><!--link POSIX_PREP to POSIX_UNAVAIL--><g class="link" data-entity-1="ent0006" data-entity-2="ent0013" data-link-type="dependency" data-source-line="33" id="lnk34"><path d="M1648.96,1347.0029 C1633.51,1354.6229 1618.53,1364.4229 1607,1376.9429 C1587.11,1398.5329 1578.9587,1426.8907 1574.9387,1449.4107" fill="none" id="POSIX_PREP-to-POSIX_UNAVAIL" style="stroke:#1A1D24;stroke-width:1;"/><polygon fill="#1A1D24" points="1574.06,1454.3329,1579.5793,1446.1759,1574.9387,1449.4107,1571.7038,1444.77,1574.06,1454.3329" style="stroke:#1A1D24;stroke-width:1;stroke-linejoin:miter;stroke-miterlimit:10;"/><text fill="#000000" font-family="'Inter, Helvetica, sans-serif'" font-size="12" lengthAdjust="spacing" textLength="98.7759" x="1613.8465" y="1389.5676">mkdtemp &#233;choue</text><text fill="#000000" font-family="'Inter, Helvetica, sans-serif'" font-size="12" lengthAdjust="spacing" textLength="110.4688" x="1608" y="1404.0899">OU &#233;criture &#233;choue</text></g><!--link POSIX_RUN to POSIX_WAIT--><g class="link" data-entity-1="ent0007" data-entity-2="ent0008" data-link-type="dependency" data-source-line="34" id="lnk35"><path d="M1689.67,1511.4629 C1663.65,1533.0929 1633.2549,1558.3565 1609.1849,1578.3665" fill="none" id="POSIX_RUN-to-POSIX_WAIT" style="stroke:#1A1D24;stroke-width:1;"/><polygon fill="#1A1D24" points="1605.34,1581.5629,1614.8179,1578.8854,1609.1849,1578.3665,1609.7037,1572.7335,1605.34,1581.5629" style="stroke:#1A1D24;stroke-width:1;stroke-linejoin:miter;stroke-miterlimit:10;"/></g><!--link POSIX_WAIT to POSIX_PASS--><g class="link" data-entity-1="ent0008" data-entity-2="ent0009" data-link-type="dependency" data-source-line="35" id="lnk36"><path d="M1516.22,1631.9529 C1495.58,1640.7729 1472.5,1651.2329 1452,1661.9429 C1416.34,1680.5729 1381.6374,1702.1805 1354.2674,1720.0405" fill="none" id="POSIX_WAIT-to-POSIX_PASS" style="stroke:#1A1D24;stroke-width:1;"/><polygon fill="#1A1D24" points="1350.08,1722.7729,1359.8032,1721.2044,1354.2674,1720.0405,1355.4313,1714.5047,1350.08,1722.7729" style="stroke:#1A1D24;stroke-width:1;stroke-linejoin:miter;stroke-miterlimit:10;"/><text fill="#000000" font-family="'Inter, Helvetica, sans-serif'" font-size="12" lengthAdjust="spacing" textLength="31.5503" x="1453" y="1682.0676">exit 0</text></g><!--link POSIX_WAIT to POSIX_FAIL_EXIT--><g class="link" data-entity-1="ent0008" data-entity-2="ent0010" data-link-type="dependency" data-source-line="36" id="lnk37"><path d="M1546.23,1632.1329 C1536.12,1641.0129 1525.09,1651.4629 1516,1661.9429 C1499.47,1681.0029 1486.3363,1700.7998 1475.6063,1718.4598" fill="none" id="POSIX_WAIT-to-POSIX_FAIL_EXIT" style="stroke:#1A1D24;stroke-width:1;"/><polygon fill="#1A1D24" points="1473.01,1722.7329,1481.1018,1717.1183,1475.6063,1718.4598,1474.2648,1712.9643,1473.01,1722.7329" style="stroke:#1A1D24;stroke-width:1;stroke-linejoin:miter;stroke-miterlimit:10;"/><text fill="#000000" font-family="'Inter, Helvetica, sans-serif'" font-size="12" lengthAdjust="spacing" textLength="42.8341" x="1517" y="1682.0676">exit &#8800; 0</text></g><!--link POSIX_WAIT to POSIX_FAIL_TO--><g class="link" data-entity-1="ent0008" data-entity-2="ent0011" data-link-type="dependency" data-source-line="37" id="lnk38"><path d="M1570.44,1632.1429 C1567.54,1649.5729 1565.91,1673.3629 1573,1692.9429 C1576.99,1703.9629 1581.0055,1710.5505 1588.6055,1719.1805" fill="none" id="POSIX_WAIT-to-POSIX_FAIL_TO" style="stroke:#1A1D24;stroke-width:1;"/><polygon fill="#1A1D24" points="1591.91,1722.9329,1588.9638,1713.535,1588.6055,1719.1805,1582.96,1718.8222,1591.91,1722.9329" style="stroke:#1A1D24;stroke-width:1;stroke-linejoin:miter;stroke-miterlimit:10;"/><text fill="#000000" font-family="'Inter, Helvetica, sans-serif'" font-size="12" lengthAdjust="spacing" textLength="130.241" x="1574" y="1674.5676">wall clock &#8805; timeoutMs</text><text fill="#000000" font-family="'Inter, Helvetica, sans-serif'" font-size="12" lengthAdjust="spacing" textLength="63.7142" x="1607.2634" y="1689.0899">&#8594; kill -pgid</text></g><!--link POSIX_WAIT to POSIX_FAIL_OV--><g class="link" data-entity-1="ent0008" data-entity-2="ent0012" data-link-type="dependency" data-source-line="38" id="lnk39"><path d="M1638.13,1626.6829 C1661.52,1635.3629 1687.61,1647.0929 1709,1661.9429 C1733.02,1678.6229 1751.946,1699.9717 1766.416,1718.6317" fill="none" id="POSIX_WAIT-to-POSIX_FAIL_OV" style="stroke:#1A1D24;stroke-width:1;"/><polygon fill="#1A1D24" points="1769.48,1722.5829,1767.1258,1713.0195,1766.416,1718.6317,1760.8039,1717.9219,1769.48,1722.5829" style="stroke:#1A1D24;stroke-width:1;stroke-linejoin:miter;stroke-miterlimit:10;"/><text fill="#000000" font-family="'Inter, Helvetica, sans-serif'" font-size="12" lengthAdjust="spacing" textLength="116.8266" x="1743" y="1674.5676">stdout+stderr &#8805; max</text><text fill="#000000" font-family="'Inter, Helvetica, sans-serif'" font-size="12" lengthAdjust="spacing" textLength="63.7142" x="1769.5562" y="1689.0899">&#8594; kill -pgid</text></g><!--link Dispatch to GMN52--><g class="link" data-entity-1="ent0001" data-entity-2="ent0053" data-link-type="association" data-source-line="73" id="lnk54"><path d="M855.33,282.2129 C876.44,313.9729 900.05,351.5129 919,386.9429 C981.24,503.3029 1038.52,649.7229 1062.77,714.2829" fill="none" id="Dispatch-GMN52" style="stroke:#1A1D24;stroke-width:1;stroke-dasharray:7,7;"/></g><!--link POSIX_UNAVAIL to GMN55--><g class="link" data-entity-1="ent0013" data-entity-2="ent0056" data-link-type="association" data-source-line="80" id="lnk57"><path d="M1591.77,1454.0829 C1610.77,1433.0429 1640.98,1404.6629 1674.5,1392.4429 C1753.84,1363.5229 1782.91,1370.6829 1864.5,1392.4429 C1898.35,1401.4729 1932.49,1420.0629 1959.78,1437.7529" fill="none" id="POSIX_UNAVAIL-GMN55" style="stroke:#1A1D24;stroke-width:1;stroke-dasharray:7,7;"/></g><?plantuml-src dLP1K-Cs6BtxLtpTFHHsIL82tGE7pWGij-w2xOaTGgTqFCOMH5r7obZA9Yd3TJkzxY_efN-CNrB9EBOSnmdj2KdVUq_lKwI7lo4qJkS9Xcwt5nPZtkDYbU8kcKzJmn14f1ZyO1ZwvpUcxNjXO0UNo32-1PTYUC32ZsXonvO7ZvX6TobEdWuXZj8Kdhzy1RoCOf6km7KGO9e05v70NGWcc4g1R4wzbPWm6c0k-47C4dm4GeqF6sms5p6ROZYOHPn33-uZaa9FYXJRZsZqMIuf1uTTiEIm4wUCu-GC8hg2EOrn9Y92nGgU__mA8-SA3VpH49amYyIaQnY_lliDEfqVm2HShiGJmyZDmfkjBRw1Y9TGU3G0vC756Pa9mYYSrGxCHFv5g4Q3uE8duyamIfxQR-Ju0mk5VZ08q0PnY2x3btATuhc-VLCo2azd8flZM_eUKaBdoruIPGj2wxonxRIo9FYaN_Qik_0B3tdBDRUlQBkm_rGgUuoJPN6UkQBUZ1BSwk05v0tTSwIHyla-2l9g3EJj9Wn7ZeQNiztmyS0EDBoQ6fAnlanrdzgiLaNUbXy-XuNknrRUo1bS3-pBBLJ73RrVD9xKhsYofIqK_s9eUq4u7jf1W9msRlkMLn_D05rveINB9LjjLP7pim5jef_1mFVLfLmI0T-rWPHsY6xaMe5y_kllFUZ0bTY5IYCP1l4doVW719bYcIPN_9QgaFb4PBKpUo39JYNtMYfnaKZcU_a7PrakDesM3PdgnZogiCgVs9D-2LMpRotBCgqFczZxAENuw9PcEEACdgasEvJHFt36T8doAFRmYruRrC3TGvIasLnqs6UStQTiqH1mhoi1CSdOufOsWrWZhM_EM_J1jCo-5WXZGXEsu7eaL3dL6WWAKiL1ETiDBw9WFQd0CYCN56PiWJC-mMdQnKiPYXsBo7zzCXWxlxExxemVb-mTiQ3AFxld9LIEA-Wu8i9Y6PA_wW6X56V1-YuUbeJD2D5xAyTQPLzuD3bxWWFTL5iLhx_gkR7ykaZe5zHr8bGdKupArVpjDSNaax5_T92vXT7kGABMWLHAbmUtaJWDmFQqEJhkdxQYyxJPDA4aGiLgZuNIp_yDXPhV_n89clNNlcVzoBNNJ9catZ4Xs1JOVVKL1RK3STm0vPz2uULnUwdVNZffBvqQwWjJ-IZSPEHX8fIPMWHj4r2b5aSlfNvxwQIzTDfU-huo-oy0?></g></svg>