<svg xmlns="http://www.w3.org/2000/svg" xmlns:xlink="http://www.w3.org/1999/xlink" contentStyleType="text/css" data-diagram-type="STATE" height="1249px" preserveAspectRatio="none" style="width:932px;height:1249px;background:#F4EEE3;" version="1.1" viewBox="0 0 932 1249" width="932px" zoomAndPan="magnify"><?plantuml 1.2026.4?><defs/><g><rect fill="#F4EEE3" height="1249" style="stroke:none;stroke-width:1;" width="932" x="0" y="0"/><g class="title" data-source-line="3"><text fill="#000000" font-family="'Inter, Helvetica, sans-serif'" font-size="14" font-weight="700" lengthAdjust="spacing" textLength="470.5634" x="227.592" y="23.5623">Machine &#224; &#233;tats &#8212; cycle de vie de Signature.characterization_state</text></g><g class="entity" data-qualified-name="NotCharacterized" data-source-line="25" id="ent0001"><path d="M289.03,154.9429 L559.1778,154.9429 A4,4 0 0 1 563.1778,158.9429 L563.1778,179.4652 L285.03,179.4652 L285.03,158.9429 A4,4 0 0 1 289.03,154.9429" fill="#F1F1F1"/><rect fill="none" height="461.626" rx="4" ry="4" style="stroke:#181818;stroke-width:0.5;" width="278.1478" x="285.03" y="154.9429"/><line style="stroke:#181818;stroke-width:0.5;" x1="285.03" x2="563.1778" y1="179.4652" y2="179.4652"/><text fill="#000000" font-family="'Inter, Helvetica, sans-serif'" font-size="12" lengthAdjust="spacing" textLength="89.9125" x="379.1476" y="171.5676">Non caract&#233;ris&#233;</text><g class="entity" data-qualified-name="NotCharacterized.description" data-source-line="26" id="ent0002"><rect fill="#F1F1F1" height="412.1037" rx="4" ry="4" style="stroke:#181818;stroke-width:0.5;" width="242.1478" x="297.03" y="191.4652"/><line style="stroke:#181818;stroke-width:0.5;" x1="297.03" x2="539.1778" y1="215.9876" y2="215.9876"/><text fill="#000000" font-family="'Inter, Helvetica, sans-serif'" font-size="12" lengthAdjust="spacing" textLength="63.4245" x="386.3916" y="208.0899">description</text><text fill="#000000" font-family="'Inter, Helvetica, sans-serif'" font-size="12" lengthAdjust="spacing" textLength="157.7687" x="302.03" y="232.6123">sidecar `modelMeta` existe</text><text fill="#000000" font-family="'Inter, Helvetica, sans-serif'" font-size="12" lengthAdjust="spacing" textLength="149.8599" x="302.03" y="247.1347">(peut-&#234;tre avec autoTags)</text><text fill="#000000" font-family="'Inter, Helvetica, sans-serif'" font-size="12" lengthAdjust="spacing" textLength="181.1545" x="302.03" y="261.657">mais pas de champ `signature`.</text><text fill="#000000" font-family="'Inter, Helvetica, sans-serif'" font-size="12" lengthAdjust="spacing" textLength="193.7337" x="302.03" y="276.1794">Pour le routing : D9 &#8658; IN&#201;LIGIBLE.</text><text fill="#000000" font-family="'Inter, Helvetica, sans-serif'" font-size="12" lengthAdjust="spacing" textLength="142.4623" x="302.03" y="290.7017">characterizeRunner actif.</text><text fill="#000000" font-family="'Inter, Helvetica, sans-serif'" font-size="12" lengthAdjust="spacing" textLength="189.694" x="302.03" y="305.2241">listRunning() montre le processus</text><text fill="#000000" font-family="'Inter, Helvetica, sans-serif'" font-size="12" lengthAdjust="spacing" textLength="161.0073" x="302.03" y="319.7465">chat ; characterization_state</text><text fill="#000000" font-family="'Inter, Helvetica, sans-serif'" font-size="12" lengthAdjust="spacing" textLength="210.0287" x="302.03" y="334.2688">sur disque encore null (pas d'&#233;criture</text><text fill="#000000" font-family="'Inter, Helvetica, sans-serif'" font-size="12" lengthAdjust="spacing" textLength="53.0782" x="302.03" y="348.7912">partielle).</text><text fill="#000000" font-family="'Inter, Helvetica, sans-serif'" font-size="12" lengthAdjust="spacing" textLength="132.2352" x="302.03" y="363.3135">&#233;ligible au routing (D9).</text><text fill="#000000" font-family="'Inter, Helvetica, sans-serif'" font-size="12" lengthAdjust="spacing" textLength="202.5119" x="302.03" y="377.8359">Tous les champs comportementaux</text><text fill="#000000" font-family="'Inter, Helvetica, sans-serif'" font-size="12" lengthAdjust="spacing" textLength="203.0914" x="302.03" y="392.3582">requis pr&#233;sents : `scores_per_axis`,</text><text fill="#000000" font-family="'Inter, Helvetica, sans-serif'" font-size="12" lengthAdjust="spacing" textLength="205.0687" x="302.03" y="406.8806">`scores_per_leaf`, `branch_scores`.</text><text fill="#000000" font-family="'Inter, Helvetica, sans-serif'" font-size="12" lengthAdjust="spacing" textLength="186.7282" x="302.03" y="421.403">models.route classe ce candidat.</text><text fill="#000000" font-family="'Inter, Helvetica, sans-serif'" font-size="12" lengthAdjust="spacing" textLength="147.6951" x="302.03" y="435.9253">&#233;ligible au routing (D9) ssi</text><text fill="#000000" font-family="'Inter, Helvetica, sans-serif'" font-size="12" lengthAdjust="spacing" textLength="187.1373" x="302.03" y="450.4477">le scores_per_axis core est pos&#233;.</text><text fill="#000000" font-family="'Inter, Helvetica, sans-serif'" font-size="12" lengthAdjust="spacing" textLength="190.1031" x="302.03" y="464.97">Champs optionnels manquants &#8658;</text><text fill="#000000" font-family="'Inter, Helvetica, sans-serif'" font-size="12" lengthAdjust="spacing" textLength="185.5351" x="302.03" y="479.4924">confiance d&#233;grad&#233;e mais class&#233;.</text><text fill="#000000" font-family="'Inter, Helvetica, sans-serif'" font-size="12" lengthAdjust="spacing" textLength="109.9404" x="302.03" y="494.0147">routing IN&#201;LIGIBLE.</text><text fill="#000000" font-family="'Inter, Helvetica, sans-serif'" font-size="12" lengthAdjust="spacing" textLength="172.9217" x="302.03" y="508.5371">Montr&#233; dans le radar avec une</text><text fill="#000000" font-family="'Inter, Helvetica, sans-serif'" font-size="12" lengthAdjust="spacing" textLength="155.3313" x="302.03" y="523.0595">banni&#232;re claire. L'utilisateur</text><text fill="#000000" font-family="'Inter, Helvetica, sans-serif'" font-size="12" lengthAdjust="spacing" textLength="200.8585" x="302.03" y="537.5818">re-caract&#233;rise pour quitter cet &#233;tat.</text><text fill="#000000" font-family="'Inter, Helvetica, sans-serif'" font-size="12" lengthAdjust="spacing" textLength="181.3249" x="302.03" y="552.1042">Pseudo-&#233;tat : hash sur disque &#8800;</text><text fill="#000000" font-family="'Inter, Helvetica, sans-serif'" font-size="12" lengthAdjust="spacing" textLength="176.6205" x="302.03" y="566.6265">hash fichier courant. Le routing</text><text fill="#000000" font-family="'Inter, Helvetica, sans-serif'" font-size="12" lengthAdjust="spacing" textLength="222.1478" x="302.03" y="581.1489">utilise encore l'ancienne signature mais</text><text fill="#000000" font-family="'Inter, Helvetica, sans-serif'" font-size="12" lengthAdjust="spacing" textLength="194.5007" x="302.03" y="595.6713">l'UI prompt une re-caract&#233;risation.</text></g></g><g class="entity" data-qualified-name="Running" data-source-line="31" id="ent0003"><rect fill="#F1F1F1" height="50" rx="4" ry="4" style="stroke:#181818;stroke-width:0.5;" width="126.8893" x="360.53" y="774.4429"/><line style="stroke:#181818;stroke-width:0.5;" x1="360.53" x2="487.4193" y1="798.9652" y2="798.9652"/><text fill="#000000" font-family="'Inter, Helvetica, sans-serif'" font-size="12" lengthAdjust="spacing" textLength="106.8893" x="370.53" y="791.0676">Running (en cours)</text></g><g class="entity" data-qualified-name="Complete" data-source-line="39" id="ent0004"><rect fill="#FFFDF6" height="50" rx="4" ry="4" style="stroke:#181818;stroke-width:0.5;" width="72.7884" x="345.53" y="1010.9429"/><line style="stroke:#181818;stroke-width:0.5;" x1="345.53" x2="418.3184" y1="1035.4652" y2="1035.4652"/><text fill="#000000" font-family="'Inter, Helvetica, sans-serif'" font-size="12" lengthAdjust="spacing" textLength="52.7884" x="355.53" y="1027.5676">complete</text></g><g class="entity" data-qualified-name="Incomplete" data-source-line="43" id="ent0005"><rect fill="#F1F1F1" height="50" rx="4" ry="4" style="stroke:#181818;stroke-width:0.5;" width="82.6575" x="83.53" y="1010.9429"/><line style="stroke:#181818;stroke-width:0.5;" x1="83.53" x2="166.1875" y1="1035.4652" y2="1035.4652"/><text fill="#000000" font-family="'Inter, Helvetica, sans-serif'" font-size="12" lengthAdjust="spacing" textLength="62.6575" x="93.53" y="1027.5676">incomplete</text></g><g class="entity" data-qualified-name="Quarantined" data-source-line="47" id="ent0006"><rect fill="#E6DFD2" height="50" rx="4" ry="4" style="stroke:#181818;stroke-width:0.5;" width="87.9756" x="700.03" y="1010.9429"/><line style="stroke:#181818;stroke-width:0.5;" x1="700.03" x2="788.0056" y1="1035.4652" y2="1035.4652"/><text fill="#000000" font-family="'Inter, Helvetica, sans-serif'" font-size="12" lengthAdjust="spacing" textLength="67.9756" x="710.03" y="1027.5676">quarantined</text></g><g class="entity" data-qualified-name="Stale" data-source-line="57" id="ent0007"><rect fill="#F1F1F1" height="50" rx="4" ry="4" style="stroke:#181818;stroke-width:0.5;" width="50" x="357.03" y="1174.9429"/><line style="stroke:#181818;stroke-width:0.5;" x1="357.03" x2="407.03" y1="1199.4652" y2="1199.4652"/><text fill="#000000" font-family="'Inter, Helvetica, sans-serif'" font-size="12" lengthAdjust="spacing" textLength="28.6186" x="367.7207" y="1191.5676">Stale</text></g><g class="start_entity" data-qualified-name=".start." data-source-line="23" id="ent0008"><ellipse cx="424.03" cy="53.9429" fill="#222222" rx="10" ry="10" style="stroke:#222222;stroke-width:1;"/></g><g class="entity" data-qualified-name="GMN20" data-source-line="64" id="ent0021"><path d="M627.03,1169.9429 L627.03,1230.0323 A4,4 0 0 0 631.03,1234.0323 L857.4678,1234.0323 A4,4 0 0 0 861.4678,1230.0323 L861.4678,1175.9429 L851.4678,1165.9429 L748.03,1165.9429 L744.03,1061.1929 L740.03,1165.9429 L631.03,1165.9429 A4,4 0 0 0 627.03,1169.9429" fill="#FFFDF6" style="stroke:#C68A3A;stroke-width:0.5;"/><path d="M851.4678,1165.9429 L851.4678,1173.9429 A2,2 0 0 0 853.4678,1175.9429 L861.4678,1175.9429 L851.4678,1165.9429" fill="#FFFDF6" style="stroke:#C68A3A;stroke-width:0.5;"/><text fill="#0E1014" font-family="'Inter, Helvetica, sans-serif'" font-size="12" lengthAdjust="spacing" textLength="166.9901" x="633.03" y="1182.5676">Quarantined reste permanent</text><text fill="#0E1014" font-family="'Inter, Helvetica, sans-serif'" font-size="12" lengthAdjust="spacing" textLength="146.0929" x="633.03" y="1197.0899">jusqu'&#224; ce que l'utilisateur</text><text fill="#0E1014" font-family="'Inter, Helvetica, sans-serif'" font-size="12" lengthAdjust="spacing" textLength="213.4378" x="633.03" y="1211.6123">re-caract&#233;rise explicitement &#8212; m&#234;me</text><text fill="#0E1014" font-family="'Inter, Helvetica, sans-serif'" font-size="12" lengthAdjust="spacing" textLength="169.4957" x="633.03" y="1226.1347">si une query de routing arrive.</text></g><g class="entity" data-qualified-name="GMN23" data-source-line="71" id="ent0024"><path d="M522.53,725.9429 L522.53,795.4429 L487.62,799.4429 L522.53,803.4429 L522.53,873.1665 A4,4 0 0 0 526.53,877.1665 L913.6852,877.1665 A4,4 0 0 0 917.6852,873.1665 L917.6852,731.9429 L907.6852,721.9429 L526.53,721.9429 A4,4 0 0 0 522.53,725.9429" fill="#FFFDF6" style="stroke:#C68A3A;stroke-width:0.5;"/><path d="M907.6852,721.9429 L907.6852,729.9429 A2,2 0 0 0 909.6852,731.9429 L917.6852,731.9429 L907.6852,721.9429" fill="#FFFDF6" style="stroke:#C68A3A;stroke-width:0.5;"/><text fill="#0E1014" font-family="'Inter, Helvetica, sans-serif'" font-size="12" lengthAdjust="spacing" textLength="150.1496" x="528.53" y="738.5676">Effets de bord sur disque :</text><text fill="#0E1014" font-family="'Inter, Helvetica, sans-serif'" font-size="12" lengthAdjust="spacing" textLength="240.9996" x="528.53" y="753.0899">&#8226; `archiveServerLog(...)` au D&#201;BUT du run</text><text fill="#0E1014" font-family="'Inter, Helvetica, sans-serif'" font-size="12" lengthAdjust="spacing" textLength="183.4556" x="528.53" y="767.6123">(renomme le `.log` pr&#233;c&#233;dent &#8594;</text><text fill="#0E1014" font-family="'Inter, Helvetica, sans-serif'" font-size="12" lengthAdjust="spacing" textLength="163.7686" x="528.53" y="782.1347">`.&lt;ISO&gt;.log`, session fra&#238;che</text><text fill="#0E1014" font-family="'Inter, Helvetica, sans-serif'" font-size="12" lengthAdjust="spacing" textLength="200.2108" x="528.53" y="796.657">commence propre &#8212; 2026-05-24).</text><text fill="#0E1014" font-family="'Inter, Helvetica, sans-serif'" font-size="12" lengthAdjust="spacing" textLength="193.7337" x="528.53" y="811.1794">&#8226; `appendServerLog(.log, chunk)`</text><text fill="#0E1014" font-family="'Inter, Helvetica, sans-serif'" font-size="12" lengthAdjust="spacing" textLength="196.6484" x="528.53" y="825.7017">sur chaque chunk stdout/stderr de</text><text fill="#0E1014" font-family="'Inter, Helvetica, sans-serif'" font-size="12" lengthAdjust="spacing" textLength="254.431" x="528.53" y="840.2241">llama-server (hook&#233; dans runners/launch.ts).</text><text fill="#0E1014" font-family="'Inter, Helvetica, sans-serif'" font-size="12" lengthAdjust="spacing" textLength="255.6072" x="528.53" y="854.7465">&#8226; Sur Quarantined / Incomplete-avec-erreur :</text><text fill="#0E1014" font-family="'Inter, Helvetica, sans-serif'" font-size="12" lengthAdjust="spacing" textLength="374.1552" x="528.53" y="869.2688">`appendErrorLog(.ts/&lt;fichier&gt;.error, raison)` avec timestamp ISO.</text></g><!--link *start* to NotCharacterized--><g class="link" data-entity-1="ent0008" data-entity-2="ent0001" data-link-type="dependency" data-source-line="23" id="lnk9"><path d="M424.03,64.1129 C424.03,79.8329 424.03,109.1829 424.03,149.8129" fill="none" id="*start*-to-NotCharacterized" style="stroke:#1A1D24;stroke-width:1;"/><polygon fill="#1A1D24" points="424.03,154.8129,428.03,145.8129,424.03,149.8129,420.03,145.8129,424.03,154.8129" style="stroke:#1A1D24;stroke-width:1;stroke-linejoin:miter;stroke-miterlimit:10;"/><text fill="#000000" font-family="'Inter, Helvetica, sans-serif'" font-size="12" lengthAdjust="spacing" textLength="80.3332" x="425.03" y="106.5676">mod&#232;le ajout&#233;</text><text fill="#000000" font-family="'Inter, Helvetica, sans-serif'" font-size="12" lengthAdjust="spacing" textLength="58.5667" x="435.9132" y="121.0899">au dossier</text></g><!--link NotCharacterized to Running--><g class="link" data-entity-1="ent0001" data-entity-2="ent0003" data-link-type="dependency" data-source-line="29" id="lnk10"><path d="M424.03,617.0529 C424.03,681.0429 424.03,736.8429 424.03,769.2329" fill="none" id="NotCharacterized-to-Running" style="stroke:#1A1D24;stroke-width:1;"/><polygon fill="#1A1D24" points="424.03,774.2329,428.03,765.2329,424.03,769.2329,420.03,765.2329,424.03,774.2329" style="stroke:#1A1D24;stroke-width:1;stroke-linejoin:miter;stroke-miterlimit:10;"/><text fill="#000000" font-family="'Inter, Helvetica, sans-serif'" font-size="12" lengthAdjust="spacing" textLength="98.2475" x="425.03" y="659.5676">l'utilisateur clique</text><text fill="#000000" font-family="'Inter, Helvetica, sans-serif'" font-size="12" lengthAdjust="spacing" textLength="79.498" x="434.4048" y="674.0899">"Caract&#233;riser"</text><text fill="#000000" font-family="'Inter, Helvetica, sans-serif'" font-size="12" lengthAdjust="spacing" textLength="95.8783" x="426.2146" y="688.6123">OU requ&#234;te MCP</text></g><!--link Running to Complete--><g class="link" data-entity-1="ent0003" data-entity-2="ent0004" data-link-type="dependency" data-source-line="35" id="lnk11"><path d="M419.69,824.6529 C411.62,869.7129 395.2714,960.9912 387.2214,1005.9412" fill="none" id="Running-to-Complete" style="stroke:#1A1D24;stroke-width:1;"/><polygon fill="#1A1D24" points="386.34,1010.8629,391.8639,1002.709,387.2214,1005.9412,383.9892,1001.2987,386.34,1010.8629" style="stroke:#1A1D24;stroke-width:1;stroke-linejoin:miter;stroke-miterlimit:10;"/><text fill="#000000" font-family="'Inter, Helvetica, sans-serif'" font-size="12" lengthAdjust="spacing" textLength="118.514" x="406.03" y="934.0676">R5 + arbre + freegen</text><text fill="#000000" font-family="'Inter, Helvetica, sans-serif'" font-size="12" lengthAdjust="spacing" textLength="58.6349" x="435.9696" y="948.5899">(si seam&#233;)</text><text fill="#000000" font-family="'Inter, Helvetica, sans-serif'" font-size="12" lengthAdjust="spacing" textLength="76.856" x="426.859" y="963.1123">TOUS r&#233;ussis</text></g><!--link Complete to Running--><g class="link" data-entity-1="ent0004" data-entity-2="ent0003" data-link-type="dependency" data-source-line="51" id="lnk14"><path d="M345.45,1021.9329 C327.11,1013.3429 306.61,1000.0729 296.03,980.9429 C280.11,952.1629 282.07,936.7229 296.03,906.9429 C312.9,870.9529 344.3322,845.5403 373.7422,827.2803" fill="none" id="Complete-to-Running" style="stroke:#1A1D24;stroke-width:1;"/><polygon fill="#1A1D24" points="377.99,824.6429,368.234,825.9919,373.7422,827.2803,372.4538,832.7885,377.99,824.6429" style="stroke:#1A1D24;stroke-width:1;stroke-linejoin:miter;stroke-miterlimit:10;"/><text fill="#000000" font-family="'Inter, Helvetica, sans-serif'" font-size="12" lengthAdjust="spacing" textLength="87.9694" x="297.03" y="941.0676">Re-caract&#233;riser</text><text fill="#000000" font-family="'Inter, Helvetica, sans-serif'" font-size="12" lengthAdjust="spacing" textLength="82.157" x="299.9362" y="955.5899">(avec confirm)</text></g><!--link Running to Incomplete--><g class="link" data-entity-1="ent0003" data-entity-2="ent0005" data-link-type="dependency" data-source-line="36" id="lnk12"><path d="M360.23,806.9629 C296.23,817.0629 199.8,842.6129 147.03,906.9429 C122.86,936.4029 120.7364,977.7604 122.2764,1005.8604" fill="none" id="Running-to-Incomplete" style="stroke:#1A1D24;stroke-width:1;"/><polygon fill="#1A1D24" points="122.55,1010.8529,126.0515,1001.6475,122.2764,1005.8604,118.0635,1002.0853,122.55,1010.8529" style="stroke:#1A1D24;stroke-width:1;stroke-linejoin:miter;stroke-miterlimit:10;"/><text fill="#000000" font-family="'Inter, Helvetica, sans-serif'" font-size="12" lengthAdjust="spacing" textLength="35.3002" x="194.7334" y="934.0676">R5 OK</text><text fill="#000000" font-family="'Inter, Helvetica, sans-serif'" font-size="12" lengthAdjust="spacing" textLength="128.707" x="148.03" y="948.5899">mais arbre OU freegen</text><text fill="#000000" font-family="'Inter, Helvetica, sans-serif'" font-size="12" lengthAdjust="spacing" textLength="80.0775" x="172.3447" y="963.1123">&#233;chou&#233; (isol&#233;)</text></g><!--link Incomplete to Running--><g class="link" data-entity-1="ent0005" data-entity-2="ent0003" data-link-type="dependency" data-source-line="52" id="lnk15"><path d="M83.35,1023.4229 C62.23,1015.2429 38.47,1001.9029 26.03,980.9429 C9.24,952.6629 6,933.0329 26.03,906.9429 C66.59,854.1029 253.8447,822.4503 355.5647,808.7503" fill="none" id="Incomplete-to-Running" style="stroke:#1A1D24;stroke-width:1;"/><polygon fill="#1A1D24" points="360.52,808.0829,351.0666,805.32,355.5647,808.7503,352.1344,813.2484,360.52,808.0829" style="stroke:#1A1D24;stroke-width:1;stroke-linejoin:miter;stroke-miterlimit:10;"/><text fill="#000000" font-family="'Inter, Helvetica, sans-serif'" font-size="12" lengthAdjust="spacing" textLength="87.9694" x="27.03" y="948.5676">Re-caract&#233;riser</text></g><!--link Running to Quarantined--><g class="link" data-entity-1="ent0003" data-entity-2="ent0006" data-link-type="dependency" data-source-line="37" id="lnk13"><path d="M442.57,824.6129 C457.45,842.1529 479.94,864.8429 505.03,876.9429 C589.95,917.9029 645.72,843.0229 715.03,906.9429 C743.67,933.3529 747.1547,976.5956 746.1947,1005.7156" fill="none" id="Running-to-Quarantined" style="stroke:#1A1D24;stroke-width:1;"/><polygon fill="#1A1D24" points="746.03,1010.7129,750.3244,1001.8496,746.1947,1005.7156,742.3287,1001.586,746.03,1010.7129" style="stroke:#1A1D24;stroke-width:1;stroke-linejoin:miter;stroke-miterlimit:10;"/><text fill="#000000" font-family="'Inter, Helvetica, sans-serif'" font-size="12" lengthAdjust="spacing" textLength="116.6391" x="773.5691" y="919.5676">R5 lui-m&#234;me &#233;chou&#233;</text><text fill="#000000" font-family="'Inter, Helvetica, sans-serif'" font-size="12" lengthAdjust="spacing" textLength="158.9789" x="752.3992" y="934.0899">(ex. mod&#232;le crash&#233; au boot)</text><text fill="#000000" font-family="'Inter, Helvetica, sans-serif'" font-size="12" lengthAdjust="spacing" textLength="160.1891" x="751.7941" y="948.6123">OU erreur IO catastrophique</text><text fill="#000000" font-family="'Inter, Helvetica, sans-serif'" font-size="12" lengthAdjust="spacing" textLength="165.5072" x="749.1351" y="963.1347">OU mod&#232;le non-chat d&#233;tect&#233;</text><text fill="#000000" font-family="'Inter, Helvetica, sans-serif'" font-size="12" lengthAdjust="spacing" textLength="169.7173" x="747.03" y="977.657">(filtre 3 niveaux, 2026-05-24)</text></g><!--link Quarantined to Running--><g class="link" data-entity-1="ent0006" data-entity-2="ent0003" data-link-type="dependency" data-source-line="53" id="lnk16"><path d="M699.75,1019.9229 C668.51,1008.6129 630.16,993.0429 618.03,980.9429 C592.65,955.6429 612.03,931.5929 586.03,906.9429 C558.17,880.5329 537.64,897.1929 505.03,876.9429 C482.02,862.6529 463.3485,844.7896 448.0685,828.2096" fill="none" id="Quarantined-to-Running" style="stroke:#1A1D24;stroke-width:1;"/><polygon fill="#1A1D24" points="444.68,824.5329,447.8378,833.8618,448.0685,828.2096,453.7206,828.4403,444.68,824.5329" style="stroke:#1A1D24;stroke-width:1;stroke-linejoin:miter;stroke-miterlimit:10;"/><text fill="#000000" font-family="'Inter, Helvetica, sans-serif'" font-size="12" lengthAdjust="spacing" textLength="87.9694" x="619.03" y="948.5676">Re-caract&#233;riser</text></g><!--link Complete to Stale--><g class="link" data-entity-1="ent0004" data-entity-2="ent0007" data-link-type="dependency" data-source-line="54" id="lnk17"><path d="M382.03,1061.1929 C382.03,1091.8229 382.03,1139.2029 382.03,1169.7929" fill="none" id="Complete-to-Stale" style="stroke:#1A1D24;stroke-width:1;"/><polygon fill="#1A1D24" points="382.03,1174.7929,386.03,1165.7929,382.03,1169.7929,378.03,1165.7929,382.03,1174.7929" style="stroke:#1A1D24;stroke-width:1;stroke-linejoin:miter;stroke-miterlimit:10;"/><text fill="#000000" font-family="'Inter, Helvetica, sans-serif'" font-size="12" lengthAdjust="spacing" textLength="90.7136" x="384.7686" y="1103.5676">drift modelHash</text><text fill="#000000" font-family="'Inter, Helvetica, sans-serif'" font-size="12" lengthAdjust="spacing" textLength="79.2764" x="390.4872" y="1118.0899">(fichier &#233;dit&#233; /</text><text fill="#000000" font-family="'Inter, Helvetica, sans-serif'" font-size="12" lengthAdjust="spacing" textLength="94.1908" x="383.03" y="1132.6123">shards chang&#233;s)</text></g><!--link Incomplete to Stale--><g class="link" data-entity-1="ent0005" data-entity-2="ent0007" data-link-type="dependency" data-source-line="55" id="lnk18"><path d="M163.1,1060.9529 C194.89,1081.0029 241.41,1110.3429 282.03,1135.9429 C307.55,1152.0229 332.4991,1167.7484 352.7291,1180.4884" fill="none" id="Incomplete-to-Stale" style="stroke:#1A1D24;stroke-width:1;"/><polygon fill="#1A1D24" points="356.96,1183.1529,351.4759,1174.9721,352.7291,1180.4884,347.2128,1181.7416,356.96,1183.1529" style="stroke:#1A1D24;stroke-width:1;stroke-linejoin:miter;stroke-miterlimit:10;"/><text fill="#000000" font-family="'Inter, Helvetica, sans-serif'" font-size="12" lengthAdjust="spacing" textLength="90.7136" x="283.03" y="1118.0676">drift modelHash</text></g><!--link Stale to Running--><g class="link" data-entity-1="ent0007" data-entity-2="ent0003" data-link-type="dependency" data-source-line="61" id="lnk19"><path d="M407.09,1189.8929 C430.75,1180.1129 465.57,1162.2829 486.03,1135.9429 C530.18,1079.0829 522.47,1052.1529 533.03,980.9429 C537.85,948.4129 545.79,937.2529 533.03,906.9429 C530.79,901.6429 484.8756,857.7754 453.3656,828.0254" fill="none" id="Stale-to-Running" style="stroke:#1A1D24;stroke-width:1;"/><polygon fill="#1A1D24" points="449.73,824.5929,453.5281,833.6799,453.3656,828.0254,459.0201,827.863,449.73,824.5929" style="stroke:#1A1D24;stroke-width:1;stroke-linejoin:miter;stroke-miterlimit:10;"/><text fill="#000000" font-family="'Inter, Helvetica, sans-serif'" font-size="12" lengthAdjust="spacing" textLength="87.9694" x="531.03" y="1040.5676">Re-caract&#233;riser</text></g><?plantuml-src ZLNHajiq57ttLrpQ1rgcpcxJxGAPJcTCx7G3ZaDjxmCmZ5Trb4HTMJAIl6NfT8QFu2Vu3lw4B-5AIHfd4vFu8PEvrZawvzmh-GicIjxCAFHwPyNwlpxJvfxJ7cigxdc66KuXozCY6x-9XqK-pkF8yxw4p113DH15mImfS6Qe8Xpk26-mB0NCcBu59k2cP_JPgpdZz7NllPRYfeVeN16XcM5IQ2YbKbJNKip0I2YNH94IoTWVD6s4e0hn81jJoefgn29wAAkQ20JZzeRDSRc63uePGmK8-hknF5QKPWj1J8CIly-coG2H0FwE82uNDx3p_FldNu24x0xXL6lSP02SauhucgexgXp9yKUR6Mh6A6TKAIX9RMNCR2uKIUvFP9aGgerYnA-880l4SzA8SdaY-WcfQofclXJy_XbSm8Hz1qfYtz3Kqzw1D5xzXCza4eRvSbbLMl-y2kYaxMnkDLN-EZJiJBcq8Jxfd_Sl_VENVl_YwU14uKuakfqhMQ50roHYLYqrsF8JQUGSA2cNE18VscFb_3yxaUEMqbfZxDh0y_FDH6Zh52eve_nGZDXngMuUXcCOpgyXLOt6R50E3cxjYLhUoqO9F6CkblOv2JW_TIIai6SLVwo3EM4SnzBD0dB0EnJeq_bSAkFE4zK38Ak3x7HYaZYyUAp4BPvyK8teUTulN_qAllyQ4cc6BKqp6BIkZJIAYyaqnDyW3AFGyxJjC3pQhiYAP9eFhuBq4H2zJ_RH0y2xgLIijktR8G-ZRBX1UvyyRmzivTcxX8d5dghhB4eBXpoaARrEad7oncdQC1oLiWPPAHkCLM1lBKvnXuSIWZWkfZ_ih1sBicjrdaPHCGh6yGxWROE6XS7ExWV_zZf8WoGV9wtWD_JEsMTbZqUZKJYwF6vnE9ty64TvP3sk6PdOuMmvECesJWxm_RPrv0ZR3Xz7b-4ex1zdRbj7wiz6_syYqiYE0rfCHkDquhMCxA9IwfTkolxvMp7yE7XjXKUMxWZ1JodVx_DLa5qLOJeUvGyb75jVP5VJDD_Eirtk8bm1ZuQMvK7iEh5QVyIA9oJkyauQWxSINhcj572ZBJKUqCZreuYVTxteTxruqVNYmiCl75W9Qo6ABPR6wbXBtWVYyJmemTNx7VKN7VMBZlhBZlfbH_thZlet7VLlktoTRmFv3m00?></g></svg>