<svg xmlns="http://www.w3.org/2000/svg" xmlns:xlink="http://www.w3.org/1999/xlink" contentStyleType="text/css" data-diagram-type="DESCRIPTION" height="1154px" preserveAspectRatio="none" style="width:1532px;height:1154px;background:#F4EEE3;" version="1.1" viewBox="0 0 1532 1154" width="1532px" zoomAndPan="magnify"><?plantuml 1.2026.4?><defs/><g><rect fill="#F4EEE3" height="1154" style="stroke:none;stroke-width:1;" width="1532" x="0" y="0"/><g class="title" data-source-line="4"><text fill="#000000" font-family="'Inter, Helvetica, sans-serif'" font-size="14" font-weight="700" lengthAdjust="spacing" textLength="335.1593" x="594.9801" y="23.5623">Maestria &#8212; vue d'ensemble du sous-syst&#232;me IA</text></g><!--cluster MAESTRIA--><g class="cluster" data-qualified-name="MAESTRIA" data-source-line="6" id="ent0008"><path d="M92,246.4429 L230.5705,246.4429 A6,6 0 0 1 234.5705,250.4429 L241.5705,266.9652 L1257,266.9652 A4,4 0 0 1 1261,270.9652 L1261,966.9429 A4,4 0 0 1 1257,970.9429 L92,970.9429 A4,4 0 0 1 88,966.9429 L88,250.4429 A4,4 0 0 1 92,246.4429" fill="#F4EEE3" style="stroke:#C68A3A;stroke-width:1.5;"/><line style="stroke:#C68A3A;stroke-width:1.5;" x1="88" x2="241.5705" y1="266.9652" y2="266.9652"/><text fill="#0E1014" font-family="'Inter, Helvetica, sans-serif'" font-size="12" font-weight="700" lengthAdjust="spacing" textLength="140.5705" x="92" y="260.0676">Maestria (app Electron)</text></g><!--cluster Renderer (React)--><g class="cluster" data-qualified-name="MAESTRIA.Renderer .React." data-source-line="7" id="ent0009"><path d="M124,479.9429 L224.2191,479.9429 A6,6 0 0 1 228.2191,483.9429 L235.2191,500.4652 L648,500.4652 A4,4 0 0 1 652,504.4652 L652,598.9429 A4,4 0 0 1 648,602.9429 L124,602.9429 A4,4 0 0 1 120,598.9429 L120,483.9429 A4,4 0 0 1 124,479.9429" fill="#F4EEE3" style="stroke:#C68A3A;stroke-width:1.5;"/><line style="stroke:#C68A3A;stroke-width:1.5;" x1="120" x2="235.2191" y1="500.4652" y2="500.4652"/><text fill="#0E1014" font-family="'Inter, Helvetica, sans-serif'" font-size="12" font-weight="700" lengthAdjust="spacing" textLength="102.2191" x="124" y="493.5676">Renderer (React)</text></g><!--cluster Processus main--><g class="cluster" data-qualified-name="MAESTRIA.Processus main" data-source-line="12" id="ent0013"><path d="M680,295.4429 L772.0375,295.4429 A6,6 0 0 1 776.0375,299.4429 L783.0375,315.9652 L1217,315.9652 A4,4 0 0 1 1221,319.9652 L1221,934.9429 A4,4 0 0 1 1217,938.9429 L680,938.9429 A4,4 0 0 1 676,934.9429 L676,299.4429 A4,4 0 0 1 680,295.4429" fill="#F4EEE3" style="stroke:#C68A3A;stroke-width:1.5;"/><line style="stroke:#C68A3A;stroke-width:1.5;" x1="676" x2="783.0375" y1="315.9652" y2="315.9652"/><text fill="#0E1014" font-family="'Inter, Helvetica, sans-serif'" font-size="12" font-weight="700" lengthAdjust="spacing" textLength="94.0375" x="680" y="309.0676">Processus main</text></g><!--entity UI_PANEL--><g class="entity" data-qualified-name="MAESTRIA.Renderer .React..UI_PANEL" data-source-line="8" id="ent0010"><rect fill="#FFFFFF" height="59.0447" rx="4" ry="4" style="stroke:#0E1014;stroke-width:0.5;" width="144.0258" x="136" y="520.4429"/><rect fill="#FFFFFF" height="10" style="stroke:#0E1014;stroke-width:0.5;" width="15" x="260.0258" y="525.4429"/><rect fill="#FFFFFF" height="2" style="stroke:#0E1014;stroke-width:0.5;" width="4" x="258.0258" y="527.4429"/><rect fill="#FFFFFF" height="2" style="stroke:#0E1014;stroke-width:0.5;" width="4" x="258.0258" y="531.4429"/><text fill="#0E1014" font-family="'Inter, Helvetica, sans-serif'" font-size="12" lengthAdjust="spacing" textLength="89.6568" x="151" y="552.0676">ModelHubPanel</text><text fill="#0E1014" font-family="'Inter, Helvetica, sans-serif'" font-size="12" lengthAdjust="spacing" textLength="104.0258" x="151" y="566.5899">+ onglet Inf&#233;rence</text></g><!--entity UI_RADAR--><g class="entity" data-qualified-name="MAESTRIA.Renderer .React..UI_RADAR" data-source-line="9" id="ent0011"><rect fill="#FFFFFF" height="73.5671" rx="4" ry="4" style="stroke:#0E1014;stroke-width:0.5;" width="155.4119" x="315.5" y="512.9429"/><rect fill="#FFFFFF" height="10" style="stroke:#0E1014;stroke-width:0.5;" width="15" x="450.9119" y="517.9429"/><rect fill="#FFFFFF" height="2" style="stroke:#0E1014;stroke-width:0.5;" width="4" x="448.9119" y="519.9429"/><rect fill="#FFFFFF" height="2" style="stroke:#0E1014;stroke-width:0.5;" width="4" x="448.9119" y="523.9429"/><text fill="#0E1014" font-family="'Inter, Helvetica, sans-serif'" font-size="12" lengthAdjust="spacing" textLength="115.4119" x="330.5" y="544.5676">CompetenceSection</text><text fill="#0E1014" font-family="'Inter, Helvetica, sans-serif'" font-size="12" lengthAdjust="spacing" textLength="63.8847" x="330.5" y="559.0899">(radar R5 +</text><text fill="#0E1014" font-family="'Inter, Helvetica, sans-serif'" font-size="12" lengthAdjust="spacing" textLength="67.771" x="330.5" y="573.6123">radar arbre)</text></g><!--entity UI_SETTINGS--><g class="entity" data-qualified-name="MAESTRIA.Renderer .React..UI_SETTINGS" data-source-line="10" id="ent0012"><rect fill="#FFFFFF" height="61.9219" rx="4" ry="4" style="stroke:#0E1014;stroke-width:0.5;" width="130.3633" x="506" y="518.9429"/><rect fill="#FFFFFF" height="10" style="stroke:#0E1014;stroke-width:0.5;" width="15" x="616.3633" y="523.9429"/><rect fill="#FFFFFF" height="2" style="stroke:#0E1014;stroke-width:0.5;" width="4" x="614.3633" y="525.9429"/><rect fill="#FFFFFF" height="2" style="stroke:#0E1014;stroke-width:0.5;" width="4" x="614.3633" y="529.9429"/><text fill="#0E1014" font-family="'Inter, Helvetica, sans-serif'" font-size="12" lengthAdjust="spacing" textLength="90.3633" x="521" y="551.8921">Param&#232;tres &#9656; IA</text><text fill="#0E1014" font-family="'Inter, Helvetica, sans-serif'" font-size="12" lengthAdjust="spacing" textLength="55.0313" x="521" y="567.853">&#9656; Routing</text></g><!--entity MCP_SERVER--><g class="entity" data-qualified-name="MAESTRIA.Processus main.MCP_SERVER" data-source-line="13" id="ent0014"><rect fill="#FFFFFF" height="73.5671" rx="4" ry="4" style="stroke:#0E1014;stroke-width:0.5;" width="135.043" x="923.5" y="328.4429"/><rect fill="#FFFFFF" height="10" style="stroke:#0E1014;stroke-width:0.5;" width="15" x="1038.543" y="333.4429"/><rect fill="#FFFFFF" height="2" style="stroke:#0E1014;stroke-width:0.5;" width="4" x="1036.543" y="335.4429"/><rect fill="#FFFFFF" height="2" style="stroke:#0E1014;stroke-width:0.5;" width="4" x="1036.543" y="339.4429"/><text fill="#0E1014" font-family="'Inter, Helvetica, sans-serif'" font-size="12" lengthAdjust="spacing" textLength="74.6061" x="938.5" y="360.0676">Serveur MCP</text><text fill="#0E1014" font-family="'Inter, Helvetica, sans-serif'" font-size="12" lengthAdjust="spacing" textLength="95.043" x="938.5" y="374.5899">(127.0.0.1:41541,</text><text fill="#0E1014" font-family="'Inter, Helvetica, sans-serif'" font-size="12" lengthAdjust="spacing" textLength="70.396" x="938.5" y="389.1123">auth Bearer)</text></g><!--entity REGISTRY--><g class="entity" data-qualified-name="MAESTRIA.Processus main.REGISTRY" data-source-line="14" id="ent0015"><rect fill="#FFFFFF" height="88.0894" rx="4" ry="4" style="stroke:#0E1014;stroke-width:0.5;" width="144.0769" x="919" y="505.9429"/><rect fill="#FFFFFF" height="10" style="stroke:#0E1014;stroke-width:0.5;" width="15" x="1043.0769" y="510.9429"/><rect fill="#FFFFFF" height="2" style="stroke:#0E1014;stroke-width:0.5;" width="4" x="1041.0769" y="512.9429"/><rect fill="#FFFFFF" height="2" style="stroke:#0E1014;stroke-width:0.5;" width="4" x="1041.0769" y="516.9429"/><text fill="#0E1014" font-family="'Inter, Helvetica, sans-serif'" font-size="12" lengthAdjust="spacing" textLength="101.861" x="934" y="537.5676">Registry des tools</text><text fill="#0E1014" font-family="'Inter, Helvetica, sans-serif'" font-size="12" lengthAdjust="spacing" textLength="58.1576" x="934" y="552.0899">(models.*,</text><text fill="#0E1014" font-family="'Inter, Helvetica, sans-serif'" font-size="12" lengthAdjust="spacing" textLength="64.8392" x="934" y="566.6123">tags.*, hf.*,</text><text fill="#0E1014" font-family="'Inter, Helvetica, sans-serif'" font-size="12" lengthAdjust="spacing" textLength="104.0769" x="934" y="581.1347">hardware.*, route)</text></g><!--entity ROUTING--><g class="entity" data-qualified-name="MAESTRIA.Processus main.ROUTING" data-source-line="15" id="ent0016"><rect fill="#FFFFFF" height="73.5671" rx="4" ry="4" style="stroke:#0E1014;stroke-width:0.5;" width="132.8443" x="1071.5" y="669.9429"/><rect fill="#FFFFFF" height="10" style="stroke:#0E1014;stroke-width:0.5;" width="15" x="1184.3443" y="674.9429"/><rect fill="#FFFFFF" height="2" style="stroke:#0E1014;stroke-width:0.5;" width="4" x="1182.3443" y="676.9429"/><rect fill="#FFFFFF" height="2" style="stroke:#0E1014;stroke-width:0.5;" width="4" x="1182.3443" y="680.9429"/><text fill="#0E1014" font-family="'Inter, Helvetica, sans-serif'" font-size="12" lengthAdjust="spacing" textLength="43.3455" x="1086.5" y="701.5676">Routing</text><text fill="#0E1014" font-family="'Inter, Helvetica, sans-serif'" font-size="12" lengthAdjust="spacing" textLength="92.8443" x="1086.5" y="716.0899">(routeByVectors</text><text fill="#0E1014" font-family="'Inter, Helvetica, sans-serif'" font-size="12" lengthAdjust="spacing" textLength="78.2025" x="1086.5" y="730.6123">+ fallback R5)</text></g><!--entity CHARACT--><g class="entity" data-qualified-name="MAESTRIA.Processus main.CHARACT" data-source-line="16" id="ent0017"><rect fill="#FFFFFF" height="73.5671" rx="4" ry="4" style="stroke:#0E1014;stroke-width:0.5;" width="139.952" x="722" y="669.9429"/><rect fill="#FFFFFF" height="10" style="stroke:#0E1014;stroke-width:0.5;" width="15" x="841.952" y="674.9429"/><rect fill="#FFFFFF" height="2" style="stroke:#0E1014;stroke-width:0.5;" width="4" x="839.952" y="676.9429"/><rect fill="#FFFFFF" height="2" style="stroke:#0E1014;stroke-width:0.5;" width="4" x="839.952" y="680.9429"/><text fill="#0E1014" font-family="'Inter, Helvetica, sans-serif'" font-size="12" lengthAdjust="spacing" textLength="57.9531" x="737" y="701.5676">Runner de</text><text fill="#0E1014" font-family="'Inter, Helvetica, sans-serif'" font-size="12" lengthAdjust="spacing" textLength="84.4922" x="737" y="716.0899">caract&#233;risation</text><text fill="#0E1014" font-family="'Inter, Helvetica, sans-serif'" font-size="12" lengthAdjust="spacing" textLength="99.952" x="737" y="730.6123">+ arbre + escalier</text></g><!--entity SANDBOX--><g class="entity" data-qualified-name="MAESTRIA.Processus main.SANDBOX" data-source-line="17" id="ent0018"><rect fill="#FFFFFF" height="88.0894" rx="4" ry="4" style="stroke:#0E1014;stroke-width:0.5;" width="141.9463" x="692" y="834.9429"/><rect fill="#FFFFFF" height="10" style="stroke:#0E1014;stroke-width:0.5;" width="15" x="813.9463" y="839.9429"/><rect fill="#FFFFFF" height="2" style="stroke:#0E1014;stroke-width:0.5;" width="4" x="811.9463" y="841.9429"/><rect fill="#FFFFFF" height="2" style="stroke:#0E1014;stroke-width:0.5;" width="4" x="811.9463" y="845.9429"/><text fill="#0E1014" font-family="'Inter, Helvetica, sans-serif'" font-size="12" lengthAdjust="spacing" textLength="101.9463" x="707" y="866.5676">Dispatch sandbox</text><text fill="#0E1014" font-family="'Inter, Helvetica, sans-serif'" font-size="12" lengthAdjust="spacing" textLength="84.7308" x="707" y="881.0899">(rlimits POSIX /</text><text fill="#0E1014" font-family="'Inter, Helvetica, sans-serif'" font-size="12" lengthAdjust="spacing" textLength="94.259" x="707" y="895.6123">Job Object Win /</text><text fill="#0E1014" font-family="'Inter, Helvetica, sans-serif'" font-size="12" lengthAdjust="spacing" textLength="44.6239" x="707" y="910.1347">Unsafe)</text></g><!--entity EMBED_LC--><g class="entity" data-qualified-name="MAESTRIA.Processus main.EMBED_LC" data-source-line="18" id="ent0019"><rect fill="#FFFFFF" height="73.5671" rx="4" ry="4" style="stroke:#0E1014;stroke-width:0.5;" width="109.646" x="1062" y="841.9429"/><rect fill="#FFFFFF" height="10" style="stroke:#0E1014;stroke-width:0.5;" width="15" x="1151.646" y="846.9429"/><rect fill="#FFFFFF" height="2" style="stroke:#0E1014;stroke-width:0.5;" width="4" x="1149.646" y="848.9429"/><rect fill="#FFFFFF" height="2" style="stroke:#0E1014;stroke-width:0.5;" width="4" x="1149.646" y="852.9429"/><text fill="#0E1014" font-family="'Inter, Helvetica, sans-serif'" font-size="12" lengthAdjust="spacing" textLength="69.646" x="1077" y="873.5676">Cycle de vie</text><text fill="#0E1014" font-family="'Inter, Helvetica, sans-serif'" font-size="12" lengthAdjust="spacing" textLength="58.2087" x="1077" y="888.0899">embedder</text><text fill="#0E1014" font-family="'Inter, Helvetica, sans-serif'" font-size="12" lengthAdjust="spacing" textLength="51.5612" x="1077" y="902.6123">(slice 7e)</text></g><!--entity RUNNERS--><g class="entity" data-qualified-name="MAESTRIA.Processus main.RUNNERS" data-source-line="19" id="ent0020"><rect fill="#FFFFFF" height="73.5671" rx="4" ry="4" style="stroke:#0E1014;stroke-width:0.5;" width="157.2697" x="869.5" y="841.9429"/><rect fill="#FFFFFF" height="10" style="stroke:#0E1014;stroke-width:0.5;" width="15" x="1006.7697" y="846.9429"/><rect fill="#FFFFFF" height="2" style="stroke:#0E1014;stroke-width:0.5;" width="4" x="1004.7697" y="848.9429"/><rect fill="#FFFFFF" height="2" style="stroke:#0E1014;stroke-width:0.5;" width="4" x="1004.7697" y="852.9429"/><text fill="#0E1014" font-family="'Inter, Helvetica, sans-serif'" font-size="12" lengthAdjust="spacing" textLength="117.2697" x="884.5" y="873.5676">Registry des runners</text><text fill="#0E1014" font-family="'Inter, Helvetica, sans-serif'" font-size="12" lengthAdjust="spacing" textLength="62.6234" x="884.5" y="888.0899">+ launch.ts</text><text fill="#0E1014" font-family="'Inter, Helvetica, sans-serif'" font-size="12" lengthAdjust="spacing" textLength="79.7366" x="884.5" y="902.6123">(llama-server)</text></g><!--entity USER--><g class="entity" data-qualified-name="USER" data-source-line="4" id="ent0001"><ellipse cx="34.8146" cy="336.4429" fill="#FFFFFF" rx="8" ry="8" style="stroke:#0E1014;stroke-width:0.5;"/><path d="M34.8146,344.4429 L34.8146,371.4429 M21.8146,352.4429 L47.8146,352.4429 M34.8146,371.4429 L21.8146,386.4429 M34.8146,371.4429 L47.8146,386.4429" fill="none" style="stroke:#0E1014;stroke-width:0.5;"/><text fill="#000000" font-family="'Inter, Helvetica, sans-serif'" font-size="12" lengthAdjust="spacing" textLength="57.6292" x="6" y="399.5676">Utilisateur</text></g><!--entity MCP_CLIENT--><g class="entity" data-qualified-name="MCP_CLIENT" data-source-line="5" id="ent0002"><ellipse cx="991.0757" cy="51.9429" fill="#FFFFFF" rx="8" ry="8" style="stroke:#0E1014;stroke-width:0.5;"/><path d="M991.0757,59.9429 L991.0757,86.9429 M978.0757,67.9429 L1004.0757,67.9429 M991.0757,86.9429 L978.0757,101.9429 M991.0757,86.9429 L1004.0757,101.9429" fill="none" style="stroke:#0E1014;stroke-width:0.5;"/><text fill="#000000" font-family="'Inter, Helvetica, sans-serif'" font-size="12" lengthAdjust="spacing" textLength="63.1859" x="950.5" y="115.0676">Client MCP</text><text fill="#000000" font-family="'Inter, Helvetica, sans-serif'" font-size="12" lengthAdjust="spacing" textLength="81.1513" x="950.5" y="129.5899">(Claude Code,</text><text fill="#000000" font-family="'Inter, Helvetica, sans-serif'" font-size="12" lengthAdjust="spacing" textLength="41.4194" x="950.5" y="144.1123">Cursor,</text><text fill="#000000" font-family="'Inter, Helvetica, sans-serif'" font-size="12" lengthAdjust="spacing" textLength="76.4299" x="950.5" y="158.6347">deer-flow, &#8230;)</text></g><!--entity LLAMA_CHAT--><g class="entity" data-qualified-name="LLAMA_CHAT" data-source-line="6" id="ent0003"><polygon fill="#1A1D24" points="883.5,1073.4429,893.5,1063.4429,1002.3503,1063.4429,1002.3503,1112.4876,992.3503,1122.4876,883.5,1122.4876,883.5,1073.4429" style="stroke:#0E1014;stroke-width:0.5;stroke-linejoin:miter;stroke-miterlimit:10;"/><line style="stroke:#0E1014;stroke-width:0.5;" x1="992.3503" x2="1002.3503" y1="1073.4429" y2="1063.4429"/><line style="stroke:#0E1014;stroke-width:0.5;" x1="883.5" x2="992.3503" y1="1073.4429" y2="1073.4429"/><line style="stroke:#0E1014;stroke-width:0.5;" x1="992.3503" x2="992.3503" y1="1073.4429" y2="1122.4876"/><text fill="#F4EEE3" font-family="'Inter, Helvetica, sans-serif'" font-size="12" lengthAdjust="spacing" textLength="71.0436" x="898.5" y="1095.0676">llama-server</text><text fill="#F4EEE3" font-family="'Inter, Helvetica, sans-serif'" font-size="12" lengthAdjust="spacing" textLength="78.8503" x="898.5" y="1109.5899">(mod&#232;le chat)</text></g><!--entity LLAMA_EMBED--><g class="entity" data-qualified-name="LLAMA_EMBED" data-source-line="7" id="ent0004"><polygon fill="#1A1D24" points="1038,1065.9429,1048,1055.9429,1206.2297,1055.9429,1206.2297,1119.51,1196.2297,1129.51,1038,1129.51,1038,1065.9429" style="stroke:#0E1014;stroke-width:0.5;stroke-linejoin:miter;stroke-miterlimit:10;"/><line style="stroke:#0E1014;stroke-width:0.5;" x1="1196.2297" x2="1206.2297" y1="1065.9429" y2="1055.9429"/><line style="stroke:#0E1014;stroke-width:0.5;" x1="1038" x2="1196.2297" y1="1065.9429" y2="1065.9429"/><line style="stroke:#0E1014;stroke-width:0.5;" x1="1196.2297" x2="1196.2297" y1="1065.9429" y2="1129.51"/><text fill="#F4EEE3" font-family="'Inter, Helvetica, sans-serif'" font-size="12" lengthAdjust="spacing" textLength="71.0436" x="1053" y="1087.5676">llama-server</text><text fill="#F4EEE3" font-family="'Inter, Helvetica, sans-serif'" font-size="12" lengthAdjust="spacing" textLength="74.981" x="1053" y="1102.0899">--embedding</text><text fill="#F4EEE3" font-family="'Inter, Helvetica, sans-serif'" font-size="12" lengthAdjust="spacing" textLength="128.2297" x="1053" y="1116.6123">(embedder de routing)</text></g><!--entity PYTHON_SANDBOX--><g class="entity" data-qualified-name="PYTHON_SANDBOX" data-source-line="8" id="ent0005"><polygon fill="#1A1D24" points="685.5,1073.4429,695.5,1063.4429,840.2471,1063.4429,840.2471,1112.4876,830.2471,1122.4876,685.5,1122.4876,685.5,1073.4429" style="stroke:#0E1014;stroke-width:0.5;stroke-linejoin:miter;stroke-miterlimit:10;"/><line style="stroke:#0E1014;stroke-width:0.5;" x1="830.2471" x2="840.2471" y1="1073.4429" y2="1063.4429"/><line style="stroke:#0E1014;stroke-width:0.5;" x1="685.5" x2="830.2471" y1="1073.4429" y2="1073.4429"/><line style="stroke:#0E1014;stroke-width:0.5;" x1="830.2471" x2="830.2471" y1="1073.4429" y2="1122.4876"/><text fill="#F4EEE3" font-family="'Inter, Helvetica, sans-serif'" font-size="12" lengthAdjust="spacing" textLength="47.2659" x="700.5" y="1095.0676">python3</text><text fill="#F4EEE3" font-family="'Inter, Helvetica, sans-serif'" font-size="12" lengthAdjust="spacing" textLength="114.7471" x="700.5" y="1109.5899">(sandbox&#233;, slice 2d)</text></g><!--entity SIDECARS--><g class="entity" data-qualified-name="SIDECARS" data-source-line="9" id="ent0006"><path d="M1304.5,852.4429 C1304.5,842.4429 1349.1781,842.4429 1349.1781,842.4429 C1349.1781,842.4429 1393.8562,842.4429 1393.8562,852.4429 L1393.8562,905.01 C1393.8562,915.01 1349.1781,915.01 1349.1781,915.01 C1349.1781,915.01 1304.5,915.01 1304.5,905.01 L1304.5,852.4429" fill="#E6DFD2" style="stroke:#0E1014;stroke-width:0.5;"/><path d="M1304.5,852.4429 C1304.5,862.4429 1349.1781,862.4429 1349.1781,862.4429 C1349.1781,862.4429 1393.8562,862.4429 1393.8562,852.4429" fill="none" style="stroke:#0E1014;stroke-width:0.5;"/><text fill="#000000" font-family="'Inter, Helvetica, sans-serif'" font-size="12" lengthAdjust="spacing" textLength="69.3562" x="1314.5" y="878.0676">sidecars .ts/</text><text fill="#000000" font-family="'Inter, Helvetica, sans-serif'" font-size="12" lengthAdjust="spacing" textLength="66.9869" x="1314.5" y="892.5899">(signatures,</text><text fill="#000000" font-family="'Inter, Helvetica, sans-serif'" font-size="12" lengthAdjust="spacing" textLength="57.6633" x="1314.5" y="907.1123">autoTags)</text></g><!--entity HF--><g class="entity" data-qualified-name="HF" data-source-line="10" id="ent0007"><path d="M1285,687.9429 C1285,677.9429 1357.9302,677.9429 1357.9302,677.9429 C1357.9302,677.9429 1430.8605,677.9429 1430.8605,687.9429 L1430.8605,725.9876 C1430.8605,735.9876 1357.9302,735.9876 1357.9302,735.9876 C1357.9302,735.9876 1285,735.9876 1285,725.9876 L1285,687.9429" fill="#E6DFD2" style="stroke:#0E1014;stroke-width:0.5;"/><path d="M1285,687.9429 C1285,697.9429 1357.9302,697.9429 1357.9302,697.9429 C1357.9302,697.9429 1430.8605,697.9429 1430.8605,687.9429" fill="none" style="stroke:#0E1014;stroke-width:0.5;"/><text fill="#000000" font-family="'Inter, Helvetica, sans-serif'" font-size="12" lengthAdjust="spacing" textLength="78.5264" x="1295" y="713.5676">Hugging Face</text><text fill="#000000" font-family="'Inter, Helvetica, sans-serif'" font-size="12" lengthAdjust="spacing" textLength="125.8605" x="1295" y="728.0899">(m&#233;tadonn&#233;es seules)</text></g><g class="entity" data-qualified-name="GMN41" data-source-line="49" id="ent0042"><path d="M1285,519.9429 L1285,580.0323 A4,4 0 0 0 1289,584.0323 L1513.1196,584.0323 A4,4 0 0 0 1517.1196,580.0323 L1517.1196,525.9429 L1507.1196,515.9429 L1289,515.9429 A4,4 0 0 0 1285,519.9429" fill="#FFFDF6" style="stroke:#C68A3A;stroke-width:0.5;"/><path d="M1507.1196,515.9429 L1507.1196,523.9429 A2,2 0 0 0 1509.1196,525.9429 L1517.1196,525.9429 L1507.1196,515.9429" fill="#FFFDF6" style="stroke:#C68A3A;stroke-width:1;"/><text fill="#0E1014" font-family="'Inter, Helvetica, sans-serif'" font-size="12" lengthAdjust="spacing" textLength="211.1196" x="1291" y="532.5676">100% local, offline, pas de t&#233;l&#233;m&#233;trie.</text><text fill="#0E1014" font-family="'Inter, Helvetica, sans-serif'" font-size="12" lengthAdjust="spacing" textLength="185.9953" x="1291" y="547.0899">llama-server + python (sandbox)</text><text fill="#0E1014" font-family="'Inter, Helvetica, sans-serif'" font-size="12" lengthAdjust="spacing" textLength="188.2623" x="1291" y="561.6123">sont des processus enfants ; rien</text><text fill="#0E1014" font-family="'Inter, Helvetica, sans-serif'" font-size="12" lengthAdjust="spacing" textLength="161.8254" x="1291" y="576.1347">ne se bind hors de 127.0.0.1.</text></g><!--link USER to UI_PANEL--><g class="link" data-entity-1="ent0001" data-entity-2="ent0010" data-link-type="dependency" data-source-line="23" id="lnk21"><path d="M64.35,397.4029 C96.93,431.7729 145.6607,483.1737 177.3507,516.6137" fill="none" id="USER-to-UI_PANEL" style="stroke:#1A1D24;stroke-width:1;"/><polygon fill="#1A1D24" points="180.79,520.2429,177.5026,510.9589,177.3507,516.6137,171.6959,516.4617,180.79,520.2429" style="stroke:#1A1D24;stroke-width:1;stroke-linejoin:miter;stroke-miterlimit:10;"/><text fill="#000000" font-family="'Inter, Helvetica, sans-serif'" font-size="12" lengthAdjust="spacing" textLength="82.2422" x="128" y="453.0676">ouvre un .gguf</text></g><!--link USER to UI_SETTINGS--><g class="link" data-entity-1="ent0001" data-entity-2="ent0012" data-link-type="dependency" data-source-line="24" id="lnk22"><path d="M64.09,368.0729 C138.77,373.2929 341.63,394.1829 488,471.9429 C510.04,483.6529 527.2246,499.0411 542.3946,515.2611" fill="none" id="USER-to-UI_SETTINGS" style="stroke:#1A1D24;stroke-width:1;"/><polygon fill="#1A1D24" points="545.81,518.9129,542.5838,509.6074,542.3946,515.2611,536.7409,515.072,545.81,518.9129" style="stroke:#1A1D24;stroke-width:1;stroke-linejoin:miter;stroke-miterlimit:10;"/><text fill="#000000" font-family="'Inter, Helvetica, sans-serif'" font-size="12" lengthAdjust="spacing" textLength="123.031" x="467" y="445.5676">configure embedder /</text><text fill="#000000" font-family="'Inter, Helvetica, sans-serif'" font-size="12" lengthAdjust="spacing" textLength="86.1967" x="485.4172" y="460.0899">opt-in sandbox</text></g><!--link UI_PANEL to CHARACT--><g class="link" data-entity-1="ent0010" data-entity-2="ent0017" data-link-type="dependency" data-source-line="25" id="lnk23"><path d="M243.81,579.5129 C259.62,590.8529 278.92,603.0329 298,610.9429 C441.42,670.3529 618.8579,692.6399 716.9679,700.9699" fill="none" id="UI_PANEL-to-CHARACT" style="stroke:#1A1D24;stroke-width:1;"/><polygon fill="#1A1D24" points="721.95,701.3929,713.3207,696.6458,716.9679,700.9699,712.6439,704.6171,721.95,701.3929" style="stroke:#1A1D24;stroke-width:1;stroke-linejoin:miter;stroke-miterlimit:10;"/><text fill="#000000" font-family="'Inter, Helvetica, sans-serif'" font-size="12" lengthAdjust="spacing" textLength="67.7881" x="377" y="636.5676">caract&#233;riser</text></g><!--link UI_PANEL to RUNNERS--><g class="link" data-entity-1="ent0010" data-entity-2="ent0020" data-link-type="dependency" data-source-line="26" id="lnk24"><path d="M241.96,579.4829 C265.22,598.1729 297.3,622.3029 328,639.9429 C489.42,732.6929 535.68,748.2429 713,804.9429 C772.78,824.0629 791.34,815.4529 851,834.9429 C857.39,837.0329 859.2686,837.5841 865.7886,840.1141" fill="none" id="UI_PANEL-to-RUNNERS" style="stroke:#1A1D24;stroke-width:1;"/><polygon fill="#1A1D24" points="870.45,841.9229,863.5066,834.938,865.7886,840.1141,860.6125,842.3962,870.45,841.9229" style="stroke:#1A1D24;stroke-width:1;stroke-linejoin:miter;stroke-miterlimit:10;"/><text fill="#000000" font-family="'Inter, Helvetica, sans-serif'" font-size="12" lengthAdjust="spacing" textLength="58.6519" x="534" y="711.5676">Run (chat)</text></g><!--link UI_RADAR to CHARACT--><g class="link" data-entity-1="ent0011" data-entity-2="ent0017" data-link-type="dependency" data-source-line="27" id="lnk25"><path d="M444.88,587.1129 C458.52,595.6629 473.48,604.2329 488,610.9429 C565.04,646.5629 654.1437,672.3928 717.0237,688.3528" fill="none" id="UI_RADAR-to-CHARACT" style="stroke:#1A1D24;stroke-width:1;"/><polygon fill="#1A1D24" points="721.87,689.5829,714.1307,683.4917,717.0237,688.3528,712.1625,691.2458,721.87,689.5829" style="stroke:#1A1D24;stroke-width:1;stroke-linejoin:miter;stroke-miterlimit:10;"/><text fill="#000000" font-family="'Inter, Helvetica, sans-serif'" font-size="12" lengthAdjust="spacing" textLength="84.7649" x="554" y="636.5676">re-caract&#233;riser</text></g><!--link MCP_CLIENT to MCP_SERVER--><g class="link" data-entity-1="ent0002" data-entity-2="ent0014" data-link-type="dependency" data-source-line="29" id="lnk26"><path d="M991,161.6929 C991,212.6229 991,279.9929 991,323.0829" fill="none" id="MCP_CLIENT-to-MCP_SERVER" style="stroke:#1A1D24;stroke-width:1;"/><polygon fill="#1A1D24" points="991,328.0829,995,319.0829,991,323.0829,987,319.0829,991,328.0829" style="stroke:#1A1D24;stroke-width:1;stroke-linejoin:miter;stroke-miterlimit:10;"/><text fill="#000000" font-family="'Inter, Helvetica, sans-serif'" font-size="12" lengthAdjust="spacing" textLength="62.2995" x="1001.656" y="204.0676">HTTP+SSE</text><text fill="#000000" font-family="'Inter, Helvetica, sans-serif'" font-size="12" lengthAdjust="spacing" textLength="81.6116" x="992" y="218.5899">(Bearer token)</text></g><!--link MCP_SERVER to REGISTRY--><g class="link" data-entity-1="ent0014" data-entity-2="ent0015" data-link-type="dependency" data-source-line="30" id="lnk27"><path d="M991,402.5029 C991,432.2129 991,469.4229 991,500.9029" fill="none" id="MCP_SERVER-to-REGISTRY" style="stroke:#1A1D24;stroke-width:1;"/><polygon fill="#1A1D24" points="991,505.9029,995,496.9029,991,500.9029,987,496.9029,991,505.9029" style="stroke:#1A1D24;stroke-width:1;stroke-linejoin:miter;stroke-miterlimit:10;"/></g><!--link REGISTRY to ROUTING--><g class="link" data-entity-1="ent0015" data-entity-2="ent0016" data-link-type="dependency" data-source-line="31" id="lnk28"><path d="M1031.95,594.1229 C1054.55,617.9429 1078.8488,643.5755 1100.2888,666.1755" fill="none" id="REGISTRY-to-ROUTING" style="stroke:#1A1D24;stroke-width:1;"/><polygon fill="#1A1D24" points="1103.73,669.8029,1100.4377,660.5206,1100.2888,666.1755,1094.6339,666.0265,1103.73,669.8029" style="stroke:#1A1D24;stroke-width:1;stroke-linejoin:miter;stroke-miterlimit:10;"/><text fill="#000000" font-family="'Inter, Helvetica, sans-serif'" font-size="12" lengthAdjust="spacing" textLength="74.4015" x="1075" y="636.5676">models.route</text></g><!--link REGISTRY to CHARACT--><g class="link" data-entity-1="ent0015" data-entity-2="ent0017" data-link-type="dependency" data-source-line="32" id="lnk29"><path d="M918.75,587.5329 C900.45,598.1929 881.36,610.6029 865,623.9429 C848.61,637.3129 835.9158,650.6842 823.1658,665.8642" fill="none" id="REGISTRY-to-CHARACT" style="stroke:#1A1D24;stroke-width:1;"/><polygon fill="#1A1D24" points="819.95,669.6929,828.8013,665.3739,823.1658,665.8642,822.6755,660.2286,819.95,669.6929" style="stroke:#1A1D24;stroke-width:1;stroke-linejoin:miter;stroke-miterlimit:10;"/><text fill="#000000" font-family="'Inter, Helvetica, sans-serif'" font-size="12" lengthAdjust="spacing" textLength="56.1633" x="866" y="636.5676">(via tools)</text></g><!--link REGISTRY to RUNNERS--><g class="link" data-entity-1="ent0015" data-entity-2="ent0020" data-link-type="dependency" data-source-line="33" id="lnk30"><path d="M963.68,594.1129 C940.73,636.4229 916.6,700.7029 950,743.9429 C982.29,785.7429 1032.71,732.1429 1065,773.9429 C1073.42,784.8429 1071.68,792.8929 1065,804.9429 C1056.12,820.9629 1046.2369,831.1294 1030.9469,841.4294" fill="none" id="REGISTRY-to-RUNNERS" style="stroke:#1A1D24;stroke-width:1;"/><polygon fill="#1A1D24" points="1026.8,844.2229,1036.4991,842.5121,1030.9469,841.4294,1032.0295,835.8771,1026.8,844.2229" style="stroke:#1A1D24;stroke-width:1;stroke-linejoin:miter;stroke-miterlimit:10;"/><text fill="#000000" font-family="'Inter, Helvetica, sans-serif'" font-size="12" lengthAdjust="spacing" textLength="102.3553" x="951" y="711.5676">models.run / .stop</text></g><!--link CHARACT to RUNNERS--><g class="link" data-entity-1="ent0017" data-entity-2="ent0020" data-link-type="dependency" data-source-line="35" id="lnk31"><path d="M797.96,744.1129 C802.67,763.7629 810.88,787.5329 825,804.9429 C837.05,819.7929 848.7307,829.6617 865.1207,839.9117" fill="none" id="CHARACT-to-RUNNERS" style="stroke:#1A1D24;stroke-width:1;"/><polygon fill="#1A1D24" points="869.36,842.5629,863.8502,834.3994,865.1207,839.9117,859.6084,841.1822,869.36,842.5629" style="stroke:#1A1D24;stroke-width:1;stroke-linejoin:miter;stroke-miterlimit:10;"/><text fill="#000000" font-family="'Inter, Helvetica, sans-serif'" font-size="12" lengthAdjust="spacing" textLength="92.7249" x="826" y="786.5676">assure URL chat</text><text fill="#000000" font-family="'Inter, Helvetica, sans-serif'" font-size="12" lengthAdjust="spacing" textLength="41.3512" x="851.6868" y="801.0899">vivante</text></g><!--link CHARACT to EMBED_LC--><g class="link" data-entity-1="ent0017" data-entity-2="ent0019" data-link-type="dependency" data-source-line="36" id="lnk32"><path d="M862.16,741.7629 C913.08,766.6829 983.37,801.8429 1044,834.9429 C1049.81,838.1129 1051.4897,839.0206 1057.4697,842.4406" fill="none" id="CHARACT-to-EMBED_LC" style="stroke:#1A1D24;stroke-width:1;"/><polygon fill="#1A1D24" points="1061.81,844.9229,1055.9832,836.9826,1057.4697,842.4406,1052.0116,843.9271,1061.81,844.9229" style="stroke:#1A1D24;stroke-width:1;stroke-linejoin:miter;stroke-miterlimit:10;"/><text fill="#000000" font-family="'Inter, Helvetica, sans-serif'" font-size="12" lengthAdjust="spacing" textLength="100.8213" x="984" y="786.5676">sonde optionnelle</text><text fill="#000000" font-family="'Inter, Helvetica, sans-serif'" font-size="12" lengthAdjust="spacing" textLength="51.2714" x="1008.7749" y="801.0899">(slice 7c)</text></g><!--link CHARACT to SANDBOX--><g class="link" data-entity-1="ent0017" data-entity-2="ent0018" data-link-type="dependency" data-source-line="37" id="lnk33"><path d="M744.61,743.9429 C736.22,752.7629 728.68,762.8829 724,773.9429 C715.62,793.7429 719.6336,811.5866 729.4336,830.4366" fill="none" id="CHARACT-to-SANDBOX" style="stroke:#1A1D24;stroke-width:1;"/><polygon fill="#1A1D24" points="731.74,834.8729,731.1375,825.0425,729.4336,830.4366,724.0395,828.7327,731.74,834.8729" style="stroke:#1A1D24;stroke-width:1;stroke-linejoin:miter;stroke-miterlimit:10;"/><text fill="#000000" font-family="'Inter, Helvetica, sans-serif'" font-size="12" lengthAdjust="spacing" textLength="59.9303" x="725" y="786.5676">tests code</text><text fill="#000000" font-family="'Inter, Helvetica, sans-serif'" font-size="12" lengthAdjust="spacing" textLength="52.4305" x="728.7499" y="801.0899">(slice 2d)</text></g><!--link ROUTING to EMBED_LC--><g class="link" data-entity-1="ent0016" data-entity-2="ent0019" data-link-type="dependency" data-source-line="38" id="lnk34"><path d="M1118.29,743.9829 C1114.05,753.4629 1110.18,763.8529 1108,773.9429 C1103.2,796.0829 1104.4232,816.4601 1107.7532,836.5701" fill="none" id="ROUTING-to-EMBED_LC" style="stroke:#1A1D24;stroke-width:1;"/><polygon fill="#1A1D24" points="1108.57,841.5029,1111.046,831.9703,1107.7532,836.5701,1103.1535,833.2773,1108.57,841.5029" style="stroke:#1A1D24;stroke-width:1;stroke-linejoin:miter;stroke-miterlimit:10;"/><text fill="#000000" font-family="'Inter, Helvetica, sans-serif'" font-size="12" lengthAdjust="spacing" textLength="92.6567" x="1109" y="786.5676">projection query</text><text fill="#000000" font-family="'Inter, Helvetica, sans-serif'" font-size="12" lengthAdjust="spacing" textLength="51.5612" x="1129.5478" y="801.0899">(slice 7e)</text></g><!--link RUNNERS to LLAMA_CHAT--><g class="link" data-entity-1="ent0020" data-entity-2="ent0003" data-link-type="dependency" data-source-line="40" id="lnk35"><path d="M947.14,916.3829 C946.16,958.0629 944.6883,1020.4143 943.7883,1058.4343" fill="none" id="RUNNERS-to-LLAMA_CHAT" style="stroke:#1A1D24;stroke-width:1;"/><polygon fill="#1A1D24" points="943.67,1063.4329,947.8819,1054.5301,943.7883,1058.4343,939.8841,1054.3407,943.67,1063.4329" style="stroke:#1A1D24;stroke-width:1;stroke-linejoin:miter;stroke-miterlimit:10;"/><text fill="#000000" font-family="'Inter, Helvetica, sans-serif'" font-size="12" lengthAdjust="spacing" textLength="37.1241" x="947" y="1015.0676">spawn</text></g><!--link EMBED_LC to LLAMA_EMBED--><g class="link" data-entity-1="ent0019" data-entity-2="ent0004" data-link-type="dependency" data-source-line="41" id="lnk36"><path d="M1117.86,916.3829 C1118.78,955.3329 1120.1131,1011.7143 1121.0231,1050.6243" fill="none" id="EMBED_LC-to-LLAMA_EMBED" style="stroke:#1A1D24;stroke-width:1;"/><polygon fill="#1A1D24" points="1121.14,1055.6229,1124.9285,1046.5318,1121.0231,1050.6243,1116.9307,1046.7189,1121.14,1055.6229" style="stroke:#1A1D24;stroke-width:1;stroke-linejoin:miter;stroke-miterlimit:10;"/><text fill="#000000" font-family="'Inter, Helvetica, sans-serif'" font-size="12" lengthAdjust="spacing" textLength="37.1241" x="1140.9285" y="1007.5676">spawn</text><text fill="#000000" font-family="'Inter, Helvetica, sans-serif'" font-size="12" lengthAdjust="spacing" textLength="74.981" x="1122" y="1022.0899">--embedding</text></g><!--link SANDBOX to PYTHON_SANDBOX--><g class="link" data-entity-1="ent0018" data-entity-2="ent0005" data-link-type="dependency" data-source-line="42" id="lnk37"><path d="M763,923.1029 C763,964.9929 763,1022.3729 763,1058.4129" fill="none" id="SANDBOX-to-PYTHON_SANDBOX" style="stroke:#1A1D24;stroke-width:1;"/><polygon fill="#1A1D24" points="763,1063.4129,767,1054.4129,763,1058.4129,759,1054.4129,763,1063.4129" style="stroke:#1A1D24;stroke-width:1;stroke-linejoin:miter;stroke-miterlimit:10;"/><text fill="#000000" font-family="'Inter, Helvetica, sans-serif'" font-size="12" lengthAdjust="spacing" textLength="37.1241" x="764" y="1007.5676">spawn</text><text fill="#000000" font-family="'Inter, Helvetica, sans-serif'" font-size="12" lengthAdjust="spacing" textLength="26.113" x="769.5056" y="1022.0899">isol&#233;</text></g><!--link CHARACT to SIDECARS--><g class="link" data-entity-1="ent0017" data-entity-2="ent0006" data-link-type="dependency" data-source-line="44" id="lnk38"><path d="M862.07,736.3829 C871.03,739.2929 880.16,741.9229 889,743.9429 C1026.96,775.5029 1077.48,714.7029 1206,773.9429 C1223.98,782.2329 1222.55,792.5629 1238,804.9429 C1258.88,821.6729 1279.398,835.5701 1300.218,848.6701" fill="none" id="CHARACT-to-SIDECARS" style="stroke:#1A1D24;stroke-width:1;"/><polygon fill="#1A1D24" points="1304.45,851.3329,1298.9627,843.1543,1300.218,848.6701,1294.7022,849.9255,1304.45,851.3329" style="stroke:#1A1D24;stroke-width:1;stroke-linejoin:miter;stroke-miterlimit:10;"/><text fill="#000000" font-family="'Inter, Helvetica, sans-serif'" font-size="12" lengthAdjust="spacing" textLength="81.7479" x="1239" y="794.0676">&#233;crit signature</text></g><!--link ROUTING to SIDECARS--><g class="link" data-entity-1="ent0016" data-entity-2="ent0006" data-link-type="dependency" data-source-line="45" id="lnk39"><path d="M1204.69,727.4029 C1256.29,743.0529 1320.38,764.0029 1329,773.9429 C1345.14,792.5629 1349.6701,815.1865 1350.5101,837.2865" fill="none" id="ROUTING-to-SIDECARS" style="stroke:#1A1D24;stroke-width:1;"/><polygon fill="#1A1D24" points="1350.7,842.2829,1354.3553,833.1375,1350.5101,837.2865,1346.3611,833.4413,1350.7,842.2829" style="stroke:#1A1D24;stroke-width:1;stroke-linejoin:miter;stroke-miterlimit:10;"/><text fill="#000000" font-family="'Inter, Helvetica, sans-serif'" font-size="12" lengthAdjust="spacing" textLength="66.4415" x="1345" y="794.0676">lit signature</text></g><!--link REGISTRY to HF--><g class="link" data-entity-1="ent0015" data-entity-2="ent0007" data-link-type="dependency" data-source-line="46" id="lnk40"><path d="M1063.07,581.3829 C1129.45,609.4129 1222.5442,648.727 1287.0442,675.977" fill="none" id="REGISTRY-to-HF" style="stroke:#1A1D24;stroke-width:1;"/><polygon fill="#1A1D24" points="1291.65,677.9229,1284.9162,670.7357,1287.0442,675.977,1281.8028,678.105,1291.65,677.9229" style="stroke:#1A1D24;stroke-width:1;stroke-linejoin:miter;stroke-miterlimit:10;"/><text fill="#000000" font-family="'Inter, Helvetica, sans-serif'" font-size="12" lengthAdjust="spacing" textLength="44.1978" x="1198" y="636.5676">hf.fetch</text></g><!--link MAESTRIA to GMN41--><g class="link" data-entity-1="ent0008" data-entity-2="ent0042" data-link-type="association" data-source-line="49" id="lnk43"><path d="M1261.2658,376.6322 C1261.4679,376.8815 1261.6733,377.1348 1261.8819,377.392 C1263.5507,379.45 1265.4248,381.7613 1267.4783,384.2937 C1275.6922,394.4232 1286.7756,408.091 1299.0637,423.2441 C1323.64,453.5504 1353.035,489.7979 1373.93,515.5629" fill="none" id="MAESTRIA-GMN41" style="stroke:#1A1D24;stroke-width:1;stroke-dasharray:7,7;"/></g><?plantuml-src VLNjZXet5FtlfxY9L1NAmkv6YIAbKgLPc0Og5j00QI8X8JDp0ISUczeUKbH5waDKVORi6_G_Rv8dwVLyy5bL-sEDVUxnlUSUttacL2op165UBkojTJk9BP6baZsxFkMnqyOMnym99n4UELfd18TlV_u5smmX-HwLnNH1Pqa6LcUsQNVMxR-c2Bs0iGsFF_4LmlD3P8rlDX1AZ9tHgluSk8N781nFebu0Vp20GqI4Aa631ceHKYe4zSS0iKutMg5oHAeJbDriCU8AvKmrGAkLH0SzjTm_6LGnvlpJtdmK3CB-PNYRbkWyR4pf2ArcgcPumWr4hw0nKyMQcuN1UaKK1PqWkYGQSSFJ_LTdqCAtl_-XocVA_uzqveHQLR7ZS3Bf3TwEAVpBQQKZesEqDhEGSg7-eyuncYrc1XxR8qhn_iNhrXtztRzvUV_gvVtDJF7ChU41EQbLAjeUqMtHk_0grGXNWXgn0-emEAsb9SRKwsXRFn2Luok_WFKo_xdc9lbCl7xBK3Mb457ujaSj-t35NXJiTVJWXzqxp4taUxFaKYweP1At91bElHnN79bIrFK4PoecNMD7hHIM5_rf5Es01g2DkHHeSgfsDuY2zkIIgYFiXhju3PQhPA5_ztb9aGfdOJGSzzx3xKpzeXSmN7oaFE5NeVpEL5c-B0iT1uFEm_3zbNDsiNSymbPGckH_JCYhH6-bY15Ubz7XuqFOcVVR_zi4azURIoHvfk9ro_cUICbJthI-ysLJe-bW44Q5UxumDgK6GxFvqy7Uy0PqjYLnCWMjrIfRda4gyn4grcefLXaXgynzsNhZcYH0AHKxiFhuKbyVUsm9cdDGcH-1g8LGYzVSrLdrP2ve33RFcPYtRBlV2mUJ77fqCA6xayceCHw794lXSdBk9rHrTeBACwXiMIsAtS9dn5FwFFVcEUQOMMrBGof_6FKBcaDv5GrLUGijw_I6iOhW7CdfLPFCqwWFNewPseejLtJvARno2U6jffa7r0aoEuqqYKTBnVMpeDAO5EDei5hgQN84lqWezxBgYnisHdyiXXtybg7PdNgMiIfp7zJl1u_1dExqgj0x-gpOWUTudczLW9bgDWjBqH1WLOeUFFemwGu7ysFM9LvOBVTFv_ADUvsm7UJwxPzY8nnOiLBSaP9dLPtWv3dej6tTd-cSfjaIQH0mfhH3M6ZdT0fwUVZqqAEwlxlx3gIcgN939qif5DxGZBR-cPDDASrq_qIVC6mH-FHrqZ3QxDoQ5AsLZwTE26gboz_tvZ3TKIsf-HP-169HX548bh8HAe4rJKb_qs6ujnXz_y2do_u5?></g></svg>