<svg xmlns="http://www.w3.org/2000/svg" xmlns:xlink="http://www.w3.org/1999/xlink" contentStyleType="text/css" data-diagram-type="DESCRIPTION" height="1974px" preserveAspectRatio="none" style="width:744px;height:1974px;background:#F4EEE3;" version="1.1" viewBox="0 0 744 1974" width="744px" zoomAndPan="magnify"><?plantuml 1.2026.4?><defs/><g><rect fill="#F4EEE3" height="1974" style="stroke:none;stroke-width:1;" width="744" x="0" y="0"/><g class="title" data-source-line="4"><text fill="#000000" font-family="'Inter, Helvetica, sans-serif'" font-size="14" font-weight="700" lengthAdjust="spacing" textLength="364.5707" x="186.2146" y="23.5623">Cas d'usage &#8212; qui fait quoi avec le sous-syst&#232;me IA</text></g><!--cluster Maestria ? sous-syst?me IA--><g class="cluster" data-qualified-name="Maestria . sous-syst.me IA" data-source-line="8" id="ent0005"><rect fill="#F4EEE3" height="1458" rx="4" ry="4" style="stroke:#C68A3A;stroke-width:1;" width="573" x="157" y="273.4429"/><text fill="#000000" font-family="'Inter, Helvetica, sans-serif'" font-size="12" font-weight="700" lengthAdjust="spacing" textLength="171.3709" x="357.8146" y="287.0676">Maestria &#8212; sous-syst&#232;me IA</text></g><!--cluster UC_UI--><g class="cluster" data-qualified-name="Maestria . sous-syst.me IA.UC_UI" data-source-line="10" id="ent0006"><path d="M185,871.4429 L283.3442,871.4429 A6,6 0 0 1 287.3442,875.4429 L294.3442,891.9652 L440,891.9652 A4,4 0 0 1 444,895.9652 L444,1282.4429 A4,4 0 0 1 440,1286.4429 L185,1286.4429 A4,4 0 0 1 181,1282.4429 L181,875.4429 A4,4 0 0 1 185,871.4429" fill="#F4EEE3" style="stroke:#C68A3A;stroke-width:1.5;"/><line style="stroke:#C68A3A;stroke-width:1.5;" x1="181" x2="294.3442" y1="891.9652" y2="891.9652"/><text fill="#0E1014" font-family="'Inter, Helvetica, sans-serif'" font-size="12" font-weight="700" lengthAdjust="spacing" textLength="100.3442" x="185" y="885.0676">Onglet Inf&#233;rence</text></g><!--cluster UC_SET--><g class="cluster" data-qualified-name="Maestria . sous-syst.me IA.UC_SET" data-source-line="18" id="ent0012"><path d="M201,1310.4429 L293.3828,1310.4429 A6,6 0 0 1 297.3828,1314.4429 L304.3828,1332.4038 L424,1332.4038 A4,4 0 0 1 428,1336.4038 L428,1703.4429 A4,4 0 0 1 424,1707.4429 L201,1707.4429 A4,4 0 0 1 197,1703.4429 L197,1314.4429 A4,4 0 0 1 201,1310.4429" fill="#F4EEE3" style="stroke:#C68A3A;stroke-width:1.5;"/><line style="stroke:#C68A3A;stroke-width:1.5;" x1="197" x2="304.3828" y1="1332.4038" y2="1332.4038"/><text fill="#0E1014" font-family="'Inter, Helvetica, sans-serif'" font-size="12" font-weight="700" lengthAdjust="spacing" textLength="94.3828" x="201" y="1325.3921">Param&#232;tres &#9656; IA</text></g><!--cluster UC_MCP_SURF--><g class="cluster" data-qualified-name="Maestria . sous-syst.me IA.UC_MCP_SURF" data-source-line="26" id="ent0018"><path d="M201.5,314.4429 L277.5152,314.4429 A6,6 0 0 1 281.5152,318.4429 L288.5152,334.9652 L702,334.9652 A4,4 0 0 1 706,338.9652 L706,843.4429 A4,4 0 0 1 702,847.4429 L201.5,847.4429 A4,4 0 0 1 197.5,843.4429 L197.5,318.4429 A4,4 0 0 1 201.5,314.4429" fill="#F4EEE3" style="stroke:#C68A3A;stroke-width:1.5;"/><line style="stroke:#C68A3A;stroke-width:1.5;" x1="197.5" x2="288.5152" y1="334.9652" y2="334.9652"/><text fill="#0E1014" font-family="'Inter, Helvetica, sans-serif'" font-size="12" font-weight="700" lengthAdjust="spacing" textLength="78.0152" x="201.5" y="328.0676">Surface MCP</text></g><!--entity UC_OPEN--><g class="entity" data-qualified-name="Maestria . sous-syst.me IA.UC_UI.UC_OPEN" data-source-line="11" id="ent0007"><ellipse cx="312.5552" cy="1162.2539" fill="#F1F1F1" rx="94.5552" ry="21.311" style="stroke:#181818;stroke-width:0.5;"/><text fill="#000000" font-family="'Inter, Helvetica, sans-serif'" font-size="12" lengthAdjust="spacing" textLength="168.098" x="228.5062" y="1166.0151">Ouvre un fichier mod&#232;le .gguf</text></g><!--entity UC_RUN--><g class="entity" data-qualified-name="Maestria . sous-syst.me IA.UC_UI.UC_RUN" data-source-line="12" id="ent0008"><ellipse cx="312.4351" cy="1244.4299" fill="#F1F1F1" rx="115.4351" ry="25.487" style="stroke:#181818;stroke-width:0.5;"/><text fill="#000000" font-family="'Inter, Helvetica, sans-serif'" font-size="12" lengthAdjust="spacing" textLength="212.8242" x="206.023" y="1248.1911">Lance un mod&#232;le chat (UI navigateur)</text></g><!--entity UC_CH--><g class="entity" data-qualified-name="Maestria . sous-syst.me IA.UC_UI.UC_CH" data-source-line="13" id="ent0009"><ellipse cx="312.3839" cy="926.3197" fill="#F1F1F1" rx="94.8839" ry="21.3768" style="stroke:#181818;stroke-width:0.5;"/><text fill="#000000" font-family="'Inter, Helvetica, sans-serif'" font-size="12" lengthAdjust="spacing" textLength="168.8139" x="227.977" y="930.0808">Caract&#233;riser / Re-caract&#233;riser</text></g><!--entity UC_RADAR--><g class="entity" data-qualified-name="Maestria . sous-syst.me IA.UC_UI.UC_RADAR" data-source-line="14" id="ent0010"><ellipse cx="312.6004" cy="1005.363" fill="#F1F1F1" rx="100.1004" ry="22.4201" style="stroke:#181818;stroke-width:0.5;"/><text fill="#000000" font-family="'Inter, Helvetica, sans-serif'" font-size="12" lengthAdjust="spacing" textLength="160.922" x="232.1393" y="1005.5142">Voir le radar de comp&#233;tence</text><text fill="#000000" font-family="'Inter, Helvetica, sans-serif'" font-size="12" lengthAdjust="spacing" textLength="68.4528" x="278.374" y="1020.0366">(R5 + arbre)</text></g><!--entity UC_BULK--><g class="entity" data-qualified-name="Maestria . sous-syst.me IA.UC_UI.UC_BULK" data-source-line="15" id="ent0011"><ellipse cx="312.7489" cy="1084.5282" fill="#F1F1F1" rx="75.7489" ry="21.5853" style="stroke:#181818;stroke-width:0.5;"/><text fill="#000000" font-family="'Inter, Helvetica, sans-serif'" font-size="12" lengthAdjust="spacing" textLength="113.6903" x="255.9038" y="1083.9525">Caract&#233;risation bulk</text><text fill="#000000" font-family="'Inter, Helvetica, sans-serif'" font-size="12" lengthAdjust="spacing" textLength="50.1464" x="287.6757" y="1098.4748">(dossier)</text></g><!--entity UC_PICK_EMB--><g class="entity" data-qualified-name="Maestria . sous-syst.me IA.UC_SET.UC_PICK_EMB" data-source-line="19" id="ent0013"><ellipse cx="312.3679" cy="1367.4152" fill="#F1F1F1" rx="94.8679" ry="22.9723" style="stroke:#181818;stroke-width:0.5;"/><text fill="#000000" font-family="'Inter, Helvetica, sans-serif'" font-size="12" lengthAdjust="spacing" textLength="133.5988" x="245.5685" y="1364.7265">Choisir embedder .gguf</text><text fill="#000000" font-family="'Inter, Helvetica, sans-serif'" font-size="12" lengthAdjust="spacing" textLength="117.73" x="253.5029" y="1379.2488">(s&#233;lecteur de fichier)</text></g><!--entity UC_OPT_SBX--><g class="entity" data-qualified-name="Maestria . sous-syst.me IA.UC_SET.UC_OPT_SBX" data-source-line="20" id="ent0014"><ellipse cx="312.3593" cy="1669.4147" fill="#F1F1F1" rx="97.8593" ry="21.9719" style="stroke:#181818;stroke-width:0.5;"/><text fill="#000000" font-family="'Inter, Helvetica, sans-serif'" font-size="12" lengthAdjust="spacing" textLength="157.5812" x="233.5687" y="1669.8724">Activer sandbox tests-code</text><text fill="#000000" font-family="'Inter, Helvetica, sans-serif'" font-size="12" lengthAdjust="spacing" textLength="42.9194" x="290.8996" y="1684.3948">(opt-in)</text></g><!--entity UC_MCP--><g class="entity" data-qualified-name="Maestria . sous-syst.me IA.UC_SET.UC_MCP" data-source-line="21" id="ent0015"><ellipse cx="312.7367" cy="1448.2902" fill="#F1F1F1" rx="99.7367" ry="22.3473" style="stroke:#181818;stroke-width:0.5;"/><text fill="#000000" font-family="'Inter, Helvetica, sans-serif'" font-size="12" lengthAdjust="spacing" textLength="179.3307" x="223.0714" y="1452.0514">D&#233;marrer / arr&#234;ter serveur MCP</text></g><!--entity UC_COPY_CFG--><g class="entity" data-qualified-name="Maestria . sous-syst.me IA.UC_SET.UC_COPY_CFG" data-source-line="22" id="ent0016"><ellipse cx="312.6325" cy="1525.2694" fill="#F1F1F1" rx="84.6325" ry="19.3265" style="stroke:#181818;stroke-width:0.5;"/><text fill="#000000" font-family="'Inter, Helvetica, sans-serif'" font-size="12" lengthAdjust="spacing" textLength="146.2292" x="239.5179" y="1529.0306">Copier configuration MCP</text></g><!--entity UC_HW--><g class="entity" data-qualified-name="Maestria . sous-syst.me IA.UC_SET.UC_HW" data-source-line="23" id="ent0017"><ellipse cx="312.3001" cy="1596.3029" fill="#F1F1F1" rx="67.3001" ry="15.86" style="stroke:#181818;stroke-width:0.5;"/><text fill="#000000" font-family="'Inter, Helvetica, sans-serif'" font-size="12" lengthAdjust="spacing" textLength="106.1393" x="259.2305" y="1600.0641">Override hardware</text></g><!--entity UC_SEARCH--><g class="entity" data-qualified-name="Maestria . sous-syst.me IA.UC_MCP_SURF.UC_SEARCH" data-source-line="27" id="ent0019"><ellipse cx="312.314" cy="446.6057" fill="#F1F1F1" rx="71.314" ry="16.6628" style="stroke:#181818;stroke-width:0.5;"/><text fill="#000000" font-family="'Inter, Helvetica, sans-serif'" font-size="12" lengthAdjust="spacing" textLength="115.7357" x="254.4462" y="450.3669">models.search / .get</text></g><!--entity UC_MRUN--><g class="entity" data-qualified-name="Maestria . sous-syst.me IA.UC_MCP_SURF.UC_MRUN" data-source-line="28" id="ent0020"><ellipse cx="624.7477" cy="378.4924" fill="#F1F1F1" rx="65.7477" ry="15.5495" style="stroke:#181818;stroke-width:0.5;"/><text fill="#000000" font-family="'Inter, Helvetica, sans-serif'" font-size="12" lengthAdjust="spacing" textLength="102.3553" x="573.57" y="382.2536">models.run / .stop</text></g><!--entity UC_ROUTE--><g class="entity" data-qualified-name="Maestria . sous-syst.me IA.UC_MCP_SURF.UC_ROUTE" data-source-line="29" id="ent0021"><ellipse cx="312.4177" cy="371.4411" fill="#F1F1F1" rx="55.9177" ry="23.4982" style="stroke:#181818;stroke-width:0.5;"/><text fill="#000000" font-family="'Inter, Helvetica, sans-serif'" font-size="12" lengthAdjust="spacing" textLength="74.4015" x="275.2169" y="367.8852">models.route</text><text fill="#000000" font-family="'Inter, Helvetica, sans-serif'" font-size="12" lengthAdjust="spacing" textLength="74.981" x="274.9271" y="382.4076">(conseil seul)</text></g><!--entity UC_INSPECT--><g class="entity" data-qualified-name="Maestria . sous-syst.me IA.UC_MCP_SURF.UC_INSPECT" data-source-line="30" id="ent0022"><ellipse cx="312.4383" cy="521.4187" fill="#F1F1F1" rx="98.9383" ry="23.4758" style="stroke:#181818;stroke-width:0.5;"/><text fill="#000000" font-family="'Inter, Helvetica, sans-serif'" font-size="12" lengthAdjust="spacing" textLength="134.4341" x="245.2212" y="517.831">models.get_run_params</text><text fill="#000000" font-family="'Inter, Helvetica, sans-serif'" font-size="12" lengthAdjust="spacing" textLength="136.0874" x="244.3946" y="532.3534">models.list_runner_flags</text></g><!--entity UC_TAGS--><g class="entity" data-qualified-name="Maestria . sous-syst.me IA.UC_MCP_SURF.UC_TAGS" data-source-line="31" id="ent0023"><ellipse cx="312.5465" cy="596.3522" fill="#F1F1F1" rx="67.5465" ry="15.9093" style="stroke:#181818;stroke-width:0.5;"/><text fill="#000000" font-family="'Inter, Helvetica, sans-serif'" font-size="12" lengthAdjust="spacing" textLength="106.7359" x="259.1786" y="600.1134">tags.add / .remove</text></g><!--entity UC_DESC--><g class="entity" data-qualified-name="Maestria . sous-syst.me IA.UC_MCP_SURF.UC_DESC" data-source-line="32" id="ent0024"><ellipse cx="312.5012" cy="664.2431" fill="#F1F1F1" rx="72.0012" ry="16.8002" style="stroke:#181818;stroke-width:0.5;"/><text fill="#000000" font-family="'Inter, Helvetica, sans-serif'" font-size="12" lengthAdjust="spacing" textLength="117.355" x="253.8237" y="668.0043">description.set / .get</text></g><!--entity UC_FETCH--><g class="entity" data-qualified-name="Maestria . sous-syst.me IA.UC_MCP_SURF.UC_FETCH" data-source-line="33" id="ent0025"><ellipse cx="312.5806" cy="734.659" fill="#F1F1F1" rx="79.0806" ry="18.2161" style="stroke:#181818;stroke-width:0.5;"/><text fill="#000000" font-family="'Inter, Helvetica, sans-serif'" font-size="12" lengthAdjust="spacing" textLength="133.7182" x="245.7215" y="738.4202">hf.fetch (m&#233;tadonn&#233;es)</text></g><!--entity UC_HW_TOOL--><g class="entity" data-qualified-name="Maestria . sous-syst.me IA.UC_MCP_SURF.UC_HW_TOOL" data-source-line="34" id="ent0026"><ellipse cx="312.6804" cy="809.2276" fill="#F1F1F1" rx="68.6804" ry="21.7847" style="stroke:#181818;stroke-width:0.5;"/><text fill="#000000" font-family="'Inter, Helvetica, sans-serif'" font-size="12" lengthAdjust="spacing" textLength="101.5542" x="261.9033" y="808.335">hardware.detect /</text><text fill="#000000" font-family="'Inter, Helvetica, sans-serif'" font-size="12" lengthAdjust="spacing" textLength="53.9134" x="285.7237" y="822.8573">.autotune</text></g><!--entity A_USER--><g class="entity" data-qualified-name="A_USER" data-source-line="4" id="ent0001"><ellipse cx="58.0669" cy="1235.4429" fill="#FFFFFF" rx="8" ry="8" style="stroke:#0E1014;stroke-width:0.5;"/><path d="M58.0669,1243.4429 L58.0669,1270.4429 M45.0669,1251.4429 L71.0669,1251.4429 M58.0669,1270.4429 L45.0669,1285.4429 M58.0669,1270.4429 L71.0669,1285.4429" fill="none" style="stroke:#0E1014;stroke-width:0.5;"/><text fill="#000000" font-family="'Inter, Helvetica, sans-serif'" font-size="12" lengthAdjust="spacing" textLength="102.1338" x="7" y="1298.5676">Utilisateur humain</text><text fill="#000000" font-family="'Inter, Helvetica, sans-serif'" font-size="12" lengthAdjust="spacing" textLength="101.435" x="7" y="1313.0899">(onglet Inf&#233;rence)</text></g><!--entity A_MCP_CLI--><g class="entity" data-qualified-name="A_MCP_CLI" data-source-line="5" id="ent0002"><ellipse cx="57.8254" cy="508.9429" fill="#FFFFFF" rx="8" ry="8" style="stroke:#0E1014;stroke-width:0.5;"/><path d="M57.8254,516.9429 L57.8254,543.9429 M44.8254,524.9429 L70.8254,524.9429 M57.8254,543.9429 L44.8254,558.9429 M57.8254,543.9429 L70.8254,558.9429" fill="none" style="stroke:#0E1014;stroke-width:0.5;"/><text fill="#000000" font-family="'Inter, Helvetica, sans-serif'" font-size="12" lengthAdjust="spacing" textLength="63.1859" x="6" y="572.0676">Client MCP</text><text fill="#000000" font-family="'Inter, Helvetica, sans-serif'" font-size="12" lengthAdjust="spacing" textLength="81.1513" x="6" y="586.5899">(Claude Code,</text><text fill="#000000" font-family="'Inter, Helvetica, sans-serif'" font-size="12" lengthAdjust="spacing" textLength="103.6507" x="6" y="601.1123">Cursor, deer-flow,</text><text fill="#000000" font-family="'Inter, Helvetica, sans-serif'" font-size="12" lengthAdjust="spacing" textLength="73.5322" x="6" y="615.6347">scripts bash)</text></g><!--entity A_EXT_EMB--><g class="entity" data-qualified-name="A_EXT_EMB" data-source-line="6" id="ent0003"><ellipse cx="624.5328" cy="1880.4429" fill="#FFFFFF" rx="8" ry="8" style="stroke:#0E1014;stroke-width:0.5;"/><path d="M624.5328,1888.4429 L624.5328,1915.4429 M611.5328,1896.4429 L637.5328,1896.4429 M624.5328,1915.4429 L611.5328,1930.4429 M624.5328,1915.4429 L637.5328,1930.4429" fill="none" style="stroke:#0E1014;stroke-width:0.5;"/><text fill="#000000" font-family="'Inter, Helvetica, sans-serif'" font-size="12" lengthAdjust="spacing" textLength="105.0655" x="572" y="1943.5676">Embedder externe</text><text fill="#000000" font-family="'Inter, Helvetica, sans-serif'" font-size="12" lengthAdjust="spacing" textLength="84.9013" x="572" y="1958.0899">(setup avanc&#233;)</text></g><!--entity A_HF--><g class="entity" data-qualified-name="A_HF" data-source-line="7" id="ent0004"><ellipse cx="624.7117" cy="1756.4429" fill="#FFFFFF" rx="8" ry="8" style="stroke:#0E1014;stroke-width:0.5;"/><path d="M624.7117,1764.4429 L624.7117,1791.4429 M611.7117,1772.4429 L637.7117,1772.4429 M624.7117,1791.4429 L611.7117,1806.4429 M624.7117,1791.4429 L637.7117,1806.4429" fill="none" style="stroke:#0E1014;stroke-width:0.5;"/><text fill="#000000" font-family="'Inter, Helvetica, sans-serif'" font-size="12" lengthAdjust="spacing" textLength="78.5264" x="570.5" y="1819.5676">Hugging Face</text><text fill="#000000" font-family="'Inter, Helvetica, sans-serif'" font-size="12" lengthAdjust="spacing" textLength="108.4234" x="570.5" y="1834.0899">(API m&#233;tadonn&#233;es)</text></g><g class="entity" data-qualified-name="GMN49" data-source-line="64" id="ent0050"><path d="M209,193.4429 L209,253.5323 A4,4 0 0 0 213,257.5323 L411.9782,257.5323 A4,4 0 0 0 415.9782,253.5323 L415.9782,199.4429 L405.9782,189.4429 L213,189.4429 A4,4 0 0 0 209,193.4429" fill="#FFFDF6" style="stroke:#C68A3A;stroke-width:0.5;"/><path d="M405.9782,189.4429 L405.9782,197.4429 A2,2 0 0 0 407.9782,199.4429 L415.9782,199.4429 L405.9782,189.4429" fill="#FFFDF6" style="stroke:#C68A3A;stroke-width:1;"/><text fill="#0E1014" font-family="'Inter, Helvetica, sans-serif'" font-size="12" lengthAdjust="spacing" textLength="185.9782" x="215" y="206.0676">Opt-in OFF par d&#233;faut. D&#233;bloque</text><text fill="#0E1014" font-family="'Inter, Helvetica, sans-serif'" font-size="12" lengthAdjust="spacing" textLength="175.3932" x="215" y="220.5899">les 9 items de tests-code dans</text><text fill="#0E1014" font-family="'Inter, Helvetica, sans-serif'" font-size="12" lengthAdjust="spacing" textLength="148.9905" x="215" y="235.1123">l'escalier ; sinon ils restent</text><text fill="#0E1014" font-family="'Inter, Helvetica, sans-serif'" font-size="12" lengthAdjust="spacing" textLength="150.3712" x="215" y="249.6347">UNMEASURED (prior D12).</text></g><g class="entity" data-qualified-name="GMN52" data-source-line="71" id="ent0053"><path d="M197,47.9429 L197,78.9876 A4,4 0 0 0 201,82.9876 L423.5856,82.9876 A4,4 0 0 0 427.5856,78.9876 L427.5856,53.9429 L417.5856,43.9429 L201,43.9429 A4,4 0 0 0 197,47.9429" fill="#FFFDF6" style="stroke:#C68A3A;stroke-width:0.5;"/><path d="M417.5856,43.9429 L417.5856,51.9429 A2,2 0 0 0 419.5856,53.9429 L427.5856,53.9429 L417.5856,43.9429" fill="#FFFDF6" style="stroke:#C68A3A;stroke-width:1;"/><text fill="#0E1014" font-family="'Inter, Helvetica, sans-serif'" font-size="12" lengthAdjust="spacing" textLength="170.7059" x="203" y="60.5676">Conseil seul &#8212; NE lance RIEN.</text><text fill="#0E1014" font-family="'Inter, Helvetica, sans-serif'" font-size="12" lengthAdjust="spacing" textLength="209.5856" x="203" y="75.0899">L'appelant fait suivre par models.run.</text></g><!--link A_USER to UC_OPEN--><g class="link" data-entity-1="ent0001" data-entity-2="ent0007" data-link-type="dependency" data-source-line="38" id="lnk27"><path d="M108.85,1226.6829 C121.3,1217.2429 135.09,1208.1329 149,1201.4429 C175.15,1188.8629 200.7725,1181.2176 228.2525,1175.2876" fill="none" id="A_USER-to-UC_OPEN" style="stroke:#1A1D24;stroke-width:1;"/><polygon fill="#1A1D24" points="233.14,1174.2329,223.4988,1172.2213,228.2525,1175.2876,225.1863,1180.0413,233.14,1174.2329" style="stroke:#1A1D24;stroke-width:1;stroke-linejoin:miter;stroke-miterlimit:10;"/></g><!--link A_USER to UC_RUN--><g class="link" data-entity-1="ent0001" data-entity-2="ent0008" data-link-type="dependency" data-source-line="39" id="lnk28"><path d="M109.19,1266.0729 C137.52,1263.0429 169.0283,1259.674 203.1983,1256.024" fill="none" id="A_USER-to-UC_RUN" style="stroke:#1A1D24;stroke-width:1;"/><polygon fill="#1A1D24" points="208.17,1255.4929,198.7961,1252.4714,203.1983,1256.024,199.6458,1260.4262,208.17,1255.4929" style="stroke:#1A1D24;stroke-width:1;stroke-linejoin:miter;stroke-miterlimit:10;"/></g><!--link A_USER to UC_CH--><g class="link" data-entity-1="ent0001" data-entity-2="ent0009" data-link-type="dependency" data-source-line="40" id="lnk29"><path d="M58.9,1226.9229 C61.28,1160.2529 75.96,1034.8829 149,965.4429 C168.13,947.2529 189.3139,938.1239 214.9639,932.5539" fill="none" id="A_USER-to-UC_CH" style="stroke:#1A1D24;stroke-width:1;"/><polygon fill="#1A1D24" points="219.85,931.4929,210.2061,929.4939,214.9639,932.5539,211.9038,937.3117,219.85,931.4929" style="stroke:#1A1D24;stroke-width:1;stroke-linejoin:miter;stroke-miterlimit:10;"/></g><!--link A_USER to UC_RADAR--><g class="link" data-entity-1="ent0001" data-entity-2="ent0010" data-link-type="dependency" data-source-line="41" id="lnk30"><path d="M64.55,1226.6629 C73.33,1175.3029 95.34,1092.1829 149,1045.4429 C168.17,1028.7429 188.3562,1019.9521 213.0262,1014.0721" fill="none" id="A_USER-to-UC_RADAR" style="stroke:#1A1D24;stroke-width:1;"/><polygon fill="#1A1D24" points="217.89,1012.9129,208.2078,1011.1085,213.0262,1014.0721,210.0626,1018.8906,217.89,1012.9129" style="stroke:#1A1D24;stroke-width:1;stroke-linejoin:miter;stroke-miterlimit:10;"/></g><!--link A_USER to UC_BULK--><g class="link" data-entity-1="ent0001" data-entity-2="ent0011" data-link-type="dependency" data-source-line="42" id="lnk31"><path d="M75.07,1226.9329 C89.41,1193.5029 113.64,1149.2229 149,1123.4429 C174.9,1104.5529 203.7901,1095.5371 233.8701,1090.4471" fill="none" id="A_USER-to-UC_BULK" style="stroke:#1A1D24;stroke-width:1;"/><polygon fill="#1A1D24" points="238.8,1089.6129,229.2588,1087.1705,233.8701,1090.4471,230.5935,1095.0584,238.8,1089.6129" style="stroke:#1A1D24;stroke-width:1;stroke-linejoin:miter;stroke-miterlimit:10;"/></g><!--link A_USER to UC_PICK_EMB--><g class="link" data-entity-1="ent0001" data-entity-2="ent0013" data-link-type="dependency" data-source-line="43" id="lnk32"><path d="M109.19,1290.5229 C153.05,1307.2029 211.7766,1329.5253 255.8666,1346.2953" fill="none" id="A_USER-to-UC_PICK_EMB" style="stroke:#1A1D24;stroke-width:1;"/><polygon fill="#1A1D24" points="260.54,1348.0729,253.55,1341.1346,255.8666,1346.2953,250.7059,1348.612,260.54,1348.0729" style="stroke:#1A1D24;stroke-width:1;stroke-linejoin:miter;stroke-miterlimit:10;"/></g><!--link A_USER to UC_OPT_SBX--><g class="link" data-entity-1="ent0001" data-entity-2="ent0014" data-link-type="dependency" data-source-line="44" id="lnk33"><path d="M64.48,1316.2229 C75.9,1402.1429 104.88,1585.5429 149,1629.4429 C167.33,1647.6829 187.6782,1656.948 212.7982,1662.748" fill="none" id="A_USER-to-UC_OPT_SBX" style="stroke:#1A1D24;stroke-width:1;"/><polygon fill="#1A1D24" points="217.67,1663.8729,209.8006,1657.9507,212.7982,1662.748,208.0008,1665.7456,217.67,1663.8729" style="stroke:#1A1D24;stroke-width:1;stroke-linejoin:miter;stroke-miterlimit:10;"/></g><!--link A_USER to UC_MCP--><g class="link" data-entity-1="ent0001" data-entity-2="ent0015" data-link-type="dependency" data-source-line="45" id="lnk34"><path d="M90.92,1316.0929 C106.59,1338.6229 125.4,1366.5829 141,1392.4429 C144.9,1398.9129 143.05,1402.7829 149,1407.4429 C169.62,1423.5829 190.9647,1432.29 216.2847,1438.29" fill="none" id="A_USER-to-UC_MCP" style="stroke:#1A1D24;stroke-width:1;"/><polygon fill="#1A1D24" points="221.15,1439.4429,213.3148,1433.4754,216.2847,1438.29,211.4702,1441.2599,221.15,1439.4429" style="stroke:#1A1D24;stroke-width:1;stroke-linejoin:miter;stroke-miterlimit:10;"/></g><!--link A_USER to UC_COPY_CFG--><g class="link" data-entity-1="ent0001" data-entity-2="ent0016" data-link-type="dependency" data-source-line="46" id="lnk35"><path d="M65.19,1315.9629 C74.5,1365.5629 96.94,1444.5229 149,1488.4429 C171.23,1507.1929 196.1247,1516.0616 224.1447,1520.9616" fill="none" id="A_USER-to-UC_COPY_CFG" style="stroke:#1A1D24;stroke-width:1;"/><polygon fill="#1A1D24" points="229.07,1521.8229,220.8936,1516.3323,224.1447,1520.9616,219.5155,1524.2127,229.07,1521.8229" style="stroke:#1A1D24;stroke-width:1;stroke-linejoin:miter;stroke-miterlimit:10;"/></g><!--link A_USER to UC_HW--><g class="link" data-entity-1="ent0001" data-entity-2="ent0017" data-link-type="dependency" data-source-line="47" id="lnk36"><path d="M59.46,1315.9429 C62.67,1380.2029 78.52,1498.2729 149,1562.4429 C174.79,1585.9229 207.5187,1594.3706 240.1287,1597.2006" fill="none" id="A_USER-to-UC_HW" style="stroke:#1A1D24;stroke-width:1;"/><polygon fill="#1A1D24" points="245.11,1597.6329,236.4895,1592.8697,240.1287,1597.2006,235.7979,1600.8398,245.11,1597.6329" style="stroke:#1A1D24;stroke-width:1;stroke-linejoin:miter;stroke-miterlimit:10;"/></g><!--link A_MCP_CLI to UC_SEARCH--><g class="link" data-entity-1="ent0002" data-entity-2="ent0019" data-link-type="dependency" data-source-line="49" id="lnk37"><path d="M110.41,506.4529 C122.27,496.5629 135.42,487.2229 149,480.4429 C178.91,465.5029 210.1379,457.8817 240.7479,453.1817" fill="none" id="A_MCP_CLI-to-UC_SEARCH" style="stroke:#1A1D24;stroke-width:1;"/><polygon fill="#1A1D24" points="245.69,452.4229,236.1872,449.8351,240.7479,453.1817,237.4013,457.7424,245.69,452.4229" style="stroke:#1A1D24;stroke-width:1;stroke-linejoin:miter;stroke-miterlimit:10;"/></g><!--link A_MCP_CLI to UC_MRUN--><g class="link" data-entity-1="ent0002" data-entity-2="ent0020" data-link-type="dependency" data-source-line="50" id="lnk38"><path d="M63.9,500.4129 C73.43,402.1729 98.11,211.8829 149,171.4429 C254.43,87.6629 330.13,114.1529 452,171.4429 C539.21,212.4429 595.1914,317.4586 614.4014,358.2886" fill="none" id="A_MCP_CLI-to-UC_MRUN" style="stroke:#1A1D24;stroke-width:1;"/><polygon fill="#1A1D24" points="616.53,362.8129,616.3179,352.9663,614.4014,358.2886,609.0791,356.3721,616.53,362.8129" style="stroke:#1A1D24;stroke-width:1;stroke-linejoin:miter;stroke-miterlimit:10;"/></g><!--link A_MCP_CLI to UC_ROUTE--><g class="link" data-entity-1="ent0002" data-entity-2="ent0021" data-link-type="dependency" data-source-line="51" id="lnk39"><path d="M82.09,500.4029 C96.88,469.8929 118.99,434.5229 149,412.4429 C180.29,389.4229 218.1727,379.9146 252.0227,375.4646" fill="none" id="A_MCP_CLI-to-UC_ROUTE" style="stroke:#1A1D24;stroke-width:1;"/><polygon fill="#1A1D24" points="256.98,374.8129,247.5354,372.0201,252.0227,375.4646,248.5781,379.9518,256.98,374.8129" style="stroke:#1A1D24;stroke-width:1;stroke-linejoin:miter;stroke-miterlimit:10;"/></g><!--link A_MCP_CLI to UC_INSPECT--><g class="link" data-entity-1="ent0002" data-entity-2="ent0022" data-link-type="dependency" data-source-line="52" id="lnk40"><path d="M110.1,551.7529 C143.96,546.6529 184.2257,540.5971 223.2257,534.7271" fill="none" id="A_MCP_CLI-to-UC_INSPECT" style="stroke:#1A1D24;stroke-width:1;"/><polygon fill="#1A1D24" points="228.17,533.9829,218.6749,531.367,223.2257,534.7271,219.8656,539.2779,228.17,533.9829" style="stroke:#1A1D24;stroke-width:1;stroke-linejoin:miter;stroke-miterlimit:10;"/></g><!--link A_MCP_CLI to UC_TAGS--><g class="link" data-entity-1="ent0002" data-entity-2="ent0023" data-link-type="dependency" data-source-line="53" id="lnk41"><path d="M110.1,566.9329 C152.03,573.0729 206.4128,581.0479 249.8128,587.4079" fill="none" id="A_MCP_CLI-to-UC_TAGS" style="stroke:#1A1D24;stroke-width:1;"/><polygon fill="#1A1D24" points="254.76,588.1329,246.4351,582.8702,249.8128,587.4079,245.2751,590.7857,254.76,588.1329" style="stroke:#1A1D24;stroke-width:1;stroke-linejoin:miter;stroke-miterlimit:10;"/></g><!--link A_MCP_CLI to UC_DESC--><g class="link" data-entity-1="ent0002" data-entity-2="ent0024" data-link-type="dependency" data-source-line="54" id="lnk42"><path d="M110.18,605.5229 C122.25,614.5529 135.55,623.1629 149,629.4429 C179.6,643.7229 211.2366,651.4495 241.9266,656.5095" fill="none" id="A_MCP_CLI-to-UC_DESC" style="stroke:#1A1D24;stroke-width:1;"/><polygon fill="#1A1D24" points="246.86,657.3229,238.6306,651.9121,241.9266,656.5095,237.3292,659.8055,246.86,657.3229" style="stroke:#1A1D24;stroke-width:1;stroke-linejoin:miter;stroke-miterlimit:10;"/></g><!--link A_MCP_CLI to UC_FETCH--><g class="link" data-entity-1="ent0002" data-entity-2="ent0025" data-link-type="dependency" data-source-line="55" id="lnk43"><path d="M84.22,618.7829 C99.12,646.9929 120.67,678.7629 149,698.4429 C174.27,716.0029 201.7044,724.3831 230.8944,729.1131" fill="none" id="A_MCP_CLI-to-UC_FETCH" style="stroke:#1A1D24;stroke-width:1;"/><polygon fill="#1A1D24" points="235.83,729.9129,227.5857,724.5248,230.8944,729.1131,226.3061,732.4218,235.83,729.9129" style="stroke:#1A1D24;stroke-width:1;stroke-linejoin:miter;stroke-miterlimit:10;"/></g><!--link A_MCP_CLI to UC_HW_TOOL--><g class="link" data-entity-1="ent0002" data-entity-2="ent0026" data-link-type="dependency" data-source-line="56" id="lnk44"><path d="M69.41,618.7929 C80.84,666.3429 103.94,731.2029 149,769.4429 C175.36,791.8129 207.3791,801.334 239.3991,805.854" fill="none" id="A_MCP_CLI-to-UC_HW_TOOL" style="stroke:#1A1D24;stroke-width:1;"/><polygon fill="#1A1D24" points="244.35,806.5529,235.9975,801.3342,239.3991,805.854,234.8792,809.2556,244.35,806.5529" style="stroke:#1A1D24;stroke-width:1;stroke-linejoin:miter;stroke-miterlimit:10;"/></g><!--link UC_FETCH to A_HF--><g class="link" data-entity-1="ent0025" data-entity-2="ent0004" data-link-type="dependency" data-source-line="58" id="lnk45"><path d="M389.99,738.0029 C412.84,742.8329 436.03,752.1229 452,769.4429 C586.71,915.5929 616.4601,1565.3654 622.1401,1742.9154" fill="none" id="UC_FETCH-to-A_HF" style="stroke:#1A1D24;stroke-width:1;stroke-dasharray:7,7;"/><polygon fill="#1A1D24" points="622.3,1747.9129,626.0102,1738.7896,622.1401,1742.9154,618.0143,1739.0454,622.3,1747.9129" style="stroke:#1A1D24;stroke-width:1;stroke-linejoin:miter;stroke-miterlimit:10;"/><text fill="#000000" font-family="'Inter, Helvetica, sans-serif'" font-size="12" lengthAdjust="spacing" textLength="46.9931" x="471.5" y="777.0676">(egress)</text></g><!--link UC_PICK_EMB to A_EXT_EMB--><g class="link" data-entity-1="ent0013" data-entity-2="ent0003" data-link-type="dependency" data-source-line="59" id="lnk46"><path d="M401.22,1375.8329 C420.87,1381.9829 439.55,1392.0729 452,1408.4429 C467.41,1428.7029 444.69,1846.1229 460,1866.4429 C485.72,1900.5829 529.2626,1911.6581 566.7926,1915.2381" fill="none" id="UC_PICK_EMB-to-A_EXT_EMB" style="stroke:#1A1D24;stroke-width:1;stroke-dasharray:7,7;"/><polygon fill="#1A1D24" points="571.77,1915.7129,563.1905,1910.8763,566.7926,1915.2381,562.4308,1918.8402,571.77,1915.7129" style="stroke:#1A1D24;stroke-width:1;stroke-linejoin:miter;stroke-miterlimit:10;"/><text fill="#000000" font-family="'Inter, Helvetica, sans-serif'" font-size="12" lengthAdjust="spacing" textLength="64.4472" x="462.3892" y="1848.0676">(alternative</text><text fill="#000000" font-family="'Inter, Helvetica, sans-serif'" font-size="12" lengthAdjust="spacing" textLength="67.2256" x="461" y="1862.5899">&#224; managed)</text></g><!--link UC_ROUTE to UC_MRUN--><g class="link" data-entity-1="ent0021" data-entity-2="ent0020" data-link-type="dependency" data-source-line="60" id="lnk47"><path d="M368.56,372.6829 C421.89,373.8929 497.7313,375.6001 554.0313,376.8701" fill="none" id="UC_ROUTE-to-UC_MRUN" style="stroke:#1A1D24;stroke-width:1;stroke-dasharray:7,7;"/><polygon fill="#1A1D24" points="559.03,376.9829,550.1225,372.7809,554.0313,376.8701,549.9421,380.7789,559.03,376.9829" style="stroke:#1A1D24;stroke-width:1;stroke-linejoin:miter;stroke-miterlimit:10;"/><text fill="#000000" font-family="'Inter, Helvetica, sans-serif'" font-size="12" lengthAdjust="spacing" textLength="58.5156" x="465.5" y="357.0676">&#171;extends&#187;</text><text fill="#000000" font-family="'Inter, Helvetica, sans-serif'" font-size="12" lengthAdjust="spacing" textLength="27.4425" x="481.0365" y="371.5899">suite</text></g><!--link UC_INSPECT to UC_MRUN--><g class="link" data-entity-1="ent0022" data-entity-2="ent0020" data-link-type="dependency" data-source-line="61" id="lnk48"><path d="M382.33,504.7129 C404.95,498.2629 429.94,490.0829 452,480.4429 C509.45,455.3229 567.273,417.5703 598.643,395.9503" fill="none" id="UC_INSPECT-to-UC_MRUN" style="stroke:#1A1D24;stroke-width:1;stroke-dasharray:7,7;"/><polygon fill="#1A1D24" points="602.76,393.1129,593.0796,394.9266,598.643,395.9503,597.6194,401.5137,602.76,393.1129" style="stroke:#1A1D24;stroke-width:1;stroke-linejoin:miter;stroke-miterlimit:10;"/><text fill="#000000" font-family="'Inter, Helvetica, sans-serif'" font-size="12" lengthAdjust="spacing" textLength="66.1177" x="461.5" y="440.0676">&#171;precedes&#187;</text></g><!--link UC_OPT_SBX to GMN49--><g class="link" data-entity-1="ent0014" data-entity-2="ent0050" data-link-type="association" data-source-line="64" id="lnk51"><path d="M214.92,1667.0329 C179.34,1660.2929 144.22,1644.9429 129.5,1611.9429 C115.2,1579.9029 115.2,380.9829 129.5,348.9429 C147.95,307.6029 188.01,277.7729 225.96,257.6029" fill="none" id="UC_OPT_SBX-GMN49" style="stroke:#1A1D24;stroke-width:1;stroke-dasharray:7,7;"/></g><!--link UC_ROUTE to GMN52--><g class="link" data-entity-1="ent0021" data-entity-2="ent0053" data-link-type="association" data-source-line="71" id="lnk54"><path d="M265.33,358.4629 C219.72,342.9329 154.01,311.8729 129.5,256.9429 C106.14,204.5829 106.14,180.3029 129.5,127.9429 C141.79,100.4129 167.85,84.2429 196.55,74.8629" fill="none" id="UC_ROUTE-GMN52" style="stroke:#1A1D24;stroke-width:1;stroke-dasharray:7,7;"/></g><?plantuml-src TLPBZjj64Dtp5ENPZ0Q6A2H05eaD0HgAyWZM3_ea3Y20Q95Dgc6oc-wFR2C8a4C4MMSvoWcovqryabHJeYII4st4ARtggdhr-d5UCHwc9gBWkhtW_AnwIdzDgSjCbZglNWGOHKEYQ8-4MaXrGZgQwPI2HnH4zqQHXCAtF_w4JuP1J9Z61y6076W8Y5B2gAxwgdJnd54O3nmdfR46BK2oPAyXOfA6cWdkEFQ1y0IJxgQ4AYqPAGzk7d47lpaEG4x2ZxRstTpcQ1Zpk3XAoaDw1zZQnWisOqG2VivJ8DGS90N38MRXdb49cOYAPwpe9ec9gxpvmf_LyoO4ZxLv5JxS4mqTBC39WIL4KoCVglJbff7j4OdyONDCOSaUB6atl0rLYTvJFUzdmQJbK9A8IC3LX2BBYwEsCsvvP_a3l0OYTv9UIm-6W-N_5YUMPzYPz2DcHq8fPE2I-hYPlCVCtslKBZ0vAvwrf0g-_VLlIVu9llBNJNAzlM0AEwRPZaOHJbgIYgLKSKnnjyYH7U9C_QNmOkoz3_pfO_sm0OhYW6SemgET-08Q1Q6weOZiv2BNNSOVhljQ1wl73_K3XiKn8rAMXEDtyO-sfr5vi6rClKMLZ8-DCKHkbH4A7hF4o1DfDmdUVF5hu8tUDPI5pKg6u-s9Z3uJUH7XqoyjLbT6nWJrLEyYM6sMeoQdg3UQAbTH8iCzJk8cL5zNC5Ws9NF6IvGgWfKM-QL2IvOLLXXjISM15MKfScJIgw3ccxN_OXes4c2P8BSIKLj-3gTCbN5EPH2d957LIUFPQk5xw_fP6W4kYIBRhAIPE5neMm_UhUfOjADGijok0_dG3JA6_ighu_Un6rEDh7Kol3Ca4fmNHwekeutyTPEzQdTkH3KA5dfRxXAZXJRyPf_1UZwVb4l5jGw2pSfVGhVRlpX7FMHfhqUmQWDItjfwhBoEzT3beZHhdjHVZrfPDyfMkgs7KPyOiVhp9kCgU9PMApuzJTE8daJI2bSRR_rGxhOLBJVOYfwsr0fNMt0g2Bws-Z08daRm4tHeWeQb7fmRqiw_-n_MvLy88Yaw0YVMPhQy-1ioml5sHcLMEL6PSXuQ4zw-fL_GUYFLxs-vCanJvpfa2vlZsuoYPFjzn-52KzW9hKK68guxrhoqCfYFHkWFw8_5CKR5kO3sjKl59qCHawBx_WXOC5FMGAzM217XoWBkyMwGrDhM6r2Ces6nL06IW0rh16ncKt-0_k8FePDB9YGCl_l-mNLm7B3TlTHZTVMz6ryetySp7zBoVRWS-pCN4PDxakSKO_hq3m2IOr-pTfwh7zqK-my0?></g></svg>