<svg xmlns="http://www.w3.org/2000/svg" xmlns:xlink="http://www.w3.org/1999/xlink" contentStyleType="text/css" data-diagram-type="ACTIVITY" height="1477px" preserveAspectRatio="none" style="width:1135px;height:1477px;background:#F4EEE3;" version="1.1" viewBox="0 0 1135 1477" width="1135px" zoomAndPan="magnify"><?plantuml 1.2026.4?><defs/><g><rect fill="#F4EEE3" height="1477" style="stroke:none;stroke-width:1;" width="1135" x="0" y="0"/><g class="title" data-source-line="3"><text fill="#000000" font-family="'Inter, Helvetica, sans-serif'" font-size="14" font-weight="700" lengthAdjust="spacing" textLength="278.7427" x="427.5497" y="33.5623">Activity &#8212; `models.route` decision flow</text></g><ellipse cx="364.7587" cy="62.9429" fill="#222222" rx="10" ry="10" style="stroke:#222222;stroke-width:1;"/><rect fill="#F1F1F1" height="49.0447" rx="4" ry="4" style="stroke:#181818;stroke-width:0.5;" width="179.0983" x="275.2096" y="92.9429"/><text fill="#000000" font-family="'Inter, Helvetica, sans-serif'" font-size="12" lengthAdjust="spacing" textLength="120.9685" x="285.2096" y="114.5676">Load `routingConfig`</text><text fill="#000000" font-family="'Inter, Helvetica, sans-serif'" font-size="12" lengthAdjust="spacing" textLength="159.0983" x="285.2096" y="129.0899">+ `effectiveRoutingParams`</text><rect fill="#F1F1F1" height="49.0447" rx="4" ry="4" style="stroke:#181818;stroke-width:0.5;" width="187.7401" x="270.8887" y="161.9876"/><text fill="#000000" font-family="'Inter, Helvetica, sans-serif'" font-size="12" lengthAdjust="spacing" textLength="129.7296" x="280.8887" y="183.6123">List eligible candidates</text><text fill="#000000" font-family="'Inter, Helvetica, sans-serif'" font-size="12" lengthAdjust="spacing" textLength="167.7401" x="280.8887" y="198.1347">(D9: complete signature only)</text><rect fill="#F1F1F1" height="49.0447" rx="4" ry="4" style="stroke:#181818;stroke-width:0.5;" width="129.3608" x="300.0783" y="231.0323"/><text fill="#000000" font-family="'Inter, Helvetica, sans-serif'" font-size="12" lengthAdjust="spacing" textLength="109.3608" x="310.0783" y="252.657">Probe free memory</text><text fill="#000000" font-family="'Inter, Helvetica, sans-serif'" font-size="12" lengthAdjust="spacing" textLength="73.9924" x="310.0783" y="267.1794">(VRAM/RAM)</text><polygon fill="#F1F1F1" points="298.8541,300.077,430.6633,300.077,442.6633,314.5994,430.6633,329.1217,298.8541,329.1217,286.8541,314.5994,298.8541,300.077" style="stroke:#181818;stroke-width:0.5;stroke-linejoin:miter;stroke-miterlimit:10;"/><text fill="#000000" font-family="'Inter, Helvetica, sans-serif'" font-size="12" lengthAdjust="spacing" textLength="123.0139" x="298.8541" y="311.7017">Embedder configured</text><text fill="#000000" font-family="'Inter, Helvetica, sans-serif'" font-size="12" lengthAdjust="spacing" textLength="131.8091" x="298.8541" y="326.2241">(managed or external)?</text><text fill="#000000" font-family="'Inter, Helvetica, sans-serif'" font-size="12" lengthAdjust="spacing" textLength="14.1815" x="272.6727" y="311.7017">no</text><text fill="#000000" font-family="'Inter, Helvetica, sans-serif'" font-size="12" lengthAdjust="spacing" textLength="19.9427" x="442.6633" y="311.7017">yes</text><path d="M173.4572,339.1217 L173.4572,361.9053 L153.4572,365.9053 L173.4572,369.9053 L173.4572,392.6888 A0,0 0 0 0 173.4572,392.6888 L336.1013,392.6888 A0,0 0 0 0 336.1013,392.6888 L336.1013,349.1217 L326.1013,339.1217 L173.4572,339.1217 A0,0 0 0 0 173.4572,339.1217" fill="#FFFDF6" style="stroke:#C68A3A;stroke-width:0.5;"/><path d="M326.1013,339.1217 L326.1013,349.1217 L336.1013,349.1217 L326.1013,339.1217" fill="#FFFDF6" style="stroke:#C68A3A;stroke-width:0.5;"/><text fill="#0E1014" font-family="'Inter, Helvetica, sans-serif'" font-size="12" lengthAdjust="spacing" textLength="129.5763" x="179.4572" y="355.7465">classifyQuery() returns</text><text fill="#0E1014" font-family="'Inter, Helvetica, sans-serif'" font-size="12" lengthAdjust="spacing" textLength="141.6441" x="179.4572" y="370.2688">axisWeights from regex /</text><text fill="#0E1014" font-family="'Inter, Helvetica, sans-serif'" font-size="12" lengthAdjust="spacing" textLength="101.1792" x="179.4572" y="384.7912">keyword analysis.</text><rect fill="#F1F1F1" height="49.0447" rx="4" ry="4" style="stroke:#181818;stroke-width:0.5;" width="137.4572" x="16" y="341.3829"/><text fill="#000000" font-family="'Inter, Helvetica, sans-serif'" font-size="12" lengthAdjust="spacing" textLength="117.4572" x="26" y="363.0076">Use R5 deterministic</text><text fill="#000000" font-family="'Inter, Helvetica, sans-serif'" font-size="12" lengthAdjust="spacing" textLength="50.3339" x="26" y="377.53">classifier</text><rect fill="#F1F1F1" height="49.0447" rx="4" ry="4" style="stroke:#181818;stroke-width:0.5;" width="161.3544" x="564.1116" y="339.1217"/><text fill="#000000" font-family="'Inter, Helvetica, sans-serif'" font-size="12" lengthAdjust="spacing" textLength="141.3544" x="574.1116" y="360.7465">ensureEmbedderReady()</text><text fill="#000000" font-family="'Inter, Helvetica, sans-serif'" font-size="12" lengthAdjust="spacing" textLength="121.8378" x="574.1116" y="375.2688">OR read external URL</text><polygon fill="#F1F1F1" points="601.1791,412.6888,688.3984,412.6888,700.3984,424.6888,688.3984,436.6888,601.1791,436.6888,589.1791,424.6888,601.1791,412.6888" style="stroke:#181818;stroke-width:0.5;stroke-linejoin:miter;stroke-miterlimit:10;"/><text fill="#000000" font-family="'Inter, Helvetica, sans-serif'" font-size="12" lengthAdjust="spacing" textLength="87.2193" x="601.1791" y="429.0523">Embedder live?</text><text fill="#000000" font-family="'Inter, Helvetica, sans-serif'" font-size="12" lengthAdjust="spacing" textLength="14.1815" x="574.9976" y="421.7912">no</text><text fill="#000000" font-family="'Inter, Helvetica, sans-serif'" font-size="12" lengthAdjust="spacing" textLength="19.9427" x="700.3984" y="421.7912">yes</text><rect fill="#F1F1F1" height="49.0447" rx="4" ry="4" style="stroke:#181818;stroke-width:0.5;" width="199.7398" x="366.1013" y="446.6888"/><text fill="#000000" font-family="'Inter, Helvetica, sans-serif'" font-size="12" lengthAdjust="spacing" textLength="112.5653" x="376.1013" y="468.3135">Silent fallback to R5</text><text fill="#000000" font-family="'Inter, Helvetica, sans-serif'" font-size="12" lengthAdjust="spacing" textLength="179.7398" x="376.1013" y="482.8359">(gateReason:'embedder-down')</text><rect fill="#F1F1F1" height="63.5671" rx="4" ry="4" style="stroke:#181818;stroke-width:0.5;" width="148.4513" x="749.3807" y="446.6888"/><text fill="#000000" font-family="'Inter, Helvetica, sans-serif'" font-size="12" lengthAdjust="spacing" textLength="116.4345" x="759.3807" y="468.3135">Measure embedding</text><text fill="#000000" font-family="'Inter, Helvetica, sans-serif'" font-size="12" lengthAdjust="spacing" textLength="128.4513" x="759.3807" y="482.8359">reliability per language</text><text fill="#000000" font-family="'Inter, Helvetica, sans-serif'" font-size="12" lengthAdjust="spacing" textLength="96.4748" x="759.3807" y="497.3582">(fr/zh/en triplets)</text><polygon fill="#F1F1F1" points="762.6704,530.2559,884.5422,530.2559,896.5422,542.2559,884.5422,554.2559,762.6704,554.2559,750.6704,542.2559,762.6704,530.2559" style="stroke:#181818;stroke-width:0.5;stroke-linejoin:miter;stroke-miterlimit:10;"/><text fill="#000000" font-family="'Inter, Helvetica, sans-serif'" font-size="12" lengthAdjust="spacing" textLength="121.8719" x="762.6704" y="546.6194">All langs &#8805; threshold?</text><text fill="#000000" font-family="'Inter, Helvetica, sans-serif'" font-size="12" lengthAdjust="spacing" textLength="14.1815" x="736.4889" y="539.3582">no</text><text fill="#000000" font-family="'Inter, Helvetica, sans-serif'" font-size="12" lengthAdjust="spacing" textLength="19.9427" x="896.5422" y="539.3582">yes</text><rect fill="#F1F1F1" height="63.5671" rx="4" ry="4" style="stroke:#181818;stroke-width:0.5;" width="179.5754" x="595.8411" y="564.2559"/><text fill="#000000" font-family="'Inter, Helvetica, sans-serif'" font-size="12" lengthAdjust="spacing" textLength="80.1798" x="605.8411" y="585.8806">Fallback to R5</text><text fill="#000000" font-family="'Inter, Helvetica, sans-serif'" font-size="12" lengthAdjust="spacing" textLength="74.964" x="605.8411" y="600.403">(gateReason:</text><text fill="#000000" font-family="'Inter, Helvetica, sans-serif'" font-size="12" lengthAdjust="spacing" textLength="159.5754" x="605.8411" y="614.9253">'reliability-below-threshold')</text><rect fill="#F1F1F1" height="34.5224" rx="4" ry="4" style="stroke:#181818;stroke-width:0.5;" width="95.2879" x="913.9399" y="564.2559"/><text fill="#000000" font-family="'Inter, Helvetica, sans-serif'" font-size="12" lengthAdjust="spacing" textLength="75.2879" x="923.9399" y="585.8806">Embed query</text><rect fill="#F1F1F1" height="34.5224" rx="4" ry="4" style="stroke:#181818;stroke-width:0.5;" width="180.6493" x="871.2592" y="633.7783"/><text fill="#000000" font-family="'Inter, Helvetica, sans-serif'" font-size="12" lengthAdjust="spacing" textLength="160.6493" x="881.2592" y="655.403">Project onto 32 leaf anchors</text><polygon fill="#F1F1F1" points="905.5313,688.3006,1017.6364,688.3006,1029.6364,702.823,1017.6364,717.3453,905.5313,717.3453,893.5313,702.823,905.5313,688.3006" style="stroke:#181818;stroke-width:0.5;stroke-linejoin:miter;stroke-miterlimit:10;"/><text fill="#000000" font-family="'Inter, Helvetica, sans-serif'" font-size="12" lengthAdjust="spacing" textLength="112.1051" x="905.5313" y="699.9253">Per-leaf confidence</text><text fill="#000000" font-family="'Inter, Helvetica, sans-serif'" font-size="12" lengthAdjust="spacing" textLength="58.8053" x="905.5313" y="714.4477">q[i] &#8805; &#952;_q?</text><text fill="#000000" font-family="'Inter, Helvetica, sans-serif'" font-size="12" lengthAdjust="spacing" textLength="19.9427" x="873.5886" y="699.9253">yes</text><text fill="#000000" font-family="'Inter, Helvetica, sans-serif'" font-size="12" lengthAdjust="spacing" textLength="14.1815" x="1029.6364" y="699.9253">no</text><rect fill="#F1F1F1" height="49.0447" rx="4" ry="4" style="stroke:#181818;stroke-width:0.5;" width="147.1218" x="805.4165" y="727.3453"/><text fill="#000000" font-family="'Inter, Helvetica, sans-serif'" font-size="12" lengthAdjust="spacing" textLength="127.1218" x="815.4165" y="748.97">Descend to LEAF level</text><text fill="#000000" font-family="'Inter, Helvetica, sans-serif'" font-size="12" lengthAdjust="spacing" textLength="64.6006" x="815.4165" y="763.4924">(level:'leaf')</text><rect fill="#F1F1F1" height="49.0447" rx="4" ry="4" style="stroke:#181818;stroke-width:0.5;" width="143.3037" x="972.5383" y="727.3453"/><text fill="#000000" font-family="'Inter, Helvetica, sans-serif'" font-size="12" lengthAdjust="spacing" textLength="123.3037" x="982.5383" y="748.97">Stay at BRANCH level</text><text fill="#000000" font-family="'Inter, Helvetica, sans-serif'" font-size="12" lengthAdjust="spacing" textLength="83.1627" x="982.5383" y="763.4924">(level:'branch')</text><polygon fill="#F1F1F1" points="961.5838,782.39,973.5838,794.39,961.5838,806.39,949.5838,794.39,961.5838,782.39" style="stroke:#181818;stroke-width:0.5;stroke-linejoin:miter;stroke-miterlimit:10;"/><rect fill="#F1F1F1" height="63.5671" rx="4" ry="4" style="stroke:#181818;stroke-width:0.5;" width="175.1608" x="874.0034" y="826.39"/><text fill="#000000" font-family="'Inter, Helvetica, sans-serif'" font-size="12" lengthAdjust="spacing" textLength="153.5074" x="884.0034" y="848.0147">Blend v = &#945;&#183;v_deterministic</text><text fill="#000000" font-family="'Inter, Helvetica, sans-serif'" font-size="12" lengthAdjust="spacing" textLength="155.1608" x="884.0034" y="862.5371">+ &#946;&#183;max(0, topic_coverage)</text><text fill="#000000" font-family="'Inter, Helvetica, sans-serif'" font-size="12" lengthAdjust="spacing" textLength="82.14" x="884.0034" y="877.0595">(&#945;=0.7, &#946;=0.3)</text><rect fill="#F1F1F1" height="49.0447" rx="4" ry="4" style="stroke:#181818;stroke-width:0.5;" width="174.9051" x="874.1312" y="909.9571"/><text fill="#000000" font-family="'Inter, Helvetica, sans-serif'" font-size="12" lengthAdjust="spacing" textLength="129.2694" x="884.1312" y="931.5818">score_m = &#931; q[i]&#183;v_m[i]</text><text fill="#000000" font-family="'Inter, Helvetica, sans-serif'" font-size="12" lengthAdjust="spacing" textLength="154.9051" x="884.1312" y="946.1042">+ w_fit&#183;fit_m + w_hot&#183;hot_m</text><polygon fill="#F1F1F1" points="823.6063,972.9218,835.6063,984.9218,823.6063,996.9218,811.6063,984.9218,823.6063,972.9218" style="stroke:#181818;stroke-width:0.5;stroke-linejoin:miter;stroke-miterlimit:10;"/><text fill="#000000" font-family="'Inter, Helvetica, sans-serif'" font-size="12" lengthAdjust="spacing" textLength="42.7148" x="768.8915" y="982.0242">r5_path</text><text fill="#000000" font-family="'Inter, Helvetica, sans-serif'" font-size="12" lengthAdjust="spacing" textLength="70.396" x="835.6063" y="982.0242">vector_done</text><polygon fill="#F1F1F1" points="644.7888,1010.8419,656.7888,1022.8419,644.7888,1034.8419,632.7888,1022.8419,644.7888,1010.8419" style="stroke:#181818;stroke-width:0.5;stroke-linejoin:miter;stroke-miterlimit:10;"/><text fill="#000000" font-family="'Inter, Helvetica, sans-serif'" font-size="12" lengthAdjust="spacing" textLength="42.7148" x="590.0739" y="1019.9442">r5_path</text><polygon fill="#F1F1F1" points="364.7587,1048.7619,376.7587,1060.7619,364.7587,1072.7619,352.7587,1060.7619,364.7587,1048.7619" style="stroke:#181818;stroke-width:0.5;stroke-linejoin:miter;stroke-miterlimit:10;"/><text fill="#000000" font-family="'Inter, Helvetica, sans-serif'" font-size="12" lengthAdjust="spacing" textLength="42.7148" x="310.0439" y="1057.8642">r5_path</text><rect fill="#F1F1F1" height="34.5224" rx="4" ry="4" style="stroke:#181818;stroke-width:0.5;" width="182.2174" x="273.65" y="1092.7619"/><text fill="#000000" font-family="'Inter, Helvetica, sans-serif'" font-size="12" lengthAdjust="spacing" textLength="162.2174" x="283.65" y="1114.3866">axisWeights &#8594; branch priors</text><rect fill="#F1F1F1" height="34.5224" rx="4" ry="4" style="stroke:#181818;stroke-width:0.5;" width="167.5758" x="280.9708" y="1147.2842"/><text fill="#000000" font-family="'Inter, Helvetica, sans-serif'" font-size="12" lengthAdjust="spacing" textLength="147.5758" x="290.9708" y="1168.9089">score_m using R5 weights</text><rect fill="#F1F1F1" height="49.0447" rx="4" ry="4" style="stroke:#181818;stroke-width:0.5;" width="136.7243" x="296.3965" y="1201.8066"/><text fill="#000000" font-family="'Inter, Helvetica, sans-serif'" font-size="12" lengthAdjust="spacing" textLength="106.4291" x="306.3965" y="1223.4313">Filter to D9 eligible</text><text fill="#000000" font-family="'Inter, Helvetica, sans-serif'" font-size="12" lengthAdjust="spacing" textLength="116.7243" x="306.3965" y="1237.9536">rank by score (desc)</text><rect fill="#F1F1F1" height="92.6118" rx="4" ry="4" style="stroke:#181818;stroke-width:0.5;" width="157.3999" x="286.0587" y="1270.8513"/><text fill="#000000" font-family="'Inter, Helvetica, sans-serif'" font-size="12" lengthAdjust="spacing" textLength="83.7763" x="296.0587" y="1292.476">Build response</text><text fill="#000000" font-family="'Inter, Helvetica, sans-serif'" font-size="12" lengthAdjust="spacing" textLength="133.633" x="296.0587" y="1306.9984">{routedBy, gateReason,</text><text fill="#000000" font-family="'Inter, Helvetica, sans-serif'" font-size="12" lengthAdjust="spacing" textLength="137.3999" x="296.0587" y="1321.5207">best, ranked, resources,</text><text fill="#000000" font-family="'Inter, Helvetica, sans-serif'" font-size="12" lengthAdjust="spacing" textLength="127.5308" x="296.0587" y="1336.0431">embeddingReliability?,</text><text fill="#000000" font-family="'Inter, Helvetica, sans-serif'" font-size="12" lengthAdjust="spacing" textLength="118.2243" x="296.0587" y="1350.5654">level?, axisWeights?}</text><path d="M395.7587,1373.4631 L395.7587,1410.769 L375.7587,1414.769 L395.7587,1418.769 L395.7587,1456.0749 A0,0 0 0 0 395.7587,1456.0749 L580.2034,1456.0749 A0,0 0 0 0 580.2034,1456.0749 L580.2034,1383.4631 L570.2034,1373.4631 L395.7587,1373.4631 A0,0 0 0 0 395.7587,1373.4631" fill="#FFFDF6" style="stroke:#C68A3A;stroke-width:0.5;"/><path d="M570.2034,1373.4631 L570.2034,1383.4631 L580.2034,1383.4631 L570.2034,1373.4631" fill="#FFFDF6" style="stroke:#C68A3A;stroke-width:0.5;"/><text fill="#0E1014" font-family="'Inter, Helvetica, sans-serif'" font-size="12" lengthAdjust="spacing" textLength="64.379" x="401.7587" y="1390.0878">routedBy is</text><text fill="#0E1014" font-family="'Inter, Helvetica, sans-serif'" font-size="12" font-weight="700" lengthAdjust="spacing" textLength="41.3342" x="469.5126" y="1390.0878">always</text><text fill="#0E1014" font-family="'Inter, Helvetica, sans-serif'" font-size="12" lengthAdjust="spacing" textLength="40.3797" x="514.2218" y="1390.0878">explicit</text><text fill="#0E1014" font-family="'Inter, Helvetica, sans-serif'" font-size="12" lengthAdjust="spacing" textLength="160.6152" x="401.7587" y="1404.6102">in the response: 'vector' (full</text><text fill="#0E1014" font-family="'Inter, Helvetica, sans-serif'" font-size="12" lengthAdjust="spacing" textLength="143.5702" x="401.7587" y="1419.1325">pipeline) or 'r5' (fallback).</text><text fill="#0E1014" font-family="'Inter, Helvetica, sans-serif'" font-size="12" lengthAdjust="spacing" textLength="163.4447" x="401.7587" y="1433.6549">gateReason explains why for</text><text fill="#0E1014" font-family="'Inter, Helvetica, sans-serif'" font-size="12" lengthAdjust="spacing" textLength="150.4564" x="401.7587" y="1448.1772">each non-vector outcome.</text><ellipse cx="364.7587" cy="1414.769" fill="none" rx="11" ry="11" style="stroke:#222222;stroke-width:1;"/><ellipse cx="364.7587" cy="1414.769" fill="#222222" rx="6" ry="6" style="stroke:#222222;stroke-width:1;"/><line style="stroke:#1A1D24;stroke-width:1;" x1="364.7587" x2="364.7587" y1="72.9429" y2="92.9429"/><polygon fill="#1A1D24" points="360.7587,82.9429,364.7587,92.9429,368.7587,82.9429,364.7587,86.9429" style="stroke:#1A1D24;stroke-width:1;stroke-linejoin:miter;stroke-miterlimit:10;"/><line style="stroke:#1A1D24;stroke-width:1;" x1="364.7587" x2="364.7587" y1="141.9876" y2="161.9876"/><polygon fill="#1A1D24" points="360.7587,151.9876,364.7587,161.9876,368.7587,151.9876,364.7587,155.9876" style="stroke:#1A1D24;stroke-width:1;stroke-linejoin:miter;stroke-miterlimit:10;"/><line style="stroke:#1A1D24;stroke-width:1;" x1="364.7587" x2="364.7587" y1="211.0323" y2="231.0323"/><polygon fill="#1A1D24" points="360.7587,221.0323,364.7587,231.0323,368.7587,221.0323,364.7587,225.0323" style="stroke:#1A1D24;stroke-width:1;stroke-linejoin:miter;stroke-miterlimit:10;"/><line style="stroke:#1A1D24;stroke-width:1;" x1="961.5838" x2="961.5838" y1="598.7783" y2="633.7783"/><polygon fill="#1A1D24" points="957.5838,623.7783,961.5838,633.7783,965.5838,623.7783,961.5838,627.7783" style="stroke:#1A1D24;stroke-width:1;stroke-linejoin:miter;stroke-miterlimit:10;"/><line style="stroke:#1A1D24;stroke-width:1;" x1="893.5313" x2="878.9774" y1="702.823" y2="702.823"/><line style="stroke:#1A1D24;stroke-width:1;" x1="878.9774" x2="878.9774" y1="702.823" y2="727.3453"/><polygon fill="#1A1D24" points="874.9774,717.3453,878.9774,727.3453,882.9774,717.3453,878.9774,721.3453" style="stroke:#1A1D24;stroke-width:1;stroke-linejoin:miter;stroke-miterlimit:10;"/><line style="stroke:#1A1D24;stroke-width:1;" x1="1029.6364" x2="1044.1902" y1="702.823" y2="702.823"/><line style="stroke:#1A1D24;stroke-width:1;" x1="1044.1902" x2="1044.1902" y1="702.823" y2="727.3453"/><polygon fill="#1A1D24" points="1040.1902,717.3453,1044.1902,727.3453,1048.1902,717.3453,1044.1902,721.3453" style="stroke:#1A1D24;stroke-width:1;stroke-linejoin:miter;stroke-miterlimit:10;"/><line style="stroke:#1A1D24;stroke-width:1;" x1="878.9774" x2="878.9774" y1="776.39" y2="794.39"/><line style="stroke:#1A1D24;stroke-width:1;" x1="878.9774" x2="949.5838" y1="794.39" y2="794.39"/><polygon fill="#1A1D24" points="939.5838,790.39,949.5838,794.39,939.5838,798.39,943.5838,794.39" style="stroke:#1A1D24;stroke-width:1;stroke-linejoin:miter;stroke-miterlimit:10;"/><line style="stroke:#1A1D24;stroke-width:1;" x1="1044.1902" x2="1044.1902" y1="776.39" y2="794.39"/><line style="stroke:#1A1D24;stroke-width:1;" x1="1044.1902" x2="973.5838" y1="794.39" y2="794.39"/><polygon fill="#1A1D24" points="983.5838,790.39,973.5838,794.39,983.5838,798.39,979.5838,794.39" style="stroke:#1A1D24;stroke-width:1;stroke-linejoin:miter;stroke-miterlimit:10;"/><line style="stroke:#1A1D24;stroke-width:1;" x1="961.5838" x2="961.5838" y1="668.3006" y2="688.3006"/><polygon fill="#1A1D24" points="957.5838,678.3006,961.5838,688.3006,965.5838,678.3006,961.5838,682.3006" style="stroke:#1A1D24;stroke-width:1;stroke-linejoin:miter;stroke-miterlimit:10;"/><line style="stroke:#1A1D24;stroke-width:1;" x1="961.5838" x2="961.5838" y1="806.39" y2="826.39"/><polygon fill="#1A1D24" points="957.5838,816.39,961.5838,826.39,965.5838,816.39,961.5838,820.39" style="stroke:#1A1D24;stroke-width:1;stroke-linejoin:miter;stroke-miterlimit:10;"/><line style="stroke:#1A1D24;stroke-width:1;" x1="961.5838" x2="961.5838" y1="889.9571" y2="909.9571"/><polygon fill="#1A1D24" points="957.5838,899.9571,961.5838,909.9571,965.5838,899.9571,961.5838,903.9571" style="stroke:#1A1D24;stroke-width:1;stroke-linejoin:miter;stroke-miterlimit:10;"/><line style="stroke:#1A1D24;stroke-width:1;" x1="750.6704" x2="685.6288" y1="542.2559" y2="542.2559"/><line style="stroke:#1A1D24;stroke-width:1;" x1="685.6288" x2="685.6288" y1="542.2559" y2="564.2559"/><polygon fill="#1A1D24" points="681.6288,554.2559,685.6288,564.2559,689.6288,554.2559,685.6288,558.2559" style="stroke:#1A1D24;stroke-width:1;stroke-linejoin:miter;stroke-miterlimit:10;"/><line style="stroke:#1A1D24;stroke-width:1;" x1="896.5422" x2="961.5838" y1="542.2559" y2="542.2559"/><line style="stroke:#1A1D24;stroke-width:1;" x1="961.5838" x2="961.5838" y1="542.2559" y2="564.2559"/><polygon fill="#1A1D24" points="957.5838,554.2559,961.5838,564.2559,965.5838,554.2559,961.5838,558.2559" style="stroke:#1A1D24;stroke-width:1;stroke-linejoin:miter;stroke-miterlimit:10;"/><line style="stroke:#1A1D24;stroke-width:1;" x1="685.6288" x2="685.6288" y1="627.823" y2="984.9218"/><line style="stroke:#1A1D24;stroke-width:1;" x1="685.6288" x2="811.6063" y1="984.9218" y2="984.9218"/><polygon fill="#1A1D24" points="801.6063,980.9218,811.6063,984.9218,801.6063,988.9218,805.6063,984.9218" style="stroke:#1A1D24;stroke-width:1;stroke-linejoin:miter;stroke-miterlimit:10;"/><line style="stroke:#1A1D24;stroke-width:1;" x1="961.5838" x2="961.5838" y1="959.0018" y2="984.9218"/><line style="stroke:#1A1D24;stroke-width:1;" x1="961.5838" x2="835.6063" y1="984.9218" y2="984.9218"/><polygon fill="#1A1D24" points="845.6063,980.9218,835.6063,984.9218,845.6063,988.9218,841.6063,984.9218" style="stroke:#1A1D24;stroke-width:1;stroke-linejoin:miter;stroke-miterlimit:10;"/><line style="stroke:#1A1D24;stroke-width:1;" x1="823.6063" x2="823.6063" y1="510.2559" y2="530.2559"/><polygon fill="#1A1D24" points="819.6063,520.2559,823.6063,530.2559,827.6063,520.2559,823.6063,524.2559" style="stroke:#1A1D24;stroke-width:1;stroke-linejoin:miter;stroke-miterlimit:10;"/><line style="stroke:#1A1D24;stroke-width:1;" x1="589.1791" x2="465.9712" y1="424.6888" y2="424.6888"/><line style="stroke:#1A1D24;stroke-width:1;" x1="465.9712" x2="465.9712" y1="424.6888" y2="446.6888"/><polygon fill="#1A1D24" points="461.9712,436.6888,465.9712,446.6888,469.9712,436.6888,465.9712,440.6888" style="stroke:#1A1D24;stroke-width:1;stroke-linejoin:miter;stroke-miterlimit:10;"/><line style="stroke:#1A1D24;stroke-width:1;" x1="700.3984" x2="823.6063" y1="424.6888" y2="424.6888"/><line style="stroke:#1A1D24;stroke-width:1;" x1="823.6063" x2="823.6063" y1="424.6888" y2="446.6888"/><polygon fill="#1A1D24" points="819.6063,436.6888,823.6063,446.6888,827.6063,436.6888,823.6063,440.6888" style="stroke:#1A1D24;stroke-width:1;stroke-linejoin:miter;stroke-miterlimit:10;"/><line style="stroke:#1A1D24;stroke-width:1;" x1="465.9712" x2="465.9712" y1="495.7335" y2="1022.8419"/><line style="stroke:#1A1D24;stroke-width:1;" x1="465.9712" x2="632.7888" y1="1022.8419" y2="1022.8419"/><polygon fill="#1A1D24" points="622.7888,1018.8419,632.7888,1022.8419,622.7888,1026.8419,626.7888,1022.8419" style="stroke:#1A1D24;stroke-width:1;stroke-linejoin:miter;stroke-miterlimit:10;"/><line style="stroke:#1A1D24;stroke-width:1;" x1="823.6063" x2="823.6063" y1="996.9218" y2="1022.8419"/><line style="stroke:#1A1D24;stroke-width:1;" x1="823.6063" x2="656.7888" y1="1022.8419" y2="1022.8419"/><polygon fill="#1A1D24" points="666.7888,1018.8419,656.7888,1022.8419,666.7888,1026.8419,662.7888,1022.8419" style="stroke:#1A1D24;stroke-width:1;stroke-linejoin:miter;stroke-miterlimit:10;"/><line style="stroke:#1A1D24;stroke-width:1;" x1="644.7888" x2="644.7888" y1="388.1665" y2="412.6888"/><polygon fill="#1A1D24" points="640.7888,402.6888,644.7888,412.6888,648.7888,402.6888,644.7888,406.6888" style="stroke:#1A1D24;stroke-width:1;stroke-linejoin:miter;stroke-miterlimit:10;"/><line style="stroke:#1A1D24;stroke-width:1;" x1="286.8541" x2="84.7286" y1="314.5994" y2="314.5994"/><line style="stroke:#1A1D24;stroke-width:1;" x1="84.7286" x2="84.7286" y1="314.5994" y2="341.3829"/><polygon fill="#1A1D24" points="80.7286,331.3829,84.7286,341.3829,88.7286,331.3829,84.7286,335.3829" style="stroke:#1A1D24;stroke-width:1;stroke-linejoin:miter;stroke-miterlimit:10;"/><line style="stroke:#1A1D24;stroke-width:1;" x1="442.6633" x2="644.7888" y1="314.5994" y2="314.5994"/><line style="stroke:#1A1D24;stroke-width:1;" x1="644.7888" x2="644.7888" y1="314.5994" y2="339.1217"/><polygon fill="#1A1D24" points="640.7888,329.1217,644.7888,339.1217,648.7888,329.1217,644.7888,333.1217" style="stroke:#1A1D24;stroke-width:1;stroke-linejoin:miter;stroke-miterlimit:10;"/><line style="stroke:#1A1D24;stroke-width:1;" x1="84.7286" x2="84.7286" y1="390.4276" y2="1060.7619"/><line style="stroke:#1A1D24;stroke-width:1;" x1="84.7286" x2="352.7587" y1="1060.7619" y2="1060.7619"/><polygon fill="#1A1D24" points="342.7587,1056.7619,352.7587,1060.7619,342.7587,1064.7619,346.7587,1060.7619" style="stroke:#1A1D24;stroke-width:1;stroke-linejoin:miter;stroke-miterlimit:10;"/><line style="stroke:#1A1D24;stroke-width:1;" x1="644.7888" x2="644.7888" y1="1034.8419" y2="1060.7619"/><line style="stroke:#1A1D24;stroke-width:1;" x1="644.7888" x2="376.7587" y1="1060.7619" y2="1060.7619"/><polygon fill="#1A1D24" points="386.7587,1056.7619,376.7587,1060.7619,386.7587,1064.7619,382.7587,1060.7619" style="stroke:#1A1D24;stroke-width:1;stroke-linejoin:miter;stroke-miterlimit:10;"/><line style="stroke:#1A1D24;stroke-width:1;" x1="364.7587" x2="364.7587" y1="280.077" y2="300.077"/><polygon fill="#1A1D24" points="360.7587,290.077,364.7587,300.077,368.7587,290.077,364.7587,294.077" style="stroke:#1A1D24;stroke-width:1;stroke-linejoin:miter;stroke-miterlimit:10;"/><line style="stroke:#1A1D24;stroke-width:1;" x1="364.7587" x2="364.7587" y1="1072.7619" y2="1092.7619"/><polygon fill="#1A1D24" points="360.7587,1082.7619,364.7587,1092.7619,368.7587,1082.7619,364.7587,1086.7619" style="stroke:#1A1D24;stroke-width:1;stroke-linejoin:miter;stroke-miterlimit:10;"/><line style="stroke:#1A1D24;stroke-width:1;" x1="364.7587" x2="364.7587" y1="1127.2842" y2="1147.2842"/><polygon fill="#1A1D24" points="360.7587,1137.2842,364.7587,1147.2842,368.7587,1137.2842,364.7587,1141.2842" style="stroke:#1A1D24;stroke-width:1;stroke-linejoin:miter;stroke-miterlimit:10;"/><line style="stroke:#1A1D24;stroke-width:1;" x1="364.7587" x2="364.7587" y1="1181.8066" y2="1201.8066"/><polygon fill="#1A1D24" points="360.7587,1191.8066,364.7587,1201.8066,368.7587,1191.8066,364.7587,1195.8066" style="stroke:#1A1D24;stroke-width:1;stroke-linejoin:miter;stroke-miterlimit:10;"/><line style="stroke:#1A1D24;stroke-width:1;" x1="364.7587" x2="364.7587" y1="1250.8513" y2="1270.8513"/><polygon fill="#1A1D24" points="360.7587,1260.8513,364.7587,1270.8513,368.7587,1260.8513,364.7587,1264.8513" style="stroke:#1A1D24;stroke-width:1;stroke-linejoin:miter;stroke-miterlimit:10;"/><line style="stroke:#1A1D24;stroke-width:1;" x1="364.7587" x2="364.7587" y1="1363.4631" y2="1403.769"/><polygon fill="#1A1D24" points="360.7587,1393.769,364.7587,1403.769,368.7587,1393.769,364.7587,1397.769" style="stroke:#1A1D24;stroke-width:1;stroke-linejoin:miter;stroke-miterlimit:10;"/><?plantuml-src VLJDRfmm4BxxAQQdPjLqeoRDfQYL39WDZGDRO9kksieYu5qiyPE0DwlS-X1zWqgzjvVSym1vY3v93MmI4fPSZCVVp3VV31w_47cKhc8Eu_4Us-ohlKfUfNmiLbcAa1GovU077lC2anWii0DA47e9E9BYKiWhY4MuBCCC5aK9Ck5G5YifyYN4F1ALA798YwM8nc2AIfr74XPbaTMUYgJY5okUHnnsrec84gYIObt1wP4BKPYcpMu4_txyX8IN7DQySMYow1vsZ2FRcIYM7R40dftnEERbBYYZvAa8prBU6BT_zcx_WhBoU5Tn_HwD4QfaM4g4tZtKvGTaogYBJMPO4wsFs7x03EoOVX-RUgvED8HKhfq7oBOOET6PuJgMFHdLclCkxBWZ1F2KQkOJvXrg2iaBgLefbebK1a0tCAXz67qp1EmF0GSAK5rekDNszGSe3zbvA1CDyRJYNNbpuc_JHnn_vYaoWirvhN9hoTJ-J8OAxbDQc58T6yVCT4yThN7f2bEAjqlhCvqGl557MvwUEfMAKUnC_65vpmWCZZnju_DOuJCQjxJmH2Sc-pGZtbmRS54NwYCnWZkuLyQKU9HWgxbR_KewkVlK9l4DLWVVaJzL_j27Vh0Vu3bh1-y-F8_5Og0CdHB7lA-nYegIimpUm-qlkFWgljzSNx9CVR_bhs3D5aBUNAj5UTHcKYXJBIphjFoIHx8eMLpaVDFsJVRsswue3SzuUlTxUiEAlzW-2rpLOzlrjWopRxXUEuCjJoTdpzUoQK3K2NQE-qJwpAQckel-LAlVc-8SeKSp_MG-BTl1j1tgxSZ-878mYBmTH0xH_KFm7m00?></g></svg>