<svg xmlns="http://www.w3.org/2000/svg" xmlns:xlink="http://www.w3.org/1999/xlink" contentStyleType="text/css" data-diagram-type="ACTIVITY" height="2075px" preserveAspectRatio="none" style="width:872px;height:2075px;background:#F4EEE3;" version="1.1" viewBox="0 0 872 2075" width="872px" zoomAndPan="magnify"><?plantuml 1.2026.4?><defs/><g><rect fill="#F4EEE3" height="2075" style="stroke:none;stroke-width:1;" width="872" x="0" y="0"/><g class="title" data-source-line="3"><text fill="#000000" font-family="'Inter, Helvetica, sans-serif'" font-size="14" font-weight="700" lengthAdjust="spacing" textLength="260.0696" x="305.1464" y="33.5623">Activity &#8212; sandbox kill paths (POSIX)</text><text fill="#000000" font-family="'Inter, Helvetica, sans-serif'" font-size="14" font-weight="700" lengthAdjust="spacing" textLength="367.7326" x="251.3149" y="50.5051">what fails the assert vs what voids the measurement</text></g><ellipse cx="421.5143" cy="79.8858" fill="#222222" rx="10" ry="10" style="stroke:#222222;stroke-width:1;"/><rect fill="#F1F1F1" height="49.0447" rx="4" ry="4" style="stroke:#181818;stroke-width:0.5;" width="167.9849" x="337.5219" y="109.8858"/><text fill="#000000" font-family="'Inter, Helvetica, sans-serif'" font-size="12" lengthAdjust="spacing" textLength="147.9849" x="347.5219" y="131.5105">characterizeRunner builds</text><text fill="#000000" font-family="'Inter, Helvetica, sans-serif'" font-size="12" lengthAdjust="spacing" textLength="102.2701" x="347.5219" y="146.0328">runSandbox seam</text><rect fill="#F1F1F1" height="49.0447" rx="4" ry="4" style="stroke:#181818;stroke-width:0.5;" width="231.9889" x="305.5199" y="178.9305"/><text fill="#000000" font-family="'Inter, Helvetica, sans-serif'" font-size="12" lengthAdjust="spacing" textLength="156.8824" x="315.5199" y="200.5552">staircase.evaluateItem calls</text><text fill="#000000" font-family="'Inter, Helvetica, sans-serif'" font-size="12" lengthAdjust="spacing" textLength="211.9889" x="315.5199" y="215.0776">runSandbox({codeLang, code, tests})</text><polygon fill="#F1F1F1" points="78.1919,247.9752,125.8668,247.9752,137.8668,259.9752,125.8668,271.9752,78.1919,271.9752,66.1919,259.9752,78.1919,247.9752" style="stroke:#181818;stroke-width:0.5;stroke-linejoin:miter;stroke-miterlimit:10;"/><text fill="#000000" font-family="'Inter, Helvetica, sans-serif'" font-size="12" lengthAdjust="spacing" textLength="90.2534" x="106.0293" y="283.5999">UnsafeSandbox</text><text fill="#000000" font-family="'Inter, Helvetica, sans-serif'" font-size="12" lengthAdjust="spacing" textLength="47.6749" x="78.1919" y="264.3387">Provider</text><rect fill="#F1F1F1" height="49.0447" rx="4" ry="4" style="stroke:#181818;stroke-width:0.5;" width="172.0586" x="16" y="306.4976"/><text fill="#000000" font-family="'Inter, Helvetica, sans-serif'" font-size="12" lengthAdjust="spacing" textLength="152.0586" x="26" y="328.1223">throw SandboxUnavailable</text><text fill="#000000" font-family="'Inter, Helvetica, sans-serif'" font-size="12" lengthAdjust="spacing" textLength="71.7936" x="26" y="342.6446">("opt-in off")</text><polygon fill="#F1F1F1" points="397.4693,247.9752,590.7087,247.9752,602.7087,259.9752,590.7087,271.9752,397.4693,271.9752,385.4693,259.9752,397.4693,247.9752" style="stroke:#181818;stroke-width:0.5;stroke-linejoin:miter;stroke-miterlimit:10;"/><text fill="#000000" font-family="'Inter, Helvetica, sans-serif'" font-size="12" lengthAdjust="spacing" textLength="193.2394" x="397.4693" y="264.3387">PosixSandbox / WindowsSandbox</text><rect fill="#F1F1F1" height="49.0447" rx="4" ry="4" style="stroke:#181818;stroke-width:0.5;" width="172.0586" x="408.0597" y="341.2364"/><text fill="#000000" font-family="'Inter, Helvetica, sans-serif'" font-size="12" lengthAdjust="spacing" textLength="152.0586" x="418.0597" y="362.8611">throw SandboxUnavailable</text><text fill="#000000" font-family="'Inter, Helvetica, sans-serif'" font-size="12" lengthAdjust="spacing" textLength="75.5606" x="418.0597" y="377.3834">("no python")</text><polygon fill="#F1F1F1" points="448.5532,291.9752,539.6248,291.9752,551.6248,303.9752,539.6248,315.9752,448.5532,315.9752,436.5532,303.9752,448.5532,291.9752" style="stroke:#181818;stroke-width:0.5;stroke-linejoin:miter;stroke-miterlimit:10;"/><text fill="#000000" font-family="'Inter, Helvetica, sans-serif'" font-size="12" lengthAdjust="spacing" textLength="14.1815" x="498.089" y="327.5999">no</text><text fill="#000000" font-family="'Inter, Helvetica, sans-serif'" font-size="12" lengthAdjust="spacing" textLength="91.0715" x="448.5532" y="308.3387">find python OK?</text><polygon fill="#F1F1F1" points="494.089,416.2011,506.089,428.2011,494.089,440.2011,482.089,428.2011,494.089,416.2011" style="stroke:#181818;stroke-width:0.5;stroke-linejoin:miter;stroke-miterlimit:10;"/><text fill="#000000" font-family="'Inter, Helvetica, sans-serif'" font-size="12" lengthAdjust="spacing" textLength="63.9529" x="500.089" y="413.3035">unavailable</text><rect fill="#F1F1F1" height="49.0447" rx="4" ry="4" style="stroke:#181818;stroke-width:0.5;" width="172.0586" x="408.0597" y="509.4623"/><text fill="#000000" font-family="'Inter, Helvetica, sans-serif'" font-size="12" lengthAdjust="spacing" textLength="152.0586" x="418.0597" y="531.087">throw SandboxUnavailable</text><text fill="#000000" font-family="'Inter, Helvetica, sans-serif'" font-size="12" lengthAdjust="spacing" textLength="121.0026" x="418.0597" y="545.6094">("mkdtemp" / "write")</text><polygon fill="#F1F1F1" points="422.73,460.2011,565.448,460.2011,577.448,472.2011,565.448,484.2011,422.73,484.2011,410.73,472.2011,422.73,460.2011" style="stroke:#181818;stroke-width:0.5;stroke-linejoin:miter;stroke-miterlimit:10;"/><text fill="#000000" font-family="'Inter, Helvetica, sans-serif'" font-size="12" lengthAdjust="spacing" textLength="14.1815" x="498.089" y="495.8258">no</text><text fill="#000000" font-family="'Inter, Helvetica, sans-serif'" font-size="12" lengthAdjust="spacing" textLength="142.7179" x="422.73" y="476.5646">mkdtemp + writeFile OK?</text><polygon fill="#F1F1F1" points="494.089,584.427,506.089,596.427,494.089,608.427,482.089,596.427,494.089,584.427" style="stroke:#181818;stroke-width:0.5;stroke-linejoin:miter;stroke-miterlimit:10;"/><text fill="#000000" font-family="'Inter, Helvetica, sans-serif'" font-size="12" lengthAdjust="spacing" textLength="63.9529" x="500.089" y="581.5294">unavailable</text><path d="M603.4587,618.427 L603.4587,701.0388 L777.0287,701.0388 L777.0287,628.427 L767.0287,618.427 L603.4587,618.427" fill="#FFFDF6" style="stroke:#C68A3A;stroke-width:0.5;"/><path d="M767.0287,618.427 L767.0287,628.427 L777.0287,628.427 L767.0287,618.427" fill="#FFFDF6" style="stroke:#C68A3A;stroke-width:0.5;"/><text fill="#0E1014" font-family="'Inter, Helvetica, sans-serif'" font-size="12" lengthAdjust="spacing" textLength="109.4631" x="609.4587" y="635.0517">rlimit failures inside</text><text fill="#0E1014" font-family="'Inter, Helvetica, sans-serif'" font-size="12" lengthAdjust="spacing" textLength="152.57" x="609.4587" y="649.5741">Python are silently passed;</text><text fill="#0E1014" font-family="'Inter, Helvetica, sans-serif'" font-size="12" lengthAdjust="spacing" textLength="133.6159" x="609.4587" y="664.0964">the real failure surfaces</text><text fill="#0E1014" font-family="'Inter, Helvetica, sans-serif'" font-size="12" lengthAdjust="spacing" textLength="147.0815" x="609.4587" y="678.6188">through RLIMIT_FSIZE = 0</text><text fill="#0E1014" font-family="'Inter, Helvetica, sans-serif'" font-size="12" lengthAdjust="spacing" textLength="130.258" x="609.4587" y="693.1412">or the wall-clock timer.</text><polygon fill="#F1F1F1" points="396.7193,701.0388,591.4587,701.0388,603.4587,713.0388,591.4587,725.0388,396.7193,725.0388,384.7193,713.0388,396.7193,701.0388" style="stroke:#181818;stroke-width:0.5;stroke-linejoin:miter;stroke-miterlimit:10;"/><text fill="#000000" font-family="'Inter, Helvetica, sans-serif'" font-size="12" lengthAdjust="spacing" textLength="194.7393" x="396.7193" y="717.4023">POSIX: setrlimit succeeds in child?</text><text fill="#000000" font-family="'Inter, Helvetica, sans-serif'" font-size="12" lengthAdjust="spacing" textLength="14.1815" x="370.5379" y="710.1412">no</text><polygon fill="#F1F1F1" points="494.089,741.0388,506.089,753.0388,494.089,765.0388,482.089,753.0388,494.089,741.0388" style="stroke:#181818;stroke-width:0.5;stroke-linejoin:miter;stroke-miterlimit:10;"/><rect fill="#F1F1F1" height="49.0447" rx="4" ry="4" style="stroke:#181818;stroke-width:0.5;" width="183.7685" x="402.2047" y="785.0388"/><text fill="#000000" font-family="'Inter, Helvetica, sans-serif'" font-size="12" lengthAdjust="spacing" textLength="163.7685" x="412.2047" y="806.6635">spawn child (Python -I -S -B,</text><text fill="#000000" font-family="'Inter, Helvetica, sans-serif'" font-size="12" lengthAdjust="spacing" textLength="154.4961" x="412.2047" y="821.1859">detached pgrp, empty env)</text><rect fill="#F1F1F1" height="49.0447" rx="4" ry="4" style="stroke:#181818;stroke-width:0.5;" width="172.0586" x="408.0597" y="903.3447"/><text fill="#000000" font-family="'Inter, Helvetica, sans-serif'" font-size="12" lengthAdjust="spacing" textLength="152.0586" x="418.0597" y="924.9694">throw SandboxUnavailable</text><text fill="#000000" font-family="'Inter, Helvetica, sans-serif'" font-size="12" lengthAdjust="spacing" textLength="86.4183" x="418.0597" y="939.4918">("spawn error")</text><polygon fill="#F1F1F1" points="439.3148,854.0835,548.8632,854.0835,560.8632,866.0835,548.8632,878.0835,439.3148,878.0835,427.3148,866.0835,439.3148,854.0835" style="stroke:#181818;stroke-width:0.5;stroke-linejoin:miter;stroke-miterlimit:10;"/><text fill="#000000" font-family="'Inter, Helvetica, sans-serif'" font-size="12" lengthAdjust="spacing" textLength="19.9427" x="498.089" y="889.7082">yes</text><text fill="#000000" font-family="'Inter, Helvetica, sans-serif'" font-size="12" lengthAdjust="spacing" textLength="109.5484" x="439.3148" y="870.447">spawn error event?</text><polygon fill="#F1F1F1" points="494.089,987.8989,506.089,999.8989,494.089,1011.8989,482.089,999.8989,494.089,987.8989" style="stroke:#181818;stroke-width:0.5;stroke-linejoin:miter;stroke-miterlimit:10;"/><text fill="#000000" font-family="'Inter, Helvetica, sans-serif'" font-size="12" lengthAdjust="spacing" textLength="63.9529" x="500.089" y="985.0012">unavailable</text><rect fill="#555555" height="6" rx="2.5" ry="2.5" style="stroke:#555555;stroke-width:1;" width="563.6126" x="212.2827" y="1031.8989"/><rect fill="#F1F1F1" height="34.5224" rx="4" ry="4" style="stroke:#181818;stroke-width:0.5;" width="109.9636" x="226.2827" y="1168.9436"/><text fill="#000000" font-family="'Inter, Helvetica, sans-serif'" font-size="12" lengthAdjust="spacing" textLength="89.9636" x="236.2827" y="1190.5683">Wait for `close`</text><rect fill="#F1F1F1" height="49.0447" rx="4" ry="4" style="stroke:#181818;stroke-width:0.5;" width="157.9453" x="364.2463" y="1057.8989"/><text fill="#000000" font-family="'Inter, Helvetica, sans-serif'" font-size="12" lengthAdjust="spacing" textLength="91.7704" x="374.2463" y="1079.5236">Wall-clock timer</text><text fill="#000000" font-family="'Inter, Helvetica, sans-serif'" font-size="12" lengthAdjust="spacing" textLength="137.9453" x="374.2463" y="1094.0459">(timeoutMs default 10 s)</text><rect fill="#F1F1F1" height="34.5224" rx="4" ry="4" style="stroke:#181818;stroke-width:0.5;" width="125.1678" x="380.6351" y="1176.2048"/><text fill="#000000" font-family="'Inter, Helvetica, sans-serif'" font-size="12" lengthAdjust="spacing" textLength="105.1678" x="390.6351" y="1197.8295">kill(-pgid, SIGKILL)</text><rect fill="#F1F1F1" height="34.5224" rx="4" ry="4" style="stroke:#181818;stroke-width:0.5;" width="121.7758" x="382.3311" y="1245.7271"/><text fill="#000000" font-family="'Inter, Helvetica, sans-serif'" font-size="12" lengthAdjust="spacing" textLength="101.7758" x="392.3311" y="1267.3518">reason = 'timeout'</text><polygon fill="#F1F1F1" points="417.7708,1126.9436,468.6672,1126.9436,480.6672,1138.9436,468.6672,1150.9436,417.7708,1150.9436,405.7708,1138.9436,417.7708,1126.9436" style="stroke:#181818;stroke-width:0.5;stroke-linejoin:miter;stroke-miterlimit:10;"/><text fill="#000000" font-family="'Inter, Helvetica, sans-serif'" font-size="12" lengthAdjust="spacing" textLength="19.9427" x="447.219" y="1162.5683">yes</text><text fill="#000000" font-family="'Inter, Helvetica, sans-serif'" font-size="12" lengthAdjust="spacing" textLength="50.8964" x="417.7708" y="1143.3071">Elapsed?</text><polygon fill="#F1F1F1" points="443.219,1300.2495,455.219,1312.2495,443.219,1324.2495,431.219,1312.2495,443.219,1300.2495" style="stroke:#181818;stroke-width:0.5;stroke-linejoin:miter;stroke-miterlimit:10;"/><rect fill="#F1F1F1" height="49.0447" rx="4" ry="4" style="stroke:#181818;stroke-width:0.5;" width="197.4898" x="555.8029" y="1057.8989"/><text fill="#000000" font-family="'Inter, Helvetica, sans-serif'" font-size="12" lengthAdjust="spacing" textLength="88.6171" x="565.8029" y="1079.5236">Output watcher</text><text fill="#000000" font-family="'Inter, Helvetica, sans-serif'" font-size="12" lengthAdjust="spacing" textLength="177.4898" x="565.8029" y="1094.0459">(maxOutputBytes default 1 MB)</text><rect fill="#F1F1F1" height="34.5224" rx="4" ry="4" style="stroke:#181818;stroke-width:0.5;" width="125.1678" x="591.9639" y="1176.2048"/><text fill="#000000" font-family="'Inter, Helvetica, sans-serif'" font-size="12" lengthAdjust="spacing" textLength="105.1678" x="601.9639" y="1197.8295">kill(-pgid, SIGKILL)</text><rect fill="#F1F1F1" height="34.5224" rx="4" ry="4" style="stroke:#181818;stroke-width:0.5;" width="170.695" x="569.2003" y="1245.7271"/><text fill="#000000" font-family="'Inter, Helvetica, sans-serif'" font-size="12" lengthAdjust="spacing" textLength="150.695" x="579.2003" y="1267.3518">reason = 'output-overflow'</text><polygon fill="#F1F1F1" points="598.0606,1126.9436,711.035,1126.9436,723.035,1138.9436,711.035,1150.9436,598.0606,1150.9436,586.0606,1138.9436,598.0606,1126.9436" style="stroke:#181818;stroke-width:0.5;stroke-linejoin:miter;stroke-miterlimit:10;"/><text fill="#000000" font-family="'Inter, Helvetica, sans-serif'" font-size="12" lengthAdjust="spacing" textLength="19.9427" x="658.5478" y="1162.5683">yes</text><text fill="#000000" font-family="'Inter, Helvetica, sans-serif'" font-size="12" lengthAdjust="spacing" textLength="112.9744" x="598.0606" y="1143.3071">Threshold reached?</text><polygon fill="#F1F1F1" points="654.5478,1300.2495,666.5478,1312.2495,654.5478,1324.2495,642.5478,1312.2495,654.5478,1300.2495" style="stroke:#181818;stroke-width:0.5;stroke-linejoin:miter;stroke-miterlimit:10;"/><rect fill="#555555" height="6" rx="2.5" ry="2.5" style="stroke:#555555;stroke-width:1;" width="563.6126" x="212.2827" y="1344.2495"/><polygon fill="#F1F1F1" points="282.8206,1370.2495,352.3132,1370.2495,364.3132,1382.2495,352.3132,1394.2495,282.8206,1394.2495,270.8206,1382.2495,282.8206,1370.2495" style="stroke:#181818;stroke-width:0.5;stroke-linejoin:miter;stroke-miterlimit:10;"/><text fill="#000000" font-family="'Inter, Helvetica, sans-serif'" font-size="12" lengthAdjust="spacing" textLength="19.9427" x="321.5669" y="1405.8742">yes</text><text fill="#000000" font-family="'Inter, Helvetica, sans-serif'" font-size="12" lengthAdjust="spacing" textLength="69.4925" x="282.8206" y="1386.613">Exit code 0?</text><rect fill="#F1F1F1" height="34.5224" rx="4" ry="4" style="stroke:#181818;stroke-width:0.5;" width="119.0657" x="258.0341" y="1428.7718"/><text fill="#000000" font-family="'Inter, Helvetica, sans-serif'" font-size="12" lengthAdjust="spacing" textLength="99.0657" x="268.0341" y="1450.3965">return {pass:true}</text><polygon fill="#F1F1F1" points="449.0816,1370.2495,514.0061,1370.2495,526.0061,1382.2495,514.0061,1394.2495,449.0816,1394.2495,437.0816,1382.2495,449.0816,1370.2495" style="stroke:#181818;stroke-width:0.5;stroke-linejoin:miter;stroke-miterlimit:10;"/><text fill="#000000" font-family="'Inter, Helvetica, sans-serif'" font-size="12" lengthAdjust="spacing" textLength="19.9427" x="485.5439" y="1405.8742">yes</text><text fill="#000000" font-family="'Inter, Helvetica, sans-serif'" font-size="12" lengthAdjust="spacing" textLength="64.9245" x="449.0816" y="1386.613">Killed by us</text><text fill="#000000" font-family="'Inter, Helvetica, sans-serif'" font-size="12" lengthAdjust="spacing" textLength="85.2762" x="526.0061" y="1379.3518">other non-zero</text><rect fill="#F1F1F1" height="34.5224" rx="4" ry="4" style="stroke:#181818;stroke-width:0.5;" width="168.8883" x="397.0998" y="1428.7718"/><text fill="#000000" font-family="'Inter, Helvetica, sans-serif'" font-size="12" lengthAdjust="spacing" textLength="148.8883" x="407.0998" y="1450.3965">return {pass:false, reason}</text><rect fill="#F1F1F1" height="49.0447" rx="4" ry="4" style="stroke:#181818;stroke-width:0.5;" width="144.1559" x="585.988" y="1417.2495"/><text fill="#000000" font-family="'Inter, Helvetica, sans-serif'" font-size="12" lengthAdjust="spacing" textLength="102.4917" x="595.988" y="1438.8742">return {pass:false,</text><text fill="#000000" font-family="'Inter, Helvetica, sans-serif'" font-size="12" lengthAdjust="spacing" textLength="124.1559" x="595.988" y="1453.3965">reason:'exit-nonzero'}</text><rect fill="#F1F1F1" height="49.0447" rx="4" ry="4" style="stroke:#181818;stroke-width:0.5;" width="127.4177" x="357.8055" y="1526.2942"/><text fill="#000000" font-family="'Inter, Helvetica, sans-serif'" font-size="12" lengthAdjust="spacing" textLength="107.4177" x="367.8055" y="1547.9189">Item recorded with</text><text fill="#000000" font-family="'Inter, Helvetica, sans-serif'" font-size="12" lengthAdjust="spacing" textLength="98.0771" x="367.8055" y="1562.4412">{status: pass/fail}</text><ellipse cx="421.5143" cy="1606.3389" fill="none" rx="11" ry="11" style="stroke:#222222;stroke-width:1;"/><ellipse cx="421.5143" cy="1606.3389" fill="#222222" rx="6" ry="6" style="stroke:#222222;stroke-width:1;"/><rect fill="#F1F1F1" height="49.0447" rx="4" ry="4" style="stroke:#181818;stroke-width:0.5;" width="164.4054" x="339.3116" y="1637.3389"/><text fill="#000000" font-family="'Inter, Helvetica, sans-serif'" font-size="12" lengthAdjust="spacing" textLength="144.4054" x="349.3116" y="1658.9636">Caller (staircase) catches</text><text fill="#000000" font-family="'Inter, Helvetica, sans-serif'" font-size="12" lengthAdjust="spacing" textLength="115.855" x="349.3116" y="1673.486">SandboxUnavailable</text><rect fill="#F1F1F1" height="63.5671" rx="4" ry="4" style="stroke:#181818;stroke-width:0.5;" width="171.7177" x="335.6555" y="1706.3836"/><text fill="#000000" font-family="'Inter, Helvetica, sans-serif'" font-size="12" lengthAdjust="spacing" textLength="96.4066" x="345.6555" y="1728.0083">Item recorded as</text><text fill="#000000" font-family="'Inter, Helvetica, sans-serif'" font-size="12" lengthAdjust="spacing" textLength="121.6674" x="345.6555" y="1742.5307">{status:'unmeasured',</text><text fill="#000000" font-family="'Inter, Helvetica, sans-serif'" font-size="12" lengthAdjust="spacing" textLength="151.7177" x="345.6555" y="1757.053">reason:'sandbox-pending'}</text><rect fill="#F1F1F1" height="49.0447" rx="4" ry="4" style="stroke:#181818;stroke-width:0.5;" width="155.6443" x="343.6922" y="1789.9507"/><text fill="#000000" font-family="'Inter, Helvetica, sans-serif'" font-size="12" lengthAdjust="spacing" textLength="135.6443" x="353.6922" y="1811.5754">Leaf left as branch prior</text><text fill="#000000" font-family="'Inter, Helvetica, sans-serif'" font-size="12" lengthAdjust="spacing" textLength="134.6727" x="353.6922" y="1826.0978">(D12, lower confidence)</text><path d="M205.7914,1858.9954 L205.7914,1941.6072 L400.5143,1941.6072 L400.5143,1868.9954 L390.5143,1858.9954 L205.7914,1858.9954" fill="#FFFDF6" style="stroke:#C68A3A;stroke-width:0.5;"/><path d="M390.5143,1858.9954 L390.5143,1868.9954 L400.5143,1868.9954 L390.5143,1858.9954" fill="#FFFDF6" style="stroke:#C68A3A;stroke-width:0.5;"/><text fill="#0E1014" font-family="'Inter, Helvetica, sans-serif'" font-size="12" font-weight="700" lengthAdjust="spacing" textLength="59.3338" x="211.7914" y="1875.6201">measured</text><text fill="#0E1014" font-family="'Inter, Helvetica, sans-serif'" font-size="12" lengthAdjust="spacing" textLength="11.9997" x="274.5001" y="1875.6201">&#8212;</text><text fill="#0E1014" font-family="'Inter, Helvetica, sans-serif'" font-size="12" lengthAdjust="spacing" textLength="150.5246" x="211.7914" y="1890.1425">REAL measurement signal:</text><text fill="#0E1014" font-family="'Inter, Helvetica, sans-serif'" font-size="12" lengthAdjust="spacing" textLength="147.5417" x="211.7914" y="1904.6648">enters scores_per_leaf via</text><text fill="#0E1014" font-family="'Inter, Helvetica, sans-serif'" font-size="12" lengthAdjust="spacing" textLength="173.7229" x="211.7914" y="1919.1872">Beta-Laplace (passes_per_leaf</text><text fill="#0E1014" font-family="'Inter, Helvetica, sans-serif'" font-size="12" lengthAdjust="spacing" textLength="119.4686" x="211.7914" y="1933.7095">incremented if pass).</text><path d="M220.8678,1961.6072 L220.8678,2044.219 L385.438,2044.219 L385.438,1971.6072 L375.438,1961.6072 L220.8678,1961.6072" fill="#FFFDF6" style="stroke:#C68A3A;stroke-width:0.5;"/><path d="M375.438,1961.6072 L375.438,1971.6072 L385.438,1971.6072 L375.438,1961.6072" fill="#FFFDF6" style="stroke:#C68A3A;stroke-width:0.5;"/><text fill="#0E1014" font-family="'Inter, Helvetica, sans-serif'" font-size="12" font-weight="700" lengthAdjust="spacing" textLength="68.0779" x="226.8678" y="1978.2319">unavailable</text><text fill="#0E1014" font-family="'Inter, Helvetica, sans-serif'" font-size="12" lengthAdjust="spacing" textLength="11.9997" x="298.3206" y="1978.2319">&#8212;</text><text fill="#0E1014" font-family="'Inter, Helvetica, sans-serif'" font-size="12" lengthAdjust="spacing" textLength="132.4569" x="226.8678" y="1992.7543">NOT a measurement &#8212;</text><text fill="#0E1014" font-family="'Inter, Helvetica, sans-serif'" font-size="12" lengthAdjust="spacing" textLength="132.1671" x="226.8678" y="2007.2766">passes_per_leaf is NOT</text><text fill="#0E1014" font-family="'Inter, Helvetica, sans-serif'" font-size="12" lengthAdjust="spacing" textLength="142.5134" x="226.8678" y="2021.799">touched (only real climbs</text><text fill="#0E1014" font-family="'Inter, Helvetica, sans-serif'" font-size="12" lengthAdjust="spacing" textLength="143.5702" x="226.8678" y="2036.3213">count toward saturation).</text><ellipse cx="421.5143" cy="1951.6072" fill="none" rx="11" ry="11" style="stroke:#222222;stroke-width:1;"/><ellipse cx="421.5143" cy="1951.6072" fill="#222222" rx="6" ry="6" style="stroke:#222222;stroke-width:1;"/><line style="stroke:#1A1D24;stroke-width:1;" x1="421.5143" x2="421.5143" y1="89.8858" y2="109.8858"/><polygon fill="#1A1D24" points="417.5143,99.8858,421.5143,109.8858,425.5143,99.8858,421.5143,103.8858" style="stroke:#1A1D24;stroke-width:1;stroke-linejoin:miter;stroke-miterlimit:10;"/><line style="stroke:#1A1D24;stroke-width:1;" x1="421.5143" x2="421.5143" y1="158.9305" y2="178.9305"/><polygon fill="#1A1D24" points="417.5143,168.9305,421.5143,178.9305,425.5143,168.9305,421.5143,172.9305" style="stroke:#1A1D24;stroke-width:1;stroke-linejoin:miter;stroke-miterlimit:10;"/><line style="stroke:#1A1D24;stroke-width:1;" x1="494.089" x2="494.089" y1="315.9752" y2="341.2364"/><polygon fill="#1A1D24" points="490.089,331.2364,494.089,341.2364,498.089,331.2364,494.089,335.2364" style="stroke:#1A1D24;stroke-width:1;stroke-linejoin:miter;stroke-miterlimit:10;"/><line style="stroke:#1A1D24;stroke-width:1;" x1="551.6248" x2="590.1183" y1="303.9752" y2="303.9752"/><polygon fill="#1A1D24" points="586.1183,363.0199,590.1183,373.0199,594.1183,363.0199,590.1183,367.0199" style="stroke:#1A1D24;stroke-width:1;stroke-linejoin:miter;stroke-miterlimit:10;"/><line style="stroke:#1A1D24;stroke-width:1;" x1="590.1183" x2="590.1183" y1="303.9752" y2="428.2011"/><line style="stroke:#1A1D24;stroke-width:1;" x1="590.1183" x2="506.089" y1="428.2011" y2="428.2011"/><polygon fill="#1A1D24" points="516.089,424.2011,506.089,428.2011,516.089,432.2011,512.089,428.2011" style="stroke:#1A1D24;stroke-width:1;stroke-linejoin:miter;stroke-miterlimit:10;"/><line style="stroke:#1A1D24;stroke-width:1;" x1="494.089" x2="494.089" y1="390.2811" y2="416.2011"/><polygon fill="#1A1D24" points="490.089,406.2011,494.089,416.2011,498.089,406.2011,494.089,410.2011" style="stroke:#1A1D24;stroke-width:1;stroke-linejoin:miter;stroke-miterlimit:10;"/><line style="stroke:#1A1D24;stroke-width:1;" x1="494.089" x2="494.089" y1="484.2011" y2="509.4623"/><polygon fill="#1A1D24" points="490.089,499.4623,494.089,509.4623,498.089,499.4623,494.089,503.4623" style="stroke:#1A1D24;stroke-width:1;stroke-linejoin:miter;stroke-miterlimit:10;"/><line style="stroke:#1A1D24;stroke-width:1;" x1="577.448" x2="590.1183" y1="472.2011" y2="472.2011"/><polygon fill="#1A1D24" points="586.1183,531.2458,590.1183,541.2458,594.1183,531.2458,590.1183,535.2458" style="stroke:#1A1D24;stroke-width:1;stroke-linejoin:miter;stroke-miterlimit:10;"/><line style="stroke:#1A1D24;stroke-width:1;" x1="590.1183" x2="590.1183" y1="472.2011" y2="596.427"/><line style="stroke:#1A1D24;stroke-width:1;" x1="590.1183" x2="506.089" y1="596.427" y2="596.427"/><polygon fill="#1A1D24" points="516.089,592.427,506.089,596.427,516.089,600.427,512.089,596.427" style="stroke:#1A1D24;stroke-width:1;stroke-linejoin:miter;stroke-miterlimit:10;"/><line style="stroke:#1A1D24;stroke-width:1;" x1="494.089" x2="494.089" y1="558.507" y2="584.427"/><polygon fill="#1A1D24" points="490.089,574.427,494.089,584.427,498.089,574.427,494.089,578.427" style="stroke:#1A1D24;stroke-width:1;stroke-linejoin:miter;stroke-miterlimit:10;"/><line style="stroke:#1A1D24;stroke-width:1;" x1="494.089" x2="494.089" y1="440.2011" y2="460.2011"/><polygon fill="#1A1D24" points="490.089,450.2011,494.089,460.2011,498.089,450.2011,494.089,454.2011" style="stroke:#1A1D24;stroke-width:1;stroke-linejoin:miter;stroke-miterlimit:10;"/><line style="stroke:#1A1D24;stroke-width:1;" x1="384.7193" x2="374.7193" y1="713.0388" y2="713.0388"/><polygon fill="#1A1D24" points="370.7193,723.0388,374.7193,733.0388,378.7193,723.0388,374.7193,727.0388" style="stroke:#1A1D24;stroke-width:1;stroke-linejoin:miter;stroke-miterlimit:10;"/><line style="stroke:#1A1D24;stroke-width:1;" x1="374.7193" x2="374.7193" y1="713.0388" y2="753.0388"/><line style="stroke:#1A1D24;stroke-width:1;" x1="374.7193" x2="482.089" y1="753.0388" y2="753.0388"/><polygon fill="#1A1D24" points="472.089,749.0388,482.089,753.0388,472.089,757.0388,476.089,753.0388" style="stroke:#1A1D24;stroke-width:1;stroke-linejoin:miter;stroke-miterlimit:10;"/><line style="stroke:#1A1D24;stroke-width:1;" x1="603.4587" x2="613.4587" y1="713.0388" y2="713.0388"/><polygon fill="#1A1D24" points="609.4587,723.0388,613.4587,733.0388,617.4587,723.0388,613.4587,727.0388" style="stroke:#1A1D24;stroke-width:1;stroke-linejoin:miter;stroke-miterlimit:10;"/><line style="stroke:#1A1D24;stroke-width:1;" x1="613.4587" x2="613.4587" y1="713.0388" y2="753.0388"/><line style="stroke:#1A1D24;stroke-width:1;" x1="613.4587" x2="506.089" y1="753.0388" y2="753.0388"/><polygon fill="#1A1D24" points="516.089,749.0388,506.089,753.0388,516.089,757.0388,512.089,753.0388" style="stroke:#1A1D24;stroke-width:1;stroke-linejoin:miter;stroke-miterlimit:10;"/><line style="stroke:#1A1D24;stroke-width:1;" x1="494.089" x2="494.089" y1="608.427" y2="701.0388"/><polygon fill="#1A1D24" points="490.089,691.0388,494.089,701.0388,498.089,691.0388,494.089,695.0388" style="stroke:#1A1D24;stroke-width:1;stroke-linejoin:miter;stroke-miterlimit:10;"/><line style="stroke:#1A1D24;stroke-width:1;" x1="494.089" x2="494.089" y1="765.0388" y2="785.0388"/><polygon fill="#1A1D24" points="490.089,775.0388,494.089,785.0388,498.089,775.0388,494.089,779.0388" style="stroke:#1A1D24;stroke-width:1;stroke-linejoin:miter;stroke-miterlimit:10;"/><line style="stroke:#1A1D24;stroke-width:1;" x1="494.089" x2="494.089" y1="878.0835" y2="903.3447"/><polygon fill="#1A1D24" points="490.089,893.3447,494.089,903.3447,498.089,893.3447,494.089,897.3447" style="stroke:#1A1D24;stroke-width:1;stroke-linejoin:miter;stroke-miterlimit:10;"/><line style="stroke:#1A1D24;stroke-width:1;" x1="560.8632" x2="590.1183" y1="866.0835" y2="866.0835"/><polygon fill="#1A1D24" points="586.1183,925.1282,590.1183,935.1282,594.1183,925.1282,590.1183,929.1282" style="stroke:#1A1D24;stroke-width:1;stroke-linejoin:miter;stroke-miterlimit:10;"/><line style="stroke:#1A1D24;stroke-width:1;" x1="590.1183" x2="590.1183" y1="866.0835" y2="999.8989"/><line style="stroke:#1A1D24;stroke-width:1;" x1="590.1183" x2="506.089" y1="999.8989" y2="999.8989"/><polygon fill="#1A1D24" points="516.089,995.8989,506.089,999.8989,516.089,1003.8989,512.089,999.8989" style="stroke:#1A1D24;stroke-width:1;stroke-linejoin:miter;stroke-miterlimit:10;"/><line style="stroke:#1A1D24;stroke-width:1;" x1="494.089" x2="494.089" y1="952.3894" y2="987.8989"/><polygon fill="#1A1D24" points="490.089,977.8989,494.089,987.8989,498.089,977.8989,494.089,981.8989" style="stroke:#1A1D24;stroke-width:1;stroke-linejoin:miter;stroke-miterlimit:10;"/><line style="stroke:#1A1D24;stroke-width:1;" x1="494.089" x2="494.089" y1="834.0835" y2="854.0835"/><polygon fill="#1A1D24" points="490.089,844.0835,494.089,854.0835,498.089,844.0835,494.089,848.0835" style="stroke:#1A1D24;stroke-width:1;stroke-linejoin:miter;stroke-miterlimit:10;"/><line style="stroke:#1A1D24;stroke-width:1;" x1="443.219" x2="443.219" y1="1210.7271" y2="1245.7271"/><polygon fill="#1A1D24" points="439.219,1235.7271,443.219,1245.7271,447.219,1235.7271,443.219,1239.7271" style="stroke:#1A1D24;stroke-width:1;stroke-linejoin:miter;stroke-miterlimit:10;"/><line style="stroke:#1A1D24;stroke-width:1;" x1="443.219" x2="443.219" y1="1150.9436" y2="1176.2048"/><polygon fill="#1A1D24" points="439.219,1166.2048,443.219,1176.2048,447.219,1166.2048,443.219,1170.2048" style="stroke:#1A1D24;stroke-width:1;stroke-linejoin:miter;stroke-miterlimit:10;"/><line style="stroke:#1A1D24;stroke-width:1;" x1="480.6672" x2="515.8029" y1="1138.9436" y2="1138.9436"/><polygon fill="#1A1D24" points="511.8029,1218.2271,515.8029,1228.2271,519.8029,1218.2271,515.8029,1222.2271" style="stroke:#1A1D24;stroke-width:1;stroke-linejoin:miter;stroke-miterlimit:10;"/><line style="stroke:#1A1D24;stroke-width:1;" x1="515.8029" x2="515.8029" y1="1138.9436" y2="1312.2495"/><line style="stroke:#1A1D24;stroke-width:1;" x1="515.8029" x2="455.219" y1="1312.2495" y2="1312.2495"/><polygon fill="#1A1D24" points="465.219,1308.2495,455.219,1312.2495,465.219,1316.2495,461.219,1312.2495" style="stroke:#1A1D24;stroke-width:1;stroke-linejoin:miter;stroke-miterlimit:10;"/><line style="stroke:#1A1D24;stroke-width:1;" x1="443.219" x2="443.219" y1="1280.2495" y2="1300.2495"/><polygon fill="#1A1D24" points="439.219,1290.2495,443.219,1300.2495,447.219,1290.2495,443.219,1294.2495" style="stroke:#1A1D24;stroke-width:1;stroke-linejoin:miter;stroke-miterlimit:10;"/><line style="stroke:#1A1D24;stroke-width:1;" x1="443.219" x2="443.219" y1="1106.9436" y2="1126.9436"/><polygon fill="#1A1D24" points="439.219,1116.9436,443.219,1126.9436,447.219,1116.9436,443.219,1120.9436" style="stroke:#1A1D24;stroke-width:1;stroke-linejoin:miter;stroke-miterlimit:10;"/><line style="stroke:#1A1D24;stroke-width:1;" x1="654.5478" x2="654.5478" y1="1210.7271" y2="1245.7271"/><polygon fill="#1A1D24" points="650.5478,1235.7271,654.5478,1245.7271,658.5478,1235.7271,654.5478,1239.7271" style="stroke:#1A1D24;stroke-width:1;stroke-linejoin:miter;stroke-miterlimit:10;"/><line style="stroke:#1A1D24;stroke-width:1;" x1="654.5478" x2="654.5478" y1="1150.9436" y2="1176.2048"/><polygon fill="#1A1D24" points="650.5478,1166.2048,654.5478,1176.2048,658.5478,1166.2048,654.5478,1170.2048" style="stroke:#1A1D24;stroke-width:1;stroke-linejoin:miter;stroke-miterlimit:10;"/><line style="stroke:#1A1D24;stroke-width:1;" x1="723.035" x2="749.8953" y1="1138.9436" y2="1138.9436"/><polygon fill="#1A1D24" points="745.8953,1218.2271,749.8953,1228.2271,753.8953,1218.2271,749.8953,1222.2271" style="stroke:#1A1D24;stroke-width:1;stroke-linejoin:miter;stroke-miterlimit:10;"/><line style="stroke:#1A1D24;stroke-width:1;" x1="749.8953" x2="749.8953" y1="1138.9436" y2="1312.2495"/><line style="stroke:#1A1D24;stroke-width:1;" x1="749.8953" x2="666.5478" y1="1312.2495" y2="1312.2495"/><polygon fill="#1A1D24" points="676.5478,1308.2495,666.5478,1312.2495,676.5478,1316.2495,672.5478,1312.2495" style="stroke:#1A1D24;stroke-width:1;stroke-linejoin:miter;stroke-miterlimit:10;"/><line style="stroke:#1A1D24;stroke-width:1;" x1="654.5478" x2="654.5478" y1="1280.2495" y2="1300.2495"/><polygon fill="#1A1D24" points="650.5478,1290.2495,654.5478,1300.2495,658.5478,1290.2495,654.5478,1294.2495" style="stroke:#1A1D24;stroke-width:1;stroke-linejoin:miter;stroke-miterlimit:10;"/><line style="stroke:#1A1D24;stroke-width:1;" x1="654.5478" x2="654.5478" y1="1106.9436" y2="1126.9436"/><polygon fill="#1A1D24" points="650.5478,1116.9436,654.5478,1126.9436,658.5478,1116.9436,654.5478,1120.9436" style="stroke:#1A1D24;stroke-width:1;stroke-linejoin:miter;stroke-miterlimit:10;"/><line style="stroke:#1A1D24;stroke-width:1;" x1="281.2645" x2="281.2645" y1="1037.8989" y2="1168.9436"/><polygon fill="#1A1D24" points="277.2645,1158.9436,281.2645,1168.9436,285.2645,1158.9436,281.2645,1162.9436" style="stroke:#1A1D24;stroke-width:1;stroke-linejoin:miter;stroke-miterlimit:10;"/><line style="stroke:#1A1D24;stroke-width:1;" x1="443.219" x2="443.219" y1="1037.8989" y2="1057.8989"/><polygon fill="#1A1D24" points="439.219,1047.8989,443.219,1057.8989,447.219,1047.8989,443.219,1051.8989" style="stroke:#1A1D24;stroke-width:1;stroke-linejoin:miter;stroke-miterlimit:10;"/><line style="stroke:#1A1D24;stroke-width:1;" x1="654.5478" x2="654.5478" y1="1037.8989" y2="1057.8989"/><polygon fill="#1A1D24" points="650.5478,1047.8989,654.5478,1057.8989,658.5478,1047.8989,654.5478,1051.8989" style="stroke:#1A1D24;stroke-width:1;stroke-linejoin:miter;stroke-miterlimit:10;"/><line style="stroke:#1A1D24;stroke-width:1;" x1="281.2645" x2="281.2645" y1="1203.4659" y2="1344.2495"/><polygon fill="#1A1D24" points="277.2645,1334.2495,281.2645,1344.2495,285.2645,1334.2495,281.2645,1338.2495" style="stroke:#1A1D24;stroke-width:1;stroke-linejoin:miter;stroke-miterlimit:10;"/><line style="stroke:#1A1D24;stroke-width:1;" x1="443.219" x2="443.219" y1="1324.2495" y2="1344.2495"/><polygon fill="#1A1D24" points="439.219,1334.2495,443.219,1344.2495,447.219,1334.2495,443.219,1338.2495" style="stroke:#1A1D24;stroke-width:1;stroke-linejoin:miter;stroke-miterlimit:10;"/><line style="stroke:#1A1D24;stroke-width:1;" x1="654.5478" x2="654.5478" y1="1324.2495" y2="1344.2495"/><polygon fill="#1A1D24" points="650.5478,1334.2495,654.5478,1344.2495,658.5478,1334.2495,654.5478,1338.2495" style="stroke:#1A1D24;stroke-width:1;stroke-linejoin:miter;stroke-miterlimit:10;"/><line style="stroke:#1A1D24;stroke-width:1;" x1="494.089" x2="494.089" y1="1011.8989" y2="1031.8989"/><polygon fill="#1A1D24" points="490.089,1021.8989,494.089,1031.8989,498.089,1021.8989,494.089,1025.8989" style="stroke:#1A1D24;stroke-width:1;stroke-linejoin:miter;stroke-miterlimit:10;"/><line style="stroke:#1A1D24;stroke-width:1;" x1="317.5669" x2="317.5669" y1="1394.2495" y2="1428.7718"/><polygon fill="#1A1D24" points="313.5669,1418.7718,317.5669,1428.7718,321.5669,1418.7718,317.5669,1422.7718" style="stroke:#1A1D24;stroke-width:1;stroke-linejoin:miter;stroke-miterlimit:10;"/><line style="stroke:#1A1D24;stroke-width:1;" x1="317.5669" x2="317.5669" y1="1463.2942" y2="1486.2942"/><polygon fill="#1A1D24" points="313.5669,1476.2942,317.5669,1486.2942,321.5669,1476.2942,317.5669,1480.2942" style="stroke:#1A1D24;stroke-width:1;stroke-linejoin:miter;stroke-miterlimit:10;"/><line style="stroke:#1A1D24;stroke-width:1;" x1="481.5439" x2="481.5439" y1="1394.2495" y2="1428.7718"/><polygon fill="#1A1D24" points="477.5439,1418.7718,481.5439,1428.7718,485.5439,1418.7718,481.5439,1422.7718" style="stroke:#1A1D24;stroke-width:1;stroke-linejoin:miter;stroke-miterlimit:10;"/><line style="stroke:#1A1D24;stroke-width:1;" x1="481.5439" x2="481.5439" y1="1463.2942" y2="1486.2942"/><polygon fill="#1A1D24" points="477.5439,1476.2942,481.5439,1486.2942,485.5439,1476.2942,481.5439,1480.2942" style="stroke:#1A1D24;stroke-width:1;stroke-linejoin:miter;stroke-miterlimit:10;"/><line style="stroke:#1A1D24;stroke-width:1;" x1="364.3132" x2="437.0816" y1="1382.2495" y2="1382.2495"/><polygon fill="#1A1D24" points="427.0816,1378.2495,437.0816,1382.2495,427.0816,1386.2495,431.0816,1382.2495" style="stroke:#1A1D24;stroke-width:1;stroke-linejoin:miter;stroke-miterlimit:10;"/><line style="stroke:#1A1D24;stroke-width:1;" x1="494.089" x2="494.089" y1="1350.2495" y2="1355.2495"/><line style="stroke:#1A1D24;stroke-width:1;" x1="494.089" x2="317.5669" y1="1355.2495" y2="1355.2495"/><line style="stroke:#1A1D24;stroke-width:1;" x1="317.5669" x2="317.5669" y1="1355.2495" y2="1370.2495"/><polygon fill="#1A1D24" points="313.5669,1360.2495,317.5669,1370.2495,321.5669,1360.2495,317.5669,1364.2495" style="stroke:#1A1D24;stroke-width:1;stroke-linejoin:miter;stroke-miterlimit:10;"/><line style="stroke:#1A1D24;stroke-width:1;" x1="526.0061" x2="658.066" y1="1382.2495" y2="1382.2495"/><line style="stroke:#1A1D24;stroke-width:1;" x1="658.066" x2="658.066" y1="1382.2495" y2="1417.2495"/><polygon fill="#1A1D24" points="654.066,1407.2495,658.066,1417.2495,662.066,1407.2495,658.066,1411.2495" style="stroke:#1A1D24;stroke-width:1;stroke-linejoin:miter;stroke-miterlimit:10;"/><line style="stroke:#1A1D24;stroke-width:1;" x1="658.066" x2="658.066" y1="1466.2942" y2="1486.2942"/><polygon fill="#1A1D24" points="654.066,1476.2942,658.066,1486.2942,662.066,1476.2942,658.066,1480.2942" style="stroke:#1A1D24;stroke-width:1;stroke-linejoin:miter;stroke-miterlimit:10;"/><line style="stroke:#1A1D24;stroke-width:1;" x1="317.5669" x2="658.066" y1="1486.2942" y2="1486.2942"/><line style="stroke:#1A1D24;stroke-width:1;" x1="102.0293" x2="102.0293" y1="271.9752" y2="306.4976"/><polygon fill="#1A1D24" points="98.0293,296.4976,102.0293,306.4976,106.0293,296.4976,102.0293,300.4976" style="stroke:#1A1D24;stroke-width:1;stroke-linejoin:miter;stroke-miterlimit:10;"/><line style="stroke:#1A1D24;stroke-width:1;" x1="102.0293" x2="102.0293" y1="355.5423" y2="1506.2942"/><polygon fill="#1A1D24" points="98.0293,1496.2942,102.0293,1506.2942,106.0293,1496.2942,102.0293,1500.2942" style="stroke:#1A1D24;stroke-width:1;stroke-linejoin:miter;stroke-miterlimit:10;"/><text fill="#000000" font-family="'Inter, Helvetica, sans-serif'" font-size="12" lengthAdjust="spacing" textLength="63.9529" x="106.0293" y="975.4118">unavailable</text><line style="stroke:#1A1D24;stroke-width:1;" x1="494.089" x2="494.089" y1="271.9752" y2="291.9752"/><polygon fill="#1A1D24" points="490.089,281.9752,494.089,291.9752,498.089,281.9752,494.089,285.9752" style="stroke:#1A1D24;stroke-width:1;stroke-linejoin:miter;stroke-miterlimit:10;"/><line style="stroke:#1A1D24;stroke-width:1;" x1="494.089" x2="494.089" y1="1486.2942" y2="1506.2942"/><polygon fill="#1A1D24" points="490.089,1496.2942,494.089,1506.2942,498.089,1496.2942,494.089,1500.2942" style="stroke:#1A1D24;stroke-width:1;stroke-linejoin:miter;stroke-miterlimit:10;"/><line style="stroke:#1A1D24;stroke-width:1;" x1="137.8668" x2="385.4693" y1="259.9752" y2="259.9752"/><polygon fill="#1A1D24" points="375.4693,255.9752,385.4693,259.9752,375.4693,263.9752,379.4693,259.9752" style="stroke:#1A1D24;stroke-width:1;stroke-linejoin:miter;stroke-miterlimit:10;"/><line style="stroke:#1A1D24;stroke-width:1;" x1="421.5143" x2="421.5143" y1="227.9752" y2="232.9752"/><line style="stroke:#1A1D24;stroke-width:1;" x1="421.5143" x2="102.0293" y1="232.9752" y2="232.9752"/><line style="stroke:#1A1D24;stroke-width:1;" x1="102.0293" x2="102.0293" y1="232.9752" y2="247.9752"/><polygon fill="#1A1D24" points="98.0293,237.9752,102.0293,247.9752,106.0293,237.9752,102.0293,241.9752" style="stroke:#1A1D24;stroke-width:1;stroke-linejoin:miter;stroke-miterlimit:10;"/><line style="stroke:#1A1D24;stroke-width:1;" x1="602.7087" x2="791.0287" y1="259.9752" y2="259.9752"/><line style="stroke:#1A1D24;stroke-width:1;" x1="791.0287" x2="791.0287" y1="259.9752" y2="909.0388"/><line style="stroke:#1A1D24;stroke-width:1;" x1="791.0287" x2="791.0287" y1="909.0388" y2="1506.2942"/><polygon fill="#1A1D24" points="787.0287,1496.2942,791.0287,1506.2942,795.0287,1496.2942,791.0287,1500.2942" style="stroke:#1A1D24;stroke-width:1;stroke-linejoin:miter;stroke-miterlimit:10;"/><text fill="#000000" font-family="'Inter, Helvetica, sans-serif'" font-size="12" lengthAdjust="spacing" textLength="56.3338" x="795.0287" y="1271.0236">measured</text><line style="stroke:#1A1D24;stroke-width:1;" x1="102.0293" x2="791.0287" y1="1506.2942" y2="1506.2942"/><line style="stroke:#1A1D24;stroke-width:1;" x1="421.5143" x2="421.5143" y1="1506.2942" y2="1526.2942"/><polygon fill="#1A1D24" points="417.5143,1516.2942,421.5143,1526.2942,425.5143,1516.2942,421.5143,1520.2942" style="stroke:#1A1D24;stroke-width:1;stroke-linejoin:miter;stroke-miterlimit:10;"/><line style="stroke:#1A1D24;stroke-width:1;" x1="421.5143" x2="421.5143" y1="1575.3389" y2="1595.3389"/><polygon fill="#1A1D24" points="417.5143,1585.3389,421.5143,1595.3389,425.5143,1585.3389,421.5143,1589.3389" style="stroke:#1A1D24;stroke-width:1;stroke-linejoin:miter;stroke-miterlimit:10;"/><line style="stroke:#1A1D24;stroke-width:1;" x1="421.5143" x2="421.5143" y1="1622.3389" y2="1637.3389"/><polygon fill="#1A1D24" points="417.5143,1627.3389,421.5143,1637.3389,425.5143,1627.3389,421.5143,1631.3389" style="stroke:#1A1D24;stroke-width:1;stroke-linejoin:miter;stroke-miterlimit:10;"/><line style="stroke:#1A1D24;stroke-width:1;" x1="421.5143" x2="421.5143" y1="1686.3836" y2="1706.3836"/><polygon fill="#1A1D24" points="417.5143,1696.3836,421.5143,1706.3836,425.5143,1696.3836,421.5143,1700.3836" style="stroke:#1A1D24;stroke-width:1;stroke-linejoin:miter;stroke-miterlimit:10;"/><line style="stroke:#1A1D24;stroke-width:1;" x1="421.5143" x2="421.5143" y1="1769.9507" y2="1789.9507"/><polygon fill="#1A1D24" points="417.5143,1779.9507,421.5143,1789.9507,425.5143,1779.9507,421.5143,1783.9507" style="stroke:#1A1D24;stroke-width:1;stroke-linejoin:miter;stroke-miterlimit:10;"/><line style="stroke:#1A1D24;stroke-width:1;" x1="421.5143" x2="421.5143" y1="1838.9954" y2="1940.6072"/><polygon fill="#1A1D24" points="417.5143,1930.6072,421.5143,1940.6072,425.5143,1930.6072,421.5143,1934.6072" style="stroke:#1A1D24;stroke-width:1;stroke-linejoin:miter;stroke-miterlimit:10;"/><?plantuml-src fLPDRnit4BtlhvZw8icLv2J75TeYRfn2Y1m7_a2AGe13xSvg2LFaWkHALWm3lVLUz1Vcb_IHkrBMTeAaw4a2EHzltimyxWzIPwhEcSRZe-lslpjoVgjuBEkLIX8llM9wcNcvbdvBd_xyXvpG-SBSqerKYYhXIqVzTsSNqzy7SxqfXQT2IEN8bqp2ERQUrexYnTh8lBbOiN2rvHLhdoGzUYMTM2taiXQU6uFNPrVdP65bj2DRwtTRNnfzoSwx_W0NlhQukAkG8Is4SdoFCEl65r3shjBZo9gDeui6zfKMQ-0J2vH8bx0kZ5sn9Ub880Jy56Mbi2BpREL7uQNHvEHIuxmVePkSLSzHXb_APQvxdZR6tWmc8Jb2AE5z4_1WmvI9OE1jxG8I77PAFw1FV_rDLszFJrvUN9sVl1edYVF2-YJj8E3pMcl4MzHIvMwkGKPR2ZaMgqcImaVQJ3WUyrgemE7KymgPbNfWtxyBc6T2BuSH_P1yuFD-C4aIMQ29rgnbpdOG2j7Klz9E5Dmw3nAYD5Bv1IRdkdzWAZ-IcanH720WqUXdgZzRJ196as8Mu-Jjhe8ZUYzrZlPqiWIZ0gTKnPxJsPjVTeYq2GRV0A9DwzdWU8g4Y7KkYpRLwYO7MnNzI1ihFR-McFV_chADSO1w3cAKxqiTjoP56xrLSeLHTNMMCMD7G6HMejzFO6ZZcQnSbfvIQht2lc6YWfT3_-Rjif2mZCbL63IrfR0fd4_cEinmdFBM3Kbj8J9suSgQUbdI-MnwEhsyVdqn_UE4Vg9dSsritAmDHcgKAPFTa9VOcd6deDHLOjF2HcaDXD6KHXSqEXxETSvUP2MZhKjR3GbqGKzOhoDJWOt6dwr5Cbu3zRxuBRllQ4B7_zlqO-jlcf3lHQ0GEJ-WCCSV9kqjYQMGUcVpi6wa2x-czgUESYv4hJmzVqQkpHlAEL6Y0kDFYq2y89tzKRMK-H1gzTkRwMpMUkAoaIxmtcjpz9ghBlGkkBFQLpKqI7ZG6w2jn6rpThmDShh7HwV77NoN9KQcD6WM4eR6_1-a9kORcJNRGfdD8yJutH4UcRa5ur4-dtsXnOssjz8EtUJxsBTMFTu03sPeiQNQVSCtFWl3zYNO1w6-WPV58kdHHxRcwvwGpkYQzXY0Ht08zhtxxXXXm5ezpw5myJ31hB7Q7oTf56FBcR4va6-aB-Vw3fhjQvV6jJmAcuYmpfjgvzuPsoJz5UC7oFszq0yWxg7RsDcdkp1vd5AupmbxjTuXwtKgRD_qKHLgqCjGP3fZKP3YmYC0BQpGMKcLbIQCsAldBuQ4HWDLPdG1rT4P3tObO0JmRkfberOX1AWwFDmbFZmCtn4uEZzvEUk-X-qxcqQ2yVWvSYY1tNN5zbe5E6ifS7aCAHdDHAKWMzIFolRP9WoPpfg0A1v34mm6uz2U2EYh-3gSxo6-FRiayG1ZS_ueQNZjOOeBR-geSdsZeRhDvmHaUk5mbvaQ0RpP29lZCmeJ5pylkjZ-1G00?></g></svg>