<svg xmlns="http://www.w3.org/2000/svg" xmlns:xlink="http://www.w3.org/1999/xlink" contentStyleType="text/css" data-diagram-type="DESCRIPTION" height="503px" preserveAspectRatio="none" style="width:1024px;height:503px;background:#F4EEE3;" version="1.1" viewBox="0 0 1024 503" width="1024px" zoomAndPan="magnify"><?plantuml 1.2026.4?><defs/><g><rect fill="#F4EEE3" height="503" style="stroke:none;stroke-width:1;" width="1024" x="0" y="0"/><g class="title" data-source-line="13"><text fill="#000000" font-family="'Inter, Helvetica, sans-serif'" font-size="14" font-weight="700" lengthAdjust="spacing" textLength="162.807" x="427.0965" y="23.5623">Maestria &#8212; C4 Context</text></g><!--cluster MCP--><g class="cluster" data-qualified-name="MCP" data-source-line="18" id="ent0003"><rect fill="#F4EEE3" height="284" rx="4" ry="4" style="stroke:#C68A3A;stroke-width:1;" width="257" x="753" y="44.9429"/><text fill="#C68A3A" font-family="'Inter, Helvetica, sans-serif'" font-size="10" font-style="italic" lengthAdjust="spacing" textLength="44.9872" x="859.0064" y="56.6307">&#171;system&#187;</text><text fill="#000000" font-family="'Inter, Helvetica, sans-serif'" font-size="12" font-weight="700" lengthAdjust="spacing" textLength="123.6618" x="819.6691" y="70.6702">External MCP clients</text></g><!--entity MCP_CC--><g class="entity" data-qualified-name="MCP.MCP_CC" data-source-line="19" id="ent0004"><rect fill="#F1F1F1" height="34.5224" rx="4" ry="4" style="stroke:#181818;stroke-width:0.5;" width="93.447" x="796.5" y="97.9429"/><text fill="#000000" font-family="'Inter, Helvetica, sans-serif'" font-size="12" lengthAdjust="spacing" textLength="73.447" x="806.5" y="119.5676">Claude Code</text></g><!--entity MCP_CUR--><g class="entity" data-qualified-name="MCP.MCP_CUR" data-source-line="20" id="ent0005"><rect fill="#F1F1F1" height="34.5224" rx="4" ry="4" style="stroke:#181818;stroke-width:0.5;" width="58.0615" x="925" y="97.9429"/><text fill="#000000" font-family="'Inter, Helvetica, sans-serif'" font-size="12" lengthAdjust="spacing" textLength="38.0615" x="935" y="119.5676">Cursor</text></g><!--entity MCP_DF--><g class="entity" data-qualified-name="MCP.MCP_DF" data-source-line="21" id="ent0006"><rect fill="#F1F1F1" height="34.5224" rx="4" ry="4" style="stroke:#181818;stroke-width:0.5;" width="75.4986" x="785.5" y="269.9429"/><text fill="#000000" font-family="'Inter, Helvetica, sans-serif'" font-size="12" lengthAdjust="spacing" textLength="55.4986" x="795.5" y="291.5676">deer-flow</text></g><!--entity MCP_SH--><g class="entity" data-qualified-name="MCP.MCP_SH" data-source-line="22" id="ent0007"><rect fill="#F1F1F1" height="34.5224" rx="4" ry="4" style="stroke:#181818;stroke-width:0.5;" width="90.2425" x="896" y="269.9429"/><text fill="#000000" font-family="'Inter, Helvetica, sans-serif'" font-size="12" lengthAdjust="spacing" textLength="70.2425" x="906" y="291.5676">scripts / curl</text></g><!--entity USER--><g class="entity" data-qualified-name="USER" data-source-line="15" id="ent0001"><ellipse cx="404.073" cy="86.4429" fill="#FFFFFF" rx="8" ry="8" style="stroke:#0E1014;stroke-width:0.5;"/><path d="M404.073,94.4429 L404.073,121.4429 M391.073,102.4429 L417.073,102.4429 M404.073,121.4429 L391.073,136.4429 M404.073,121.4429 L417.073,136.4429" fill="none" style="stroke:#0E1014;stroke-width:0.5;"/><text fill="#000000" font-family="'Inter, Helvetica, sans-serif'" font-size="12" lengthAdjust="spacing" textLength="68.146" x="370" y="149.5676">Human user</text></g><!--entity SYS--><g class="entity" data-qualified-name="SYS" data-source-line="16" id="ent0002"><rect fill="#FFFDF6" height="58.7276" rx="4" ry="4" style="stroke:#181818;stroke-width:0.5;" width="182.9027" x="404.5" y="257.9429"/><text fill="#000000" font-family="'Inter, Helvetica, sans-serif'" font-size="12" font-weight="700" lengthAdjust="spacing" textLength="52.1408" x="414.5" y="279.5676">Maestria</text><text fill="#000000" font-family="'Inter, Helvetica, sans-serif'" font-size="10" lengthAdjust="spacing" textLength="162.9027" x="414.5" y="292.153">local AI-model browser &amp; manager</text><text fill="#000000" font-family="'Inter, Helvetica, sans-serif'" font-size="10" lengthAdjust="spacing" textLength="146.6949" x="414.5" y="304.2557">AGPL-3.0, offline, no telemetry</text></g><!--entity LLAMA--><g class="entity" data-qualified-name="LLAMA" data-source-line="24" id="ent0008"><rect fill="#F1F1F1" height="61.1474" rx="4" ry="4" style="stroke:#181818;stroke-width:0.5;" width="150.2751" x="7" y="421.4429"/><text fill="#000000" font-family="'Inter, Helvetica, sans-serif'" font-size="10" font-style="italic" lengthAdjust="spacing" textLength="44.9872" x="59.644" y="441.1307">&#171;system&#187;</text><text fill="#000000" font-family="'Inter, Helvetica, sans-serif'" font-size="12" lengthAdjust="spacing" textLength="54.2884" x="17" y="455.1702">llama.cpp</text><text fill="#000000" font-family="'Inter, Helvetica, sans-serif'" font-size="12" lengthAdjust="spacing" textLength="130.2751" x="17" y="469.6926">(`llama-server` binary)</text></g><!--entity FS--><g class="entity" data-qualified-name="FS" data-source-line="25" id="ent0009"><rect fill="#F1F1F1" height="75.6697" rx="4" ry="4" style="stroke:#181818;stroke-width:0.5;" width="161.1498" x="415.5" y="413.9429"/><text fill="#000000" font-family="'Inter, Helvetica, sans-serif'" font-size="10" font-style="italic" lengthAdjust="spacing" textLength="46.9332" x="472.6083" y="433.6307">&#171;storage&#187;</text><text fill="#000000" font-family="'Inter, Helvetica, sans-serif'" font-size="12" lengthAdjust="spacing" textLength="88.0205" x="425.5" y="447.6702">User filesystem</text><text fill="#000000" font-family="'Inter, Helvetica, sans-serif'" font-size="12" lengthAdjust="spacing" textLength="141.1498" x="425.5" y="462.1926">(D:\models, .ts/ sidecars,</text><text fill="#000000" font-family="'Inter, Helvetica, sans-serif'" font-size="12" lengthAdjust="spacing" textLength="128.4513" x="425.5" y="476.7149">/.tagspaces/ app data)</text></g><g class="entity" data-qualified-name="GMN14" data-source-line="33" id="ent0015"><path d="M611.5,436.4429 L611.5,467.4876 A4,4 0 0 0 615.5,471.4876 L800.4161,471.4876 A4,4 0 0 0 804.4161,467.4876 L804.4161,442.4429 L794.4161,432.4429 L615.5,432.4429 A4,4 0 0 0 611.5,436.4429" fill="#FFFDF6" style="stroke:#C68A3A;stroke-width:0.5;"/><path d="M794.4161,432.4429 L794.4161,440.4429 A2,2 0 0 0 796.4161,442.4429 L804.4161,442.4429 L794.4161,432.4429" fill="#FFFDF6" style="stroke:#C68A3A;stroke-width:1;"/><text fill="#0E1014" font-family="'Inter, Helvetica, sans-serif'" font-size="12" lengthAdjust="spacing" textLength="141.61" x="617.5" y="449.0676">Nothing leaves 127.0.0.1.</text><text fill="#0E1014" font-family="'Inter, Helvetica, sans-serif'" font-size="12" lengthAdjust="spacing" textLength="171.9161" x="617.5" y="463.5899">No telemetry, no auto-update.</text></g><g class="entity" data-qualified-name="GMN17" data-source-line="38" id="ent0018"><path d="M192,421.9429 L192,447.9429 L157.3,451.9429 L192,455.9429 L192,482.0323 A4,4 0 0 0 196,486.0323 L376.1776,486.0323 A4,4 0 0 0 380.1776,482.0323 L380.1776,427.9429 L370.1776,417.9429 L196,417.9429 A4,4 0 0 0 192,421.9429" fill="#FFFDF6" style="stroke:#C68A3A;stroke-width:0.5;"/><path d="M370.1776,417.9429 L370.1776,425.9429 A2,2 0 0 0 372.1776,427.9429 L380.1776,427.9429 L370.1776,417.9429" fill="#FFFDF6" style="stroke:#C68A3A;stroke-width:0.5;"/><text fill="#0E1014" font-family="'Inter, Helvetica, sans-serif'" font-size="12" lengthAdjust="spacing" textLength="162.8481" x="198" y="434.5676">External binary, not bundled.</text><text fill="#0E1014" font-family="'Inter, Helvetica, sans-serif'" font-size="12" lengthAdjust="spacing" textLength="151.4279" x="198" y="449.0899">User installs it themselves.</text><text fill="#0E1014" font-family="'Inter, Helvetica, sans-serif'" font-size="12" lengthAdjust="spacing" textLength="167.1776" x="198" y="463.6123">Maestria detects + autotunes</text><text fill="#0E1014" font-family="'Inter, Helvetica, sans-serif'" font-size="12" lengthAdjust="spacing" textLength="79.1912" x="198" y="478.1347">per hardware.</text></g><!--link USER to SYS--><g class="link" data-entity-1="ent0001" data-entity-2="ent0002" data-link-type="dependency" data-source-line="27" id="lnk10"><path d="M393.94,153.1029 C389.75,176.0229 388.39,205.3729 401,227.9429 C407.71,239.9529 413.9028,246.927 425.2828,254.887" fill="none" id="USER-to-SYS" style="stroke:#1A1D24;stroke-width:1;"/><polygon fill="#1A1D24" points="429.38,257.7529,424.2978,249.3166,425.2828,254.887,419.7124,255.8721,429.38,257.7529" style="stroke:#1A1D24;stroke-width:1;stroke-linejoin:miter;stroke-miterlimit:10;"/><text fill="#000000" font-family="'Inter, Helvetica, sans-serif'" font-size="12" lengthAdjust="spacing" textLength="143.7918" x="402" y="195.5676">Open .gguf, characterize,</text><text fill="#000000" font-family="'Inter, Helvetica, sans-serif'" font-size="12" lengthAdjust="spacing" textLength="107.3325" x="420.2297" y="210.0899">tag, set up routing,</text><text fill="#000000" font-family="'Inter, Helvetica, sans-serif'" font-size="12" lengthAdjust="spacing" textLength="124.2411" x="411.7753" y="224.6123">open-in-browser chat</text></g><!--link SYS to LLAMA--><g class="link" data-entity-1="ent0002" data-entity-2="ent0008" data-link-type="dependency" data-source-line="28" id="lnk11"><path d="M422.06,317.0029 C356.73,342.2929 258.93,380.3129 174,413.9429 C167.92,416.3529 166.2544,417.011 159.9344,419.531" fill="none" id="SYS-to-LLAMA" style="stroke:#1A1D24;stroke-width:1;"/><polygon fill="#1A1D24" points="155.29,421.3829,165.1314,421.765,159.9344,419.531,162.1684,414.334,155.29,421.3829" style="stroke:#1A1D24;stroke-width:1;stroke-linejoin:miter;stroke-miterlimit:10;"/><text fill="#000000" font-family="'Inter, Helvetica, sans-serif'" font-size="12" lengthAdjust="spacing" textLength="120.7128" x="325" y="365.5676">Spawn child process,</text><text fill="#000000" font-family="'Inter, Helvetica, sans-serif'" font-size="12" lengthAdjust="spacing" textLength="104.2132" x="333.2498" y="380.0899">monitor PID + URL</text></g><!--link SYS to FS--><g class="link" data-entity-1="ent0002" data-entity-2="ent0009" data-link-type="dependency" data-source-line="29" id="lnk12"><path d="M496,317.1229 C496,344.0029 496,379.3329 496,408.6929" fill="none" id="SYS-to-FS" style="stroke:#1A1D24;stroke-width:1;"/><polygon fill="#1A1D24" points="496,413.6929,500,404.6929,496,408.6929,492,404.6929,496,413.6929" style="stroke:#1A1D24;stroke-width:1;stroke-linejoin:miter;stroke-miterlimit:10;"/><text fill="#000000" font-family="'Inter, Helvetica, sans-serif'" font-size="12" lengthAdjust="spacing" textLength="76.7537" x="515.7069" y="365.5676">Read models,</text><text fill="#000000" font-family="'Inter, Helvetica, sans-serif'" font-size="12" lengthAdjust="spacing" textLength="114.1675" x="497" y="380.0899">write sidecars / logs</text></g><!--link MCP to SYS--><g class="link" data-entity-1="ent0003" data-entity-2="ent0002" data-link-type="dependency" data-source-line="30" id="lnk13"><path d="M752.7959,118.4763 C752.6796,118.5063 752.5622,118.5366 752.4436,118.5672 C752.2066,118.6286 751.9651,118.6912 751.7192,118.7552 C751.2273,118.8831 750.718,119.0163 750.1915,119.1548 C748.0856,119.7089 745.7062,120.3477 743.0841,121.0707 C732.5956,123.9629 718.2238,128.2041 701.9375,133.7729 C669.365,144.9104 629.135,161.3579 597,182.9429 C588.48,188.6629 553.0784,225.6534 526.1184,254.2734" fill="none" id="MCP-to-SYS" style="stroke:#1A1D24;stroke-width:1;"/><polygon fill="#1A1D24" points="522.69,257.9129,531.7727,254.1045,526.1184,254.2734,525.9495,248.619,522.69,257.9129" style="stroke:#1A1D24;stroke-width:1;stroke-linejoin:miter;stroke-miterlimit:10;"/><text fill="#000000" font-family="'Inter, Helvetica, sans-serif'" font-size="12" lengthAdjust="spacing" textLength="170.5695" x="598" y="195.5676">HTTP+SSE on 127.0.0.1:41541</text><text fill="#000000" font-family="'Inter, Helvetica, sans-serif'" font-size="12" lengthAdjust="spacing" textLength="106.9916" x="629.7889" y="210.0899">Bearer-token auth,</text><text fill="#000000" font-family="'Inter, Helvetica, sans-serif'" font-size="12" lengthAdjust="spacing" textLength="51.2373" x="657.6661" y="224.6123">tools/call</text></g><!--link SYS to GMN14--><g class="link" data-entity-1="ent0002" data-entity-2="ent0015" data-link-type="association" data-source-line="33" id="lnk16"><path d="M561.74,317.1029 C581.38,327.0929 602.36,339.2629 620,352.9429 C650.18,376.3329 678.43,410.9129 694.43,432.1229" fill="none" id="SYS-GMN14" style="stroke:#1A1D24;stroke-width:1;stroke-dasharray:7,7;"/></g><?plantuml-src TPFTRjf048Nlzoccz89M5Kv9KI-Y28auM5GoRSI2r5wXnHvWnRABrkCGKbNgG_G9-oITDOIV1kviptVEp9nTlz4sCsME44LNuzrpSLNGnc2aowKHeWvtpfO5_Ftz1-8MnCuIFX7aMisyMaRGqxCvUb26D0KZcYiBhlIGkUNAMRG4ZnhNDspKLrYGrmfK0GecHcKBcBWd-03uY7u3x8lUAWF5fY1SWYOWLsPpB29HP_sxdh9vmpjZCA_cMIEeHwTpRehWfbETQLR7hSQ3KPP6_HICddZ5reLZc2roP-i4sf9tUPcn72pIsla5x9QFtWjHBBHTATuEF6QaxCmW_1G0aiT3HviL9fo2rCy8pO_Ybn2yEYDoE1Z7hNZuVJpyCaoxGgYCd8VQuVj8TWUri7ru40Vp8qJ-aEEqSzTDAuxVu6sI9FV9Pt6UxySFB_pjxJQtTZj8kL0DVQIAZGed5BiSQpja7CV_CQKld3-KHuFJUexe6rFZrdlaFZabJcUJlJqeUvpLMJ1DE_tE-JMgqdbL8eyadBIQuLQJI252mj1ejAi8RuxEPj1DgtC8IOjG353LvHLMdKNL_uLBv5c86uQuBxMhbkTkmZf2ll54RidNDR3XLktPhz-6tMtJveNlrm9j3i5cP-RvxwFWjPtpbMgNRFDYvVfYvTF5IkimnJy0?></g></svg>