<svg xmlns="http://www.w3.org/2000/svg" xmlns:xlink="http://www.w3.org/1999/xlink" contentStyleType="text/css" data-diagram-type="DESCRIPTION" height="1235px" preserveAspectRatio="none" style="width:1682px;height:1235px;background:#F4EEE3;" version="1.1" viewBox="0 0 1682 1235" width="1682px" zoomAndPan="magnify"><?plantuml 1.2026.4?><defs/><g><rect fill="#F4EEE3" height="1235" style="stroke:none;stroke-width:1;" width="1682" x="0" y="0"/><g class="title" data-source-line="10"><text fill="#000000" font-family="'Inter, Helvetica, sans-serif'" font-size="14" font-weight="700" lengthAdjust="spacing" textLength="284.8874" x="695.0709" y="23.5623">COMPETENCE_TREE &#8212; frozen taxonomy</text><text fill="#000000" font-family="'Inter, Helvetica, sans-serif'" font-size="14" font-weight="700" lengthAdjust="spacing" textLength="364.71" x="655.1596" y="40.5051">source: `src/shared/RoutingTypes.ts` (DRY include)</text></g><!--cluster PKG_TREE--><g class="cluster" data-qualified-name="PKG_TREE" data-source-line="10" id="ent0001"><path d="M10,60.8858 L175.0244,60.8858 A6,6 0 0 1 179.0244,64.8858 L186.0244,81.4081 L1437,81.4081 A4,4 0 0 1 1441,85.4081 L1441,1216.8858 A4,4 0 0 1 1437,1220.8858 L10,1220.8858 A4,4 0 0 1 6,1216.8858 L6,64.8858 A4,4 0 0 1 10,60.8858" fill="#F4EEE3" style="stroke:#C68A3A;stroke-width:1.5;"/><line style="stroke:#C68A3A;stroke-width:1.5;" x1="6" x2="186.0244" y1="81.4081" y2="81.4081"/><text fill="#0E1014" font-family="'Inter, Helvetica, sans-serif'" font-size="12" font-weight="700" lengthAdjust="spacing" textLength="167.0244" x="10" y="74.5105">src/shared/RoutingTypes.ts</text><text fill="#C68A3A" font-family="'Inter, Helvetica, sans-serif'" font-size="12" font-style="italic" lengthAdjust="spacing" textLength="48.6806" x="703.1597" y="95.0328">&#171;Frame&#187;</text></g><!--cluster TREE_ROOT--><g class="cluster" data-qualified-name="PKG_TREE.TREE_ROOT" data-source-line="19" id="ent0007"><rect fill="#F4EEE3" height="821" rx="4" ry="4" style="stroke:#0E1014;stroke-width:1;" width="1371" x="38" y="367.8858"/><text fill="#0E1014" font-family="'Inter, Helvetica, sans-serif'" font-size="12" font-weight="700" lengthAdjust="spacing" textLength="104.1111" x="671.4444" y="381.5105">Competence tree</text><text fill="#0E1014" font-family="'Inter, Helvetica, sans-serif'" font-size="12" font-weight="700" lengthAdjust="spacing" textLength="66.987" x="690.0065" y="396.0328">9 branches</text></g><!--cluster B_CODE--><g class="cluster" data-qualified-name="PKG_TREE.TREE_ROOT.B_CODE" data-source-line="21" id="ent0008"><rect fill="#FFFFFF" height="198" rx="4" ry="4" style="stroke:#0E1014;stroke-width:1;" width="276" x="1101" y="447.8858"/><text fill="#0E1014" font-family="'Inter, Helvetica, sans-serif'" font-size="12" font-weight="700" lengthAdjust="spacing" textLength="29.7947" x="1224.1026" y="461.5105">code</text></g><!--cluster B_MATH--><g class="cluster" data-qualified-name="PKG_TREE.TREE_ROOT.B_MATH" data-source-line="30" id="ent0015"><rect fill="#FFFFFF" height="198" rx="4" ry="4" style="stroke:#0E1014;stroke-width:1;" width="308" x="769" y="447.8858"/><text fill="#0E1014" font-family="'Inter, Helvetica, sans-serif'" font-size="12" font-weight="700" lengthAdjust="spacing" textLength="30.1527" x="907.9237" y="461.5105">math</text></g><!--cluster B_REA--><g class="cluster" data-qualified-name="PKG_TREE.TREE_ROOT.B_REA" data-source-line="38" id="ent0021"><rect fill="#FFFFFF" height="198" rx="4" ry="4" style="stroke:#0E1014;stroke-width:1;" width="213" x="532" y="447.8858"/><text fill="#0E1014" font-family="'Inter, Helvetica, sans-serif'" font-size="12" font-weight="700" lengthAdjust="spacing" textLength="59.2315" x="608.8842" y="461.5105">reasoning</text></g><!--cluster B_LANG--><g class="cluster" data-qualified-name="PKG_TREE.TREE_ROOT.B_LANG" data-source-line="44" id="ent0025"><rect fill="#FFFFFF" height="207.5" rx="4" ry="4" style="stroke:#0E1014;stroke-width:1;" width="166" x="1190" y="686.8858"/><text fill="#0E1014" font-family="'Inter, Helvetica, sans-serif'" font-size="12" font-weight="700" lengthAdjust="spacing" textLength="25.4483" x="1260.2759" y="700.5105">lang</text></g><!--cluster B_FMT--><g class="cluster" data-qualified-name="PKG_TREE.TREE_ROOT.B_FMT" data-source-line="50" id="ent0029"><rect fill="#FFFFFF" height="191.5" rx="4" ry="4" style="stroke:#0E1014;stroke-width:1;" width="259" x="899" y="694.8858"/><text fill="#0E1014" font-family="'Inter, Helvetica, sans-serif'" font-size="12" font-weight="700" lengthAdjust="spacing" textLength="39.7661" x="1008.617" y="708.5105">format</text></g><!--cluster B_LCTX--><g class="cluster" data-qualified-name="PKG_TREE.TREE_ROOT.B_LCTX" data-source-line="56" id="ent0033"><rect fill="#FFFFFF" height="84" rx="4" ry="4" style="stroke:#0E1014;stroke-width:1;" width="231" x="78" y="447.8858"/><text fill="#0E1014" font-family="'Inter, Helvetica, sans-serif'" font-size="12" font-weight="700" lengthAdjust="spacing" textLength="44.5046" x="171.2477" y="461.5105">longctx</text></g><!--cluster B_SAFE--><g class="cluster" data-qualified-name="PKG_TREE.TREE_ROOT.B_SAFE" data-source-line="61" id="ent0036"><rect fill="#FFFDF6" height="100" rx="4" ry="4" style="stroke:#0E1014;stroke-width:1;" width="159" x="341" y="439.8858"/><text fill="#0E1014" font-family="'Inter, Helvetica, sans-serif'" font-size="12" font-weight="700" lengthAdjust="spacing" textLength="37.6525" x="401.6737" y="453.5105">safety</text></g><!--cluster B_INFO--><g class="cluster" data-qualified-name="PKG_TREE.TREE_ROOT.B_INFO" data-source-line="65" id="ent0038"><rect fill="#FFFFFF" height="207.5" rx="4" ry="4" style="stroke:#0E1014;stroke-width:1;" width="302" x="565" y="686.8858"/><text fill="#0E1014" font-family="'Inter, Helvetica, sans-serif'" font-size="12" font-weight="700" lengthAdjust="spacing" textLength="67.3279" x="682.336" y="700.5105">informatics</text></g><!--cluster B_TOOLS--><g class="cluster" data-qualified-name="PKG_TREE.TREE_ROOT.B_TOOLS" data-source-line="73" id="ent0044"><rect fill="#FFFFFF" height="205.5" rx="4" ry="4" style="stroke:#0E1014;stroke-width:1;" width="274" x="1095" y="943.3858"/><text fill="#0E1014" font-family="'Inter, Helvetica, sans-serif'" font-size="12" font-weight="700" lengthAdjust="spacing" textLength="29.6754" x="1217.1623" y="957.0105">tools</text></g><!--entity BTYPE--><g class="entity" data-qualified-name="PKG_TREE.BTYPE" data-source-line="12" id="ent0002"><rect fill="#FFFFFF" height="63.5671" rx="4" ry="4" style="stroke:#0E1014;stroke-width:0.5;" width="168.7521" x="336.5" y="108.8858"/><text fill="#0E1014" font-family="'Inter, Helvetica, sans-serif'" font-size="12" font-weight="700" lengthAdjust="spacing" textLength="148.7521" x="346.5" y="130.5105">type CompetenceBranch</text><text fill="#0E1014" font-family="'Inter, Helvetica, sans-serif'" font-size="12" lengthAdjust="spacing" textLength="7.9089" x="346.5" y="145.0328">=</text><text fill="#0E1014" font-family="'Inter, Helvetica, sans-serif'" font-size="12" lengthAdjust="spacing" textLength="83.9126" x="346.5" y="159.5552">9 string literals</text></g><!--entity TREE--><g class="entity" data-qualified-name="PKG_TREE.TREE" data-source-line="13" id="ent0003"><rect fill="#FFFFFF" height="49.0447" rx="4" ry="4" style="stroke:#0E1014;stroke-width:0.5;" width="289.2432" x="22.5" y="248.8858"/><text fill="#0E1014" font-family="'Inter, Helvetica, sans-serif'" font-size="12" font-weight="700" lengthAdjust="spacing" textLength="160.6836" x="32.5" y="270.5105">const COMPETENCE_TREE</text><text fill="#0E1014" font-family="'Inter, Helvetica, sans-serif'" font-size="12" lengthAdjust="spacing" textLength="269.2432" x="32.5" y="285.0328">Record&lt;CompetenceBranch, readonly string[]&gt;</text></g><!--entity LID--><g class="entity" data-qualified-name="PKG_TREE.LID" data-source-line="14" id="ent0004"><rect fill="#FFFFFF" height="53.8858" rx="4" ry="4" style="stroke:#0E1014;stroke-width:0.5;" width="276.3609" x="25" y="113.8858"/><text fill="#0E1014" font-family="'Inter, Helvetica, sans-serif'" font-size="12" font-weight="700" lengthAdjust="spacing" textLength="144.3545" x="35" y="135.5105">type CompetenceLeafId</text><text fill="#0E1014" font-family="'Inter, Helvetica, sans-serif'" font-size="16" font-weight="700" lengthAdjust="spacing" textLength="256.3609" x="35" y="153.908">`${CompetenceBranch}.${leaf}`</text></g><!--entity L_PY--><g class="entity" data-qualified-name="PKG_TREE.TREE_ROOT.B_CODE.L_PY" data-source-line="22" id="ent0009"><rect fill="#FFFFFF" height="34.5224" rx="4" ry="4" style="stroke:#0E1014;stroke-width:0.5;" width="59.6297" x="1117" y="480.8858"/><text fill="#0E1014" font-family="'Inter, Helvetica, sans-serif'" font-size="12" lengthAdjust="spacing" textLength="39.6297" x="1127" y="502.5105">python</text></g><!--entity L_CPP--><g class="entity" data-qualified-name="PKG_TREE.TREE_ROOT.B_CODE.L_CPP" data-source-line="23" id="ent0010"><rect fill="#FFFFFF" height="34.5224" rx="4" ry="4" style="stroke:#0E1014;stroke-width:0.5;" width="41.3233" x="1212.5" y="480.8858"/><text fill="#0E1014" font-family="'Inter, Helvetica, sans-serif'" font-size="12" lengthAdjust="spacing" textLength="21.3233" x="1222.5" y="502.5105">cpp</text></g><!--entity L_SQL--><g class="entity" data-qualified-name="PKG_TREE.TREE_ROOT.B_CODE.L_SQL" data-source-line="24" id="ent0011"><rect fill="#FFFFFF" height="34.5224" rx="4" ry="4" style="stroke:#0E1014;stroke-width:0.5;" width="36.4314" x="1289" y="480.8858"/><text fill="#0E1014" font-family="'Inter, Helvetica, sans-serif'" font-size="12" lengthAdjust="spacing" textLength="16.4314" x="1299" y="502.5105">sql</text></g><!--entity L_WEB--><g class="entity" data-qualified-name="PKG_TREE.TREE_ROOT.B_CODE.L_WEB" data-source-line="25" id="ent0012"><rect fill="#FFFFFF" height="34.5224" rx="4" ry="4" style="stroke:#0E1014;stroke-width:0.5;" width="44.1869" x="1117" y="594.8858"/><text fill="#0E1014" font-family="'Inter, Helvetica, sans-serif'" font-size="12" lengthAdjust="spacing" textLength="24.1869" x="1127" y="616.5105">web</text></g><!--entity L_ALG--><g class="entity" data-qualified-name="PKG_TREE.TREE_ROOT.B_CODE.L_ALG" data-source-line="26" id="ent0013"><rect fill="#FFFFFF" height="34.5224" rx="4" ry="4" style="stroke:#0E1014;stroke-width:0.5;" width="68.4931" x="1196" y="594.8858"/><text fill="#0E1014" font-family="'Inter, Helvetica, sans-serif'" font-size="12" lengthAdjust="spacing" textLength="48.4931" x="1206" y="616.5105">algo-dur</text></g><!--entity L_GEN_C--><g class="entity" data-qualified-name="PKG_TREE.TREE_ROOT.B_CODE.L_GEN_C" data-source-line="27" id="ent0014"><rect fill="#FFFFFF" height="34.5224" rx="4" ry="4" style="stroke:#0E1014;stroke-width:0.5;" width="62.3228" x="1299" y="594.8858"/><text fill="#0E1014" font-family="'Inter, Helvetica, sans-serif'" font-size="12" lengthAdjust="spacing" textLength="42.3228" x="1309" y="616.5105">generic</text></g><!--entity L_ALG_M--><g class="entity" data-qualified-name="PKG_TREE.TREE_ROOT.B_MATH.L_ALG_M" data-source-line="31" id="ent0016"><rect fill="#FFFFFF" height="34.5224" rx="4" ry="4" style="stroke:#0E1014;stroke-width:0.5;" width="62.8171" x="785.5" y="480.8858"/><text fill="#0E1014" font-family="'Inter, Helvetica, sans-serif'" font-size="12" lengthAdjust="spacing" textLength="42.8171" x="795.5" y="502.5105">algebre</text></g><!--entity L_GEO--><g class="entity" data-qualified-name="PKG_TREE.TREE_ROOT.B_MATH.L_GEO" data-source-line="32" id="ent0017"><rect fill="#FFFFFF" height="34.5224" rx="4" ry="4" style="stroke:#0E1014;stroke-width:0.5;" width="77.544" x="884" y="480.8858"/><text fill="#0E1014" font-family="'Inter, Helvetica, sans-serif'" font-size="12" lengthAdjust="spacing" textLength="57.544" x="894" y="502.5105">geometrie</text></g><!--entity L_ANA--><g class="entity" data-qualified-name="PKG_TREE.TREE_ROOT.B_MATH.L_ANA" data-source-line="33" id="ent0018"><rect fill="#FFFFFF" height="34.5224" rx="4" ry="4" style="stroke:#0E1014;stroke-width:0.5;" width="63.3455" x="997.5" y="480.8858"/><text fill="#0E1014" font-family="'Inter, Helvetica, sans-serif'" font-size="12" lengthAdjust="spacing" textLength="43.3455" x="1007.5" y="502.5105">analyse</text></g><!--entity L_PROBA--><g class="entity" data-qualified-name="PKG_TREE.TREE_ROOT.B_MATH.L_PROBA" data-source-line="34" id="ent0019"><rect fill="#FFFFFF" height="34.5224" rx="4" ry="4" style="stroke:#0E1014;stroke-width:0.5;" width="53.1526" x="790.5" y="594.8858"/><text fill="#0E1014" font-family="'Inter, Helvetica, sans-serif'" font-size="12" lengthAdjust="spacing" textLength="33.1526" x="800.5" y="616.5105">proba</text></g><!--entity L_GEN_M--><g class="entity" data-qualified-name="PKG_TREE.TREE_ROOT.B_MATH.L_GEN_M" data-source-line="35" id="ent0020"><rect fill="#FFFFFF" height="34.5224" rx="4" ry="4" style="stroke:#0E1014;stroke-width:0.5;" width="62.3228" x="879" y="594.8858"/><text fill="#0E1014" font-family="'Inter, Helvetica, sans-serif'" font-size="12" lengthAdjust="spacing" textLength="42.3228" x="889" y="616.5105">generic</text></g><!--entity L_DED--><g class="entity" data-qualified-name="PKG_TREE.TREE_ROOT.B_REA.L_DED" data-source-line="39" id="ent0022"><rect fill="#FFFFFF" height="34.5224" rx="4" ry="4" style="stroke:#0E1014;stroke-width:0.5;" width="67.0954" x="548.5" y="480.8858"/><text fill="#0E1014" font-family="'Inter, Helvetica, sans-serif'" font-size="12" lengthAdjust="spacing" textLength="47.0954" x="558.5" y="502.5105">deductif</text></g><!--entity L_MS--><g class="entity" data-qualified-name="PKG_TREE.TREE_ROOT.B_REA.L_MS" data-source-line="40" id="ent0023"><rect fill="#FFFFFF" height="34.5224" rx="4" ry="4" style="stroke:#0E1014;stroke-width:0.5;" width="77.919" x="651" y="480.8858"/><text fill="#0E1014" font-family="'Inter, Helvetica, sans-serif'" font-size="12" lengthAdjust="spacing" textLength="57.919" x="661" y="502.5105">multi-step</text></g><!--entity L_GEN_R--><g class="entity" data-qualified-name="PKG_TREE.TREE_ROOT.B_REA.L_GEN_R" data-source-line="41" id="ent0024"><rect fill="#FFFFFF" height="34.5224" rx="4" ry="4" style="stroke:#0E1014;stroke-width:0.5;" width="62.3228" x="551" y="594.8858"/><text fill="#0E1014" font-family="'Inter, Helvetica, sans-serif'" font-size="12" lengthAdjust="spacing" textLength="42.3228" x="561" y="616.5105">generic</text></g><!--entity L_FR--><g class="entity" data-qualified-name="PKG_TREE.TREE_ROOT.B_LANG.L_FR" data-source-line="45" id="ent0026"><rect fill="#FFFFFF" height="34.5224" rx="4" ry="4" style="stroke:#0E1014;stroke-width:0.5;" width="28.7952" x="1214.5" y="727.8858"/><text fill="#0E1014" font-family="'Inter, Helvetica, sans-serif'" font-size="12" lengthAdjust="spacing" textLength="8.7952" x="1224.5" y="749.5105">fr</text></g><!--entity L_ZH--><g class="entity" data-qualified-name="PKG_TREE.TREE_ROOT.B_LANG.L_ZH" data-source-line="46" id="ent0027"><rect fill="#FFFFFF" height="34.5224" rx="4" ry="4" style="stroke:#0E1014;stroke-width:0.5;" width="33.5849" x="1279" y="727.8858"/><text fill="#0E1014" font-family="'Inter, Helvetica, sans-serif'" font-size="12" lengthAdjust="spacing" textLength="13.5849" x="1289" y="749.5105">zh</text></g><!--entity L_EN--><g class="entity" data-qualified-name="PKG_TREE.TREE_ROOT.B_LANG.L_EN" data-source-line="47" id="ent0028"><rect fill="#FFFFFF" height="34.5224" rx="4" ry="4" style="stroke:#0E1014;stroke-width:0.5;" width="34.011" x="1214" y="835.3858"/><text fill="#0E1014" font-family="'Inter, Helvetica, sans-serif'" font-size="12" lengthAdjust="spacing" textLength="14.011" x="1224" y="857.0105">en</text></g><!--entity L_JSON--><g class="entity" data-qualified-name="PKG_TREE.TREE_ROOT.B_FMT.L_JSON" data-source-line="51" id="ent0030"><rect fill="#FFFFFF" height="34.5224" rx="4" ry="4" style="stroke:#0E1014;stroke-width:0.5;" width="77.8337" x="915" y="727.8858"/><text fill="#0E1014" font-family="'Inter, Helvetica, sans-serif'" font-size="12" lengthAdjust="spacing" textLength="57.8337" x="925" y="749.5105">json-strict</text></g><!--entity L_LEN--><g class="entity" data-qualified-name="PKG_TREE.TREE_ROOT.B_FMT.L_LEN" data-source-line="52" id="ent0031"><rect fill="#FFFFFF" height="34.5224" rx="4" ry="4" style="stroke:#0E1014;stroke-width:0.5;" width="113.5431" x="1028" y="727.8858"/><text fill="#0E1014" font-family="'Inter, Helvetica, sans-serif'" font-size="12" lengthAdjust="spacing" textLength="93.5431" x="1038" y="749.5105">longueur-exacte</text></g><!--entity L_GEN_F--><g class="entity" data-qualified-name="PKG_TREE.TREE_ROOT.B_FMT.L_GEN_F" data-source-line="53" id="ent0032"><rect fill="#FFFFFF" height="34.5224" rx="4" ry="4" style="stroke:#0E1014;stroke-width:0.5;" width="62.3228" x="923" y="835.3858"/><text fill="#0E1014" font-family="'Inter, Helvetica, sans-serif'" font-size="12" lengthAdjust="spacing" textLength="42.3228" x="933" y="857.0105">generic</text></g><!--entity L_N8K--><g class="entity" data-qualified-name="PKG_TREE.TREE_ROOT.B_LCTX.L_N8K" data-source-line="57" id="ent0034"><rect fill="#FFFFFF" height="34.5224" rx="4" ry="4" style="stroke:#0E1014;stroke-width:0.5;" width="77.7315" x="215" y="480.8858"/><text fill="#0E1014" font-family="'Inter, Helvetica, sans-serif'" font-size="12" lengthAdjust="spacing" textLength="57.7315" x="225" y="502.5105">needle-8k</text></g><!--entity L_N32K--><g class="entity" data-qualified-name="PKG_TREE.TREE_ROOT.B_LCTX.L_N32K" data-source-line="58" id="ent0035"><rect fill="#FFFFFF" height="34.5224" rx="4" ry="4" style="stroke:#0E1014;stroke-width:0.5;" width="85.2313" x="94.5" y="480.8858"/><text fill="#0E1014" font-family="'Inter, Helvetica, sans-serif'" font-size="12" lengthAdjust="spacing" textLength="65.2313" x="104.5" y="502.5105">needle-32k</text></g><!--entity L_NCENS--><g class="entity" data-qualified-name="PKG_TREE.TREE_ROOT.B_SAFE.L_NCENS" data-source-line="62" id="ent0037"><rect fill="#FFFFFF" height="34.5224" rx="4" ry="4" style="stroke:#0E1014;stroke-width:0.5;" width="92.1346" x="384" y="480.8858"/><text fill="#0E1014" font-family="'Inter, Helvetica, sans-serif'" font-size="12" lengthAdjust="spacing" textLength="72.1346" x="394" y="502.5105">non-censure</text></g><!--entity L_NET--><g class="entity" data-qualified-name="PKG_TREE.TREE_ROOT.B_INFO.L_NET" data-source-line="66" id="ent0039"><rect fill="#FFFFFF" height="34.5224" rx="4" ry="4" style="stroke:#0E1014;stroke-width:0.5;" width="66.2772" x="608" y="727.8858"/><text fill="#0E1014" font-family="'Inter, Helvetica, sans-serif'" font-size="12" lengthAdjust="spacing" textLength="46.2772" x="618" y="749.5105">network</text></g><!--entity L_OS--><g class="entity" data-qualified-name="PKG_TREE.TREE_ROOT.B_INFO.L_OS" data-source-line="67" id="ent0040"><rect fill="#FFFFFF" height="34.5224" rx="4" ry="4" style="stroke:#0E1014;stroke-width:0.5;" width="33.4315" x="709.5" y="727.8858"/><text fill="#0E1014" font-family="'Inter, Helvetica, sans-serif'" font-size="12" lengthAdjust="spacing" textLength="13.4315" x="719.5" y="749.5105">os</text></g><!--entity L_SEC--><g class="entity" data-qualified-name="PKG_TREE.TREE_ROOT.B_INFO.L_SEC" data-source-line="68" id="ent0041"><rect fill="#FFFFFF" height="34.5224" rx="4" ry="4" style="stroke:#0E1014;stroke-width:0.5;" width="65.2886" x="777.5" y="727.8858"/><text fill="#0E1014" font-family="'Inter, Helvetica, sans-serif'" font-size="12" lengthAdjust="spacing" textLength="45.2886" x="787.5" y="749.5105">security</text></g><!--entity L_HW--><g class="entity" data-qualified-name="PKG_TREE.TREE_ROOT.B_INFO.L_HW" data-source-line="69" id="ent0042"><rect fill="#FFFFFF" height="34.5224" rx="4" ry="4" style="stroke:#0E1014;stroke-width:0.5;" width="73.743" x="608" y="835.3858"/><text fill="#0E1014" font-family="'Inter, Helvetica, sans-serif'" font-size="12" lengthAdjust="spacing" textLength="53.743" x="618" y="857.0105">hardware</text></g><!--entity L_THEO--><g class="entity" data-qualified-name="PKG_TREE.TREE_ROOT.B_INFO.L_THEO" data-source-line="70" id="ent0043"><rect fill="#FFFFFF" height="34.5224" rx="4" ry="4" style="stroke:#0E1014;stroke-width:0.5;" width="56.7491" x="717.5" y="835.3858"/><text fill="#0E1014" font-family="'Inter, Helvetica, sans-serif'" font-size="12" lengthAdjust="spacing" textLength="36.7491" x="727.5" y="857.0105">theory</text></g><!--entity L_TU--><g class="entity" data-qualified-name="PKG_TREE.TREE_ROOT.B_TOOLS.L_TU" data-source-line="74" id="ent0045"><rect fill="#FFFFFF" height="34.5224" rx="4" ry="4" style="stroke:#0E1014;stroke-width:0.5;" width="61.7603" x="1151" y="984.3858"/><text fill="#0E1014" font-family="'Inter, Helvetica, sans-serif'" font-size="12" lengthAdjust="spacing" textLength="41.7603" x="1161" y="1006.0105">tooluse</text></g><!--entity L_ROB--><g class="entity" data-qualified-name="PKG_TREE.TREE_ROOT.B_TOOLS.L_ROB" data-source-line="75" id="ent0046"><rect fill="#FFFFFF" height="34.5224" rx="4" ry="4" style="stroke:#0E1014;stroke-width:0.5;" width="83.237" x="1248.5" y="984.3858"/><text fill="#0E1014" font-family="'Inter, Helvetica, sans-serif'" font-size="12" lengthAdjust="spacing" textLength="63.237" x="1258.5" y="1006.0105">robustness</text></g><!--entity L_CAL--><g class="entity" data-qualified-name="PKG_TREE.TREE_ROOT.B_TOOLS.L_CAL" data-source-line="76" id="ent0047"><rect fill="#FFFFFF" height="34.5224" rx="4" ry="4" style="stroke:#0E1014;stroke-width:0.5;" width="79.2314" x="1127.5" y="1089.8858"/><text fill="#0E1014" font-family="'Inter, Helvetica, sans-serif'" font-size="12" lengthAdjust="spacing" textLength="59.2314" x="1137.5" y="1111.5105">calibration</text></g><!--entity L_SUM--><g class="entity" data-qualified-name="PKG_TREE.TREE_ROOT.B_TOOLS.L_SUM" data-source-line="77" id="ent0048"><rect fill="#FFFFFF" height="34.5224" rx="4" ry="4" style="stroke:#0E1014;stroke-width:0.5;" width="102.8388" x="1241.5" y="1089.8858"/><text fill="#0E1014" font-family="'Inter, Helvetica, sans-serif'" font-size="12" lengthAdjust="spacing" textLength="82.8388" x="1251.5" y="1111.5105">summarization</text></g><g class="entity" data-qualified-name="GMN50" data-source-line="13" id="ent0051"><path d="M1457,475.3858 L1457,520.9528 A4,4 0 0 0 1461,524.9528 L1656.5351,524.9528 A4,4 0 0 0 1660.5351,520.9528 L1660.5351,481.3858 L1650.5351,471.3858 L1461,471.3858 A4,4 0 0 0 1457,475.3858" fill="#FFFDF6" style="stroke:#C68A3A;stroke-width:0.5;"/><path d="M1650.5351,471.3858 L1650.5351,479.3858 A2,2 0 0 0 1652.5351,481.3858 L1660.5351,481.3858 L1650.5351,471.3858" fill="#FFFDF6" style="stroke:#C68A3A;stroke-width:1;"/><text fill="#0E1014" font-family="'Inter, Helvetica, sans-serif'" font-size="12" lengthAdjust="spacing" textLength="70.5153" x="1463" y="488.0105">Safety stays</text><text fill="#0E1014" font-family="'Inter, Helvetica, sans-serif'" font-size="12" font-weight="700" lengthAdjust="spacing" textLength="37.4821" x="1536.8902" y="488.0105">binary</text><text fill="#0E1014" font-family="'Inter, Helvetica, sans-serif'" font-size="12" lengthAdjust="spacing" textLength="17.3518" x="1577.7471" y="488.0105">0/1</text><text fill="#0E1014" font-family="'Inter, Helvetica, sans-serif'" font-size="12" lengthAdjust="spacing" textLength="165.5072" x="1463" y="502.5328">(single item, no Beta-Laplace</text><text fill="#0E1014" font-family="'Inter, Helvetica, sans-serif'" font-size="12" lengthAdjust="spacing" textLength="182.5351" x="1463" y="517.0552">smoothing &#8212; user 2026-05-19).</text></g><g class="entity" data-qualified-name="GMN53" data-source-line="19" id="ent0054"><path d="M1457,729.8858 L1457,760.9305 A4,4 0 0 0 1461,764.9305 L1663.0293,764.9305 A4,4 0 0 0 1667.0293,760.9305 L1667.0293,735.8858 L1657.0293,725.8858 L1461,725.8858 A4,4 0 0 0 1457,729.8858" fill="#FFFDF6" style="stroke:#C68A3A;stroke-width:0.5;"/><path d="M1657.0293,725.8858 L1657.0293,733.8858 A2,2 0 0 0 1659.0293,735.8858 L1667.0293,735.8858 L1657.0293,725.8858" fill="#FFFDF6" style="stroke:#C68A3A;stroke-width:1;"/><text fill="#0E1014" font-family="'Inter, Helvetica, sans-serif'" font-size="12" lengthAdjust="spacing" textLength="189.0293" x="1463" y="742.5105">Slice 7a &#8212; domain-of-knowledge</text><text fill="#0E1014" font-family="'Inter, Helvetica, sans-serif'" font-size="12" lengthAdjust="spacing" textLength="124.957" x="1463" y="757.0328">beyond programming.</text></g><g class="entity" data-qualified-name="GMN56" data-source-line="24" id="ent0057"><path d="M1457.5,978.8858 L1457.5,1024.4528 A4,4 0 0 0 1461.5,1028.4528 L1618.2066,1028.4528 A4,4 0 0 0 1622.2066,1024.4528 L1622.2066,984.8858 L1612.2066,974.8858 L1461.5,974.8858 A4,4 0 0 0 1457.5,978.8858" fill="#FFFDF6" style="stroke:#C68A3A;stroke-width:0.5;"/><path d="M1612.2066,974.8858 L1612.2066,982.8858 A2,2 0 0 0 1614.2066,984.8858 L1622.2066,984.8858 L1612.2066,974.8858" fill="#FFFDF6" style="stroke:#C68A3A;stroke-width:1;"/><text fill="#0E1014" font-family="'Inter, Helvetica, sans-serif'" font-size="12" lengthAdjust="spacing" textLength="142.2066" x="1463.5" y="991.5105">Slice 7b &#8212; function-call /</text><text fill="#0E1014" font-family="'Inter, Helvetica, sans-serif'" font-size="12" lengthAdjust="spacing" textLength="143.7066" x="1463.5" y="1006.0328">abstention / source-cited</text><text fill="#0E1014" font-family="'Inter, Helvetica, sans-serif'" font-size="12" lengthAdjust="spacing" textLength="129.099" x="1463.5" y="1020.5552">summary, at tree level.</text></g><g class="entity" data-qualified-name="GMN59" data-source-line="30" id="ent0060"><path d="M1457,829.8858 L1457,875.4528 A4,4 0 0 0 1461,879.4528 L1650.7569,879.4528 A4,4 0 0 0 1654.7569,875.4528 L1654.7569,835.8858 L1644.7569,825.8858 L1461,825.8858 A4,4 0 0 0 1457,829.8858" fill="#FFFDF6" style="stroke:#C68A3A;stroke-width:0.5;"/><path d="M1644.7569,825.8858 L1644.7569,833.8858 A2,2 0 0 0 1646.7569,835.8858 L1654.7569,835.8858 L1644.7569,825.8858" fill="#FFFDF6" style="stroke:#C68A3A;stroke-width:1;"/><text fill="#0E1014" font-family="'Inter, Helvetica, sans-serif'" font-size="12" lengthAdjust="spacing" textLength="174.2512" x="1463" y="842.5105">Display-only collapse in the R5</text><text fill="#0E1014" font-family="'Inter, Helvetica, sans-serif'" font-size="12" lengthAdjust="spacing" textLength="173.9615" x="1463" y="857.0328">radar (slice 6c) &#8212; routing uses</text><text fill="#0E1014" font-family="'Inter, Helvetica, sans-serif'" font-size="12" lengthAdjust="spacing" textLength="176.7569" x="1463" y="871.5552">the per-language leaves intact.</text></g><!--link BTYPE to TREE--><g class="link" data-entity-1="ent0002" data-entity-2="ent0003" data-link-type="dependency" data-source-line="16" id="lnk5"><path d="M360.48,172.9758 C315.14,196.2758 258.5071,225.3703 217.1971,246.6003" fill="none" id="BTYPE-to-TREE" style="stroke:#1A1D24;stroke-width:1;stroke-dasharray:7,7;"/><polygon fill="#1A1D24" points="212.75,248.8858,222.5831,248.3296,217.1971,246.6003,218.9264,241.2143,212.75,248.8858" style="stroke:#1A1D24;stroke-width:1;stroke-linejoin:miter;stroke-miterlimit:10;"/><text fill="#000000" font-family="'Inter, Helvetica, sans-serif'" font-size="12" lengthAdjust="spacing" textLength="41.3342" x="303" y="215.5105">keys of</text></g><!--link LID to TREE--><g class="link" data-entity-1="ent0004" data-entity-2="ent0003" data-link-type="dependency" data-source-line="17" id="lnk6"><path d="M163.8,167.9758 C164.52,191.4858 165.4165,220.7481 166.1165,243.5381" fill="none" id="LID-to-TREE" style="stroke:#1A1D24;stroke-width:1;stroke-dasharray:7,7;"/><polygon fill="#1A1D24" points="166.27,248.5358,169.9918,239.4172,166.1165,243.5381,161.9956,239.6628,166.27,248.5358" style="stroke:#1A1D24;stroke-width:1;stroke-linejoin:miter;stroke-miterlimit:10;"/><text fill="#000000" font-family="'Inter, Helvetica, sans-serif'" font-size="12" lengthAdjust="spacing" textLength="72.6288" x="167" y="215.5105">derived from</text></g><!--link TREE to TREE_ROOT--><g class="link" data-entity-1="ent0003" data-entity-2="ent0007" data-link-type="association" data-source-line="81" id="lnk49"><path d="M129.86,298.1858 C111.56,311.7758 90.75,330.3858 78,351.8858 C75.9219,355.3895 73.9783,359.0129 72.1606,362.7279 C71.7062,363.6566 71.2597,364.5911 70.8209,365.5309 C70.6014,366.0007 70.384,366.4719 70.1684,366.9444 C70.0606,367.1807 69.9533,367.4172 69.8465,367.6541" fill="none" id="TREE-TREE_ROOT" style="stroke:#1A1D24;stroke-width:1;"/><text fill="#000000" font-family="'Inter, Helvetica, sans-serif'" font-size="12" lengthAdjust="spacing" textLength="37.1582" x="97" y="340.5105">equals</text></g><!--link B_SAFE to GMN50--><g class="link" data-entity-1="ent0036" data-entity-2="ent0051" data-link-type="association" data-source-line="13" id="lnk52"><path d="M341.4619,439.4252 C341.4206,438.3014 341.3854,437.1702 341.3566,436.0322 C341.2418,431.4802 341.2317,426.8208 341.3563,422.1058 C342.3525,384.3858 351.965,343.1108 385.5,324.8858 C433.04,299.0458 1308.82,305.9258 1359.5,324.8858 C1438.18,354.3158 1506.31,430.3258 1538.78,471.2858" fill="none" id="B_SAFE-GMN50" style="stroke:#1A1D24;stroke-width:1;stroke-dasharray:7,7;"/></g><!--link B_INFO to GMN53--><g class="link" data-entity-1="ent0038" data-entity-2="ent0054" data-link-type="association" data-source-line="19" id="lnk55"><path d="M582.555,686.8213 C582.6055,686.7042 582.6562,686.5872 582.7071,686.4704 C583.5228,684.601 584.4053,682.7635 585.3602,680.972 C587.2698,677.3889 589.4688,673.9895 592,670.8858 C597.47,664.1858 601.07,664.3258 609.5,662.3858 C649.4,653.2058 1306.25,654.9058 1346.5,662.3858 C1411.34,674.4458 1481.83,705.2758 1523.94,725.7758" fill="none" id="B_INFO-GMN53" style="stroke:#1A1D24;stroke-width:1;stroke-dasharray:7,7;"/></g><!--link B_TOOLS to GMN56--><g class="link" data-entity-1="ent0044" data-entity-2="ent0057" data-link-type="association" data-source-line="24" id="lnk58"><path d="M1103.482,943.2418 C1104.0552,941.3551 1104.7074,939.4965 1105.447,937.6795 C1106.9263,934.0456 1108.755,930.5783 1111,927.3858 C1115.97,920.3158 1120.07,920.8258 1128.5,918.8858 C1175.06,908.1758 1296.67,909.4058 1343.5,918.8858 C1396.31,929.5858 1452.57,954.9358 1491.29,974.8258" fill="none" id="B_TOOLS-GMN56" style="stroke:#1A1D24;stroke-width:1;stroke-dasharray:7,7;"/></g><!--link B_LANG to GMN59--><g class="link" data-entity-1="ent0025" data-entity-2="ent0060" data-link-type="association" data-source-line="30" id="lnk61"><path d="M1356.1123,750.5022 C1357.0112,750.958 1357.9777,751.4481 1359.0081,751.9707 C1361.0689,753.0157 1363.3852,754.1904 1365.9278,755.4798 C1376.0981,760.6376 1389.8888,767.632 1405.4275,775.5133 C1436.505,791.2758 1474.575,810.5858 1504.66,825.8458" fill="none" id="B_LANG-GMN59" style="stroke:#1A1D24;stroke-width:1;stroke-dasharray:7,7;"/></g><?plantuml-src VPB1Rjf048RlVeh9gK1YJ28bLNeBnAagKQY0IwLACAm7i-fw5-sEITrJ7w9Fs2Vfh8sIIbIvs9Pdv___-NOkj5McBWY6msnz-WvPuCRGKDULIP9tyBZu2ifL1nV8mvzVlu7t1En97lZ3MLSrq9j8dPYieh57g_R0pO7WKhedyyzVybK-c-JhrIBFHSa6HijmsUhSfzkkuQX3ZQOFHXyfWBRI-Xf86GmXlbziqXYWZGZ10Te6dCXvA3IM7YlHHXQ9Pt4Am0uyxSZ7Hj0C2YriBaxgcpR70JrhDCCakVWlahSI90bhDdGsQcIry-udsHTItsnmjLVq0JR1gopiqLEHBLpDsfOhOHQ673RGYynFtlqaiOu9l2xt36u7u_NouIbF09Qu8sv0S3O11eEjjkYRmG16sRLKUq4aJPoNgYkm3iR4c4xnO52Hr4Fb19cSQNFMyN9lHZTtwUWslRxl3nEo1KJZS_jFiwTvj3TQSBx7jhzm5MgRkbtwtRfdGqKPFRRKE94vU1SlfHApjtHNy_bq-IgyxG3MLh5sDbLe36HIncsG2uZ_88CEPwfaoY8ELLULGBW2v6v53Ht9d9bk7REhEjVfm-oZT3xg86IQr5dJo98QWuSWy6ox7OjREU6nG2zOstHtgj_6yztLHNv1phIhH3urQCiQo-YFtJupAludnry0?></g></svg>