<svg xmlns="http://www.w3.org/2000/svg" xmlns:xlink="http://www.w3.org/1999/xlink" contentStyleType="text/css" data-diagram-type="SEQUENCE" height="1755px" preserveAspectRatio="none" style="width:1876px;height:1755px;background:#F4EEE3;" version="1.1" viewBox="0 0 1876 1755" width="1876px" zoomAndPan="magnify"><?plantuml 1.2026.4?><defs/><g><rect fill="#F4EEE3" height="1755" style="stroke:none;stroke-width:1;" width="1876" x="0" y="0"/><g class="title" data-source-line="3"><text fill="#000000" font-family="'Inter, Helvetica, sans-serif'" font-size="14" font-weight="700" lengthAdjust="spacing" textLength="408.7774" x="730.529" y="28.5623">Embedder &#8212; two routes (2026-05-23 single-pass rewrite)</text></g><rect fill="#F4EEE3" height="846.2378" rx="4" ry="4" style="stroke:#C68A3A;stroke-width:1.5;" width="983.1341" x="10" y="175.0323"/><path d="M10,277.1217 L993.1341,277.1217 L993.1341,1017.2701 A4,4 0 0 1 989.1341,1021.2701 L14,1021.2701 A4,4 0 0 1 10,1017.2701 L10,277.1217" fill="#F4EEE3" style="stroke:none;stroke-width:1;"/><rect fill="#F4EEE3" height="670.5813" rx="4" ry="4" style="stroke:#C68A3A;stroke-width:1.5;" width="963.1341" x="20" y="343.6888"/><path d="M20,417.2559 L983.1341,417.2559 L983.1341,1010.2701 A4,4 0 0 1 979.1341,1014.2701 L24,1014.2701 A4,4 0 0 1 20,1010.2701 L20,417.2559" fill="#F4EEE3" style="stroke:none;stroke-width:1;"/><rect fill="#F4EEE3" height="339.7907" rx="4" ry="4" style="stroke:#C68A3A;stroke-width:1.5;" width="943.1341" x="30" y="625.9571"/><path d="M30,671.0018 L973.1341,671.0018 L973.1341,961.7478 A4,4 0 0 1 969.1341,965.7478 L34,965.7478 A4,4 0 0 1 30,961.7478 L30,671.0018" fill="#F4EEE3" style="stroke:none;stroke-width:1;"/><rect fill="#F4EEE3" height="264.2236" rx="4" ry="4" style="stroke:#C68A3A;stroke-width:1.5;" width="923.1341" x="40" y="694.5242"/><rect fill="#F4EEE3" height="205.1789" rx="4" ry="4" style="stroke:#C68A3A;stroke-width:1.5;" width="903.1341" x="50" y="746.5689"/><path d="M50,820.136 L953.1341,820.136 L953.1341,889.7031 A4,4 0 0 1 949.1341,893.7031 L54,893.7031 A4,4 0 0 1 50,889.7031 L50,820.136" fill="#F4EEE3" style="stroke:none;stroke-width:1;"/><path d="M50,893.7031 L953.1341,893.7031 L953.1341,947.7478 A4,4 0 0 1 949.1341,951.7478 L54,951.7478 A4,4 0 0 1 50,947.7478 L50,893.7031" fill="#F4EEE3" style="stroke:none;stroke-width:1;"/><rect fill="#F4EEE3" height="303.8354" rx="4" ry="4" style="stroke:#C68A3A;stroke-width:1.5;" width="757.3584" x="943.1341" y="1291.5384"/><g class="participant-lifeline" data-entity-uid="part1" data-qualified-name="ROUTE" data-source-line="7" id="part1-lifeline"><g><title>routeByVectors</title><rect fill="#000000" fill-opacity="0.00000" height="1617.998" width="8" x="115.26" y="86.9876"/><line style="stroke:#7A7569;stroke-width:0.5;stroke-dasharray:5,5;" x1="119" x2="119" y1="86.9876" y2="1704.9856"/></g></g><g class="participant-lifeline" data-entity-uid="part2" data-qualified-name="LC" data-source-line="8" id="part2-lifeline"><g><title>embedderLifecycle</title><rect fill="#000000" fill-opacity="0.00000" height="1617.998" width="8" x="379.8505" y="86.9876"/><line style="stroke:#7A7569;stroke-width:0.5;stroke-dasharray:5,5;" x1="383.332" x2="383.332" y1="86.9876" y2="1704.9856"/></g></g><g class="participant-lifeline" data-entity-uid="part3" data-qualified-name="INFLIGHT" data-source-line="9" id="part3-lifeline"><g><title>in-flight</title><rect fill="#000000" fill-opacity="0.00000" height="1617.998" width="8" x="518.3644" y="86.9876"/><line style="stroke:#7A7569;stroke-width:0.5;stroke-dasharray:5,5;" x1="522.2405" x2="522.2405" y1="86.9876" y2="1704.9856"/></g></g><g class="participant-lifeline" data-entity-uid="part4" data-qualified-name="LIST" data-source-line="10" id="part4-lifeline"><g><title>listRunning..</title><rect fill="#000000" fill-opacity="0.00000" height="1617.998" width="8" x="620.9334" y="86.9876"/><line style="stroke:#7A7569;stroke-width:0.5;stroke-dasharray:5,5;" x1="624.4883" x2="624.4883" y1="86.9876" y2="1704.9856"/></g></g><g class="participant-lifeline" data-entity-uid="part5" data-qualified-name="LAUNCH" data-source-line="11" id="part5-lifeline"><g><title>launchModelByPath</title><rect fill="#000000" fill-opacity="0.00000" height="1617.998" width="8" x="736.7976" y="86.9876"/><line style="stroke:#7A7569;stroke-width:0.5;stroke-dasharray:5,5;" x1="740.3785" x2="740.3785" y1="86.9876" y2="1704.9856"/></g></g><g class="participant-lifeline" data-entity-uid="part6" data-qualified-name="EMB_SRV" data-source-line="12" id="part6-lifeline"><g><title>llama-server</title><rect fill="#000000" fill-opacity="0.00000" height="1617.998" width="8" x="874.6753" y="86.9876"/><line style="stroke:#7A7569;stroke-width:0.5;stroke-dasharray:5,5;" x1="878.2166" x2="878.2166" y1="86.9876" y2="1704.9856"/></g></g><g class="participant-lifeline" data-entity-uid="part7" data-qualified-name="CHAR_ALL" data-source-line="59" id="part7-lifeline"><g><title>characterizeAll</title><rect fill="#000000" fill-opacity="0.00000" height="1617.998" width="8" x="1003.988" y="86.9876"/><line style="stroke:#7A7569;stroke-width:0.5;stroke-dasharray:5,5;" x1="1007.1341" x2="1007.1341" y1="86.9876" y2="1704.9856"/></g></g><g class="participant-lifeline" data-entity-uid="part8" data-qualified-name="EMB_CLI" data-source-line="60" id="part8-lifeline"><g><title>embedderCli.ts</title><rect fill="#000000" fill-opacity="0.00000" height="1617.998" width="8" x="1272.0386" y="86.9876"/><line style="stroke:#7A7569;stroke-width:0.5;stroke-dasharray:5,5;" x1="1275.7527" x2="1275.7527" y1="86.9876" y2="1704.9856"/></g></g><g class="participant-lifeline" data-entity-uid="part9" data-qualified-name="TMP" data-source-line="61" id="part9-lifeline"><g><title>tmp file</title><rect fill="#000000" fill-opacity="0.00000" height="1617.998" width="8" x="1466.3865" y="86.9876"/><line style="stroke:#7A7569;stroke-width:0.5;stroke-dasharray:5,5;" x1="1470.1581" x2="1470.1581" y1="86.9876" y2="1704.9856"/></g></g><g class="participant-lifeline" data-entity-uid="part10" data-qualified-name="EMB_CLI_PROC" data-source-line="62" id="part10-lifeline"><g><title>llama-embedding.exe</title><rect fill="#000000" fill-opacity="0.00000" height="1617.998" width="8" x="1618.0537" y="86.9876"/><line style="stroke:#7A7569;stroke-width:0.5;stroke-dasharray:5,5;" x1="1621.6149" x2="1621.6149" y1="86.9876" y2="1704.9856"/></g></g><g class="participant participant-head" data-entity-uid="part1" data-qualified-name="ROUTE" data-source-line="7" id="part1-head"><rect fill="#FFFFFF" height="43.0447" rx="4" ry="4" style="stroke:#0E1014;stroke-width:0.5;" width="118.5201" x="60" y="42.9429"/><text fill="#0E1014" font-family="'Inter, Helvetica, sans-serif'" font-size="12" lengthAdjust="spacing" textLength="88.4978" x="75.0112" y="61.5676">routeByVectors</text><text fill="#0E1014" font-family="'Inter, Helvetica, sans-serif'" font-size="12" lengthAdjust="spacing" textLength="104.5201" x="67" y="76.0899">(interactive query)</text></g><g class="participant participant-tail" data-entity-uid="part1" data-qualified-name="ROUTE" data-source-line="7" id="part1-tail"><rect fill="#FFFFFF" height="43.0447" rx="4" ry="4" style="stroke:#0E1014;stroke-width:0.5;" width="118.5201" x="60" y="1703.9856"/><text fill="#0E1014" font-family="'Inter, Helvetica, sans-serif'" font-size="12" lengthAdjust="spacing" textLength="88.4978" x="75.0112" y="1722.6103">routeByVectors</text><text fill="#0E1014" font-family="'Inter, Helvetica, sans-serif'" font-size="12" lengthAdjust="spacing" textLength="104.5201" x="67" y="1737.1326">(interactive query)</text></g><g class="participant participant-head" data-entity-uid="part2" data-qualified-name="LC" data-source-line="8" id="part2-head"><rect fill="#FFFFFF" height="28.5224" rx="4" ry="4" style="stroke:#0E1014;stroke-width:0.5;" width="123.037" x="322.332" y="57.4652"/><text fill="#0E1014" font-family="'Inter, Helvetica, sans-serif'" font-size="12" lengthAdjust="spacing" textLength="109.037" x="329.332" y="76.0899">embedderLifecycle</text></g><g class="participant participant-tail" data-entity-uid="part2" data-qualified-name="LC" data-source-line="8" id="part2-tail"><rect fill="#FFFFFF" height="28.5224" rx="4" ry="4" style="stroke:#0E1014;stroke-width:0.5;" width="123.037" x="322.332" y="1703.9856"/><text fill="#0E1014" font-family="'Inter, Helvetica, sans-serif'" font-size="12" lengthAdjust="spacing" textLength="109.037" x="329.332" y="1722.6103">embedderLifecycle</text></g><g class="participant participant-head" data-entity-uid="part3" data-qualified-name="INFLIGHT" data-source-line="9" id="part3-head"><rect fill="#FFFFFF" height="43.0447" rx="4" ry="4" style="stroke:#0E1014;stroke-width:0.5;" width="100.2478" x="472.2405" y="42.9429"/><text fill="#0E1014" font-family="'Inter, Helvetica, sans-serif'" font-size="12" lengthAdjust="spacing" textLength="44.1807" x="500.274" y="61.5676">in-flight</text><text fill="#0E1014" font-family="'Inter, Helvetica, sans-serif'" font-size="12" lengthAdjust="spacing" textLength="86.2478" x="479.2405" y="76.0899">launch promise</text></g><g class="participant participant-tail" data-entity-uid="part3" data-qualified-name="INFLIGHT" data-source-line="9" id="part3-tail"><rect fill="#FFFFFF" height="43.0447" rx="4" ry="4" style="stroke:#0E1014;stroke-width:0.5;" width="100.2478" x="472.2405" y="1703.9856"/><text fill="#0E1014" font-family="'Inter, Helvetica, sans-serif'" font-size="12" lengthAdjust="spacing" textLength="44.1807" x="500.274" y="1722.6103">in-flight</text><text fill="#0E1014" font-family="'Inter, Helvetica, sans-serif'" font-size="12" lengthAdjust="spacing" textLength="86.2478" x="479.2405" y="1737.1326">launch promise</text></g><g class="participant participant-head" data-entity-uid="part4" data-qualified-name="LIST" data-source-line="10" id="part4-head"><rect fill="#FFFFFF" height="28.5224" rx="4" ry="4" style="stroke:#0E1014;stroke-width:0.5;" width="84.8902" x="582.4883" y="57.4652"/><text fill="#0E1014" font-family="'Inter, Helvetica, sans-serif'" font-size="12" lengthAdjust="spacing" textLength="70.8902" x="589.4883" y="76.0899">listRunning()</text></g><g class="participant participant-tail" data-entity-uid="part4" data-qualified-name="LIST" data-source-line="10" id="part4-tail"><rect fill="#FFFFFF" height="28.5224" rx="4" ry="4" style="stroke:#0E1014;stroke-width:0.5;" width="84.8902" x="582.4883" y="1703.9856"/><text fill="#0E1014" font-family="'Inter, Helvetica, sans-serif'" font-size="12" lengthAdjust="spacing" textLength="70.8902" x="589.4883" y="1722.6103">listRunning()</text></g><g class="participant participant-head" data-entity-uid="part5" data-qualified-name="LAUNCH" data-source-line="11" id="part5-head"><rect fill="#FFFFFF" height="28.5224" rx="4" ry="4" style="stroke:#0E1014;stroke-width:0.5;" width="126.8381" x="677.3785" y="57.4652"/><text fill="#0E1014" font-family="'Inter, Helvetica, sans-serif'" font-size="12" lengthAdjust="spacing" textLength="112.8381" x="684.3785" y="76.0899">launchModelByPath</text></g><g class="participant participant-tail" data-entity-uid="part5" data-qualified-name="LAUNCH" data-source-line="11" id="part5-tail"><rect fill="#FFFFFF" height="28.5224" rx="4" ry="4" style="stroke:#0E1014;stroke-width:0.5;" width="126.8381" x="677.3785" y="1703.9856"/><text fill="#0E1014" font-family="'Inter, Helvetica, sans-serif'" font-size="12" lengthAdjust="spacing" textLength="112.8381" x="684.3785" y="1722.6103">launchModelByPath</text></g><g class="participant participant-head" data-entity-uid="part6" data-qualified-name="EMB_SRV" data-source-line="12" id="part6-head"><rect fill="#FFFFFF" height="43.0447" rx="4" ry="4" style="stroke:#0E1014;stroke-width:0.5;" width="128.9175" x="814.2166" y="42.9429"/><text fill="#0E1014" font-family="'Inter, Helvetica, sans-serif'" font-size="12" lengthAdjust="spacing" textLength="71.0436" x="843.1535" y="61.5676">llama-server</text><text fill="#0E1014" font-family="'Inter, Helvetica, sans-serif'" font-size="12" lengthAdjust="spacing" textLength="114.9175" x="821.2166" y="76.0899">--embedding (8081)</text></g><g class="participant participant-tail" data-entity-uid="part6" data-qualified-name="EMB_SRV" data-source-line="12" id="part6-tail"><rect fill="#FFFFFF" height="43.0447" rx="4" ry="4" style="stroke:#0E1014;stroke-width:0.5;" width="128.9175" x="814.2166" y="1703.9856"/><text fill="#0E1014" font-family="'Inter, Helvetica, sans-serif'" font-size="12" lengthAdjust="spacing" textLength="71.0436" x="843.1535" y="1722.6103">llama-server</text><text fill="#0E1014" font-family="'Inter, Helvetica, sans-serif'" font-size="12" lengthAdjust="spacing" textLength="114.9175" x="821.2166" y="1737.1326">--embedding (8081)</text></g><g class="participant participant-head" data-entity-uid="part7" data-qualified-name="CHAR_ALL" data-source-line="59" id="part7-head"><rect fill="#FFFFFF" height="43.0447" rx="4" ry="4" style="stroke:#0E1014;stroke-width:0.5;" width="109.7078" x="953.1341" y="42.9429"/><text fill="#0E1014" font-family="'Inter, Helvetica, sans-serif'" font-size="12" lengthAdjust="spacing" textLength="84.441" x="965.7675" y="61.5676">characterizeAll</text><text fill="#0E1014" font-family="'Inter, Helvetica, sans-serif'" font-size="12" lengthAdjust="spacing" textLength="95.7078" x="960.1341" y="76.0899">(per-model loop)</text></g><g class="participant participant-tail" data-entity-uid="part7" data-qualified-name="CHAR_ALL" data-source-line="59" id="part7-tail"><rect fill="#FFFFFF" height="43.0447" rx="4" ry="4" style="stroke:#0E1014;stroke-width:0.5;" width="109.7078" x="953.1341" y="1703.9856"/><text fill="#0E1014" font-family="'Inter, Helvetica, sans-serif'" font-size="12" lengthAdjust="spacing" textLength="84.441" x="965.7675" y="1722.6103">characterizeAll</text><text fill="#0E1014" font-family="'Inter, Helvetica, sans-serif'" font-size="12" lengthAdjust="spacing" textLength="95.7078" x="960.1341" y="1737.1326">(per-model loop)</text></g><g class="participant participant-head" data-entity-uid="part8" data-qualified-name="EMB_CLI" data-source-line="60" id="part8-head"><rect fill="#FFFFFF" height="28.5224" rx="4" ry="4" style="stroke:#0E1014;stroke-width:0.5;" width="100.5716" x="1225.7527" y="57.4652"/><text fill="#0E1014" font-family="'Inter, Helvetica, sans-serif'" font-size="12" lengthAdjust="spacing" textLength="86.5716" x="1232.7527" y="76.0899">embedderCli.ts</text></g><g class="participant participant-tail" data-entity-uid="part8" data-qualified-name="EMB_CLI" data-source-line="60" id="part8-tail"><rect fill="#FFFFFF" height="28.5224" rx="4" ry="4" style="stroke:#0E1014;stroke-width:0.5;" width="100.5716" x="1225.7527" y="1703.9856"/><text fill="#0E1014" font-family="'Inter, Helvetica, sans-serif'" font-size="12" lengthAdjust="spacing" textLength="86.5716" x="1232.7527" y="1722.6103">embedderCli.ts</text></g><g class="participant participant-head" data-entity-uid="part9" data-qualified-name="TMP" data-source-line="61" id="part9-head"><rect fill="#FFFFFF" height="43.0447" rx="4" ry="4" style="stroke:#0E1014;stroke-width:0.5;" width="146.4568" x="1397.1581" y="42.9429"/><text fill="#0E1014" font-family="'Inter, Helvetica, sans-serif'" font-size="12" lengthAdjust="spacing" textLength="42.4932" x="1449.1399" y="61.5676">tmp file</text><text fill="#0E1014" font-family="'Inter, Helvetica, sans-serif'" font-size="12" lengthAdjust="spacing" textLength="132.4568" x="1404.1581" y="76.0899">(maestria-embed-*.txt)</text></g><g class="participant participant-tail" data-entity-uid="part9" data-qualified-name="TMP" data-source-line="61" id="part9-tail"><rect fill="#FFFFFF" height="43.0447" rx="4" ry="4" style="stroke:#0E1014;stroke-width:0.5;" width="146.4568" x="1397.1581" y="1703.9856"/><text fill="#0E1014" font-family="'Inter, Helvetica, sans-serif'" font-size="12" lengthAdjust="spacing" textLength="42.4932" x="1449.1399" y="1722.6103">tmp file</text><text fill="#0E1014" font-family="'Inter, Helvetica, sans-serif'" font-size="12" lengthAdjust="spacing" textLength="132.4568" x="1404.1581" y="1737.1326">(maestria-embed-*.txt)</text></g><g class="participant participant-head" data-entity-uid="part10" data-qualified-name="EMB_CLI_PROC" data-source-line="62" id="part10-head"><rect fill="#FFFFFF" height="43.0447" rx="4" ry="4" style="stroke:#0E1014;stroke-width:0.5;" width="136.8775" x="1553.6149" y="42.9429"/><text fill="#0E1014" font-family="'Inter, Helvetica, sans-serif'" font-size="12" lengthAdjust="spacing" textLength="122.8775" x="1560.6149" y="61.5676">llama-embedding.exe</text><text fill="#0E1014" font-family="'Inter, Helvetica, sans-serif'" font-size="12" lengthAdjust="spacing" textLength="84.6967" x="1579.7053" y="76.0899">(spawn &#8594; exit)</text></g><g class="participant participant-tail" data-entity-uid="part10" data-qualified-name="EMB_CLI_PROC" data-source-line="62" id="part10-tail"><rect fill="#FFFFFF" height="43.0447" rx="4" ry="4" style="stroke:#0E1014;stroke-width:0.5;" width="136.8775" x="1553.6149" y="1703.9856"/><text fill="#0E1014" font-family="'Inter, Helvetica, sans-serif'" font-size="12" lengthAdjust="spacing" textLength="122.8775" x="1560.6149" y="1722.6103">llama-embedding.exe</text><text fill="#0E1014" font-family="'Inter, Helvetica, sans-serif'" font-size="12" lengthAdjust="spacing" textLength="84.6967" x="1579.7053" y="1737.1326">(spawn &#8594; exit)</text></g><rect fill="#EEEEEE" height="3" rx="4" ry="4" style="stroke:#EEEEEE;stroke-width:1;" width="1870.8353" x="0" y="117.2488"/><line style="stroke:#000000;stroke-width:1;" x1="0" x2="1870.8353" y1="117.2488" y2="117.2488"/><line style="stroke:#000000;stroke-width:1;" x1="0" x2="1870.8353" y1="120.2488" y2="120.2488"/><rect fill="#EEEEEE" height="22.5224" rx="4" ry="4" style="stroke:#000000;stroke-width:2;" width="447.8987" x="711.4683" y="106.9876"/><text fill="#000000" font-family="'Inter, Helvetica, sans-serif'" font-size="12" font-weight="700" lengthAdjust="spacing" textLength="430.5237" x="717.4683" y="122.6123">Route A &#8212; `ensureEmbedderReady()` (server, used by routeByVectors)</text><g class="message" data-entity-1="part1" data-entity-2="part2" data-source-line="14" id="msg1"><polygon fill="#1A1D24" points="371.8505,156.0323,381.8505,160.0323,371.8505,164.0323,375.8505,160.0323" style="stroke:#1A1D24;stroke-width:1;stroke-linejoin:miter;stroke-miterlimit:10;"/><line style="stroke:#1A1D24;stroke-width:1;" x1="119.26" x2="377.8505" y1="160.0323" y2="160.0323"/><text fill="#000000" font-family="'Inter, Helvetica, sans-serif'" font-size="12" lengthAdjust="spacing" textLength="240.5905" x="126.26" y="155.1347">ensureEmbedderReady(filePath, {model?})</text></g><path d="M14,175.0323 L70.1019,175.0323 L70.1019,181.5547 L60.1019,191.5547 L10,191.5547 L10,179.0323 A4,4 0 0 1 14,175.0323" fill="#EEEEEE" style="stroke:#C68A3A;stroke-width:1.5;"/><rect fill="none" height="846.2378" rx="4" ry="4" style="stroke:#C68A3A;stroke-width:1.5;" width="983.1341" x="10" y="175.0323"/><text fill="#000000" font-family="'Inter, Helvetica, sans-serif'" font-size="12" font-weight="700" lengthAdjust="spacing" textLength="15.1019" x="25" y="187.657">alt</text><text fill="#C68A3A" font-family="'Inter, Helvetica, sans-serif'" font-size="12" font-weight="700" lengthAdjust="spacing" textLength="201.4554" x="85.1019" y="188.657">[another caller already launching]</text><g class="message" data-entity-1="part2" data-entity-2="part3" data-source-line="17" id="msg2"><polygon fill="#1A1D24" points="510.3644,208.077,520.3644,212.077,510.3644,216.077,514.3644,212.077" style="stroke:#1A1D24;stroke-width:1;stroke-linejoin:miter;stroke-miterlimit:10;"/><line style="stroke:#1A1D24;stroke-width:1;" x1="383.8505" x2="516.3644" y1="212.077" y2="212.077"/><text fill="#000000" font-family="'Inter, Helvetica, sans-serif'" font-size="12" lengthAdjust="spacing" textLength="113.1789" x="390.8505" y="207.1794">await same promise</text></g><g class="message" data-entity-1="part3" data-entity-2="part2" data-source-line="18" id="msg3"><polygon fill="#1A1D24" points="394.8505,236.5994,384.8505,240.5994,394.8505,244.5994,390.8505,240.5994" style="stroke:#1A1D24;stroke-width:1;stroke-linejoin:miter;stroke-miterlimit:10;"/><line style="stroke:#1A1D24;stroke-width:1;stroke-dasharray:2,2;" x1="388.8505" x2="521.3644" y1="240.5994" y2="240.5994"/><text fill="#000000" font-family="'Inter, Helvetica, sans-serif'" font-size="12" lengthAdjust="spacing" textLength="83.1115" x="400.8505" y="235.7017">result (reused)</text></g><g class="message" data-entity-1="part2" data-entity-2="part1" data-source-line="19" id="msg4"><polygon fill="#1A1D24" points="130.26,265.1217,120.26,269.1217,130.26,273.1217,126.26,269.1217" style="stroke:#1A1D24;stroke-width:1;stroke-linejoin:miter;stroke-miterlimit:10;"/><line style="stroke:#1A1D24;stroke-width:1;stroke-dasharray:2,2;" x1="124.26" x2="382.8505" y1="269.1217" y2="269.1217"/><text fill="#000000" font-family="'Inter, Helvetica, sans-serif'" font-size="12" lengthAdjust="spacing" textLength="169.7684" x="136.26" y="264.2241">{baseUrl, pid, source:'reused'}</text></g><line style="stroke:#C68A3A;stroke-width:1;stroke-dasharray:2,2;" x1="10" x2="993.1341" y1="278.1217" y2="278.1217"/><text fill="#C68A3A" font-family="'Inter, Helvetica, sans-serif'" font-size="12" font-weight="700" lengthAdjust="spacing" textLength="99.6965" x="15" y="289.7465">[first/only caller]</text><g class="message" data-entity-1="part2" data-entity-2="part4" data-source-line="21" id="msg5"><polygon fill="#1A1D24" points="612.9334,324.6888,622.9334,328.6888,612.9334,332.6888,616.9334,328.6888" style="stroke:#1A1D24;stroke-width:1;stroke-linejoin:miter;stroke-miterlimit:10;"/><line style="stroke:#1A1D24;stroke-width:1;" x1="383.8505" x2="618.9334" y1="328.6888" y2="328.6888"/><text fill="#000000" font-family="'Inter, Helvetica, sans-serif'" font-size="12" lengthAdjust="spacing" textLength="194.8587" x="390.8505" y="309.2688">look for `launchedBy: 'embedder'`</text><text fill="#000000" font-family="'Inter, Helvetica, sans-serif'" font-size="12" lengthAdjust="spacing" textLength="133.65" x="390.8505" y="323.7912">+ filePath match + alive</text></g><path d="M24,343.6888 L80.1019,343.6888 L80.1019,350.2112 L70.1019,360.2112 L20,360.2112 L20,347.6888 A4,4 0 0 1 24,343.6888" fill="#EEEEEE" style="stroke:#C68A3A;stroke-width:1.5;"/><rect fill="none" height="670.5813" rx="4" ry="4" style="stroke:#C68A3A;stroke-width:1.5;" width="963.1341" x="20" y="343.6888"/><text fill="#000000" font-family="'Inter, Helvetica, sans-serif'" font-size="12" font-weight="700" lengthAdjust="spacing" textLength="15.1019" x="35" y="356.3135">alt</text><text fill="#C68A3A" font-family="'Inter, Helvetica, sans-serif'" font-size="12" font-weight="700" lengthAdjust="spacing" textLength="102.6964" x="95.1019" y="357.3135">[already running]</text><g class="message" data-entity-1="part4" data-entity-2="part2" data-source-line="23" id="msg6"><polygon fill="#1A1D24" points="394.8505,376.7335,384.8505,380.7335,394.8505,384.7335,390.8505,380.7335" style="stroke:#1A1D24;stroke-width:1;stroke-linejoin:miter;stroke-miterlimit:10;"/><line style="stroke:#1A1D24;stroke-width:1;stroke-dasharray:2,2;" x1="388.8505" x2="623.9334" y1="380.7335" y2="380.7335"/><text fill="#000000" font-family="'Inter, Helvetica, sans-serif'" font-size="12" lengthAdjust="spacing" textLength="47.317" x="400.8505" y="375.8359">{pid, url}</text></g><g class="message" data-entity-1="part2" data-entity-2="part1" data-source-line="24" id="msg7"><polygon fill="#1A1D24" points="130.26,405.2559,120.26,409.2559,130.26,413.2559,126.26,409.2559" style="stroke:#1A1D24;stroke-width:1;stroke-linejoin:miter;stroke-miterlimit:10;"/><line style="stroke:#1A1D24;stroke-width:1;stroke-dasharray:2,2;" x1="124.26" x2="382.8505" y1="409.2559" y2="409.2559"/><text fill="#000000" font-family="'Inter, Helvetica, sans-serif'" font-size="12" lengthAdjust="spacing" textLength="166.3935" x="136.26" y="404.3582">{baseUrl: url, source:'reused'}</text></g><line style="stroke:#C68A3A;stroke-width:1;stroke-dasharray:2,2;" x1="20" x2="983.1341" y1="418.2559" y2="418.2559"/><text fill="#C68A3A" font-family="'Inter, Helvetica, sans-serif'" font-size="12" font-weight="700" lengthAdjust="spacing" textLength="88.4127" x="25" y="429.8806">[needs spawn]</text><g class="message" data-entity-1="part2" data-entity-2="part2" data-source-line="26" id="msg8"><line style="stroke:#1A1D24;stroke-width:1;" x1="383.8505" x2="425.8505" y1="454.3006" y2="454.3006"/><line style="stroke:#1A1D24;stroke-width:1;" x1="425.8505" x2="425.8505" y1="454.3006" y2="467.3006"/><line style="stroke:#1A1D24;stroke-width:1;" x1="384.8505" x2="425.8505" y1="467.3006" y2="467.3006"/><polygon fill="#1A1D24" points="394.8505,463.3006,384.8505,467.3006,394.8505,471.3006,390.8505,467.3006" style="stroke:#1A1D24;stroke-width:1;stroke-linejoin:miter;stroke-miterlimit:10;"/><text fill="#000000" font-family="'Inter, Helvetica, sans-serif'" font-size="12" lengthAdjust="spacing" textLength="124.5139" x="390.8505" y="449.403">set INFLIGHT promise</text></g><g class="message" data-entity-1="part2" data-entity-2="part5" data-source-line="27" id="msg9"><polygon fill="#1A1D24" points="728.7976,549.9124,738.7976,553.9124,728.7976,557.9124,732.7976,553.9124" style="stroke:#1A1D24;stroke-width:1;stroke-linejoin:miter;stroke-miterlimit:10;"/><line style="stroke:#1A1D24;stroke-width:1;" x1="383.8505" x2="734.7976" y1="553.9124" y2="553.9124"/><text fill="#000000" font-family="'Inter, Helvetica, sans-serif'" font-size="12" lengthAdjust="spacing" textLength="117.1845" x="390.8505" y="490.9253">launchModelByPath(</text><text fill="#000000" font-family="'Inter, Helvetica, sans-serif'" font-size="12" lengthAdjust="spacing" textLength="136.5136" x="397.6003" y="505.4477">launchedBy:'embedder',</text><text fill="#000000" font-family="'Inter, Helvetica, sans-serif'" font-size="12" lengthAdjust="spacing" textLength="61.2086" x="397.6003" y="519.97">port: 8081,</text><text fill="#000000" font-family="'Inter, Helvetica, sans-serif'" font-size="12" lengthAdjust="spacing" textLength="151.6666" x="397.6003" y="534.4924">customArgs:'--embedding'</text><text fill="#000000" font-family="'Inter, Helvetica, sans-serif'" font-size="12" lengthAdjust="spacing" textLength="4.3465" x="390.8505" y="549.0147">)</text></g><g class="message" data-entity-1="part5" data-entity-2="part6" data-source-line="28" id="msg10"><polygon fill="#1A1D24" points="866.6753,578.4348,876.6753,582.4348,866.6753,586.4348,870.6753,582.4348" style="stroke:#1A1D24;stroke-width:1;stroke-linejoin:miter;stroke-miterlimit:10;"/><line style="stroke:#1A1D24;stroke-width:1;" x1="740.7976" x2="872.6753" y1="582.4348" y2="582.4348"/><text fill="#000000" font-family="'Inter, Helvetica, sans-serif'" font-size="12" lengthAdjust="spacing" textLength="103.736" x="747.7976" y="577.5371">spawn (port 8081)</text></g><g class="message" data-entity-1="part5" data-entity-2="part2" data-source-line="29" id="msg11"><polygon fill="#1A1D24" points="394.8505,606.9571,384.8505,610.9571,394.8505,614.9571,390.8505,610.9571" style="stroke:#1A1D24;stroke-width:1;stroke-linejoin:miter;stroke-miterlimit:10;"/><line style="stroke:#1A1D24;stroke-width:1;stroke-dasharray:2,2;" x1="388.8505" x2="739.7976" y1="610.9571" y2="610.9571"/><text fill="#000000" font-family="'Inter, Helvetica, sans-serif'" font-size="12" lengthAdjust="spacing" textLength="67.7369" x="400.8505" y="606.0595">{pid, url, ok}</text></g><path d="M34,625.9571 L90.1019,625.9571 L90.1019,632.4795 L80.1019,642.4795 L30,642.4795 L30,629.9571 A4,4 0 0 1 34,625.9571" fill="#EEEEEE" style="stroke:#C68A3A;stroke-width:1.5;"/><rect fill="none" height="339.7907" rx="4" ry="4" style="stroke:#C68A3A;stroke-width:1.5;" width="943.1341" x="30" y="625.9571"/><text fill="#000000" font-family="'Inter, Helvetica, sans-serif'" font-size="12" font-weight="700" lengthAdjust="spacing" textLength="15.1019" x="45" y="638.5818">alt</text><text fill="#C68A3A" font-family="'Inter, Helvetica, sans-serif'" font-size="12" font-weight="700" lengthAdjust="spacing" textLength="85.9411" x="105.1019" y="639.5818">[launch failed]</text><g class="message" data-entity-1="part2" data-entity-2="part1" data-source-line="31" id="msg12"><polygon fill="#1A1D24" points="130.26,659.0018,120.26,663.0018,130.26,667.0018,126.26,663.0018" style="stroke:#1A1D24;stroke-width:1;stroke-linejoin:miter;stroke-miterlimit:10;"/><line style="stroke:#1A1D24;stroke-width:1;stroke-dasharray:2,2;" x1="124.26" x2="382.8505" y1="663.0018" y2="663.0018"/><text fill="#000000" font-family="'Inter, Helvetica, sans-serif'" font-size="12" lengthAdjust="spacing" textLength="142.9395" x="136.26" y="658.1042">null (silent fallback to R5)</text></g><line style="stroke:#C68A3A;stroke-width:1;stroke-dasharray:2,2;" x1="30" x2="973.1341" y1="672.0018" y2="672.0018"/><text fill="#C68A3A" font-family="'Inter, Helvetica, sans-serif'" font-size="12" font-weight="700" lengthAdjust="spacing" textLength="64.2769" x="35" y="683.6265">[launched]</text><path d="M44,694.5242 L110.9766,694.5242 L110.9766,701.0466 L100.9766,711.0466 L40,711.0466 L40,698.5242 A4,4 0 0 1 44,694.5242" fill="#EEEEEE" style="stroke:#C68A3A;stroke-width:1.5;"/><rect fill="none" height="264.2236" rx="4" ry="4" style="stroke:#C68A3A;stroke-width:1.5;" width="923.1341" x="40" y="694.5242"/><text fill="#000000" font-family="'Inter, Helvetica, sans-serif'" font-size="12" font-weight="700" lengthAdjust="spacing" textLength="25.9766" x="55" y="707.1489">loop</text><text fill="#C68A3A" font-family="'Inter, Helvetica, sans-serif'" font-size="12" font-weight="700" lengthAdjust="spacing" textLength="216.1652" x="125.9766" y="708.1489">[until /v1/models OK or 60s timeout]</text><g class="message" data-entity-1="part2" data-entity-2="part6" data-source-line="34" id="msg13"><polygon fill="#1A1D24" points="866.6753,727.5689,876.6753,731.5689,866.6753,735.5689,870.6753,731.5689" style="stroke:#1A1D24;stroke-width:1;stroke-linejoin:miter;stroke-miterlimit:10;"/><line style="stroke:#1A1D24;stroke-width:1;" x1="383.8505" x2="872.6753" y1="731.5689" y2="731.5689"/><text fill="#000000" font-family="'Inter, Helvetica, sans-serif'" font-size="12" lengthAdjust="spacing" textLength="164.7572" x="390.8505" y="726.6713">fetch /v1/models (4s budget)</text></g><path d="M54,746.5689 L110.1019,746.5689 L110.1019,753.0913 L100.1019,763.0913 L50,763.0913 L50,750.5689 A4,4 0 0 1 54,746.5689" fill="#EEEEEE" style="stroke:#C68A3A;stroke-width:1.5;"/><rect fill="none" height="205.1789" rx="4" ry="4" style="stroke:#C68A3A;stroke-width:1.5;" width="903.1341" x="50" y="746.5689"/><text fill="#000000" font-family="'Inter, Helvetica, sans-serif'" font-size="12" font-weight="700" lengthAdjust="spacing" textLength="15.1019" x="65" y="759.1936">alt</text><text fill="#C68A3A" font-family="'Inter, Helvetica, sans-serif'" font-size="12" font-weight="700" lengthAdjust="spacing" textLength="86.0093" x="125.1019" y="760.1936">[response OK]</text><g class="message" data-entity-1="part6" data-entity-2="part2" data-source-line="36" id="msg14"><polygon fill="#1A1D24" points="394.8505,779.6136,384.8505,783.6136,394.8505,787.6136,390.8505,783.6136" style="stroke:#1A1D24;stroke-width:1;stroke-linejoin:miter;stroke-miterlimit:10;"/><line style="stroke:#1A1D24;stroke-width:1;stroke-dasharray:2,2;" x1="388.8505" x2="877.6753" y1="783.6136" y2="783.6136"/><text fill="#000000" font-family="'Inter, Helvetica, sans-serif'" font-size="12" lengthAdjust="spacing" textLength="22.2608" x="400.8505" y="778.716">200</text></g><g class="message" data-entity-1="part2" data-entity-2="part1" data-source-line="37" id="msg15"><polygon fill="#1A1D24" points="130.26,808.136,120.26,812.136,130.26,816.136,126.26,812.136" style="stroke:#1A1D24;stroke-width:1;stroke-linejoin:miter;stroke-miterlimit:10;"/><line style="stroke:#1A1D24;stroke-width:1;stroke-dasharray:2,2;" x1="124.26" x2="382.8505" y1="812.136" y2="812.136"/><text fill="#000000" font-family="'Inter, Helvetica, sans-serif'" font-size="12" lengthAdjust="spacing" textLength="182.4669" x="136.26" y="807.2383">{baseUrl, pid, source:'launched'}</text></g><line style="stroke:#C68A3A;stroke-width:1;stroke-dasharray:2,2;" x1="50" x2="953.1341" y1="821.136" y2="821.136"/><text fill="#C68A3A" font-family="'Inter, Helvetica, sans-serif'" font-size="12" font-weight="700" lengthAdjust="spacing" textLength="97.9749" x="55" y="832.7607">[process exited]</text><g class="message" data-entity-1="part2" data-entity-2="part5" data-source-line="39" id="msg16"><polygon fill="#1A1D24" points="728.7976,853.1807,738.7976,857.1807,728.7976,861.1807,732.7976,857.1807" style="stroke:#1A1D24;stroke-width:1;stroke-linejoin:miter;stroke-miterlimit:10;"/><line style="stroke:#1A1D24;stroke-width:1;" x1="383.8505" x2="734.7976" y1="857.1807" y2="857.1807"/><text fill="#000000" font-family="'Inter, Helvetica, sans-serif'" font-size="12" lengthAdjust="spacing" textLength="96.8839" x="390.8505" y="852.283">stopProcess(pid)</text></g><g class="message" data-entity-1="part2" data-entity-2="part1" data-source-line="40" id="msg17"><polygon fill="#1A1D24" points="130.26,881.7031,120.26,885.7031,130.26,889.7031,126.26,885.7031" style="stroke:#1A1D24;stroke-width:1;stroke-linejoin:miter;stroke-miterlimit:10;"/><line style="stroke:#1A1D24;stroke-width:1;stroke-dasharray:2,2;" x1="124.26" x2="382.8505" y1="885.7031" y2="885.7031"/><text fill="#000000" font-family="'Inter, Helvetica, sans-serif'" font-size="12" lengthAdjust="spacing" textLength="19.687" x="136.26" y="880.8054">null</text></g><line style="stroke:#C68A3A;stroke-width:1;stroke-dasharray:2,2;" x1="50" x2="953.1341" y1="894.7031" y2="894.7031"/><text fill="#C68A3A" font-family="'Inter, Helvetica, sans-serif'" font-size="12" font-weight="700" lengthAdjust="spacing" textLength="85.0889" x="55" y="906.3278">[still warming]</text><g class="message" data-entity-1="part2" data-entity-2="part2" data-source-line="42" id="msg18"><line style="stroke:#1A1D24;stroke-width:1;" x1="383.8505" x2="425.8505" y1="930.7478" y2="930.7478"/><line style="stroke:#1A1D24;stroke-width:1;" x1="425.8505" x2="425.8505" y1="930.7478" y2="943.7478"/><line style="stroke:#1A1D24;stroke-width:1;" x1="384.8505" x2="425.8505" y1="943.7478" y2="943.7478"/><polygon fill="#1A1D24" points="394.8505,939.7478,384.8505,943.7478,394.8505,947.7478,390.8505,943.7478" style="stroke:#1A1D24;stroke-width:1;stroke-linejoin:miter;stroke-miterlimit:10;"/><text fill="#000000" font-family="'Inter, Helvetica, sans-serif'" font-size="12" lengthAdjust="spacing" textLength="45.6295" x="390.8505" y="925.8501">sleep 1s</text></g><g class="message" data-entity-1="part2" data-entity-2="part2" data-source-line="46" id="msg19"><line style="stroke:#1A1D24;stroke-width:1;" x1="383.8505" x2="425.8505" y1="993.2701" y2="993.2701"/><line style="stroke:#1A1D24;stroke-width:1;" x1="425.8505" x2="425.8505" y1="993.2701" y2="1006.2701"/><line style="stroke:#1A1D24;stroke-width:1;" x1="384.8505" x2="425.8505" y1="1006.2701" y2="1006.2701"/><polygon fill="#1A1D24" points="394.8505,1002.2701,384.8505,1006.2701,394.8505,1010.2701,390.8505,1006.2701" style="stroke:#1A1D24;stroke-width:1;stroke-linejoin:miter;stroke-miterlimit:10;"/><text fill="#000000" font-family="'Inter, Helvetica, sans-serif'" font-size="12" lengthAdjust="spacing" textLength="85.8047" x="390.8505" y="988.3725">clear INFLIGHT</text></g><path d="M388,1037.2701 L388,1097.2701 A4,4 0 0 0 392,1101.2701 L668,1101.2701 A4,4 0 0 0 672,1097.2701 L672,1043.2701 L662,1033.2701 L392,1033.2701 A4,4 0 0 0 388,1037.2701" fill="#FFFDF6" style="stroke:#C68A3A;stroke-width:0.5;"/><path d="M662,1033.2701 L662,1041.2701 A2,2 0 0 0 664,1043.2701 L672,1043.2701 L662,1033.2701" fill="#FFFDF6" style="stroke:#C68A3A;stroke-width:0.5;"/><text fill="#0E1014" font-family="'Inter, Helvetica, sans-serif'" font-size="12" lengthAdjust="spacing" textLength="230.4828" x="394" y="1049.8948">Concurrency-safe: parallel queries share</text><text fill="#0E1014" font-family="'Inter, Helvetica, sans-serif'" font-size="12" lengthAdjust="spacing" textLength="194.8417" x="394" y="1064.4172">ONE launch &#8212; never spawn twice.</text><text fill="#0E1014" font-family="'Inter, Helvetica, sans-serif'" font-size="12" lengthAdjust="spacing" textLength="258.6241" x="394" y="1078.9396">Server stays resident for low-latency queries.</text><text fill="#0E1014" font-family="'Inter, Helvetica, sans-serif'" font-size="12" lengthAdjust="spacing" textLength="263.6012" x="394" y="1093.4619">Failure &#8658; null &#8658; silent fallback. NEVER throws.</text><rect fill="#EEEEEE" height="3" rx="4" ry="4" style="stroke:#EEEEEE;stroke-width:1;" width="1870.8353" x="0" y="1126.6207"/><line style="stroke:#000000;stroke-width:1;" x1="0" x2="1870.8353" y1="1126.6207" y2="1126.6207"/><line style="stroke:#000000;stroke-width:1;" x1="0" x2="1870.8353" y1="1129.6207" y2="1129.6207"/><rect fill="#EEEEEE" height="22.5224" rx="4" ry="4" style="stroke:#000000;stroke-width:2;" width="460.2733" x="705.281" y="1116.3596"/><text fill="#000000" font-family="'Inter, Helvetica, sans-serif'" font-size="12" font-weight="700" lengthAdjust="spacing" textLength="442.8984" x="711.281" y="1131.9843">Route B &#8212; `embedViaLlamaCli()` (one-shot, used by bulk characterizeAll)</text><g class="message" data-entity-1="part7" data-entity-2="part8" data-source-line="64" id="msg20"><polygon fill="#1A1D24" points="1264.0386,1179.9266,1274.0386,1183.9266,1264.0386,1187.9266,1268.0386,1183.9266" style="stroke:#1A1D24;stroke-width:1;stroke-linejoin:miter;stroke-miterlimit:10;"/><line style="stroke:#1A1D24;stroke-width:1;" x1="1007.988" x2="1270.0386" y1="1183.9266" y2="1183.9266"/><text fill="#000000" font-family="'Inter, Helvetica, sans-serif'" font-size="12" lengthAdjust="spacing" textLength="136.9738" x="1014.988" y="1164.5066">resolveEmbedderCliFn()</text><text fill="#000000" font-family="'Inter, Helvetica, sans-serif'" font-size="12" lengthAdjust="spacing" textLength="244.0506" x="1014.988" y="1179.029">&#8594; EmbedFn (cached binPath + modelPath)</text></g><path d="M1281,1200.9266 L1281,1274.9266 A4,4 0 0 0 1285,1278.9266 L1533,1278.9266 A4,4 0 0 0 1537,1274.9266 L1537,1206.9266 L1527,1196.9266 L1285,1196.9266 A4,4 0 0 0 1281,1200.9266" fill="#FFFDF6" style="stroke:#C68A3A;stroke-width:0.5;"/><path d="M1527,1196.9266 L1527,1204.9266 A2,2 0 0 0 1529,1206.9266 L1537,1206.9266 L1527,1196.9266" fill="#FFFDF6" style="stroke:#C68A3A;stroke-width:0.5;"/><text fill="#0E1014" font-family="'Inter, Helvetica, sans-serif'" font-size="12" lengthAdjust="spacing" textLength="213.0798" x="1287" y="1213.5513">Resolved once at the start of the bulk</text><text fill="#0E1014" font-family="'Inter, Helvetica, sans-serif'" font-size="12" lengthAdjust="spacing" textLength="232.8009" x="1287" y="1228.0737">run: validates the configured GGUF + the</text><text fill="#0E1014" font-family="'Inter, Helvetica, sans-serif'" font-size="12" lengthAdjust="spacing" textLength="235.5451" x="1287" y="1242.5961">llama-embedding binary derived from the</text><text fill="#0E1014" font-family="'Inter, Helvetica, sans-serif'" font-size="12" lengthAdjust="spacing" textLength="224.4147" x="1287" y="1257.1184">llama-server runner. Throws on missing</text><text fill="#0E1014" font-family="'Inter, Helvetica, sans-serif'" font-size="12" lengthAdjust="spacing" textLength="223.7159" x="1287" y="1271.6408">config (caller silently skips projections).</text><path d="M947.1341,1291.5384 L1014.1107,1291.5384 L1014.1107,1298.0608 L1004.1107,1308.0608 L943.1341,1308.0608 L943.1341,1295.5384 A4,4 0 0 1 947.1341,1291.5384" fill="#EEEEEE" style="stroke:#C68A3A;stroke-width:1.5;"/><rect fill="none" height="303.8354" rx="4" ry="4" style="stroke:#C68A3A;stroke-width:1.5;" width="757.3584" x="943.1341" y="1291.5384"/><text fill="#000000" font-family="'Inter, Helvetica, sans-serif'" font-size="12" font-weight="700" lengthAdjust="spacing" textLength="25.9766" x="958.1341" y="1304.1631">loop</text><text fill="#C68A3A" font-family="'Inter, Helvetica, sans-serif'" font-size="12" font-weight="700" lengthAdjust="spacing" textLength="239.4488" x="1029.1107" y="1305.1631">[per model with freegen_text to project]</text><g class="message" data-entity-1="part7" data-entity-2="part8" data-source-line="74" id="msg21"><polygon fill="#1A1D24" points="1264.0386,1324.5831,1274.0386,1328.5831,1264.0386,1332.5831,1268.0386,1328.5831" style="stroke:#1A1D24;stroke-width:1;stroke-linejoin:miter;stroke-miterlimit:10;"/><line style="stroke:#1A1D24;stroke-width:1;" x1="1007.988" x2="1270.0386" y1="1328.5831" y2="1328.5831"/><text fill="#000000" font-family="'Inter, Helvetica, sans-serif'" font-size="12" lengthAdjust="spacing" textLength="206.33" x="1014.988" y="1323.6855">embed([freegen_text, ...17 anchors])</text></g><g class="message" data-entity-1="part8" data-entity-2="part9" data-source-line="75" id="msg22"><polygon fill="#1A1D24" points="1458.3865,1353.1055,1468.3865,1357.1055,1458.3865,1361.1055,1462.3865,1357.1055" style="stroke:#1A1D24;stroke-width:1;stroke-linejoin:miter;stroke-miterlimit:10;"/><line style="stroke:#1A1D24;stroke-width:1;" x1="1276.0386" x2="1464.3865" y1="1357.1055" y2="1357.1055"/><text fill="#000000" font-family="'Inter, Helvetica, sans-serif'" font-size="12" lengthAdjust="spacing" textLength="170.3479" x="1283.0386" y="1352.2078">write texts joined by &lt;#sep#&gt;</text></g><g class="message" data-entity-1="part8" data-entity-2="part10" data-source-line="76" id="msg23"><polygon fill="#1A1D24" points="1610.0537,1468.762,1620.0537,1472.762,1610.0537,1476.762,1614.0537,1472.762" style="stroke:#1A1D24;stroke-width:1;stroke-linejoin:miter;stroke-miterlimit:10;"/><line style="stroke:#1A1D24;stroke-width:1;" x1="1276.0386" x2="1616.0537" y1="1472.762" y2="1472.762"/><text fill="#000000" font-family="'Inter, Helvetica, sans-serif'" font-size="12" lengthAdjust="spacing" textLength="40.4308" x="1283.0386" y="1380.7302">spawn:</text><text fill="#000000" font-family="'Inter, Helvetica, sans-serif'" font-size="12" lengthAdjust="spacing" textLength="83.4354" x="1289.7884" y="1395.2526">-m model.gguf</text><text fill="#000000" font-family="'Inter, Helvetica, sans-serif'" font-size="12" lengthAdjust="spacing" textLength="53.8452" x="1289.7884" y="1409.7749">-f tmp.txt</text><text fill="#000000" font-family="'Inter, Helvetica, sans-serif'" font-size="12" lengthAdjust="spacing" textLength="158.3482" x="1289.7884" y="1424.2973">--embd-separator &lt;#sep#&gt;</text><text fill="#000000" font-family="'Inter, Helvetica, sans-serif'" font-size="12" lengthAdjust="spacing" textLength="155.7403" x="1289.7884" y="1438.8196">--embd-output-format json</text><text fill="#000000" font-family="'Inter, Helvetica, sans-serif'" font-size="12" lengthAdjust="spacing" textLength="114.5425" x="1289.7884" y="1453.342">--embd-normalize 2</text><text fill="#000000" font-family="'Inter, Helvetica, sans-serif'" font-size="12" lengthAdjust="spacing" textLength="74.5038" x="1289.7884" y="1467.8644">--log-disable</text></g><g class="message" data-entity-1="part10" data-entity-2="part8" data-source-line="77" id="msg24"><polygon fill="#1A1D24" points="1287.0386,1511.8067,1277.0386,1515.8067,1287.0386,1519.8067,1283.0386,1515.8067" style="stroke:#1A1D24;stroke-width:1;stroke-linejoin:miter;stroke-miterlimit:10;"/><line style="stroke:#1A1D24;stroke-width:1;stroke-dasharray:2,2;" x1="1281.0386" x2="1621.0537" y1="1515.8067" y2="1515.8067"/><text fill="#000000" font-family="'Inter, Helvetica, sans-serif'" font-size="12" lengthAdjust="spacing" textLength="154.3768" x="1293.0386" y="1496.3867">JSON {data:[{embedding}]}</text><text fill="#000000" font-family="'Inter, Helvetica, sans-serif'" font-size="12" lengthAdjust="spacing" textLength="150.9677" x="1293.0386" y="1510.9091">(process exits, RAM freed)</text></g><g class="message" data-entity-1="part8" data-entity-2="part9" data-source-line="78" id="msg25"><polygon fill="#1A1D24" points="1458.3865,1540.3291,1468.3865,1544.3291,1458.3865,1548.3291,1462.3865,1544.3291" style="stroke:#1A1D24;stroke-width:1;stroke-linejoin:miter;stroke-miterlimit:10;"/><line style="stroke:#1A1D24;stroke-width:1;" x1="1276.0386" x2="1464.3865" y1="1544.3291" y2="1544.3291"/><text fill="#000000" font-family="'Inter, Helvetica, sans-serif'" font-size="12" lengthAdjust="spacing" textLength="147.6099" x="1283.0386" y="1539.4314">unlink (best-effort, finally)</text></g><g class="message" data-entity-1="part8" data-entity-2="part7" data-source-line="79" id="msg26"><polygon fill="#1A1D24" points="1018.988,1583.3738,1008.988,1587.3738,1018.988,1591.3738,1014.988,1587.3738" style="stroke:#1A1D24;stroke-width:1;stroke-linejoin:miter;stroke-miterlimit:10;"/><line style="stroke:#1A1D24;stroke-width:1;stroke-dasharray:2,2;" x1="1012.988" x2="1275.0386" y1="1587.3738" y2="1587.3738"/><text fill="#000000" font-family="'Inter, Helvetica, sans-serif'" font-size="12" lengthAdjust="spacing" textLength="82.2593" x="1024.988" y="1567.9538">Float32Array[]</text><text fill="#000000" font-family="'Inter, Helvetica, sans-serif'" font-size="12" lengthAdjust="spacing" textLength="97.0543" x="1024.988" y="1582.4761">(sorted by index)</text></g><path d="M1627,1611.3738 L1627,1685.3738 A4,4 0 0 0 1631,1689.3738 L1861,1689.3738 A4,4 0 0 0 1865,1685.3738 L1865,1617.3738 L1855,1607.3738 L1631,1607.3738 A4,4 0 0 0 1627,1611.3738" fill="#FFFDF6" style="stroke:#C68A3A;stroke-width:0.5;"/><path d="M1855,1607.3738 L1855,1615.3738 A2,2 0 0 0 1857,1617.3738 L1865,1617.3738 L1855,1607.3738" fill="#FFFDF6" style="stroke:#C68A3A;stroke-width:0.5;"/><text fill="#0E1014" font-family="'Inter, Helvetica, sans-serif'" font-size="12" lengthAdjust="spacing" textLength="210.4549" x="1633" y="1623.9985">Zero resident memory between calls.</text><text fill="#0E1014" font-family="'Inter, Helvetica, sans-serif'" font-size="12" lengthAdjust="spacing" textLength="217.8353" x="1633" y="1638.5209">Cost: ~3 s startup &#215; N models, but the</text><text fill="#0E1014" font-family="'Inter, Helvetica, sans-serif'" font-size="12" lengthAdjust="spacing" textLength="195.4552" x="1633" y="1653.0432">test model never coexists with the</text><text fill="#0E1014" font-family="'Inter, Helvetica, sans-serif'" font-size="12" lengthAdjust="spacing" textLength="205.2391" x="1633" y="1667.5656">embedder in RAM &#8212; solves the bulk</text><text fill="#0E1014" font-family="'Inter, Helvetica, sans-serif'" font-size="12" lengthAdjust="spacing" textLength="161.0925" x="1633" y="1682.0879">"VRAM competing" problem.</text><?plantuml-src ZLRRRXit47tNLqoT1qkDLhwaIGEXJY4BTk96la2-F3GER6ftLcBC9RSarx9gkEXJ-nuKw0VrJ_8b7PBQrKfHWJuONf5pdpDd-0sNiIWIX4vdwsR-RRQCdGdiy28JZORbLY0SP2DC4jJmvVU_m4uLQ5LODD3StTvz5Ms_Z7PVWE5oB33AcJ6WSQgvnLQZiRS7GoSBFQzxYz8K6ajxGsJ9hDcwXQP1VO-w3ON114Qpu61_TeMnLTgqO6-lqSYPjZpcEPCMDfO5hcMJIukQnPRV8_nIe9wrDe0P69vUNXmig-BS-u2d6CzYWLvmq5-MuZ9A1HzFxBKKh93n17AjCcw2zD79uU3exRkBPHt1ZHqMKb8fci7zuEXyLSORErO9YltP6REJ8DUxFEc_Mv4KB6DHgCorZA8GDzc6vkljrpl1mS7n_itvyAhHy8b2z8OIWIwigtFA1Jg7RNZCdFiVdwX1J5XWKja9TJTcGj0_9hIJXn0f-Mk0Cqgcowp90PioRi6m3Ckwa5Hr7vLnQ3G5UMXgT9rjpItHRGYt2uyZPl1IYpRaF6c3KOMEiRiPv3UV6YWCGigriLjAYjaynYeYLr-o8fIwWrHfk0r1Ox8_wy9csUdDsslv7Chy8MEMslcS4YMma2bVWtdIEhIFJY4Ohr9vz04MMZo5o_LvT9t4cZm0V2OICJ5WSZQLbPMvVODsKS15JIiPZn2Nwog0cjSIe9Rt8ksskycLjbrmYF4_uy9ObVNqs7GtQvZQl9Qju2tu8OzpQBdGNBpGT9QyeMN9hmhK1dKNYkGgEv-Ub57v4t_wLV5a8GHn00aGxbFgy8Z5Ts0L35y6LxvsPOfp6zJp70ffkO2j-vqj3sa3f--1OF1gsu3b6H99pANBCYwIIj6XeARQ_Cx0g4Z6Q5kLaak0C9mhIG6Slg_EeJ9KfR-xlLsx_dymBrFQVAfKVQhK_XY9IF61Q3HPCLl30hKoFmkoJJBS-ky0N8cNVHYgd80fqrc9zoKN7f82COSTir2KPJ3bL_c_faMColI28OEC-siGpo1eHwgWKiUu07qbuq9hbF4iCYp5BX07kXaNdiKvRHapOTfDmkd9GGacjqia4Y_EeMcdFCOEoPnxjgJSsCoj8SCJ3oc2X53JI33h79MMdS8XmPAO4hxy-Jd0q7si8B439mTN1qEm4wscf4MvW4kbjjxsv-lDZTCLPmD7tNt1_MvJ4YCpKNQntKQ5k8EOqg9zHP7yYZqXrkou5GbQSZdgoAFLepziWFwxtl2cDnYiNt8KHCUQQbNq1qVBSZRBFJ6IyOoXiPgpG0hHjntxO8EBY-EpTQkf8eyEFZW3eHTV_lZiSTkgExqv6vxs6uqord8IwIOi2INkgsr58H_APkjQEal-y9389sPkK634fUVmv-3huBvRAxWgymGO1iC94CWGcAKEEjnJ9axE_N2T845Y_IxSqpv8c7lNk9jOoPIF2He9l7rxUKWEwPH4Lr9t0J4z0ugREqyf4VUIPDZVVg-Wxi25nn051CJl9anUSELIzFite8zsdRdZkN5Sy8bUEPmeg5N7dkS_0aGe14mvLINLY6EKDnOVhEFFkQwRixMLzsaqFzJLslGOxEnyJu-2U48lgu-EKqe5qYKea9v_te4JD_19SHbW_SCpW_cpDyiATG2KgwJh5b6KXSWxut6H-WDgIPOxrFbVhiO9bS_n0RtnIkkrEvgylB0HJJTjTFXabAnTIdSgQ79WDvmADOuIRjX8u2B245QqL9IVpazFu96GmBeV7gj6FtrySWDO8sRJXc7lsDSyMLkbGWekxw0vehcACAKugRefuKM8sP82QLJzwSAXKCo-sErfpMOVFhgv8iLGOIuJV6Yj8zEbEGFu6RLQy5-6cIACZj1E4QL_Gtdowoj3JuFVwF4UfgB8uP-_uIJqXT8R5NQEPPeAEmTQuDrOKGaCjT_ZBWYLd4DX-ieuIlG3QEgpjd7bxcALvMYfhXiEfDIJh8RjVm40?></g></svg>