<svg xmlns="http://www.w3.org/2000/svg" xmlns:xlink="http://www.w3.org/1999/xlink" contentStyleType="text/css" data-diagram-type="STATE" height="2159px" preserveAspectRatio="none" style="width:658px;height:2159px;background:#F4EEE3;" version="1.1" viewBox="0 0 658 2159" width="658px" zoomAndPan="magnify"><?plantuml 1.2026.4?><defs/><g><rect fill="#F4EEE3" height="2159" style="stroke:none;stroke-width:1;" width="658" x="0" y="0"/><g class="title" data-source-line="3"><text fill="#000000" font-family="'Inter, Helvetica, sans-serif'" font-size="14" font-weight="700" lengthAdjust="spacing" textLength="385.65" x="133.0649" y="23.5623">Free-gen probe &#8212; slice 7c, 2-phase split (2026-05-22)</text></g><!--cluster PHASE1--><g class="cluster" data-qualified-name="PHASE1" data-source-line="8" id="ent0003"><path d="M22,290.9429 L230,290.9429 A4,4 0 0 1 234,294.9429 L234,324.9876 L18,324.9876 L18,294.9429 A4,4 0 0 1 22,290.9429" fill="#F1F1F1"/><rect fill="none" height="514.36" rx="4" ry="4" style="stroke:#181818;stroke-width:0.5;" width="216" x="18" y="290.9429"/><line style="stroke:#181818;stroke-width:0.5;" x1="18" x2="234" y1="324.9876" y2="324.9876"/><text fill="#000000" font-family="'Inter, Helvetica, sans-serif'" font-size="12" lengthAdjust="spacing" textLength="116.4175" x="67.7913" y="306.5676">PHASE 1 &#8212; text only</text><text fill="#000000" font-family="'Inter, Helvetica, sans-serif'" font-size="12" lengthAdjust="spacing" textLength="200.5007" x="25.7497" y="321.0899">freegen.generateFreeGenText(ask)</text></g><!--cluster PHASE2--><g class="cluster" data-qualified-name="PHASE2" data-source-line="16" id="ent0008"><path d="M11,1275.3029 L237,1275.3029 A4,4 0 0 1 241,1279.3029 L241,1338.3923 L7,1338.3923 L7,1279.3029 A4,4 0 0 1 11,1275.3029" fill="#F1F1F1"/><rect fill="none" height="634.86" rx="4" ry="4" style="stroke:#181818;stroke-width:0.5;" width="234" x="7" y="1275.3029"/><line style="stroke:#181818;stroke-width:0.5;" x1="7" x2="241" y1="1338.3923" y2="1338.3923"/><text fill="#000000" font-family="'Inter, Helvetica, sans-serif'" font-size="12" lengthAdjust="spacing" textLength="125.69" x="61.155" y="1290.9276">PHASE 2 &#8212; projection</text><text fill="#000000" font-family="'Inter, Helvetica, sans-serif'" font-size="12" lengthAdjust="spacing" textLength="165.5242" x="41.2379" y="1305.4499">freegen.projectFreeGenText(</text><text fill="#000000" font-family="'Inter, Helvetica, sans-serif'" font-size="12" lengthAdjust="spacing" textLength="120.4401" x="67.1549" y="1319.9723">text, embed, anchors</text><text fill="#000000" font-family="'Inter, Helvetica, sans-serif'" font-size="12" lengthAdjust="spacing" textLength="4.3465" x="121.8268" y="1334.4947">)</text></g><g class="entity" data-qualified-name="PHASE1.ASK" data-source-line="9" id="ent0004"><rect fill="#F1F1F1" height="78.0894" rx="4" ry="4" style="stroke:#181818;stroke-width:0.5;" width="130.0256" x="72" y="449.3029"/><line style="stroke:#181818;stroke-width:0.5;" x1="72" x2="202.0256" y1="517.3923" y2="517.3923"/><text fill="#000000" font-family="'Inter, Helvetica, sans-serif'" font-size="12" lengthAdjust="spacing" textLength="74.2651" x="82" y="465.9276">1&#215; model call</text><text fill="#000000" font-family="'Inter, Helvetica, sans-serif'" font-size="12" lengthAdjust="spacing" textLength="110.0256" x="82" y="480.4499">FREEGEN_PROMPT</text><text fill="#000000" font-family="'Inter, Helvetica, sans-serif'" font-size="12" lengthAdjust="spacing" textLength="81.032" x="82" y="494.9723">(topic-neutral,</text><text fill="#000000" font-family="'Inter, Helvetica, sans-serif'" font-size="12" lengthAdjust="spacing" textLength="101.1281" x="82" y="509.4947">~600-800 words)</text></g><g class="entity" data-qualified-name="PHASE1.STRIP" data-source-line="10" id="ent0005"><rect fill="#F1F1F1" height="50" rx="4" ry="4" style="stroke:#181818;stroke-width:0.5;" width="151.4853" x="56.5" y="597.3029"/><line style="stroke:#181818;stroke-width:0.5;" x1="56.5" x2="207.9853" y1="636.3476" y2="636.3476"/><text fill="#000000" font-family="'Inter, Helvetica, sans-serif'" font-size="12" lengthAdjust="spacing" textLength="131.4853" x="66.5" y="613.9276">Strip &lt;think&gt;&#8230;&lt;/think&gt;</text><text fill="#000000" font-family="'Inter, Helvetica, sans-serif'" font-size="12" lengthAdjust="spacing" textLength="28.4652" x="66.5" y="628.4499">(D11)</text></g><g class="entity" data-qualified-name="PHASE1.TEXT_OUT" data-source-line="11" id="ent0006"><rect fill="#F1F1F1" height="63.5671" rx="4" ry="4" style="stroke:#181818;stroke-width:0.5;" width="163.8941" x="46" y="717.3029"/><line style="stroke:#181818;stroke-width:0.5;" x1="46" x2="209.8941" y1="770.87" y2="770.87"/><text fill="#000000" font-family="'Inter, Helvetica, sans-serif'" font-size="12" lengthAdjust="spacing" textLength="42.4251" x="56" y="733.9276">Output:</text><text fill="#000000" font-family="'Inter, Helvetica, sans-serif'" font-size="12" lengthAdjust="spacing" textLength="143.8941" x="56" y="748.4499">&#8226; freegen_text (verbatim)</text><text fill="#000000" font-family="'Inter, Helvetica, sans-serif'" font-size="12" lengthAdjust="spacing" textLength="94.7362" x="56" y="762.9723">&#8226; freegen_words</text></g><g class="entity" data-qualified-name="PHASE2.EMB_TEXT" data-source-line="17" id="ent0009"><rect fill="#F1F1F1" height="50" rx="4" ry="4" style="stroke:#181818;stroke-width:0.5;" width="140.4742" x="54" y="1447.1629"/><line style="stroke:#181818;stroke-width:0.5;" x1="54" x2="194.4742" y1="1486.2076" y2="1486.2076"/><text fill="#000000" font-family="'Inter, Helvetica, sans-serif'" font-size="12" lengthAdjust="spacing" textLength="78.6968" x="64" y="1463.7876">1&#215; embed call</text><text fill="#000000" font-family="'Inter, Helvetica, sans-serif'" font-size="12" lengthAdjust="spacing" textLength="120.4742" x="64" y="1478.3099">(stored freegen_text)</text></g><g class="entity" data-qualified-name="PHASE2.EMB_ANCHORS" data-source-line="18" id="ent0010"><rect fill="#F1F1F1" height="78.0894" rx="4" ry="4" style="stroke:#181818;stroke-width:0.5;" width="163.9622" x="42" y="1558.1629"/><line style="stroke:#181818;stroke-width:0.5;" x1="42" x2="205.9622" y1="1626.2523" y2="1626.2523"/><text fill="#000000" font-family="'Inter, Helvetica, sans-serif'" font-size="12" lengthAdjust="spacing" textLength="87.2194" x="52" y="1574.7876">K&#215; embed calls</text><text fill="#000000" font-family="'Inter, Helvetica, sans-serif'" font-size="12" lengthAdjust="spacing" textLength="105.3041" x="52" y="1589.3099">(17 leaf anchors &#8212;</text><text fill="#000000" font-family="'Inter, Helvetica, sans-serif'" font-size="12" lengthAdjust="spacing" textLength="84.5944" x="52" y="1603.8323">batched in one</text><text fill="#000000" font-family="'Inter, Helvetica, sans-serif'" font-size="12" lengthAdjust="spacing" textLength="143.9622" x="52" y="1618.3547">llama-embedding spawn)</text></g><g class="entity" data-qualified-name="PHASE2.PROJECT" data-source-line="19" id="ent0011"><rect fill="#F1F1F1" height="63.5671" rx="4" ry="4" style="stroke:#181818;stroke-width:0.5;" width="139.6731" x="54" y="1697.1629"/><line style="stroke:#181818;stroke-width:0.5;" x1="54" x2="193.6731" y1="1750.73" y2="1750.73"/><text fill="#000000" font-family="'Inter, Helvetica, sans-serif'" font-size="12" lengthAdjust="spacing" textLength="99.2531" x="64" y="1713.7876">Cosine projection</text><text fill="#000000" font-family="'Inter, Helvetica, sans-serif'" font-size="12" lengthAdjust="spacing" textLength="99.202" x="64" y="1728.3099">onto each anchor</text><text fill="#000000" font-family="'Inter, Helvetica, sans-serif'" font-size="12" lengthAdjust="spacing" textLength="119.6731" x="64" y="1742.8323">(probe-anchors.json)</text></g><g class="entity" data-qualified-name="PHASE2.PROJ_OUT" data-source-line="20" id="ent0012"><rect fill="#F1F1F1" height="63.5671" rx="4" ry="4" style="stroke:#181818;stroke-width:0.5;" width="186.0867" x="31" y="1822.1629"/><line style="stroke:#181818;stroke-width:0.5;" x1="31" x2="217.0867" y1="1875.73" y2="1875.73"/><text fill="#000000" font-family="'Inter, Helvetica, sans-serif'" font-size="12" lengthAdjust="spacing" textLength="42.4251" x="41" y="1838.7876">Output:</text><text fill="#000000" font-family="'Inter, Helvetica, sans-serif'" font-size="12" lengthAdjust="spacing" textLength="147.5247" x="41" y="1853.3099">&#8226; topic_coverage_per_leaf</text><text fill="#000000" font-family="'Inter, Helvetica, sans-serif'" font-size="12" lengthAdjust="spacing" textLength="166.0867" x="41" y="1867.8323">&#8226; topic_coverage_per_branch</text></g><g class="entity" data-qualified-name="TREE_DONE" data-source-line="5" id="ent0001"><rect fill="#F1F1F1" height="50" rx="4" ry="4" style="stroke:#181818;stroke-width:0.5;" width="141.3265" x="210.5" y="44.9429"/><line style="stroke:#181818;stroke-width:0.5;" x1="210.5" x2="351.8265" y1="83.9876" y2="83.9876"/><text fill="#000000" font-family="'Inter, Helvetica, sans-serif'" font-size="12" lengthAdjust="spacing" textLength="121.3265" x="220.5" y="61.5676">Tree characterization</text><text fill="#000000" font-family="'Inter, Helvetica, sans-serif'" font-size="12" lengthAdjust="spacing" textLength="100.344" x="220.5" y="76.0899">finished (slice 4c)</text></g><g class="entity" data-qualified-name="GATE_FG" data-source-line="6" id="ent0002"><rect fill="#F1F1F1" height="50" rx="4" ry="4" style="stroke:#181818;stroke-width:0.5;" width="193.5353" x="184" y="155.9429"/><line style="stroke:#181818;stroke-width:0.5;" x1="184" x2="377.5353" y1="194.9876" y2="194.9876"/><text fill="#000000" font-family="'Inter, Helvetica, sans-serif'" font-size="12" lengthAdjust="spacing" textLength="110.7245" x="194" y="172.5676">characterizeTree.ts</text><text fill="#000000" font-family="'Inter, Helvetica, sans-serif'" font-size="12" lengthAdjust="spacing" textLength="166.7855" x="200.7498" y="187.0899">if (opts.freegen !== false) {&#8230;}</text></g><g class="entity" data-qualified-name="MERGE_TEXT" data-source-line="14" id="ent0007"><rect fill="#F1F1F1" height="63.5671" rx="4" ry="4" style="stroke:#181818;stroke-width:0.5;" width="137.3379" x="59.5" y="860.3029"/><line style="stroke:#181818;stroke-width:0.5;" x1="59.5" x2="196.8379" y1="913.87" y2="913.87"/><text fill="#000000" font-family="'Inter, Helvetica, sans-serif'" font-size="12" lengthAdjust="spacing" textLength="117.3379" x="69.5" y="876.9276">merge into signature</text><text fill="#000000" font-family="'Inter, Helvetica, sans-serif'" font-size="12" lengthAdjust="spacing" textLength="56.9815" x="69.5" y="891.4499">(text only,</text><text fill="#000000" font-family="'Inter, Helvetica, sans-serif'" font-size="12" lengthAdjust="spacing" textLength="104.1621" x="69.5" y="905.9723">NO projection yet)</text></g><g class="entity" data-qualified-name="MERGE_PROJ" data-source-line="23" id="ent0013"><rect fill="#F1F1F1" height="50" rx="4" ry="4" style="stroke:#181818;stroke-width:0.5;" width="141.1901" x="53.5" y="1965.1629"/><line style="stroke:#181818;stroke-width:0.5;" x1="53.5" x2="194.6901" y1="2004.2076" y2="2004.2076"/><text fill="#000000" font-family="'Inter, Helvetica, sans-serif'" font-size="12" lengthAdjust="spacing" textLength="121.1901" x="63.5" y="1981.7876">merge projection into</text><text fill="#000000" font-family="'Inter, Helvetica, sans-serif'" font-size="12" lengthAdjust="spacing" textLength="110.4688" x="63.5" y="1996.3099">signature (additive)</text></g><g class="entity" data-qualified-name="SKIP_FG" data-source-line="25" id="ent0014"><rect fill="#F1F1F1" height="50" rx="4" ry="4" style="stroke:#181818;stroke-width:0.5;" width="158.8828" x="259.5" y="306.3029"/><line style="stroke:#181818;stroke-width:0.5;" x1="259.5" x2="418.3828" y1="345.3476" y2="345.3476"/><text fill="#000000" font-family="'Inter, Helvetica, sans-serif'" font-size="12" lengthAdjust="spacing" textLength="95.5373" x="269.5" y="322.9276">freegen disabled</text><text fill="#000000" font-family="'Inter, Helvetica, sans-serif'" font-size="12" lengthAdjust="spacing" textLength="138.8828" x="269.5" y="337.4499">(opts.freegen === false)</text></g><g class="entity" data-qualified-name="SKIP_E" data-source-line="26" id="ent0015"><rect fill="#F1F1F1" height="63.5671" rx="4" ry="4" style="stroke:#181818;stroke-width:0.5;" width="163.2464" x="261.5" y="456.3029"/><line style="stroke:#181818;stroke-width:0.5;" x1="261.5" x2="424.7464" y1="509.87" y2="509.87"/><text fill="#000000" font-family="'Inter, Helvetica, sans-serif'" font-size="12" lengthAdjust="spacing" textLength="79.5832" x="271.5" y="472.9276">phase 1 throw</text><text fill="#000000" font-family="'Inter, Helvetica, sans-serif'" font-size="12" lengthAdjust="spacing" textLength="143.2464" x="271.5" y="487.4499">(empty response, etc.) &#8594;</text><text fill="#000000" font-family="'Inter, Helvetica, sans-serif'" font-size="12" lengthAdjust="spacing" textLength="132.7977" x="271.5" y="501.9723">isolated, tree pass kept</text></g><g class="entity" data-qualified-name="BULK_LOOP" data-source-line="36" id="ent0016"><rect fill="#F1F1F1" height="50" rx="4" ry="4" style="stroke:#181818;stroke-width:0.5;" width="142.8775" x="56.5" y="1015.3029"/><line style="stroke:#181818;stroke-width:0.5;" x1="56.5" x2="199.3775" y1="1054.3476" y2="1054.3476"/><text fill="#000000" font-family="'Inter, Helvetica, sans-serif'" font-size="12" lengthAdjust="spacing" textLength="84.441" x="66.5" y="1031.9276">characterizeAll</text><text fill="#000000" font-family="'Inter, Helvetica, sans-serif'" font-size="12" lengthAdjust="spacing" textLength="122.8775" x="66.5" y="1046.4499">(bulk per-model loop)</text></g><g class="entity" data-qualified-name="PROJ_GATE" data-source-line="37" id="ent0017"><rect fill="#F1F1F1" height="50" rx="4" ry="4" style="stroke:#181818;stroke-width:0.5;" width="171.8029" x="42" y="1126.3029"/><line style="stroke:#181818;stroke-width:0.5;" x1="42" x2="213.8029" y1="1165.3476" y2="1165.3476"/><text fill="#000000" font-family="'Inter, Helvetica, sans-serif'" font-size="12" lengthAdjust="spacing" textLength="86.2137" x="52" y="1142.9276">skipProjection?</text><text fill="#000000" font-family="'Inter, Helvetica, sans-serif'" font-size="12" lengthAdjust="spacing" textLength="151.8029" x="52" y="1157.4499">OR embedder unavailable?</text></g><g class="end_entity" data-qualified-name=".end." data-source-line="41" id="ent0028"><ellipse cx="277" cy="1344.6629" fill="none" rx="11" ry="11" style="stroke:#222222;stroke-width:1;"/><ellipse cx="277" cy="1344.6629" fill="#222222" rx="6" ry="6" style="stroke:#222222;stroke-width:1;"/></g><g class="entity" data-qualified-name="GMN36" data-source-line="52" id="ent0037"><path d="M454,308.3029 L454,353.87 A4,4 0 0 0 458,357.87 L639.7798,357.87 A4,4 0 0 0 643.7798,353.87 L643.7798,314.3029 L633.7798,304.3029 L458,304.3029 A4,4 0 0 0 454,308.3029" fill="#FFFDF6" style="stroke:#C68A3A;stroke-width:0.5;"/><path d="M633.7798,304.3029 L633.7798,312.3029 A2,2 0 0 0 635.7798,314.3029 L643.7798,314.3029 L633.7798,304.3029" fill="#FFFDF6" style="stroke:#C68A3A;stroke-width:1;"/><text fill="#0E1014" font-family="'Inter, Helvetica, sans-serif'" font-size="12" lengthAdjust="spacing" textLength="168.7798" x="460" y="320.9276">NO EMBEDDER touched here.</text><text fill="#0E1014" font-family="'Inter, Helvetica, sans-serif'" font-size="12" lengthAdjust="spacing" textLength="156.9846" x="460" y="335.4499">Test model is the only thing</text><text fill="#0E1014" font-family="'Inter, Helvetica, sans-serif'" font-size="12" lengthAdjust="spacing" textLength="129.2012" x="460" y="349.9723">in RAM during phase 1.</text></g><g class="entity" data-qualified-name="GMN39" data-source-line="58" id="ent0040"><path d="M323.5,1307.1629 L323.5,1381.7747 A4,4 0 0 0 327.5,1385.7747 L540.0119,1385.7747 A4,4 0 0 0 544.0119,1381.7747 L544.0119,1313.1629 L534.0119,1303.1629 L327.5,1303.1629 A4,4 0 0 0 323.5,1307.1629" fill="#FFFDF6" style="stroke:#C68A3A;stroke-width:0.5;"/><path d="M534.0119,1303.1629 L534.0119,1311.1629 A2,2 0 0 0 536.0119,1313.1629 L544.0119,1313.1629 L534.0119,1303.1629" fill="#FFFDF6" style="stroke:#C68A3A;stroke-width:1;"/><text fill="#0E1014" font-family="'Inter, Helvetica, sans-serif'" font-size="12" lengthAdjust="spacing" textLength="183.4044" x="329.5" y="1319.7876">Bulk path: one llama-embedding</text><text fill="#0E1014" font-family="'Inter, Helvetica, sans-serif'" font-size="12" lengthAdjust="spacing" textLength="199.5119" x="329.5" y="1334.3099">spawn per model (embedderCli.ts),</text><text fill="#0E1014" font-family="'Inter, Helvetica, sans-serif'" font-size="12" lengthAdjust="spacing" textLength="157.0528" x="329.5" y="1348.8323">process exits &#8594; RAM freed.</text><text fill="#0E1014" font-family="'Inter, Helvetica, sans-serif'" font-size="12" lengthAdjust="spacing" textLength="181.1715" x="329.5" y="1363.3547">Test model is NEVER coexistent</text><text fill="#0E1014" font-family="'Inter, Helvetica, sans-serif'" font-size="12" lengthAdjust="spacing" textLength="110.7585" x="329.5" y="1377.877">with the embedder.</text></g><g class="entity" data-qualified-name="GMN42" data-source-line="66" id="ent0043"><path d="M25.5,2080.1629 L25.5,2140.2523 A4,4 0 0 0 29.5,2144.2523 L218.2173,2144.2523 A4,4 0 0 0 222.2173,2140.2523 L222.2173,2086.1629 L212.2173,2076.1629 L128,2076.1629 L124,2015.3229 L120,2076.1629 L29.5,2076.1629 A4,4 0 0 0 25.5,2080.1629" fill="#FFFDF6" style="stroke:#C68A3A;stroke-width:0.5;"/><path d="M212.2173,2076.1629 L212.2173,2084.1629 A2,2 0 0 0 214.2173,2086.1629 L222.2173,2086.1629 L212.2173,2076.1629" fill="#FFFDF6" style="stroke:#C68A3A;stroke-width:0.5;"/><text fill="#0E1014" font-family="'Inter, Helvetica, sans-serif'" font-size="12" lengthAdjust="spacing" textLength="55.0384" x="31.5" y="2092.7876">Fields are</text><text fill="#0E1014" font-family="'Inter, Helvetica, sans-serif'" font-size="12" font-weight="700" lengthAdjust="spacing" textLength="117.304" x="89.9133" y="2092.7876">additional evidence</text><text fill="#0E1014" font-family="'Inter, Helvetica, sans-serif'" font-size="12" lengthAdjust="spacing" textLength="174.6773" x="31.5" y="2107.3099">in routing (&#945;=0.7 deterministic,</text><text fill="#0E1014" font-family="'Inter, Helvetica, sans-serif'" font-size="12" lengthAdjust="spacing" textLength="170.2116" x="31.5" y="2121.8323">&#946;=0.3 coverage blend). Never</text><text fill="#0E1014" font-family="'Inter, Helvetica, sans-serif'" font-size="12" lengthAdjust="spacing" textLength="149.0758" x="31.5" y="2136.3547">replace `scores_per_leaf`.</text></g><g class="entity" data-qualified-name="GMN45" data-source-line="73" id="ent0046"><path d="M258.5,592.3029 L258.5,652.3923 A4,4 0 0 0 262.5,656.3923 L427.9507,656.3923 A4,4 0 0 0 431.9507,652.3923 L431.9507,598.3029 L421.9507,588.3029 L348.49,588.3029 L343.47,520.5829 L340.49,588.3029 L262.5,588.3029 A4,4 0 0 0 258.5,592.3029" fill="#FFFDF6" style="stroke:#C68A3A;stroke-width:0.5;"/><path d="M421.9507,588.3029 L421.9507,596.3029 A2,2 0 0 0 423.9507,598.3029 L431.9507,598.3029 L421.9507,588.3029" fill="#FFFDF6" style="stroke:#C68A3A;stroke-width:0.5;"/><text fill="#0E1014" font-family="'Inter, Helvetica, sans-serif'" font-size="12" lengthAdjust="spacing" textLength="147.644" x="264.5" y="604.9276">DECISIONS.md DCC &#167;5 &#8212;</text><text fill="#0E1014" font-family="'Inter, Helvetica, sans-serif'" font-size="12" lengthAdjust="spacing" textLength="146.8258" x="264.5" y="619.4499">probe failure NEVER sinks</text><text fill="#0E1014" font-family="'Inter, Helvetica, sans-serif'" font-size="12" lengthAdjust="spacing" textLength="145.9224" x="264.5" y="633.9723">the tree pass that already</text><text fill="#0E1014" font-family="'Inter, Helvetica, sans-serif'" font-size="12" lengthAdjust="spacing" textLength="152.4507" x="264.5" y="648.4947">computed scores_per_leaf.</text></g><!--link TREE_DONE to GATE_FG--><g class="link" data-entity-1="ent0001" data-entity-2="ent0002" data-link-type="dependency" data-source-line="28" id="lnk18"><path d="M281,95.1329 C281,113.1929 281,132.7729 281,150.8229" fill="none" id="TREE_DONE-to-GATE_FG" style="stroke:#1A1D24;stroke-width:1;"/><polygon fill="#1A1D24" points="281,155.8229,285,146.8229,281,150.8229,277,146.8229,281,155.8229" style="stroke:#1A1D24;stroke-width:1;stroke-linejoin:miter;stroke-miterlimit:10;"/></g><!--link GATE_FG to PHASE1--><g class="link" data-entity-1="ent0002" data-entity-2="ent0003" data-link-type="dependency" data-source-line="29" id="lnk19"><path d="M243.91,205.9729 C234.32,214.2129 225.23,224.3329 220,235.9429 C215.8275,245.2079 213.8519,255.5198 213.2538,265.828 C212.9547,270.9822 213,276.1354 213.2873,281.1565 C213.4309,283.667 213.635,286.1444 213.8868,288.5724 C213.9498,289.1794 214.0157,289.7834 214.0844,290.3839 C214.1016,290.5341 213.5377,285.7179 213.5553,285.8676" fill="none" id="GATE_FG-to-PHASE1" style="stroke:#1A1D24;stroke-width:1;"/><polygon fill="#1A1D24" points="214.1365,290.8337,217.0632,281.4297,213.5553,285.8676,209.1174,282.3597,214.1365,290.8337" style="stroke:#1A1D24;stroke-width:1;stroke-linejoin:miter;stroke-miterlimit:10;"/><text fill="#000000" font-family="'Inter, Helvetica, sans-serif'" font-size="12" lengthAdjust="spacing" textLength="65.6404" x="225.4658" y="248.5676">freegen ON</text><text fill="#000000" font-family="'Inter, Helvetica, sans-serif'" font-size="12" lengthAdjust="spacing" textLength="74.572" x="221" y="263.0899">(default true)</text></g><!--link GATE_FG to SKIP_FG--><g class="link" data-entity-1="ent0002" data-entity-2="ent0014" data-link-type="dependency" data-source-line="30" id="lnk20"><path d="M290.45,206.1129 C301.23,233.7029 316.9483,273.9065 327.7383,301.4865" fill="none" id="GATE_FG-to-SKIP_FG" style="stroke:#1A1D24;stroke-width:1;"/><polygon fill="#1A1D24" points="329.56,306.1429,330.006,296.3041,327.7383,301.4865,322.5559,299.2188,329.56,306.1429" style="stroke:#1A1D24;stroke-width:1;stroke-linejoin:miter;stroke-miterlimit:10;"/><text fill="#000000" font-family="'Inter, Helvetica, sans-serif'" font-size="12" lengthAdjust="spacing" textLength="76.4981" x="314" y="256.0676">explicitly OFF</text></g><!--link PHASE1 to ASK--><g class="link" data-entity-1="ent0003" data-entity-2="ent0004" data-link-type="dependency" data-source-line="31" id="lnk21"><path d="M222.94,332.4129 C221.19,335.5729 185.4263,400.031 160.5463,444.861" fill="none" id="PHASE1-to-ASK" style="stroke:#1A1D24;stroke-width:1;"/><polygon fill="#1A1D24" points="158.12,449.2329,165.9848,443.3046,160.5463,444.861,158.9899,439.4225,158.12,449.2329" style="stroke:#1A1D24;stroke-width:1;stroke-linejoin:miter;stroke-miterlimit:10;"/></g><!--link ASK to STRIP--><g class="link" data-entity-1="ent0004" data-entity-2="ent0005" data-link-type="dependency" data-source-line="32" id="lnk22"><path d="M135.55,527.4829 C134.71,549.8729 133.8501,572.4865 133.1101,591.9365" fill="none" id="ASK-to-STRIP" style="stroke:#1A1D24;stroke-width:1;"/><polygon fill="#1A1D24" points="132.92,596.9329,137.2593,588.0915,133.1101,591.9365,129.2651,587.7873,132.92,596.9329" style="stroke:#1A1D24;stroke-width:1;stroke-linejoin:miter;stroke-miterlimit:10;"/></g><!--link STRIP to TEXT_OUT--><g class="link" data-entity-1="ent0005" data-entity-2="ent0006" data-link-type="dependency" data-source-line="33" id="lnk23"><path d="M131.23,647.4029 C130.59,667.2729 129.8498,690.5854 129.1598,712.1654" fill="none" id="STRIP-to-TEXT_OUT" style="stroke:#1A1D24;stroke-width:1;"/><polygon fill="#1A1D24" points="129,717.1629,133.2856,708.2953,129.1598,712.1654,125.2897,708.0397,129,717.1629" style="stroke:#1A1D24;stroke-width:1;stroke-linejoin:miter;stroke-miterlimit:10;"/></g><!--link TEXT_OUT to MERGE_TEXT--><g class="link" data-entity-1="ent0006" data-entity-2="ent0007" data-link-type="dependency" data-source-line="34" id="lnk24"><path d="M128,781.5929 C128,804.9629 128,831.7529 128,855.1029" fill="none" id="TEXT_OUT-to-MERGE_TEXT" style="stroke:#1A1D24;stroke-width:1;"/><polygon fill="#1A1D24" points="128,860.1029,132,851.1029,128,855.1029,124,851.1029,128,860.1029" style="stroke:#1A1D24;stroke-width:1;stroke-linejoin:miter;stroke-miterlimit:10;"/></g><!--link MERGE_TEXT to BULK_LOOP--><g class="link" data-entity-1="ent0007" data-entity-2="ent0016" data-link-type="dependency" data-source-line="38" id="lnk25"><path d="M128,924.6229 C128,951.7729 128,985.4829 128,1010.2529" fill="none" id="MERGE_TEXT-to-BULK_LOOP" style="stroke:#1A1D24;stroke-width:1;"/><polygon fill="#1A1D24" points="128,1015.2529,132,1006.2529,128,1010.2529,124,1006.2529,128,1015.2529" style="stroke:#1A1D24;stroke-width:1;stroke-linejoin:miter;stroke-miterlimit:10;"/><text fill="#000000" font-family="'Inter, Helvetica, sans-serif'" font-size="12" lengthAdjust="spacing" textLength="117.9686" x="129" y="966.9276">signature saved with</text><text fill="#000000" font-family="'Inter, Helvetica, sans-serif'" font-size="12" lengthAdjust="spacing" textLength="105.8667" x="135.051" y="981.4499">freegen_text alone</text></g><!--link BULK_LOOP to PROJ_GATE--><g class="link" data-entity-1="ent0016" data-entity-2="ent0017" data-link-type="dependency" data-source-line="39" id="lnk26"><path d="M128,1065.4929 C128,1083.5529 128,1103.1329 128,1121.1829" fill="none" id="BULK_LOOP-to-PROJ_GATE" style="stroke:#1A1D24;stroke-width:1;"/><polygon fill="#1A1D24" points="128,1126.1829,132,1117.1829,128,1121.1829,124,1117.1829,128,1126.1829" style="stroke:#1A1D24;stroke-width:1;stroke-linejoin:miter;stroke-miterlimit:10;"/></g><!--link PROJ_GATE to PHASE2--><g class="link" data-entity-1="ent0017" data-entity-2="ent0008" data-link-type="dependency" data-source-line="40" id="lnk27"><path d="M123.65,1176.4129 C122.18,1185.7229 120.72,1196.4729 120,1206.3029 C118.895,1221.2929 118.5763,1237.2235 118.7236,1252.724 C118.7604,1256.5991 118.8264,1260.4473 118.9165,1264.2473 C118.9615,1266.1472 119.0126,1268.0351 119.0691,1269.9082 C119.0973,1270.8448 119.1269,1271.7777 119.1578,1272.7066 C119.1732,1273.171 119.189,1273.6344 119.2051,1274.0968 C119.2131,1274.328 119.0439,1269.562 119.0521,1269.7927" fill="none" id="PROJ_GATE-to-PHASE2" style="stroke:#1A1D24;stroke-width:1;"/><polygon fill="#1A1D24" points="119.2294,1274.7895,122.9078,1265.6534,119.0521,1269.7927,114.9128,1265.937,119.2294,1274.7895" style="stroke:#1A1D24;stroke-width:1;stroke-linejoin:miter;stroke-miterlimit:10;"/><text fill="#000000" font-family="'Inter, Helvetica, sans-serif'" font-size="12" lengthAdjust="spacing" textLength="111.5426" x="121.5369" y="1225.9276">embedder available</text><text fill="#000000" font-family="'Inter, Helvetica, sans-serif'" font-size="12" lengthAdjust="spacing" textLength="112.6164" x="121" y="1240.4499">AND !skipProjection</text></g><!--link PROJ_GATE to *end*--><g class="link" data-entity-1="ent0017" data-entity-2="ent0028" data-link-type="dependency" data-source-line="41" id="lnk29"><path d="M199.31,1176.4429 C213.74,1184.0929 227.64,1193.8929 238,1206.3029 C270.25,1244.9329 275.6901,1303.6765 276.6301,1328.4065" fill="none" id="PROJ_GATE-to-*end*" style="stroke:#1A1D24;stroke-width:1;"/><polygon fill="#1A1D24" points="276.82,1333.4029,280.4753,1324.2574,276.6301,1328.4065,272.481,1324.5613,276.82,1333.4029" style="stroke:#1A1D24;stroke-width:1;stroke-linejoin:miter;stroke-miterlimit:10;"/><text fill="#000000" font-family="'Inter, Helvetica, sans-serif'" font-size="12" lengthAdjust="spacing" textLength="83.1967" x="273.0537" y="1218.9276">skip projection</text><text fill="#000000" font-family="'Inter, Helvetica, sans-serif'" font-size="12" lengthAdjust="spacing" textLength="105.3042" x="262" y="1233.4499">(text stays, can be</text><text fill="#000000" font-family="'Inter, Helvetica, sans-serif'" font-size="12" lengthAdjust="spacing" textLength="87.4239" x="270.9401" y="1247.9723">projected later)</text></g><!--link PHASE2 to EMB_TEXT--><g class="link" data-entity-1="ent0008" data-entity-2="ent0009" data-link-type="dependency" data-source-line="43" id="lnk30"><path d="M124,1345.7529 C124,1348.4729 124,1406.3829 124,1442.0529" fill="none" id="PHASE2-to-EMB_TEXT" style="stroke:#1A1D24;stroke-width:1;"/><polygon fill="#1A1D24" points="124,1447.0529,128,1438.0529,124,1442.0529,120,1438.0529,124,1447.0529" style="stroke:#1A1D24;stroke-width:1;stroke-linejoin:miter;stroke-miterlimit:10;"/></g><!--link EMB_TEXT to EMB_ANCHORS--><g class="link" data-entity-1="ent0009" data-entity-2="ent0010" data-link-type="dependency" data-source-line="44" id="lnk31"><path d="M124,1497.1729 C124,1514.3729 124,1532.8929 124,1552.6929" fill="none" id="EMB_TEXT-to-EMB_ANCHORS" style="stroke:#1A1D24;stroke-width:1;"/><polygon fill="#1A1D24" points="124,1557.6929,128,1548.6929,124,1552.6929,120,1548.6929,124,1557.6929" style="stroke:#1A1D24;stroke-width:1;stroke-linejoin:miter;stroke-miterlimit:10;"/></g><!--link EMB_ANCHORS to PROJECT--><g class="link" data-entity-1="ent0010" data-entity-2="ent0011" data-link-type="dependency" data-source-line="45" id="lnk32"><path d="M124,1636.4629 C124,1655.7829 124,1673.9229 124,1692.1129" fill="none" id="EMB_ANCHORS-to-PROJECT" style="stroke:#1A1D24;stroke-width:1;"/><polygon fill="#1A1D24" points="124,1697.1129,128,1688.1129,124,1692.1129,120,1688.1129,124,1697.1129" style="stroke:#1A1D24;stroke-width:1;stroke-linejoin:miter;stroke-miterlimit:10;"/></g><!--link PROJECT to PROJ_OUT--><g class="link" data-entity-1="ent0011" data-entity-2="ent0012" data-link-type="dependency" data-source-line="46" id="lnk33"><path d="M124,1761.2029 C124,1779.8429 124,1798.4929 124,1817.1329" fill="none" id="PROJECT-to-PROJ_OUT" style="stroke:#1A1D24;stroke-width:1;"/><polygon fill="#1A1D24" points="124,1822.1329,128,1813.1329,124,1817.1329,120,1813.1329,124,1822.1329" style="stroke:#1A1D24;stroke-width:1;stroke-linejoin:miter;stroke-miterlimit:10;"/></g><!--link PROJ_OUT to MERGE_PROJ--><g class="link" data-entity-1="ent0012" data-entity-2="ent0013" data-link-type="dependency" data-source-line="47" id="lnk34"><path d="M124,1886.2429 C124,1910.2129 124,1937.8829 124,1959.9329" fill="none" id="PROJ_OUT-to-MERGE_PROJ" style="stroke:#1A1D24;stroke-width:1;"/><polygon fill="#1A1D24" points="124,1964.9329,128,1955.9329,124,1959.9329,120,1955.9329,124,1964.9329" style="stroke:#1A1D24;stroke-width:1;stroke-linejoin:miter;stroke-miterlimit:10;"/></g><!--link PHASE1 to SKIP_E--><g class="link" data-entity-1="ent0003" data-entity-2="ent0015" data-link-type="dependency" data-source-line="49" id="lnk35"><path d="M234.0786,347.6432 C234.1415,347.729 234.2045,347.815 234.2675,347.901 C234.772,348.5894 235.2828,349.2848 235.7973,349.9835 C237.8556,352.7785 239.975,355.6279 242,358.3029 C267.57,392.1029 294.4814,426.3367 315.1114,452.3267" fill="none" id="PHASE1-to-SKIP_E" style="stroke:#1A1D24;stroke-width:1;"/><polygon fill="#1A1D24" points="318.22,456.2429,315.7576,446.7068,315.1114,452.3267,309.4916,451.6805,318.22,456.2429" style="stroke:#1A1D24;stroke-width:1;stroke-linejoin:miter;stroke-miterlimit:10;"/><text fill="#000000" font-family="'Inter, Helvetica, sans-serif'" font-size="12" lengthAdjust="spacing" textLength="81.6797" x="305.3036" y="400.9276">throws caught</text><text fill="#000000" font-family="'Inter, Helvetica, sans-serif'" font-size="12" lengthAdjust="spacing" textLength="114.2869" x="289" y="415.4499">by characterizeTree</text></g><!--link PHASE1 to GMN36--><g class="link" data-entity-1="ent0003" data-entity-2="ent0037" data-link-type="association" data-source-line="52" id="lnk38"><path d="M228.2287,290.7007 C228.3043,290.4004 228.3811,290.0996 228.4589,289.7985 C228.6146,289.1961 228.7748,288.5923 228.9395,287.9872 C229.2689,286.777 229.6165,285.5621 229.9835,284.3455 C230.7174,281.9122 231.5283,279.4719 232.4244,277.0486 C234.2166,272.202 236.3495,267.4234 238.8878,262.9044 C243.9644,253.8666 250.6625,245.8679 259.5,240.4429 C319.72,203.4629 351.08,219.2829 418.5,240.4429 C458.27,252.9229 496.53,282.2929 521.22,304.2829" fill="none" id="PHASE1-GMN36" style="stroke:#1A1D24;stroke-width:1;stroke-dasharray:7,7;"/></g><!--link PHASE2 to GMN39--><g class="link" data-entity-1="ent0008" data-entity-2="ent0040" data-link-type="association" data-source-line="58" id="lnk41"><path d="M169.1917,1274.6862 C169.4125,1274.4133 169.6339,1274.1404 169.856,1273.8676 C170.3001,1273.3222 170.7468,1272.7771 171.196,1272.2328 C172.9928,1270.0553 174.8302,1267.8879 176.7063,1265.7404 C206.7225,1231.3804 246.625,1202.1079 288.5,1217.8029 C333.85,1234.7929 374.36,1273.0229 401.05,1303.1029" fill="none" id="PHASE2-GMN39" style="stroke:#1A1D24;stroke-width:1;stroke-dasharray:7,7;"/></g><?plantuml-src VLRBRXit5DtFLzna9HdMH5BpA8muWIAD7TUnHf2Kea1LADJCbSIO8WSanuuQfF2g7r0KwBwBTjr-GhlFH_XBUZbFoKcwa4sHlAzppptKFIuZaSO8llzWNgpD0sEt0dsUReJdMMu5meb6RArGGgBL0k7svbSmWaS8Jw93wBQIDJC89X7SGgFRxZvkjH-rkjscvndBBCBzATb3j6QQHHOr_v5PhkHCBhdaPeqnD79l3wFcVM06fkCWc0_2OL3QxvYYy-LRCvC0V0aDbLZZBsdFfNVl-1YMJ1XimllRcpy-PDvEUzDWVd9Q9JDwsPi4qCcgiFZEWf9YIydaFdpweAQBhkPJb5EwqM3cCiyii-t0Um-WyDRvzpVOg1W5H4o8cJoXt4-3uNmq3Yz6qvbiM9Nmg2KnjPg9mvdywN6xtVgwtOPhfMEJk-rDpckF4wjv0a_jcilBPrJ5qmVvadmDEftSO38Tdurgap2rIMgFPlBsvdSe2fbdjJMkK2y8xarp_p0BdeCTV3UTXw-dteSAeGtg5GANLe7XAybigj5LKe95LGn3nuMt6BbEmXPjdjT5C3uDvixb7RYx6TorIOrtiRSBj-kj2tO8k5bWV0XCHckbgUSxNUZUxK9sj-X2mrYbwTik5hbjSF4Ypw-oFT-pfI2DpXCGo9PbM9VwJ1AAaUCgbuG1mI44sx1MPXXpkIBwisjPn-WD-o_3yQGEqrU6Izo3G3c4aKNh8XA5pWQiLGJstnfLbZmElmdwqo-qFEFOF5BKRBR2UO9wxWhuuk52kmYLuy-sVwUzZWapML416enAjlmATvlk75Kkoe6CkM4BWJ5LjZUenzMWvdG-Fnkv4IsiSptfW5rhTKsck4di5ZIQH4c3n0eR-Ksu_VcN6Uc74cH37B5EOn9c35nYOcktWUTLUWAjrhDA3uh_sLunrqSbOI0SKjmObomLbbodsDoxNoHC1lYEP2yYbTn2U7BY5OxS7JVKzCdlP_EQ_Ss-LqDNBhBTpqpFhlBrCcOlKd49rCHMhZf2gIG7ySNhL-VpLs4uActD9Kz6LHUVpsGupeaUeuPKiYl6XUlEyve8haQlJYFBgl9BrTOSCEoAXk6QstKrohdYC47ZuTL66RoLxsfLmzvrA9PfLKdDP6yuW7lxDTmn__xW1vSJNTaRgroe28IjEQIPbh0WRyK5ojdnHTFRL0HtZYfHA1VLRZd6E-kg8ZUFnV-wIjVKSh7Jr7mwTjYHSvFIpqXkACzqjROaCrku-zfvdbJKJytf0gXbGLQI0X9XoYiO388nJNcQoTCQDVfqDaLZYuU96mg2cNA3UqfMT4mgDkvTG9ngfrt5mFaUoXXSiC-6x9BTYunzpAwFd0h27H5qykHaqF6p2DueMziNd9xjvY7TeLv4I8EAxxWrRewpN1oBuazJ7mRVKdcHeil6ehHqmR4kAwdq_KdY2sMjshZCT-07EE4eOWEC-7jma8kOaam0Nl4OPOG71paqMgNMuTBu-DTnsty2CL8tDkxNYkMHg-3ZtxJ_5PIY2aHO6JTz629jqBd6H33wHVF6HFGEcKgHt_nFfeLQ0Go2_jdaB1nE_4qCWtuV_ldpaNk3SkJezzUIPiJDO0uDFIkNXiuS8BK8sZLpiwYHnLiwZDI6dWlYnvs4TlBv3m00?></g></svg>