<svg xmlns="http://www.w3.org/2000/svg" xmlns:xlink="http://www.w3.org/1999/xlink" contentStyleType="text/css" data-diagram-type="CLASS" height="916px" preserveAspectRatio="none" style="width:2235px;height:916px;background:#F4EEE3;" version="1.1" viewBox="0 0 2235 916" width="2235px" zoomAndPan="magnify"><?plantuml 1.2026.4?><defs/><g><rect fill="#F4EEE3" height="916" style="stroke:none;stroke-width:1;" width="2235" x="0" y="0"/><g class="title" data-source-line="4"><text fill="#000000" font-family="'Inter, Helvetica, sans-serif'" font-size="14" font-weight="700" lengthAdjust="spacing" textLength="417.4875" x="905.2562" y="23.5623">Object diagram &#8212; a fully characterized model in the sidecar</text></g><!--cluster PKG_ROUTING_TYPES--><g class="cluster" data-qualified-name="PKG_ROUTING_TYPES" data-source-line="10" id="ent0001"><path d="M1042,43.9429 L1207.0244,43.9429 A6,6 0 0 1 1211.0244,47.9429 L1218.0244,64.4652 L2216,64.4652 A4,4 0 0 1 2220,68.4652 L2220,661.4429 A4,4 0 0 1 2216,665.4429 L1042,665.4429 A4,4 0 0 1 1038,661.4429 L1038,47.9429 A4,4 0 0 1 1042,43.9429" fill="#F4EEE3" style="stroke:#C68A3A;stroke-width:1.5;"/><line style="stroke:#C68A3A;stroke-width:1.5;" x1="1038" x2="1218.0244" y1="64.4652" y2="64.4652"/><text fill="#0E1014" font-family="'Inter, Helvetica, sans-serif'" font-size="12" font-weight="700" lengthAdjust="spacing" textLength="167.0244" x="1042" y="57.5676">src/shared/RoutingTypes.ts</text><text fill="#C68A3A" font-family="'Inter, Helvetica, sans-serif'" font-size="12" font-style="italic" lengthAdjust="spacing" textLength="48.6806" x="1608.6597" y="78.0899">&#171;Frame&#187;</text></g><!--class Signature--><g class="entity" data-qualified-name="PKG_ROUTING_TYPES.Signature" data-source-line="12" id="ent0002"><rect fill="#FFFFFF" height="162.1789" rx="4" ry="4" style="stroke:#0E1014;stroke-width:0.5;" width="381.7523" x="1054" y="146.9429"/><ellipse cx="1213.6808" cy="161.9429" fill="#ADD1B2" rx="10" ry="10" style="stroke:#181818;stroke-width:1;"/><path d="M1215.1652,159.146 Q1215.2746,158.9898 1215.3996,158.9116 Q1215.5402,158.8335 1215.6964,158.8335 Q1215.9621,158.8335 1216.1183,159.021 Q1216.2902,159.2085 1216.2902,159.6304 L1216.2902,160.6616 Q1216.2902,161.0835 1216.1183,161.271 Q1215.9621,161.4585 1215.6964,161.4585 Q1215.4464,161.4585 1215.3058,161.3179 Q1215.1652,161.1929 1215.0871,160.8179 Q1215.0558,160.5679 1214.9308,160.4429 Q1214.6808,160.1773 1214.2433,160.021 Q1213.8214,159.8648 1213.3839,159.8648 Q1212.8527,159.8648 1212.3996,160.0991 Q1211.9464,160.3335 1211.6027,160.8648 Q1211.2589,161.3804 1211.2589,162.1148 L1211.2589,162.896 Q1211.2589,163.7554 1211.8839,164.3335 Q1212.5246,164.9116 1213.6339,164.9116 Q1214.3058,164.9116 1214.7746,164.7398 Q1215.0402,164.6304 1215.3371,164.3179 Q1215.5246,164.1304 1215.6339,164.0835 Q1215.7433,164.021 1215.8683,164.021 Q1216.1183,164.021 1216.2902,164.2085 Q1216.4777,164.3804 1216.4777,164.6304 Q1216.4777,164.8804 1216.2277,165.1616 Q1215.8683,165.5679 1215.3058,165.8023 Q1214.5558,166.1148 1213.6496,166.1148 Q1212.5714,166.1148 1211.7277,165.6773 Q1211.0246,165.3335 1210.5402,164.5679 Q1210.0558,163.8023 1210.0558,162.9116 L1210.0558,162.0991 Q1210.0558,161.1616 1210.4933,160.3491 Q1210.9308,159.5366 1211.6964,159.0991 Q1212.4777,158.6616 1213.3371,158.6616 Q1213.8683,158.6616 1214.3214,158.7866 Q1214.7746,158.896 1215.1652,159.146 Z " fill="#000000"/><text fill="#000000" font-family="'Inter, Helvetica, sans-serif'" font-size="12" lengthAdjust="spacing" textLength="54.3907" x="1232.6808" y="166.3064">Signature</text><line style="stroke:#0E1014;stroke-width:0.5;" x1="1055" x2="1434.7523" y1="176.9429" y2="176.9429"/><g data-visibility-modifier="PUBLIC_FIELD"><ellipse cx="1065" cy="189.7041" fill="none" rx="3" ry="3" style="stroke:#038048;stroke-width:1;"/></g><text fill="#000000" font-family="'Inter, Helvetica, sans-serif'" font-size="12" lengthAdjust="spacing" textLength="106.2245" x="1073" y="192.5676">modelHash : string</text><g data-visibility-modifier="PUBLIC_FIELD"><ellipse cx="1065" cy="204.2264" fill="none" rx="3" ry="3" style="stroke:#038048;stroke-width:1;"/></g><text fill="#000000" font-family="'Inter, Helvetica, sans-serif'" font-size="12" lengthAdjust="spacing" textLength="116.6391" x="1073" y="207.0899">suite_version : string</text><g data-visibility-modifier="PUBLIC_FIELD"><ellipse cx="1065" cy="218.7488" fill="none" rx="3" ry="3" style="stroke:#038048;stroke-width:1;"/></g><text fill="#000000" font-family="'Inter, Helvetica, sans-serif'" font-size="12" lengthAdjust="spacing" textLength="155.979" x="1073" y="221.6123">characterized_at : ISO 8601</text><g data-visibility-modifier="PUBLIC_FIELD"><ellipse cx="1065" cy="233.2711" fill="none" rx="3" ry="3" style="stroke:#038048;stroke-width:1;"/></g><text fill="#000000" font-family="'Inter, Helvetica, sans-serif'" font-size="12" lengthAdjust="spacing" textLength="356.7523" x="1073" y="236.1347">characterization_state : 'complete' | 'incomplete' | 'quarantined'</text><g data-visibility-modifier="PUBLIC_FIELD"><ellipse cx="1065" cy="247.7935" fill="none" rx="3" ry="3" style="stroke:#038048;stroke-width:1;"/></g><text fill="#000000" font-family="'Inter, Helvetica, sans-serif'" font-size="12" lengthAdjust="spacing" textLength="174.2001" x="1073" y="250.657">structural : StructuralSignature</text><g data-visibility-modifier="PUBLIC_FIELD"><ellipse cx="1065" cy="262.3159" fill="none" rx="3" ry="3" style="stroke:#038048;stroke-width:1;"/></g><text fill="#000000" font-family="'Inter, Helvetica, sans-serif'" font-size="12" lengthAdjust="spacing" textLength="182.9272" x="1073" y="265.1794">behavioral : BehavioralSignature</text><g data-visibility-modifier="PUBLIC_FIELD"><ellipse cx="1065" cy="276.8382" fill="none" rx="3" ry="3" style="stroke:#038048;stroke-width:1;"/></g><text fill="#000000" font-family="'Inter, Helvetica, sans-serif'" font-size="12" lengthAdjust="spacing" textLength="171.2854" x="1073" y="279.7017">qcm_reliability : QcmReliability</text><line style="stroke:#0E1014;stroke-width:0.5;" x1="1055" x2="1434.7523" y1="286.5994" y2="286.5994"/><g data-visibility-modifier="PUBLIC_METHOD"><ellipse cx="1065" cy="299.3606" fill="#84BE84" rx="3" ry="3" style="stroke:#038048;stroke-width:1;"/></g><text fill="#000000" font-family="'Inter, Helvetica, sans-serif'" font-size="12" lengthAdjust="spacing" textLength="116.2641" x="1073" y="302.2241">embedder_id : string</text><text fill="#000000" font-family="'Inter, Helvetica, sans-serif'" font-size="12" font-style="italic" lengthAdjust="spacing" textLength="51.2885" x="1199.3888" y="302.2241">(slice 7c)</text></g><!--class StructuralSignature--><g class="entity" data-qualified-name="PKG_ROUTING_TYPES.StructuralSignature" data-source-line="23" id="ent0003"><rect fill="#FFFFFF" height="133.1341" rx="4" ry="4" style="stroke:#0E1014;stroke-width:0.5;" width="281.4082" x="1471.5" y="161.4429"/><ellipse cx="1553.2254" cy="176.4429" fill="#ADD1B2" rx="10" ry="10" style="stroke:#181818;stroke-width:1;"/><path d="M1554.7098,173.646 Q1554.8191,173.4898 1554.9441,173.4116 Q1555.0848,173.3335 1555.241,173.3335 Q1555.5066,173.3335 1555.6629,173.521 Q1555.8348,173.7085 1555.8348,174.1304 L1555.8348,175.1616 Q1555.8348,175.5835 1555.6629,175.771 Q1555.5066,175.9585 1555.241,175.9585 Q1554.991,175.9585 1554.8504,175.8179 Q1554.7098,175.6929 1554.6316,175.3179 Q1554.6004,175.0679 1554.4754,174.9429 Q1554.2254,174.6773 1553.7879,174.521 Q1553.366,174.3648 1552.9285,174.3648 Q1552.3973,174.3648 1551.9441,174.5991 Q1551.491,174.8335 1551.1473,175.3648 Q1550.8035,175.8804 1550.8035,176.6148 L1550.8035,177.396 Q1550.8035,178.2554 1551.4285,178.8335 Q1552.0691,179.4116 1553.1785,179.4116 Q1553.8504,179.4116 1554.3191,179.2398 Q1554.5848,179.1304 1554.8816,178.8179 Q1555.0691,178.6304 1555.1785,178.5835 Q1555.2879,178.521 1555.4129,178.521 Q1555.6629,178.521 1555.8348,178.7085 Q1556.0223,178.8804 1556.0223,179.1304 Q1556.0223,179.3804 1555.7723,179.6616 Q1555.4129,180.0679 1554.8504,180.3023 Q1554.1004,180.6148 1553.1941,180.6148 Q1552.116,180.6148 1551.2723,180.1773 Q1550.5691,179.8335 1550.0848,179.0679 Q1549.6004,178.3023 1549.6004,177.4116 L1549.6004,176.5991 Q1549.6004,175.6616 1550.0379,174.8491 Q1550.4754,174.0366 1551.241,173.5991 Q1552.0223,173.1616 1552.8816,173.1616 Q1553.4129,173.1616 1553.866,173.2866 Q1554.3191,173.396 1554.7098,173.646 Z " fill="#000000"/><text fill="#000000" font-family="'Inter, Helvetica, sans-serif'" font-size="12" lengthAdjust="spacing" textLength="109.9574" x="1572.2254" y="180.8064">StructuralSignature</text><line style="stroke:#0E1014;stroke-width:0.5;" x1="1472.5" x2="1751.9082" y1="191.4429" y2="191.4429"/><g data-visibility-modifier="PUBLIC_FIELD"><ellipse cx="1482.5" cy="204.2041" fill="none" rx="3" ry="3" style="stroke:#038048;stroke-width:1;"/></g><text fill="#000000" font-family="'Inter, Helvetica, sans-serif'" font-size="12" lengthAdjust="spacing" textLength="127.2922" x="1490.5" y="207.0676">tensor_count : number</text><g data-visibility-modifier="PUBLIC_FIELD"><ellipse cx="1482.5" cy="218.7264" fill="none" rx="3" ry="3" style="stroke:#038048;stroke-width:1;"/></g><text fill="#000000" font-family="'Inter, Helvetica, sans-serif'" font-size="12" lengthAdjust="spacing" textLength="67.3619" x="1490.5" y="221.5899">arch : string</text><g data-visibility-modifier="PUBLIC_FIELD"><ellipse cx="1482.5" cy="233.2488" fill="none" rx="3" ry="3" style="stroke:#038048;stroke-width:1;"/></g><text fill="#000000" font-family="'Inter, Helvetica, sans-serif'" font-size="12" lengthAdjust="spacing" textLength="74.7765" x="1490.5" y="236.1123">quant : string</text><g data-visibility-modifier="PUBLIC_FIELD"><ellipse cx="1482.5" cy="247.7711" fill="none" rx="3" ry="3" style="stroke:#038048;stroke-width:1;"/></g><text fill="#000000" font-family="'Inter, Helvetica, sans-serif'" font-size="12" lengthAdjust="spacing" textLength="100.0202" x="1490.5" y="250.6347">ctx_max : number</text><g data-visibility-modifier="PUBLIC_FIELD"><ellipse cx="1482.5" cy="262.2935" fill="none" rx="3" ry="3" style="stroke:#038048;stroke-width:1;"/></g><text fill="#000000" font-family="'Inter, Helvetica, sans-serif'" font-size="12" lengthAdjust="spacing" textLength="9.852" x="1490.5" y="265.157">&#8230;</text><line style="stroke:#0E1014;stroke-width:0.5;" x1="1472.5" x2="1751.9082" y1="272.0547" y2="272.0547"/><g data-visibility-modifier="PUBLIC_METHOD"><ellipse cx="1482.5" cy="284.8159" fill="#84BE84" rx="3" ry="3" style="stroke:#038048;stroke-width:1;"/></g><text fill="#000000" font-family="'Inter, Helvetica, sans-serif'" font-size="12" lengthAdjust="spacing" textLength="162.6265" x="1490.5" y="287.6794">est_footprint_bytes : number</text><text fill="#000000" font-family="'Inter, Helvetica, sans-serif'" font-size="12" font-style="italic" lengthAdjust="spacing" textLength="87.0319" x="1659.8764" y="287.6794">(D9 fit-scoring)</text></g><!--class BehavioralSignature--><g class="entity" data-qualified-name="PKG_ROUTING_TYPES.BehavioralSignature" data-source-line="32" id="ent0004"><rect fill="#FFFFFF" height="271.8354" rx="4" ry="4" style="stroke:#0E1014;stroke-width:0.5;" width="415.9446" x="1788" y="91.9429"/><ellipse cx="1935.0675" cy="106.9429" fill="#ADD1B2" rx="10" ry="10" style="stroke:#181818;stroke-width:1;"/><path d="M1936.5519,104.146 Q1936.6613,103.9898 1936.7863,103.9116 Q1936.9269,103.8335 1937.0831,103.8335 Q1937.3488,103.8335 1937.505,104.021 Q1937.6769,104.2085 1937.6769,104.6304 L1937.6769,105.6616 Q1937.6769,106.0835 1937.505,106.271 Q1937.3488,106.4585 1937.0831,106.4585 Q1936.8331,106.4585 1936.6925,106.3179 Q1936.5519,106.1929 1936.4738,105.8179 Q1936.4425,105.5679 1936.3175,105.4429 Q1936.0675,105.1773 1935.63,105.021 Q1935.2081,104.8648 1934.7706,104.8648 Q1934.2394,104.8648 1933.7863,105.0991 Q1933.3331,105.3335 1932.9894,105.8648 Q1932.6456,106.3804 1932.6456,107.1148 L1932.6456,107.896 Q1932.6456,108.7554 1933.2706,109.3335 Q1933.9113,109.9116 1935.0206,109.9116 Q1935.6925,109.9116 1936.1613,109.7398 Q1936.4269,109.6304 1936.7238,109.3179 Q1936.9113,109.1304 1937.0206,109.0835 Q1937.13,109.021 1937.255,109.021 Q1937.505,109.021 1937.6769,109.2085 Q1937.8644,109.3804 1937.8644,109.6304 Q1937.8644,109.8804 1937.6144,110.1616 Q1937.255,110.5679 1936.6925,110.8023 Q1935.9425,111.1148 1935.0363,111.1148 Q1933.9581,111.1148 1933.1144,110.6773 Q1932.4113,110.3335 1931.9269,109.5679 Q1931.4425,108.8023 1931.4425,107.9116 L1931.4425,107.0991 Q1931.4425,106.1616 1931.88,105.3491 Q1932.3175,104.5366 1933.0831,104.0991 Q1933.8644,103.6616 1934.7238,103.6616 Q1935.255,103.6616 1935.7081,103.7866 Q1936.1613,103.896 1936.5519,104.146 Z " fill="#000000"/><text fill="#000000" font-family="'Inter, Helvetica, sans-serif'" font-size="12" lengthAdjust="spacing" textLength="113.8096" x="1954.0675" y="111.3064">BehavioralSignature</text><line style="stroke:#0E1014;stroke-width:0.5;" x1="1789" x2="2202.9446" y1="121.9429" y2="121.9429"/><g data-visibility-modifier="PUBLIC_FIELD"><ellipse cx="1799" cy="134.7041" fill="none" rx="3" ry="3" style="stroke:#038048;stroke-width:1;"/></g><text fill="#000000" font-family="'Inter, Helvetica, sans-serif'" font-size="12" lengthAdjust="spacing" textLength="318.6055" x="1807" y="137.5676">diagnostic_run : Record&lt;promptId, DiagnosticRunEntry&gt;</text><g data-visibility-modifier="PUBLIC_FIELD"><ellipse cx="1799" cy="149.2264" fill="none" rx="3" ry="3" style="stroke:#038048;stroke-width:1;"/></g><text fill="#000000" font-family="'Inter, Helvetica, sans-serif'" font-size="12" lengthAdjust="spacing" textLength="341.3094" x="1807" y="152.0899">scores_per_axis : Partial&lt;Record&lt;DiagnosticAxis, number&gt;&gt;</text><g data-visibility-modifier="PUBLIC_FIELD"><ellipse cx="1799" cy="163.7488" fill="none" rx="3" ry="3" style="stroke:#038048;stroke-width:1;"/></g><text fill="#000000" font-family="'Inter, Helvetica, sans-serif'" font-size="12" lengthAdjust="spacing" textLength="316.5601" x="1807" y="166.6123">n_per_axis? : Partial&lt;Record&lt;DiagnosticAxis, number&gt;&gt;</text><g data-visibility-modifier="PUBLIC_FIELD"><ellipse cx="1799" cy="178.2711" fill="none" rx="3" ry="3" style="stroke:#038048;stroke-width:1;"/></g><text fill="#000000" font-family="'Inter, Helvetica, sans-serif'" font-size="12" lengthAdjust="spacing" textLength="97.2248" x="1807" y="181.1347">overall? : number</text><line style="stroke:#0E1014;stroke-width:1;" x1="1789" x2="2202.9446" y1="188.0323" y2="188.0323"/><text fill="#000000" font-family="'Inter, Helvetica, sans-serif'" font-size="12" font-weight="700" lengthAdjust="spacing" textLength="179.8252" x="1807" y="203.657">Tree-routing fields (slice 4c+)</text><g data-visibility-modifier="PUBLIC_METHOD"><ellipse cx="1799" cy="215.3159" fill="#84BE84" rx="3" ry="3" style="stroke:#038048;stroke-width:1;"/></g><text fill="#000000" font-family="'Inter, Helvetica, sans-serif'" font-size="12" lengthAdjust="spacing" textLength="242.3972" x="1807" y="218.1794">scores_per_leaf? : Record&lt;leafId, number&gt;</text><text fill="#000000" font-family="'Inter, Helvetica, sans-serif'" font-size="12" font-style="italic" lengthAdjust="spacing" textLength="115.2925" x="2056.147" y="218.1794">(0..1 &#8212; see scheme)</text><g data-visibility-modifier="PUBLIC_FIELD"><ellipse cx="1799" cy="229.8382" fill="none" rx="3" ry="3" style="stroke:#038048;stroke-width:1;"/></g><text fill="#000000" font-family="'Inter, Helvetica, sans-serif'" font-size="12" lengthAdjust="spacing" textLength="369.2463" x="1807" y="232.7017">branch_scores? : Partial&lt;Record&lt;CompetenceBranch, number&gt;&gt;</text><g data-visibility-modifier="PUBLIC_FIELD"><ellipse cx="1799" cy="244.3606" fill="none" rx="3" ry="3" style="stroke:#038048;stroke-width:1;"/></g><text fill="#000000" font-family="'Inter, Helvetica, sans-serif'" font-size="12" lengthAdjust="spacing" textLength="211.5628" x="1807" y="247.2241">n_per_leaf? : Record&lt;leafId, number&gt;</text><g data-visibility-modifier="PUBLIC_METHOD"><ellipse cx="1799" cy="258.8829" fill="#84BE84" rx="3" ry="3" style="stroke:#038048;stroke-width:1;"/></g><text fill="#000000" font-family="'Inter, Helvetica, sans-serif'" font-size="12" lengthAdjust="spacing" textLength="244.4256" x="1807" y="261.7465">passes_per_leaf? : Record&lt;leafId, number&gt;</text><text fill="#000000" font-family="'Inter, Helvetica, sans-serif'" font-size="12" font-style="italic" lengthAdjust="spacing" textLength="107.1365" x="2058.1754" y="261.7465">(beta-laplace only)</text><g data-visibility-modifier="PUBLIC_FIELD"><ellipse cx="1799" cy="273.4053" fill="none" rx="3" ry="3" style="stroke:#038048;stroke-width:1;"/></g><text fill="#000000" font-family="'Inter, Helvetica, sans-serif'" font-size="12" lengthAdjust="spacing" textLength="318.5885" x="1807" y="276.2688">scoring_scheme? : 'beta-laplace-v1' | 'breaking-rung-v0'</text><line style="stroke:#0E1014;stroke-width:1;" x1="1789" x2="2202.9446" y1="283.1665" y2="283.1665"/><text fill="#000000" font-family="'Inter, Helvetica, sans-serif'" font-size="12" font-weight="700" lengthAdjust="spacing" textLength="151.9736" x="1807" y="298.7912">Free-gen probe (slice 7c)</text><g data-visibility-modifier="PUBLIC_METHOD"><ellipse cx="1799" cy="310.45" fill="#84BE84" rx="3" ry="3" style="stroke:#038048;stroke-width:1;"/></g><text fill="#000000" font-family="'Inter, Helvetica, sans-serif'" font-size="12" lengthAdjust="spacing" textLength="291.4017" x="1807" y="313.3135">topic_coverage_per_leaf? : Record&lt;leafId, number&gt;</text><text fill="#000000" font-family="'Inter, Helvetica, sans-serif'" font-size="12" font-style="italic" lengthAdjust="spacing" textLength="51.9703" x="2105.1515" y="313.3135">(cosines)</text><g data-visibility-modifier="PUBLIC_FIELD"><ellipse cx="1799" cy="324.9724" fill="none" rx="3" ry="3" style="stroke:#038048;stroke-width:1;"/></g><text fill="#000000" font-family="'Inter, Helvetica, sans-serif'" font-size="12" lengthAdjust="spacing" textLength="390.9446" x="1807" y="327.8359">topic_coverage_per_branch? : Record&lt;CompetenceBranch, number&gt;</text><g data-visibility-modifier="PUBLIC_FIELD"><ellipse cx="1799" cy="339.4947" fill="none" rx="3" ry="3" style="stroke:#038048;stroke-width:1;"/></g><text fill="#000000" font-family="'Inter, Helvetica, sans-serif'" font-size="12" lengthAdjust="spacing" textLength="144.0816" x="1807" y="342.3582">freegen_words? : number</text><g data-visibility-modifier="PUBLIC_FIELD"><ellipse cx="1799" cy="354.0171" fill="none" rx="3" ry="3" style="stroke:#038048;stroke-width:1;"/></g><text fill="#000000" font-family="'Inter, Helvetica, sans-serif'" font-size="12" lengthAdjust="spacing" textLength="141.2351" x="1807" y="356.8806">freegen_excerpt? : string</text></g><!--class DiagnosticRunEntry--><g class="entity" data-qualified-name="PKG_ROUTING_TYPES.DiagnosticRunEntry" data-source-line="52" id="ent0005"><rect fill="#FFFFFF" height="147.6565" rx="4" ry="4" style="stroke:#0E1014;stroke-width:0.5;" width="153.8774" x="1168" y="501.4429"/><ellipse cx="1187.6657" cy="516.4429" fill="#ADD1B2" rx="10" ry="10" style="stroke:#181818;stroke-width:1;"/><path d="M1189.1501,513.646 Q1189.2595,513.4898 1189.3845,513.4116 Q1189.5251,513.3335 1189.6813,513.3335 Q1189.947,513.3335 1190.1032,513.521 Q1190.2751,513.7085 1190.2751,514.1304 L1190.2751,515.1616 Q1190.2751,515.5835 1190.1032,515.771 Q1189.947,515.9585 1189.6813,515.9585 Q1189.4313,515.9585 1189.2907,515.8179 Q1189.1501,515.6929 1189.072,515.3179 Q1189.0407,515.0679 1188.9157,514.9429 Q1188.6657,514.6773 1188.2282,514.521 Q1187.8063,514.3648 1187.3688,514.3648 Q1186.8376,514.3648 1186.3845,514.5991 Q1185.9313,514.8335 1185.5876,515.3648 Q1185.2438,515.8804 1185.2438,516.6148 L1185.2438,517.396 Q1185.2438,518.2554 1185.8688,518.8335 Q1186.5095,519.4116 1187.6188,519.4116 Q1188.2907,519.4116 1188.7595,519.2398 Q1189.0251,519.1304 1189.322,518.8179 Q1189.5095,518.6304 1189.6188,518.5835 Q1189.7282,518.521 1189.8532,518.521 Q1190.1032,518.521 1190.2751,518.7085 Q1190.4626,518.8804 1190.4626,519.1304 Q1190.4626,519.3804 1190.2126,519.6616 Q1189.8532,520.0679 1189.2907,520.3023 Q1188.5407,520.6148 1187.6345,520.6148 Q1186.5563,520.6148 1185.7126,520.1773 Q1185.0095,519.8335 1184.5251,519.0679 Q1184.0407,518.3023 1184.0407,517.4116 L1184.0407,516.5991 Q1184.0407,515.6616 1184.4782,514.8491 Q1184.9157,514.0366 1185.6813,513.5991 Q1186.4626,513.1616 1187.322,513.1616 Q1187.8532,513.1616 1188.3063,513.2866 Q1188.7595,513.396 1189.1501,513.646 Z " fill="#000000"/><text fill="#000000" font-family="'Inter, Helvetica, sans-serif'" font-size="12" lengthAdjust="spacing" textLength="111.287" x="1201.9247" y="520.8064">DiagnosticRunEntry</text><line style="stroke:#0E1014;stroke-width:0.5;" x1="1169" x2="1320.8774" y1="531.4429" y2="531.4429"/><g data-visibility-modifier="PUBLIC_FIELD"><ellipse cx="1179" cy="544.2041" fill="none" rx="3" ry="3" style="stroke:#038048;stroke-width:1;"/></g><text fill="#000000" font-family="'Inter, Helvetica, sans-serif'" font-size="12" lengthAdjust="spacing" textLength="52.635" x="1187" y="547.0676">id : string</text><g data-visibility-modifier="PUBLIC_FIELD"><ellipse cx="1179" cy="558.7264" fill="none" rx="3" ry="3" style="stroke:#038048;stroke-width:1;"/></g><text fill="#000000" font-family="'Inter, Helvetica, sans-serif'" font-size="12" lengthAdjust="spacing" textLength="128.8774" x="1187" y="561.5899">axes : DiagnosticAxis[]</text><g data-visibility-modifier="PUBLIC_FIELD"><ellipse cx="1179" cy="573.2488" fill="none" rx="3" ry="3" style="stroke:#038048;stroke-width:1;"/></g><text fill="#000000" font-family="'Inter, Helvetica, sans-serif'" font-size="12" lengthAdjust="spacing" textLength="82.0718" x="1187" y="576.1123">pass : boolean</text><g data-visibility-modifier="PUBLIC_FIELD"><ellipse cx="1179" cy="587.7711" fill="none" rx="3" ry="3" style="stroke:#038048;stroke-width:1;"/></g><text fill="#000000" font-family="'Inter, Helvetica, sans-serif'" font-size="12" lengthAdjust="spacing" textLength="91.0545" x="1187" y="590.6347">score? : number</text><g data-visibility-modifier="PUBLIC_FIELD"><ellipse cx="1179" cy="602.2935" fill="none" rx="3" ry="3" style="stroke:#038048;stroke-width:1;"/></g><text fill="#000000" font-family="'Inter, Helvetica, sans-serif'" font-size="12" lengthAdjust="spacing" textLength="94.8214" x="1187" y="605.157">response : string</text><g data-visibility-modifier="PUBLIC_FIELD"><ellipse cx="1179" cy="616.8159" fill="none" rx="3" ry="3" style="stroke:#038048;stroke-width:1;"/></g><text fill="#000000" font-family="'Inter, Helvetica, sans-serif'" font-size="12" lengthAdjust="spacing" textLength="79.6854" x="1187" y="619.6794">detail? : string</text><g data-visibility-modifier="PUBLIC_FIELD"><ellipse cx="1179" cy="631.3382" fill="none" rx="3" ry="3" style="stroke:#038048;stroke-width:1;"/></g><text fill="#000000" font-family="'Inter, Helvetica, sans-serif'" font-size="12" lengthAdjust="spacing" textLength="75.9696" x="1187" y="634.2017">error? : string</text><line style="stroke:#0E1014;stroke-width:0.5;" x1="1169" x2="1320.8774" y1="641.0994" y2="641.0994"/></g><!--class QcmReliability--><g class="entity" data-qualified-name="PKG_ROUTING_TYPES.QcmReliability" data-source-line="62" id="ent0006"><rect fill="#FFFFFF" height="104.0894" rx="4" ry="4" style="stroke:#0E1014;stroke-width:0.5;" width="341.9862" x="1357" y="523.4429"/><ellipse cx="1483.7839" cy="538.4429" fill="#ADD1B2" rx="10" ry="10" style="stroke:#181818;stroke-width:1;"/><path d="M1485.2683,535.646 Q1485.3776,535.4898 1485.5026,535.4116 Q1485.6433,535.3335 1485.7995,535.3335 Q1486.0651,535.3335 1486.2214,535.521 Q1486.3933,535.7085 1486.3933,536.1304 L1486.3933,537.1616 Q1486.3933,537.5835 1486.2214,537.771 Q1486.0651,537.9585 1485.7995,537.9585 Q1485.5495,537.9585 1485.4089,537.8179 Q1485.2683,537.6929 1485.1901,537.3179 Q1485.1589,537.0679 1485.0339,536.9429 Q1484.7839,536.6773 1484.3464,536.521 Q1483.9245,536.3648 1483.487,536.3648 Q1482.9558,536.3648 1482.5026,536.5991 Q1482.0495,536.8335 1481.7058,537.3648 Q1481.362,537.8804 1481.362,538.6148 L1481.362,539.396 Q1481.362,540.2554 1481.987,540.8335 Q1482.6276,541.4116 1483.737,541.4116 Q1484.4089,541.4116 1484.8776,541.2398 Q1485.1433,541.1304 1485.4401,540.8179 Q1485.6276,540.6304 1485.737,540.5835 Q1485.8464,540.521 1485.9714,540.521 Q1486.2214,540.521 1486.3933,540.7085 Q1486.5808,540.8804 1486.5808,541.1304 Q1486.5808,541.3804 1486.3308,541.6616 Q1485.9714,542.0679 1485.4089,542.3023 Q1484.6589,542.6148 1483.7526,542.6148 Q1482.6745,542.6148 1481.8308,542.1773 Q1481.1276,541.8335 1480.6433,541.0679 Q1480.1589,540.3023 1480.1589,539.4116 L1480.1589,538.5991 Q1480.1589,537.6616 1480.5964,536.8491 Q1481.0339,536.0366 1481.7995,535.5991 Q1482.5808,535.1616 1483.4401,535.1616 Q1483.9714,535.1616 1484.4245,535.2866 Q1484.8776,535.396 1485.2683,535.646 Z " fill="#000000"/><text fill="#000000" font-family="'Inter, Helvetica, sans-serif'" font-size="12" lengthAdjust="spacing" textLength="80.4184" x="1502.7839" y="542.8064">QcmReliability</text><line style="stroke:#0E1014;stroke-width:0.5;" x1="1358" x2="1697.9862" y1="553.4429" y2="553.4429"/><g data-visibility-modifier="PUBLIC_FIELD"><ellipse cx="1368" cy="566.2041" fill="none" rx="3" ry="3" style="stroke:#038048;stroke-width:1;"/></g><text fill="#000000" font-family="'Inter, Helvetica, sans-serif'" font-size="12" lengthAdjust="spacing" textLength="121.4117" x="1376" y="569.0676">consistency : number</text><g data-visibility-modifier="PUBLIC_FIELD"><ellipse cx="1368" cy="580.7264" fill="none" rx="3" ry="3" style="stroke:#038048;stroke-width:1;"/></g><text fill="#000000" font-family="'Inter, Helvetica, sans-serif'" font-size="12" lengthAdjust="spacing" textLength="60.4075" x="1376" y="583.5899">n : number</text><line style="stroke:#0E1014;stroke-width:0.5;" x1="1358" x2="1697.9862" y1="590.4876" y2="590.4876"/><g data-visibility-modifier="PUBLIC_METHOD"><ellipse cx="1368" cy="603.2488" fill="#84BE84" rx="3" ry="3" style="stroke:#038048;stroke-width:1;"/></g><text fill="#000000" font-family="'Inter, Helvetica, sans-serif'" font-size="12" lengthAdjust="spacing" textLength="156.7801" x="1376" y="606.1123">format_adherence : number</text><text fill="#000000" font-family="'Inter, Helvetica, sans-serif'" font-size="12" font-style="italic" lengthAdjust="spacing" textLength="28.38" x="1539.5299" y="606.1123">(0..1)</text><g data-visibility-modifier="PUBLIC_METHOD"><ellipse cx="1368" cy="617.7711" fill="#84BE84" rx="3" ry="3" style="stroke:#038048;stroke-width:1;"/></g><text fill="#000000" font-family="'Inter, Helvetica, sans-serif'" font-size="12" lengthAdjust="spacing" textLength="91.1397" x="1376" y="620.6347">overall : number</text><text fill="#000000" font-family="'Inter, Helvetica, sans-serif'" font-size="12" font-style="italic" lengthAdjust="spacing" textLength="219.0967" x="1473.8895" y="620.6347">(display-only &#8212; NEVER enters routing)</text></g><g class="entity" data-qualified-name="O_SIG" data-source-line="11" id="ent0007"><rect fill="#F1F1F1" height="99.1341" rx="4" ry="4" style="stroke:#181818;stroke-width:0.5;" width="287.0385" x="508.5" y="178.4429"/><text fill="#000000" font-family="'Inter, Helvetica, sans-serif'" font-size="12" lengthAdjust="spacing" textLength="140.3658" x="581.8363" y="192.0676">LFM2_5_1_2B : Signature</text><line style="stroke:#181818;stroke-width:0.5;" x1="509.5" x2="794.5385" y1="196.9652" y2="196.9652"/><text fill="#000000" font-family="'Inter, Helvetica, sans-serif'" font-size="12" lengthAdjust="spacing" textLength="146.2974" x="514.5" y="212.5899">modelHash = "b59a&#8230;f23"</text><text fill="#000000" font-family="'Inter, Helvetica, sans-serif'" font-size="12" lengthAdjust="spacing" textLength="185.0919" x="514.5" y="227.1123">suite_version = "v1-30 / tree-v0"</text><text fill="#000000" font-family="'Inter, Helvetica, sans-serif'" font-size="12" lengthAdjust="spacing" textLength="250.1187" x="514.5" y="241.6347">characterized_at = "2026-05-21T14:32:18Z"</text><text fill="#000000" font-family="'Inter, Helvetica, sans-serif'" font-size="12" lengthAdjust="spacing" textLength="203.1085" x="514.5" y="256.157">characterization_state = "complete"</text><text fill="#000000" font-family="'Inter, Helvetica, sans-serif'" font-size="12" lengthAdjust="spacing" textLength="275.0385" x="514.5" y="270.6794">embedder_id = "Qwen3-Embedding-0.6B-Q8_0"</text></g><g class="entity" data-qualified-name="O_STRUCT" data-source-line="19" id="ent0008"><rect fill="#F1F1F1" height="99.1341" rx="4" ry="4" style="stroke:#181818;stroke-width:0.5;" width="225.3696" x="216.5" y="525.9429"/><text fill="#000000" font-family="'Inter, Helvetica, sans-serif'" font-size="12" lengthAdjust="spacing" textLength="174.2001" x="242.0848" y="539.5676">structural : StructuralSignature</text><line style="stroke:#181818;stroke-width:0.5;" x1="217.5" x2="440.8696" y1="544.4652" y2="544.4652"/><text fill="#000000" font-family="'Inter, Helvetica, sans-serif'" font-size="12" lengthAdjust="spacing" textLength="213.3696" x="222.5" y="560.0899">est_footprint_bytes = 1_300_000_000</text><text fill="#000000" font-family="'Inter, Helvetica, sans-serif'" font-size="12" lengthAdjust="spacing" textLength="108.9177" x="222.5" y="574.6123">tensor_count = 165</text><text fill="#000000" font-family="'Inter, Helvetica, sans-serif'" font-size="12" lengthAdjust="spacing" textLength="79.0207" x="222.5" y="589.1347">arch = "llama"</text><text fill="#000000" font-family="'Inter, Helvetica, sans-serif'" font-size="12" lengthAdjust="spacing" textLength="102.952" x="222.5" y="603.657">quant = "Q4_K_M"</text><text fill="#000000" font-family="'Inter, Helvetica, sans-serif'" font-size="12" lengthAdjust="spacing" textLength="91.4636" x="222.5" y="618.1794">ctx_max = 4096</text></g><g class="entity" data-qualified-name="O_BEH" data-source-line="27" id="ent0009"><rect fill="#F1F1F1" height="270.8801" rx="4" ry="4" style="stroke:#181818;stroke-width:0.5;" width="349.5256" x="477" y="439.9429"/><text fill="#000000" font-family="'Inter, Helvetica, sans-serif'" font-size="12" lengthAdjust="spacing" textLength="182.9272" x="560.2992" y="453.5676">behavioral : BehavioralSignature</text><line style="stroke:#181818;stroke-width:0.5;" x1="478" x2="825.5256" y1="458.4652" y2="458.4652"/><text fill="#000000" font-family="'Inter, Helvetica, sans-serif'" font-size="12" lengthAdjust="spacing" textLength="77.9639" x="483" y="474.0899">overall = 0.62</text><text fill="#000000" font-family="'Inter, Helvetica, sans-serif'" font-size="12" lengthAdjust="spacing" textLength="205.1028" x="483" y="488.6123">scoring_scheme = "beta-laplace-v1"</text><text fill="#000000" font-family="'Inter, Helvetica, sans-serif'" font-size="12" lengthAdjust="spacing" textLength="162.0982" x="483" y="521.657">scores_per_axis.code = 0.40</text><text fill="#000000" font-family="'Inter, Helvetica, sans-serif'" font-size="12" lengthAdjust="spacing" textLength="161.8425" x="483" y="536.1794">scores_per_axis.math = 0.55</text><text fill="#000000" font-family="'Inter, Helvetica, sans-serif'" font-size="12" lengthAdjust="spacing" textLength="189.4213" x="483" y="550.7017">scores_per_axis.reasoning = 0.66</text><line style="stroke:#181818;stroke-width:1;stroke-dasharray:1,2;" x1="478" x2="616.7779" y1="502.7711" y2="502.7711"/><text fill="#000000" font-family="'Inter, Helvetica, sans-serif'" font-size="12" lengthAdjust="spacing" textLength="69.9698" x="616.7779" y="506.6347">R5 (16 axes)</text><line style="stroke:#181818;stroke-width:1;stroke-dasharray:1,2;" x1="686.7477" x2="825.5256" y1="502.7711" y2="502.7711"/><text fill="#000000" font-family="'Inter, Helvetica, sans-serif'" font-size="12" lengthAdjust="spacing" textLength="207.8811" x="483" y="583.7465">scores_per_leaf['math.proba'] = 0.80</text><text fill="#000000" font-family="'Inter, Helvetica, sans-serif'" font-size="12" lengthAdjust="spacing" textLength="337.5256" x="483" y="598.2688">scores_per_leaf['code.python'] = (absent &#8212; UNMEASURED,</text><text fill="#000000" font-family="'Inter, Helvetica, sans-serif'" font-size="12" lengthAdjust="spacing" textLength="109.7358" x="483" y="612.7912">sandbox opt-in off)</text><text fill="#000000" font-family="'Inter, Helvetica, sans-serif'" font-size="12" lengthAdjust="spacing" textLength="191.8417" x="483" y="627.3135">passes_per_leaf['math.proba'] = 3</text><text fill="#000000" font-family="'Inter, Helvetica, sans-serif'" font-size="12" lengthAdjust="spacing" textLength="158.9789" x="483" y="641.8359">n_per_leaf['math.proba'] = 3</text><text fill="#000000" font-family="'Inter, Helvetica, sans-serif'" font-size="12" lengthAdjust="spacing" textLength="154.5472" x="483" y="656.3582">branch_scores.math = 0.70</text><line style="stroke:#181818;stroke-width:1;stroke-dasharray:1,2;" x1="478" x2="608.6559" y1="564.8606" y2="564.8606"/><text fill="#000000" font-family="'Inter, Helvetica, sans-serif'" font-size="12" lengthAdjust="spacing" textLength="86.2137" x="608.6559" y="568.7241">tree (slice 4c+)</text><line style="stroke:#181818;stroke-width:1;stroke-dasharray:1,2;" x1="694.8696" x2="825.5256" y1="564.8606" y2="564.8606"/><text fill="#000000" font-family="'Inter, Helvetica, sans-serif'" font-size="12" lengthAdjust="spacing" textLength="256.7321" x="483" y="689.403">topic_coverage_per_leaf['math.proba'] = 0.62</text><text fill="#000000" font-family="'Inter, Helvetica, sans-serif'" font-size="12" lengthAdjust="spacing" textLength="118.9572" x="483" y="703.9253">freegen_words = 712</text><line style="stroke:#181818;stroke-width:1;stroke-dasharray:1,2;" x1="478" x2="602.3919" y1="670.5171" y2="670.5171"/><text fill="#000000" font-family="'Inter, Helvetica, sans-serif'" font-size="12" lengthAdjust="spacing" textLength="98.7418" x="602.3919" y="674.3806">freegen (slice 7c)</text><line style="stroke:#181818;stroke-width:1;stroke-dasharray:1,2;" x1="701.1337" x2="825.5256" y1="670.5171" y2="670.5171"/></g><g class="entity" data-qualified-name="O_QCM" data-source-line="45" id="ent0010"><rect fill="#F1F1F1" height="84.6118" rx="4" ry="4" style="stroke:#181818;stroke-width:0.5;" width="155.5532" x="862" y="532.9429"/><text fill="#000000" font-family="'Inter, Helvetica, sans-serif'" font-size="12" lengthAdjust="spacing" textLength="114.9175" x="882.3178" y="546.5676">qcm : QcmReliability</text><line style="stroke:#181818;stroke-width:0.5;" x1="863" x2="1016.5532" y1="551.4652" y2="551.4652"/><text fill="#000000" font-family="'Inter, Helvetica, sans-serif'" font-size="12" lengthAdjust="spacing" textLength="143.5532" x="868" y="567.0899">format_adherence = 0.85</text><text fill="#000000" font-family="'Inter, Helvetica, sans-serif'" font-size="12" lengthAdjust="spacing" textLength="107.7416" x="868" y="581.6123">consistency = 0.78</text><text fill="#000000" font-family="'Inter, Helvetica, sans-serif'" font-size="12" lengthAdjust="spacing" textLength="76.1912" x="868" y="596.1347">overall = 0.81</text><text fill="#000000" font-family="'Inter, Helvetica, sans-serif'" font-size="12" lengthAdjust="spacing" textLength="36.8172" x="868" y="610.657">n = 30</text></g><g class="entity" data-qualified-name="O_RUN1" data-source-line="52" id="ent0011"><rect fill="#F1F1F1" height="99.1341" rx="4" ry="4" style="stroke:#181818;stroke-width:0.5;" width="249.9314" x="527" y="801.9429"/><text fill="#000000" font-family="'Inter, Helvetica, sans-serif'" font-size="12" lengthAdjust="spacing" textLength="145.377" x="579.2772" y="815.5676">run1 : DiagnosticRunEntry</text><line style="stroke:#181818;stroke-width:0.5;" x1="528" x2="775.9314" y1="820.4652" y2="820.4652"/><text fill="#000000" font-family="'Inter, Helvetica, sans-serif'" font-size="12" lengthAdjust="spacing" textLength="112.9403" x="533" y="836.0899">id = "math-arith-01"</text><text fill="#000000" font-family="'Inter, Helvetica, sans-serif'" font-size="12" lengthAdjust="spacing" textLength="157.0017" x="533" y="850.6123">axes = ["math", "multistep"]</text><text fill="#000000" font-family="'Inter, Helvetica, sans-serif'" font-size="12" lengthAdjust="spacing" textLength="64.0722" x="533" y="865.1347">pass = true</text><text fill="#000000" font-family="'Inter, Helvetica, sans-serif'" font-size="12" lengthAdjust="spacing" textLength="62.6234" x="533" y="879.657">score = 1.0</text><text fill="#000000" font-family="'Inter, Helvetica, sans-serif'" font-size="12" lengthAdjust="spacing" textLength="237.9314" x="533" y="894.1794">response = "Train A had a head start of&#8230;"</text></g><g class="entity" data-qualified-name="O_RUN2" data-source-line="60" id="ent0012"><rect fill="#F1F1F1" height="84.6118" rx="4" ry="4" style="stroke:#181818;stroke-width:0.5;" width="275.6523" x="7" y="808.9429"/><text fill="#000000" font-family="'Inter, Helvetica, sans-serif'" font-size="12" lengthAdjust="spacing" textLength="147.0645" x="71.2939" y="822.5676">run2 : DiagnosticRunEntry</text><line style="stroke:#181818;stroke-width:0.5;" x1="8" x2="281.6523" y1="827.4652" y2="827.4652"/><text fill="#000000" font-family="'Inter, Helvetica, sans-serif'" font-size="12" lengthAdjust="spacing" textLength="123.2184" x="13" y="843.0899">id = "code-debug-01"</text><text fill="#000000" font-family="'Inter, Helvetica, sans-serif'" font-size="12" lengthAdjust="spacing" textLength="156.6438" x="13" y="857.6123">axes = ["code", "multistep"]</text><text fill="#000000" font-family="'Inter, Helvetica, sans-serif'" font-size="12" lengthAdjust="spacing" textLength="68.4869" x="13" y="872.1347">pass = false</text><text fill="#000000" font-family="'Inter, Helvetica, sans-serif'" font-size="12" lengthAdjust="spacing" textLength="263.6523" x="13" y="886.657">detail = "UNMEASURED &#8212; sandbox opt-in off"</text></g><g class="entity" data-qualified-name="GMN18" data-source-line="74" id="ent0019"><path d="M812,821.4429 L812,881.5323 A4,4 0 0 0 816,885.5323 L980.1723,885.5323 A4,4 0 0 0 984.1723,881.5323 L984.1723,827.4429 L974.1723,817.4429 L872.19,817.4429 L772.84,711.0329 L864.19,817.4429 L816,817.4429 A4,4 0 0 0 812,821.4429" fill="#FFFDF6" style="stroke:#C68A3A;stroke-width:0.5;"/><path d="M974.1723,817.4429 L974.1723,825.4429 A2,2 0 0 0 976.1723,827.4429 L984.1723,827.4429 L974.1723,817.4429" fill="#FFFDF6" style="stroke:#C68A3A;stroke-width:0.5;"/><text fill="#0E1014" font-family="'Inter, Helvetica, sans-serif'" font-size="12" lengthAdjust="spacing" textLength="130.0706" x="818" y="834.0676">Beta-Laplace example:</text><text fill="#0E1014" font-family="'Inter, Helvetica, sans-serif'" font-size="12" lengthAdjust="spacing" textLength="151.1723" x="818" y="848.5899">3/3 climb on `math.proba`</text><text fill="#0E1014" font-family="'Inter, Helvetica, sans-serif'" font-size="12" lengthAdjust="spacing" textLength="124.1389" x="818" y="863.1123">&#8658; (1+3)/(2+3) = 0.80,</text><text fill="#0E1014" font-family="'Inter, Helvetica, sans-serif'" font-size="12" lengthAdjust="spacing" textLength="113.4346" x="818" y="877.6347">the Phase-A ceiling.</text></g><g class="entity" data-qualified-name="GMN21" data-source-line="81" id="ent0022"><path d="M318,813.9429 L318,847.4429 L283.12,851.4429 L318,855.4429 L318,888.5547 A4,4 0 0 0 322,892.5547 L487.6211,892.5547 A4,4 0 0 0 491.6211,888.5547 L491.6211,819.9429 L481.6211,809.9429 L322,809.9429 A4,4 0 0 0 318,813.9429" fill="#FFFDF6" style="stroke:#C68A3A;stroke-width:0.5;"/><path d="M481.6211,809.9429 L481.6211,817.9429 A2,2 0 0 0 483.6211,819.9429 L491.6211,819.9429 L481.6211,809.9429" fill="#FFFDF6" style="stroke:#C68A3A;stroke-width:0.5;"/><text fill="#0E1014" font-family="'Inter, Helvetica, sans-serif'" font-size="12" lengthAdjust="spacing" textLength="135.7295" x="324" y="826.5676">Sandbox-pending items</text><text fill="#0E1014" font-family="'Inter, Helvetica, sans-serif'" font-size="12" lengthAdjust="spacing" textLength="138.8487" x="324" y="841.0899">appear in diagnostic_run</text><text fill="#0E1014" font-family="'Inter, Helvetica, sans-serif'" font-size="12" lengthAdjust="spacing" textLength="152.6211" x="324" y="855.6123">with a clear UNMEASURED</text><text fill="#0E1014" font-family="'Inter, Helvetica, sans-serif'" font-size="12" lengthAdjust="spacing" textLength="108.7131" x="324" y="870.1347">detail &#8212; never as a</text><text fill="#0E1014" font-family="'Inter, Helvetica, sans-serif'" font-size="12" lengthAdjust="spacing" textLength="50.6748" x="324" y="884.657">false fail.</text></g><!--link O_SIG to O_STRUCT--><g class="link" data-entity-1="ent0007" data-entity-2="ent0008" data-link-type="dependency" data-source-line="67" id="lnk13"><path codeLine="67" d="M606.41,277.7129 C544.85,343.5629 439.2146,456.5504 377.7746,522.2704" fill="none" id="O_SIG-to-O_STRUCT" style="stroke:#1A1D24;stroke-width:1;"/><polygon fill="#1A1D24" points="374.36,525.9229,383.4283,522.0801,377.7746,522.2704,377.5843,516.6168,374.36,525.9229" style="stroke:#1A1D24;stroke-width:1;stroke-linejoin:miter;stroke-miterlimit:10;"/><text fill="#000000" font-family="'Inter, Helvetica, sans-serif'" font-size="12" lengthAdjust="spacing" textLength="54.1861" x="492" y="406.5676">structural</text></g><!--link O_SIG to O_BEH--><g class="link" data-entity-1="ent0007" data-entity-2="ent0009" data-link-type="dependency" data-source-line="68" id="lnk14"><path codeLine="68" d="M652,277.7129 C652,319.8429 652,377.7729 652,434.8429" fill="none" id="O_SIG-to-O_BEH" style="stroke:#1A1D24;stroke-width:1;"/><polygon fill="#1A1D24" points="652,439.8429,656,430.8429,652,434.8429,648,430.8429,652,439.8429" style="stroke:#1A1D24;stroke-width:1;stroke-linejoin:miter;stroke-miterlimit:10;"/><text fill="#000000" font-family="'Inter, Helvetica, sans-serif'" font-size="12" lengthAdjust="spacing" textLength="59.061" x="653" y="406.5676">behavioral</text></g><!--link O_SIG to O_QCM--><g class="link" data-entity-1="ent0007" data-entity-2="ent0010" data-link-type="dependency" data-source-line="69" id="lnk15"><path codeLine="69" d="M699.49,277.7729 C739.44,319.6329 797.34,382.1329 844,439.9429 C868.33,470.0829 890.8636,501.7084 909.4136,528.7784" fill="none" id="O_SIG-to-O_QCM" style="stroke:#1A1D24;stroke-width:1;"/><polygon fill="#1A1D24" points="912.24,532.9029,910.4522,523.2177,909.4136,528.7784,903.8529,527.7399,912.24,532.9029" style="stroke:#1A1D24;stroke-width:1;stroke-linejoin:miter;stroke-miterlimit:10;"/><text fill="#000000" font-family="'Inter, Helvetica, sans-serif'" font-size="12" lengthAdjust="spacing" textLength="80.8104" x="816" y="406.5676">qcm_reliability</text></g><!--link O_BEH to O_RUN1--><g class="link" data-entity-1="ent0009" data-entity-2="ent0011" data-link-type="dependency" data-source-line="70" id="lnk16"><path codeLine="70" d="M652,711.0329 C652,743.5129 652,771.1729 652,796.7129" fill="none" id="O_BEH-to-O_RUN1" style="stroke:#1A1D24;stroke-width:1;"/><polygon fill="#1A1D24" points="652,801.7129,656,792.7129,652,796.7129,648,792.7129,652,801.7129" style="stroke:#1A1D24;stroke-width:1;stroke-linejoin:miter;stroke-miterlimit:10;"/><text fill="#000000" font-family="'Inter, Helvetica, sans-serif'" font-size="12" lengthAdjust="spacing" textLength="82.6172" x="657.8493" y="753.5676">diagnostic_run</text><text fill="#000000" font-family="'Inter, Helvetica, sans-serif'" font-size="12" lengthAdjust="spacing" textLength="92.3158" x="653" y="768.0899">['math-arith-01']</text></g><!--link O_BEH to O_RUN2--><g class="link" data-entity-1="ent0009" data-entity-2="ent0012" data-link-type="dependency" data-source-line="71" id="lnk17"><path codeLine="71" d="M476.98,700.4929 C470.96,704.0829 464.96,707.5829 459,710.9429 C392.49,748.4429 318.6128,781.4076 256.7428,806.9076" fill="none" id="O_BEH-to-O_RUN2" style="stroke:#1A1D24;stroke-width:1;"/><polygon fill="#1A1D24" points="252.12,808.8129,261.9652,809.0816,256.7428,806.9076,258.9167,801.6852,252.12,808.8129" style="stroke:#1A1D24;stroke-width:1;stroke-linejoin:miter;stroke-miterlimit:10;"/><text fill="#000000" font-family="'Inter, Helvetica, sans-serif'" font-size="12" lengthAdjust="spacing" textLength="82.6172" x="411.9884" y="753.5676">diagnostic_run</text><text fill="#000000" font-family="'Inter, Helvetica, sans-serif'" font-size="12" lengthAdjust="spacing" textLength="102.594" x="402" y="768.0899">['code-debug-01']</text></g><?plantuml-src ZLRTKjj65BxtKsny0qoGa6GCnDDa1WWqdOPG3DmqOPQLT6HjHjfLTbTWjzEPtFM-qsVeW_4aFMTbi34axON_TCwUyttdvrk_a2ghsXnO66xn-NUxPTsiWb2sTTLxyQn3LWbhyTFeraar2Toi0TiTw3dfAc2dwMV87Ckbc1XHixklVpF1YhQgPYmhXH6P0oD_WvpLEeUAISLS2SpA739XUhqrTgXLPi01cgmJAWEc2-yppyroAAJ205AXz_-15hAtK6kCPeJ3yxUbS4mhmDFNeRDRFtWaRyBFLgjhLaWaWIXRuI5hvGG2OQ90t7CcIqGiHJ6jOhVIbHqJeV9KJvbkN83aJe-FsJf2aPce2BbeAzSngwgDiDVJNRdwxuzF4ZxaCKyEs8YTouaIhZNGPyAoKtx-qu_iznxhQlPEs9AzPlrq-4hSVVsdI0PzDDbMEk0tOApKYimtSJ28s1Pp1Y2uYSZdKGCuLW7TaYZP2Q9XaCGNyVPea8pYlLzNV8N3a1mXOrFmHARhfi86aHVKAUGv62vpCftTWXe4H_uXzI0ATmw2ipsEsVzOSCL6j5XWWnL1gWy_df2-65yUNdZUO1qlj7QDaShnT4PjVCrYFeWY7dKlz7AWh3OyqwqYQl7E41yAa_bgLPMe1K7-qWflxfzjyv_vYUVgfhmMKtou7RtQMOQQGYbkfEwW7ZpyM8LwSFJEuzHOVsmi1aBc2NKbqmXvmcrMGkshbu8JGIMQIcJObfZIX-5uoDRZ7IQcO3V2S7uEB6-mic8gRPXXuttKxUWPQorSwQt3uJDM0m8d6r5qi7PyHfeAjcuhYVkrdRryahK2KNnSey1XOtGgrgxywRteEJT25pOpLshb_TP5QW6BJCj_-U7aQF_ySdpqTlEJMbaENHGR6A_nY_ljj0FqKTytfmQLekGTiaKzTYDFja2o4r3tV7UpZgxJk9OuBjIq2NoFjk_bF0g_rIQdyTkDa-LH-PBLE2DdMJs6IefKLjBDvkDnTdZYnwFG1aDpaPTWW9JDbvHwXZfZfSK1pcOTyBsLQTgBgGZ4DbfEYj8JOzQtgBPAMoUpSQkEb3FtcSUN7sAVkjjF8XO8WreLH7xqQEBGyD5R-fleWVf4G9h-rRmpQCOLXVk-qsA5L5OiT8Ee_L1V61H9jizAaQD6be0VA1S6PRP0XUgl84x-0t6oX9X6AyWXRIUhYCdoJSI5g2n1pd7R95MmlvX3FvPF9z6ZxAGs2Duiz6V45dhro4vBFs8BXNXaf9QF6Cu4Dujnw7M7EW_Vcf6_ABj2S2pD9zLDtqEJrgvM3oNF7dfK9ppKKnhLEjNEwPekK1y42t90ylE-any6Kq5IFiBdWwq1Nh2oJl5cPDUB1RX6szsVVw4ylHniRAqd-3uNWatQ8BpmVYc5XM2VPO0SrIJiWSePPPzZC79IkWu2eSTJvrtjWmOzIPRmugejjRPfG1ZwI_2O7vhyzIeG8JaiMhdeCFLKmGtTqNXPqwxH1E2xh9OG_Gi0?></g></svg>