<svg xmlns="http://www.w3.org/2000/svg" xmlns:xlink="http://www.w3.org/1999/xlink" contentStyleType="text/css" data-diagram-type="STATE" height="1758px" preserveAspectRatio="none" style="width:566px;height:1758px;background:#F4EEE3;" version="1.1" viewBox="0 0 566 1758" width="566px" zoomAndPan="magnify"><?plantuml 1.2026.4?><defs/><g><rect fill="#F4EEE3" height="1758" style="stroke:none;stroke-width:1;" width="566" x="0" y="0"/><g class="title" data-source-line="4"><text fill="#000000" font-family="'Inter, Helvetica, sans-serif'" font-size="14" font-weight="700" lengthAdjust="spacing" textLength="336.8099" x="111.4622" y="23.5623">Routing &#8212; `models.route` pipeline (slice 5b + 7)</text></g><!--cluster VEC--><g class="cluster" data-qualified-name="VEC" data-source-line="14" id="ent0007"><path d="M11,862.9429 L259,862.9429 A4,4 0 0 1 263,866.9429 L263,882.4652 L7,882.4652 L7,866.9429 A4,4 0 0 1 11,862.9429" fill="#F1F1F1"/><rect fill="none" height="417.22" rx="4" ry="4" style="stroke:#181818;stroke-width:0.5;" width="256" x="7" y="862.9429"/><line style="stroke:#181818;stroke-width:0.5;" x1="7" x2="263" y1="882.4652" y2="882.4652"/><text fill="#000000" font-family="'Inter, Helvetica, sans-serif'" font-size="12" lengthAdjust="spacing" textLength="186.3703" x="41.8149" y="878.5676">VECTOR path (routedBy:'vector')</text></g><!--cluster R5--><g class="cluster" data-qualified-name="R5" data-source-line="20" id="ent0011"><path d="M307,862.9429 L515,862.9429 A4,4 0 0 1 519,866.9429 L519,882.4652 L303,882.4652 L303,866.9429 A4,4 0 0 1 307,862.9429" fill="#F1F1F1"/><rect fill="none" height="271.72" rx="4" ry="4" style="stroke:#181818;stroke-width:0.5;" width="216" x="303" y="862.9429"/><line style="stroke:#181818;stroke-width:0.5;" x1="303" x2="519" y1="882.4652" y2="882.4652"/><text fill="#000000" font-family="'Inter, Helvetica, sans-serif'" font-size="12" lengthAdjust="spacing" textLength="128.2127" x="346.8937" y="878.5676">R5 path (routedBy:'r5')</text></g><g class="entity" data-qualified-name="VEC.EMBED_Q" data-source-line="15" id="ent0008"><rect fill="#F1F1F1" height="50" rx="4" ry="4" style="stroke:#181818;stroke-width:0.5;" width="207.5975" x="31" y="949.6629"/><line style="stroke:#181818;stroke-width:0.5;" x1="31" x2="238.5975" y1="988.7076" y2="988.7076"/><text fill="#000000" font-family="'Inter, Helvetica, sans-serif'" font-size="12" lengthAdjust="spacing" textLength="162.6436" x="41" y="966.2876">EmbedClient &#8594; query vector</text><text fill="#000000" font-family="'Inter, Helvetica, sans-serif'" font-size="12" lengthAdjust="spacing" textLength="187.5975" x="41" y="980.8099">(slice 7e ensureEmbedderReady)</text></g><g class="entity" data-qualified-name="VEC.PROJECT" data-source-line="16" id="ent0009"><rect fill="#F1F1F1" height="50" rx="4" ry="4" style="stroke:#181818;stroke-width:0.5;" width="180.6493" x="52.5" y="1060.6629"/><line style="stroke:#181818;stroke-width:0.5;" x1="52.5" x2="233.1493" y1="1099.7076" y2="1099.7076"/><text fill="#000000" font-family="'Inter, Helvetica, sans-serif'" font-size="12" lengthAdjust="spacing" textLength="160.6493" x="62.5" y="1077.2876">Project onto 32 leaf anchors</text><text fill="#000000" font-family="'Inter, Helvetica, sans-serif'" font-size="12" lengthAdjust="spacing" textLength="131.6046" x="62.5" y="1091.8099">(`probe-anchors.json`)</text></g><g class="entity" data-qualified-name="VEC.BLEND" data-source-line="17" id="ent0010"><rect fill="#F1F1F1" height="50" rx="4" ry="4" style="stroke:#181818;stroke-width:0.5;" width="180.1209" x="59" y="1206.1629"/><line style="stroke:#181818;stroke-width:0.5;" x1="59" x2="239.1209" y1="1245.2076" y2="1245.2076"/><text fill="#000000" font-family="'Inter, Helvetica, sans-serif'" font-size="12" lengthAdjust="spacing" textLength="160.1209" x="69" y="1222.7876">Blend &#945;&#183;v_det + &#946;&#183;max(0, tc)</text><text fill="#000000" font-family="'Inter, Helvetica, sans-serif'" font-size="12" lengthAdjust="spacing" textLength="82.14" x="69" y="1237.3099">(&#945;=0.7, &#946;=0.3)</text></g><g class="entity" data-qualified-name="R5.CLASSIFY" data-source-line="21" id="ent0012"><rect fill="#F1F1F1" height="50" rx="4" ry="4" style="stroke:#181818;stroke-width:0.5;" width="167.3201" x="327.5" y="949.6629"/><line style="stroke:#181818;stroke-width:0.5;" x1="327.5" x2="494.8201" y1="988.7076" y2="988.7076"/><text fill="#000000" font-family="'Inter, Helvetica, sans-serif'" font-size="12" lengthAdjust="spacing" textLength="85.6513" x="337.5" y="966.2876">classifyQuery()</text><text fill="#000000" font-family="'Inter, Helvetica, sans-serif'" font-size="12" lengthAdjust="spacing" textLength="147.3201" x="337.5" y="980.8099">deterministic axis weights</text></g><g class="entity" data-qualified-name="R5.MAP_BRANCH" data-source-line="22" id="ent0013"><rect fill="#F1F1F1" height="50" rx="4" ry="4" style="stroke:#181818;stroke-width:0.5;" width="152.5932" x="330.5" y="1060.6629"/><line style="stroke:#181818;stroke-width:0.5;" x1="330.5" x2="483.0932" y1="1085.1852" y2="1085.1852"/><text fill="#000000" font-family="'Inter, Helvetica, sans-serif'" font-size="12" lengthAdjust="spacing" textLength="132.5932" x="340.5" y="1077.2876">Map onto branch priors</text></g><g class="entity" data-qualified-name="ENTRY" data-source-line="7" id="ent0001"><rect fill="#F1F1F1" height="50" rx="4" ry="4" style="stroke:#181818;stroke-width:0.5;" width="149.6955" x="228" y="124.9429"/><line style="stroke:#181818;stroke-width:0.5;" x1="228" x2="377.6955" y1="149.4652" y2="149.4652"/><text fill="#000000" font-family="'Inter, Helvetica, sans-serif'" font-size="12" lengthAdjust="spacing" textLength="129.6955" x="238" y="141.5676">models.route MCP tool</text></g><g class="entity" data-qualified-name="CFG" data-source-line="8" id="ent0002"><rect fill="#F1F1F1" height="50" rx="4" ry="4" style="stroke:#181818;stroke-width:0.5;" width="175.8597" x="215" y="235.9429"/><line style="stroke:#181818;stroke-width:0.5;" x1="215" x2="390.8597" y1="274.9876" y2="274.9876"/><text fill="#000000" font-family="'Inter, Helvetica, sans-serif'" font-size="12" lengthAdjust="spacing" textLength="106.4802" x="225" y="252.5676">load routing config</text><text fill="#000000" font-family="'Inter, Helvetica, sans-serif'" font-size="12" lengthAdjust="spacing" textLength="155.8597" x="225" y="267.0899">+ effectiveRoutingParams()</text></g><g class="entity" data-qualified-name="CANDS" data-source-line="9" id="ent0003"><rect fill="#F1F1F1" height="50" rx="4" ry="4" style="stroke:#181818;stroke-width:0.5;" width="206.0805" x="200" y="346.9429"/><line style="stroke:#181818;stroke-width:0.5;" x1="200" x2="406.0805" y1="385.9876" y2="385.9876"/><text fill="#000000" font-family="'Inter, Helvetica, sans-serif'" font-size="12" lengthAdjust="spacing" textLength="120.5764" x="210" y="363.5676">list candidate models</text><text fill="#000000" font-family="'Inter, Helvetica, sans-serif'" font-size="12" lengthAdjust="spacing" textLength="186.0805" x="210" y="378.0899">(complete signatures only &#8212; D9)</text></g><g class="entity" data-qualified-name="PROBE" data-source-line="10" id="ent0004"><rect fill="#F1F1F1" height="50" rx="4" ry="4" style="stroke:#181818;stroke-width:0.5;" width="168.1212" x="219" y="457.9429"/><line style="stroke:#181818;stroke-width:0.5;" x1="219" x2="387.1212" y1="496.9876" y2="496.9876"/><text fill="#000000" font-family="'Inter, Helvetica, sans-serif'" font-size="12" lengthAdjust="spacing" textLength="109.3608" x="229" y="474.5676">Probe free memory</text><text fill="#000000" font-family="'Inter, Helvetica, sans-serif'" font-size="12" lengthAdjust="spacing" textLength="148.1212" x="229" y="489.0899">(VRAM/RAM, resident set)</text></g><g class="entity" data-qualified-name="Q_EMBED" data-source-line="11" id="ent0005"><rect fill="#F1F1F1" height="50" rx="4" ry="4" style="stroke:#181818;stroke-width:0.5;" width="149.099" x="228.5" y="568.9429"/><line style="stroke:#181818;stroke-width:0.5;" x1="228.5" x2="377.599" y1="593.4652" y2="593.4652"/><text fill="#000000" font-family="'Inter, Helvetica, sans-serif'" font-size="12" lengthAdjust="spacing" textLength="129.099" x="238.5" y="585.5676">Embedder configured?</text></g><g class="entity" data-qualified-name="Q_GATE" data-source-line="12" id="ent0006"><rect fill="#F1F1F1" height="50" rx="4" ry="4" style="stroke:#181818;stroke-width:0.5;" width="124.0939" x="73" y="718.9429"/><line style="stroke:#181818;stroke-width:0.5;" x1="73" x2="197.0939" y1="743.4652" y2="743.4652"/><text fill="#000000" font-family="'Inter, Helvetica, sans-serif'" font-size="12" lengthAdjust="spacing" textLength="104.0939" x="83" y="735.5676">Reliability gate &#8805; &#952;</text></g><g class="entity" data-qualified-name="SCORE" data-source-line="25" id="ent0014"><rect fill="#F1F1F1" height="63.5671" rx="4" ry="4" style="stroke:#181818;stroke-width:0.5;" width="143.6105" x="155" y="1335.1629"/><line style="stroke:#181818;stroke-width:0.5;" x1="155" x2="298.6105" y1="1388.73" y2="1388.73"/><text fill="#000000" font-family="'Inter, Helvetica, sans-serif'" font-size="12" lengthAdjust="spacing" textLength="123.6105" x="165" y="1351.7876">Score each candidate</text><text fill="#000000" font-family="'Inter, Helvetica, sans-serif'" font-size="12" lengthAdjust="spacing" textLength="106.412" x="165" y="1366.3099">C_m = &#931; q[i]&#183;v_m[i]</text><text fill="#000000" font-family="'Inter, Helvetica, sans-serif'" font-size="12" lengthAdjust="spacing" textLength="123.2014" x="165" y="1380.8323">+ w_fit&#183;fit + w_hot&#183;hot</text></g><g class="entity" data-qualified-name="RANK" data-source-line="26" id="ent0015"><rect fill="#F1F1F1" height="50" rx="4" ry="4" style="stroke:#181818;stroke-width:0.5;" width="132.4119" x="161" y="1460.1629"/><line style="stroke:#181818;stroke-width:0.5;" x1="161" x2="293.4119" y1="1499.2076" y2="1499.2076"/><text fill="#000000" font-family="'Inter, Helvetica, sans-serif'" font-size="12" lengthAdjust="spacing" textLength="102.0485" x="171" y="1476.7876">rank + select best</text><text fill="#000000" font-family="'Inter, Helvetica, sans-serif'" font-size="12" lengthAdjust="spacing" textLength="112.4119" x="171" y="1491.3099">filter to eligible (D9)</text></g><g class="entity" data-qualified-name="OUT" data-source-line="27" id="ent0016"><rect fill="#F1F1F1" height="50" rx="4" ry="4" style="stroke:#181818;stroke-width:0.5;" width="191.2854" x="131.5" y="1571.1629"/><line style="stroke:#181818;stroke-width:0.5;" x1="131.5" x2="322.7854" y1="1610.2076" y2="1610.2076"/><text fill="#000000" font-family="'Inter, Helvetica, sans-serif'" font-size="12" lengthAdjust="spacing" textLength="171.2854" x="141.5" y="1587.7876">return {routedBy, gateReason,</text><text fill="#000000" font-family="'Inter, Helvetica, sans-serif'" font-size="12" lengthAdjust="spacing" textLength="154.9733" x="144.8749" y="1602.3099">best, ranked, resources, &#8230;}</text></g><g class="start_entity" data-qualified-name=".start." data-source-line="6" id="ent0017"><ellipse cx="303" cy="53.9429" fill="#222222" rx="10" ry="10" style="stroke:#222222;stroke-width:1;"/></g><g class="entity" data-qualified-name="GMN36" data-source-line="52" id="ent0037"><path d="M358,1193.6629 L358,1227.1629 L239.25,1231.1629 L358,1235.1629 L358,1268.2747 A4,4 0 0 0 362,1272.2747 L547.7343,1272.2747 A4,4 0 0 0 551.7343,1268.2747 L551.7343,1199.6629 L541.7343,1189.6629 L362,1189.6629 A4,4 0 0 0 358,1193.6629" fill="#FFFDF6" style="stroke:#C68A3A;stroke-width:0.5;"/><path d="M541.7343,1189.6629 L541.7343,1197.6629 A2,2 0 0 0 543.7343,1199.6629 L551.7343,1199.6629 L541.7343,1189.6629" fill="#FFFDF6" style="stroke:#C68A3A;stroke-width:0.5;"/><text fill="#0E1014" font-family="'Inter, Helvetica, sans-serif'" font-size="12" lengthAdjust="spacing" textLength="137.3999" x="364" y="1206.2876">topic_coverage_per_leaf</text><text fill="#0E1014" font-family="'Inter, Helvetica, sans-serif'" font-size="12" lengthAdjust="spacing" textLength="134.6556" x="364" y="1220.8099">(slice 7c) is **additional</text><text fill="#0E1014" font-family="'Inter, Helvetica, sans-serif'" font-size="12" lengthAdjust="spacing" textLength="154.2575" x="364" y="1235.3323">evidence**, never replaces</text><text fill="#0E1014" font-family="'Inter, Helvetica, sans-serif'" font-size="12" lengthAdjust="spacing" textLength="172.7343" x="364" y="1249.8547">the deterministic competence.</text><text fill="#0E1014" font-family="'Inter, Helvetica, sans-serif'" font-size="12" lengthAdjust="spacing" textLength="143.2975" x="364" y="1264.377">See DECISIONS.md DCC.</text></g><g class="entity" data-qualified-name="GMN39" data-source-line="60" id="ent0040"><path d="M232.5,713.9429 L232.5,739.9429 L197.22,743.9429 L232.5,747.9429 L232.5,774.0323 A4,4 0 0 0 236.5,778.0323 L395.7974,778.0323 A4,4 0 0 0 399.7974,774.0323 L399.7974,719.9429 L389.7974,709.9429 L236.5,709.9429 A4,4 0 0 0 232.5,713.9429" fill="#FFFDF6" style="stroke:#C68A3A;stroke-width:0.5;"/><path d="M389.7974,709.9429 L389.7974,717.9429 A2,2 0 0 0 391.7974,719.9429 L399.7974,719.9429 L389.7974,709.9429" fill="#FFFDF6" style="stroke:#C68A3A;stroke-width:0.5;"/><text fill="#0E1014" font-family="'Inter, Helvetica, sans-serif'" font-size="12" lengthAdjust="spacing" textLength="146.2974" x="238.5" y="726.5676">Failure to embed query or</text><text fill="#0E1014" font-family="'Inter, Helvetica, sans-serif'" font-size="12" lengthAdjust="spacing" textLength="138.0646" x="238.5" y="741.0899">read reliability &#8658; silently</text><text fill="#0E1014" font-family="'Inter, Helvetica, sans-serif'" font-size="12" lengthAdjust="spacing" textLength="130.8716" x="238.5" y="755.6123">fall back to R5. Routing</text><text fill="#0E1014" font-family="'Inter, Helvetica, sans-serif'" font-size="12" lengthAdjust="spacing" textLength="9.1191" x="238.5" y="770.1347">is</text><text fill="#0E1014" font-family="'Inter, Helvetica, sans-serif'" font-size="12" font-weight="700" lengthAdjust="spacing" textLength="88.2592" x="250.994" y="770.1347">never blocking</text><text fill="#0E1014" font-family="'Inter, Helvetica, sans-serif'" font-size="12" lengthAdjust="spacing" textLength="3.3067" x="339.2532" y="770.1347">.</text></g><!--link *start* to ENTRY--><g class="link" data-entity-1="ent0017" data-entity-2="ent0001" data-link-type="dependency" data-source-line="6" id="lnk18"><path d="M303,63.9529 C303,77.8329 303,99.9129 303,119.7829" fill="none" id="*start*-to-ENTRY" style="stroke:#1A1D24;stroke-width:1;"/><polygon fill="#1A1D24" points="303,124.7829,307,115.7829,303,119.7829,299,115.7829,303,124.7829" style="stroke:#1A1D24;stroke-width:1;stroke-linejoin:miter;stroke-miterlimit:10;"/></g><!--link ENTRY to CFG--><g class="link" data-entity-1="ent0001" data-entity-2="ent0002" data-link-type="dependency" data-source-line="29" id="lnk19"><path d="M303,175.1329 C303,193.1929 303,212.7729 303,230.8229" fill="none" id="ENTRY-to-CFG" style="stroke:#1A1D24;stroke-width:1;"/><polygon fill="#1A1D24" points="303,235.8229,307,226.8229,303,230.8229,299,226.8229,303,235.8229" style="stroke:#1A1D24;stroke-width:1;stroke-linejoin:miter;stroke-miterlimit:10;"/></g><!--link CFG to CANDS--><g class="link" data-entity-1="ent0002" data-entity-2="ent0003" data-link-type="dependency" data-source-line="30" id="lnk20"><path d="M303,286.1329 C303,304.1929 303,323.7729 303,341.8229" fill="none" id="CFG-to-CANDS" style="stroke:#1A1D24;stroke-width:1;"/><polygon fill="#1A1D24" points="303,346.8229,307,337.8229,303,341.8229,299,337.8229,303,346.8229" style="stroke:#1A1D24;stroke-width:1;stroke-linejoin:miter;stroke-miterlimit:10;"/></g><!--link CANDS to PROBE--><g class="link" data-entity-1="ent0003" data-entity-2="ent0004" data-link-type="dependency" data-source-line="31" id="lnk21"><path d="M303,397.1329 C303,415.1929 303,434.7729 303,452.8229" fill="none" id="CANDS-to-PROBE" style="stroke:#1A1D24;stroke-width:1;"/><polygon fill="#1A1D24" points="303,457.8229,307,448.8229,303,452.8229,299,448.8229,303,457.8229" style="stroke:#1A1D24;stroke-width:1;stroke-linejoin:miter;stroke-miterlimit:10;"/></g><!--link PROBE to Q_EMBED--><g class="link" data-entity-1="ent0004" data-entity-2="ent0005" data-link-type="dependency" data-source-line="32" id="lnk22"><path d="M303,508.1329 C303,526.1929 303,545.7729 303,563.8229" fill="none" id="PROBE-to-Q_EMBED" style="stroke:#1A1D24;stroke-width:1;"/><polygon fill="#1A1D24" points="303,568.8229,307,559.8229,303,563.8229,299,559.8229,303,568.8229" style="stroke:#1A1D24;stroke-width:1;stroke-linejoin:miter;stroke-miterlimit:10;"/></g><!--link Q_EMBED to Q_GATE--><g class="link" data-entity-1="ent0005" data-entity-2="ent0006" data-link-type="dependency" data-source-line="34" id="lnk23"><path d="M275.63,619.0529 C244.39,646.5729 197.3419,688.0178 166.1019,715.5378" fill="none" id="Q_EMBED-to-Q_GATE" style="stroke:#1A1D24;stroke-width:1;"/><polygon fill="#1A1D24" points="162.35,718.8429,171.7474,715.8952,166.1019,715.5378,166.4593,709.8922,162.35,718.8429" style="stroke:#1A1D24;stroke-width:1;stroke-linejoin:miter;stroke-miterlimit:10;"/><text fill="#000000" font-family="'Inter, Helvetica, sans-serif'" font-size="12" lengthAdjust="spacing" textLength="61.2428" x="271.2407" y="661.5676">configured</text><text fill="#000000" font-family="'Inter, Helvetica, sans-serif'" font-size="12" lengthAdjust="spacing" textLength="125.7241" x="239" y="676.0899">(managed or external)</text></g><!--link Q_EMBED to R5--><g class="link" data-entity-1="ent0005" data-entity-2="ent0011" data-link-type="dependency" data-source-line="35" id="lnk24"><path d="M338.48,619.1829 C350.09,627.9029 362.64,638.2429 373,648.9429 C396.25,672.9529 401.99,680.0729 417,709.9429 C443.47,762.6329 466.91,783.0929 448,838.9429 C445.8975,845.1504 442.6431,851.1879 438.9181,856.7735 C437.9869,858.1699 437.0262,859.5381 436.0468,860.8736 C435.5571,861.5414 438.1,858.2293 437.6023,858.8802" fill="none" id="Q_EMBED-to-R5" style="stroke:#1A1D24;stroke-width:1;"/><polygon fill="#1A1D24" points="434.5649,862.8518,443.2095,858.1327,437.6023,858.8802,436.8548,853.2729,434.5649,862.8518" style="stroke:#1A1D24;stroke-width:1;stroke-linejoin:miter;stroke-miterlimit:10;"/><text fill="#000000" font-family="'Inter, Helvetica, sans-serif'" font-size="12" lengthAdjust="spacing" textLength="38.8627" x="467.2013" y="741.0676">absent</text><text fill="#000000" font-family="'Inter, Helvetica, sans-serif'" font-size="12" lengthAdjust="spacing" textLength="71.2652" x="451" y="755.5899">(R5 fallback)</text></g><!--link Q_GATE to VEC--><g class="link" data-entity-1="ent0006" data-entity-2="ent0007" data-link-type="dependency" data-source-line="36" id="lnk25"><path d="M135,769.0929 C135,789.0829 135,818.0304 135,842.2754 C135,848.3366 135,854.104 135,859.364 C135,860.0215 135,860.6711 135,861.3123 C135,861.6329 135,861.9514 135,862.2678 C135,862.426 135,857.5837 135,857.7408" fill="none" id="Q_GATE-to-VEC" style="stroke:#1A1D24;stroke-width:1;"/><polygon fill="#1A1D24" points="135,862.7408,139,853.7408,135,857.7408,131,853.7408,135,862.7408" style="stroke:#1A1D24;stroke-width:1;stroke-linejoin:miter;stroke-miterlimit:10;"/><text fill="#000000" font-family="'Inter, Helvetica, sans-serif'" font-size="12" lengthAdjust="spacing" textLength="118.0879" x="136" y="820.5676">embeddingReliability</text><text fill="#000000" font-family="'Inter, Helvetica, sans-serif'" font-size="12" lengthAdjust="spacing" textLength="65.0097" x="162.5391" y="835.0899">&#8805; threshold</text></g><!--link Q_GATE to R5--><g class="link" data-entity-1="ent0006" data-entity-2="ent0011" data-link-type="dependency" data-source-line="37" id="lnk26"><path d="M185.84,769.0429 C209.47,780.4829 237.86,794.5529 263,807.9429 C287.43,820.9529 292.69,825.7229 317,838.9429 C326.995,844.3804 337.6625,850.0204 348.0905,855.4459 C350.6975,856.8022 353.2895,858.1452 355.8523,859.4682 C357.1337,860.1297 358.4078,860.7863 359.6728,861.437 C360.3053,861.7624 360.9355,862.0863 361.5633,862.4087 C361.8771,862.5699 357.7418,860.448 358.0544,860.6084" fill="none" id="Q_GATE-to-R5" style="stroke:#1A1D24;stroke-width:1;"/><polygon fill="#1A1D24" points="362.503,862.8911,356.3217,855.2235,358.0544,860.6084,352.6695,862.3412,362.503,862.8911" style="stroke:#1A1D24;stroke-width:1;stroke-linejoin:miter;stroke-miterlimit:10;"/><text fill="#000000" font-family="'Inter, Helvetica, sans-serif'" font-size="12" lengthAdjust="spacing" textLength="91.2931" x="335.3092" y="820.5676">below threshold</text><text fill="#000000" font-family="'Inter, Helvetica, sans-serif'" font-size="12" lengthAdjust="spacing" textLength="125.9116" x="318" y="835.0899">(gateReason explains)</text></g><!--link VEC to EMBED_Q--><g class="link" data-entity-1="ent0007" data-entity-2="ent0008" data-link-type="dependency" data-source-line="39" id="lnk27"><path d="M135,888.7229 C135,890.3729 135,919.7729 135,944.2729" fill="none" id="VEC-to-EMBED_Q" style="stroke:#1A1D24;stroke-width:1;"/><polygon fill="#1A1D24" points="135,949.2729,139,940.2729,135,944.2729,131,940.2729,135,949.2729" style="stroke:#1A1D24;stroke-width:1;stroke-linejoin:miter;stroke-miterlimit:10;"/></g><!--link EMBED_Q to PROJECT--><g class="link" data-entity-1="ent0008" data-entity-2="ent0009" data-link-type="dependency" data-source-line="40" id="lnk28"><path d="M136.78,999.8529 C138.1,1017.9129 139.5326,1037.5064 140.8626,1055.5564" fill="none" id="EMBED_Q-to-PROJECT" style="stroke:#1A1D24;stroke-width:1;"/><polygon fill="#1A1D24" points="141.23,1060.5429,144.5578,1051.2733,140.8626,1055.5564,136.5794,1051.8612,141.23,1060.5429" style="stroke:#1A1D24;stroke-width:1;stroke-linejoin:miter;stroke-miterlimit:10;"/></g><!--link PROJECT to BLEND--><g class="link" data-entity-1="ent0009" data-entity-2="ent0010" data-link-type="dependency" data-source-line="41" id="lnk29"><path d="M144,1110.6829 C145.11,1137.1729 146.6709,1174.5473 147.7809,1201.0673" fill="none" id="PROJECT-to-BLEND" style="stroke:#1A1D24;stroke-width:1;"/><polygon fill="#1A1D24" points="147.99,1206.0629,151.6101,1196.9035,147.7809,1201.0673,143.6171,1197.238,147.99,1206.0629" style="stroke:#1A1D24;stroke-width:1;stroke-linejoin:miter;stroke-miterlimit:10;"/></g><!--link BLEND to SCORE--><g class="link" data-entity-1="ent0010" data-entity-2="ent0014" data-link-type="dependency" data-source-line="42" id="lnk30"><path d="M163.13,1256.4329 C175.94,1278.4529 192.4048,1306.7216 206.3448,1330.6716" fill="none" id="BLEND-to-SCORE" style="stroke:#1A1D24;stroke-width:1;"/><polygon fill="#1A1D24" points="208.86,1334.9929,207.7897,1325.2024,206.3448,1330.6716,200.8756,1329.2267,208.86,1334.9929" style="stroke:#1A1D24;stroke-width:1;stroke-linejoin:miter;stroke-miterlimit:10;"/></g><!--link R5 to CLASSIFY--><g class="link" data-entity-1="ent0011" data-entity-2="ent0012" data-link-type="dependency" data-source-line="44" id="lnk31"><path d="M411,888.7229 C411,890.3729 411,919.7729 411,944.2729" fill="none" id="R5-to-CLASSIFY" style="stroke:#1A1D24;stroke-width:1;"/><polygon fill="#1A1D24" points="411,949.2729,415,940.2729,411,944.2729,407,940.2729,411,949.2729" style="stroke:#1A1D24;stroke-width:1;stroke-linejoin:miter;stroke-miterlimit:10;"/></g><!--link CLASSIFY to MAP_BRANCH--><g class="link" data-entity-1="ent0012" data-entity-2="ent0013" data-link-type="dependency" data-source-line="45" id="lnk32"><path d="M410.11,999.8529 C409.45,1017.9129 408.7327,1037.4962 408.0727,1055.5462" fill="none" id="CLASSIFY-to-MAP_BRANCH" style="stroke:#1A1D24;stroke-width:1;"/><polygon fill="#1A1D24" points="407.89,1060.5429,412.2162,1051.6951,408.0727,1055.5462,404.2215,1051.4027,407.89,1060.5429" style="stroke:#1A1D24;stroke-width:1;stroke-linejoin:miter;stroke-miterlimit:10;"/></g><!--link MAP_BRANCH to SCORE--><g class="link" data-entity-1="ent0013" data-entity-2="ent0014" data-link-type="dependency" data-source-line="46" id="lnk33"><path d="M391.34,1110.9729 C358.67,1161.7129 285.9777,1274.5895 249.7877,1330.7695" fill="none" id="MAP_BRANCH-to-SCORE" style="stroke:#1A1D24;stroke-width:1;"/><polygon fill="#1A1D24" points="247.08,1334.9729,255.3166,1329.573,249.7877,1330.7695,248.5912,1325.2407,247.08,1334.9729" style="stroke:#1A1D24;stroke-width:1;stroke-linejoin:miter;stroke-miterlimit:10;"/></g><!--link SCORE to RANK--><g class="link" data-entity-1="ent0014" data-entity-2="ent0015" data-link-type="dependency" data-source-line="48" id="lnk34"><path d="M227,1399.2529 C227,1418.3129 227,1437.3529 227,1454.9829" fill="none" id="SCORE-to-RANK" style="stroke:#1A1D24;stroke-width:1;"/><polygon fill="#1A1D24" points="227,1459.9829,231,1450.9829,227,1454.9829,223,1450.9829,227,1459.9829" style="stroke:#1A1D24;stroke-width:1;stroke-linejoin:miter;stroke-miterlimit:10;"/></g><!--link RANK to OUT--><g class="link" data-entity-1="ent0015" data-entity-2="ent0016" data-link-type="dependency" data-source-line="49" id="lnk35"><path d="M227,1510.3529 C227,1528.4129 227,1547.9929 227,1566.0429" fill="none" id="RANK-to-OUT" style="stroke:#1A1D24;stroke-width:1;"/><polygon fill="#1A1D24" points="227,1571.0429,231,1562.0429,227,1566.0429,223,1562.0429,227,1571.0429" style="stroke:#1A1D24;stroke-width:1;stroke-linejoin:miter;stroke-miterlimit:10;"/></g><g class="legend" data-source-line="3"><rect fill="none" height="98.7144" rx="4" ry="4" style="stroke:#000000;stroke-width:1;" width="467.4382" x="80.296" y="1641.1629"/><text fill="#000000" font-family="'Inter, Helvetica, sans-serif'" font-size="14" lengthAdjust="spacing" textLength="47.6469" x="89.2335" y="1661.7251">symbol</text><text fill="#000000" font-family="'Inter, Helvetica, sans-serif'" font-size="14" lengthAdjust="spacing" textLength="56.4564" x="148.991" y="1661.7251">meaning</text><rect fill="#FFFFFF" height="16.9429" style="stroke:none;stroke-width:1;" width="59.7575" x="85.296" y="1665.1058"/><text fill="#000000" font-family="'Inter, Helvetica, sans-serif'" font-size="14" font-weight="700" lengthAdjust="spacing" textLength="31.8177" x="85.296" y="1678.668">rung</text><text fill="#000000" font-family="'Inter, Helvetica, sans-serif'" font-size="14" lengthAdjust="spacing" textLength="3.9374" x="117.1137" y="1678.668">&#160;</text><text fill="#000000" font-family="'Inter, Helvetica, sans-serif'" font-size="14" lengthAdjust="spacing" textLength="252.6122" x="148.991" y="1678.668">real staircase climb (passes recorded)</text><rect fill="#FFFDF6" height="16.9429" style="stroke:none;stroke-width:1;" width="59.7575" x="85.296" y="1682.0487"/><text fill="#000000" font-family="'Inter, Helvetica, sans-serif'" font-size="14" font-weight="700" lengthAdjust="spacing" textLength="32.812" x="85.296" y="1695.6109">prior</text><text fill="#000000" font-family="'Inter, Helvetica, sans-serif'" font-size="14" lengthAdjust="spacing" textLength="3.9374" x="118.108" y="1695.6109">&#160;</text><text fill="#000000" font-family="'Inter, Helvetica, sans-serif'" font-size="14" lengthAdjust="spacing" textLength="356.6956" x="148.991" y="1695.6109">low-confidence QCM/branch prior (Dyy/D12 discount)</text><rect fill="#E6DFD2" height="16.9429" style="stroke:none;stroke-width:1;" width="59.7575" x="85.296" y="1698.9915"/><text fill="#000000" font-family="'Inter, Helvetica, sans-serif'" font-size="14" font-weight="700" lengthAdjust="spacing" textLength="34.6415" x="85.296" y="1712.5538">none</text><text fill="#000000" font-family="'Inter, Helvetica, sans-serif'" font-size="14" lengthAdjust="spacing" textLength="3.9374" x="119.9375" y="1712.5538">&#160;</text><text fill="#000000" font-family="'Inter, Helvetica, sans-serif'" font-size="14" lengthAdjust="spacing" textLength="314.2589" x="148.991" y="1712.5538">never measured (D8.B: leave blank, never zero)</text><text fill="#000000" font-family="'Inter, Helvetica, sans-serif'" font-size="14" lengthAdjust="spacing" textLength="51.8826" x="89.2335" y="1729.4967">scheme</text><text fill="#000000" font-family="'Inter, Helvetica, sans-serif'" font-size="14" lengthAdjust="spacing" textLength="389.8058" x="148.991" y="1729.4967">`beta-laplace-v1` (current) or `breaking-rung-v0` (legacy)</text><line style="stroke:#000000;stroke-width:1;" x1="85.296" x2="542.7343" y1="1648.1629" y2="1648.1629"/><line style="stroke:#000000;stroke-width:1;" x1="85.296" x2="542.7343" y1="1665.1058" y2="1665.1058"/><line style="stroke:#000000;stroke-width:1;" x1="85.296" x2="542.7343" y1="1682.0487" y2="1682.0487"/><line style="stroke:#000000;stroke-width:1;" x1="85.296" x2="542.7343" y1="1698.9915" y2="1698.9915"/><line style="stroke:#000000;stroke-width:1;" x1="85.296" x2="542.7343" y1="1715.9344" y2="1715.9344"/><line style="stroke:#000000;stroke-width:1;" x1="85.296" x2="542.7343" y1="1732.8773" y2="1732.8773"/><line style="stroke:#000000;stroke-width:1;" x1="85.296" x2="85.296" y1="1648.1629" y2="1732.8773"/><line style="stroke:#000000;stroke-width:1;" x1="145.0535" x2="145.0535" y1="1648.1629" y2="1732.8773"/><line style="stroke:#000000;stroke-width:1;" x1="542.7343" x2="542.7343" y1="1648.1629" y2="1732.8773"/></g><?plantuml-src RLNDRXit4BxlKqnoYQJ8Sj30C6eWBVJdr6tquvKR88W2cRixaXXpoGr9oHQ203srw3Ne6nJjFRsuPp-07i9FqY5tLrgtFOZBd_dzvflH8ovZiKeGMgt3MR4tXyPk1BRuAXN1e_yL4BX0cUGIWULM88HgPRbSmFrFly5bgX8KfgNf3YyXunaABX5gHl0OuIY2ft1S3uAtZNTmSF0Dz8SNuPl0M6OH7bTrOT0TWrLAF0Pc7ee9nHBGXTDOoJbVJELJmFaSOylNMCGpPfgbfbRt1hgdBtVgt5Y8cKnuuiwvqwcinIhD1DADuGl9x4gZ0IN5nkVL-xgmqnxs9gMbiLOHmbmZMS5KwGrPUHss1uVqQmBfymIb1OCsLnw7eqw_LEwd4IO9wY83SfTywwNEP_r1fzyhvK82a4LSSBk1XRkv__KFsFvTYBviN_I3KlHrltin2Y5ZTWarZsBIsPmyMHCiIZ_9Oo0P-1W0LAFe2kxYlF_vCtnOeTv0ha7Pv5KxHa1fAC8ovX1Piidj-LXdvtkB1CfxKYVeh8BdNu50DWScuwNI3kNBp85sK5oqtXibBtVeV4y9x2rr134Djb_kRjUp12qnP_lNtMtARchFcc3ZEbdRVddnh7NSf0VwFi_jT5xrXxtWqmwLyEW_YEYZ0Wrwgu0H2sOCds_E7GWriazUKQTS4cDu3Eo66xX6lbXQavFXLNioEJjzixSmO5cUUAHTXf1fJbbwuK5xFEk4xM7tkqfiarXf0fUHw8wHKzcTfV02jh_3XxVydSi-fQ-Z-FLipktTBItW3aj51rgy_Kbt5Ex8HTwlICIWSAM8qDWfaKnGDjHJG8nQy8WwjrRIckBwOQUBn7q97qkucfvsL78gLNCglJLYDtd0nBDShNICfabzykSdRstquqKG-9RrFUvwZtxvtlUFN_qvRmc_-dD9_g3O59UEvd1IQHMgVSeaMs02IWFUK6QIYVe3DIhk2R384BT9d4vp9aJ4uYidvYqwATSG9u2UsJGrAkqsbQxLx99IN2gHL9MywGY5kjw_auyzK1HI9XYNXcQTy-1dNT4gnRVCtvE--FgxdC1-zUUyiW7vz0YMf2it_hR2hlssgkq_UUokrcxn9ryhgQZmsX4RrBpm3yIKZCUpMArH4z2p3FNCDJEzb7CXhWErHAF123hB5LM07d7jnbwCZKOJ998oSOIm88eucqk4XrtbnYvTa4ABtYSqItlzxjdaR3ISjD84UjrkAt1pmCNuxqYB-GTmohWWMdXokqeMSqnfUjFe_YugK_J-byyquscuMB6XTySASBHmsk5Hg_m_eoUVN9v395HyHRUDHYMSVm00?></g></svg>