<svg xmlns="http://www.w3.org/2000/svg" xmlns:xlink="http://www.w3.org/1999/xlink" contentStyleType="text/css" data-diagram-type="SEQUENCE" height="1743px" preserveAspectRatio="none" style="width:1380px;height:1743px;background:#F4EEE3;" version="1.1" viewBox="0 0 1380 1743" width="1380px" zoomAndPan="magnify"><?plantuml 1.2026.4?><defs/><g><rect fill="#F4EEE3" height="1743" style="stroke:none;stroke-width:1;" width="1380" x="0" y="0"/><g class="title" data-source-line="3"><text fill="#000000" font-family="'Inter, Helvetica, sans-serif'" font-size="14" font-weight="700" lengthAdjust="spacing" textLength="328.935" x="522.211" y="28.5623">Sandbox &#8212; per-OS isolation lifecycle (slice 2d)</text></g><rect fill="#F4EEE3" height="1443.7297" rx="4" ry="4" style="stroke:#C68A3A;stroke-width:1.5;" width="1354.3569" x="10" y="218.5994"/><path d="M10,320.6888 L1364.3569,320.6888 L1364.3569,1166.8819 A4,4 0 0 1 1360.3569,1170.8819 L14,1170.8819 A4,4 0 0 1 10,1166.8819 L10,320.6888" fill="#F4EEE3" style="stroke:none;stroke-width:1;"/><rect fill="#F4EEE3" height="749.626" rx="4" ry="4" style="stroke:#C68A3A;stroke-width:1.5;" width="1334.3569" x="20" y="414.2559"/><path d="M20,487.823 L1354.3569,487.823 L1354.3569,1159.8819 A4,4 0 0 1 1350.3569,1163.8819 L24,1163.8819 A4,4 0 0 1 20,1159.8819 L20,487.823" fill="#F4EEE3" style="stroke:none;stroke-width:1;"/><rect fill="#F4EEE3" height="348.7907" rx="4" ry="4" style="stroke:#C68A3A;stroke-width:1.5;" width="1018.7791" x="215.1746" y="766.5689"/><path d="M215.1746,868.6583 L1233.9537,868.6583 L1233.9537,938.2254 A4,4 0 0 1 1229.9537,942.2254 L219.1746,942.2254 A4,4 0 0 1 215.1746,938.2254 L215.1746,868.6583" fill="#F4EEE3" style="stroke:none;stroke-width:1;"/><path d="M215.1746,942.2254 L1233.9537,942.2254 L1233.9537,1024.7925 A4,4 0 0 1 1229.9537,1028.7925 L219.1746,1028.7925 A4,4 0 0 1 215.1746,1024.7925 L215.1746,942.2254" fill="#F4EEE3" style="stroke:none;stroke-width:1;"/><path d="M215.1746,1028.7925 L1233.9537,1028.7925 L1233.9537,1111.3596 A4,4 0 0 1 1229.9537,1115.3596 L219.1746,1115.3596 A4,4 0 0 1 215.1746,1111.3596 L215.1746,1028.7925" fill="#F4EEE3" style="stroke:none;stroke-width:1;"/><path d="M10,1170.8819 L1364.3569,1170.8819 L1364.3569,1658.3291 A4,4 0 0 1 1360.3569,1662.3291 L14,1662.3291 A4,4 0 0 1 10,1658.3291 L10,1170.8819" fill="#F4EEE3" style="stroke:none;stroke-width:1;"/><rect fill="#F4EEE3" height="161.6565" rx="4" ry="4" style="stroke:#C68A3A;stroke-width:1.5;" width="710.1778" x="523.7759" y="1465.1502"/><path d="M523.7759,1553.2396 L1233.9537,1553.2396 L1233.9537,1622.8067 A4,4 0 0 1 1229.9537,1626.8067 L527.7759,1626.8067 A4,4 0 0 1 523.7759,1622.8067 L523.7759,1553.2396" fill="#F4EEE3" style="stroke:none;stroke-width:1;"/><g class="participant-lifeline" data-entity-uid="part1" data-qualified-name="STAIR" data-source-line="5" id="part1-lifeline"><g><title>staircase.</title><rect fill="#000000" fill-opacity="0.00000" height="1577.8191" width="8" x="69.6639" y="101.51"/><line style="stroke:#7A7569;stroke-width:0.5;stroke-dasharray:5,5;" x1="73" x2="73" y1="101.51" y2="1679.3291"/></g></g><g class="participant-lifeline" data-entity-uid="part2" data-qualified-name="RUN" data-source-line="6" id="part2-lifeline"><g><title>characterizeRunner</title><rect fill="#000000" fill-opacity="0.00000" height="1577.8191" width="8" x="283.5624" y="101.51"/><line style="stroke:#7A7569;stroke-width:0.5;stroke-dasharray:5,5;" x1="287.1746" x2="287.1746" y1="101.51" y2="1679.3291"/></g></g><g class="participant-lifeline" data-entity-uid="part3" data-qualified-name="DISP" data-source-line="7" id="part3-lifeline"><g><title>getSandbox..enabled..</title><rect fill="#000000" fill-opacity="0.00000" height="1577.8191" width="8" x="447.0077" y="101.51"/><line style="stroke:#7A7569;stroke-width:0.5;stroke-dasharray:5,5;" x1="450.2395" x2="450.2395" y1="101.51" y2="1679.3291"/></g></g><g class="participant-lifeline" data-entity-uid="part4" data-qualified-name="PROV" data-source-line="8" id="part4-lifeline"><g><title>PosixSandbox</title><rect fill="#000000" fill-opacity="0.00000" height="1577.8191" width="8" x="591.5331" y="101.51"/><line style="stroke:#7A7569;stroke-width:0.5;stroke-dasharray:5,5;" x1="594.7759" x2="594.7759" y1="101.51" y2="1679.3291"/></g></g><g class="participant-lifeline" data-entity-uid="part5" data-qualified-name="SPAWN" data-source-line="9" id="part5-lifeline"><g><title>spawn .child_process.</title><rect fill="#000000" fill-opacity="0.00000" height="1577.8191" width="8" x="798.0682" y="101.51"/><line style="stroke:#7A7569;stroke-width:0.5;stroke-dasharray:5,5;" x1="801.7118" x2="801.7118" y1="101.51" y2="1679.3291"/></g></g><g class="participant-lifeline" data-entity-uid="part6" data-qualified-name="KERNEL" data-source-line="10" id="part6-lifeline"><g><title>kernel</title><rect fill="#000000" fill-opacity="0.00000" height="1577.8191" width="8" x="978.8483" y="101.51"/><line style="stroke:#7A7569;stroke-width:0.5;stroke-dasharray:5,5;" x1="981.9634" x2="981.9634" y1="101.51" y2="1679.3291"/></g></g><g class="participant-lifeline" data-entity-uid="part7" data-qualified-name="PY" data-source-line="11" id="part7-lifeline"><g><title>python child</title><rect fill="#000000" fill-opacity="0.00000" height="1577.8191" width="8" x="1177.9858" y="101.51"/><line style="stroke:#7A7569;stroke-width:0.5;stroke-dasharray:5,5;" x1="1181.018" x2="1181.018" y1="101.51" y2="1679.3291"/></g></g><g class="participant participant-head" data-entity-uid="part1" data-qualified-name="STAIR" data-source-line="5" id="part1-head"><rect fill="#FFFFFF" height="43.0447" rx="4" ry="4" style="stroke:#0E1014;stroke-width:0.5;" width="87.3277" x="30" y="57.4652"/><text fill="#0E1014" font-family="'Inter, Helvetica, sans-serif'" font-size="12" lengthAdjust="spacing" textLength="54.7486" x="46.2896" y="76.0899">staircase.</text><text fill="#0E1014" font-family="'Inter, Helvetica, sans-serif'" font-size="12" lengthAdjust="spacing" textLength="73.3277" x="37" y="90.6123">evaluateItem</text></g><g class="participant participant-tail" data-entity-uid="part1" data-qualified-name="STAIR" data-source-line="5" id="part1-tail"><rect fill="#FFFFFF" height="43.0447" rx="4" ry="4" style="stroke:#0E1014;stroke-width:0.5;" width="87.3277" x="30" y="1678.3291"/><text fill="#0E1014" font-family="'Inter, Helvetica, sans-serif'" font-size="12" lengthAdjust="spacing" textLength="54.7486" x="46.2896" y="1696.9538">staircase.</text><text fill="#0E1014" font-family="'Inter, Helvetica, sans-serif'" font-size="12" lengthAdjust="spacing" textLength="73.3277" x="37" y="1711.4761">evaluateItem</text></g><g class="participant participant-head" data-entity-uid="part2" data-qualified-name="RUN" data-source-line="6" id="part2-head"><rect fill="#FFFFFF" height="43.0447" rx="4" ry="4" style="stroke:#0E1014;stroke-width:0.5;" width="124.7756" x="225.1746" y="57.4652"/><text fill="#0E1014" font-family="'Inter, Helvetica, sans-serif'" font-size="12" lengthAdjust="spacing" textLength="110.7756" x="232.1746" y="76.0899">characterizeRunner</text><text fill="#0E1014" font-family="'Inter, Helvetica, sans-serif'" font-size="12" lengthAdjust="spacing" textLength="76.3617" x="249.3816" y="90.6123">(builds seam)</text></g><g class="participant participant-tail" data-entity-uid="part2" data-qualified-name="RUN" data-source-line="6" id="part2-tail"><rect fill="#FFFFFF" height="43.0447" rx="4" ry="4" style="stroke:#0E1014;stroke-width:0.5;" width="124.7756" x="225.1746" y="1678.3291"/><text fill="#0E1014" font-family="'Inter, Helvetica, sans-serif'" font-size="12" lengthAdjust="spacing" textLength="110.7756" x="232.1746" y="1696.9538">characterizeRunner</text><text fill="#0E1014" font-family="'Inter, Helvetica, sans-serif'" font-size="12" lengthAdjust="spacing" textLength="76.3617" x="249.3816" y="1711.4761">(builds seam)</text></g><g class="participant participant-head" data-entity-uid="part3" data-qualified-name="DISP" data-source-line="7" id="part3-head"><rect fill="#FFFFFF" height="28.5224" rx="4" ry="4" style="stroke:#0E1014;stroke-width:0.5;" width="145.5364" x="378.2395" y="71.9876"/><text fill="#0E1014" font-family="'Inter, Helvetica, sans-serif'" font-size="12" lengthAdjust="spacing" textLength="131.5364" x="385.2395" y="90.6123">getSandbox({enabled})</text></g><g class="participant participant-tail" data-entity-uid="part3" data-qualified-name="DISP" data-source-line="7" id="part3-tail"><rect fill="#FFFFFF" height="28.5224" rx="4" ry="4" style="stroke:#0E1014;stroke-width:0.5;" width="145.5364" x="378.2395" y="1678.3291"/><text fill="#0E1014" font-family="'Inter, Helvetica, sans-serif'" font-size="12" lengthAdjust="spacing" textLength="131.5364" x="385.2395" y="1696.9538">getSandbox({enabled})</text></g><g class="participant participant-head" data-entity-uid="part4" data-qualified-name="PROV" data-source-line="8" id="part4-head"><rect fill="#FFFFFF" height="57.5671" rx="4" ry="4" style="stroke:#0E1014;stroke-width:0.5;" width="123.5143" x="533.7759" y="42.9429"/><text fill="#0E1014" font-family="'Inter, Helvetica, sans-serif'" font-size="12" lengthAdjust="spacing" textLength="80.3502" x="555.3579" y="61.5676">PosixSandbox</text><text fill="#0E1014" font-family="'Inter, Helvetica, sans-serif'" font-size="12" lengthAdjust="spacing" textLength="109.5143" x="540.7759" y="76.0899">/ WindowsSandbox</text><text fill="#0E1014" font-family="'Inter, Helvetica, sans-serif'" font-size="12" lengthAdjust="spacing" textLength="97.9066" x="546.5798" y="90.6123">/ UnsafeSandbox</text></g><g class="participant participant-tail" data-entity-uid="part4" data-qualified-name="PROV" data-source-line="8" id="part4-tail"><rect fill="#FFFFFF" height="57.5671" rx="4" ry="4" style="stroke:#0E1014;stroke-width:0.5;" width="123.5143" x="533.7759" y="1678.3291"/><text fill="#0E1014" font-family="'Inter, Helvetica, sans-serif'" font-size="12" lengthAdjust="spacing" textLength="80.3502" x="555.3579" y="1696.9538">PosixSandbox</text><text fill="#0E1014" font-family="'Inter, Helvetica, sans-serif'" font-size="12" lengthAdjust="spacing" textLength="109.5143" x="540.7759" y="1711.4761">/ WindowsSandbox</text><text fill="#0E1014" font-family="'Inter, Helvetica, sans-serif'" font-size="12" lengthAdjust="spacing" textLength="97.9066" x="546.5798" y="1725.9985">/ UnsafeSandbox</text></g><g class="participant participant-head" data-entity-uid="part5" data-qualified-name="SPAWN" data-source-line="9" id="part5-head"><rect fill="#FFFFFF" height="28.5224" rx="4" ry="4" style="stroke:#0E1014;stroke-width:0.5;" width="140.7127" x="731.7118" y="71.9876"/><text fill="#0E1014" font-family="'Inter, Helvetica, sans-serif'" font-size="12" lengthAdjust="spacing" textLength="126.7127" x="738.7118" y="90.6123">spawn (child_process)</text></g><g class="participant participant-tail" data-entity-uid="part5" data-qualified-name="SPAWN" data-source-line="9" id="part5-tail"><rect fill="#FFFFFF" height="28.5224" rx="4" ry="4" style="stroke:#0E1014;stroke-width:0.5;" width="140.7127" x="731.7118" y="1678.3291"/><text fill="#0E1014" font-family="'Inter, Helvetica, sans-serif'" font-size="12" lengthAdjust="spacing" textLength="126.7127" x="738.7118" y="1696.9538">spawn (child_process)</text></g><g class="participant participant-head" data-entity-uid="part6" data-qualified-name="KERNEL" data-source-line="10" id="part6-head"><rect fill="#FFFFFF" height="43.0447" rx="4" ry="4" style="stroke:#0E1014;stroke-width:0.5;" width="129.7697" x="917.9634" y="57.4652"/><text fill="#0E1014" font-family="'Inter, Helvetica, sans-serif'" font-size="12" lengthAdjust="spacing" textLength="34.84" x="965.4282" y="76.0899">kernel</text><text fill="#0E1014" font-family="'Inter, Helvetica, sans-serif'" font-size="12" lengthAdjust="spacing" textLength="115.7697" x="924.9634" y="90.6123">(rlimits / Job Object)</text></g><g class="participant participant-tail" data-entity-uid="part6" data-qualified-name="KERNEL" data-source-line="10" id="part6-tail"><rect fill="#FFFFFF" height="43.0447" rx="4" ry="4" style="stroke:#0E1014;stroke-width:0.5;" width="129.7697" x="917.9634" y="1678.3291"/><text fill="#0E1014" font-family="'Inter, Helvetica, sans-serif'" font-size="12" lengthAdjust="spacing" textLength="34.84" x="965.4282" y="1696.9538">kernel</text><text fill="#0E1014" font-family="'Inter, Helvetica, sans-serif'" font-size="12" lengthAdjust="spacing" textLength="115.7697" x="924.9634" y="1711.4761">(rlimits / Job Object)</text></g><g class="participant participant-head" data-entity-uid="part7" data-qualified-name="PY" data-source-line="11" id="part7-head"><rect fill="#FFFFFF" height="28.5224" rx="4" ry="4" style="stroke:#0E1014;stroke-width:0.5;" width="83.9357" x="1140.018" y="71.9876"/><text fill="#0E1014" font-family="'Inter, Helvetica, sans-serif'" font-size="12" lengthAdjust="spacing" textLength="69.9357" x="1147.018" y="90.6123">python child</text></g><g class="participant participant-tail" data-entity-uid="part7" data-qualified-name="PY" data-source-line="11" id="part7-tail"><rect fill="#FFFFFF" height="28.5224" rx="4" ry="4" style="stroke:#0E1014;stroke-width:0.5;" width="83.9357" x="1140.018" y="1678.3291"/><text fill="#0E1014" font-family="'Inter, Helvetica, sans-serif'" font-size="12" lengthAdjust="spacing" textLength="69.9357" x="1147.018" y="1696.9538">python child</text></g><g class="message" data-entity-1="part1" data-entity-2="part2" data-source-line="13" id="msg1"><polygon fill="#1A1D24" points="275.5624,142.5547,285.5624,146.5547,275.5624,150.5547,279.5624,146.5547" style="stroke:#1A1D24;stroke-width:1;stroke-linejoin:miter;stroke-miterlimit:10;"/><line style="stroke:#1A1D24;stroke-width:1;" x1="73.6639" x2="281.5624" y1="146.5547" y2="146.5547"/><text fill="#000000" font-family="'Inter, Helvetica, sans-serif'" font-size="12" lengthAdjust="spacing" textLength="137.9794" x="80.6639" y="127.1347">item is sandbox-request</text><text fill="#000000" font-family="'Inter, Helvetica, sans-serif'" font-size="12" lengthAdjust="spacing" textLength="149.0587" x="80.6639" y="141.657">(needs runSandbox seam)</text></g><g class="message" data-entity-1="part2" data-entity-2="part3" data-source-line="14" id="msg2"><polygon fill="#1A1D24" points="439.0077,171.077,449.0077,175.077,439.0077,179.077,443.0077,175.077" style="stroke:#1A1D24;stroke-width:1;stroke-linejoin:miter;stroke-miterlimit:10;"/><line style="stroke:#1A1D24;stroke-width:1;" x1="287.5624" x2="445.0077" y1="175.077" y2="175.077"/><text fill="#000000" font-family="'Inter, Helvetica, sans-serif'" font-size="12" lengthAdjust="spacing" textLength="139.4453" x="294.5624" y="170.1794">params.enableSandbox?</text></g><g class="message" data-entity-1="part3" data-entity-2="part2" data-source-line="15" id="msg3"><polygon fill="#1A1D24" points="298.5624,199.5994,288.5624,203.5994,298.5624,207.5994,294.5624,203.5994" style="stroke:#1A1D24;stroke-width:1;stroke-linejoin:miter;stroke-miterlimit:10;"/><line style="stroke:#1A1D24;stroke-width:1;stroke-dasharray:2,2;" x1="292.5624" x2="450.0077" y1="203.5994" y2="203.5994"/><text fill="#000000" font-family="'Inter, Helvetica, sans-serif'" font-size="12" lengthAdjust="spacing" textLength="98.7248" x="304.5624" y="198.7017">provider instance</text></g><path d="M14,218.5994 L70.1019,218.5994 L70.1019,225.1217 L60.1019,235.1217 L10,235.1217 L10,222.5994 A4,4 0 0 1 14,218.5994" fill="#EEEEEE" style="stroke:#C68A3A;stroke-width:1.5;"/><rect fill="none" height="1443.7297" rx="4" ry="4" style="stroke:#C68A3A;stroke-width:1.5;" width="1354.3569" x="10" y="218.5994"/><text fill="#000000" font-family="'Inter, Helvetica, sans-serif'" font-size="12" font-weight="700" lengthAdjust="spacing" textLength="15.1019" x="25" y="231.2241">alt</text><text fill="#C68A3A" font-family="'Inter, Helvetica, sans-serif'" font-size="12" font-weight="700" lengthAdjust="spacing" textLength="231.0285" x="85.1019" y="232.2241">[UnsafeSandbox (opt-in OFF, default)]</text><g class="message" data-entity-1="part2" data-entity-2="part4" data-source-line="18" id="msg4"><polygon fill="#1A1D24" points="583.5331,251.6441,593.5331,255.6441,583.5331,259.6441,587.5331,255.6441" style="stroke:#1A1D24;stroke-width:1;stroke-linejoin:miter;stroke-miterlimit:10;"/><line style="stroke:#1A1D24;stroke-width:1;" x1="287.5624" x2="589.5331" y1="255.6441" y2="255.6441"/><text fill="#000000" font-family="'Inter, Helvetica, sans-serif'" font-size="12" lengthAdjust="spacing" textLength="161.9789" x="294.5624" y="250.7465">runPythonTests(code, tests)</text></g><g class="message" data-entity-1="part4" data-entity-2="part2" data-source-line="19" id="msg5"><polygon fill="#1A1D24" points="298.5624,280.1665,288.5624,284.1665,298.5624,288.1665,294.5624,284.1665" style="stroke:#1A1D24;stroke-width:1;stroke-linejoin:miter;stroke-miterlimit:10;"/><line style="stroke:#1A1D24;stroke-width:1;stroke-dasharray:2,2;" x1="292.5624" x2="594.5331" y1="284.1665" y2="284.1665"/><text fill="#000000" font-family="'Inter, Helvetica, sans-serif'" font-size="12" lengthAdjust="spacing" textLength="152.0586" x="304.5624" y="279.2688">throw SandboxUnavailable</text></g><g class="message" data-entity-1="part2" data-entity-2="part1" data-source-line="20" id="msg6"><polygon fill="#1A1D24" points="84.6639,308.6888,74.6639,312.6888,84.6639,316.6888,80.6639,312.6888" style="stroke:#1A1D24;stroke-width:1;stroke-linejoin:miter;stroke-miterlimit:10;"/><line style="stroke:#1A1D24;stroke-width:1;stroke-dasharray:2,2;" x1="78.6639" x2="286.5624" y1="312.6888" y2="312.6888"/><text fill="#000000" font-family="'Inter, Helvetica, sans-serif'" font-size="12" lengthAdjust="spacing" textLength="189.8985" x="90.6639" y="307.7912">item &#8658; UNMEASURED (D12 prior)</text></g><line style="stroke:#C68A3A;stroke-width:1;stroke-dasharray:2,2;" x1="10" x2="1364.3569" y1="321.6888" y2="321.6888"/><text fill="#C68A3A" font-family="'Inter, Helvetica, sans-serif'" font-size="12" font-weight="700" lengthAdjust="spacing" textLength="246.2327" x="15" y="333.3135">[PosixSandbox (linux/darwin, opt-in ON)]</text><g class="message" data-entity-1="part2" data-entity-2="part4" data-source-line="22" id="msg7"><polygon fill="#1A1D24" points="583.5331,353.7335,593.5331,357.7335,583.5331,361.7335,587.5331,357.7335" style="stroke:#1A1D24;stroke-width:1;stroke-linejoin:miter;stroke-miterlimit:10;"/><line style="stroke:#1A1D24;stroke-width:1;" x1="287.5624" x2="589.5331" y1="357.7335" y2="357.7335"/><text fill="#000000" font-family="'Inter, Helvetica, sans-serif'" font-size="12" lengthAdjust="spacing" textLength="161.9789" x="294.5624" y="352.8359">runPythonTests(code, tests)</text></g><g class="message" data-entity-1="part4" data-entity-2="part4" data-source-line="23" id="msg8"><line style="stroke:#1A1D24;stroke-width:1;" x1="595.5331" x2="637.5331" y1="386.2559" y2="386.2559"/><line style="stroke:#1A1D24;stroke-width:1;" x1="637.5331" x2="637.5331" y1="386.2559" y2="399.2559"/><line style="stroke:#1A1D24;stroke-width:1;" x1="596.5331" x2="637.5331" y1="399.2559" y2="399.2559"/><polygon fill="#1A1D24" points="606.5331,395.2559,596.5331,399.2559,606.5331,403.2559,602.5331,399.2559" style="stroke:#1A1D24;stroke-width:1;stroke-linejoin:miter;stroke-miterlimit:10;"/><text fill="#000000" font-family="'Inter, Helvetica, sans-serif'" font-size="12" lengthAdjust="spacing" textLength="107.0257" x="602.5331" y="381.3582">findPython() probe</text></g><path d="M24,414.2559 L80.1019,414.2559 L80.1019,420.7783 L70.1019,430.7783 L20,430.7783 L20,418.2559 A4,4 0 0 1 24,414.2559" fill="#EEEEEE" style="stroke:#C68A3A;stroke-width:1.5;"/><rect fill="none" height="749.626" rx="4" ry="4" style="stroke:#C68A3A;stroke-width:1.5;" width="1334.3569" x="20" y="414.2559"/><text fill="#000000" font-family="'Inter, Helvetica, sans-serif'" font-size="12" font-weight="700" lengthAdjust="spacing" textLength="15.1019" x="35" y="426.8806">alt</text><text fill="#C68A3A" font-family="'Inter, Helvetica, sans-serif'" font-size="12" font-weight="700" lengthAdjust="spacing" textLength="73.0039" x="95.1019" y="427.8806">[probe fails]</text><g class="message" data-entity-1="part4" data-entity-2="part2" data-source-line="25" id="msg9"><polygon fill="#1A1D24" points="298.5624,447.3006,288.5624,451.3006,298.5624,455.3006,294.5624,451.3006" style="stroke:#1A1D24;stroke-width:1;stroke-linejoin:miter;stroke-miterlimit:10;"/><line style="stroke:#1A1D24;stroke-width:1;stroke-dasharray:2,2;" x1="292.5624" x2="594.5331" y1="451.3006" y2="451.3006"/><text fill="#000000" font-family="'Inter, Helvetica, sans-serif'" font-size="12" lengthAdjust="spacing" textLength="152.0586" x="304.5624" y="446.403">throw SandboxUnavailable</text></g><g class="message" data-entity-1="part2" data-entity-2="part1" data-source-line="26" id="msg10"><polygon fill="#1A1D24" points="84.6639,475.823,74.6639,479.823,84.6639,483.823,80.6639,479.823" style="stroke:#1A1D24;stroke-width:1;stroke-linejoin:miter;stroke-miterlimit:10;"/><line style="stroke:#1A1D24;stroke-width:1;stroke-dasharray:2,2;" x1="78.6639" x2="286.5624" y1="479.823" y2="479.823"/><text fill="#000000" font-family="'Inter, Helvetica, sans-serif'" font-size="12" lengthAdjust="spacing" textLength="83.9126" x="90.6639" y="474.9253">UNMEASURED</text></g><line style="stroke:#C68A3A;stroke-width:1;stroke-dasharray:2,2;" x1="20" x2="1354.3569" y1="488.823" y2="488.823"/><text fill="#C68A3A" font-family="'Inter, Helvetica, sans-serif'" font-size="12" font-weight="700" lengthAdjust="spacing" textLength="65.7768" x="25" y="500.4477">[probe OK]</text><g class="message" data-entity-1="part4" data-entity-2="part4" data-source-line="28" id="msg11"><line style="stroke:#1A1D24;stroke-width:1;" x1="595.5331" x2="637.5331" y1="539.39" y2="539.39"/><line style="stroke:#1A1D24;stroke-width:1;" x1="637.5331" x2="637.5331" y1="539.39" y2="552.39"/><line style="stroke:#1A1D24;stroke-width:1;" x1="596.5331" x2="637.5331" y1="552.39" y2="552.39"/><polygon fill="#1A1D24" points="606.5331,548.39,596.5331,552.39,606.5331,556.39,602.5331,552.39" style="stroke:#1A1D24;stroke-width:1;stroke-linejoin:miter;stroke-miterlimit:10;"/><text fill="#000000" font-family="'Inter, Helvetica, sans-serif'" font-size="12" lengthAdjust="spacing" textLength="131.9114" x="602.5331" y="519.97">mkdtemp + write script</text><text fill="#000000" font-family="'Inter, Helvetica, sans-serif'" font-size="12" lengthAdjust="spacing" textLength="147.8144" x="609.2829" y="534.4924">(preamble + code + tests)</text></g><g class="message" data-entity-1="part4" data-entity-2="part5" data-source-line="29" id="msg12"><polygon fill="#1A1D24" points="790.0682,605.9571,800.0682,609.9571,790.0682,613.9571,794.0682,609.9571" style="stroke:#1A1D24;stroke-width:1;stroke-linejoin:miter;stroke-miterlimit:10;"/><line style="stroke:#1A1D24;stroke-width:1;" x1="595.5331" x2="796.0682" y1="609.9571" y2="609.9571"/><text fill="#000000" font-family="'Inter, Helvetica, sans-serif'" font-size="12" lengthAdjust="spacing" textLength="137.5874" x="602.5331" y="576.0147">python -I -S -B script.py</text><text fill="#000000" font-family="'Inter, Helvetica, sans-serif'" font-size="12" lengthAdjust="spacing" textLength="145.6668" x="609.2829" y="590.5371">detached:true (own pgrp)</text><text fill="#000000" font-family="'Inter, Helvetica, sans-serif'" font-size="12" lengthAdjust="spacing" textLength="67.2596" x="609.2829" y="605.0595">env minimal</text></g><g class="message" data-entity-1="part5" data-entity-2="part7" data-source-line="30" id="msg13"><polygon fill="#1A1D24" points="1169.9858,634.4795,1179.9858,638.4795,1169.9858,642.4795,1173.9858,638.4795" style="stroke:#1A1D24;stroke-width:1;stroke-linejoin:miter;stroke-miterlimit:10;"/><line style="stroke:#1A1D24;stroke-width:1;" x1="802.0682" x2="1175.9858" y1="638.4795" y2="638.4795"/><text fill="#000000" font-family="'Inter, Helvetica, sans-serif'" font-size="12" lengthAdjust="spacing" textLength="27.1527" x="809.0682" y="633.5818">exec</text></g><g class="message" data-entity-1="part7" data-entity-2="part6" data-source-line="31" id="msg14"><polygon fill="#1A1D24" points="993.8483,677.5242,983.8483,681.5242,993.8483,685.5242,989.8483,681.5242" style="stroke:#1A1D24;stroke-width:1;stroke-linejoin:miter;stroke-miterlimit:10;"/><line style="stroke:#1A1D24;stroke-width:1;" x1="987.8483" x2="1180.9858" y1="681.5242" y2="681.5242"/><text fill="#000000" font-family="'Inter, Helvetica, sans-serif'" font-size="12" lengthAdjust="spacing" textLength="120.389" x="999.8483" y="662.1042">setrlimit NPROC=cur,</text><text fill="#000000" font-family="'Inter, Helvetica, sans-serif'" font-size="12" lengthAdjust="spacing" textLength="168.3878" x="1006.5981" y="676.6265">AS=512M, CPU=10s, FSIZE=0</text></g><g class="message" data-entity-1="part6" data-entity-2="part7" data-source-line="32" id="msg15"><polygon fill="#1A1D24" points="1169.9858,706.0466,1179.9858,710.0466,1169.9858,714.0466,1173.9858,710.0466" style="stroke:#1A1D24;stroke-width:1;stroke-linejoin:miter;stroke-miterlimit:10;"/><line style="stroke:#1A1D24;stroke-width:1;stroke-dasharray:2,2;" x1="982.8483" x2="1175.9858" y1="710.0466" y2="710.0466"/><text fill="#000000" font-family="'Inter, Helvetica, sans-serif'" font-size="12" lengthAdjust="spacing" textLength="54.6463" x="989.8483" y="705.1489">arm limits</text></g><g class="message" data-entity-1="part7" data-entity-2="part7" data-source-line="33" id="msg16"><line style="stroke:#1A1D24;stroke-width:1;" x1="1181.9858" x2="1223.9858" y1="738.5689" y2="738.5689"/><line style="stroke:#1A1D24;stroke-width:1;" x1="1223.9858" x2="1223.9858" y1="738.5689" y2="751.5689"/><line style="stroke:#1A1D24;stroke-width:1;" x1="1182.9858" x2="1223.9858" y1="751.5689" y2="751.5689"/><polygon fill="#1A1D24" points="1192.9858,747.5689,1182.9858,751.5689,1192.9858,755.5689,1188.9858,751.5689" style="stroke:#1A1D24;stroke-width:1;stroke-linejoin:miter;stroke-miterlimit:10;"/><text fill="#000000" font-family="'Inter, Helvetica, sans-serif'" font-size="12" lengthAdjust="spacing" textLength="153.3711" x="1188.9858" y="733.6713">run model's code + asserts</text></g><path d="M219.1746,766.5689 L275.2765,766.5689 L275.2765,773.0913 L265.2765,783.0913 L215.1746,783.0913 L215.1746,770.5689 A4,4 0 0 1 219.1746,766.5689" fill="#EEEEEE" style="stroke:#C68A3A;stroke-width:1.5;"/><rect fill="none" height="348.7907" rx="4" ry="4" style="stroke:#C68A3A;stroke-width:1.5;" width="1018.7791" x="215.1746" y="766.5689"/><text fill="#000000" font-family="'Inter, Helvetica, sans-serif'" font-size="12" font-weight="700" lengthAdjust="spacing" textLength="15.1019" x="230.1746" y="779.1936">alt</text><text fill="#C68A3A" font-family="'Inter, Helvetica, sans-serif'" font-size="12" font-weight="700" lengthAdjust="spacing" textLength="125.5027" x="290.2765" y="780.1936">[asserts pass, exit 0]</text><g class="message" data-entity-1="part7" data-entity-2="part5" data-source-line="35" id="msg17"><polygon fill="#1A1D24" points="813.0682,799.6136,803.0682,803.6136,813.0682,807.6136,809.0682,803.6136" style="stroke:#1A1D24;stroke-width:1;stroke-linejoin:miter;stroke-miterlimit:10;"/><line style="stroke:#1A1D24;stroke-width:1;stroke-dasharray:2,2;" x1="807.0682" x2="1180.9858" y1="803.6136" y2="803.6136"/><text fill="#000000" font-family="'Inter, Helvetica, sans-serif'" font-size="12" lengthAdjust="spacing" textLength="31.5503" x="819.0682" y="798.716">exit 0</text></g><g class="message" data-entity-1="part5" data-entity-2="part4" data-source-line="36" id="msg18"><polygon fill="#1A1D24" points="606.5331,828.136,596.5331,832.136,606.5331,836.136,602.5331,832.136" style="stroke:#1A1D24;stroke-width:1;stroke-linejoin:miter;stroke-miterlimit:10;"/><line style="stroke:#1A1D24;stroke-width:1;stroke-dasharray:2,2;" x1="600.5331" x2="801.0682" y1="832.136" y2="832.136"/><text fill="#000000" font-family="'Inter, Helvetica, sans-serif'" font-size="12" lengthAdjust="spacing" textLength="46.1579" x="612.5331" y="827.2383">close(0)</text></g><g class="message" data-entity-1="part4" data-entity-2="part2" data-source-line="37" id="msg19"><polygon fill="#1A1D24" points="298.5624,856.6583,288.5624,860.6583,298.5624,864.6583,294.5624,860.6583" style="stroke:#1A1D24;stroke-width:1;stroke-linejoin:miter;stroke-miterlimit:10;"/><line style="stroke:#1A1D24;stroke-width:1;stroke-dasharray:2,2;" x1="292.5624" x2="594.5331" y1="860.6583" y2="860.6583"/><text fill="#000000" font-family="'Inter, Helvetica, sans-serif'" font-size="12" lengthAdjust="spacing" textLength="64.7881" x="304.5624" y="855.7607">{pass: true}</text></g><line style="stroke:#C68A3A;stroke-width:1;stroke-dasharray:2,2;" x1="215.1746" x2="1233.9537" y1="869.6583" y2="869.6583"/><text fill="#C68A3A" font-family="'Inter, Helvetica, sans-serif'" font-size="12" font-weight="700" lengthAdjust="spacing" textLength="145.7692" x="220.1746" y="881.283">[assert fails / exception]</text><g class="message" data-entity-1="part7" data-entity-2="part5" data-source-line="39" id="msg20"><polygon fill="#1A1D24" points="813.0682,901.7031,803.0682,905.7031,813.0682,909.7031,809.0682,905.7031" style="stroke:#1A1D24;stroke-width:1;stroke-linejoin:miter;stroke-miterlimit:10;"/><line style="stroke:#1A1D24;stroke-width:1;stroke-dasharray:2,2;" x1="807.0682" x2="1180.9858" y1="905.7031" y2="905.7031"/><text fill="#000000" font-family="'Inter, Helvetica, sans-serif'" font-size="12" lengthAdjust="spacing" textLength="29.6242" x="819.0682" y="900.8054">exit 1</text></g><g class="message" data-entity-1="part4" data-entity-2="part2" data-source-line="40" id="msg21"><polygon fill="#1A1D24" points="298.5624,930.2254,288.5624,934.2254,298.5624,938.2254,294.5624,934.2254" style="stroke:#1A1D24;stroke-width:1;stroke-linejoin:miter;stroke-miterlimit:10;"/><line style="stroke:#1A1D24;stroke-width:1;stroke-dasharray:2,2;" x1="292.5624" x2="594.5331" y1="934.2254" y2="934.2254"/><text fill="#000000" font-family="'Inter, Helvetica, sans-serif'" font-size="12" lengthAdjust="spacing" textLength="193.8019" x="304.5624" y="929.3278">{pass: false, reason: exit-nonzero}</text></g><line style="stroke:#C68A3A;stroke-width:1;stroke-dasharray:2,2;" x1="215.1746" x2="1233.9537" y1="943.2254" y2="943.2254"/><text fill="#C68A3A" font-family="'Inter, Helvetica, sans-serif'" font-size="12" font-weight="700" lengthAdjust="spacing" textLength="163.479" x="220.1746" y="954.8501">[timeout (parent enforces)]</text><g class="message" data-entity-1="part4" data-entity-2="part4" data-source-line="42" id="msg22"><line style="stroke:#1A1D24;stroke-width:1;" x1="595.5331" x2="637.5331" y1="979.2701" y2="979.2701"/><line style="stroke:#1A1D24;stroke-width:1;" x1="637.5331" x2="637.5331" y1="979.2701" y2="992.2701"/><line style="stroke:#1A1D24;stroke-width:1;" x1="596.5331" x2="637.5331" y1="992.2701" y2="992.2701"/><polygon fill="#1A1D24" points="606.5331,988.2701,596.5331,992.2701,606.5331,996.2701,602.5331,992.2701" style="stroke:#1A1D24;stroke-width:1;stroke-linejoin:miter;stroke-miterlimit:10;"/><text fill="#000000" font-family="'Inter, Helvetica, sans-serif'" font-size="12" lengthAdjust="spacing" textLength="96.4919" x="602.5331" y="974.3725">kill -pgid SIGKILL</text></g><g class="message" data-entity-1="part4" data-entity-2="part2" data-source-line="43" id="msg23"><polygon fill="#1A1D24" points="298.5624,1016.7925,288.5624,1020.7925,298.5624,1024.7925,294.5624,1020.7925" style="stroke:#1A1D24;stroke-width:1;stroke-linejoin:miter;stroke-miterlimit:10;"/><line style="stroke:#1A1D24;stroke-width:1;stroke-dasharray:2,2;" x1="292.5624" x2="594.5331" y1="1020.7925" y2="1020.7925"/><text fill="#000000" font-family="'Inter, Helvetica, sans-serif'" font-size="12" lengthAdjust="spacing" textLength="164.4163" x="304.5624" y="1015.8948">{pass: false, reason: timeout}</text></g><line style="stroke:#C68A3A;stroke-width:1;stroke-dasharray:2,2;" x1="215.1746" x2="1233.9537" y1="1029.7925" y2="1029.7925"/><text fill="#C68A3A" font-family="'Inter, Helvetica, sans-serif'" font-size="12" font-weight="700" lengthAdjust="spacing" textLength="104.5884" x="220.1746" y="1041.4172">[output overflow]</text><g class="message" data-entity-1="part4" data-entity-2="part4" data-source-line="45" id="msg24"><line style="stroke:#1A1D24;stroke-width:1;" x1="595.5331" x2="637.5331" y1="1065.8372" y2="1065.8372"/><line style="stroke:#1A1D24;stroke-width:1;" x1="637.5331" x2="637.5331" y1="1065.8372" y2="1078.8372"/><line style="stroke:#1A1D24;stroke-width:1;" x1="596.5331" x2="637.5331" y1="1078.8372" y2="1078.8372"/><polygon fill="#1A1D24" points="606.5331,1074.8372,596.5331,1078.8372,606.5331,1082.8372,602.5331,1078.8372" style="stroke:#1A1D24;stroke-width:1;stroke-linejoin:miter;stroke-miterlimit:10;"/><text fill="#000000" font-family="'Inter, Helvetica, sans-serif'" font-size="12" lengthAdjust="spacing" textLength="96.4919" x="602.5331" y="1060.9396">kill -pgid SIGKILL</text></g><g class="message" data-entity-1="part4" data-entity-2="part2" data-source-line="46" id="msg25"><polygon fill="#1A1D24" points="298.5624,1103.3596,288.5624,1107.3596,298.5624,1111.3596,294.5624,1107.3596" style="stroke:#1A1D24;stroke-width:1;stroke-linejoin:miter;stroke-miterlimit:10;"/><line style="stroke:#1A1D24;stroke-width:1;stroke-dasharray:2,2;" x1="292.5624" x2="594.5331" y1="1107.3596" y2="1107.3596"/><text fill="#000000" font-family="'Inter, Helvetica, sans-serif'" font-size="12" lengthAdjust="spacing" textLength="213.3355" x="304.5624" y="1102.4619">{pass: false, reason: output-overflow}</text></g><g class="message" data-entity-1="part4" data-entity-2="part4" data-source-line="48" id="msg26"><line style="stroke:#1A1D24;stroke-width:1;" x1="595.5331" x2="637.5331" y1="1142.8819" y2="1142.8819"/><line style="stroke:#1A1D24;stroke-width:1;" x1="637.5331" x2="637.5331" y1="1142.8819" y2="1155.8819"/><line style="stroke:#1A1D24;stroke-width:1;" x1="596.5331" x2="637.5331" y1="1155.8819" y2="1155.8819"/><polygon fill="#1A1D24" points="606.5331,1151.8819,596.5331,1155.8819,606.5331,1159.8819,602.5331,1155.8819" style="stroke:#1A1D24;stroke-width:1;stroke-linejoin:miter;stroke-miterlimit:10;"/><text fill="#000000" font-family="'Inter, Helvetica, sans-serif'" font-size="12" lengthAdjust="spacing" textLength="129.1501" x="602.5331" y="1137.9843">rmtree workdir (finally)</text></g><line style="stroke:#C68A3A;stroke-width:1;stroke-dasharray:2,2;" x1="10" x2="1364.3569" y1="1171.8819" y2="1171.8819"/><text fill="#C68A3A" font-family="'Inter, Helvetica, sans-serif'" font-size="12" font-weight="700" lengthAdjust="spacing" textLength="231.6421" x="15" y="1183.5066">[WindowsSandbox (win32, opt-in ON)]</text><g class="message" data-entity-1="part2" data-entity-2="part4" data-source-line="51" id="msg27"><polygon fill="#1A1D24" points="583.5331,1203.9266,593.5331,1207.9266,583.5331,1211.9266,587.5331,1207.9266" style="stroke:#1A1D24;stroke-width:1;stroke-linejoin:miter;stroke-miterlimit:10;"/><line style="stroke:#1A1D24;stroke-width:1;" x1="287.5624" x2="589.5331" y1="1207.9266" y2="1207.9266"/><text fill="#000000" font-family="'Inter, Helvetica, sans-serif'" font-size="12" lengthAdjust="spacing" textLength="161.9789" x="294.5624" y="1203.029">runPythonTests(code, tests)</text></g><g class="message" data-entity-1="part4" data-entity-2="part5" data-source-line="52" id="msg28"><polygon fill="#1A1D24" points="790.0682,1232.449,800.0682,1236.449,790.0682,1240.449,794.0682,1236.449" style="stroke:#1A1D24;stroke-width:1;stroke-linejoin:miter;stroke-miterlimit:10;"/><line style="stroke:#1A1D24;stroke-width:1;" x1="595.5331" x2="796.0682" y1="1236.449" y2="1236.449"/><text fill="#000000" font-family="'Inter, Helvetica, sans-serif'" font-size="12" lengthAdjust="spacing" textLength="182.5351" x="602.5331" y="1231.5513">powershell.exe -File win-job.ps1</text></g><g class="message" data-entity-1="part5" data-entity-2="part6" data-source-line="53" id="msg29"><polygon fill="#1A1D24" points="970.8483,1319.0608,980.8483,1323.0608,970.8483,1327.0608,974.8483,1323.0608" style="stroke:#1A1D24;stroke-width:1;stroke-linejoin:miter;stroke-miterlimit:10;"/><line style="stroke:#1A1D24;stroke-width:1;" x1="802.0682" x2="976.8483" y1="1323.0608" y2="1323.0608"/><text fill="#000000" font-family="'Inter, Helvetica, sans-serif'" font-size="12" lengthAdjust="spacing" textLength="108.1848" x="809.0682" y="1260.0737">CreateJobObject +</text><text fill="#000000" font-family="'Inter, Helvetica, sans-serif'" font-size="12" lengthAdjust="spacing" textLength="142.343" x="815.818" y="1274.5961">SetInformationJobObject</text><text fill="#000000" font-family="'Inter, Helvetica, sans-serif'" font-size="12" lengthAdjust="spacing" textLength="102.3554" x="815.818" y="1289.1184">(ActiveProcess=1,</text><text fill="#000000" font-family="'Inter, Helvetica, sans-serif'" font-size="12" lengthAdjust="spacing" textLength="126.3547" x="819.1929" y="1303.6408">MemoryLimit=512MiB,</text><text fill="#000000" font-family="'Inter, Helvetica, sans-serif'" font-size="12" lengthAdjust="spacing" textLength="126.1673" x="819.1929" y="1318.1631">KILL_ON_JOB_CLOSE)</text></g><g class="message" data-entity-1="part6" data-entity-2="part5" data-source-line="54" id="msg30"><polygon fill="#1A1D24" points="813.0682,1347.5831,803.0682,1351.5831,813.0682,1355.5831,809.0682,1351.5831" style="stroke:#1A1D24;stroke-width:1;stroke-linejoin:miter;stroke-miterlimit:10;"/><line style="stroke:#1A1D24;stroke-width:1;stroke-dasharray:2,2;" x1="807.0682" x2="981.8483" y1="1351.5831" y2="1351.5831"/><text fill="#000000" font-family="'Inter, Helvetica, sans-serif'" font-size="12" lengthAdjust="spacing" textLength="58.9928" x="819.0682" y="1346.6855">job handle</text></g><g class="message" data-entity-1="part5" data-entity-2="part7" data-source-line="55" id="msg31"><polygon fill="#1A1D24" points="1169.9858,1376.1055,1179.9858,1380.1055,1169.9858,1384.1055,1173.9858,1380.1055" style="stroke:#1A1D24;stroke-width:1;stroke-linejoin:miter;stroke-miterlimit:10;"/><line style="stroke:#1A1D24;stroke-width:1;" x1="802.0682" x2="1175.9858" y1="1380.1055" y2="1380.1055"/><text fill="#000000" font-family="'Inter, Helvetica, sans-serif'" font-size="12" lengthAdjust="spacing" textLength="148.4792" x="809.0682" y="1375.2078">Process.Start(python.exe)</text></g><g class="message" data-entity-1="part5" data-entity-2="part6" data-source-line="56" id="msg32"><polygon fill="#1A1D24" points="970.8483,1404.6279,980.8483,1408.6279,970.8483,1412.6279,974.8483,1408.6279" style="stroke:#1A1D24;stroke-width:1;stroke-linejoin:miter;stroke-miterlimit:10;"/><line style="stroke:#1A1D24;stroke-width:1;" x1="802.0682" x2="976.8483" y1="1408.6279" y2="1408.6279"/><text fill="#000000" font-family="'Inter, Helvetica, sans-serif'" font-size="12" lengthAdjust="spacing" textLength="156.7801" x="809.0682" y="1403.7302">AssignProcessToJobObject</text></g><g class="message" data-entity-1="part7" data-entity-2="part7" data-source-line="57" id="msg33"><line style="stroke:#1A1D24;stroke-width:1;" x1="1181.9858" x2="1223.9858" y1="1437.1502" y2="1437.1502"/><line style="stroke:#1A1D24;stroke-width:1;" x1="1223.9858" x2="1223.9858" y1="1437.1502" y2="1450.1502"/><line style="stroke:#1A1D24;stroke-width:1;" x1="1182.9858" x2="1223.9858" y1="1450.1502" y2="1450.1502"/><polygon fill="#1A1D24" points="1192.9858,1446.1502,1182.9858,1450.1502,1192.9858,1454.1502,1188.9858,1450.1502" style="stroke:#1A1D24;stroke-width:1;stroke-linejoin:miter;stroke-miterlimit:10;"/><text fill="#000000" font-family="'Inter, Helvetica, sans-serif'" font-size="12" lengthAdjust="spacing" textLength="53.7941" x="1188.9858" y="1432.2526">run script</text></g><path d="M527.7759,1465.1502 L583.8778,1465.1502 L583.8778,1471.6726 L573.8778,1481.6726 L523.7759,1481.6726 L523.7759,1469.1502 A4,4 0 0 1 527.7759,1465.1502" fill="#EEEEEE" style="stroke:#C68A3A;stroke-width:1.5;"/><rect fill="none" height="161.6565" rx="4" ry="4" style="stroke:#C68A3A;stroke-width:1.5;" width="710.1778" x="523.7759" y="1465.1502"/><text fill="#000000" font-family="'Inter, Helvetica, sans-serif'" font-size="12" font-weight="700" lengthAdjust="spacing" textLength="15.1019" x="538.7759" y="1477.7749">alt</text><text fill="#C68A3A" font-family="'Inter, Helvetica, sans-serif'" font-size="12" font-weight="700" lengthAdjust="spacing" textLength="168.5073" x="598.8778" y="1478.7749">[WaitForExit returns in time]</text><g class="message" data-entity-1="part7" data-entity-2="part5" data-source-line="59" id="msg34"><polygon fill="#1A1D24" points="813.0682,1498.1949,803.0682,1502.1949,813.0682,1506.1949,809.0682,1502.1949" style="stroke:#1A1D24;stroke-width:1;stroke-linejoin:miter;stroke-miterlimit:10;"/><line style="stroke:#1A1D24;stroke-width:1;stroke-dasharray:2,2;" x1="807.0682" x2="1180.9858" y1="1502.1949" y2="1502.1949"/><text fill="#000000" font-family="'Inter, Helvetica, sans-serif'" font-size="12" lengthAdjust="spacing" textLength="52.3453" x="819.0682" y="1497.2973">exit code</text></g><g class="message" data-entity-1="part5" data-entity-2="part4" data-source-line="60" id="msg35"><polygon fill="#1A1D24" points="606.5331,1541.2396,596.5331,1545.2396,606.5331,1549.2396,602.5331,1545.2396" style="stroke:#1A1D24;stroke-width:1;stroke-linejoin:miter;stroke-miterlimit:10;"/><line style="stroke:#1A1D24;stroke-width:1;stroke-dasharray:2,2;" x1="600.5331" x2="801.0682" y1="1545.2396" y2="1545.2396"/><text fill="#000000" font-family="'Inter, Helvetica, sans-serif'" font-size="12" lengthAdjust="spacing" textLength="131.8773" x="612.5331" y="1525.8196">exit code + marker-line</text><text fill="#000000" font-family="'Inter, Helvetica, sans-serif'" font-size="12" lengthAdjust="spacing" textLength="74.8617" x="619.2829" y="1540.342">stdout/stderr</text></g><line style="stroke:#C68A3A;stroke-width:1;stroke-dasharray:2,2;" x1="523.7759" x2="1233.9537" y1="1554.2396" y2="1554.2396"/><text fill="#C68A3A" font-family="'Inter, Helvetica, sans-serif'" font-size="12" font-weight="700" lengthAdjust="spacing" textLength="55.1919" x="528.7759" y="1565.8644">[timeout]</text><g class="message" data-entity-1="part5" data-entity-2="part6" data-source-line="62" id="msg36"><polygon fill="#1A1D24" points="970.8483,1586.2844,980.8483,1590.2844,970.8483,1594.2844,974.8483,1590.2844" style="stroke:#1A1D24;stroke-width:1;stroke-linejoin:miter;stroke-miterlimit:10;"/><line style="stroke:#1A1D24;stroke-width:1;" x1="802.0682" x2="976.8483" y1="1590.2844" y2="1590.2844"/><text fill="#000000" font-family="'Inter, Helvetica, sans-serif'" font-size="12" lengthAdjust="spacing" textLength="133.8204" x="809.0682" y="1585.3867">TerminateJobObject (1)</text></g><g class="message" data-entity-1="part5" data-entity-2="part4" data-source-line="63" id="msg37"><polygon fill="#1A1D24" points="606.5331,1614.8067,596.5331,1618.8067,606.5331,1622.8067,602.5331,1618.8067" style="stroke:#1A1D24;stroke-width:1;stroke-linejoin:miter;stroke-miterlimit:10;"/><line style="stroke:#1A1D24;stroke-width:1;stroke-dasharray:2,2;" x1="600.5331" x2="801.0682" y1="1618.8067" y2="1618.8067"/><text fill="#000000" font-family="'Inter, Helvetica, sans-serif'" font-size="12" lengthAdjust="spacing" textLength="44.5898" x="612.5331" y="1613.9091">exit 124</text></g><g class="message" data-entity-1="part4" data-entity-2="part2" data-source-line="65" id="msg38"><polygon fill="#1A1D24" points="298.5624,1650.3291,288.5624,1654.3291,298.5624,1658.3291,294.5624,1654.3291" style="stroke:#1A1D24;stroke-width:1;stroke-linejoin:miter;stroke-miterlimit:10;"/><line style="stroke:#1A1D24;stroke-width:1;stroke-dasharray:2,2;" x1="292.5624" x2="594.5331" y1="1654.3291" y2="1654.3291"/><text fill="#000000" font-family="'Inter, Helvetica, sans-serif'" font-size="12" lengthAdjust="spacing" textLength="80.7252" x="304.5624" y="1649.4314">{pass, reason}</text></g><?plantuml-src jLLTR-8u57tFh_3E4sY1jgFTbvLOAO2PyJHV6uUXh2f58PZMKsD7jYdjZlhVrqu2GvZ0QaRQfqJskVVSSx_y2-Kvswu860okqlfVNIdzoiY0RZVCSJJLZ02Sn2aUtS4xE4uJb7ZGSOfCQfhJ8kCQl5CwepBF51dSS_ASiMsc2T9aymvaoXYxA6xYZ_t5iw24cMyJz40qplXgALuwNmdFbeoithebT89mrCH6Gj6N6dtFhy2SyfNOgQEJ6LVPcjG7fPSe3Z-Vo2Yo7GUT_96oLLf8aHEbAaOSkVEJy9w8v8JTyuvaT4Er0bVWarY2SFc5vBgokeLn0BtpqgD55SZ2SSeaWVwVDWtWZqR2VVmXHGdqxO5ZhmtAPg051WDtvC59-fTJ0lfd_LdjAGeCQp0snSoORa1SBqbd0NQdq06WfhGcnfFSykXLFmgU4ALL9nShqWFQ_dSDjWHzezMFKkn0dVGPpvupocmXzruDi19-Hl4iyA6B7S9KimUXXs4QXHZT_LHy1_0fwHG54rCD0DeIOcn6C9swoCC6yIDQlrTR2Pl5S6AkpyWhwSBR8wwpSVkt4vEkg04jMxQjz8laOnYa28zAU0MphXS6J5v8NdbPsBEgWSsv8hfgSn0O_-DXlfMzUmw0YuU_txptUs0SpOOtrwe7fXZz3OVNfPFQlB_tVXgA6_kfXtoKu2FELgJ9NpeE9x34sU9aIX5fXgumFpqJjeciugpS7EbltDLglsKoPqAHpdLtRzkiwLVhtfHMRibRYMWlbOinZ9EoDIx4S7EHOvqPrpqWIQO4hopwNF1_Y1INg1Famt2MD5mVn3rHna2_UA0hWD67M-HvFnA2fXiYjleIU_WPnbCldFyVz8QwsEg-U2PopSIk3eElskP1RhGa1Eo4V5fH2JfhoZF6NcrLhKLxy7CK_EJss9Ur43iYrIDXR6061_IdrBoLEyhxNyHoK2XRyCDu7KPfR0HgOfwAwgK0lzevmaGZlXPoasag-E7INdNSNDDd4bNFqV2cd3lWausGhvuToN82wQWwjrbEpNX_2aVfs0inj74VpU6vhM3n7zrWua7dT2VKp0EipJlMAShqMBtTLdckKlI1rpQ9E4Xn_dE-yJX6KN9c-SvTb1oMuUAY57Xde8TbyTt4duMdlXiR6Vk5NBT_SqaUP2P4RaoJ7HUoSzDjPwoc__rlphv_s_f_t_XlZiNy2m00?></g></svg>