<svg xmlns="http://www.w3.org/2000/svg" xmlns:xlink="http://www.w3.org/1999/xlink" contentStyleType="text/css" data-diagram-type="DESCRIPTION" height="984px" preserveAspectRatio="none" style="width:1088px;height:984px;background:#F4EEE3;" version="1.1" viewBox="0 0 1088 984" width="1088px" zoomAndPan="magnify"><?plantuml 1.2026.4?><defs/><g><rect fill="#F4EEE3" height="984" style="stroke:none;stroke-width:1;" width="1088" x="0" y="0"/><g class="title" data-source-line="3"><text fill="#000000" font-family="'Inter, Helvetica, sans-serif'" font-size="14" font-weight="700" lengthAdjust="spacing" textLength="459.4471" x="311.2174" y="23.5623">Sandbox &#8212; slice 2d code-tests isolation (D&#945;&#945;, opt-in, fail-closed)</text></g><!--cluster src/main/modelhub/routing/sandbox/--><g class="cluster" data-qualified-name="src.main.modelhub.routing.sandbox." data-source-line="5" id="ent0001"><path d="M10,165.9429 L231.7674,165.9429 A6,6 0 0 1 235.7674,169.9429 L242.7674,186.4652 L601,186.4652 A4,4 0 0 1 605,190.4652 L605,801.9429 A4,4 0 0 1 601,805.9429 L10,805.9429 A4,4 0 0 1 6,801.9429 L6,169.9429 A4,4 0 0 1 10,165.9429" fill="#F4EEE3" style="stroke:#C68A3A;stroke-width:1.5;"/><line style="stroke:#C68A3A;stroke-width:1.5;" x1="6" x2="242.7674" y1="186.4652" y2="186.4652"/><text fill="#0E1014" font-family="'Inter, Helvetica, sans-serif'" font-size="12" font-weight="700" lengthAdjust="spacing" textLength="223.7674" x="10" y="179.5676">src/main/modelhub/routing/sandbox/</text></g><!--entity IDX--><g class="entity" data-qualified-name="src.main.modelhub.routing.sandbox..IDX" data-source-line="6" id="ent0002"><rect fill="#FFFFFF" height="88.0894" rx="4" ry="4" style="stroke:#0E1014;stroke-width:0.5;" width="181.6612" x="367" y="206.4429"/><rect fill="#FFFFFF" height="10" style="stroke:#0E1014;stroke-width:0.5;" width="15" x="528.6612" y="211.4429"/><rect fill="#FFFFFF" height="2" style="stroke:#0E1014;stroke-width:0.5;" width="4" x="526.6612" y="213.4429"/><rect fill="#FFFFFF" height="2" style="stroke:#0E1014;stroke-width:0.5;" width="4" x="526.6612" y="217.4429"/><text fill="#0E1014" font-family="'Inter, Helvetica, sans-serif'" font-size="12" lengthAdjust="spacing" textLength="44.7261" x="382" y="238.0676">index.ts</text><text fill="#0E1014" font-family="'Inter, Helvetica, sans-serif'" font-size="12" lengthAdjust="spacing" textLength="141.6612" x="382" y="252.5899">&#8226; getSandbox({enabled})</text><text fill="#0E1014" font-family="'Inter, Helvetica, sans-serif'" font-size="12" lengthAdjust="spacing" textLength="76.4299" x="382" y="267.1123">&#8226; dispatch by</text><text fill="#0E1014" font-family="'Inter, Helvetica, sans-serif'" font-size="12" lengthAdjust="spacing" textLength="96.151" x="388.7498" y="281.6347">process.platform</text></g><!--entity TYPES--><g class="entity" data-qualified-name="src.main.modelhub.routing.sandbox..TYPES" data-source-line="7" id="ent0003"><rect fill="#FFFFFF" height="102.6118" rx="4" ry="4" style="stroke:#0E1014;stroke-width:0.5;" width="184.4906" x="65" y="198.9429"/><rect fill="#FFFFFF" height="10" style="stroke:#0E1014;stroke-width:0.5;" width="15" x="229.4906" y="203.9429"/><rect fill="#FFFFFF" height="2" style="stroke:#0E1014;stroke-width:0.5;" width="4" x="227.4906" y="205.9429"/><rect fill="#FFFFFF" height="2" style="stroke:#0E1014;stroke-width:0.5;" width="4" x="227.4906" y="209.9429"/><text fill="#0E1014" font-family="'Inter, Helvetica, sans-serif'" font-size="12" lengthAdjust="spacing" textLength="45.5614" x="80" y="230.5676">types.ts</text><text fill="#0E1014" font-family="'Inter, Helvetica, sans-serif'" font-size="12" lengthAdjust="spacing" textLength="144.4906" x="80" y="245.0899">&#8226; SandboxProvider (ABC)</text><text fill="#0E1014" font-family="'Inter, Helvetica, sans-serif'" font-size="12" lengthAdjust="spacing" textLength="95.2135" x="80" y="259.6123">&#8226; SandboxResult</text><text fill="#0E1014" font-family="'Inter, Helvetica, sans-serif'" font-size="12" lengthAdjust="spacing" textLength="104.2133" x="80" y="274.1347">&#8226; SandboxOptions</text><text fill="#0E1014" font-family="'Inter, Helvetica, sans-serif'" font-size="12" lengthAdjust="spacing" textLength="125.9798" x="80" y="288.657">&#8226; SandboxUnavailable</text></g><!--entity UNSAFE--><g class="entity" data-qualified-name="src.main.modelhub.routing.sandbox..UNSAFE" data-source-line="9" id="ent0004"><rect fill="#FFFFFF" height="88.0894" rx="4" ry="4" style="stroke:#0E1014;stroke-width:0.5;" width="180.86" x="209.5" y="435.9429"/><rect fill="#FFFFFF" height="10" style="stroke:#0E1014;stroke-width:0.5;" width="15" x="370.36" y="440.9429"/><rect fill="#FFFFFF" height="2" style="stroke:#0E1014;stroke-width:0.5;" width="4" x="368.36" y="442.9429"/><rect fill="#FFFFFF" height="2" style="stroke:#0E1014;stroke-width:0.5;" width="4" x="368.36" y="446.9429"/><text fill="#0E1014" font-family="'Inter, Helvetica, sans-serif'" font-size="12" lengthAdjust="spacing" textLength="52.2941" x="224.5" y="467.5676">unsafe.ts</text><text fill="#0E1014" font-family="'Inter, Helvetica, sans-serif'" font-size="12" lengthAdjust="spacing" textLength="100.3781" x="224.5" y="482.0899">&#8226; UnsafeSandbox</text><text fill="#0E1014" font-family="'Inter, Helvetica, sans-serif'" font-size="12" lengthAdjust="spacing" textLength="112.4119" x="224.5" y="496.6123">&#8226; throws every time</text><text fill="#0E1014" font-family="'Inter, Helvetica, sans-serif'" font-size="12" lengthAdjust="spacing" textLength="140.86" x="224.5" y="511.1347">&#8226; default when opt-in off</text></g><!--entity POSIX--><g class="entity" data-qualified-name="src.main.modelhub.routing.sandbox..POSIX" data-source-line="10" id="ent0005"><rect fill="#FFFFFF" height="146.1789" rx="4" ry="4" style="stroke:#0E1014;stroke-width:0.5;" width="163.065" x="425.5" y="406.9429"/><rect fill="#FFFFFF" height="10" style="stroke:#0E1014;stroke-width:0.5;" width="15" x="568.565" y="411.9429"/><rect fill="#FFFFFF" height="2" style="stroke:#0E1014;stroke-width:0.5;" width="4" x="566.565" y="413.9429"/><rect fill="#FFFFFF" height="2" style="stroke:#0E1014;stroke-width:0.5;" width="4" x="566.565" y="417.9429"/><text fill="#0E1014" font-family="'Inter, Helvetica, sans-serif'" font-size="12" lengthAdjust="spacing" textLength="44.0102" x="440.5" y="438.5676">posix.ts</text><text fill="#0E1014" font-family="'Inter, Helvetica, sans-serif'" font-size="12" lengthAdjust="spacing" textLength="90.475" x="440.5" y="453.0899">&#8226; PosixSandbox</text><text fill="#0E1014" font-family="'Inter, Helvetica, sans-serif'" font-size="12" lengthAdjust="spacing" textLength="119.1617" x="440.5" y="467.6123">&#8226; rlimits NPROC=cur,</text><text fill="#0E1014" font-family="'Inter, Helvetica, sans-serif'" font-size="12" lengthAdjust="spacing" textLength="108.6961" x="447.2498" y="482.1347">AS/DATA=512 MiB,</text><text fill="#0E1014" font-family="'Inter, Helvetica, sans-serif'" font-size="12" lengthAdjust="spacing" textLength="107.1791" x="447.2498" y="496.657">CPU=10s, FSIZE=0</text><text fill="#0E1014" font-family="'Inter, Helvetica, sans-serif'" font-size="12" lengthAdjust="spacing" textLength="93.6965" x="440.5" y="511.1794">&#8226; detached pgrp</text><text fill="#0E1014" font-family="'Inter, Helvetica, sans-serif'" font-size="12" lengthAdjust="spacing" textLength="123.065" x="440.5" y="525.7017">&#8226; kill -pgid on timeout</text><text fill="#0E1014" font-family="'Inter, Helvetica, sans-serif'" font-size="12" lengthAdjust="spacing" textLength="107.0086" x="440.5" y="540.2241">&#8226; `python -I -S -B`</text></g><!--entity WIN--><g class="entity" data-qualified-name="src.main.modelhub.routing.sandbox..WIN" data-source-line="11" id="ent0006"><rect fill="#FFFFFF" height="73.5671" rx="4" ry="4" style="stroke:#0E1014;stroke-width:0.5;" width="151.9858" x="22" y="442.9429"/><rect fill="#FFFFFF" height="10" style="stroke:#0E1014;stroke-width:0.5;" width="15" x="153.9858" y="447.9429"/><rect fill="#FFFFFF" height="2" style="stroke:#0E1014;stroke-width:0.5;" width="4" x="151.9858" y="449.9429"/><rect fill="#FFFFFF" height="2" style="stroke:#0E1014;stroke-width:0.5;" width="4" x="151.9858" y="453.9429"/><text fill="#0E1014" font-family="'Inter, Helvetica, sans-serif'" font-size="12" lengthAdjust="spacing" textLength="64.1915" x="37" y="474.5676">windows.ts</text><text fill="#0E1014" font-family="'Inter, Helvetica, sans-serif'" font-size="12" lengthAdjust="spacing" textLength="111.9858" x="37" y="489.0899">&#8226; WindowsSandbox</text><text fill="#0E1014" font-family="'Inter, Helvetica, sans-serif'" font-size="12" lengthAdjust="spacing" textLength="111.304" x="37" y="503.6123">&#8226; dispatches to PS1</text></g><!--entity PS1--><g class="entity" data-qualified-name="src.main.modelhub.routing.sandbox..PS1" data-source-line="12" id="ent0007"><rect fill="#FFFFFF" height="146.1789" rx="4" ry="4" style="stroke:#0E1014;stroke-width:0.5;" width="172.0137" x="22" y="643.9429"/><rect fill="#FFFFFF" height="10" style="stroke:#0E1014;stroke-width:0.5;" width="15" x="174.0137" y="648.9429"/><rect fill="#FFFFFF" height="2" style="stroke:#0E1014;stroke-width:0.5;" width="4" x="172.0137" y="650.9429"/><rect fill="#FFFFFF" height="2" style="stroke:#0E1014;stroke-width:0.5;" width="4" x="172.0137" y="654.9429"/><text fill="#0E1014" font-family="'Inter, Helvetica, sans-serif'" font-size="12" lengthAdjust="spacing" textLength="65.0608" x="37" y="675.5676">win-job.ps1</text><text fill="#0E1014" font-family="'Inter, Helvetica, sans-serif'" font-size="12" lengthAdjust="spacing" textLength="120.1674" x="37" y="690.0899">&#8226; Add-Type P/Invoke</text><text fill="#0E1014" font-family="'Inter, Helvetica, sans-serif'" font-size="12" lengthAdjust="spacing" textLength="107.0257" x="37" y="704.6123">&#8226; CreateJobObject</text><text fill="#0E1014" font-family="'Inter, Helvetica, sans-serif'" font-size="12" lengthAdjust="spacing" textLength="132.0137" x="37" y="719.1347">&#8226; ActiveProcessLimit=1</text><text fill="#0E1014" font-family="'Inter, Helvetica, sans-serif'" font-size="12" lengthAdjust="spacing" textLength="129.2353" x="37" y="733.657">&#8226; ProcessMemoryLimit</text><text fill="#0E1014" font-family="'Inter, Helvetica, sans-serif'" font-size="12" lengthAdjust="spacing" textLength="52.7373" x="43.7498" y="748.1794">=512 MiB</text><text fill="#0E1014" font-family="'Inter, Helvetica, sans-serif'" font-size="12" lengthAdjust="spacing" textLength="131.9456" x="37" y="762.7017">&#8226; KILL_ON_JOB_CLOSE</text><text fill="#0E1014" font-family="'Inter, Helvetica, sans-serif'" font-size="12" lengthAdjust="spacing" textLength="123.9343" x="37" y="777.2241">&#8226; marker-line streams</text></g><!--entity RUNNER--><g class="entity" data-qualified-name="RUNNER" data-source-line="15" id="ent0008"><rect fill="#FFFFFF" height="59.0447" rx="4" ry="4" style="stroke:#0E1014;stroke-width:0.5;" width="188.1723" x="364" y="44.9429"/><rect fill="#FFFFFF" height="10" style="stroke:#0E1014;stroke-width:0.5;" width="15" x="532.1723" y="49.9429"/><rect fill="#FFFFFF" height="2" style="stroke:#0E1014;stroke-width:0.5;" width="4" x="530.1723" y="51.9429"/><rect fill="#FFFFFF" height="2" style="stroke:#0E1014;stroke-width:0.5;" width="4" x="530.1723" y="55.9429"/><text fill="#0E1014" font-family="'Inter, Helvetica, sans-serif'" font-size="12" lengthAdjust="spacing" textLength="124.7184" x="379" y="76.5676">characterizeRunner.ts</text><text fill="#0E1014" font-family="'Inter, Helvetica, sans-serif'" font-size="12" lengthAdjust="spacing" textLength="148.1723" x="379" y="91.0899">(builds runSandbox seam)</text></g><!--entity STAIR--><g class="entity" data-qualified-name="STAIR" data-source-line="16" id="ent0009"><rect fill="#FFFFFF" height="59.0447" rx="4" ry="4" style="stroke:#0E1014;stroke-width:0.5;" width="231.8929" x="316" y="895.4429"/><rect fill="#FFFFFF" height="10" style="stroke:#0E1014;stroke-width:0.5;" width="15" x="527.8929" y="900.4429"/><rect fill="#FFFFFF" height="2" style="stroke:#0E1014;stroke-width:0.5;" width="4" x="525.8929" y="902.4429"/><rect fill="#FFFFFF" height="2" style="stroke:#0E1014;stroke-width:0.5;" width="4" x="525.8929" y="906.4429"/><text fill="#0E1014" font-family="'Inter, Helvetica, sans-serif'" font-size="12" lengthAdjust="spacing" textLength="136.7693" x="331" y="927.0676">staircase.evaluateItem()</text><text fill="#0E1014" font-family="'Inter, Helvetica, sans-serif'" font-size="12" lengthAdjust="spacing" textLength="191.8929" x="331" y="941.5899">(catches throw &#8658; UNMEASURED)</text></g><!--entity python3\n(child)--><g class="entity" data-qualified-name="python3.n.child." data-source-line="24" id="ent0015"><ellipse cx="652" cy="716.9429" fill="#F1F1F1" rx="8" ry="8" style="stroke:#181818;stroke-width:0.5;"/><text fill="#000000" font-family="'Inter, Helvetica, sans-serif'" font-size="12" lengthAdjust="spacing" textLength="47.2659" x="628.3671" y="745.5676">python3</text><text fill="#000000" font-family="'Inter, Helvetica, sans-serif'" font-size="12" lengthAdjust="spacing" textLength="35.6241" x="628.3671" y="760.0899">(child)</text></g><!--entity python.exe\n(child)--><g class="entity" data-qualified-name="python.exe.n.child." data-source-line="25" id="ent0017"><ellipse cx="96" cy="924.9429" fill="#F1F1F1" rx="8" ry="8" style="stroke:#181818;stroke-width:0.5;"/><text fill="#000000" font-family="'Inter, Helvetica, sans-serif'" font-size="12" lengthAdjust="spacing" textLength="63.3905" x="64.3048" y="953.5676">python.exe</text><text fill="#000000" font-family="'Inter, Helvetica, sans-serif'" font-size="12" lengthAdjust="spacing" textLength="35.6241" x="64.3048" y="968.0899">(child)</text></g><g class="entity" data-qualified-name="GMN22" data-source-line="32" id="ent0023"><path d="M878,435.4429 L878,524.577 A4,4 0 0 0 882,528.577 L1069.8819,528.577 A4,4 0 0 0 1073.8819,524.577 L1073.8819,441.4429 L1063.8819,431.4429 L882,431.4429 A4,4 0 0 0 878,435.4429" fill="#FFFDF6" style="stroke:#C68A3A;stroke-width:0.5;"/><path d="M1063.8819,431.4429 L1063.8819,439.4429 A2,2 0 0 0 1065.8819,441.4429 L1073.8819,441.4429 L1063.8819,431.4429" fill="#FFFDF6" style="stroke:#C68A3A;stroke-width:1;"/><text fill="#0E1014" font-family="'Inter, Helvetica, sans-serif'" font-size="12" lengthAdjust="spacing" textLength="119.4344" x="884" y="448.0676">Fail-closed (D&#945;&#945; &#167;3):</text><text fill="#0E1014" font-family="'Inter, Helvetica, sans-serif'" font-size="12" lengthAdjust="spacing" textLength="156.388" x="884" y="462.5899">ANY impossibility to set the</text><text fill="#0E1014" font-family="'Inter, Helvetica, sans-serif'" font-size="12" lengthAdjust="spacing" textLength="143.2122" x="884" y="477.1123">kernel boundary &#8658; throw</text><text fill="#0E1014" font-family="'Inter, Helvetica, sans-serif'" font-size="12" lengthAdjust="spacing" textLength="164.6719" x="884" y="491.6347">SandboxUnavailable &#8658; caller</text><text fill="#0E1014" font-family="'Inter, Helvetica, sans-serif'" font-size="12" lengthAdjust="spacing" textLength="174.8819" x="884" y="506.157">marks the item UNMEASURED.</text><text fill="#0E1014" font-family="'Inter, Helvetica, sans-serif'" font-size="12" font-weight="700" lengthAdjust="spacing" textLength="36.0332" x="884" y="520.6794">Never</text><text fill="#0E1014" font-family="'Inter, Helvetica, sans-serif'" font-size="12" lengthAdjust="spacing" textLength="70.6516" x="923.4081" y="520.6794">a false pass.</text></g><g class="entity" data-qualified-name="GMN25" data-source-line="41" id="ent0026"><path d="M623.5,449.9429 L623.5,475.9429 L588.66,479.9429 L623.5,483.9429 L623.5,510.0323 A4,4 0 0 0 627.5,514.0323 L838.7847,514.0323 A4,4 0 0 0 842.7847,510.0323 L842.7847,455.9429 L832.7847,445.9429 L627.5,445.9429 A4,4 0 0 0 623.5,449.9429" fill="#FFFDF6" style="stroke:#C68A3A;stroke-width:0.5;"/><path d="M832.7847,445.9429 L832.7847,453.9429 A2,2 0 0 0 834.7847,455.9429 L842.7847,455.9429 L832.7847,445.9429" fill="#FFFDF6" style="stroke:#C68A3A;stroke-width:0.5;"/><text fill="#0E1014" font-family="'Inter, Helvetica, sans-serif'" font-size="12" lengthAdjust="spacing" textLength="198.2847" x="629.5" y="462.5676">Defense-in-depth preamble blocks</text><text fill="#0E1014" font-family="'Inter, Helvetica, sans-serif'" font-size="12" lengthAdjust="spacing" textLength="164.5356" x="629.5" y="477.0899">imports (socket, subprocess,</text><text fill="#0E1014" font-family="'Inter, Helvetica, sans-serif'" font-size="12" lengthAdjust="spacing" textLength="189.8815" x="629.5" y="491.6123">ctypes, &#8230;) &#8212; trivially bypassable,</text><text fill="#0E1014" font-family="'Inter, Helvetica, sans-serif'" font-size="12" lengthAdjust="spacing" textLength="164.6889" x="629.5" y="506.1347">the rlimits ARE the boundary.</text></g><!--link RUNNER to IDX--><g class="link" data-entity-1="ent0008" data-entity-2="ent0002" data-link-type="dependency" data-source-line="18" id="lnk10"><path d="M458,104.1729 C458,131.9729 458,169.4629 458,201.3229" fill="none" id="RUNNER-to-IDX" style="stroke:#1A1D24;stroke-width:1;"/><polygon fill="#1A1D24" points="458,206.3229,462,197.3229,458,201.3229,454,197.3229,458,206.3229" style="stroke:#1A1D24;stroke-width:1;stroke-linejoin:miter;stroke-miterlimit:10;"/><text fill="#000000" font-family="'Inter, Helvetica, sans-serif'" font-size="12" lengthAdjust="spacing" textLength="131.5364" x="459" y="146.5676">getSandbox({enabled})</text></g><!--link IDX to UNSAFE--><g class="link" data-entity-1="ent0002" data-entity-2="ent0004" data-link-type="dependency" data-source-line="19" id="lnk11"><path d="M419.34,294.7529 C409.41,306.5329 399,319.4829 390,331.9429 C365.74,365.5429 343.8782,401.4817 326.6382,431.3717" fill="none" id="IDX-to-UNSAFE" style="stroke:#1A1D24;stroke-width:1;"/><polygon fill="#1A1D24" points="324.14,435.7029,332.1016,429.9053,326.6382,431.3717,325.1717,425.9082,324.14,435.7029" style="stroke:#1A1D24;stroke-width:1;stroke-linejoin:miter;stroke-miterlimit:10;"/><text fill="#000000" font-family="'Inter, Helvetica, sans-serif'" font-size="12" lengthAdjust="spacing" textLength="76.0208" x="391" y="344.5676">enabled:false</text><text fill="#000000" font-family="'Inter, Helvetica, sans-serif'" font-size="12" lengthAdjust="spacing" textLength="68.5892" x="394.7158" y="359.0899">(default) OR</text><text fill="#000000" font-family="'Inter, Helvetica, sans-serif'" font-size="12" lengthAdjust="spacing" textLength="71.6402" x="393.1903" y="373.6123">unknown OS</text></g><!--link IDX to POSIX--><g class="link" data-entity-1="ent0002" data-entity-2="ent0005" data-link-type="dependency" data-source-line="20" id="lnk12"><path d="M467.27,294.5029 C474.07,326.0629 482.4076,364.7649 490.3476,401.6449" fill="none" id="IDX-to-POSIX" style="stroke:#1A1D24;stroke-width:1;"/><polygon fill="#1A1D24" points="491.4,406.5329,493.4162,396.8926,490.3476,401.6449,485.5954,398.5764,491.4,406.5329" style="stroke:#1A1D24;stroke-width:1;stroke-linejoin:miter;stroke-miterlimit:10;"/><text fill="#000000" font-family="'Inter, Helvetica, sans-serif'" font-size="12" lengthAdjust="spacing" textLength="71.6061" x="488.2101" y="351.5676">enabled:true</text><text fill="#000000" font-family="'Inter, Helvetica, sans-serif'" font-size="12" lengthAdjust="spacing" textLength="80.0264" x="484" y="366.0899">+ linux/darwin</text></g><!--link IDX to WIN--><g class="link" data-entity-1="ent0002" data-entity-2="ent0006" data-link-type="dependency" data-source-line="21" id="lnk13"><path d="M366.89,286.9629 C337.98,299.6529 306.41,315.0429 279,331.9429 C226.1,364.5429 175.265,407.5453 140.075,439.4353" fill="none" id="IDX-to-WIN" style="stroke:#1A1D24;stroke-width:1;"/><polygon fill="#1A1D24" points="136.37,442.7929,145.725,439.7133,140.075,439.4353,140.3529,433.7853,136.37,442.7929" style="stroke:#1A1D24;stroke-width:1;stroke-linejoin:miter;stroke-miterlimit:10;"/><text fill="#000000" font-family="'Inter, Helvetica, sans-serif'" font-size="12" lengthAdjust="spacing" textLength="71.6061" x="280" y="351.5676">enabled:true</text><text fill="#000000" font-family="'Inter, Helvetica, sans-serif'" font-size="12" lengthAdjust="spacing" textLength="45.8" x="292.9031" y="366.0899">+ win32</text></g><!--link WIN to PS1--><g class="link" data-entity-1="ent0006" data-entity-2="ent0007" data-link-type="dependency" data-source-line="23" id="lnk14"><path d="M99.54,517.1429 C100.97,550.7529 102.9267,596.7574 104.7167,638.6874" fill="none" id="WIN-to-PS1" style="stroke:#1A1D24;stroke-width:1;"/><polygon fill="#1A1D24" points="104.93,643.6829,108.5425,634.5205,104.7167,638.6874,100.5498,634.8617,104.93,643.6829" style="stroke:#1A1D24;stroke-width:1;stroke-linejoin:miter;stroke-miterlimit:10;"/><text fill="#000000" font-family="'Inter, Helvetica, sans-serif'" font-size="12" lengthAdjust="spacing" textLength="125.9798" x="105" y="595.5676">spawn powershell.exe</text><text fill="#000000" font-family="'Inter, Helvetica, sans-serif'" font-size="12" lengthAdjust="spacing" textLength="93.6794" x="121.1502" y="610.0899">-File win-job.ps1</text></g><!--link POSIX to python3\n(child)--><g class="link" data-entity-1="ent0005" data-entity-2="ent0015" data-link-type="dependency" data-source-line="24" id="lnk16"><path d="M551.49,553.0429 C586.62,609.9829 629.4949,679.4674 644.4049,703.6374" fill="none" id="POSIX-to-python3\n(child)" style="stroke:#1A1D24;stroke-width:1;stroke-dasharray:7,7;"/><polygon fill="#1A1D24" points="647.03,707.8929,645.7092,698.133,644.4049,703.6374,638.9005,702.3332,647.03,707.8929" style="stroke:#1A1D24;stroke-width:1;stroke-linejoin:miter;stroke-miterlimit:10;"/><text fill="#000000" font-family="'Inter, Helvetica, sans-serif'" font-size="12" lengthAdjust="spacing" textLength="37.1241" x="610.383" y="595.5676">spawn</text><text fill="#000000" font-family="'Inter, Helvetica, sans-serif'" font-size="12" lengthAdjust="spacing" textLength="79.89" x="589" y="610.0899">detached:true</text></g><!--link PS1 to python.exe\n(child)--><g class="link" data-entity-1="ent0007" data-entity-2="ent0017" data-link-type="dependency" data-source-line="25" id="lnk18"><path d="M96.25,789.9729 C94.9,800.6629 93.74,811.5729 93,821.9429 C92.01,835.6829 92.71,839.1729 93,852.9429 C93.48,875.6429 94.5487,897.4003 95.2687,910.6503" fill="none" id="PS1-to-python.exe\n(child)" style="stroke:#1A1D24;stroke-width:1;stroke-dasharray:7,7;"/><polygon fill="#1A1D24" points="95.54,915.6429,99.0458,906.4391,95.2687,910.6503,91.0576,906.8732,95.54,915.6429" style="stroke:#1A1D24;stroke-width:1;stroke-linejoin:miter;stroke-miterlimit:10;"/><text fill="#000000" font-family="'Inter, Helvetica, sans-serif'" font-size="12" lengthAdjust="spacing" textLength="87.6796" x="128.5503" y="834.5676">Process.Start +</text><text fill="#000000" font-family="'Inter, Helvetica, sans-serif'" font-size="12" lengthAdjust="spacing" textLength="156.7801" x="94" y="849.0899">AssignProcessToJobObject</text></g><!--link UNSAFE to STAIR--><g class="link" data-entity-1="ent0004" data-entity-2="ent0009" data-link-type="dependency" data-source-line="27" id="lnk19"><path d="M321.14,524.0229 C336.37,556.4029 356.54,602.1729 370,643.9429 C398.94,733.7429 418.1944,839.0899 426.6644,890.3199" fill="none" id="UNSAFE-to-STAIR" style="stroke:#1A1D24;stroke-width:1;stroke-dasharray:7,7;"/><polygon fill="#1A1D24" points="427.48,895.2529,429.9584,885.721,426.6644,890.3199,422.0655,887.0259,427.48,895.2529" style="stroke:#1A1D24;stroke-width:1;stroke-linejoin:miter;stroke-miterlimit:10;"/><text fill="#000000" font-family="'Inter, Helvetica, sans-serif'" font-size="12" lengthAdjust="spacing" textLength="39.1013" x="450.3769" y="714.0676">throws</text><text fill="#000000" font-family="'Inter, Helvetica, sans-serif'" font-size="12" lengthAdjust="spacing" textLength="115.855" x="412" y="728.5899">SandboxUnavailable</text></g><!--link POSIX to STAIR--><g class="link" data-entity-1="ent0005" data-entity-2="ent0009" data-link-type="dependency" data-source-line="28" id="lnk20"><path d="M588.7,542.5229 C594.47,546.1929 600.26,549.7029 606,552.9429 C635.83,569.7929 653.08,558.4229 677,582.9429 C749.07,656.8329 758.54,728.2529 701,813.9429 C666.76,864.9429 609.0774,891.0482 552.9274,905.7282" fill="none" id="POSIX-to-STAIR" style="stroke:#1A1D24;stroke-width:1;stroke-dasharray:7,7;"/><polygon fill="#1A1D24" points="548.09,906.9929,557.8091,908.5863,552.9274,905.7282,555.7856,900.8465,548.09,906.9929" style="stroke:#1A1D24;stroke-width:1;stroke-linejoin:miter;stroke-miterlimit:10;"/><text fill="#000000" font-family="'Inter, Helvetica, sans-serif'" font-size="12" lengthAdjust="spacing" textLength="83.4183" x="739.2472" y="707.0676">{pass:bool} OR</text><text fill="#000000" font-family="'Inter, Helvetica, sans-serif'" font-size="12" lengthAdjust="spacing" textLength="56.6576" x="752.6275" y="721.5899">throws on</text><text fill="#000000" font-family="'Inter, Helvetica, sans-serif'" font-size="12" lengthAdjust="spacing" textLength="83.9126" x="739" y="736.1123">UNMEASURED</text></g><!--link WIN to STAIR--><g class="link" data-entity-1="ent0006" data-entity-2="ent0009" data-link-type="dependency" data-source-line="29" id="lnk21"><path d="M143.79,517.2629 C158.93,528.9429 176,541.7429 192,552.9429 C212.3,567.1529 225.36,562.2529 239,582.9429 C296.27,669.8129 221.88,725.6929 277,813.9429 C299.2,849.4829 333.1615,874.3827 366.1415,892.9227" fill="none" id="WIN-to-STAIR" style="stroke:#1A1D24;stroke-width:1;stroke-dasharray:7,7;"/><polygon fill="#1A1D24" points="370.5,895.3729,364.6148,887.4758,366.1415,892.9227,360.6945,894.4494,370.5,895.3729" style="stroke:#1A1D24;stroke-width:1;stroke-linejoin:miter;stroke-miterlimit:10;"/><text fill="#000000" font-family="'Inter, Helvetica, sans-serif'" font-size="12" lengthAdjust="spacing" textLength="83.4183" x="278.2472" y="707.0676">{pass:bool} OR</text><text fill="#000000" font-family="'Inter, Helvetica, sans-serif'" font-size="12" lengthAdjust="spacing" textLength="56.6576" x="291.6275" y="721.5899">throws on</text><text fill="#000000" font-family="'Inter, Helvetica, sans-serif'" font-size="12" lengthAdjust="spacing" textLength="83.9126" x="278" y="736.1123">UNMEASURED</text></g><!--link IDX to GMN22--><g class="link" data-entity-1="ent0002" data-entity-2="ent0023" data-link-type="association" data-source-line="32" id="lnk24"><path d="M549.07,281.2129 C631.93,309.5629 756.69,355.4629 860,406.9429 C874.53,414.1829 889.59,422.7029 903.86,431.3029" fill="none" id="IDX-GMN22" style="stroke:#1A1D24;stroke-width:1;stroke-dasharray:7,7;"/></g><?plantuml-src VPFTQjim68RFTHLQZbfAR9nqE-X1mLbTy0X9Y1oQGi38jfQeKoHZoKrAAUnQTccxaigIsYPRr2D_w7s-lzVI5yfBrbO41a6OkrY6KZqn4j1som1GL342KJRFqMXvayPvbcRZ180Qbx_mci2URCfmYoaFjw8YRDCMOIDQHVawb9XNXTY7FVWC82p5jXQSS0Lx1zNIcsKFOWdrzvXHJpMHWP8h_lVt7uXigLaZ7cb56dWMZxwV7qbp8bkcZewcjQA27rTOSFo8ASC58wPlTZzB4F2EjvYW-3Onf0szv6oAKhkAYRpSNJenbFxwQw78La8HU07WD3HVJ2R9t70sz70eYrEBcGW0IyD-_xfp7Lx1DL7EdRDdmZjhgfTpq6aTO_VMs67lPEoiUSVCrffo1QvKqv8Llu2CydOVLhZPKVuEw-LFe9eO3W3eH5CHHHgIDTvnM8iTQUI6C1QGlORxjrJVIftGVn15KCi8sFv1S7tiv7q-ZaV9kFTMQSKhed2vSMr1r-J_f6IPVEJfIrSIAGEaSAFWnOh7Kj8rTyUP-26AQV50IWM0yweVwF6DspxRx5znGt-66yBHnfXFMAqx4d2X22o4Kc8BnK_tkWxmoJHBkhUNZoEVCF09GvzmwHE--eHlWF0ATiEwaHkwtgXkuhT7z6-QzUFar4uQ-AMXNxhycEGL?></g></svg>