<svg xmlns="http://www.w3.org/2000/svg" xmlns:xlink="http://www.w3.org/1999/xlink" contentStyleType="text/css" data-diagram-type="CLASS" height="1068px" preserveAspectRatio="none" style="width:1625px;height:1068px;background:#F4EEE3;" version="1.1" viewBox="0 0 1625 1068" width="1625px" zoomAndPan="magnify"><?plantuml 1.2026.4?><defs/><g><rect fill="#F4EEE3" height="1068" style="stroke:none;stroke-width:1;" width="1625" x="0" y="0"/><g class="title" data-source-line="11"><text fill="#000000" font-family="'Inter, Helvetica, sans-serif'" font-size="14" font-weight="700" lengthAdjust="spacing" textLength="386.6642" x="615.7242" y="23.5623">BehavioralSignature &#8212; shape on disk (`.ts/&lt;file&gt;.json`)</text></g><!--cluster PKG_ROUTING_TYPES--><g class="cluster" data-qualified-name="PKG_ROUTING_TYPES" data-source-line="10" id="ent0001"><path d="M172,161.9429 L337.0244,161.9429 A6,6 0 0 1 341.0244,165.9429 L348.0244,182.4652 L1306,182.4652 A4,4 0 0 1 1310,186.4652 L1310,925.9429 A4,4 0 0 1 1306,929.9429 L172,929.9429 A4,4 0 0 1 168,925.9429 L168,165.9429 A4,4 0 0 1 172,161.9429" fill="#F4EEE3" style="stroke:#C68A3A;stroke-width:1.5;"/><line style="stroke:#C68A3A;stroke-width:1.5;" x1="168" x2="348.0244" y1="182.4652" y2="182.4652"/><text fill="#0E1014" font-family="'Inter, Helvetica, sans-serif'" font-size="12" font-weight="700" lengthAdjust="spacing" textLength="167.0244" x="172" y="175.5676">src/shared/RoutingTypes.ts</text><text fill="#C68A3A" font-family="'Inter, Helvetica, sans-serif'" font-size="12" font-style="italic" lengthAdjust="spacing" textLength="48.6806" x="718.6597" y="196.0899">&#171;Frame&#187;</text></g><!--class Signature--><g class="entity" data-qualified-name="PKG_ROUTING_TYPES.Signature" data-source-line="12" id="ent0002"><rect fill="#FFFFFF" height="162.1789" rx="4" ry="4" style="stroke:#0E1014;stroke-width:0.5;" width="381.7523" x="393" y="209.9429"/><ellipse cx="552.6808" cy="224.9429" fill="#ADD1B2" rx="10" ry="10" style="stroke:#181818;stroke-width:1;"/><path d="M554.1652,222.146 Q554.2746,221.9898 554.3996,221.9116 Q554.5402,221.8335 554.6964,221.8335 Q554.9621,221.8335 555.1183,222.021 Q555.2902,222.2085 555.2902,222.6304 L555.2902,223.6616 Q555.2902,224.0835 555.1183,224.271 Q554.9621,224.4585 554.6964,224.4585 Q554.4464,224.4585 554.3058,224.3179 Q554.1652,224.1929 554.0871,223.8179 Q554.0558,223.5679 553.9308,223.4429 Q553.6808,223.1773 553.2433,223.021 Q552.8214,222.8648 552.3839,222.8648 Q551.8527,222.8648 551.3996,223.0991 Q550.9464,223.3335 550.6027,223.8648 Q550.2589,224.3804 550.2589,225.1148 L550.2589,225.896 Q550.2589,226.7554 550.8839,227.3335 Q551.5246,227.9116 552.6339,227.9116 Q553.3058,227.9116 553.7746,227.7398 Q554.0402,227.6304 554.3371,227.3179 Q554.5246,227.1304 554.6339,227.0835 Q554.7433,227.021 554.8683,227.021 Q555.1183,227.021 555.2902,227.2085 Q555.4777,227.3804 555.4777,227.6304 Q555.4777,227.8804 555.2277,228.1616 Q554.8683,228.5679 554.3058,228.8023 Q553.5558,229.1148 552.6496,229.1148 Q551.5714,229.1148 550.7277,228.6773 Q550.0246,228.3335 549.5402,227.5679 Q549.0558,226.8023 549.0558,225.9116 L549.0558,225.0991 Q549.0558,224.1616 549.4933,223.3491 Q549.9308,222.5366 550.6964,222.0991 Q551.4777,221.6616 552.3371,221.6616 Q552.8683,221.6616 553.3214,221.7866 Q553.7746,221.896 554.1652,222.146 Z " fill="#000000"/><text fill="#000000" font-family="'Inter, Helvetica, sans-serif'" font-size="12" lengthAdjust="spacing" textLength="54.3907" x="571.6808" y="229.3064">Signature</text><line style="stroke:#0E1014;stroke-width:0.5;" x1="394" x2="773.7523" y1="239.9429" y2="239.9429"/><g data-visibility-modifier="PUBLIC_FIELD"><ellipse cx="404" cy="252.7041" fill="none" rx="3" ry="3" style="stroke:#038048;stroke-width:1;"/></g><text fill="#000000" font-family="'Inter, Helvetica, sans-serif'" font-size="12" lengthAdjust="spacing" textLength="106.2245" x="412" y="255.5676">modelHash : string</text><g data-visibility-modifier="PUBLIC_FIELD"><ellipse cx="404" cy="267.2264" fill="none" rx="3" ry="3" style="stroke:#038048;stroke-width:1;"/></g><text fill="#000000" font-family="'Inter, Helvetica, sans-serif'" font-size="12" lengthAdjust="spacing" textLength="116.6391" x="412" y="270.0899">suite_version : string</text><g data-visibility-modifier="PUBLIC_FIELD"><ellipse cx="404" cy="281.7488" fill="none" rx="3" ry="3" style="stroke:#038048;stroke-width:1;"/></g><text fill="#000000" font-family="'Inter, Helvetica, sans-serif'" font-size="12" lengthAdjust="spacing" textLength="155.979" x="412" y="284.6123">characterized_at : ISO 8601</text><g data-visibility-modifier="PUBLIC_FIELD"><ellipse cx="404" cy="296.2711" fill="none" rx="3" ry="3" style="stroke:#038048;stroke-width:1;"/></g><text fill="#000000" font-family="'Inter, Helvetica, sans-serif'" font-size="12" lengthAdjust="spacing" textLength="356.7523" x="412" y="299.1347">characterization_state : 'complete' | 'incomplete' | 'quarantined'</text><g data-visibility-modifier="PUBLIC_FIELD"><ellipse cx="404" cy="310.7935" fill="none" rx="3" ry="3" style="stroke:#038048;stroke-width:1;"/></g><text fill="#000000" font-family="'Inter, Helvetica, sans-serif'" font-size="12" lengthAdjust="spacing" textLength="174.2001" x="412" y="313.657">structural : StructuralSignature</text><g data-visibility-modifier="PUBLIC_FIELD"><ellipse cx="404" cy="325.3159" fill="none" rx="3" ry="3" style="stroke:#038048;stroke-width:1;"/></g><text fill="#000000" font-family="'Inter, Helvetica, sans-serif'" font-size="12" lengthAdjust="spacing" textLength="182.9272" x="412" y="328.1794">behavioral : BehavioralSignature</text><g data-visibility-modifier="PUBLIC_FIELD"><ellipse cx="404" cy="339.8382" fill="none" rx="3" ry="3" style="stroke:#038048;stroke-width:1;"/></g><text fill="#000000" font-family="'Inter, Helvetica, sans-serif'" font-size="12" lengthAdjust="spacing" textLength="171.2854" x="412" y="342.7017">qcm_reliability : QcmReliability</text><line style="stroke:#0E1014;stroke-width:0.5;" x1="394" x2="773.7523" y1="349.5994" y2="349.5994"/><g data-visibility-modifier="PUBLIC_METHOD"><ellipse cx="404" cy="362.3606" fill="#84BE84" rx="3" ry="3" style="stroke:#038048;stroke-width:1;"/></g><text fill="#000000" font-family="'Inter, Helvetica, sans-serif'" font-size="12" lengthAdjust="spacing" textLength="116.2641" x="412" y="365.2241">embedder_id : string</text><text fill="#000000" font-family="'Inter, Helvetica, sans-serif'" font-size="12" font-style="italic" lengthAdjust="spacing" textLength="51.2885" x="538.3888" y="365.2241">(slice 7c)</text></g><!--class StructuralSignature--><g class="entity" data-qualified-name="PKG_ROUTING_TYPES.StructuralSignature" data-source-line="23" id="ent0003"><rect fill="#FFFFFF" height="133.1341" rx="4" ry="4" style="stroke:#0E1014;stroke-width:0.5;" width="281.4082" x="635.5" y="502.4429"/><ellipse cx="717.2254" cy="517.4429" fill="#ADD1B2" rx="10" ry="10" style="stroke:#181818;stroke-width:1;"/><path d="M718.7098,514.646 Q718.8191,514.4898 718.9441,514.4116 Q719.0848,514.3335 719.241,514.3335 Q719.5066,514.3335 719.6629,514.521 Q719.8348,514.7085 719.8348,515.1304 L719.8348,516.1616 Q719.8348,516.5835 719.6629,516.771 Q719.5066,516.9585 719.241,516.9585 Q718.991,516.9585 718.8504,516.8179 Q718.7098,516.6929 718.6316,516.3179 Q718.6004,516.0679 718.4754,515.9429 Q718.2254,515.6773 717.7879,515.521 Q717.366,515.3648 716.9285,515.3648 Q716.3973,515.3648 715.9441,515.5991 Q715.491,515.8335 715.1473,516.3648 Q714.8035,516.8804 714.8035,517.6148 L714.8035,518.396 Q714.8035,519.2554 715.4285,519.8335 Q716.0691,520.4116 717.1785,520.4116 Q717.8504,520.4116 718.3191,520.2398 Q718.5848,520.1304 718.8816,519.8179 Q719.0691,519.6304 719.1785,519.5835 Q719.2879,519.521 719.4129,519.521 Q719.6629,519.521 719.8348,519.7085 Q720.0223,519.8804 720.0223,520.1304 Q720.0223,520.3804 719.7723,520.6616 Q719.4129,521.0679 718.8504,521.3023 Q718.1004,521.6148 717.1941,521.6148 Q716.116,521.6148 715.2723,521.1773 Q714.5691,520.8335 714.0848,520.0679 Q713.6004,519.3023 713.6004,518.4116 L713.6004,517.5991 Q713.6004,516.6616 714.0379,515.8491 Q714.4754,515.0366 715.241,514.5991 Q716.0223,514.1616 716.8816,514.1616 Q717.4129,514.1616 717.866,514.2866 Q718.3191,514.396 718.7098,514.646 Z " fill="#000000"/><text fill="#000000" font-family="'Inter, Helvetica, sans-serif'" font-size="12" lengthAdjust="spacing" textLength="109.9574" x="736.2254" y="521.8064">StructuralSignature</text><line style="stroke:#0E1014;stroke-width:0.5;" x1="636.5" x2="915.9082" y1="532.4429" y2="532.4429"/><g data-visibility-modifier="PUBLIC_FIELD"><ellipse cx="646.5" cy="545.2041" fill="none" rx="3" ry="3" style="stroke:#038048;stroke-width:1;"/></g><text fill="#000000" font-family="'Inter, Helvetica, sans-serif'" font-size="12" lengthAdjust="spacing" textLength="127.2922" x="654.5" y="548.0676">tensor_count : number</text><g data-visibility-modifier="PUBLIC_FIELD"><ellipse cx="646.5" cy="559.7264" fill="none" rx="3" ry="3" style="stroke:#038048;stroke-width:1;"/></g><text fill="#000000" font-family="'Inter, Helvetica, sans-serif'" font-size="12" lengthAdjust="spacing" textLength="67.3619" x="654.5" y="562.5899">arch : string</text><g data-visibility-modifier="PUBLIC_FIELD"><ellipse cx="646.5" cy="574.2488" fill="none" rx="3" ry="3" style="stroke:#038048;stroke-width:1;"/></g><text fill="#000000" font-family="'Inter, Helvetica, sans-serif'" font-size="12" lengthAdjust="spacing" textLength="74.7765" x="654.5" y="577.1123">quant : string</text><g data-visibility-modifier="PUBLIC_FIELD"><ellipse cx="646.5" cy="588.7711" fill="none" rx="3" ry="3" style="stroke:#038048;stroke-width:1;"/></g><text fill="#000000" font-family="'Inter, Helvetica, sans-serif'" font-size="12" lengthAdjust="spacing" textLength="100.0202" x="654.5" y="591.6347">ctx_max : number</text><g data-visibility-modifier="PUBLIC_FIELD"><ellipse cx="646.5" cy="603.2935" fill="none" rx="3" ry="3" style="stroke:#038048;stroke-width:1;"/></g><text fill="#000000" font-family="'Inter, Helvetica, sans-serif'" font-size="12" lengthAdjust="spacing" textLength="9.852" x="654.5" y="606.157">&#8230;</text><line style="stroke:#0E1014;stroke-width:0.5;" x1="636.5" x2="915.9082" y1="613.0547" y2="613.0547"/><g data-visibility-modifier="PUBLIC_METHOD"><ellipse cx="646.5" cy="625.8159" fill="#84BE84" rx="3" ry="3" style="stroke:#038048;stroke-width:1;"/></g><text fill="#000000" font-family="'Inter, Helvetica, sans-serif'" font-size="12" lengthAdjust="spacing" textLength="162.6265" x="654.5" y="628.6794">est_footprint_bytes : number</text><text fill="#000000" font-family="'Inter, Helvetica, sans-serif'" font-size="12" font-style="italic" lengthAdjust="spacing" textLength="87.0319" x="823.8764" y="628.6794">(D9 fit-scoring)</text></g><!--class BehavioralSignature--><g class="entity" data-qualified-name="PKG_ROUTING_TYPES.BehavioralSignature" data-source-line="32" id="ent0004"><rect fill="#FFFFFF" height="271.8354" rx="4" ry="4" style="stroke:#0E1014;stroke-width:0.5;" width="415.9446" x="184" y="432.9429"/><ellipse cx="331.0675" cy="447.9429" fill="#ADD1B2" rx="10" ry="10" style="stroke:#181818;stroke-width:1;"/><path d="M332.5519,445.146 Q332.6613,444.9898 332.7863,444.9116 Q332.9269,444.8335 333.0831,444.8335 Q333.3488,444.8335 333.505,445.021 Q333.6769,445.2085 333.6769,445.6304 L333.6769,446.6616 Q333.6769,447.0835 333.505,447.271 Q333.3488,447.4585 333.0831,447.4585 Q332.8331,447.4585 332.6925,447.3179 Q332.5519,447.1929 332.4738,446.8179 Q332.4425,446.5679 332.3175,446.4429 Q332.0675,446.1773 331.63,446.021 Q331.2081,445.8648 330.7706,445.8648 Q330.2394,445.8648 329.7863,446.0991 Q329.3331,446.3335 328.9894,446.8648 Q328.6456,447.3804 328.6456,448.1148 L328.6456,448.896 Q328.6456,449.7554 329.2706,450.3335 Q329.9113,450.9116 331.0206,450.9116 Q331.6925,450.9116 332.1613,450.7398 Q332.4269,450.6304 332.7238,450.3179 Q332.9113,450.1304 333.0206,450.0835 Q333.13,450.021 333.255,450.021 Q333.505,450.021 333.6769,450.2085 Q333.8644,450.3804 333.8644,450.6304 Q333.8644,450.8804 333.6144,451.1616 Q333.255,451.5679 332.6925,451.8023 Q331.9425,452.1148 331.0363,452.1148 Q329.9581,452.1148 329.1144,451.6773 Q328.4113,451.3335 327.9269,450.5679 Q327.4425,449.8023 327.4425,448.9116 L327.4425,448.0991 Q327.4425,447.1616 327.88,446.3491 Q328.3175,445.5366 329.0831,445.0991 Q329.8644,444.6616 330.7238,444.6616 Q331.255,444.6616 331.7081,444.7866 Q332.1613,444.896 332.5519,445.146 Z " fill="#000000"/><text fill="#000000" font-family="'Inter, Helvetica, sans-serif'" font-size="12" lengthAdjust="spacing" textLength="113.8096" x="350.0675" y="452.3064">BehavioralSignature</text><line style="stroke:#0E1014;stroke-width:0.5;" x1="185" x2="598.9446" y1="462.9429" y2="462.9429"/><g data-visibility-modifier="PUBLIC_FIELD"><ellipse cx="195" cy="475.7041" fill="none" rx="3" ry="3" style="stroke:#038048;stroke-width:1;"/></g><text fill="#000000" font-family="'Inter, Helvetica, sans-serif'" font-size="12" lengthAdjust="spacing" textLength="318.6055" x="203" y="478.5676">diagnostic_run : Record&lt;promptId, DiagnosticRunEntry&gt;</text><g data-visibility-modifier="PUBLIC_FIELD"><ellipse cx="195" cy="490.2264" fill="none" rx="3" ry="3" style="stroke:#038048;stroke-width:1;"/></g><text fill="#000000" font-family="'Inter, Helvetica, sans-serif'" font-size="12" lengthAdjust="spacing" textLength="341.3094" x="203" y="493.0899">scores_per_axis : Partial&lt;Record&lt;DiagnosticAxis, number&gt;&gt;</text><g data-visibility-modifier="PUBLIC_FIELD"><ellipse cx="195" cy="504.7488" fill="none" rx="3" ry="3" style="stroke:#038048;stroke-width:1;"/></g><text fill="#000000" font-family="'Inter, Helvetica, sans-serif'" font-size="12" lengthAdjust="spacing" textLength="316.5601" x="203" y="507.6123">n_per_axis? : Partial&lt;Record&lt;DiagnosticAxis, number&gt;&gt;</text><g data-visibility-modifier="PUBLIC_FIELD"><ellipse cx="195" cy="519.2711" fill="none" rx="3" ry="3" style="stroke:#038048;stroke-width:1;"/></g><text fill="#000000" font-family="'Inter, Helvetica, sans-serif'" font-size="12" lengthAdjust="spacing" textLength="97.2248" x="203" y="522.1347">overall? : number</text><line style="stroke:#0E1014;stroke-width:1;" x1="185" x2="598.9446" y1="529.0323" y2="529.0323"/><text fill="#000000" font-family="'Inter, Helvetica, sans-serif'" font-size="12" font-weight="700" lengthAdjust="spacing" textLength="179.8252" x="203" y="544.657">Tree-routing fields (slice 4c+)</text><g data-visibility-modifier="PUBLIC_METHOD"><ellipse cx="195" cy="556.3159" fill="#84BE84" rx="3" ry="3" style="stroke:#038048;stroke-width:1;"/></g><text fill="#000000" font-family="'Inter, Helvetica, sans-serif'" font-size="12" lengthAdjust="spacing" textLength="242.3972" x="203" y="559.1794">scores_per_leaf? : Record&lt;leafId, number&gt;</text><text fill="#000000" font-family="'Inter, Helvetica, sans-serif'" font-size="12" font-style="italic" lengthAdjust="spacing" textLength="115.2925" x="452.147" y="559.1794">(0..1 &#8212; see scheme)</text><g data-visibility-modifier="PUBLIC_FIELD"><ellipse cx="195" cy="570.8382" fill="none" rx="3" ry="3" style="stroke:#038048;stroke-width:1;"/></g><text fill="#000000" font-family="'Inter, Helvetica, sans-serif'" font-size="12" lengthAdjust="spacing" textLength="369.2463" x="203" y="573.7017">branch_scores? : Partial&lt;Record&lt;CompetenceBranch, number&gt;&gt;</text><g data-visibility-modifier="PUBLIC_FIELD"><ellipse cx="195" cy="585.3606" fill="none" rx="3" ry="3" style="stroke:#038048;stroke-width:1;"/></g><text fill="#000000" font-family="'Inter, Helvetica, sans-serif'" font-size="12" lengthAdjust="spacing" textLength="211.5628" x="203" y="588.2241">n_per_leaf? : Record&lt;leafId, number&gt;</text><g data-visibility-modifier="PUBLIC_METHOD"><ellipse cx="195" cy="599.8829" fill="#84BE84" rx="3" ry="3" style="stroke:#038048;stroke-width:1;"/></g><text fill="#000000" font-family="'Inter, Helvetica, sans-serif'" font-size="12" lengthAdjust="spacing" textLength="244.4256" x="203" y="602.7465">passes_per_leaf? : Record&lt;leafId, number&gt;</text><text fill="#000000" font-family="'Inter, Helvetica, sans-serif'" font-size="12" font-style="italic" lengthAdjust="spacing" textLength="107.1365" x="454.1754" y="602.7465">(beta-laplace only)</text><g data-visibility-modifier="PUBLIC_FIELD"><ellipse cx="195" cy="614.4053" fill="none" rx="3" ry="3" style="stroke:#038048;stroke-width:1;"/></g><text fill="#000000" font-family="'Inter, Helvetica, sans-serif'" font-size="12" lengthAdjust="spacing" textLength="318.5885" x="203" y="617.2688">scoring_scheme? : 'beta-laplace-v1' | 'breaking-rung-v0'</text><line style="stroke:#0E1014;stroke-width:1;" x1="185" x2="598.9446" y1="624.1665" y2="624.1665"/><text fill="#000000" font-family="'Inter, Helvetica, sans-serif'" font-size="12" font-weight="700" lengthAdjust="spacing" textLength="151.9736" x="203" y="639.7912">Free-gen probe (slice 7c)</text><g data-visibility-modifier="PUBLIC_METHOD"><ellipse cx="195" cy="651.45" fill="#84BE84" rx="3" ry="3" style="stroke:#038048;stroke-width:1;"/></g><text fill="#000000" font-family="'Inter, Helvetica, sans-serif'" font-size="12" lengthAdjust="spacing" textLength="291.4017" x="203" y="654.3135">topic_coverage_per_leaf? : Record&lt;leafId, number&gt;</text><text fill="#000000" font-family="'Inter, Helvetica, sans-serif'" font-size="12" font-style="italic" lengthAdjust="spacing" textLength="51.9703" x="501.1515" y="654.3135">(cosines)</text><g data-visibility-modifier="PUBLIC_FIELD"><ellipse cx="195" cy="665.9724" fill="none" rx="3" ry="3" style="stroke:#038048;stroke-width:1;"/></g><text fill="#000000" font-family="'Inter, Helvetica, sans-serif'" font-size="12" lengthAdjust="spacing" textLength="390.9446" x="203" y="668.8359">topic_coverage_per_branch? : Record&lt;CompetenceBranch, number&gt;</text><g data-visibility-modifier="PUBLIC_FIELD"><ellipse cx="195" cy="680.4947" fill="none" rx="3" ry="3" style="stroke:#038048;stroke-width:1;"/></g><text fill="#000000" font-family="'Inter, Helvetica, sans-serif'" font-size="12" lengthAdjust="spacing" textLength="144.0816" x="203" y="683.3582">freegen_words? : number</text><g data-visibility-modifier="PUBLIC_FIELD"><ellipse cx="195" cy="695.0171" fill="none" rx="3" ry="3" style="stroke:#038048;stroke-width:1;"/></g><text fill="#000000" font-family="'Inter, Helvetica, sans-serif'" font-size="12" lengthAdjust="spacing" textLength="141.2351" x="203" y="697.8806">freegen_excerpt? : string</text></g><!--class DiagnosticRunEntry--><g class="entity" data-qualified-name="PKG_ROUTING_TYPES.DiagnosticRunEntry" data-source-line="52" id="ent0005"><rect fill="#FFFFFF" height="147.6565" rx="4" ry="4" style="stroke:#0E1014;stroke-width:0.5;" width="153.8774" x="315" y="765.9429"/><ellipse cx="334.6657" cy="780.9429" fill="#ADD1B2" rx="10" ry="10" style="stroke:#181818;stroke-width:1;"/><path d="M336.1501,778.146 Q336.2595,777.9898 336.3845,777.9116 Q336.5251,777.8335 336.6813,777.8335 Q336.947,777.8335 337.1032,778.021 Q337.2751,778.2085 337.2751,778.6304 L337.2751,779.6616 Q337.2751,780.0835 337.1032,780.271 Q336.947,780.4585 336.6813,780.4585 Q336.4313,780.4585 336.2907,780.3179 Q336.1501,780.1929 336.072,779.8179 Q336.0407,779.5679 335.9157,779.4429 Q335.6657,779.1773 335.2282,779.021 Q334.8063,778.8648 334.3688,778.8648 Q333.8376,778.8648 333.3845,779.0991 Q332.9313,779.3335 332.5876,779.8648 Q332.2438,780.3804 332.2438,781.1148 L332.2438,781.896 Q332.2438,782.7554 332.8688,783.3335 Q333.5095,783.9116 334.6188,783.9116 Q335.2907,783.9116 335.7595,783.7398 Q336.0251,783.6304 336.322,783.3179 Q336.5095,783.1304 336.6188,783.0835 Q336.7282,783.021 336.8532,783.021 Q337.1032,783.021 337.2751,783.2085 Q337.4626,783.3804 337.4626,783.6304 Q337.4626,783.8804 337.2126,784.1616 Q336.8532,784.5679 336.2907,784.8023 Q335.5407,785.1148 334.6345,785.1148 Q333.5563,785.1148 332.7126,784.6773 Q332.0095,784.3335 331.5251,783.5679 Q331.0407,782.8023 331.0407,781.9116 L331.0407,781.0991 Q331.0407,780.1616 331.4782,779.3491 Q331.9157,778.5366 332.6813,778.0991 Q333.4626,777.6616 334.322,777.6616 Q334.8532,777.6616 335.3063,777.7866 Q335.7595,777.896 336.1501,778.146 Z " fill="#000000"/><text fill="#000000" font-family="'Inter, Helvetica, sans-serif'" font-size="12" lengthAdjust="spacing" textLength="111.287" x="348.9247" y="785.3064">DiagnosticRunEntry</text><line style="stroke:#0E1014;stroke-width:0.5;" x1="316" x2="467.8774" y1="795.9429" y2="795.9429"/><g data-visibility-modifier="PUBLIC_FIELD"><ellipse cx="326" cy="808.7041" fill="none" rx="3" ry="3" style="stroke:#038048;stroke-width:1;"/></g><text fill="#000000" font-family="'Inter, Helvetica, sans-serif'" font-size="12" lengthAdjust="spacing" textLength="52.635" x="334" y="811.5676">id : string</text><g data-visibility-modifier="PUBLIC_FIELD"><ellipse cx="326" cy="823.2264" fill="none" rx="3" ry="3" style="stroke:#038048;stroke-width:1;"/></g><text fill="#000000" font-family="'Inter, Helvetica, sans-serif'" font-size="12" lengthAdjust="spacing" textLength="128.8774" x="334" y="826.0899">axes : DiagnosticAxis[]</text><g data-visibility-modifier="PUBLIC_FIELD"><ellipse cx="326" cy="837.7488" fill="none" rx="3" ry="3" style="stroke:#038048;stroke-width:1;"/></g><text fill="#000000" font-family="'Inter, Helvetica, sans-serif'" font-size="12" lengthAdjust="spacing" textLength="82.0718" x="334" y="840.6123">pass : boolean</text><g data-visibility-modifier="PUBLIC_FIELD"><ellipse cx="326" cy="852.2711" fill="none" rx="3" ry="3" style="stroke:#038048;stroke-width:1;"/></g><text fill="#000000" font-family="'Inter, Helvetica, sans-serif'" font-size="12" lengthAdjust="spacing" textLength="91.0545" x="334" y="855.1347">score? : number</text><g data-visibility-modifier="PUBLIC_FIELD"><ellipse cx="326" cy="866.7935" fill="none" rx="3" ry="3" style="stroke:#038048;stroke-width:1;"/></g><text fill="#000000" font-family="'Inter, Helvetica, sans-serif'" font-size="12" lengthAdjust="spacing" textLength="94.8214" x="334" y="869.657">response : string</text><g data-visibility-modifier="PUBLIC_FIELD"><ellipse cx="326" cy="881.3159" fill="none" rx="3" ry="3" style="stroke:#038048;stroke-width:1;"/></g><text fill="#000000" font-family="'Inter, Helvetica, sans-serif'" font-size="12" lengthAdjust="spacing" textLength="79.6854" x="334" y="884.1794">detail? : string</text><g data-visibility-modifier="PUBLIC_FIELD"><ellipse cx="326" cy="895.8382" fill="none" rx="3" ry="3" style="stroke:#038048;stroke-width:1;"/></g><text fill="#000000" font-family="'Inter, Helvetica, sans-serif'" font-size="12" lengthAdjust="spacing" textLength="75.9696" x="334" y="898.7017">error? : string</text><line style="stroke:#0E1014;stroke-width:0.5;" x1="316" x2="467.8774" y1="905.5994" y2="905.5994"/></g><!--class QcmReliability--><g class="entity" data-qualified-name="PKG_ROUTING_TYPES.QcmReliability" data-source-line="62" id="ent0006"><rect fill="#FFFFFF" height="104.0894" rx="4" ry="4" style="stroke:#0E1014;stroke-width:0.5;" width="341.9862" x="952" y="516.9429"/><ellipse cx="1078.7839" cy="531.9429" fill="#ADD1B2" rx="10" ry="10" style="stroke:#181818;stroke-width:1;"/><path d="M1080.2683,529.146 Q1080.3776,528.9898 1080.5026,528.9116 Q1080.6433,528.8335 1080.7995,528.8335 Q1081.0651,528.8335 1081.2214,529.021 Q1081.3933,529.2085 1081.3933,529.6304 L1081.3933,530.6616 Q1081.3933,531.0835 1081.2214,531.271 Q1081.0651,531.4585 1080.7995,531.4585 Q1080.5495,531.4585 1080.4089,531.3179 Q1080.2683,531.1929 1080.1901,530.8179 Q1080.1589,530.5679 1080.0339,530.4429 Q1079.7839,530.1773 1079.3464,530.021 Q1078.9245,529.8648 1078.487,529.8648 Q1077.9558,529.8648 1077.5026,530.0991 Q1077.0495,530.3335 1076.7058,530.8648 Q1076.362,531.3804 1076.362,532.1148 L1076.362,532.896 Q1076.362,533.7554 1076.987,534.3335 Q1077.6276,534.9116 1078.737,534.9116 Q1079.4089,534.9116 1079.8776,534.7398 Q1080.1433,534.6304 1080.4401,534.3179 Q1080.6276,534.1304 1080.737,534.0835 Q1080.8464,534.021 1080.9714,534.021 Q1081.2214,534.021 1081.3933,534.2085 Q1081.5808,534.3804 1081.5808,534.6304 Q1081.5808,534.8804 1081.3308,535.1616 Q1080.9714,535.5679 1080.4089,535.8023 Q1079.6589,536.1148 1078.7526,536.1148 Q1077.6745,536.1148 1076.8308,535.6773 Q1076.1276,535.3335 1075.6433,534.5679 Q1075.1589,533.8023 1075.1589,532.9116 L1075.1589,532.0991 Q1075.1589,531.1616 1075.5964,530.3491 Q1076.0339,529.5366 1076.7995,529.0991 Q1077.5808,528.6616 1078.4401,528.6616 Q1078.9714,528.6616 1079.4245,528.7866 Q1079.8776,528.896 1080.2683,529.146 Z " fill="#000000"/><text fill="#000000" font-family="'Inter, Helvetica, sans-serif'" font-size="12" lengthAdjust="spacing" textLength="80.4184" x="1097.7839" y="536.3064">QcmReliability</text><line style="stroke:#0E1014;stroke-width:0.5;" x1="953" x2="1292.9862" y1="546.9429" y2="546.9429"/><g data-visibility-modifier="PUBLIC_FIELD"><ellipse cx="963" cy="559.7041" fill="none" rx="3" ry="3" style="stroke:#038048;stroke-width:1;"/></g><text fill="#000000" font-family="'Inter, Helvetica, sans-serif'" font-size="12" lengthAdjust="spacing" textLength="121.4117" x="971" y="562.5676">consistency : number</text><g data-visibility-modifier="PUBLIC_FIELD"><ellipse cx="963" cy="574.2264" fill="none" rx="3" ry="3" style="stroke:#038048;stroke-width:1;"/></g><text fill="#000000" font-family="'Inter, Helvetica, sans-serif'" font-size="12" lengthAdjust="spacing" textLength="60.4075" x="971" y="577.0899">n : number</text><line style="stroke:#0E1014;stroke-width:0.5;" x1="953" x2="1292.9862" y1="583.9876" y2="583.9876"/><g data-visibility-modifier="PUBLIC_METHOD"><ellipse cx="963" cy="596.7488" fill="#84BE84" rx="3" ry="3" style="stroke:#038048;stroke-width:1;"/></g><text fill="#000000" font-family="'Inter, Helvetica, sans-serif'" font-size="12" lengthAdjust="spacing" textLength="156.7801" x="971" y="599.6123">format_adherence : number</text><text fill="#000000" font-family="'Inter, Helvetica, sans-serif'" font-size="12" font-style="italic" lengthAdjust="spacing" textLength="28.38" x="1134.5299" y="599.6123">(0..1)</text><g data-visibility-modifier="PUBLIC_METHOD"><ellipse cx="963" cy="611.2711" fill="#84BE84" rx="3" ry="3" style="stroke:#038048;stroke-width:1;"/></g><text fill="#000000" font-family="'Inter, Helvetica, sans-serif'" font-size="12" lengthAdjust="spacing" textLength="91.1397" x="971" y="614.1347">overall : number</text><text fill="#000000" font-family="'Inter, Helvetica, sans-serif'" font-size="12" font-style="italic" lengthAdjust="spacing" textLength="219.0967" x="1068.8895" y="614.1347">(display-only &#8212; NEVER enters routing)</text></g><!--class STORE--><g class="entity" data-qualified-name="STORE" data-source-line="18" id="ent0007"><rect fill="#FFFFFF" height="55.0447" rx="4" ry="4" style="stroke:#0E1014;stroke-width:0.5;" width="219.8304" x="7" y="44.9429"/><ellipse cx="21" cy="64.4652" fill="#ADD1B2" rx="10" ry="10" style="stroke:#181818;stroke-width:1;"/><path d="M22.4844,61.6684 Q22.5938,61.5121 22.7188,61.434 Q22.8594,61.3559 23.0156,61.3559 Q23.2813,61.3559 23.4375,61.5434 Q23.6094,61.7309 23.6094,62.1527 L23.6094,63.184 Q23.6094,63.6059 23.4375,63.7934 Q23.2813,63.9809 23.0156,63.9809 Q22.7656,63.9809 22.625,63.8402 Q22.4844,63.7152 22.4063,63.3402 Q22.375,63.0902 22.25,62.9652 Q22,62.6996 21.5625,62.5434 Q21.1406,62.3871 20.7031,62.3871 Q20.1719,62.3871 19.7188,62.6215 Q19.2656,62.8559 18.9219,63.3871 Q18.5781,63.9027 18.5781,64.6371 L18.5781,65.4184 Q18.5781,66.2777 19.2031,66.8559 Q19.8438,67.434 20.9531,67.434 Q21.625,67.434 22.0938,67.2621 Q22.3594,67.1527 22.6563,66.8402 Q22.8438,66.6527 22.9531,66.6059 Q23.0625,66.5434 23.1875,66.5434 Q23.4375,66.5434 23.6094,66.7309 Q23.7969,66.9027 23.7969,67.1527 Q23.7969,67.4027 23.5469,67.684 Q23.1875,68.0902 22.625,68.3246 Q21.875,68.6371 20.9688,68.6371 Q19.8906,68.6371 19.0469,68.1996 Q18.3438,67.8559 17.8594,67.0902 Q17.375,66.3246 17.375,65.434 L17.375,64.6215 Q17.375,63.684 17.8125,62.8715 Q18.25,62.059 19.0156,61.6215 Q19.7969,61.184 20.6563,61.184 Q21.1875,61.184 21.6406,61.309 Q22.0938,61.4184 22.4844,61.6684 Z " fill="#000000"/><text fill="#000000" font-family="'Inter, Helvetica, sans-serif'" font-size="12" lengthAdjust="spacing" textLength="97.5827" x="80.1238" y="61.5676">signatureStore.ts</text><text fill="#000000" font-family="'Inter, Helvetica, sans-serif'" font-size="12" lengthAdjust="spacing" textLength="189.8304" x="34" y="76.0899">loadSignature() / writeSignature()</text><line style="stroke:#0E1014;stroke-width:0.5;" x1="8" x2="225.8304" y1="83.9876" y2="83.9876"/><line style="stroke:#0E1014;stroke-width:0.5;" x1="8" x2="225.8304" y1="91.9876" y2="91.9876"/></g><!--class DISK--><g class="entity" data-qualified-name="DISK" data-source-line="19" id="ent0008"><rect fill="#FFFFFF" height="69.5671" rx="4" ry="4" style="stroke:#0E1014;stroke-width:0.5;" width="142.7187" x="8.5" y="255.9429"/><ellipse cx="22.5" cy="282.7264" fill="#ADD1B2" rx="10" ry="10" style="stroke:#181818;stroke-width:1;"/><path d="M23.9844,279.9295 Q24.0938,279.7733 24.2188,279.6952 Q24.3594,279.617 24.5156,279.617 Q24.7813,279.617 24.9375,279.8045 Q25.1094,279.992 25.1094,280.4139 L25.1094,281.4452 Q25.1094,281.867 24.9375,282.0545 Q24.7813,282.242 24.5156,282.242 Q24.2656,282.242 24.125,282.1014 Q23.9844,281.9764 23.9063,281.6014 Q23.875,281.3514 23.75,281.2264 Q23.5,280.9608 23.0625,280.8045 Q22.6406,280.6483 22.2031,280.6483 Q21.6719,280.6483 21.2188,280.8827 Q20.7656,281.117 20.4219,281.6483 Q20.0781,282.1639 20.0781,282.8983 L20.0781,283.6795 Q20.0781,284.5389 20.7031,285.117 Q21.3438,285.6952 22.4531,285.6952 Q23.125,285.6952 23.5938,285.5233 Q23.8594,285.4139 24.1563,285.1014 Q24.3438,284.9139 24.4531,284.867 Q24.5625,284.8045 24.6875,284.8045 Q24.9375,284.8045 25.1094,284.992 Q25.2969,285.1639 25.2969,285.4139 Q25.2969,285.6639 25.0469,285.9452 Q24.6875,286.3514 24.125,286.5858 Q23.375,286.8983 22.4688,286.8983 Q21.3906,286.8983 20.5469,286.4608 Q19.8438,286.117 19.3594,285.3514 Q18.875,284.5858 18.875,283.6952 L18.875,282.8827 Q18.875,281.9452 19.3125,281.1327 Q19.75,280.3202 20.5156,279.8827 Q21.2969,279.4452 22.1563,279.4452 Q22.6875,279.4452 23.1406,279.5702 Q23.5938,279.6795 23.9844,279.9295 Z " fill="#000000"/><text fill="#000000" font-family="Inter, Helvetica, sans-serif" font-size="12" font-style="italic" lengthAdjust="spacing" textLength="29.9822" x="76.8683" y="272.5676">&#171;file&#187;</text><text fill="#000000" font-family="'Inter, Helvetica, sans-serif'" font-size="12" lengthAdjust="spacing" textLength="112.5312" x="35.5938" y="287.0899">.ts/&lt;modelfile&gt;.json</text><text fill="#000000" font-family="'Inter, Helvetica, sans-serif'" font-size="12" lengthAdjust="spacing" textLength="112.7187" x="35.5" y="301.6123">(per-model sidecar)</text><line style="stroke:#0E1014;stroke-width:0.5;" x1="9.5" x2="150.2187" y1="309.51" y2="309.51"/><line style="stroke:#0E1014;stroke-width:0.5;" x1="9.5" x2="150.2187" y1="317.51" y2="317.51"/></g><path d="M1329.5,497.4429 L1329.5,520.9457 L567.4396,554.8159 L1329.5,528.9457 L1329.5,552.4485 A0,0 0 0 0 1329.5,552.4485 L1610.1127,552.4485 A0,0 0 0 0 1610.1127,552.4485 L1610.1127,507.4429 L1600.1127,497.4429 L1329.5,497.4429 A0,0 0 0 0 1329.5,497.4429" fill="#FFFDF6" style="stroke:#C68A3A;stroke-width:0.5;"/><path d="M1600.1127,497.4429 L1600.1127,507.4429 L1610.1127,507.4429 L1600.1127,497.4429" fill="#FFFDF6" style="stroke:#C68A3A;stroke-width:0.5;"/><text fill="#0E1014" font-family="'Inter, Helvetica, sans-serif'" font-size="12" lengthAdjust="spacing" textLength="244.7051" x="1335.5" y="515.3921">Beta-Laplace `(1+passes)/(2+asked)` &#8712; (0, 1].</text><text fill="#0E1014" font-family="'Inter, Helvetica, sans-serif'" font-size="12" lengthAdjust="spacing" textLength="188.2452" x="1335.5" y="530.0285">3/3 &#8658; 0.80, never 1.0 in Phase A.</text><text fill="#0E1014" font-family="'Inter, Helvetica, sans-serif'" font-size="12" lengthAdjust="spacing" textLength="259.6127" x="1335.5" y="544.5509">Coexists with `scores_per_axis` (R5 fallback).</text><path d="M1329.5,562.4485 L1329.5,592.4933 L553.1218,649.95 L1329.5,600.4933 L1329.5,630.538 A0,0 0 0 0 1329.5,630.538 L1604.6412,630.538 A0,0 0 0 0 1604.6412,630.538 L1604.6412,572.4485 L1594.6412,562.4485 L1329.5,562.4485 A0,0 0 0 0 1329.5,562.4485" fill="#FFFDF6" style="stroke:#C68A3A;stroke-width:0.5;"/><path d="M1594.6412,562.4485 L1594.6412,572.4485 L1604.6412,572.4485 L1594.6412,562.4485" fill="#FFFDF6" style="stroke:#C68A3A;stroke-width:0.5;"/><text fill="#0E1014" font-family="'Inter, Helvetica, sans-serif'" font-size="12" lengthAdjust="spacing" textLength="215.7047" x="1335.5" y="579.0732">DCC &#167;4 carve-out. 32 cosines against</text><text fill="#0E1014" font-family="'Inter, Helvetica, sans-serif'" font-size="12" lengthAdjust="spacing" textLength="254.1412" x="1335.5" y="593.5956">the SAME shared anchors used by routing &#8212;</text><text fill="#0E1014" font-family="'Inter, Helvetica, sans-serif'" font-size="12" lengthAdjust="spacing" textLength="225.4545" x="1335.5" y="608.118">same index space as `scores_per_leaf`.</text><text fill="#0E1014" font-family="'Inter, Helvetica, sans-serif'" font-size="12" lengthAdjust="spacing" textLength="228.3351" x="1335.5" y="622.6403">Additional evidence, never replacement.</text><g class="entity" data-qualified-name="GMN17" data-source-line="42" id="ent0018"><path d="M1326,816.9429 L1326,862.51 A4,4 0 0 0 1330,866.51 L1526.3874,866.51 A4,4 0 0 0 1530.3874,862.51 L1530.3874,822.9429 L1520.3874,812.9429 L1402.35,812.9429 L1181.09,621.1729 L1394.35,812.9429 L1330,812.9429 A4,4 0 0 0 1326,816.9429" fill="#FFFDF6" style="stroke:#C68A3A;stroke-width:0.5;"/><path d="M1520.3874,812.9429 L1520.3874,820.9429 A2,2 0 0 0 1522.3874,822.9429 L1530.3874,822.9429 L1520.3874,812.9429" fill="#FFFDF6" style="stroke:#C68A3A;stroke-width:0.5;"/><text fill="#0E1014" font-family="'Inter, Helvetica, sans-serif'" font-size="12" lengthAdjust="spacing" textLength="173.5012" x="1332" y="829.5676">SPEC &#167;6bis: QCM aptitude is a</text><text fill="#0E1014" font-family="'Inter, Helvetica, sans-serif'" font-size="12" lengthAdjust="spacing" textLength="170.7911" x="1332" y="844.0899">judge-candidacy signal, never</text><text fill="#0E1014" font-family="'Inter, Helvetica, sans-serif'" font-size="12" lengthAdjust="spacing" textLength="183.3874" x="1332" y="858.6123">a competence signal for routing.</text></g><!--reverse link Signature to StructuralSignature--><g class="link" data-entity-1="ent0002" data-entity-2="ent0003" data-link-type="composition" data-source-line="21" id="lnk9"><path codeLine="21" d="M646.6434,381.9933 C675.4334,423.3733 703.25,463.3729 730.41,502.4129" fill="none" id="Signature-backto-StructuralSignature" style="stroke:#1A1D24;stroke-width:1;"/><polygon fill="#1A1D24" points="639.79,372.1429,639.9332,379.3526,646.6434,381.9933,646.5002,374.7836,639.79,372.1429" style="stroke:#1A1D24;stroke-width:1;stroke-linejoin:miter;stroke-miterlimit:10;"/></g><!--reverse link Signature to BehavioralSignature--><g class="link" data-entity-1="ent0002" data-entity-2="ent0004" data-link-type="composition" data-source-line="22" id="lnk10"><path codeLine="22" d="M521.3577,381.9941 C508.1277,401.0141 500.5,411.9729 486.08,432.6929" fill="none" id="Signature-backto-BehavioralSignature" style="stroke:#1A1D24;stroke-width:1;"/><polygon fill="#1A1D24" points="528.21,372.1429,521.5001,374.7844,521.3577,381.9941,528.0676,379.3526,528.21,372.1429" style="stroke:#1A1D24;stroke-width:1;stroke-linejoin:miter;stroke-miterlimit:10;"/></g><!--reverse link Signature to QcmReliability--><g class="link" data-entity-1="ent0002" data-entity-2="ent0006" data-link-type="composition" data-source-line="23" id="lnk11"><path codeLine="23" d="M786.4663,363.9831 C839.0563,385.0931 884.17,405.6129 934,432.9429 C978.02,457.0829 1023.92,489.6729 1059.47,516.7829" fill="none" id="Signature-backto-QcmReliability" style="stroke:#1A1D24;stroke-width:1;"/><polygon fill="#1A1D24" points="775.33,359.5129,779.4081,365.4601,786.4663,363.9831,782.3882,358.0359,775.33,359.5129" style="stroke:#1A1D24;stroke-width:1;stroke-linejoin:miter;stroke-miterlimit:10;"/></g><!--reverse link BehavioralSignature to DiagnosticRunEntry--><g class="link" data-entity-1="ent0004" data-entity-2="ent0005" data-link-type="composition" data-source-line="24" id="lnk12"><path codeLine="24" d="M392,717.2329 C392,738.1629 392,747.0729 392,765.9229" fill="none" id="BehavioralSignature-backto-DiagnosticRunEntry" style="stroke:#1A1D24;stroke-width:1;"/><polygon fill="#1A1D24" points="392,705.2329,388,711.2329,392,717.2329,396,711.2329,392,705.2329" style="stroke:#1A1D24;stroke-width:1;stroke-linejoin:miter;stroke-miterlimit:10;"/><text fill="#000000" font-family="'Inter, Helvetica, sans-serif'" font-size="12" lengthAdjust="spacing" textLength="30.9026" x="360.506" y="755.237">many</text></g><!--link STORE to Signature--><g class="link" data-entity-1="ent0007" data-entity-2="ent0002" data-link-type="dependency" data-source-line="25" id="lnk13"><path codeLine="25" d="M174.26,99.9929 C233.14,127.2829 323.2339,169.0497 406.7239,207.7597" fill="none" id="STORE-to-Signature" style="stroke:#1A1D24;stroke-width:1;stroke-dasharray:7,7;"/><polygon fill="#1A1D24" points="411.26,209.8629,404.7775,202.4482,406.7239,207.7597,401.4124,209.7061,411.26,209.8629" style="stroke:#1A1D24;stroke-width:1;stroke-linejoin:miter;stroke-miterlimit:10;"/><text fill="#000000" font-family="'Inter, Helvetica, sans-serif'" font-size="12" lengthAdjust="spacing" textLength="89.1284" x="269" y="142.5676">serialise / parse</text></g><!--link STORE to DISK--><g class="link" data-entity-1="ent0007" data-entity-2="ent0008" data-link-type="association" data-source-line="26" id="lnk14"><path codeLine="26" d="M112.46,99.9929 C105.77,139.1729 93.24,212.4929 85.86,255.6829" fill="none" id="STORE-DISK" style="stroke:#1A1D24;stroke-width:1;"/><text fill="#000000" font-family="'Inter, Helvetica, sans-serif'" font-size="12" lengthAdjust="spacing" textLength="32.3344" x="109" y="142.5676">JSON</text></g><g class="legend" data-source-line="3"><rect fill="none" height="98.7144" rx="4" ry="4" style="stroke:#000000;stroke-width:1;" width="467.4382" x="1138.6745" y="950.9429"/><text fill="#000000" font-family="'Inter, Helvetica, sans-serif'" font-size="14" lengthAdjust="spacing" textLength="47.6469" x="1147.6119" y="971.5051">symbol</text><text fill="#000000" font-family="'Inter, Helvetica, sans-serif'" font-size="14" lengthAdjust="spacing" textLength="56.4564" x="1207.3694" y="971.5051">meaning</text><rect fill="#FFFFFF" height="16.9429" style="stroke:none;stroke-width:1;" width="59.7575" x="1143.6745" y="974.8858"/><text fill="#000000" font-family="'Inter, Helvetica, sans-serif'" font-size="14" font-weight="700" lengthAdjust="spacing" textLength="31.8177" x="1143.6745" y="988.448">rung</text><text fill="#000000" font-family="'Inter, Helvetica, sans-serif'" font-size="14" lengthAdjust="spacing" textLength="3.9374" x="1175.4921" y="988.448">&#160;</text><text fill="#000000" font-family="'Inter, Helvetica, sans-serif'" font-size="14" lengthAdjust="spacing" textLength="252.6122" x="1207.3694" y="988.448">real staircase climb (passes recorded)</text><rect fill="#FFFDF6" height="16.9429" style="stroke:none;stroke-width:1;" width="59.7575" x="1143.6745" y="991.8287"/><text fill="#000000" font-family="'Inter, Helvetica, sans-serif'" font-size="14" font-weight="700" lengthAdjust="spacing" textLength="32.812" x="1143.6745" y="1005.3909">prior</text><text fill="#000000" font-family="'Inter, Helvetica, sans-serif'" font-size="14" lengthAdjust="spacing" textLength="3.9374" x="1176.4865" y="1005.3909">&#160;</text><text fill="#000000" font-family="'Inter, Helvetica, sans-serif'" font-size="14" lengthAdjust="spacing" textLength="356.6956" x="1207.3694" y="1005.3909">low-confidence QCM/branch prior (Dyy/D12 discount)</text><rect fill="#E6DFD2" height="16.9429" style="stroke:none;stroke-width:1;" width="59.7575" x="1143.6745" y="1008.7715"/><text fill="#000000" font-family="'Inter, Helvetica, sans-serif'" font-size="14" font-weight="700" lengthAdjust="spacing" textLength="34.6415" x="1143.6745" y="1022.3338">none</text><text fill="#000000" font-family="'Inter, Helvetica, sans-serif'" font-size="14" lengthAdjust="spacing" textLength="3.9374" x="1178.3159" y="1022.3338">&#160;</text><text fill="#000000" font-family="'Inter, Helvetica, sans-serif'" font-size="14" lengthAdjust="spacing" textLength="314.2589" x="1207.3694" y="1022.3338">never measured (D8.B: leave blank, never zero)</text><text fill="#000000" font-family="'Inter, Helvetica, sans-serif'" font-size="14" lengthAdjust="spacing" textLength="51.8826" x="1147.6119" y="1039.2767">scheme</text><text fill="#000000" font-family="'Inter, Helvetica, sans-serif'" font-size="14" lengthAdjust="spacing" textLength="389.8058" x="1207.3694" y="1039.2767">`beta-laplace-v1` (current) or `breaking-rung-v0` (legacy)</text><line style="stroke:#000000;stroke-width:1;" x1="1143.6745" x2="1601.1127" y1="957.9429" y2="957.9429"/><line style="stroke:#000000;stroke-width:1;" x1="1143.6745" x2="1601.1127" y1="974.8858" y2="974.8858"/><line style="stroke:#000000;stroke-width:1;" x1="1143.6745" x2="1601.1127" y1="991.8287" y2="991.8287"/><line style="stroke:#000000;stroke-width:1;" x1="1143.6745" x2="1601.1127" y1="1008.7715" y2="1008.7715"/><line style="stroke:#000000;stroke-width:1;" x1="1143.6745" x2="1601.1127" y1="1025.7144" y2="1025.7144"/><line style="stroke:#000000;stroke-width:1;" x1="1143.6745" x2="1601.1127" y1="1042.6573" y2="1042.6573"/><line style="stroke:#000000;stroke-width:1;" x1="1143.6745" x2="1143.6745" y1="957.9429" y2="1042.6573"/><line style="stroke:#000000;stroke-width:1;" x1="1203.432" x2="1203.432" y1="957.9429" y2="1042.6573"/><line style="stroke:#000000;stroke-width:1;" x1="1601.1127" x2="1601.1127" y1="957.9429" y2="1042.6573"/></g><?plantuml-src ZLJRRjf047ttLqpoagIAYPhs2KMHdCIjQBaqc5JAardiCOoox5gxQn1l-OX-GpyiNzBn0eKWe7q1rZDpzfmpnvoGocIL8pGQL-dgjxsoRY6nGTLK1YTx6oIEKUNBZk0C7lhFaEbfgIqQU7lz1Mw2a4bXBUHOa297MbcGD4CWnGCR9D_5tqPNZjGuT8iIhGTkGAGMe1dAG4vYRCIKSOK3XPXR1d4Q31PeK6LOtsWHx4JmE9mF4nehuIg3mqiOtk54p4WR8RSVlxt-lc0KEz6Lp66u5Zhqv9Ee4qCfZ2CXlIA5C-PXC4TcRB0H773ci9uWSEGaGm_wQTBwseq6J_qu7RG6xRZsy0SQIzPvCPOOjhxr1Kl7ZabI22FCHCKQoPtPjI6XBJ6ZWZ8u5uoHK-7zS9jjJ6aySRN8EQEkn2TEcnhFkr8Pc9DZ4rmjd46q2dEoBv0B9qR2uaK3XXvECV0GbWQ8vKRdthjQyyIZh22y2U5wQLET-_t0EqzWRLzPEGjLVRu4gs5U0zGwDndoMmNE0J_K6ivdP2iXvGBO9kKe4_AotXNB3IrpbamvM4wUlZSx6VJuintTnUrJ41RyUN_hGolvljLP7-7cfY29jxT1y3T7y24C8N6colYqbQ-TZZq9tEbupAPzb2H69CajWZq3lcs7PUUfFKWxKVVv51xORQKjsz6lLAoSMGHU7iVp5ZOWpPtyzUDsciJzLjHk9V5gWk_nUflmBUbrWq1fnylpGTB5FYtDfiquKZOjqQGIHH70pZNTte2DZwClQVlZiUBriUAdWFzqe6RpNvoSBYbBCyqlhXZZFxZTztuUfEPhrqTgduxKFk-I7cddzBHclRFplHYFzvs3l7pj-aXjox0_?></g></svg>