<svg xmlns="http://www.w3.org/2000/svg" xmlns:xlink="http://www.w3.org/1999/xlink" contentStyleType="text/css" data-diagram-type="STATE" height="1249px" preserveAspectRatio="none" style="width:905px;height:1249px;background:#F4EEE3;" version="1.1" viewBox="0 0 905 1249" width="905px" zoomAndPan="magnify"><?plantuml 1.2026.4?><defs/><g><rect fill="#F4EEE3" height="1249" style="stroke:none;stroke-width:1;" width="905" x="0" y="0"/><g class="title" data-source-line="3"><text fill="#000000" font-family="'Inter, Helvetica, sans-serif'" font-size="14" font-weight="700" lengthAdjust="spacing" textLength="413.3911" x="242.7179" y="23.5623">State machine &#8212; Signature.characterization_state lifecycle</text></g><g class="entity" data-qualified-name="NotCharacterized" data-source-line="25" id="ent0001"><path d="M279.37,154.9429 L532.4387,154.9429 A4,4 0 0 1 536.4387,158.9429 L536.4387,179.4652 L275.37,179.4652 L275.37,158.9429 A4,4 0 0 1 279.37,154.9429" fill="#F1F1F1"/><rect fill="none" height="461.626" rx="4" ry="4" style="stroke:#181818;stroke-width:0.5;" width="261.0687" x="275.37" y="154.9429"/><line style="stroke:#181818;stroke-width:0.5;" x1="275.37" x2="536.4387" y1="179.4652" y2="179.4652"/><text fill="#000000" font-family="'Inter, Helvetica, sans-serif'" font-size="12" lengthAdjust="spacing" textLength="102.0145" x="354.8971" y="171.5676">Not characterized</text><g class="entity" data-qualified-name="NotCharacterized.description" data-source-line="26" id="ent0002"><rect fill="#F1F1F1" height="412.1037" rx="4" ry="4" style="stroke:#181818;stroke-width:0.5;" width="225.0687" x="287.37" y="191.4652"/><line style="stroke:#181818;stroke-width:0.5;" x1="287.37" x2="512.4387" y1="215.9876" y2="215.9876"/><text fill="#000000" font-family="'Inter, Helvetica, sans-serif'" font-size="12" lengthAdjust="spacing" textLength="63.4245" x="368.1921" y="208.0899">description</text><text fill="#000000" font-family="'Inter, Helvetica, sans-serif'" font-size="12" lengthAdjust="spacing" textLength="157.0528" x="292.37" y="232.6123">sidecar `modelMeta` exists</text><text fill="#000000" font-family="'Inter, Helvetica, sans-serif'" font-size="12" lengthAdjust="spacing" textLength="139.6498" x="292.37" y="247.1347">(possibly with autoTags)</text><text fill="#000000" font-family="'Inter, Helvetica, sans-serif'" font-size="12" lengthAdjust="spacing" textLength="135.7977" x="292.37" y="261.657">but no `signature` field.</text><text fill="#000000" font-family="'Inter, Helvetica, sans-serif'" font-size="12" lengthAdjust="spacing" textLength="169.5979" x="292.37" y="276.1794">For routing: D9 &#8658; INELIGIBLE.</text><text fill="#000000" font-family="'Inter, Helvetica, sans-serif'" font-size="12" lengthAdjust="spacing" textLength="151.803" x="292.37" y="290.7017">characterizeRunner active.</text><text fill="#000000" font-family="'Inter, Helvetica, sans-serif'" font-size="12" lengthAdjust="spacing" textLength="160.922" x="292.37" y="305.2241">listRunning() shows the chat</text><text fill="#000000" font-family="'Inter, Helvetica, sans-serif'" font-size="12" lengthAdjust="spacing" textLength="177.8819" x="292.37" y="319.7465">process; characterization_state</text><text fill="#000000" font-family="'Inter, Helvetica, sans-serif'" font-size="12" lengthAdjust="spacing" textLength="146.911" x="292.37" y="334.2688">on disk still null (no partial</text><text fill="#000000" font-family="'Inter, Helvetica, sans-serif'" font-size="12" lengthAdjust="spacing" textLength="42.3398" x="292.37" y="348.7912">writes).</text><text fill="#000000" font-family="'Inter, Helvetica, sans-serif'" font-size="12" lengthAdjust="spacing" textLength="117.2697" x="292.37" y="363.3135">routing-eligible (D9).</text><text fill="#000000" font-family="'Inter, Helvetica, sans-serif'" font-size="12" lengthAdjust="spacing" textLength="161.2118" x="292.37" y="377.8359">All required behavioral fields</text><text fill="#000000" font-family="'Inter, Helvetica, sans-serif'" font-size="12" lengthAdjust="spacing" textLength="155.212" x="292.37" y="392.3582">present: `scores_per_axis`,</text><text fill="#000000" font-family="'Inter, Helvetica, sans-serif'" font-size="12" lengthAdjust="spacing" textLength="205.0687" x="292.37" y="406.8806">`scores_per_leaf`, `branch_scores`.</text><text fill="#000000" font-family="'Inter, Helvetica, sans-serif'" font-size="12" lengthAdjust="spacing" textLength="195.8132" x="292.37" y="421.403">models.route ranks this candidate.</text><text fill="#000000" font-family="'Inter, Helvetica, sans-serif'" font-size="12" lengthAdjust="spacing" textLength="128.8433" x="292.37" y="435.9253">routing-eligible (D9) iff</text><text fill="#000000" font-family="'Inter, Helvetica, sans-serif'" font-size="12" lengthAdjust="spacing" textLength="177.1319" x="292.37" y="450.4477">the core scores_per_axis is set.</text><text fill="#000000" font-family="'Inter, Helvetica, sans-serif'" font-size="12" lengthAdjust="spacing" textLength="141.0305" x="292.37" y="464.97">Missing optional fields &#8658;</text><text fill="#000000" font-family="'Inter, Helvetica, sans-serif'" font-size="12" lengthAdjust="spacing" textLength="189.5065" x="292.37" y="479.4924">degraded confidence but ranked.</text><text fill="#000000" font-family="'Inter, Helvetica, sans-serif'" font-size="12" lengthAdjust="spacing" textLength="109.9404" x="292.37" y="494.0147">routing INELIGIBLE.</text><text fill="#000000" font-family="'Inter, Helvetica, sans-serif'" font-size="12" lengthAdjust="spacing" textLength="153.9165" x="292.37" y="508.5371">Shown in radar with a clear</text><text fill="#000000" font-family="'Inter, Helvetica, sans-serif'" font-size="12" lengthAdjust="spacing" textLength="170.2798" x="292.37" y="523.0595">banner. User re-characterizes</text><text fill="#000000" font-family="'Inter, Helvetica, sans-serif'" font-size="12" lengthAdjust="spacing" textLength="104.5542" x="292.37" y="537.5818">to leave this state.</text><text fill="#000000" font-family="'Inter, Helvetica, sans-serif'" font-size="12" lengthAdjust="spacing" textLength="165.9503" x="292.37" y="552.1042">Pseudo-state: hash on disk &#8800;</text><text fill="#000000" font-family="'Inter, Helvetica, sans-serif'" font-size="12" lengthAdjust="spacing" textLength="141.985" x="292.37" y="566.6265">current file hash. Routing</text><text fill="#000000" font-family="'Inter, Helvetica, sans-serif'" font-size="12" lengthAdjust="spacing" textLength="148.428" x="292.37" y="581.1489">still uses old signature but</text><text fill="#000000" font-family="'Inter, Helvetica, sans-serif'" font-size="12" lengthAdjust="spacing" textLength="178.2227" x="292.37" y="595.6713">UI prompts re-characterization.</text></g></g><g class="entity" data-qualified-name="Running" data-source-line="31" id="ent0003"><rect fill="#F1F1F1" height="50" rx="4" ry="4" style="stroke:#181818;stroke-width:0.5;" width="143.5764" x="333.87" y="774.4429"/><line style="stroke:#181818;stroke-width:0.5;" x1="333.87" x2="477.4464" y1="798.9652" y2="798.9652"/><text fill="#000000" font-family="'Inter, Helvetica, sans-serif'" font-size="12" lengthAdjust="spacing" textLength="123.5764" x="343.87" y="791.0676">Running (in-progress)</text></g><g class="entity" data-qualified-name="Complete" data-source-line="39" id="ent0004"><rect fill="#FFFDF6" height="50" rx="4" ry="4" style="stroke:#181818;stroke-width:0.5;" width="72.7884" x="331.37" y="1010.9429"/><line style="stroke:#181818;stroke-width:0.5;" x1="331.37" x2="404.1584" y1="1035.4652" y2="1035.4652"/><text fill="#000000" font-family="'Inter, Helvetica, sans-serif'" font-size="12" lengthAdjust="spacing" textLength="52.7884" x="341.37" y="1027.5676">complete</text></g><g class="entity" data-qualified-name="Incomplete" data-source-line="43" id="ent0005"><rect fill="#F1F1F1" height="50" rx="4" ry="4" style="stroke:#181818;stroke-width:0.5;" width="82.6575" x="81.37" y="1010.9429"/><line style="stroke:#181818;stroke-width:0.5;" x1="81.37" x2="164.0275" y1="1035.4652" y2="1035.4652"/><text fill="#000000" font-family="'Inter, Helvetica, sans-serif'" font-size="12" lengthAdjust="spacing" textLength="62.6575" x="91.37" y="1027.5676">incomplete</text></g><g class="entity" data-qualified-name="Quarantined" data-source-line="47" id="ent0006"><rect fill="#E6DFD2" height="50" rx="4" ry="4" style="stroke:#181818;stroke-width:0.5;" width="87.9756" x="674.87" y="1010.9429"/><line style="stroke:#181818;stroke-width:0.5;" x1="674.87" x2="762.8456" y1="1035.4652" y2="1035.4652"/><text fill="#000000" font-family="'Inter, Helvetica, sans-serif'" font-size="12" lengthAdjust="spacing" textLength="67.9756" x="684.87" y="1027.5676">quarantined</text></g><g class="entity" data-qualified-name="Stale" data-source-line="57" id="ent0007"><rect fill="#F1F1F1" height="50" rx="4" ry="4" style="stroke:#181818;stroke-width:0.5;" width="50" x="342.87" y="1174.9429"/><line style="stroke:#181818;stroke-width:0.5;" x1="342.87" x2="392.87" y1="1199.4652" y2="1199.4652"/><text fill="#000000" font-family="'Inter, Helvetica, sans-serif'" font-size="12" lengthAdjust="spacing" textLength="28.6186" x="353.5607" y="1191.5676">Stale</text></g><g class="start_entity" data-qualified-name=".start." data-source-line="23" id="ent0008"><ellipse cx="405.87" cy="53.9429" fill="#222222" rx="10" ry="10" style="stroke:#222222;stroke-width:1;"/></g><g class="entity" data-qualified-name="GMN20" data-source-line="64" id="ent0021"><path d="M616.87,1169.9429 L616.87,1230.0323 A4,4 0 0 0 620.87,1234.0323 L816.5756,1234.0323 A4,4 0 0 0 820.5756,1230.0323 L820.5756,1175.9429 L810.5756,1165.9429 L722.87,1165.9429 L718.87,1061.1929 L714.87,1165.9429 L620.87,1165.9429 A4,4 0 0 0 616.87,1169.9429" fill="#FFFDF6" style="stroke:#C68A3A;stroke-width:0.5;"/><path d="M810.5756,1165.9429 L810.5756,1173.9429 A2,2 0 0 0 812.5756,1175.9429 L820.5756,1175.9429 L810.5756,1165.9429" fill="#FFFDF6" style="stroke:#C68A3A;stroke-width:0.5;"/><text fill="#0E1014" font-family="'Inter, Helvetica, sans-serif'" font-size="12" lengthAdjust="spacing" textLength="182.7056" x="622.87" y="1182.5676">Quarantined remains permanent</text><text fill="#0E1014" font-family="'Inter, Helvetica, sans-serif'" font-size="12" lengthAdjust="spacing" textLength="127.224" x="622.87" y="1197.0899">until the user explicitly</text><text fill="#0E1014" font-family="'Inter, Helvetica, sans-serif'" font-size="12" lengthAdjust="spacing" textLength="161.0073" x="622.87" y="1211.6123">re-characterizes &#8212; even if a</text><text fill="#0E1014" font-family="'Inter, Helvetica, sans-serif'" font-size="12" lengthAdjust="spacing" textLength="133.4114" x="622.87" y="1226.1347">routing query comes in.</text></g><g class="entity" data-qualified-name="GMN23" data-source-line="71" id="ent0024"><path d="M512.87,725.9429 L512.87,795.4429 L478.14,799.4429 L512.87,803.4429 L512.87,873.1665 A4,4 0 0 0 516.87,877.1665 L886.8268,877.1665 A4,4 0 0 0 890.8268,873.1665 L890.8268,731.9429 L880.8268,721.9429 L516.87,721.9429 A4,4 0 0 0 512.87,725.9429" fill="#FFFDF6" style="stroke:#C68A3A;stroke-width:0.5;"/><path d="M880.8268,721.9429 L880.8268,729.9429 A2,2 0 0 0 882.8268,731.9429 L890.8268,731.9429 L880.8268,721.9429" fill="#FFFDF6" style="stroke:#C68A3A;stroke-width:0.5;"/><text fill="#0E1014" font-family="'Inter, Helvetica, sans-serif'" font-size="12" lengthAdjust="spacing" textLength="117.764" x="518.87" y="738.5676">Side-effects on disk:</text><text fill="#0E1014" font-family="'Inter, Helvetica, sans-serif'" font-size="12" lengthAdjust="spacing" textLength="219.2331" x="518.87" y="753.0899">&#8226; `archiveServerLog(...)` at run START</text><text fill="#0E1014" font-family="'Inter, Helvetica, sans-serif'" font-size="12" lengthAdjust="spacing" textLength="156.1153" x="518.87" y="767.6123">(renames previous `.log` &#8594;</text><text fill="#0E1014" font-family="'Inter, Helvetica, sans-serif'" font-size="12" lengthAdjust="spacing" textLength="153.729" x="518.87" y="782.1347">`.&lt;ISO&gt;.log`, fresh session</text><text fill="#0E1014" font-family="'Inter, Helvetica, sans-serif'" font-size="12" lengthAdjust="spacing" textLength="168.3026" x="518.87" y="796.657">begins clean &#8212; 2026-05-24).</text><text fill="#0E1014" font-family="'Inter, Helvetica, sans-serif'" font-size="12" lengthAdjust="spacing" textLength="193.7337" x="518.87" y="811.1794">&#8226; `appendServerLog(.log, chunk)`</text><text fill="#0E1014" font-family="'Inter, Helvetica, sans-serif'" font-size="12" lengthAdjust="spacing" textLength="202.0176" x="518.87" y="825.7017">on every llama-server stdout/stderr</text><text fill="#0E1014" font-family="'Inter, Helvetica, sans-serif'" font-size="12" lengthAdjust="spacing" textLength="207.5061" x="518.87" y="840.2241">chunk (hooked in runners/launch.ts).</text><text fill="#0E1014" font-family="'Inter, Helvetica, sans-serif'" font-size="12" lengthAdjust="spacing" textLength="239.4144" x="518.87" y="854.7465">&#8226; On Quarantined / Incomplete-with-error:</text><text fill="#0E1014" font-family="'Inter, Helvetica, sans-serif'" font-size="12" lengthAdjust="spacing" textLength="356.9568" x="518.87" y="869.2688">`appendErrorLog(.ts/&lt;file&gt;.error, reason)` with ISO timestamp.</text></g><!--link *start* to NotCharacterized--><g class="link" data-entity-1="ent0008" data-entity-2="ent0001" data-link-type="dependency" data-source-line="23" id="lnk9"><path d="M405.87,64.1129 C405.87,79.8329 405.87,109.1829 405.87,149.8129" fill="none" id="*start*-to-NotCharacterized" style="stroke:#1A1D24;stroke-width:1;"/><polygon fill="#1A1D24" points="405.87,154.8129,409.87,145.8129,405.87,149.8129,401.87,145.8129,405.87,154.8129" style="stroke:#1A1D24;stroke-width:1;stroke-linejoin:miter;stroke-miterlimit:10;"/><text fill="#000000" font-family="'Inter, Helvetica, sans-serif'" font-size="12" lengthAdjust="spacing" textLength="74.3504" x="406.87" y="106.5676">model added</text><text fill="#000000" font-family="'Inter, Helvetica, sans-serif'" font-size="12" lengthAdjust="spacing" textLength="48.1351" x="419.9776" y="121.0899">to folder</text></g><!--link NotCharacterized to Running--><g class="link" data-entity-1="ent0001" data-entity-2="ent0003" data-link-type="dependency" data-source-line="29" id="lnk10"><path d="M405.87,617.0529 C405.87,681.0429 405.87,736.8429 405.87,769.2329" fill="none" id="NotCharacterized-to-Running" style="stroke:#1A1D24;stroke-width:1;"/><polygon fill="#1A1D24" points="405.87,774.2329,409.87,765.2329,405.87,769.2329,401.87,765.2329,405.87,774.2329" style="stroke:#1A1D24;stroke-width:1;stroke-linejoin:miter;stroke-miterlimit:10;"/><text fill="#000000" font-family="'Inter, Helvetica, sans-serif'" font-size="12" lengthAdjust="spacing" textLength="59.9644" x="423.8554" y="659.5676">user clicks</text><text fill="#000000" font-family="'Inter, Helvetica, sans-serif'" font-size="12" lengthAdjust="spacing" textLength="79.498" x="414.0886" y="674.0899">"Caract&#233;riser"</text><text fill="#000000" font-family="'Inter, Helvetica, sans-serif'" font-size="12" lengthAdjust="spacing" textLength="93.9351" x="406.87" y="688.6123">OR MCP request</text></g><!--link Running to Complete--><g class="link" data-entity-1="ent0003" data-entity-2="ent0004" data-link-type="dependency" data-source-line="35" id="lnk11"><path d="M401.95,824.6529 C394.65,869.7129 379.8604,960.9774 372.5704,1005.9274" fill="none" id="Running-to-Complete" style="stroke:#1A1D24;stroke-width:1;"/><polygon fill="#1A1D24" points="371.77,1010.8629,377.1592,1002.6193,372.5704,1005.9274,369.2624,1001.3386,371.77,1010.8629" style="stroke:#1A1D24;stroke-width:1;stroke-linejoin:miter;stroke-miterlimit:10;"/><text fill="#000000" font-family="'Inter, Helvetica, sans-serif'" font-size="12" lengthAdjust="spacing" textLength="111.1847" x="389.87" y="934.0676">R5 + tree + freegen</text><text fill="#000000" font-family="'Inter, Helvetica, sans-serif'" font-size="12" lengthAdjust="spacing" textLength="64.1404" x="413.3921" y="948.5899">(if seamed)</text><text fill="#000000" font-family="'Inter, Helvetica, sans-serif'" font-size="12" lengthAdjust="spacing" textLength="87.4921" x="401.7163" y="963.1123">ALL succeeded</text></g><!--link Complete to Running--><g class="link" data-entity-1="ent0004" data-entity-2="ent0003" data-link-type="dependency" data-source-line="51" id="lnk14"><path d="M331.33,1022.2529 C312.67,1013.6929 291.67,1000.3629 280.87,980.9429 C264.88,952.2029 267.08,936.8029 280.87,906.9429 C297.43,871.0929 328.4313,845.5467 357.2913,827.1867" fill="none" id="Complete-to-Running" style="stroke:#1A1D24;stroke-width:1;"/><polygon fill="#1A1D24" points="361.51,824.5029,351.7693,825.9588,357.2913,827.1867,356.0634,832.7087,361.51,824.5029" style="stroke:#1A1D24;stroke-width:1;stroke-linejoin:miter;stroke-miterlimit:10;"/><text fill="#000000" font-family="'Inter, Helvetica, sans-serif'" font-size="12" lengthAdjust="spacing" textLength="87.9694" x="281.87" y="941.0676">Re-caract&#233;riser</text><text fill="#000000" font-family="'Inter, Helvetica, sans-serif'" font-size="12" lengthAdjust="spacing" textLength="79.0718" x="286.3188" y="955.5899">(with confirm)</text></g><!--link Running to Incomplete--><g class="link" data-entity-1="ent0003" data-entity-2="ent0005" data-link-type="dependency" data-source-line="36" id="lnk12"><path d="M333.78,811.1129 C274.85,823.7129 194,850.6129 147.87,906.9429 C123.63,936.5529 120.3806,977.8543 121.0506,1005.9043" fill="none" id="Running-to-Incomplete" style="stroke:#1A1D24;stroke-width:1;"/><polygon fill="#1A1D24" points="121.17,1010.9029,124.9539,1001.8099,121.0506,1005.9043,116.9562,1002.001,121.17,1010.9029" style="stroke:#1A1D24;stroke-width:1;stroke-linejoin:miter;stroke-miterlimit:10;"/><text fill="#000000" font-family="'Inter, Helvetica, sans-serif'" font-size="12" lengthAdjust="spacing" textLength="35.3002" x="187.5281" y="934.0676">R5 OK</text><text fill="#000000" font-family="'Inter, Helvetica, sans-serif'" font-size="12" lengthAdjust="spacing" textLength="112.6165" x="148.87" y="948.5899">but tree OR freegen</text><text fill="#000000" font-family="'Inter, Helvetica, sans-serif'" font-size="12" lengthAdjust="spacing" textLength="87.9864" x="161.185" y="963.1123">failed (isolated)</text></g><!--link Incomplete to Running--><g class="link" data-entity-1="ent0005" data-entity-2="ent0003" data-link-type="dependency" data-source-line="52" id="lnk15"><path d="M81.26,1022.9129 C60.75,1014.6429 37.89,1001.3829 25.87,980.9429 C9.21,952.5929 6,933.1529 25.87,906.9429 C62.92,858.0829 228.9972,826.2372 328.5272,811.0472" fill="none" id="Incomplete-to-Running" style="stroke:#1A1D24;stroke-width:1;"/><polygon fill="#1A1D24" points="333.47,810.2929,323.9695,807.6965,328.5272,811.0472,325.1765,815.6049,333.47,810.2929" style="stroke:#1A1D24;stroke-width:1;stroke-linejoin:miter;stroke-miterlimit:10;"/><text fill="#000000" font-family="'Inter, Helvetica, sans-serif'" font-size="12" lengthAdjust="spacing" textLength="87.9694" x="26.87" y="948.5676">Re-caract&#233;riser</text></g><!--link Running to Quarantined--><g class="link" data-entity-1="ent0003" data-entity-2="ent0006" data-link-type="dependency" data-source-line="37" id="lnk13"><path d="M426.77,824.5129 C443.39,842.0029 468.22,864.6729 494.87,876.9429 C574.53,913.6029 625.73,847.1529 689.87,906.9429 C718.37,933.5129 721.8964,976.6953 720.9864,1005.7653" fill="none" id="Running-to-Quarantined" style="stroke:#1A1D24;stroke-width:1;"/><polygon fill="#1A1D24" points="720.83,1010.7629,725.1096,1001.8924,720.9864,1005.7653,717.1136,1001.6421,720.83,1010.7629" style="stroke:#1A1D24;stroke-width:1;stroke-linejoin:miter;stroke-miterlimit:10;"/><text fill="#000000" font-family="'Inter, Helvetica, sans-serif'" font-size="12" lengthAdjust="spacing" textLength="80.5888" x="762.9456" y="919.5676">R5 itself failed</text><text fill="#000000" font-family="'Inter, Helvetica, sans-serif'" font-size="12" lengthAdjust="spacing" textLength="146.4678" x="730.0061" y="934.0899">(e.g. model crashed boot)</text><text fill="#000000" font-family="'Inter, Helvetica, sans-serif'" font-size="12" lengthAdjust="spacing" textLength="137.5874" x="734.4464" y="948.6123">OR catastrophic IO error</text><text fill="#000000" font-family="'Inter, Helvetica, sans-serif'" font-size="12" lengthAdjust="spacing" textLength="164.7401" x="720.87" y="963.1347">OR non-chat model detected</text><text fill="#000000" font-family="'Inter, Helvetica, sans-serif'" font-size="12" lengthAdjust="spacing" textLength="146.7747" x="729.8527" y="977.657">(3-tier filter, 2026-05-24)</text></g><!--link Quarantined to Running--><g class="link" data-entity-1="ent0006" data-entity-2="ent0003" data-link-type="dependency" data-source-line="53" id="lnk16"><path d="M674.59,1019.9229 C643.36,1008.6129 605.01,993.0429 592.87,980.9429 C567.49,955.6429 585.97,932.5129 560.87,906.9429 C538.3,883.9529 522.03,894.2829 494.87,876.9429 C471.17,861.8129 450.7908,844.2005 433.6908,828.0105" fill="none" id="Quarantined-to-Running" style="stroke:#1A1D24;stroke-width:1;"/><polygon fill="#1A1D24" points="430.06,824.5729,433.8454,833.6652,433.6908,828.0105,439.3456,827.8559,430.06,824.5729" style="stroke:#1A1D24;stroke-width:1;stroke-linejoin:miter;stroke-miterlimit:10;"/><text fill="#000000" font-family="'Inter, Helvetica, sans-serif'" font-size="12" lengthAdjust="spacing" textLength="87.9694" x="593.87" y="948.5676">Re-caract&#233;riser</text></g><!--link Complete to Stale--><g class="link" data-entity-1="ent0004" data-entity-2="ent0007" data-link-type="dependency" data-source-line="54" id="lnk17"><path d="M367.87,1061.1929 C367.87,1091.8229 367.87,1139.2029 367.87,1169.7929" fill="none" id="Complete-to-Stale" style="stroke:#1A1D24;stroke-width:1;"/><polygon fill="#1A1D24" points="367.87,1174.7929,371.87,1165.7929,367.87,1169.7929,363.87,1165.7929,367.87,1174.7929" style="stroke:#1A1D24;stroke-width:1;stroke-linejoin:miter;stroke-miterlimit:10;"/><text fill="#000000" font-family="'Inter, Helvetica, sans-serif'" font-size="12" lengthAdjust="spacing" textLength="90.7136" x="371.1967" y="1103.5676">modelHash drift</text><text fill="#000000" font-family="'Inter, Helvetica, sans-serif'" font-size="12" lengthAdjust="spacing" textLength="68.4698" x="382.3185" y="1118.0899">(file edited /</text><text fill="#000000" font-family="'Inter, Helvetica, sans-serif'" font-size="12" lengthAdjust="spacing" textLength="95.3669" x="368.87" y="1132.6123">shards changed)</text></g><!--link Incomplete to Stale--><g class="link" data-entity-1="ent0005" data-entity-2="ent0007" data-link-type="dependency" data-source-line="55" id="lnk18"><path d="M157.49,1061.1129 C186.72,1081.3829 229.77,1110.9429 267.87,1135.9429 C293.09,1152.4929 318.0706,1168.1679 338.3906,1180.7679" fill="none" id="Incomplete-to-Stale" style="stroke:#1A1D24;stroke-width:1;"/><polygon fill="#1A1D24" points="342.64,1183.4029,337.0991,1175.2605,338.3906,1180.7679,332.8832,1182.0595,342.64,1183.4029" style="stroke:#1A1D24;stroke-width:1;stroke-linejoin:miter;stroke-miterlimit:10;"/><text fill="#000000" font-family="'Inter, Helvetica, sans-serif'" font-size="12" lengthAdjust="spacing" textLength="90.7136" x="268.87" y="1118.0676">modelHash drift</text></g><!--link Stale to Running--><g class="link" data-entity-1="ent0007" data-entity-2="ent0003" data-link-type="dependency" data-source-line="61" id="lnk19"><path d="M393.07,1190.4029 C417.23,1180.9029 452.89,1163.2129 472.87,1135.9429 C514.73,1078.8129 501.59,1051.2829 509.87,980.9429 C513.72,948.2829 522.28,937.4029 509.87,906.9429 C495.98,872.8329 469.2679,846.7839 444.8179,827.6539" fill="none" id="Stale-to-Running" style="stroke:#1A1D24;stroke-width:1;"/><polygon fill="#1A1D24" points="440.88,824.5729,445.5034,833.2691,444.8179,827.6539,450.4331,826.9685,440.88,824.5729" style="stroke:#1A1D24;stroke-width:1;stroke-linejoin:miter;stroke-miterlimit:10;"/><text fill="#000000" font-family="'Inter, Helvetica, sans-serif'" font-size="12" lengthAdjust="spacing" textLength="87.9694" x="508.87" y="1040.5676">Re-caract&#233;riser</text></g><?plantuml-src ZLNHajiq57ttLrpQ1rgcpcxJxGAPJcTCx7G3ZaDjxmCmZ5Trb4HTMJAIl6NfT8QFu2Vu3lw4B-5AIHfd4vFu8PEvrZawvzmh-GicIjxCAFHwPyNwlpxJvfxJ7cigxdc66KuXozCY6x-9XqK-pkF8yxw4p113DH15mImfS6Qe8Xpk26-mB0NCcBu59k2cP_JPgpdZz7NllPRYfeVeN16XcM5IQ2YbKbJNKip0I2YNH94IoTWVD6s4e0hn81jJoefgn29wAAkQ20JZzeRDSRc63uePGmK8-hknF5QKPWj1J8CIly-coG2H0FwE82uNDx3p_FldNu24x0xXL6lSP02SauhucgexgXp9yKUR6Mh6A6TKAIX9RMNCR2uKIUvFP9aGgerYnA-880l4SzA8SdaY-WcfQofclXJy_XbSm8Hz1qfYtz3Kqzw1D5xzXCza4eRvSbbLMl-y2kYaxMnkDLN-EZJiJBcq8Jxfd_Sl_VENVl_YwU14uKuakfqhMQ50roHYLYqrsF8JQUGSA2cNE18VscFb_3yxaUEMqbfZxDh0y_FDH6Zh52eve_nGZDXngMuUXcCOpgyXLOt6R50E3cxjYLhUoqO9F6CkblOv2JW_TIIai6SLVwo3EM4SnzBD0dB0EnJeq_bSAkFE4zK38Ak3x7HYaZYyUAp4BPvyK8teUTulN_qAllyQ4cc6BKqp6BIkZJIAYyaqnDyW3AFGyxJjC3pQhiYAP9eFhuBq4H2zJ_RH0y2xgLIijktR8G-ZRBX1UvyyRmzivTcxX8d5dghhB4eBXpoaARrEad7oncdQC1oLiWPPAHkCLM1lBKvnXuSIWZWkfZ_ih1sBicjrdaPHCGh6yGxWROE6XS7ExWV_zZf8WoGV9wtWD_JEsMTbZqUZKJYwF6vnE9ty64TvP3sk6PdOuMmvECesJWxm_RPrv0ZR3Xz7b-4ex1zdRbj7wiz6_syYqiYE0rfCHkDquhMCxA9IwfTkolxvMp7yE7XjXKUMxWZ1JodVx_DLa5qLOJeUvGyb75jVP5VJDD_Eirtk8bm1ZuQMvK7iEh5QVyIA9oJkyauQWxSINhcj572ZBJKUqCZreuYVTxteTxruqVNYmiCl75W9Qo6ABPR6wbXBtWVYyJmemTNx7VKN7VMBZlhBZlfbH_thZlet7VLlktoTRmFv3m00?></g></svg>