<svg xmlns="http://www.w3.org/2000/svg" xmlns:xlink="http://www.w3.org/1999/xlink" contentStyleType="text/css" data-diagram-type="STATE" height="1317px" preserveAspectRatio="none" style="width:786px;height:1317px;background:#F4EEE3;" version="1.1" viewBox="0 0 786 1317" width="786px" zoomAndPan="magnify"><?plantuml 1.2026.4?><defs/><g><rect fill="#F4EEE3" height="1317" style="stroke:none;stroke-width:1;" width="786" x="0" y="0"/><g class="title" data-source-line="3"><text fill="#000000" font-family="'Inter, Helvetica, sans-serif'" font-size="14" font-weight="700" lengthAdjust="spacing" textLength="427.5101" x="175.884" y="23.5623">State machine &#8212; managed embedder lifecycle (server mode)</text></g><g class="entity" data-qualified-name="Idle" data-source-line="20" id="ent0001"><path d="M484.5,124.9429 L767.2781,124.9429 A4,4 0 0 1 771.2781,128.9429 L771.2781,149.4652 L480.5,149.4652 L480.5,128.9429 A4,4 0 0 1 484.5,124.9429" fill="#F1F1F1"/><rect fill="none" height="577.8049" rx="4" ry="4" style="stroke:#181818;stroke-width:0.5;" width="290.7781" x="480.5" y="124.9429"/><line style="stroke:#181818;stroke-width:0.5;" x1="480.5" x2="771.2781" y1="149.4652" y2="149.4652"/><text fill="#000000" font-family="'Inter, Helvetica, sans-serif'" font-size="12" lengthAdjust="spacing" textLength="115.6846" x="568.0468" y="141.5676">Idle (not configured)</text><g class="entity" data-qualified-name="Idle.description" data-source-line="21" id="ent0002"><rect fill="#F1F1F1" height="528.2825" rx="4" ry="4" style="stroke:#181818;stroke-width:0.5;" width="254.7781" x="492.5" y="161.4652"/><line style="stroke:#181818;stroke-width:0.5;" x1="492.5" x2="747.2781" y1="185.9876" y2="185.9876"/><text fill="#000000" font-family="'Inter, Helvetica, sans-serif'" font-size="12" lengthAdjust="spacing" textLength="63.4245" x="588.1768" y="178.0899">description</text><text fill="#000000" font-family="'Inter, Helvetica, sans-serif'" font-size="12" lengthAdjust="spacing" textLength="163.5299" x="497.5" y="202.6123">routingEmbedderPath empty</text><text fill="#000000" font-family="'Inter, Helvetica, sans-serif'" font-size="12" lengthAdjust="spacing" textLength="214.1877" x="497.5" y="217.1347">AND routingEmbedderBaseUrl empty.</text><text fill="#000000" font-family="'Inter, Helvetica, sans-serif'" font-size="12" lengthAdjust="spacing" textLength="180.3874" x="497.5" y="231.657">Routing falls back to R5 silently.</text><text fill="#000000" font-family="'Inter, Helvetica, sans-serif'" font-size="12" lengthAdjust="spacing" textLength="137.7408" x="497.5" y="246.1794">check listRunning() for a</text><text fill="#000000" font-family="'Inter, Helvetica, sans-serif'" font-size="12" lengthAdjust="spacing" textLength="118.6333" x="497.5" y="260.7017">running process with</text><text fill="#000000" font-family="'Inter, Helvetica, sans-serif'" font-size="12" lengthAdjust="spacing" textLength="148.4622" x="497.5" y="275.2241">`launchedBy: 'embedder'`</text><text fill="#000000" font-family="'Inter, Helvetica, sans-serif'" font-size="12" lengthAdjust="spacing" textLength="148.4792" x="497.5" y="289.7465">+ same canonical filePath.</text><text fill="#000000" font-family="'Inter, Helvetica, sans-serif'" font-size="12" lengthAdjust="spacing" textLength="113.3835" x="497.5" y="304.2688">return {baseUrl, pid,</text><text fill="#000000" font-family="'Inter, Helvetica, sans-serif'" font-size="12" lengthAdjust="spacing" textLength="93.9692" x="497.5" y="318.7912">source:'reused'}.</text><text fill="#000000" font-family="'Inter, Helvetica, sans-serif'" font-size="12" lengthAdjust="spacing" textLength="164.6719" x="497.5" y="333.3135">Caller proceeds immediately.</text><text fill="#000000" font-family="'Inter, Helvetica, sans-serif'" font-size="12" lengthAdjust="spacing" textLength="117.1845" x="497.5" y="347.8359">launchModelByPath(</text><text fill="#000000" font-family="'Inter, Helvetica, sans-serif'" font-size="12" lengthAdjust="spacing" textLength="136.5136" x="504.2498" y="362.3582">launchedBy:'embedder',</text><text fill="#000000" font-family="'Inter, Helvetica, sans-serif'" font-size="12" lengthAdjust="spacing" textLength="151.6666" x="504.2498" y="376.8806">customArgs:'--embedding'</text><text fill="#000000" font-family="'Inter, Helvetica, sans-serif'" font-size="12" lengthAdjust="spacing" textLength="4.3465" x="497.5" y="391.403">)</text><text fill="#000000" font-family="'Inter, Helvetica, sans-serif'" font-size="12" lengthAdjust="spacing" textLength="51.9021" x="497.5" y="405.9253">loop until</text><text fill="#000000" font-family="'Inter, Helvetica, sans-serif'" font-size="12" lengthAdjust="spacing" textLength="133.3602" x="497.5" y="420.4477">&#8226; response.ok &#8658; Ready</text><text fill="#000000" font-family="'Inter, Helvetica, sans-serif'" font-size="12" lengthAdjust="spacing" textLength="144.0304" x="497.5" y="434.97">&#8226; entry.exited &#8658; Crashed</text><text fill="#000000" font-family="'Inter, Helvetica, sans-serif'" font-size="12" lengthAdjust="spacing" textLength="151.1552" x="497.5" y="449.4924">&#8226; 60 s deadline &#8658; Timeout</text><text fill="#000000" font-family="'Inter, Helvetica, sans-serif'" font-size="12" lengthAdjust="spacing" textLength="234.7781" x="497.5" y="464.0147">Polls every 1 s with 4 s budget per probe.</text><text fill="#000000" font-family="'Inter, Helvetica, sans-serif'" font-size="12" lengthAdjust="spacing" textLength="113.3835" x="497.5" y="478.5371">return {baseUrl, pid,</text><text fill="#000000" font-family="'Inter, Helvetica, sans-serif'" font-size="12" lengthAdjust="spacing" textLength="106.6678" x="497.5" y="493.0595">source:'launched'}.</text><text fill="#000000" font-family="'Inter, Helvetica, sans-serif'" font-size="12" lengthAdjust="spacing" textLength="172.4785" x="497.5" y="507.5818">Visible in RunningModelsPanel</text><text fill="#000000" font-family="'Inter, Helvetica, sans-serif'" font-size="12" lengthAdjust="spacing" textLength="144.0645" x="497.5" y="522.1042">under "embedder" group.</text><text fill="#000000" font-family="'Inter, Helvetica, sans-serif'" font-size="12" lengthAdjust="spacing" textLength="100.2418" x="497.5" y="536.6265">stopProcess(pid),</text><text fill="#000000" font-family="'Inter, Helvetica, sans-serif'" font-size="12" lengthAdjust="spacing" textLength="60.6973" x="497.5" y="551.1489">return null,</text><text fill="#000000" font-family="'Inter, Helvetica, sans-serif'" font-size="12" lengthAdjust="spacing" textLength="127.4797" x="497.5" y="565.6713">clear in-flight promise.</text><text fill="#000000" font-family="'Inter, Helvetica, sans-serif'" font-size="12" lengthAdjust="spacing" textLength="169.6831" x="497.5" y="580.1936">Caller silently falls back to R5.</text><text fill="#000000" font-family="'Inter, Helvetica, sans-serif'" font-size="12" lengthAdjust="spacing" textLength="100.2418" x="497.5" y="594.716">stopProcess(pid),</text><text fill="#000000" font-family="'Inter, Helvetica, sans-serif'" font-size="12" lengthAdjust="spacing" textLength="60.6973" x="497.5" y="609.2383">return null,</text><text fill="#000000" font-family="'Inter, Helvetica, sans-serif'" font-size="12" lengthAdjust="spacing" textLength="127.4797" x="497.5" y="623.7607">clear in-flight promise.</text><text fill="#000000" font-family="'Inter, Helvetica, sans-serif'" font-size="12" lengthAdjust="spacing" textLength="169.6831" x="497.5" y="638.283">Caller silently falls back to R5.</text><text fill="#000000" font-family="'Inter, Helvetica, sans-serif'" font-size="12" lengthAdjust="spacing" textLength="92.6738" x="497.5" y="652.8054">log + return null,</text><text fill="#000000" font-family="'Inter, Helvetica, sans-serif'" font-size="12" lengthAdjust="spacing" textLength="127.4797" x="497.5" y="667.3278">clear in-flight promise.</text><text fill="#000000" font-family="'Inter, Helvetica, sans-serif'" font-size="12" lengthAdjust="spacing" textLength="169.6831" x="497.5" y="681.8501">Caller silently falls back to R5.</text></g></g><g class="entity" data-qualified-name="Probing" data-source-line="26" id="ent0003"><rect fill="#F1F1F1" height="50" rx="4" ry="4" style="stroke:#181818;stroke-width:0.5;" width="111.3783" x="361.5" y="807.9429"/><line style="stroke:#181818;stroke-width:0.5;" x1="361.5" x2="472.8783" y1="832.4652" y2="832.4652"/><text fill="#000000" font-family="'Inter, Helvetica, sans-serif'" font-size="12" lengthAdjust="spacing" textLength="91.3783" x="371.5" y="824.5676">Probing existing</text></g><g class="entity" data-qualified-name="Reused" data-source-line="33" id="ent0004"><rect fill="#FFFDF6" height="50" rx="4" ry="4" style="stroke:#181818;stroke-width:0.5;" width="62.3398" x="194" y="951.4429"/><line style="stroke:#181818;stroke-width:0.5;" x1="194" x2="256.3398" y1="975.9652" y2="975.9652"/><text fill="#000000" font-family="'Inter, Helvetica, sans-serif'" font-size="12" lengthAdjust="spacing" textLength="42.3398" x="204" y="968.0676">Reused</text></g><g class="entity" data-qualified-name="Launching" data-source-line="37" id="ent0005"><rect fill="#F1F1F1" height="50" rx="4" ry="4" style="stroke:#181818;stroke-width:0.5;" width="78.4815" x="453" y="951.4429"/><line style="stroke:#181818;stroke-width:0.5;" x1="453" x2="531.4815" y1="975.9652" y2="975.9652"/><text fill="#000000" font-family="'Inter, Helvetica, sans-serif'" font-size="12" lengthAdjust="spacing" textLength="58.4815" x="463" y="968.0676">Launching</text></g><g class="entity" data-qualified-name="Waiting" data-source-line="44" id="ent0006"><rect fill="#F1F1F1" height="50" rx="4" ry="4" style="stroke:#181818;stroke-width:0.5;" width="147.207" x="397.5" y="1103.9429"/><line style="stroke:#181818;stroke-width:0.5;" x1="397.5" x2="544.707" y1="1128.4652" y2="1128.4652"/><text fill="#000000" font-family="'Inter, Helvetica, sans-serif'" font-size="12" lengthAdjust="spacing" textLength="127.207" x="407.5" y="1120.5676">Waiting for /v1/models</text></g><g class="entity" data-qualified-name="Ready" data-source-line="52" id="ent0007"><rect fill="#FFFDF6" height="50" rx="4" ry="4" style="stroke:#181818;stroke-width:0.5;" width="55.5559" x="209" y="1253.9429"/><line style="stroke:#181818;stroke-width:0.5;" x1="209" x2="264.5559" y1="1278.4652" y2="1278.4652"/><text fill="#000000" font-family="'Inter, Helvetica, sans-serif'" font-size="12" lengthAdjust="spacing" textLength="35.5559" x="219" y="1270.5676">Ready</text></g><g class="entity" data-qualified-name="Crashed" data-source-line="56" id="ent0008"><rect fill="#F1F1F1" height="50" rx="4" ry="4" style="stroke:#181818;stroke-width:0.5;" width="67.7601" x="644" y="1253.9429"/><line style="stroke:#181818;stroke-width:0.5;" x1="644" x2="711.7601" y1="1278.4652" y2="1278.4652"/><text fill="#000000" font-family="'Inter, Helvetica, sans-serif'" font-size="12" lengthAdjust="spacing" textLength="47.7601" x="654" y="1270.5676">Crashed</text></g><g class="entity" data-qualified-name="TimedOut" data-source-line="60" id="ent0009"><rect fill="#F1F1F1" height="50" rx="4" ry="4" style="stroke:#181818;stroke-width:0.5;" width="77.2883" x="481.5" y="1253.9429"/><line style="stroke:#181818;stroke-width:0.5;" x1="481.5" x2="558.7883" y1="1278.4652" y2="1278.4652"/><text fill="#000000" font-family="'Inter, Helvetica, sans-serif'" font-size="12" lengthAdjust="spacing" textLength="57.2883" x="491.5" y="1270.5676">Timed out</text></g><g class="entity" data-qualified-name="Failed" data-source-line="64" id="ent0010"><rect fill="#F1F1F1" height="50" rx="4" ry="4" style="stroke:#181818;stroke-width:0.5;" width="53.9366" x="585" y="1103.9429"/><line style="stroke:#181818;stroke-width:0.5;" x1="585" x2="638.9366" y1="1128.4652" y2="1128.4652"/><text fill="#000000" font-family="'Inter, Helvetica, sans-serif'" font-size="12" lengthAdjust="spacing" textLength="33.9366" x="595" y="1120.5676">Failed</text></g><g class="start_entity" data-qualified-name=".start." data-source-line="18" id="ent0011"><ellipse cx="626" cy="53.9429" fill="#222222" rx="10" ry="10" style="stroke:#222222;stroke-width:1;"/></g><g class="entity" data-qualified-name="GMN26" data-source-line="75" id="ent0027"><path d="M143.5,1098.9429 L143.5,1159.0323 A4,4 0 0 0 147.5,1163.0323 L358.4097,1163.0323 A4,4 0 0 0 362.4097,1159.0323 L362.4097,1104.9429 L352.4097,1094.9429 L147.5,1094.9429 A4,4 0 0 0 143.5,1098.9429" fill="#FFFDF6" style="stroke:#C68A3A;stroke-width:0.5;"/><path d="M352.4097,1094.9429 L352.4097,1102.9429 A2,2 0 0 0 354.4097,1104.9429 L362.4097,1104.9429 L352.4097,1094.9429" fill="#FFFDF6" style="stroke:#C68A3A;stroke-width:1;"/><text fill="#0E1014" font-family="'Inter, Helvetica, sans-serif'" font-size="12" lengthAdjust="spacing" textLength="197.9097" x="149.5" y="1111.5676">Concurrent callers share the SAME</text><text fill="#0E1014" font-family="'Inter, Helvetica, sans-serif'" font-size="12" lengthAdjust="spacing" textLength="184.4271" x="149.5" y="1126.0899">in-flight promise &#8212; never spawn</text><text fill="#0E1014" font-family="'Inter, Helvetica, sans-serif'" font-size="12" lengthAdjust="spacing" textLength="163.5469" x="149.5" y="1140.6123">twice. This is the only critical</text><text fill="#0E1014" font-family="'Inter, Helvetica, sans-serif'" font-size="12" lengthAdjust="spacing" textLength="184.2567" x="149.5" y="1155.1347">section in embedderLifecycle.ts.</text></g><!--link *start* to Idle--><g class="link" data-entity-1="ent0011" data-entity-2="ent0001" data-link-type="dependency" data-source-line="18" id="lnk12"><path d="M626,64.1529 C626,75.7529 626,92.5029 626,119.6929" fill="none" id="*start*-to-Idle" style="stroke:#1A1D24;stroke-width:1;"/><polygon fill="#1A1D24" points="626,124.6929,630,115.6929,626,119.6929,622,115.6929,626,124.6929" style="stroke:#1A1D24;stroke-width:1;stroke-linejoin:miter;stroke-miterlimit:10;"/></g><!--link Idle to Probing--><g class="link" data-entity-1="ent0001" data-entity-2="ent0003" data-link-type="dependency" data-source-line="24" id="lnk13"><path d="M480.36,594.3429 C453.07,637.3629 428.57,684.8329 414,732.9429 C406.53,757.6329 408.0652,782.4333 411.2652,802.8333" fill="none" id="Idle-to-Probing" style="stroke:#1A1D24;stroke-width:1;"/><polygon fill="#1A1D24" points="412.04,807.7729,414.597,798.2617,411.2652,802.8333,406.6936,799.5015,412.04,807.7729" style="stroke:#1A1D24;stroke-width:1;stroke-linejoin:miter;stroke-miterlimit:10;"/><text fill="#000000" font-family="'Inter, Helvetica, sans-serif'" font-size="12" lengthAdjust="spacing" textLength="184.2056" x="415" y="745.5676">ensureEmbedderReady(filePath)</text><text fill="#000000" font-family="'Inter, Helvetica, sans-serif'" font-size="12" lengthAdjust="spacing" textLength="142.9736" x="435.616" y="760.0899">called by routeByVectors</text><text fill="#000000" font-family="'Inter, Helvetica, sans-serif'" font-size="12" lengthAdjust="spacing" textLength="111.7813" x="451.2122" y="774.6123">or characterizeTree</text></g><!--link Probing to Reused--><g class="link" data-entity-1="ent0003" data-entity-2="ent0004" data-link-type="dependency" data-source-line="30" id="lnk14"><path d="M384.43,857.9429 C348.59,884.3629 295.4253,923.547 260.1653,949.527" fill="none" id="Probing-to-Reused" style="stroke:#1A1D24;stroke-width:1;"/><polygon fill="#1A1D24" points="256.14,952.4929,265.7583,950.3745,260.1653,949.527,261.0129,943.934,256.14,952.4929" style="stroke:#1A1D24;stroke-width:1;stroke-linejoin:miter;stroke-miterlimit:10;"/><text fill="#000000" font-family="'Inter, Helvetica, sans-serif'" font-size="12" lengthAdjust="spacing" textLength="62.4359" x="340" y="908.0676">found alive</text></g><!--link Probing to Launching--><g class="link" data-entity-1="ent0003" data-entity-2="ent0005" data-link-type="dependency" data-source-line="31" id="lnk15"><path d="M429.72,857.9429 C443.51,883.9629 463.0595,920.8345 476.8695,946.9045" fill="none" id="Probing-to-Launching" style="stroke:#1A1D24;stroke-width:1;"/><polygon fill="#1A1D24" points="479.21,951.3229,478.5317,941.4974,476.8695,946.9045,471.4624,945.2423,479.21,951.3229" style="stroke:#1A1D24;stroke-width:1;stroke-linejoin:miter;stroke-miterlimit:10;"/><text fill="#000000" font-family="'Inter, Helvetica, sans-serif'" font-size="12" lengthAdjust="spacing" textLength="58.2087" x="490.9112" y="900.5676">not found,</text><text fill="#000000" font-family="'Inter, Helvetica, sans-serif'" font-size="12" lengthAdjust="spacing" textLength="114.0312" x="463" y="915.0899">set in-flight promise</text></g><!--link Launching to Waiting--><g class="link" data-entity-1="ent0005" data-entity-2="ent0006" data-link-type="dependency" data-source-line="41" id="lnk16"><path d="M452.77,995.7329 C446.82,998.4929 440.75,1001.3029 435,1003.9429 C405.72,1017.4029 386.44,1006.8529 369,1033.9429 C351.14,1061.6829 377.2015,1084.2938 409.3815,1101.5138" fill="none" id="Launching-to-Waiting" style="stroke:#1A1D24;stroke-width:1;"/><polygon fill="#1A1D24" points="413.79,1103.8729,407.7419,1096.0998,409.3815,1101.5138,403.9675,1103.1534,413.79,1103.8729" style="stroke:#1A1D24;stroke-width:1;stroke-linejoin:miter;stroke-miterlimit:10;"/><text fill="#000000" font-family="'Inter, Helvetica, sans-serif'" font-size="12" lengthAdjust="spacing" textLength="57.4588" x="380.6617" y="1046.5676">spawn OK</text><text fill="#000000" font-family="'Inter, Helvetica, sans-serif'" font-size="12" lengthAdjust="spacing" textLength="78.7821" x="370" y="1061.0899">(pid received)</text></g><!--link Launching to Failed--><g class="link" data-entity-1="ent0005" data-entity-2="ent0010" data-link-type="dependency" data-source-line="42" id="lnk17"><path d="M483.97,1001.8129 C479.36,1020.6429 476.65,1046.5129 489,1064.9429 C508.53,1094.0829 530.99,1078.5429 562,1094.9429 C569.63,1098.9829 573.3921,1101.1261 580.6321,1105.8861" fill="none" id="Launching-to-Failed" style="stroke:#1A1D24;stroke-width:1;"/><polygon fill="#1A1D24" points="584.81,1108.6329,579.4872,1100.3463,580.6321,1105.8861,575.0923,1107.031,584.81,1108.6329" style="stroke:#1A1D24;stroke-width:1;stroke-linejoin:miter;stroke-miterlimit:10;"/><text fill="#000000" font-family="'Inter, Helvetica, sans-serif'" font-size="12" lengthAdjust="spacing" textLength="109.6165" x="490" y="1046.5676">spawn returned !ok</text><text fill="#000000" font-family="'Inter, Helvetica, sans-serif'" font-size="12" lengthAdjust="spacing" textLength="55.3452" x="517.1357" y="1061.0899">OR no pid</text></g><!--link Waiting to Ready--><g class="link" data-entity-1="ent0006" data-entity-2="ent0007" data-link-type="dependency" data-source-line="48" id="lnk18"><path d="M432.88,1154.0529 C385.87,1183.7829 311.2859,1230.9605 269.3959,1257.4505" fill="none" id="Waiting-to-Ready" style="stroke:#1A1D24;stroke-width:1;"/><polygon fill="#1A1D24" points="265.17,1260.1229,274.9146,1258.6934,269.3959,1257.4505,270.6388,1251.9319,265.17,1260.1229" style="stroke:#1A1D24;stroke-width:1;stroke-linejoin:miter;stroke-miterlimit:10;"/><text fill="#000000" font-family="'Inter, Helvetica, sans-serif'" font-size="12" lengthAdjust="spacing" textLength="42.5955" x="370" y="1213.0676">200 OK</text></g><!--link Waiting to Crashed--><g class="link" data-entity-1="ent0006" data-entity-2="ent0008" data-link-type="dependency" data-source-line="49" id="lnk19"><path d="M504.72,1154.0529 C543.21,1181.5729 601.7427,1223.4148 640.2327,1250.9348" fill="none" id="Waiting-to-Crashed" style="stroke:#1A1D24;stroke-width:1;"/><polygon fill="#1A1D24" points="644.3,1253.8429,639.3053,1245.3545,640.2327,1250.9348,634.6524,1251.8622,644.3,1253.8429" style="stroke:#1A1D24;stroke-width:1;stroke-linejoin:miter;stroke-miterlimit:10;"/><text fill="#000000" font-family="'Inter, Helvetica, sans-serif'" font-size="12" lengthAdjust="spacing" textLength="83.657" x="601" y="1205.5676">process exited</text><text fill="#000000" font-family="'Inter, Helvetica, sans-serif'" font-size="12" lengthAdjust="spacing" textLength="65.5722" x="610.0424" y="1220.0899">during boot</text></g><!--link Waiting to TimedOut--><g class="link" data-entity-1="ent0006" data-entity-2="ent0009" data-link-type="dependency" data-source-line="50" id="lnk20"><path d="M465.02,1154.0529 C461.38,1173.6129 458.96,1201.5329 468,1223.9429 C472.53,1235.1729 477.084,1241.8378 485.564,1250.2678" fill="none" id="Waiting-to-TimedOut" style="stroke:#1A1D24;stroke-width:1;"/><polygon fill="#1A1D24" points="489.11,1253.7929,485.5473,1244.611,485.564,1250.2678,479.9072,1250.2845,489.11,1253.7929" style="stroke:#1A1D24;stroke-width:1;stroke-linejoin:miter;stroke-miterlimit:10;"/><text fill="#000000" font-family="'Inter, Helvetica, sans-serif'" font-size="12" lengthAdjust="spacing" textLength="76.3617" x="469" y="1213.0676">60 s deadline</text></g><!--link Ready to Idle--><g class="link" data-entity-1="ent0007" data-entity-2="ent0001" data-link-type="dependency" data-source-line="68" id="lnk21"><path d="M208.67,1273.4729 C146.99,1261.9529 6,1225.2029 6,1129.9429 C6,831.9429 6,831.9429 6,831.9429 C6,604.4429 292.1309,494.2012 475.4109,446.5412" fill="none" id="Ready-to-Idle" style="stroke:#1A1D24;stroke-width:1;"/><polygon fill="#1A1D24" points="480.25,445.2829,470.533,443.6767,475.4109,446.5412,472.5464,451.4192,480.25,445.2829" style="stroke:#1A1D24;stroke-width:1;stroke-linejoin:miter;stroke-miterlimit:10;"/><text fill="#000000" font-family="'Inter, Helvetica, sans-serif'" font-size="12" lengthAdjust="spacing" textLength="151.445" x="7" y="973.5676">stopManagedEmbedders()</text><text fill="#000000" font-family="'Inter, Helvetica, sans-serif'" font-size="12" lengthAdjust="spacing" textLength="146.7576" x="9.3437" y="988.0899">or process killed manually</text></g><!--link Crashed to Idle--><g class="link" data-entity-1="ent0008" data-entity-2="ent0001" data-link-type="dependency" data-source-line="69" id="lnk22"><path d="M704.52,1253.4429 C731.06,1226.1329 768,1179.2629 768,1129.9429 C768,831.9429 768,831.9429 768,831.9429 C768,789.3029 762.4735,750.3159 751.9335,707.8159" fill="none" id="Crashed-to-Idle" style="stroke:#1A1D24;stroke-width:1;"/><polygon fill="#1A1D24" points="750.73,702.9629,749.014,712.6611,751.9335,707.8159,756.7788,710.7354,750.73,702.9629" style="stroke:#1A1D24;stroke-width:1;stroke-linejoin:miter;stroke-miterlimit:10;"/></g><!--link TimedOut to Idle--><g class="link" data-entity-1="ent0009" data-entity-2="ent0001" data-link-type="dependency" data-source-line="70" id="lnk23"><path d="M558.5,1269.0429 C599.07,1258.9029 659.23,1241.4729 675,1223.9429 C703.7,1192.0529 697,1172.8529 697,1129.9429 C697,831.9429 697,831.9429 697,831.9429 C697,789.9929 694.0927,750.9627 688.6027,707.9227" fill="none" id="TimedOut-to-Idle" style="stroke:#1A1D24;stroke-width:1;"/><polygon fill="#1A1D24" points="687.97,702.9629,685.1409,712.3967,688.6027,707.9227,693.0766,711.3844,687.97,702.9629" style="stroke:#1A1D24;stroke-width:1;stroke-linejoin:miter;stroke-miterlimit:10;"/></g><!--link Failed to Idle--><g class="link" data-entity-1="ent0010" data-entity-2="ent0001" data-link-type="dependency" data-source-line="71" id="lnk24"><path d="M612.47,1103.8729 C613.72,1040.3929 617.122,867.3319 620.242,708.1519" fill="none" id="Failed-to-Idle" style="stroke:#1A1D24;stroke-width:1;"/><polygon fill="#1A1D24" points="620.34,703.1529,616.1644,712.0728,620.242,708.1519,624.1629,712.2295,620.34,703.1529" style="stroke:#1A1D24;stroke-width:1;stroke-linejoin:miter;stroke-miterlimit:10;"/></g><!--link Reused to Reused--><g class="link" data-entity-1="ent0004" data-entity-2="ent0004" data-link-type="dependency" data-source-line="72" id="lnk25"><path d="M256.24,963.6829 C274.24,961.0829 291,965.3329 291,976.4429 C291,987.5529 279.1886,992.5177 261.1886,989.9177" fill="none" id="Reused-to-Reused" style="stroke:#1A1D24;stroke-width:1;"/><polygon fill="#1A1D24" points="256.24,989.2029,264.5757,994.4484,261.1886,989.9177,265.7194,986.5306,256.24,989.2029" style="stroke:#1A1D24;stroke-width:1;stroke-linejoin:miter;stroke-miterlimit:10;"/><text fill="#000000" font-family="'Inter, Helvetica, sans-serif'" font-size="12" lengthAdjust="spacing" textLength="66.612" x="330.0247" y="966.5676">subsequent</text><text fill="#000000" font-family="'Inter, Helvetica, sans-serif'" font-size="12" lengthAdjust="spacing" textLength="132.6614" x="297" y="981.0899">ensureEmbedderReady</text><text fill="#000000" font-family="'Inter, Helvetica, sans-serif'" font-size="12" lengthAdjust="spacing" textLength="73.6174" x="326.522" y="995.6123">(idempotent)</text></g><!--link Launching to GMN26--><g class="link" data-entity-1="ent0005" data-entity-2="ent0027" data-link-type="association" data-source-line="75" id="lnk28"><path d="M452.92,996.0629 C446.95,998.7829 440.83,1001.4829 435,1003.9429 C400.39,1018.5329 387.99,1014.2729 356,1033.9429 C328.78,1050.6829 302.25,1075.1529 282.93,1094.9229" fill="none" id="Launching-GMN26" style="stroke:#1A1D24;stroke-width:1;stroke-dasharray:7,7;"/></g><?plantuml-src bLLTRzis57tNhxZh7fmCiPrsGnyCR80_v5MeOdkId6nO1uEMhcqYDEcHb5EjAB2d_O1Xlx2_P9VwS9pL3RmdKoJFkUSSNj9VSPcAF4FeTBgBUcownXO2EppV2i-pt0g4E8aM_irW5as7YoH8Gj_pMX3XIc1g3TWDWb1hde9Q0MwNc6MeGxx2j4Y9o9eUxGPe0vVjbU3hZGN1SfbkOAVLbXk4xo5LCisrHfaMiCwPpcf8T_-okrKP2WCx9GINQzgiaMK5f1jCxw_WzJKOMERP6csDCLoWjB1YGYnPUWzA0fC5VNEHQuGBZJRNqe3CXRW2YNlKv46h1tFfjOWZJjKEUpJ53V3ANkn7jtu4Jed36vwv2aAmBMiRr8wXtQwiaqIYWTnW1ik2F5lKBBLyZw1LRfs3ttFK70qnqGGEYbkAKMbpsI5SGjM6OL2LQaYMkRWdlymH4VGFPZcPkcYo7WfEALywiPDfGYHbOeAm6oJ3p003Ovb5sB9qmoN2fp__0UURKgIKmEpOWtIxLkHjGmILiuEX3hv7oe5PmFUSJfm6BXMKcJjoDtGqLs1K-Q6aA9mAP9B0grnKrGb7QZu0pwYbFltrTrMMLBgn8wRXHzXHbbpkLLgQT974IFngkrEIGZVTndLdHnqAAwNBcbdEHBiCxR0LzXmVEfxtwpU_qUdy007LzRmgY1V7BHqlWb7elt11kJtmmGEWYv1glYk3xZsv02C_7fO0xwFdbViT-KohfJlRftiZFrpuatWU-LyeJ3-3OF9ZMRkXEADy3NCA6fGJ4M7PCPzh64_daz6Y7mQt_XD0MDx3qxgfbKhO5vH7_ZpsHwNmkkpNu_5uD7vzZluAxEIVv0xxyydmJPFBeyZFcQk7vCRr-w2OCRkvU2UXdiLiKFHQJRkqhjnAcXkhjdszDhtMqOrjlPENJirZAPVE7UFsT3Rnh7ytMKpV_WSmfYVcPFxL_Wa1JXk-wmT9OxUfUaQCDSmfRr1L6xZtiGUlhg-1IXul3JKpcvCI_P-3P36Oqljnl3_XMyockJq16FdzKHXC7ZkxB5itX1Fml_gXF_hbg1rgcILP8_aCcc7KZzyywQjIFz0pMr8Tt9p1bGGt_cWwJux8gkCjcUgJFeDdt0_2IbALIlCIdUgIP3hp6hk75-iW-Z1J5pzyr_VlsHSWdWzY_oVFaugSB9MbM-3UxaF_af5Z25r-lxw6Y_3bSukldblyzhd5xppt1-84UVy2?></g></svg>