<svg xmlns="http://www.w3.org/2000/svg" xmlns:xlink="http://www.w3.org/1999/xlink" contentStyleType="text/css" data-diagram-type="STATE" height="1810px" preserveAspectRatio="none" style="width:2029px;height:1810px;background:#F4EEE3;" version="1.1" viewBox="0 0 2029 1810" width="2029px" zoomAndPan="magnify"><?plantuml 1.2026.4?><defs/><g><rect fill="#F4EEE3" height="1810" style="stroke:none;stroke-width:1;" width="2029" x="0" y="0"/><g class="title" data-source-line="3"><text fill="#000000" font-family="'Inter, Helvetica, sans-serif'" font-size="14" font-weight="700" lengthAdjust="spacing" textLength="378.3517" x="822.1342" y="23.5623">State machine &#8212; sandbox provider dispatch (slice 2d)</text></g><!--cluster POSIX_STATE--><g class="cluster" data-qualified-name="POSIX_STATE" data-source-line="23" id="ent0004"><path d="M1136,697.4429 L1777,697.4429 A4,4 0 0 1 1781,701.4429 L1781,716.9652 L1132,716.9652 L1132,701.4429 A4,4 0 0 1 1136,697.4429" fill="#F1F1F1"/><rect fill="none" height="1099.5" rx="4" ry="4" style="stroke:#181818;stroke-width:0.5;" width="649" x="1132" y="697.4429"/><line style="stroke:#181818;stroke-width:0.5;" x1="1132" x2="1781" y1="716.9652" y2="716.9652"/><text fill="#000000" font-family="'Inter, Helvetica, sans-serif'" font-size="12" lengthAdjust="spacing" textLength="80.3502" x="1416.3249" y="713.0676">PosixSandbox</text></g><g class="entity" data-qualified-name="POSIX_STATE.POSIX_PROBE" data-source-line="24" id="ent0005"><rect fill="#F1F1F1" height="50" rx="4" ry="4" style="stroke:#181818;stroke-width:0.5;" width="163.2634" x="1393.5" y="1170.9429"/><line style="stroke:#181818;stroke-width:0.5;" x1="1393.5" x2="1556.7634" y1="1209.9876" y2="1209.9876"/><text fill="#000000" font-family="'Inter, Helvetica, sans-serif'" font-size="12" lengthAdjust="spacing" textLength="116.1959" x="1403.5" y="1187.5676">find python3/python</text><text fill="#000000" font-family="'Inter, Helvetica, sans-serif'" font-size="12" lengthAdjust="spacing" textLength="143.2634" x="1403.5" y="1202.0899">+ probe resource module</text></g><g class="entity" data-qualified-name="POSIX_STATE.POSIX_PREP" data-source-line="25" id="ent0006"><rect fill="#F1F1F1" height="50" rx="4" ry="4" style="stroke:#181818;stroke-width:0.5;" width="167.8144" x="1537" y="1296.9429"/><line style="stroke:#181818;stroke-width:0.5;" x1="1537" x2="1704.8144" y1="1335.9876" y2="1335.9876"/><text fill="#000000" font-family="'Inter, Helvetica, sans-serif'" font-size="12" lengthAdjust="spacing" textLength="131.9114" x="1547" y="1313.5676">mkdtemp + write script</text><text fill="#000000" font-family="'Inter, Helvetica, sans-serif'" font-size="12" lengthAdjust="spacing" textLength="147.8144" x="1547" y="1328.0899">(preamble + code + tests)</text></g><g class="entity" data-qualified-name="POSIX_STATE.POSIX_RUN" data-source-line="26" id="ent0007"><rect fill="#F1F1F1" height="63.5671" rx="4" ry="4" style="stroke:#181818;stroke-width:0.5;" width="106.9296" x="1567.5" y="1447.4429"/><line style="stroke:#181818;stroke-width:0.5;" x1="1567.5" x2="1674.4296" y1="1501.01" y2="1501.01"/><text fill="#000000" font-family="'Inter, Helvetica, sans-serif'" font-size="12" lengthAdjust="spacing" textLength="85.8046" x="1577.5" y="1464.0676">spawn -I -S -B,</text><text fill="#000000" font-family="'Inter, Helvetica, sans-serif'" font-size="12" lengthAdjust="spacing" textLength="86.9296" x="1577.5" y="1478.5899">detached pgrp,</text><text fill="#000000" font-family="'Inter, Helvetica, sans-serif'" font-size="12" lengthAdjust="spacing" textLength="59.8451" x="1577.5" y="1493.1123">empty env</text></g><g class="entity" data-qualified-name="POSIX_STATE.POSIX_WAIT" data-source-line="27" id="ent0008"><rect fill="#F1F1F1" height="50" rx="4" ry="4" style="stroke:#181818;stroke-width:0.5;" width="123.5314" x="1405" y="1581.9429"/><line style="stroke:#181818;stroke-width:0.5;" x1="1405" x2="1528.5314" y1="1620.9876" y2="1620.9876"/><text fill="#000000" font-family="'Inter, Helvetica, sans-serif'" font-size="12" lengthAdjust="spacing" textLength="84.049" x="1415" y="1598.5676">wait for close /</text><text fill="#000000" font-family="'Inter, Helvetica, sans-serif'" font-size="12" lengthAdjust="spacing" textLength="103.5314" x="1415" y="1613.0899">timeout / overflow</text></g><g class="entity" data-qualified-name="POSIX_STATE.POSIX_PASS" data-source-line="40" id="ent0009"><rect fill="#FFFDF6" height="50" rx="4" ry="4" style="stroke:#181818;stroke-width:0.5;" width="81.4132" x="1164.5" y="1722.9429"/><line style="stroke:#181818;stroke-width:0.5;" x1="1164.5" x2="1245.9132" y1="1747.4652" y2="1747.4652"/><text fill="#000000" font-family="'Inter, Helvetica, sans-serif'" font-size="12" lengthAdjust="spacing" textLength="61.4132" x="1174.5" y="1739.5676">{pass:true}</text></g><g class="entity" data-qualified-name="POSIX_STATE.POSIX_FAIL_EXIT" data-source-line="41" id="ent0010"><rect fill="#F1F1F1" height="50" rx="4" ry="4" style="stroke:#181818;stroke-width:0.5;" width="138.8379" x="1280.5" y="1722.9429"/><line style="stroke:#181818;stroke-width:0.5;" x1="1280.5" x2="1419.3379" y1="1761.9876" y2="1761.9876"/><text fill="#000000" font-family="'Inter, Helvetica, sans-serif'" font-size="12" lengthAdjust="spacing" textLength="64.8393" x="1290.5" y="1739.5676">{pass:false,</text><text fill="#000000" font-family="'Inter, Helvetica, sans-serif'" font-size="12" lengthAdjust="spacing" textLength="118.8379" x="1290.5" y="1754.0899">reason:exit-nonzero}</text></g><g class="entity" data-qualified-name="POSIX_STATE.POSIX_FAIL_TO" data-source-line="42" id="ent0011"><rect fill="#F1F1F1" height="50" rx="4" ry="4" style="stroke:#181818;stroke-width:0.5;" width="109.4523" x="1454.5" y="1722.9429"/><line style="stroke:#181818;stroke-width:0.5;" x1="1454.5" x2="1563.9523" y1="1761.9876" y2="1761.9876"/><text fill="#000000" font-family="'Inter, Helvetica, sans-serif'" font-size="12" lengthAdjust="spacing" textLength="64.8393" x="1464.5" y="1739.5676">{pass:false,</text><text fill="#000000" font-family="'Inter, Helvetica, sans-serif'" font-size="12" lengthAdjust="spacing" textLength="89.4523" x="1464.5" y="1754.0899">reason:timeout}</text></g><g class="entity" data-qualified-name="POSIX_STATE.POSIX_FAIL_OV" data-source-line="43" id="ent0012"><rect fill="#F1F1F1" height="50" rx="4" ry="4" style="stroke:#181818;stroke-width:0.5;" width="158.3715" x="1599" y="1722.9429"/><line style="stroke:#181818;stroke-width:0.5;" x1="1599" x2="1757.3715" y1="1761.9876" y2="1761.9876"/><text fill="#000000" font-family="'Inter, Helvetica, sans-serif'" font-size="12" lengthAdjust="spacing" textLength="64.8393" x="1609" y="1739.5676">{pass:false,</text><text fill="#000000" font-family="'Inter, Helvetica, sans-serif'" font-size="12" lengthAdjust="spacing" textLength="138.3715" x="1609" y="1754.0899">reason:output-overflow}</text></g><g class="entity" data-qualified-name="POSIX_STATE.POSIX_UNAVAIL" data-source-line="44" id="ent0013"><rect fill="#E6DFD2" height="50" rx="4" ry="4" style="stroke:#181818;stroke-width:0.5;" width="135.855" x="1396" y="1454.4429"/><line style="stroke:#181818;stroke-width:0.5;" x1="1396" x2="1531.855" y1="1493.4876" y2="1493.4876"/><text fill="#000000" font-family="'Inter, Helvetica, sans-serif'" font-size="12" lengthAdjust="spacing" textLength="32.8287" x="1406" y="1471.0676">throw</text><text fill="#000000" font-family="'Inter, Helvetica, sans-serif'" font-size="12" lengthAdjust="spacing" textLength="115.855" x="1406" y="1485.5899">SandboxUnavailable</text></g><g class="start_entity" data-qualified-name="POSIX_STATE..start.POSIX_STATE" data-source-line="29" id="ent0029"><ellipse cx="1475" cy="748.4429" fill="#222222" rx="10" ry="10" style="stroke:#222222;stroke-width:1;"/></g><g class="entity" data-qualified-name="Dispatch" data-source-line="11" id="ent0001"><path d="M626,124.9429 L857.8135,124.9429 A4,4 0 0 1 861.8135,128.9429 L861.8135,149.4652 L622,149.4652 L622,128.9429 A4,4 0 0 1 626,124.9429" fill="#F1F1F1"/><rect fill="none" height="156.6565" rx="4" ry="4" style="stroke:#181818;stroke-width:0.5;" width="239.8135" x="622" y="124.9429"/><line style="stroke:#181818;stroke-width:0.5;" x1="622" x2="861.8135" y1="149.4652" y2="149.4652"/><text fill="#000000" font-family="'Inter, Helvetica, sans-serif'" font-size="12" lengthAdjust="spacing" textLength="131.5364" x="676.1385" y="141.5676">getSandbox({enabled})</text><g class="entity" data-qualified-name="Dispatch.description" data-source-line="12" id="ent0002"><rect fill="#F1F1F1" height="107.1341" rx="4" ry="4" style="stroke:#181818;stroke-width:0.5;" width="203.8135" x="634" y="161.4652"/><line style="stroke:#181818;stroke-width:0.5;" x1="634" x2="837.8135" y1="185.9876" y2="185.9876"/><text fill="#000000" font-family="'Inter, Helvetica, sans-serif'" font-size="12" lengthAdjust="spacing" textLength="63.4245" x="704.1945" y="178.0899">description</text><text fill="#000000" font-family="'Inter, Helvetica, sans-serif'" font-size="12" lengthAdjust="spacing" textLength="183.8135" x="639" y="202.6123">Reads `params.enableSandbox`</text><text fill="#000000" font-family="'Inter, Helvetica, sans-serif'" font-size="12" lengthAdjust="spacing" textLength="136.0022" x="639" y="217.1347">and `process.platform`.</text><text fill="#000000" font-family="'Inter, Helvetica, sans-serif'" font-size="12" lengthAdjust="spacing" textLength="82.907" x="639" y="231.657">Always throws</text><text fill="#000000" font-family="'Inter, Helvetica, sans-serif'" font-size="12" lengthAdjust="spacing" textLength="115.855" x="639" y="246.1794">SandboxUnavailable</text><text fill="#000000" font-family="'Inter, Helvetica, sans-serif'" font-size="12" lengthAdjust="spacing" textLength="119.5538" x="639" y="260.7017">on runPythonTests().</text></g></g><g class="entity" data-qualified-name="UNSAFE_STATE" data-source-line="19" id="ent0003"><rect fill="#F1F1F1" height="50" rx="4" ry="4" style="stroke:#181818;stroke-width:0.5;" width="110.2534" x="7" y="723.4429"/><line style="stroke:#181818;stroke-width:0.5;" x1="7" x2="117.2534" y1="762.4876" y2="762.4876"/><text fill="#000000" font-family="'Inter, Helvetica, sans-serif'" font-size="12" lengthAdjust="spacing" textLength="90.2534" x="17" y="740.0676">UnsafeSandbox</text><text fill="#000000" font-family="'Inter, Helvetica, sans-serif'" font-size="12" lengthAdjust="spacing" textLength="62.112" x="17" y="754.5899">(opt-in off)</text></g><g class="entity" data-qualified-name="WIN_STATE" data-source-line="47" id="ent0014"><path d="M156,386.9429 L833.9068,386.9429 A4,4 0 0 1 837.9068,390.9429 L837.9068,411.4652 L152,411.4652 L152,390.9429 A4,4 0 0 1 156,386.9429" fill="#F1F1F1"/><rect fill="none" height="722.5224" rx="4" ry="4" style="stroke:#181818;stroke-width:0.5;" width="685.9068" x="152" y="386.9429"/><line style="stroke:#181818;stroke-width:0.5;" x1="152" x2="837.9068" y1="411.4652" y2="411.4652"/><text fill="#000000" font-family="'Inter, Helvetica, sans-serif'" font-size="12" lengthAdjust="spacing" textLength="101.861" x="444.0229" y="403.5676">WindowsSandbox</text><g class="entity" data-qualified-name="WIN_STATE.WIN_PROBE" data-source-line="48" id="ent0015"><rect fill="#F1F1F1" height="50" rx="4" ry="4" style="stroke:#181818;stroke-width:0.5;" width="154.4682" x="591.5" y="479.4652"/><line style="stroke:#181818;stroke-width:0.5;" x1="591.5" x2="745.9682" y1="503.9876" y2="503.9876"/><text fill="#000000" font-family="'Inter, Helvetica, sans-serif'" font-size="12" lengthAdjust="spacing" textLength="134.4682" x="601.5" y="496.0899">find py/python/python3</text></g><g class="entity" data-qualified-name="WIN_STATE.WIN_PREP" data-source-line="49" id="ent0016"><rect fill="#F1F1F1" height="50" rx="4" ry="4" style="stroke:#181818;stroke-width:0.5;" width="167.2178" x="529" y="581.4652"/><line style="stroke:#181818;stroke-width:0.5;" x1="529" x2="696.2178" y1="620.51" y2="620.51"/><text fill="#000000" font-family="'Inter, Helvetica, sans-serif'" font-size="12" lengthAdjust="spacing" textLength="131.9114" x="539" y="598.0899">mkdtemp + write script</text><text fill="#000000" font-family="'Inter, Helvetica, sans-serif'" font-size="12" lengthAdjust="spacing" textLength="147.2178" x="539" y="612.6123">verify win-job.ps1 present</text></g><g class="entity" data-qualified-name="WIN_STATE.WIN_RUN" data-source-line="50" id="ent0017"><rect fill="#F1F1F1" height="50" rx="4" ry="4" style="stroke:#181818;stroke-width:0.5;" width="145.9798" x="438.5" y="668.4652"/><line style="stroke:#181818;stroke-width:0.5;" x1="438.5" x2="584.4798" y1="707.51" y2="707.51"/><text fill="#000000" font-family="'Inter, Helvetica, sans-serif'" font-size="12" lengthAdjust="spacing" textLength="125.9798" x="448.5" y="685.0899">spawn powershell.exe</text><text fill="#000000" font-family="'Inter, Helvetica, sans-serif'" font-size="12" lengthAdjust="spacing" textLength="93.6794" x="448.5" y="699.6123">-File win-job.ps1</text></g><g class="entity" data-qualified-name="WIN_STATE.WIN_JOB" data-source-line="51" id="ent0018"><rect fill="#F1F1F1" height="78.0894" rx="4" ry="4" style="stroke:#181818;stroke-width:0.5;" width="188.0639" x="368.5" y="770.4652"/><line style="stroke:#181818;stroke-width:0.5;" x1="368.5" x2="556.5639" y1="838.5547" y2="838.5547"/><text fill="#000000" font-family="'Inter, Helvetica, sans-serif'" font-size="12" lengthAdjust="spacing" textLength="124.4286" x="378.5" y="787.0899">PS1: CreateJobObject</text><text fill="#000000" font-family="'Inter, Helvetica, sans-serif'" font-size="12" lengthAdjust="spacing" textLength="153.6268" x="378.5" y="801.6123">+ SetInformationJobObject</text><text fill="#000000" font-family="'Inter, Helvetica, sans-serif'" font-size="12" lengthAdjust="spacing" textLength="81.9013" x="378.5" y="816.1347">+ Start python</text><text fill="#000000" font-family="'Inter, Helvetica, sans-serif'" font-size="12" lengthAdjust="spacing" textLength="168.0639" x="378.5" y="830.657">+ AssignProcessToJobObject</text></g><g class="entity" data-qualified-name="WIN_STATE.WIN_WAIT" data-source-line="52" id="ent0019"><rect fill="#F1F1F1" height="50" rx="4" ry="4" style="stroke:#181818;stroke-width:0.5;" width="185.3367" x="240" y="929.4652"/><line style="stroke:#181818;stroke-width:0.5;" x1="240" x2="425.3367" y1="953.9876" y2="953.9876"/><text fill="#000000" font-family="'Inter, Helvetica, sans-serif'" font-size="12" lengthAdjust="spacing" textLength="165.3367" x="250" y="946.0899">WaitForExit(innerTimeoutMs)</text></g><g class="entity" data-qualified-name="WIN_STATE.WIN_PASS" data-source-line="66" id="ent0020"><rect fill="#FFFDF6" height="50" rx="4" ry="4" style="stroke:#181818;stroke-width:0.5;" width="81.4132" x="164" y="1046.4652"/><line style="stroke:#181818;stroke-width:0.5;" x1="164" x2="245.4132" y1="1070.9876" y2="1070.9876"/><text fill="#000000" font-family="'Inter, Helvetica, sans-serif'" font-size="12" lengthAdjust="spacing" textLength="61.4132" x="174" y="1063.0899">{pass:true}</text></g><g class="entity" data-qualified-name="WIN_STATE.WIN_FAIL_EXIT" data-source-line="67" id="ent0021"><rect fill="#F1F1F1" height="50" rx="4" ry="4" style="stroke:#181818;stroke-width:0.5;" width="138.8379" x="263" y="1046.4652"/><line style="stroke:#181818;stroke-width:0.5;" x1="263" x2="401.8379" y1="1085.51" y2="1085.51"/><text fill="#000000" font-family="'Inter, Helvetica, sans-serif'" font-size="12" lengthAdjust="spacing" textLength="64.8393" x="273" y="1063.0899">{pass:false,</text><text fill="#000000" font-family="'Inter, Helvetica, sans-serif'" font-size="12" lengthAdjust="spacing" textLength="118.8379" x="273" y="1077.6123">reason:exit-nonzero}</text></g><g class="entity" data-qualified-name="WIN_STATE.WIN_FAIL_TO" data-source-line="68" id="ent0022"><rect fill="#F1F1F1" height="50" rx="4" ry="4" style="stroke:#181818;stroke-width:0.5;" width="109.4523" x="420" y="1046.4652"/><line style="stroke:#181818;stroke-width:0.5;" x1="420" x2="529.4523" y1="1085.51" y2="1085.51"/><text fill="#000000" font-family="'Inter, Helvetica, sans-serif'" font-size="12" lengthAdjust="spacing" textLength="64.8393" x="430" y="1063.0899">{pass:false,</text><text fill="#000000" font-family="'Inter, Helvetica, sans-serif'" font-size="12" lengthAdjust="spacing" textLength="89.4523" x="430" y="1077.6123">reason:timeout}</text></g><g class="entity" data-qualified-name="WIN_STATE.WIN_UNAVAIL" data-source-line="69" id="ent0023"><rect fill="#E6DFD2" height="50" rx="4" ry="4" style="stroke:#181818;stroke-width:0.5;" width="135.855" x="560.5" y="929.4652"/><line style="stroke:#181818;stroke-width:0.5;" x1="560.5" x2="696.355" y1="968.51" y2="968.51"/><text fill="#000000" font-family="'Inter, Helvetica, sans-serif'" font-size="12" lengthAdjust="spacing" textLength="32.8287" x="570.5" y="946.0899">throw</text><text fill="#000000" font-family="'Inter, Helvetica, sans-serif'" font-size="12" lengthAdjust="spacing" textLength="115.855" x="570.5" y="960.6123">SandboxUnavailable</text></g><g class="start_entity" data-qualified-name="WIN_STATE..start.WIN_STATE" data-source-line="54" id="ent0040"><ellipse cx="668.5" cy="432.4652" fill="#222222" rx="10" ry="10" style="stroke:#222222;stroke-width:1;"/></g><!--link *start*WIN_STATE to WIN_PROBE--><g class="link" data-entity-1="ent0040" data-entity-2="ent0015" data-link-type="dependency" data-source-line="54" id="lnk41"><path d="M668.5,442.6152 C668.5,451.8852 668.5,461.6052 668.5,474.2452" fill="none" id="*start*WIN_STATE-to-WIN_PROBE" style="stroke:#1A1D24;stroke-width:1;"/><polygon fill="#1A1D24" points="668.5,479.2452,672.5,470.2452,668.5,474.2452,664.5,470.2452,668.5,479.2452" style="stroke:#1A1D24;stroke-width:1;stroke-linejoin:miter;stroke-miterlimit:10;"/></g><!--link WIN_PROBE to WIN_PREP--><g class="link" data-entity-1="ent0015" data-entity-2="ent0016" data-link-type="dependency" data-source-line="55" id="lnk42"><path d="M654.94,529.6752 C646.2,545.2752 637.3224,561.1424 628.5724,576.7724" fill="none" id="WIN_PROBE-to-WIN_PREP" style="stroke:#1A1D24;stroke-width:1;"/><polygon fill="#1A1D24" points="626.13,581.1352,634.0166,575.236,628.5724,576.7724,627.0361,571.3282,626.13,581.1352" style="stroke:#1A1D24;stroke-width:1;stroke-linejoin:miter;stroke-miterlimit:10;"/><text fill="#000000" font-family="'Inter, Helvetica, sans-serif'" font-size="12" lengthAdjust="spacing" textLength="53.7089" x="645.5" y="560.0899">probe OK</text></g><!--link WIN_PROBE to WIN_UNAVAIL--><g class="link" data-entity-1="ent0015" data-entity-2="ent0023" data-link-type="dependency" data-source-line="56" id="lnk43"><path d="M691.28,529.6852 C706.78,548.7552 724.5,576.8152 724.5,605.4652 C724.5,605.4652 724.5,605.4652 724.5,810.4652 C724.5,858.9052 689.7339,899.9137 661.4939,925.9837" fill="none" id="WIN_PROBE-to-WIN_UNAVAIL" style="stroke:#1A1D24;stroke-width:1;"/><polygon fill="#1A1D24" points="657.82,929.3752,667.1462,926.2095,661.4939,925.9837,661.7197,920.3313,657.82,929.3752" style="stroke:#1A1D24;stroke-width:1;stroke-linejoin:miter;stroke-miterlimit:10;"/><text fill="#000000" font-family="'Inter, Helvetica, sans-serif'" font-size="12" lengthAdjust="spacing" textLength="80.9468" x="728.73" y="690.5899">no python.exe</text><text fill="#000000" font-family="'Inter, Helvetica, sans-serif'" font-size="12" lengthAdjust="spacing" textLength="87.4068" x="725.5" y="705.1123">OR PS1 missing</text></g><!--link WIN_PREP to WIN_RUN--><g class="link" data-entity-1="ent0016" data-entity-2="ent0017" data-link-type="dependency" data-source-line="57" id="lnk44"><path d="M583.83,631.5952 C570.18,643.0852 557.7264,653.5667 544.0664,665.0567" fill="none" id="WIN_PREP-to-WIN_RUN" style="stroke:#1A1D24;stroke-width:1;"/><polygon fill="#1A1D24" points="540.24,668.2752,549.7023,665.543,544.0664,665.0567,544.5527,659.4208,540.24,668.2752" style="stroke:#1A1D24;stroke-width:1;stroke-linejoin:miter;stroke-miterlimit:10;"/></g><!--link WIN_PREP to WIN_UNAVAIL--><g class="link" data-entity-1="ent0016" data-entity-2="ent0023" data-link-type="dependency" data-source-line="58" id="lnk45"><path d="M613.61,631.5252 C616.54,694.8152 624.1992,860.4806 627.1392,924.1106" fill="none" id="WIN_PREP-to-WIN_UNAVAIL" style="stroke:#1A1D24;stroke-width:1;"/><polygon fill="#1A1D24" points="627.37,929.1052,630.9503,919.9302,627.1392,924.1106,622.9589,920.2995,627.37,929.1052" style="stroke:#1A1D24;stroke-width:1;stroke-linejoin:miter;stroke-miterlimit:10;"/><text fill="#000000" font-family="'Inter, Helvetica, sans-serif'" font-size="12" lengthAdjust="spacing" textLength="79.9411" x="620.5" y="749.0899">mkdtemp fails</text></g><!--link WIN_RUN to WIN_JOB--><g class="link" data-entity-1="ent0017" data-entity-2="ent0018" data-link-type="dependency" data-source-line="59" id="lnk46"><path d="M501.11,718.6452 C494.65,733.6752 488.1754,748.732 480.8254,765.822" fill="none" id="WIN_RUN-to-WIN_JOB" style="stroke:#1A1D24;stroke-width:1;"/><polygon fill="#1A1D24" points="478.85,770.4152,486.0804,763.7278,480.8254,765.822,478.7312,760.5671,478.85,770.4152" style="stroke:#1A1D24;stroke-width:1;stroke-linejoin:miter;stroke-miterlimit:10;"/></g><!--link WIN_JOB to WIN_WAIT--><g class="link" data-entity-1="ent0018" data-entity-2="ent0019" data-link-type="dependency" data-source-line="60" id="lnk47"><path d="M368.25,835.7552 C354.53,843.4452 342.15,853.4452 333.5,866.4652 C321.3,884.8352 321.7833,905.6281 325.2333,924.3381" fill="none" id="WIN_JOB-to-WIN_WAIT" style="stroke:#1A1D24;stroke-width:1;"/><polygon fill="#1A1D24" points="326.14,929.2552,328.4417,919.6791,325.2333,924.3381,320.5743,921.1298,326.14,929.2552" style="stroke:#1A1D24;stroke-width:1;stroke-linejoin:miter;stroke-miterlimit:10;"/><text fill="#000000" font-family="'Inter, Helvetica, sans-serif'" font-size="12" lengthAdjust="spacing" textLength="50.9305" x="361.6612" y="886.0899">assigned</text><text fill="#000000" font-family="'Inter, Helvetica, sans-serif'" font-size="12" lengthAdjust="spacing" textLength="105.253" x="334.5" y="900.6123">(tiny race window)</text></g><!--link WIN_JOB to WIN_UNAVAIL--><g class="link" data-entity-1="ent0018" data-entity-2="ent0023" data-link-type="dependency" data-source-line="61" id="lnk48"><path d="M452.45,848.7052 C449.4,869.3452 449.85,894.0852 463.5,911.4652 C475.73,927.0452 515.4403,936.9796 555.2003,943.7196" fill="none" id="WIN_JOB-to-WIN_UNAVAIL" style="stroke:#1A1D24;stroke-width:1;"/><polygon fill="#1A1D24" points="560.13,944.5552,551.9251,939.1073,555.2003,943.7196,550.5881,946.9948,560.13,944.5552" style="stroke:#1A1D24;stroke-width:1;stroke-linejoin:miter;stroke-miterlimit:10;"/><text fill="#000000" font-family="'Inter, Helvetica, sans-serif'" font-size="12" lengthAdjust="spacing" textLength="104.5542" x="487.221" y="879.0899">CreateJobObject /</text><text fill="#000000" font-family="'Inter, Helvetica, sans-serif'" font-size="12" lengthAdjust="spacing" textLength="149.9962" x="464.5" y="893.6123">SetInformationJobObject /</text><text fill="#000000" font-family="'Inter, Helvetica, sans-serif'" font-size="12" lengthAdjust="spacing" textLength="95.8101" x="491.5931" y="908.1347">Add-Type failure</text></g><!--link WIN_WAIT to WIN_PASS--><g class="link" data-entity-1="ent0019" data-entity-2="ent0020" data-link-type="dependency" data-source-line="62" id="lnk49"><path d="M305.67,979.5752 C283.82,999.1952 256.8496,1023.4339 235.0196,1043.0439" fill="none" id="WIN_WAIT-to-WIN_PASS" style="stroke:#1A1D24;stroke-width:1;"/><polygon fill="#1A1D24" points="231.3,1046.3852,240.6684,1043.3465,235.0196,1043.0439,235.3222,1037.3952,231.3,1046.3852" style="stroke:#1A1D24;stroke-width:1;stroke-linejoin:miter;stroke-miterlimit:10;"/><text fill="#000000" font-family="'Inter, Helvetica, sans-serif'" font-size="12" lengthAdjust="spacing" textLength="31.5503" x="285.5" y="1017.5899">exit 0</text></g><!--link WIN_WAIT to WIN_FAIL_EXIT--><g class="link" data-entity-1="ent0019" data-entity-2="ent0021" data-link-type="dependency" data-source-line="63" id="lnk50"><path d="M332.5,979.5752 C332.5,999.1952 332.5,1021.7752 332.5,1041.3852" fill="none" id="WIN_WAIT-to-WIN_FAIL_EXIT" style="stroke:#1A1D24;stroke-width:1;"/><polygon fill="#1A1D24" points="332.5,1046.3852,336.5,1037.3852,332.5,1041.3852,328.5,1037.3852,332.5,1046.3852" style="stroke:#1A1D24;stroke-width:1;stroke-linejoin:miter;stroke-miterlimit:10;"/><text fill="#000000" font-family="'Inter, Helvetica, sans-serif'" font-size="12" lengthAdjust="spacing" textLength="66.7312" x="333.5" y="1017.5899">exit &#8800; 0,124</text></g><!--link WIN_WAIT to WIN_FAIL_TO--><g class="link" data-entity-1="ent0019" data-entity-2="ent0022" data-link-type="dependency" data-source-line="64" id="lnk51"><path d="M378.31,979.6052 C387.3,985.0452 396.43,991.1052 404.5,997.4652 C422.98,1012.0252 438.0022,1027.587 451.2522,1042.687" fill="none" id="WIN_WAIT-to-WIN_FAIL_TO" style="stroke:#1A1D24;stroke-width:1;"/><polygon fill="#1A1D24" points="454.55,1046.4452,451.6206,1037.0421,451.2522,1042.687,445.6073,1042.3186,454.55,1046.4452" style="stroke:#1A1D24;stroke-width:1;stroke-linejoin:miter;stroke-miterlimit:10;"/><text fill="#000000" font-family="'Inter, Helvetica, sans-serif'" font-size="12" lengthAdjust="spacing" textLength="44.5898" x="495.2173" y="1010.0899">exit 124</text><text fill="#000000" font-family="'Inter, Helvetica, sans-serif'" font-size="12" lengthAdjust="spacing" textLength="158.0244" x="438.5" y="1024.6123">(PS1's TerminateJobObject)</text></g></g><g class="start_entity" data-qualified-name=".start." data-source-line="9" id="ent0024"><ellipse cx="742" cy="53.9429" fill="#222222" rx="10" ry="10" style="stroke:#222222;stroke-width:1;"/></g><g class="entity" data-qualified-name="GMN52" data-source-line="73" id="ent0053"><path d="M873.5,718.4429 L873.5,778.5323 A4,4 0 0 0 877.5,782.5323 L1100.8185,782.5323 A4,4 0 0 0 1104.8185,778.5323 L1104.8185,724.4429 L1094.8185,714.4429 L877.5,714.4429 A4,4 0 0 0 873.5,718.4429" fill="#FFFDF6" style="stroke:#C68A3A;stroke-width:0.5;"/><path d="M1094.8185,714.4429 L1094.8185,722.4429 A2,2 0 0 0 1096.8185,724.4429 L1104.8185,724.4429 L1094.8185,714.4429" fill="#FFFDF6" style="stroke:#C68A3A;stroke-width:1;"/><text fill="#0E1014" font-family="'Inter, Helvetica, sans-serif'" font-size="12" lengthAdjust="spacing" textLength="188.5009" x="879.5" y="731.0676">Single source of truth &#8212; only this</text><text fill="#0E1014" font-family="'Inter, Helvetica, sans-serif'" font-size="12" lengthAdjust="spacing" textLength="207.2163" x="879.5" y="745.5899">state machine knows about platform</text><text fill="#0E1014" font-family="'Inter, Helvetica, sans-serif'" font-size="12" lengthAdjust="spacing" textLength="210.3185" x="879.5" y="760.1123">/ opt-in. Callers (characterizeRunner)</text><text fill="#0E1014" font-family="'Inter, Helvetica, sans-serif'" font-size="12" lengthAdjust="spacing" textLength="209.9094" x="879.5" y="774.6347">just see a SandboxProvider instance.</text></g><g class="entity" data-qualified-name="GMN55" data-source-line="80" id="ent0056"><path d="M1805,1441.9429 L1805,1516.5547 A4,4 0 0 0 1809,1520.5547 L2010.6202,1520.5547 A4,4 0 0 0 2014.6202,1516.5547 L2014.6202,1447.9429 L2004.6202,1437.9429 L1809,1437.9429 A4,4 0 0 0 1805,1441.9429" fill="#FFFDF6" style="stroke:#C68A3A;stroke-width:0.5;"/><path d="M2004.6202,1437.9429 L2004.6202,1445.9429 A2,2 0 0 0 2006.6202,1447.9429 L2014.6202,1447.9429 L2004.6202,1437.9429" fill="#FFFDF6" style="stroke:#C68A3A;stroke-width:1;"/><text fill="#0E1014" font-family="'Inter, Helvetica, sans-serif'" font-size="12" lengthAdjust="spacing" textLength="154.6154" x="1811" y="1454.5676">Fail-closed (D&#945;&#945; &#167;3): every</text><text fill="#0E1014" font-family="'Inter, Helvetica, sans-serif'" font-size="12" lengthAdjust="spacing" textLength="172.3592" x="1811" y="1469.0899">SandboxUnavailable transition</text><text fill="#0E1014" font-family="'Inter, Helvetica, sans-serif'" font-size="12" lengthAdjust="spacing" textLength="188.6202" x="1811" y="1483.6123">in the staircase &#8658; UNMEASURED</text><text fill="#0E1014" font-family="'Inter, Helvetica, sans-serif'" font-size="12" lengthAdjust="spacing" textLength="151.6666" x="1811" y="1498.1347">(branch prior D12), never a</text><text fill="#0E1014" font-family="'Inter, Helvetica, sans-serif'" font-size="12" lengthAdjust="spacing" textLength="60.5098" x="1811" y="1512.657">false pass.</text></g><!--link *start* to Dispatch--><g class="link" data-entity-1="ent0024" data-entity-2="ent0001" data-link-type="dependency" data-source-line="9" id="lnk25"><path d="M742,64.1729 C742,76.7229 742,95.4029 742,119.6729" fill="none" id="*start*-to-Dispatch" style="stroke:#1A1D24;stroke-width:1;"/><polygon fill="#1A1D24" points="742,124.6729,746,115.6729,742,119.6729,738,115.6729,742,124.6729" style="stroke:#1A1D24;stroke-width:1;stroke-linejoin:miter;stroke-miterlimit:10;"/></g><!--link Dispatch to UNSAFE_STATE--><g class="link" data-entity-1="ent0001" data-entity-2="ent0003" data-link-type="dependency" data-source-line="15" id="lnk26"><path d="M621.78,225.4329 C464.03,255.4229 199.49,314.9529 134,386.9429 C45.31,484.4329 52.3643,654.2365 58.6043,718.1765" fill="none" id="Dispatch-to-UNSAFE_STATE" style="stroke:#1A1D24;stroke-width:1;"/><polygon fill="#1A1D24" points="59.09,723.1529,62.1969,713.8069,58.6043,718.1765,54.2347,714.584,59.09,723.1529" style="stroke:#1A1D24;stroke-width:1;stroke-linejoin:miter;stroke-miterlimit:10;"/><text fill="#000000" font-family="'Inter, Helvetica, sans-serif'" font-size="12" lengthAdjust="spacing" textLength="76.0208" x="270.9004" y="324.5676">enabled:false</text><text fill="#000000" font-family="'Inter, Helvetica, sans-serif'" font-size="12" lengthAdjust="spacing" textLength="48.4079" x="284.7068" y="339.0899">(default)</text><text fill="#000000" font-family="'Inter, Helvetica, sans-serif'" font-size="12" lengthAdjust="spacing" textLength="91.8215" x="263" y="353.6123">OR unknown OS</text></g><!--link Dispatch to POSIX_STATE--><g class="link" data-entity-1="ent0001" data-entity-2="ent0004" data-link-type="dependency" data-source-line="16" id="lnk27"><path d="M862.16,228.0229 C949.95,252.0729 1063.47,298.8629 1122,386.9429 C1144.02,420.0879 1148.6225,509.0679 1147.6687,590.3279 C1147.4303,610.6429 1146.8446,630.4754 1146.097,648.8323 C1145.7232,658.0108 1145.3089,666.8204 1144.8772,675.137 C1144.6614,679.2953 1144.4413,683.3303 1144.2197,687.2266 C1144.1089,689.1747 1143.9978,691.0881 1143.8866,692.9649 C1143.8311,693.9033 1143.7755,694.8326 1143.72,695.7524 C1143.6922,696.2123 1143.9685,691.6792 1143.9408,692.1344" fill="none" id="Dispatch-to-POSIX_STATE" style="stroke:#1A1D24;stroke-width:1;"/><polygon fill="#1A1D24" points="1143.6367,697.1251,1148.1766,688.385,1143.9408,692.1344,1140.1915,687.8985,1143.6367,697.1251" style="stroke:#1A1D24;stroke-width:1;stroke-linejoin:miter;stroke-miterlimit:10;"/><text fill="#000000" font-family="'Inter, Helvetica, sans-serif'" font-size="12" lengthAdjust="spacing" textLength="71.6061" x="1100.2101" y="331.5676">enabled:true</text><text fill="#000000" font-family="'Inter, Helvetica, sans-serif'" font-size="12" lengthAdjust="spacing" textLength="80.0264" x="1096" y="346.0899">+ linux/darwin</text></g><!--link Dispatch to WIN_STATE--><g class="link" data-entity-1="ent0001" data-entity-2="ent0014" data-link-type="dependency" data-source-line="17" id="lnk28"><path d="M706.74,281.9529 C693.21,311.6929 678.8007,343.3918 661.0607,382.3818" fill="none" id="Dispatch-to-WIN_STATE" style="stroke:#1A1D24;stroke-width:1;"/><polygon fill="#1A1D24" points="658.99,386.9329,666.3581,380.3975,661.0607,382.3818,659.0764,377.0844,658.99,386.9329" style="stroke:#1A1D24;stroke-width:1;stroke-linejoin:miter;stroke-miterlimit:10;"/><text fill="#000000" font-family="'Inter, Helvetica, sans-serif'" font-size="12" lengthAdjust="spacing" textLength="71.6061" x="690" y="331.5676">enabled:true</text><text fill="#000000" font-family="'Inter, Helvetica, sans-serif'" font-size="12" lengthAdjust="spacing" textLength="45.8" x="702.9031" y="346.0899">+ win32</text></g><!--link *start*POSIX_STATE to POSIX_PROBE--><g class="link" data-entity-1="ent0029" data-entity-2="ent0005" data-link-type="dependency" data-source-line="29" id="lnk30"><path d="M1475,758.7429 C1475,812.8529 1475,1082.4129 1475,1165.8529" fill="none" id="*start*POSIX_STATE-to-POSIX_PROBE" style="stroke:#1A1D24;stroke-width:1;"/><polygon fill="#1A1D24" points="1475,1170.8529,1479,1161.8529,1475,1165.8529,1471,1161.8529,1475,1170.8529" style="stroke:#1A1D24;stroke-width:1;stroke-linejoin:miter;stroke-miterlimit:10;"/></g><!--link POSIX_PROBE to POSIX_PREP--><g class="link" data-entity-1="ent0005" data-entity-2="ent0006" data-link-type="dependency" data-source-line="30" id="lnk31"><path d="M1503.5,1221.1429 C1529.22,1242.9929 1563.0586,1271.7367 1588.7686,1293.5667" fill="none" id="POSIX_PROBE-to-POSIX_PREP" style="stroke:#1A1D24;stroke-width:1;"/><polygon fill="#1A1D24" points="1592.58,1296.8029,1588.3084,1287.9286,1588.7686,1293.5667,1583.1305,1294.0268,1592.58,1296.8029" style="stroke:#1A1D24;stroke-width:1;stroke-linejoin:miter;stroke-miterlimit:10;"/><text fill="#000000" font-family="'Inter, Helvetica, sans-serif'" font-size="12" lengthAdjust="spacing" textLength="53.7089" x="1557" y="1263.5676">probe OK</text></g><!--link POSIX_PROBE to POSIX_UNAVAIL--><g class="link" data-entity-1="ent0005" data-entity-2="ent0013" data-link-type="dependency" data-source-line="31" id="lnk32"><path d="M1460.98,1221.0529 C1450.39,1240.7329 1436.74,1269.6529 1431,1296.9429 C1419.2,1353.0429 1438.2223,1414.775 1451.8223,1449.625" fill="none" id="POSIX_PROBE-to-POSIX_UNAVAIL" style="stroke:#1A1D24;stroke-width:1;"/><polygon fill="#1A1D24" points="1453.64,1454.2829,1454.0944,1444.4445,1451.8223,1449.625,1446.6418,1447.3529,1453.64,1454.2829" style="stroke:#1A1D24;stroke-width:1;stroke-linejoin:miter;stroke-miterlimit:10;"/><text fill="#000000" font-family="'Inter, Helvetica, sans-serif'" font-size="12" lengthAdjust="spacing" textLength="57.1861" x="1447.2809" y="1319.0676">no python</text><text fill="#000000" font-family="'Inter, Helvetica, sans-serif'" font-size="12" lengthAdjust="spacing" textLength="87.7478" x="1432" y="1333.5899">OR no resource</text></g><!--link POSIX_PREP to POSIX_RUN--><g class="link" data-entity-1="ent0006" data-entity-2="ent0007" data-link-type="dependency" data-source-line="32" id="lnk33"><path d="M1621,1347.2429 C1621,1374.2329 1621,1412.8829 1621,1442.3529" fill="none" id="POSIX_PREP-to-POSIX_RUN" style="stroke:#1A1D24;stroke-width:1;"/><polygon fill="#1A1D24" points="1621,1447.3529,1625,1438.3529,1621,1442.3529,1617,1438.3529,1621,1447.3529" style="stroke:#1A1D24;stroke-width:1;stroke-linejoin:miter;stroke-miterlimit:10;"/><text fill="#000000" font-family="'Inter, Helvetica, sans-serif'" font-size="12" lengthAdjust="spacing" textLength="75.1344" x="1622" y="1397.0676">script written</text></g><!--link POSIX_PREP to POSIX_UNAVAIL--><g class="link" data-entity-1="ent0006" data-entity-2="ent0013" data-link-type="dependency" data-source-line="33" id="lnk34"><path d="M1572.56,1347.1629 C1558.57,1355.4729 1543.89,1365.5729 1532,1376.9429 C1508.24,1399.6629 1490.7124,1427.6924 1478.7024,1449.7324" fill="none" id="POSIX_PREP-to-POSIX_UNAVAIL" style="stroke:#1A1D24;stroke-width:1;"/><polygon fill="#1A1D24" points="1476.31,1454.1229,1484.1288,1448.134,1478.7024,1449.7324,1477.104,1444.3061,1476.31,1454.1229" style="stroke:#1A1D24;stroke-width:1;stroke-linejoin:miter;stroke-miterlimit:10;"/><text fill="#000000" font-family="'Inter, Helvetica, sans-serif'" font-size="12" lengthAdjust="spacing" textLength="79.9411" x="1533" y="1389.5676">mkdtemp fails</text><text fill="#000000" font-family="'Inter, Helvetica, sans-serif'" font-size="12" lengthAdjust="spacing" textLength="75.0322" x="1535.4545" y="1404.0899">OR write fails</text></g><!--link POSIX_RUN to POSIX_WAIT--><g class="link" data-entity-1="ent0007" data-entity-2="ent0008" data-link-type="dependency" data-source-line="34" id="lnk35"><path d="M1582.93,1511.4629 C1556.39,1533.0929 1525.3457,1558.3939 1500.7957,1578.4039" fill="none" id="POSIX_RUN-to-POSIX_WAIT" style="stroke:#1A1D24;stroke-width:1;"/><polygon fill="#1A1D24" points="1496.92,1581.5629,1506.4234,1578.9773,1500.7957,1578.4039,1501.3691,1572.7762,1496.92,1581.5629" style="stroke:#1A1D24;stroke-width:1;stroke-linejoin:miter;stroke-miterlimit:10;"/></g><!--link POSIX_WAIT to POSIX_PASS--><g class="link" data-entity-1="ent0008" data-entity-2="ent0009" data-link-type="dependency" data-source-line="35" id="lnk36"><path d="M1407.22,1631.9529 C1386.58,1640.7729 1363.5,1651.2329 1343,1661.9429 C1307.34,1680.5729 1272.6374,1702.1805 1245.2674,1720.0405" fill="none" id="POSIX_WAIT-to-POSIX_PASS" style="stroke:#1A1D24;stroke-width:1;"/><polygon fill="#1A1D24" points="1241.08,1722.7729,1250.8032,1721.2044,1245.2674,1720.0405,1246.4313,1714.5047,1241.08,1722.7729" style="stroke:#1A1D24;stroke-width:1;stroke-linejoin:miter;stroke-miterlimit:10;"/><text fill="#000000" font-family="'Inter, Helvetica, sans-serif'" font-size="12" lengthAdjust="spacing" textLength="31.5503" x="1344" y="1682.0676">exit 0</text></g><!--link POSIX_WAIT to POSIX_FAIL_EXIT--><g class="link" data-entity-1="ent0008" data-entity-2="ent0010" data-link-type="dependency" data-source-line="36" id="lnk37"><path d="M1437.23,1632.1329 C1427.12,1641.0129 1416.09,1651.4629 1407,1661.9429 C1390.47,1681.0029 1377.3363,1700.7998 1366.6063,1718.4598" fill="none" id="POSIX_WAIT-to-POSIX_FAIL_EXIT" style="stroke:#1A1D24;stroke-width:1;"/><polygon fill="#1A1D24" points="1364.01,1722.7329,1372.1018,1717.1183,1366.6063,1718.4598,1365.2648,1712.9643,1364.01,1722.7329" style="stroke:#1A1D24;stroke-width:1;stroke-linejoin:miter;stroke-miterlimit:10;"/><text fill="#000000" font-family="'Inter, Helvetica, sans-serif'" font-size="12" lengthAdjust="spacing" textLength="42.8341" x="1408" y="1682.0676">exit &#8800; 0</text></g><!--link POSIX_WAIT to POSIX_FAIL_TO--><g class="link" data-entity-1="ent0008" data-entity-2="ent0011" data-link-type="dependency" data-source-line="37" id="lnk38"><path d="M1461.44,1632.1429 C1458.54,1649.5729 1456.91,1673.3629 1464,1692.9429 C1467.99,1703.9629 1472.0055,1710.5505 1479.6055,1719.1805" fill="none" id="POSIX_WAIT-to-POSIX_FAIL_TO" style="stroke:#1A1D24;stroke-width:1;"/><polygon fill="#1A1D24" points="1482.91,1722.9329,1479.9638,1713.535,1479.6055,1719.1805,1473.96,1718.8222,1482.91,1722.9329" style="stroke:#1A1D24;stroke-width:1;stroke-linejoin:miter;stroke-miterlimit:10;"/><text fill="#000000" font-family="'Inter, Helvetica, sans-serif'" font-size="12" lengthAdjust="spacing" textLength="130.241" x="1465" y="1674.5676">wall clock &#8805; timeoutMs</text><text fill="#000000" font-family="'Inter, Helvetica, sans-serif'" font-size="12" lengthAdjust="spacing" textLength="63.7142" x="1498.2634" y="1689.0899">&#8594; kill -pgid</text></g><!--link POSIX_WAIT to POSIX_FAIL_OV--><g class="link" data-entity-1="ent0008" data-entity-2="ent0012" data-link-type="dependency" data-source-line="38" id="lnk39"><path d="M1529.13,1626.6829 C1552.52,1635.3629 1578.61,1647.0929 1600,1661.9429 C1624.02,1678.6229 1642.946,1699.9717 1657.416,1718.6317" fill="none" id="POSIX_WAIT-to-POSIX_FAIL_OV" style="stroke:#1A1D24;stroke-width:1;"/><polygon fill="#1A1D24" points="1660.48,1722.5829,1658.1258,1713.0195,1657.416,1718.6317,1651.8039,1717.9219,1660.48,1722.5829" style="stroke:#1A1D24;stroke-width:1;stroke-linejoin:miter;stroke-miterlimit:10;"/><text fill="#000000" font-family="'Inter, Helvetica, sans-serif'" font-size="12" lengthAdjust="spacing" textLength="116.8266" x="1634" y="1674.5676">stdout+stderr &#8805; max</text><text fill="#000000" font-family="'Inter, Helvetica, sans-serif'" font-size="12" lengthAdjust="spacing" textLength="63.7142" x="1660.5562" y="1689.0899">&#8594; kill -pgid</text></g><!--link Dispatch to GMN52--><g class="link" data-entity-1="ent0001" data-entity-2="ent0053" data-link-type="association" data-source-line="73" id="lnk54"><path d="M794.75,281.9929 C815.07,313.7229 837.55,351.2929 855,386.9429 C911.8,502.9929 959.29,649.5729 979.09,714.2229" fill="none" id="Dispatch-GMN52" style="stroke:#1A1D24;stroke-width:1;stroke-dasharray:7,7;"/></g><!--link POSIX_UNAVAIL to GMN55--><g class="link" data-entity-1="ent0013" data-entity-2="ent0056" data-link-type="association" data-source-line="80" id="lnk57"><path d="M1484.77,1454.0829 C1503.77,1433.0429 1533.98,1404.6629 1567.5,1392.4429 C1646,1363.8329 1674.68,1371.2529 1755.5,1392.4429 C1789.89,1401.4629 1824.7,1420.0529 1852.55,1437.7429" fill="none" id="POSIX_UNAVAIL-GMN55" style="stroke:#1A1D24;stroke-width:1;stroke-dasharray:7,7;"/></g><?plantuml-src dLRDRjj64BxpAQR98L9ZKRLTvE130IMI0AU99PXI7A0gaXMviZOcTudTfIKb2D1JYrw3Fa0lHSzvXJv07i9FqcyfYgGiAqbxui_EV3lVpEotyusGOPn5d7o__QfuDsrZLp7tHPR4dcU5ZJa5bbbE2GldGdAw-UKFCan6KxMaLAjh4N5DaJ0fi-6S6YOM8QUZgEbv3sW0-qjkWxLvunsNR1hpw7sJGXR7TFFh1-9B5jfuHOEp7d4PaN6R-JIQSma0dSdXoiwL775ZJIDK4JyWwzwREzugiw5AE3LIPWorQSP4J6s05DkF9Rl6BnT1qwS-NbjXh0oFJeZ95MKovDeo8UsARdxxGEEpvxrEC3xlTGdKvhxd_VJjpzHg_K3TWgpdvS7IlJiftYDcIbDwvn4Xkw4MgHLAqWcTSnOPUfqopHBZhzqAbDSJYHUiQHLoO_mqPdQcTFBQzzvxNedfOXcV1Pr-xrKmwenw02rsFvcnsF29R4HynhBODYToS0w6Lr8j90s2ROpX83XzkGDXTGQ4XnGBcItR4TCB8RVzBaxFzdh1-FYeJD1O6ZRRi4DOAhKj8KdDPkiqRR7OJLKdNh2L8JlNQc4cShUU4mcxMxtIp9DL131KHYmBltp7EcUtOM4t4yXxcgCSjzTFnmQ5c7BItAXCexiJ5MKnh-4CpmUFUnLASXLPdgI4D6Y17siku9rgpXB4YnNNodYiUtaBgZUia91j5AnrIgs0MeyF9ZBY5kUG8yXBdU8Rsw1VkRokGPoFpog41HEMq3oKzpgr9zAAXEEiu8IeQwvdiLhKV2ywfoCFtfjUt-PN-zfQxGrHfNMI1Z_kjHkVTLvqJf_1L2hQ91TzYQzDQck-mAnSGGbkwppcIRMGXpssrJQREZWbCFbMwthatwMxmwwyymHGxQDEj1C4hjUNIEbt-upwsFjLxoN-5POtl__v1UlH0BOBfuWeKdW5Zx-egD9pnEs4xafWjPLUYkYpI8CNBaqsWkT3FBZMELZ2bZimLOkySuAPdzptzKPqPE_t-_rk_z5jsrnUq7rePwFaYQFPmX5yoxMgGvIf-89_mNN7TJJuWYESqiosDdsy0p1uKG7awd6NUDISDgrpl_Ues-yUrGJa0i80yQbBI2L_km9IQ4VnE2xjlr8em4VCLav4Ms_Kr4_D8KuNDrpQ6jAkJgHgmRMPypZs-HAYsEeBQ4qDfVJUaeXXS7X2Jv1Iov-gwM3wXeVMgLx0xQbqzmvpEhozP9csL0bannXnAOVh-sgaIjjomwU3nzM65z2alj8zj4r3ICdrQDFipTBXjX3LirU-rrPkIz2kpHtoiquJT04fe4I0XBmiVGjHgTArytkFqXIc6rsfw1TlvT_y16Fwo9F78rmGLc0IqIpCguQ6QzxXLUrwgsPEtFVKp2rregWrMgLh-SiqBw1B6SdftLAu7OExrUtWyEZxlTQvkkMsi097vFg1eH7NYP3ry9kVaQGojlyhI5kn_nSvgj7uMYsf5wcc95B1TQgiLGacdsgA90hGTZYenNI1DH2tytpILXBJhPqBKsw-cSFTB6U8JTrLlXaGOOHRFH-kV7g22mLoG8rmZXapjD2Kj_myS-VDjTMRp5Wod1FR3CZ3pJGl9BR2EEnxRY9tSHVHQt4vjox0BRa4M6sQfaRtqyTF7-cVlu-Rg3kaREKexgGA99aqmhKfrZ4DsZbt58KE6GQLxH4S5eqfx35vfbfWckaU7ZKFI3fuObZDIqYkchMW_mK0?></g></svg>