<svg xmlns="http://www.w3.org/2000/svg" xmlns:xlink="http://www.w3.org/1999/xlink" contentStyleType="text/css" data-diagram-type="DESCRIPTION" height="1154px" preserveAspectRatio="none" style="width:1408px;height:1154px;background:#F4EEE3;" version="1.1" viewBox="0 0 1408 1154" width="1408px" zoomAndPan="magnify"><?plantuml 1.2026.4?><defs/><g><rect fill="#F4EEE3" height="1154" style="stroke:none;stroke-width:1;" width="1408" x="0" y="0"/><g class="title" data-source-line="4"><text fill="#000000" font-family="'Inter, Helvetica, sans-serif'" font-size="14" font-weight="700" lengthAdjust="spacing" textLength="244.6381" x="578.5847" y="23.5623">Maestria &#8212; AI subsystem overview</text></g><!--cluster MAESTRIA--><g class="cluster" data-qualified-name="MAESTRIA" data-source-line="6" id="ent0008"><path d="M61.3122,246.4429 L199.8826,246.4429 A6,6 0 0 1 203.8826,250.4429 L210.8826,266.9652 L1158.3122,266.9652 A4,4 0 0 1 1162.3122,270.9652 L1162.3122,966.9429 A4,4 0 0 1 1158.3122,970.9429 L61.3122,970.9429 A4,4 0 0 1 57.3122,966.9429 L57.3122,250.4429 A4,4 0 0 1 61.3122,246.4429" fill="#F4EEE3" style="stroke:#C68A3A;stroke-width:1.5;"/><line style="stroke:#C68A3A;stroke-width:1.5;" x1="57.3122" x2="210.8826" y1="266.9652" y2="266.9652"/><text fill="#0E1014" font-family="'Inter, Helvetica, sans-serif'" font-size="12" font-weight="700" lengthAdjust="spacing" textLength="140.5705" x="61.3122" y="260.0676">Maestria (Electron app)</text></g><!--cluster Renderer (React)--><g class="cluster" data-qualified-name="MAESTRIA.Renderer .React." data-source-line="7" id="ent0009"><path d="M93.3122,479.9429 L193.5313,479.9429 A6,6 0 0 1 197.5313,483.9429 L204.5313,500.4652 L585.3122,500.4652 A4,4 0 0 1 589.3122,504.4652 L589.3122,598.9429 A4,4 0 0 1 585.3122,602.9429 L93.3122,602.9429 A4,4 0 0 1 89.3122,598.9429 L89.3122,483.9429 A4,4 0 0 1 93.3122,479.9429" fill="#F4EEE3" style="stroke:#C68A3A;stroke-width:1.5;"/><line style="stroke:#C68A3A;stroke-width:1.5;" x1="89.3122" x2="204.5313" y1="500.4652" y2="500.4652"/><text fill="#0E1014" font-family="'Inter, Helvetica, sans-serif'" font-size="12" font-weight="700" lengthAdjust="spacing" textLength="102.2191" x="93.3122" y="493.5676">Renderer (React)</text></g><!--cluster Main process--><g class="cluster" data-qualified-name="MAESTRIA.Main process" data-source-line="12" id="ent0013"><path d="M617.3122,295.4429 L695.2875,295.4429 A6,6 0 0 1 699.2875,299.4429 L706.2875,315.9652 L1118.3122,315.9652 A4,4 0 0 1 1122.3122,319.9652 L1122.3122,934.9429 A4,4 0 0 1 1118.3122,938.9429 L617.3122,938.9429 A4,4 0 0 1 613.3122,934.9429 L613.3122,299.4429 A4,4 0 0 1 617.3122,295.4429" fill="#F4EEE3" style="stroke:#C68A3A;stroke-width:1.5;"/><line style="stroke:#C68A3A;stroke-width:1.5;" x1="613.3122" x2="706.2875" y1="315.9652" y2="315.9652"/><text fill="#0E1014" font-family="'Inter, Helvetica, sans-serif'" font-size="12" font-weight="700" lengthAdjust="spacing" textLength="79.9753" x="617.3122" y="309.0676">Main process</text></g><!--entity UI_PANEL--><g class="entity" data-qualified-name="MAESTRIA.Renderer .React..UI_PANEL" data-source-line="8" id="ent0010"><rect fill="#FFFFFF" height="59.0447" rx="4" ry="4" style="stroke:#0E1014;stroke-width:0.5;" width="129.6568" x="105.3122" y="520.4429"/><rect fill="#FFFFFF" height="10" style="stroke:#0E1014;stroke-width:0.5;" width="15" x="214.969" y="525.4429"/><rect fill="#FFFFFF" height="2" style="stroke:#0E1014;stroke-width:0.5;" width="4" x="212.969" y="527.4429"/><rect fill="#FFFFFF" height="2" style="stroke:#0E1014;stroke-width:0.5;" width="4" x="212.969" y="531.4429"/><text fill="#0E1014" font-family="'Inter, Helvetica, sans-serif'" font-size="12" lengthAdjust="spacing" textLength="89.6568" x="120.3122" y="552.0676">ModelHubPanel</text><text fill="#0E1014" font-family="'Inter, Helvetica, sans-serif'" font-size="12" lengthAdjust="spacing" textLength="86.9126" x="120.3122" y="566.5899">+ Inf&#233;rence tab</text></g><!--entity UI_RADAR--><g class="entity" data-qualified-name="MAESTRIA.Renderer .React..UI_RADAR" data-source-line="9" id="ent0011"><rect fill="#FFFFFF" height="73.5671" rx="4" ry="4" style="stroke:#0E1014;stroke-width:0.5;" width="155.4119" x="270.8122" y="512.9429"/><rect fill="#FFFFFF" height="10" style="stroke:#0E1014;stroke-width:0.5;" width="15" x="406.224" y="517.9429"/><rect fill="#FFFFFF" height="2" style="stroke:#0E1014;stroke-width:0.5;" width="4" x="404.224" y="519.9429"/><rect fill="#FFFFFF" height="2" style="stroke:#0E1014;stroke-width:0.5;" width="4" x="404.224" y="523.9429"/><text fill="#0E1014" font-family="'Inter, Helvetica, sans-serif'" font-size="12" lengthAdjust="spacing" textLength="115.4119" x="285.8122" y="544.5676">CompetenceSection</text><text fill="#0E1014" font-family="'Inter, Helvetica, sans-serif'" font-size="12" lengthAdjust="spacing" textLength="63.8847" x="285.8122" y="559.0899">(R5 radar +</text><text fill="#0E1014" font-family="'Inter, Helvetica, sans-serif'" font-size="12" lengthAdjust="spacing" textLength="60.4416" x="285.8122" y="573.6123">tree radar)</text></g><!--entity UI_SETTINGS--><g class="entity" data-qualified-name="MAESTRIA.Renderer .React..UI_SETTINGS" data-source-line="10" id="ent0012"><rect fill="#FFFFFF" height="61.9219" rx="4" ry="4" style="stroke:#0E1014;stroke-width:0.5;" width="111.7012" x="461.3122" y="518.9429"/><rect fill="#FFFFFF" height="10" style="stroke:#0E1014;stroke-width:0.5;" width="15" x="553.0133" y="523.9429"/><rect fill="#FFFFFF" height="2" style="stroke:#0E1014;stroke-width:0.5;" width="4" x="551.0133" y="525.9429"/><rect fill="#FFFFFF" height="2" style="stroke:#0E1014;stroke-width:0.5;" width="4" x="551.0133" y="529.9429"/><text fill="#0E1014" font-family="'Inter, Helvetica, sans-serif'" font-size="12" lengthAdjust="spacing" textLength="71.7012" x="476.3122" y="551.8921">Settings &#9656; AI</text><text fill="#0E1014" font-family="'Inter, Helvetica, sans-serif'" font-size="12" lengthAdjust="spacing" textLength="55.0313" x="476.3122" y="567.853">&#9656; Routing</text></g><!--entity MCP_SERVER--><g class="entity" data-qualified-name="MAESTRIA.Main process.MCP_SERVER" data-source-line="13" id="ent0014"><rect fill="#FFFFFF" height="73.5671" rx="4" ry="4" style="stroke:#0E1014;stroke-width:0.5;" width="135.043" x="824.8122" y="328.4429"/><rect fill="#FFFFFF" height="10" style="stroke:#0E1014;stroke-width:0.5;" width="15" x="939.8552" y="333.4429"/><rect fill="#FFFFFF" height="2" style="stroke:#0E1014;stroke-width:0.5;" width="4" x="937.8552" y="335.4429"/><rect fill="#FFFFFF" height="2" style="stroke:#0E1014;stroke-width:0.5;" width="4" x="937.8552" y="339.4429"/><text fill="#0E1014" font-family="'Inter, Helvetica, sans-serif'" font-size="12" lengthAdjust="spacing" textLength="66.254" x="839.8122" y="360.0676">MCP server</text><text fill="#0E1014" font-family="'Inter, Helvetica, sans-serif'" font-size="12" lengthAdjust="spacing" textLength="95.043" x="839.8122" y="374.5899">(127.0.0.1:41541,</text><text fill="#0E1014" font-family="'Inter, Helvetica, sans-serif'" font-size="12" lengthAdjust="spacing" textLength="70.396" x="839.8122" y="389.1123">Bearer auth)</text></g><!--entity REGISTRY--><g class="entity" data-qualified-name="MAESTRIA.Main process.REGISTRY" data-source-line="14" id="ent0015"><rect fill="#FFFFFF" height="88.0894" rx="4" ry="4" style="stroke:#0E1014;stroke-width:0.5;" width="144.0769" x="820.3122" y="505.9429"/><rect fill="#FFFFFF" height="10" style="stroke:#0E1014;stroke-width:0.5;" width="15" x="944.3891" y="510.9429"/><rect fill="#FFFFFF" height="2" style="stroke:#0E1014;stroke-width:0.5;" width="4" x="942.3891" y="512.9429"/><rect fill="#FFFFFF" height="2" style="stroke:#0E1014;stroke-width:0.5;" width="4" x="942.3891" y="516.9429"/><text fill="#0E1014" font-family="'Inter, Helvetica, sans-serif'" font-size="12" lengthAdjust="spacing" textLength="77.9128" x="835.3122" y="537.5676">Tools registry</text><text fill="#0E1014" font-family="'Inter, Helvetica, sans-serif'" font-size="12" lengthAdjust="spacing" textLength="58.1576" x="835.3122" y="552.0899">(models.*,</text><text fill="#0E1014" font-family="'Inter, Helvetica, sans-serif'" font-size="12" lengthAdjust="spacing" textLength="64.8392" x="835.3122" y="566.6123">tags.*, hf.*,</text><text fill="#0E1014" font-family="'Inter, Helvetica, sans-serif'" font-size="12" lengthAdjust="spacing" textLength="104.0769" x="835.3122" y="581.1347">hardware.*, route)</text></g><!--entity ROUTING--><g class="entity" data-qualified-name="MAESTRIA.Main process.ROUTING" data-source-line="15" id="ent0016"><rect fill="#FFFFFF" height="73.5671" rx="4" ry="4" style="stroke:#0E1014;stroke-width:0.5;" width="132.8443" x="972.8122" y="669.9429"/><rect fill="#FFFFFF" height="10" style="stroke:#0E1014;stroke-width:0.5;" width="15" x="1085.6564" y="674.9429"/><rect fill="#FFFFFF" height="2" style="stroke:#0E1014;stroke-width:0.5;" width="4" x="1083.6564" y="676.9429"/><rect fill="#FFFFFF" height="2" style="stroke:#0E1014;stroke-width:0.5;" width="4" x="1083.6564" y="680.9429"/><text fill="#0E1014" font-family="'Inter, Helvetica, sans-serif'" font-size="12" lengthAdjust="spacing" textLength="43.3455" x="987.8122" y="701.5676">Routing</text><text fill="#0E1014" font-family="'Inter, Helvetica, sans-serif'" font-size="12" lengthAdjust="spacing" textLength="92.8443" x="987.8122" y="716.0899">(routeByVectors</text><text fill="#0E1014" font-family="'Inter, Helvetica, sans-serif'" font-size="12" lengthAdjust="spacing" textLength="78.2025" x="987.8122" y="730.6123">+ R5 fallback)</text></g><!--entity CHARACT--><g class="entity" data-qualified-name="MAESTRIA.Main process.CHARACT" data-source-line="16" id="ent0017"><rect fill="#FFFFFF" height="73.5671" rx="4" ry="4" style="stroke:#0E1014;stroke-width:0.5;" width="133.8328" x="629.3122" y="669.9429"/><rect fill="#FFFFFF" height="10" style="stroke:#0E1014;stroke-width:0.5;" width="15" x="743.145" y="674.9429"/><rect fill="#FFFFFF" height="2" style="stroke:#0E1014;stroke-width:0.5;" width="4" x="741.145" y="676.9429"/><rect fill="#FFFFFF" height="2" style="stroke:#0E1014;stroke-width:0.5;" width="4" x="741.145" y="680.9429"/><text fill="#0E1014" font-family="'Inter, Helvetica, sans-serif'" font-size="12" lengthAdjust="spacing" textLength="93.8328" x="644.3122" y="701.5676">Characterization</text><text fill="#0E1014" font-family="'Inter, Helvetica, sans-serif'" font-size="12" lengthAdjust="spacing" textLength="74.4015" x="644.3122" y="716.0899">runner + tree</text><text fill="#0E1014" font-family="'Inter, Helvetica, sans-serif'" font-size="12" lengthAdjust="spacing" textLength="62.7257" x="644.3122" y="730.6123">+ staircase</text></g><!--entity SANDBOX--><g class="entity" data-qualified-name="MAESTRIA.Main process.SANDBOX" data-source-line="17" id="ent0018"><rect fill="#FFFFFF" height="88.0894" rx="4" ry="4" style="stroke:#0E1014;stroke-width:0.5;" width="142.1508" x="629.3122" y="834.9429"/><rect fill="#FFFFFF" height="10" style="stroke:#0E1014;stroke-width:0.5;" width="15" x="751.463" y="839.9429"/><rect fill="#FFFFFF" height="2" style="stroke:#0E1014;stroke-width:0.5;" width="4" x="749.463" y="841.9429"/><rect fill="#FFFFFF" height="2" style="stroke:#0E1014;stroke-width:0.5;" width="4" x="749.463" y="845.9429"/><text fill="#0E1014" font-family="'Inter, Helvetica, sans-serif'" font-size="12" lengthAdjust="spacing" textLength="102.1508" x="644.3122" y="866.5676">Sandbox dispatch</text><text fill="#0E1014" font-family="'Inter, Helvetica, sans-serif'" font-size="12" lengthAdjust="spacing" textLength="84.7308" x="644.3122" y="881.0899">(POSIX rlimits /</text><text fill="#0E1014" font-family="'Inter, Helvetica, sans-serif'" font-size="12" lengthAdjust="spacing" textLength="94.259" x="644.3122" y="895.6123">Win Job Object /</text><text fill="#0E1014" font-family="'Inter, Helvetica, sans-serif'" font-size="12" lengthAdjust="spacing" textLength="44.6239" x="644.3122" y="910.1347">Unsafe)</text></g><!--entity EMBED_LC--><g class="entity" data-qualified-name="MAESTRIA.Main process.EMBED_LC" data-source-line="18" id="ent0019"><rect fill="#FFFFFF" height="73.5671" rx="4" ry="4" style="stroke:#0E1014;stroke-width:0.5;" width="98.3962" x="969.3122" y="841.9429"/><rect fill="#FFFFFF" height="10" style="stroke:#0E1014;stroke-width:0.5;" width="15" x="1047.7084" y="846.9429"/><rect fill="#FFFFFF" height="2" style="stroke:#0E1014;stroke-width:0.5;" width="4" x="1045.7084" y="848.9429"/><rect fill="#FFFFFF" height="2" style="stroke:#0E1014;stroke-width:0.5;" width="4" x="1045.7084" y="852.9429"/><text fill="#0E1014" font-family="'Inter, Helvetica, sans-serif'" font-size="12" lengthAdjust="spacing" textLength="58.3962" x="984.3122" y="873.5676">Embedder</text><text fill="#0E1014" font-family="'Inter, Helvetica, sans-serif'" font-size="12" lengthAdjust="spacing" textLength="46.925" x="984.3122" y="888.0899">lifecycle</text><text fill="#0E1014" font-family="'Inter, Helvetica, sans-serif'" font-size="12" lengthAdjust="spacing" textLength="51.5612" x="984.3122" y="902.6123">(slice 7e)</text></g><!--entity RUNNERS--><g class="entity" data-qualified-name="MAESTRIA.Main process.RUNNERS" data-source-line="19" id="ent0020"><rect fill="#FFFFFF" height="73.5671" rx="4" ry="4" style="stroke:#0E1014;stroke-width:0.5;" width="126.9126" x="806.8122" y="841.9429"/><rect fill="#FFFFFF" height="10" style="stroke:#0E1014;stroke-width:0.5;" width="15" x="913.7247" y="846.9429"/><rect fill="#FFFFFF" height="2" style="stroke:#0E1014;stroke-width:0.5;" width="4" x="911.7247" y="848.9429"/><rect fill="#FFFFFF" height="2" style="stroke:#0E1014;stroke-width:0.5;" width="4" x="911.7247" y="852.9429"/><text fill="#0E1014" font-family="'Inter, Helvetica, sans-serif'" font-size="12" lengthAdjust="spacing" textLength="86.9126" x="821.8122" y="873.5676">Runner registry</text><text fill="#0E1014" font-family="'Inter, Helvetica, sans-serif'" font-size="12" lengthAdjust="spacing" textLength="62.6234" x="821.8122" y="888.0899">+ launch.ts</text><text fill="#0E1014" font-family="'Inter, Helvetica, sans-serif'" font-size="12" lengthAdjust="spacing" textLength="79.7366" x="821.8122" y="902.6123">(llama-server)</text></g><!--entity USER--><g class="entity" data-qualified-name="USER" data-source-line="4" id="ent0001"><ellipse cx="19.3122" cy="336.4429" fill="#FFFFFF" rx="8" ry="8" style="stroke:#0E1014;stroke-width:0.5;"/><path d="M19.3122,344.4429 L19.3122,371.4429 M6.3122,352.4429 L32.3122,352.4429 M19.3122,371.4429 L6.3122,386.4429 M19.3122,371.4429 L32.3122,386.4429" fill="none" style="stroke:#0E1014;stroke-width:0.5;"/><text fill="#000000" font-family="'Inter, Helvetica, sans-serif'" font-size="12" lengthAdjust="spacing" textLength="26.6243" x="6" y="399.5676">User</text></g><!--entity MCP_CLIENT--><g class="entity" data-qualified-name="MCP_CLIENT" data-source-line="5" id="ent0002"><ellipse cx="892.3878" cy="51.9429" fill="#FFFFFF" rx="8" ry="8" style="stroke:#0E1014;stroke-width:0.5;"/><path d="M892.3878,59.9429 L892.3878,86.9429 M879.3878,67.9429 L905.3878,67.9429 M892.3878,86.9429 L879.3878,101.9429 M892.3878,86.9429 L905.3878,101.9429" fill="none" style="stroke:#0E1014;stroke-width:0.5;"/><text fill="#000000" font-family="'Inter, Helvetica, sans-serif'" font-size="12" lengthAdjust="spacing" textLength="63.1859" x="851.8122" y="115.0676">MCP Client</text><text fill="#000000" font-family="'Inter, Helvetica, sans-serif'" font-size="12" lengthAdjust="spacing" textLength="81.1513" x="851.8122" y="129.5899">(Claude Code,</text><text fill="#000000" font-family="'Inter, Helvetica, sans-serif'" font-size="12" lengthAdjust="spacing" textLength="41.4194" x="851.8122" y="144.1123">Cursor,</text><text fill="#000000" font-family="'Inter, Helvetica, sans-serif'" font-size="12" lengthAdjust="spacing" textLength="76.4299" x="851.8122" y="158.6347">deer-flow, &#8230;)</text></g><!--entity LLAMA_CHAT--><g class="entity" data-qualified-name="LLAMA_CHAT" data-source-line="6" id="ent0003"><polygon fill="#1A1D24" points="814.3122,1073.4429,824.3122,1063.4429,926.174,1063.4429,926.174,1112.4876,916.174,1122.4876,814.3122,1122.4876,814.3122,1073.4429" style="stroke:#0E1014;stroke-width:0.5;stroke-linejoin:miter;stroke-miterlimit:10;"/><line style="stroke:#0E1014;stroke-width:0.5;" x1="916.174" x2="926.174" y1="1073.4429" y2="1063.4429"/><line style="stroke:#0E1014;stroke-width:0.5;" x1="814.3122" x2="916.174" y1="1073.4429" y2="1073.4429"/><line style="stroke:#0E1014;stroke-width:0.5;" x1="916.174" x2="916.174" y1="1073.4429" y2="1122.4876"/><text fill="#F4EEE3" font-family="'Inter, Helvetica, sans-serif'" font-size="12" lengthAdjust="spacing" textLength="71.0436" x="829.3122" y="1095.0676">llama-server</text><text fill="#F4EEE3" font-family="'Inter, Helvetica, sans-serif'" font-size="12" lengthAdjust="spacing" textLength="71.8618" x="829.3122" y="1109.5899">(chat model)</text></g><!--entity LLAMA_EMBED--><g class="entity" data-qualified-name="LLAMA_EMBED" data-source-line="7" id="ent0004"><polygon fill="#1A1D24" points="961.3122,1065.9429,971.3122,1055.9429,1111.7298,1055.9429,1111.7298,1119.51,1101.7298,1129.51,961.3122,1129.51,961.3122,1065.9429" style="stroke:#0E1014;stroke-width:0.5;stroke-linejoin:miter;stroke-miterlimit:10;"/><line style="stroke:#0E1014;stroke-width:0.5;" x1="1101.7298" x2="1111.7298" y1="1065.9429" y2="1055.9429"/><line style="stroke:#0E1014;stroke-width:0.5;" x1="961.3122" x2="1101.7298" y1="1065.9429" y2="1065.9429"/><line style="stroke:#0E1014;stroke-width:0.5;" x1="1101.7298" x2="1101.7298" y1="1065.9429" y2="1129.51"/><text fill="#F4EEE3" font-family="'Inter, Helvetica, sans-serif'" font-size="12" lengthAdjust="spacing" textLength="71.0436" x="976.3122" y="1087.5676">llama-server</text><text fill="#F4EEE3" font-family="'Inter, Helvetica, sans-serif'" font-size="12" lengthAdjust="spacing" textLength="74.981" x="976.3122" y="1102.0899">--embedding</text><text fill="#F4EEE3" font-family="'Inter, Helvetica, sans-serif'" font-size="12" lengthAdjust="spacing" textLength="110.4176" x="976.3122" y="1116.6123">(routing embedder)</text></g><!--entity PYTHON_SANDBOX--><g class="entity" data-qualified-name="PYTHON_SANDBOX" data-source-line="8" id="ent0005"><polygon fill="#1A1D24" points="617.3122,1073.4429,627.3122,1063.4429,779.5079,1063.4429,779.5079,1112.4876,769.5079,1122.4876,617.3122,1122.4876,617.3122,1073.4429" style="stroke:#0E1014;stroke-width:0.5;stroke-linejoin:miter;stroke-miterlimit:10;"/><line style="stroke:#0E1014;stroke-width:0.5;" x1="769.5079" x2="779.5079" y1="1073.4429" y2="1063.4429"/><line style="stroke:#0E1014;stroke-width:0.5;" x1="617.3122" x2="769.5079" y1="1073.4429" y2="1073.4429"/><line style="stroke:#0E1014;stroke-width:0.5;" x1="769.5079" x2="769.5079" y1="1073.4429" y2="1122.4876"/><text fill="#F4EEE3" font-family="'Inter, Helvetica, sans-serif'" font-size="12" lengthAdjust="spacing" textLength="47.2659" x="632.3122" y="1095.0676">python3</text><text fill="#F4EEE3" font-family="'Inter, Helvetica, sans-serif'" font-size="12" lengthAdjust="spacing" textLength="122.1957" x="632.3122" y="1109.5899">(sandboxed, slice 2d)</text></g><!--entity SIDECARS--><g class="entity" data-qualified-name="SIDECARS" data-source-line="9" id="ent0006"><path d="M1197.8122,852.4429 C1197.8122,842.4429 1242.4903,842.4429 1242.4903,842.4429 C1242.4903,842.4429 1287.1684,842.4429 1287.1684,852.4429 L1287.1684,905.01 C1287.1684,915.01 1242.4903,915.01 1242.4903,915.01 C1242.4903,915.01 1197.8122,915.01 1197.8122,905.01 L1197.8122,852.4429" fill="#E6DFD2" style="stroke:#0E1014;stroke-width:0.5;"/><path d="M1197.8122,852.4429 C1197.8122,862.4429 1242.4903,862.4429 1242.4903,862.4429 C1242.4903,862.4429 1287.1684,862.4429 1287.1684,852.4429" fill="none" style="stroke:#0E1014;stroke-width:0.5;"/><text fill="#000000" font-family="'Inter, Helvetica, sans-serif'" font-size="12" lengthAdjust="spacing" textLength="69.3562" x="1207.8122" y="878.0676">.ts/ sidecars</text><text fill="#000000" font-family="'Inter, Helvetica, sans-serif'" font-size="12" lengthAdjust="spacing" textLength="66.9869" x="1207.8122" y="892.5899">(signatures,</text><text fill="#000000" font-family="'Inter, Helvetica, sans-serif'" font-size="12" lengthAdjust="spacing" textLength="57.6633" x="1207.8122" y="907.1123">autoTags)</text></g><!--entity HF--><g class="entity" data-qualified-name="HF" data-source-line="10" id="ent0007"><path d="M1186.3122,687.9429 C1186.3122,677.9429 1241.1491,677.9429 1241.1491,677.9429 C1241.1491,677.9429 1295.986,677.9429 1295.986,687.9429 L1295.986,725.9876 C1295.986,735.9876 1241.1491,735.9876 1241.1491,735.9876 C1241.1491,735.9876 1186.3122,735.9876 1186.3122,725.9876 L1186.3122,687.9429" fill="#E6DFD2" style="stroke:#0E1014;stroke-width:0.5;"/><path d="M1186.3122,687.9429 C1186.3122,697.9429 1241.1491,697.9429 1241.1491,697.9429 C1241.1491,697.9429 1295.986,697.9429 1295.986,687.9429" fill="none" style="stroke:#0E1014;stroke-width:0.5;"/><text fill="#000000" font-family="'Inter, Helvetica, sans-serif'" font-size="12" lengthAdjust="spacing" textLength="78.5264" x="1196.3122" y="713.5676">Hugging Face</text><text fill="#000000" font-family="'Inter, Helvetica, sans-serif'" font-size="12" lengthAdjust="spacing" textLength="89.6739" x="1196.3122" y="728.0899">(metadata only)</text></g><g class="entity" data-qualified-name="GMN41" data-source-line="49" id="ent0042"><path d="M1186.8122,519.9429 L1186.8122,580.0323 A4,4 0 0 0 1190.8122,584.0323 L1389.8074,584.0323 A4,4 0 0 0 1393.8074,580.0323 L1393.8074,525.9429 L1383.8074,515.9429 L1190.8122,515.9429 A4,4 0 0 0 1186.8122,519.9429" fill="#FFFDF6" style="stroke:#C68A3A;stroke-width:0.5;"/><path d="M1383.8074,515.9429 L1383.8074,523.9429 A2,2 0 0 0 1385.8074,525.9429 L1393.8074,525.9429 L1383.8074,515.9429" fill="#FFFDF6" style="stroke:#C68A3A;stroke-width:1;"/><text fill="#0E1014" font-family="'Inter, Helvetica, sans-serif'" font-size="12" lengthAdjust="spacing" textLength="183.9839" x="1192.8122" y="532.5676">100% local, offline, no telemetry.</text><text fill="#0E1014" font-family="'Inter, Helvetica, sans-serif'" font-size="12" lengthAdjust="spacing" textLength="185.9953" x="1192.8122" y="547.0899">llama-server + python (sandbox)</text><text fill="#0E1014" font-family="'Inter, Helvetica, sans-serif'" font-size="12" lengthAdjust="spacing" textLength="159.8823" x="1192.8122" y="561.6123">are child processes; nothing</text><text fill="#0E1014" font-family="'Inter, Helvetica, sans-serif'" font-size="12" lengthAdjust="spacing" textLength="133.3261" x="1192.8122" y="576.1347">binds outside 127.0.0.1.</text></g><!--link USER to UI_PANEL--><g class="link" data-entity-1="ent0001" data-entity-2="ent0010" data-link-type="dependency" data-source-line="23" id="lnk21"><path d="M32.9822,382.9629 C58.6822,414.0229 111.305,477.6204 143.305,516.3004" fill="none" id="USER-to-UI_PANEL" style="stroke:#1A1D24;stroke-width:1;"/><polygon fill="#1A1D24" points="146.4922,520.1529,143.8372,510.6686,143.305,516.3004,137.6732,515.7681,146.4922,520.1529" style="stroke:#1A1D24;stroke-width:1;stroke-linejoin:miter;stroke-miterlimit:10;"/><text fill="#000000" font-family="'Inter, Helvetica, sans-serif'" font-size="12" lengthAdjust="spacing" textLength="77.5037" x="101.3122" y="453.0676">opens a .gguf</text></g><!--link USER to UI_SETTINGS--><g class="link" data-entity-1="ent0001" data-entity-2="ent0012" data-link-type="dependency" data-source-line="24" id="lnk22"><path d="M33.1622,367.1329 C88.6022,370.4429 298.5422,388.1729 443.3122,471.9429 C463.5322,483.6429 478.5861,498.6295 491.9061,514.7395" fill="none" id="USER-to-UI_SETTINGS" style="stroke:#1A1D24;stroke-width:1;"/><polygon fill="#1A1D24" points="495.0922,518.5929,492.44,509.1079,491.9061,514.7395,486.2745,514.2056,495.0922,518.5929" style="stroke:#1A1D24;stroke-width:1;stroke-linejoin:miter;stroke-miterlimit:10;"/><text fill="#000000" font-family="'Inter, Helvetica, sans-serif'" font-size="12" lengthAdjust="spacing" textLength="123.031" x="424.3122" y="445.5676">configure embedder /</text><text fill="#000000" font-family="'Inter, Helvetica, sans-serif'" font-size="12" lengthAdjust="spacing" textLength="86.1967" x="442.7293" y="460.0899">sandbox opt-in</text></g><!--link UI_PANEL to CHARACT--><g class="link" data-entity-1="ent0010" data-entity-2="ent0017" data-link-type="dependency" data-source-line="25" id="lnk23"><path d="M203.0722,579.4729 C217.6022,590.7929 235.4422,602.9929 253.3122,610.9429 C379.0822,666.8929 534.9402,690.2139 624.1302,699.7039" fill="none" id="UI_PANEL-to-CHARACT" style="stroke:#1A1D24;stroke-width:1;"/><polygon fill="#1A1D24" points="629.1022,700.2329,620.5759,695.3031,624.1302,699.7039,619.7295,703.2582,629.1022,700.2329" style="stroke:#1A1D24;stroke-width:1;stroke-linejoin:miter;stroke-miterlimit:10;"/><text fill="#000000" font-family="'Inter, Helvetica, sans-serif'" font-size="12" lengthAdjust="spacing" textLength="70.6346" x="323.3122" y="636.5676">characterize</text></g><!--link UI_PANEL to RUNNERS--><g class="link" data-entity-1="ent0010" data-entity-2="ent0020" data-link-type="dependency" data-source-line="26" id="lnk24"><path d="M201.0522,579.8129 C222.0122,598.5129 251.0022,622.5429 279.3122,639.9429 C433.4022,734.6529 479.4322,748.6429 651.3122,804.9429 C710.5522,824.3429 729.7422,813.6129 788.3122,834.9429 C794.3522,837.1429 795.9593,837.6361 802.0393,840.3961" fill="none" id="UI_PANEL-to-RUNNERS" style="stroke:#1A1D24;stroke-width:1;"/><polygon fill="#1A1D24" points="806.5922,842.4629,800.0504,835.1004,802.0393,840.3961,796.7436,842.385,806.5922,842.4629" style="stroke:#1A1D24;stroke-width:1;stroke-linejoin:miter;stroke-miterlimit:10;"/><text fill="#000000" font-family="'Inter, Helvetica, sans-serif'" font-size="12" lengthAdjust="spacing" textLength="58.6519" x="474.3122" y="711.5676">Run (chat)</text></g><!--link UI_RADAR to CHARACT--><g class="link" data-entity-1="ent0011" data-entity-2="ent0017" data-link-type="dependency" data-source-line="27" id="lnk25"><path d="M401.4622,587.1829 C414.8222,595.5329 429.3422,603.9929 443.3122,610.9429 C504.2322,641.2229 572.567,666.107 624.477,683.347" fill="none" id="UI_RADAR-to-CHARACT" style="stroke:#1A1D24;stroke-width:1;"/><polygon fill="#1A1D24" points="629.2222,684.9229,621.9416,678.2901,624.477,683.347,619.4202,685.8823,629.2222,684.9229" style="stroke:#1A1D24;stroke-width:1;stroke-linejoin:miter;stroke-miterlimit:10;"/><text fill="#000000" font-family="'Inter, Helvetica, sans-serif'" font-size="12" lengthAdjust="spacing" textLength="87.6114" x="505.3122" y="636.5676">re-characterize</text></g><!--link MCP_CLIENT to MCP_SERVER--><g class="link" data-entity-1="ent0002" data-entity-2="ent0014" data-link-type="dependency" data-source-line="29" id="lnk26"><path d="M892.3122,161.6929 C892.3122,212.6229 892.3122,279.9929 892.3122,323.0829" fill="none" id="MCP_CLIENT-to-MCP_SERVER" style="stroke:#1A1D24;stroke-width:1;"/><polygon fill="#1A1D24" points="892.3122,328.0829,896.3122,319.0829,892.3122,323.0829,888.3122,319.0829,892.3122,328.0829" style="stroke:#1A1D24;stroke-width:1;stroke-linejoin:miter;stroke-miterlimit:10;"/><text fill="#000000" font-family="'Inter, Helvetica, sans-serif'" font-size="12" lengthAdjust="spacing" textLength="62.2995" x="902.9682" y="204.0676">HTTP+SSE</text><text fill="#000000" font-family="'Inter, Helvetica, sans-serif'" font-size="12" lengthAdjust="spacing" textLength="81.6116" x="893.3122" y="218.5899">(Bearer token)</text></g><!--link MCP_SERVER to REGISTRY--><g class="link" data-entity-1="ent0014" data-entity-2="ent0015" data-link-type="dependency" data-source-line="30" id="lnk27"><path d="M892.3122,402.5029 C892.3122,432.2129 892.3122,469.4229 892.3122,500.9029" fill="none" id="MCP_SERVER-to-REGISTRY" style="stroke:#1A1D24;stroke-width:1;"/><polygon fill="#1A1D24" points="892.3122,505.9029,896.3122,496.9029,892.3122,500.9029,888.3122,496.9029,892.3122,505.9029" style="stroke:#1A1D24;stroke-width:1;stroke-linejoin:miter;stroke-miterlimit:10;"/></g><!--link REGISTRY to ROUTING--><g class="link" data-entity-1="ent0015" data-entity-2="ent0016" data-link-type="dependency" data-source-line="31" id="lnk28"><path d="M933.2622,594.1229 C955.8622,617.9429 980.1609,643.5755 1001.6009,666.1755" fill="none" id="REGISTRY-to-ROUTING" style="stroke:#1A1D24;stroke-width:1;"/><polygon fill="#1A1D24" points="1005.0422,669.8029,1001.7499,660.5206,1001.6009,666.1755,995.9461,666.0265,1005.0422,669.8029" style="stroke:#1A1D24;stroke-width:1;stroke-linejoin:miter;stroke-miterlimit:10;"/><text fill="#000000" font-family="'Inter, Helvetica, sans-serif'" font-size="12" lengthAdjust="spacing" textLength="74.4015" x="976.3122" y="636.5676">models.route</text></g><!--link REGISTRY to CHARACT--><g class="link" data-entity-1="ent0015" data-entity-2="ent0017" data-link-type="dependency" data-source-line="32" id="lnk29"><path d="M820.2022,587.1129 C801.8022,597.8129 782.6322,610.3529 766.3122,623.9429 C750.3522,637.2429 738.2003,650.5223 726.0103,665.7223" fill="none" id="REGISTRY-to-CHARACT" style="stroke:#1A1D24;stroke-width:1;"/><polygon fill="#1A1D24" points="722.8822,669.6229,731.6333,665.1044,726.0103,665.7223,725.3924,660.0993,722.8822,669.6229" style="stroke:#1A1D24;stroke-width:1;stroke-linejoin:miter;stroke-miterlimit:10;"/><text fill="#000000" font-family="'Inter, Helvetica, sans-serif'" font-size="12" lengthAdjust="spacing" textLength="56.1633" x="767.3122" y="636.5676">(via tools)</text></g><!--link REGISTRY to RUNNERS--><g class="link" data-entity-1="ent0015" data-entity-2="ent0020" data-link-type="dependency" data-source-line="33" id="lnk30"><path d="M865.2022,593.9429 C842.4222,636.1429 818.4122,700.3229 851.3122,743.9429 C880.5422,782.6929 927.0822,735.1929 956.3122,773.9429 C964.6122,784.9429 962.1022,792.4429 956.3122,804.9429 C949.8122,818.9829 942.8733,827.9957 931.2233,838.3257" fill="none" id="REGISTRY-to-RUNNERS" style="stroke:#1A1D24;stroke-width:1;"/><polygon fill="#1A1D24" points="927.4822,841.6429,936.87,838.6648,931.2233,838.3257,931.5624,832.679,927.4822,841.6429" style="stroke:#1A1D24;stroke-width:1;stroke-linejoin:miter;stroke-miterlimit:10;"/><text fill="#000000" font-family="'Inter, Helvetica, sans-serif'" font-size="12" lengthAdjust="spacing" textLength="102.3553" x="852.3122" y="711.5676">models.run / .stop</text></g><!--link CHARACT to RUNNERS--><g class="link" data-entity-1="ent0017" data-entity-2="ent0020" data-link-type="dependency" data-source-line="35" id="lnk31"><path d="M717.9022,744.3429 C730.3322,763.6029 747.0922,786.9229 765.3122,804.9429 C778.8822,818.3729 791.0847,828.1618 806.7447,839.0318" fill="none" id="CHARACT-to-RUNNERS" style="stroke:#1A1D24;stroke-width:1;"/><polygon fill="#1A1D24" points="810.8522,841.8829,805.7396,833.4649,806.7447,839.0318,801.1779,840.0369,810.8522,841.8829" style="stroke:#1A1D24;stroke-width:1;stroke-linejoin:miter;stroke-miterlimit:10;"/><text fill="#000000" font-family="'Inter, Helvetica, sans-serif'" font-size="12" lengthAdjust="spacing" textLength="61.4473" x="766.3122" y="786.5676">ensure live</text><text fill="#000000" font-family="'Inter, Helvetica, sans-serif'" font-size="12" lengthAdjust="spacing" textLength="51.6123" x="771.2297" y="801.0899">chat URL</text></g><!--link CHARACT to EMBED_LC--><g class="link" data-entity-1="ent0017" data-entity-2="ent0019" data-link-type="dependency" data-source-line="36" id="lnk32"><path d="M763.5022,738.6929 C815.6022,763.1829 889.1522,799.1729 951.3122,834.9429 C957.1822,838.3229 959.0114,839.3501 965.0014,843.0601" fill="none" id="CHARACT-to-EMBED_LC" style="stroke:#1A1D24;stroke-width:1;"/><polygon fill="#1A1D24" points="969.2522,845.6929,963.7071,837.5534,965.0014,843.0601,959.4947,844.3545,969.2522,845.6929" style="stroke:#1A1D24;stroke-width:1;stroke-linejoin:miter;stroke-miterlimit:10;"/><text fill="#000000" font-family="'Inter, Helvetica, sans-serif'" font-size="12" lengthAdjust="spacing" textLength="82.2252" x="898.3122" y="786.5676">optional probe</text><text fill="#000000" font-family="'Inter, Helvetica, sans-serif'" font-size="12" lengthAdjust="spacing" textLength="51.2714" x="913.789" y="801.0899">(slice 7c)</text></g><!--link CHARACT to SANDBOX--><g class="link" data-entity-1="ent0017" data-entity-2="ent0018" data-link-type="dependency" data-source-line="37" id="lnk33"><path d="M673.1622,744.0129 C668.2822,753.3929 663.8522,763.7529 661.3122,773.9429 C657.9822,787.3129 657.9622,791.5729 661.3122,804.9429 C663.8222,814.9829 665.778,820.6698 670.488,830.0998" fill="none" id="CHARACT-to-SANDBOX" style="stroke:#1A1D24;stroke-width:1;"/><polygon fill="#1A1D24" points="672.7222,834.5729,672.2791,824.734,670.488,830.0998,665.1222,828.3087,672.7222,834.5729" style="stroke:#1A1D24;stroke-width:1;stroke-linejoin:miter;stroke-miterlimit:10;"/><text fill="#000000" font-family="'Inter, Helvetica, sans-serif'" font-size="12" lengthAdjust="spacing" textLength="62.078" x="662.3122" y="786.5676">code-tests</text><text fill="#000000" font-family="'Inter, Helvetica, sans-serif'" font-size="12" lengthAdjust="spacing" textLength="52.4305" x="667.1359" y="801.0899">(slice 2d)</text></g><!--link ROUTING to EMBED_LC--><g class="link" data-entity-1="ent0016" data-entity-2="ent0019" data-link-type="dependency" data-source-line="38" id="lnk34"><path d="M1018.1322,744.2129 C1013.6722,753.5929 1009.6222,763.8929 1007.3122,773.9429 C1002.2322,796.0629 1003.7807,816.4643 1007.6807,836.5843" fill="none" id="ROUTING-to-EMBED_LC" style="stroke:#1A1D24;stroke-width:1;"/><polygon fill="#1A1D24" points="1008.6322,841.4929,1010.8464,831.8962,1007.6807,836.5843,1002.9926,833.4185,1008.6322,841.4929" style="stroke:#1A1D24;stroke-width:1;stroke-linejoin:miter;stroke-miterlimit:10;"/><text fill="#000000" font-family="'Inter, Helvetica, sans-serif'" font-size="12" lengthAdjust="spacing" textLength="75.6288" x="1008.3122" y="786.5676">project query</text><text fill="#000000" font-family="'Inter, Helvetica, sans-serif'" font-size="12" lengthAdjust="spacing" textLength="51.5612" x="1020.346" y="801.0899">(slice 7e)</text></g><!--link RUNNERS to LLAMA_CHAT--><g class="link" data-entity-1="ent0020" data-entity-2="ent0003" data-link-type="dependency" data-source-line="40" id="lnk35"><path d="M870.3122,916.3829 C870.3122,958.0629 870.3122,1020.4129 870.3122,1058.4329" fill="none" id="RUNNERS-to-LLAMA_CHAT" style="stroke:#1A1D24;stroke-width:1;"/><polygon fill="#1A1D24" points="870.3122,1063.4329,874.3122,1054.4329,870.3122,1058.4329,866.3122,1054.4329,870.3122,1063.4329" style="stroke:#1A1D24;stroke-width:1;stroke-linejoin:miter;stroke-miterlimit:10;"/><text fill="#000000" font-family="'Inter, Helvetica, sans-serif'" font-size="12" lengthAdjust="spacing" textLength="37.1241" x="871.3122" y="1015.0676">spawn</text></g><!--link EMBED_LC to LLAMA_EMBED--><g class="link" data-entity-1="ent0019" data-entity-2="ent0004" data-link-type="dependency" data-source-line="41" id="lnk36"><path d="M1021.4022,916.3829 C1024.7122,955.3329 1029.4984,1011.7309 1032.8084,1050.6409" fill="none" id="EMBED_LC-to-LLAMA_EMBED" style="stroke:#1A1D24;stroke-width:1;"/><polygon fill="#1A1D24" points="1033.2322,1055.6229,1036.4549,1046.3162,1032.8084,1050.6409,1028.4837,1046.9943,1033.2322,1055.6229" style="stroke:#1A1D24;stroke-width:1;stroke-linejoin:miter;stroke-miterlimit:10;"/><text fill="#000000" font-family="'Inter, Helvetica, sans-serif'" font-size="12" lengthAdjust="spacing" textLength="37.1241" x="1051.2406" y="1007.5676">spawn</text><text fill="#000000" font-family="'Inter, Helvetica, sans-serif'" font-size="12" lengthAdjust="spacing" textLength="74.981" x="1032.3122" y="1022.0899">--embedding</text></g><!--link SANDBOX to PYTHON_SANDBOX--><g class="link" data-entity-1="ent0018" data-entity-2="ent0005" data-link-type="dependency" data-source-line="42" id="lnk37"><path d="M699.9022,923.1029 C699.5122,964.9929 698.9693,1022.3731 698.6293,1058.4131" fill="none" id="SANDBOX-to-PYTHON_SANDBOX" style="stroke:#1A1D24;stroke-width:1;"/><polygon fill="#1A1D24" points="698.5822,1063.4129,702.6669,1054.451,698.6293,1058.4131,694.6672,1054.3756,698.5822,1063.4129" style="stroke:#1A1D24;stroke-width:1;stroke-linejoin:miter;stroke-miterlimit:10;"/><text fill="#000000" font-family="'Inter, Helvetica, sans-serif'" font-size="12" lengthAdjust="spacing" textLength="44.692" x="700.3122" y="1007.5676">isolated</text><text fill="#000000" font-family="'Inter, Helvetica, sans-serif'" font-size="12" lengthAdjust="spacing" textLength="37.1241" x="704.0961" y="1022.0899">spawn</text></g><!--link CHARACT to SIDECARS--><g class="link" data-entity-1="ent0017" data-entity-2="ent0006" data-link-type="dependency" data-source-line="44" id="lnk38"><path d="M763.4122,736.0929 C772.3422,739.1129 781.4722,741.8429 790.3122,743.9429 C919.8322,774.6829 967.5922,717.8529 1088.3122,773.9429 C1106.2722,782.2829 1104.6022,792.8929 1120.3122,804.9429 C1144.5022,823.4929 1169.3771,838.7044 1193.1671,851.9944" fill="none" id="CHARACT-to-SIDECARS" style="stroke:#1A1D24;stroke-width:1;"/><polygon fill="#1A1D24" points="1197.5322,854.4329,1191.6258,846.5516,1193.1671,851.9944,1187.7243,853.5357,1197.5322,854.4329" style="stroke:#1A1D24;stroke-width:1;stroke-linejoin:miter;stroke-miterlimit:10;"/><text fill="#000000" font-family="'Inter, Helvetica, sans-serif'" font-size="12" lengthAdjust="spacing" textLength="84.799" x="1121.3122" y="794.0676">write signature</text></g><!--link ROUTING to SIDECARS--><g class="link" data-entity-1="ent0016" data-entity-2="ent0006" data-link-type="dependency" data-source-line="45" id="lnk39"><path d="M1106.0622,726.2229 C1148.8622,739.2029 1199.1522,757.2229 1214.3122,773.9429 C1231.1422,792.5029 1237.4072,815.1708 1240.1472,837.2808" fill="none" id="ROUTING-to-SIDECARS" style="stroke:#1A1D24;stroke-width:1;"/><polygon fill="#1A1D24" points="1240.7622,842.2429,1243.6249,832.8193,1240.1472,837.2808,1235.6857,833.8031,1240.7622,842.2429" style="stroke:#1A1D24;stroke-width:1;stroke-linejoin:miter;stroke-miterlimit:10;"/><text fill="#000000" font-family="'Inter, Helvetica, sans-serif'" font-size="12" lengthAdjust="spacing" textLength="82.0547" x="1232.3122" y="794.0676">read signature</text></g><!--link REGISTRY to HF--><g class="link" data-entity-1="ent0015" data-entity-2="ent0007" data-link-type="dependency" data-source-line="46" id="lnk40"><path d="M964.3122,582.2029 C993.7922,595.0629 1028.2222,610.1429 1059.3122,623.9429 C1101.9122,642.8529 1145.4374,662.4603 1181.4774,678.7803" fill="none" id="REGISTRY-to-HF" style="stroke:#1A1D24;stroke-width:1;"/><polygon fill="#1A1D24" points="1186.0322,680.8429,1179.4836,673.4865,1181.4774,678.7803,1176.1835,680.7741,1186.0322,680.8429" style="stroke:#1A1D24;stroke-width:1;stroke-linejoin:miter;stroke-miterlimit:10;"/><text fill="#000000" font-family="'Inter, Helvetica, sans-serif'" font-size="12" lengthAdjust="spacing" textLength="44.1978" x="1095.3122" y="636.5676">hf.fetch</text></g><!--link MAESTRIA to GMN41--><g class="link" data-entity-1="ent0008" data-entity-2="ent0042" data-link-type="association" data-source-line="49" id="lnk43"><path d="M1162.4699,377.392 C1164.0032,379.45 1165.7252,381.7613 1167.612,384.2937 C1175.1594,394.4232 1185.344,408.091 1196.6359,423.2441 C1219.2197,453.5504 1246.2322,489.7979 1265.4322,515.5629" fill="none" id="MAESTRIA-GMN41" style="stroke:#1A1D24;stroke-width:1;stroke-dasharray:7,7;"/></g><?plantuml-src RLNRZjis47tdLqm25B3hjNStI10W1GfelMhimZV8Tfe01WnA6jjiQ58bgTswHO1-HD5_w1_qlN-IB-bGDzyAFrWYpnpDd3b3lX0gaNcAiAuUxArr1uazaUybUt6zonEdZIstcHDE8emvMcS4Xwz__0d146mUsuDrk0VzXEP9u3DZ6Ky-yot2omRS2YKcpcW5FClQBu5R60VXV14D0_YT0JGH4QeK3HfeHKXV9wZV1aZqFjCAbIDIdQ8SvF6CAvGhrO6Xslpxjq6L83WU5-JBuNeMJCBHPMoV7j5vw9po4LgjL2jw0uQdt41dfPn1BD_QDKyKF0RH9SySdHDgQ-7hN_-G2Ylb_oET-yKwS1uk5iF9-pd5VZajSSo5Wipe1Atzl_BwCx2a91hAxVxLszuT_UxVlRv_y_h-PgKUa7jvUEvsbOxz6Nqg-X1U9RdGMbemk1NKX0EnxRrojlSjqJY-zG-msnIlEsxIPoBsIuRAm98x2jyFgKcVBfchIeco03ySFc3X5DyDadF3fOoft8faklGwNBM2laaTHYD-usKdJAuKbTO1tmLFPHqN9k4M2vx-88Y2_kAg5LobiVuLKc4pxf8T9JMRpeSVmKYn5yx2xKhzH8h_g6EOnZzJedvbgIpVL5NEWydZm_JZ9N6uZp5DVHkas61oI2GbrR9IaC_ULg7X-25yN8_wLmALfHorxu3akKfsFKSYjQJaUzujkro9j9nCmgZqoXV6bjHHw7Q_RumCxq1dg2nmw6st-UOCKJkDG8bM6x7D3G9MwVjgRQMHpbnNADQG-lXALXzxx0YUOwhi24E5GOk0hitgsRXWCTWz8sBUeFtHC9mi2kJHhmGUB1QppdmUaYQLiPt-ZAhDJb150hKHwuTojNGMyLJEBjnuZZacrdgYWyZvcMXVq3JLrJHKv2tqhDCPOpN1EP9QuKMMuebCuVM0PJGwmzRMA3hd3Swbd_hun4H9-ooYyc7HnHIxZivEsu1VfPHrLUy5FR4MjlubnsBC6uioLYVi8qQZO1oiwODU39gLPyKQakD-iLG3LghRBNr4qyxg_3nuzcanc4xMnvI5rP8xJCbi1VLvPSF7i1yKmZqRuH2is2hkIC6pcavW1dbwYZhjr-070j31jK4QTyQK9i9OEwVf3jeqzmgDqltTtJSWTSBb3Urif51u0qg3GubxfBdi4UXq5kdioGvkHzTKgngPDY78bpGRGgRrgOtsEw9nEoyAG2nKQe6SPmLTdis9tMDqbNaOily0?></g></svg>