<svg xmlns="http://www.w3.org/2000/svg" xmlns:xlink="http://www.w3.org/1999/xlink" contentStyleType="text/css" data-diagram-type="DESCRIPTION" height="1776px" preserveAspectRatio="none" style="width:720px;height:1776px;background:#F4EEE3;" version="1.1" viewBox="0 0 720 1776" width="720px" zoomAndPan="magnify"><?plantuml 1.2026.4?><defs/><g><rect fill="#F4EEE3" height="1776" style="stroke:none;stroke-width:1;" width="720" x="0" y="0"/><g class="title" data-source-line="4"><text fill="#000000" font-family="'Inter, Helvetica, sans-serif'" font-size="14" font-weight="700" lengthAdjust="spacing" textLength="358.2867" x="177.3566" y="23.5623">Use cases &#8212; who does what with the AI subsystem</text></g><!--cluster Maestria ? AI subsystem--><g class="cluster" data-qualified-name="Maestria . AI subsystem" data-source-line="8" id="ent0004"><rect fill="#F4EEE3" height="1362" rx="4" ry="4" style="stroke:#C68A3A;stroke-width:1;" width="549" x="157" y="294.8929"/><text fill="#000000" font-family="'Inter, Helvetica, sans-serif'" font-size="12" font-weight="700" lengthAdjust="spacing" textLength="151.752" x="355.624" y="308.5176">Maestria &#8212; AI subsystem</text></g><!--cluster UC_UI--><g class="cluster" data-qualified-name="Maestria . AI subsystem.UC_UI" data-source-line="10" id="ent0005"><path d="M186.5,822.8929 L264.6288,822.8929 A6,6 0 0 1 268.6288,826.8929 L275.6288,843.4152 L405.5,843.4152 A4,4 0 0 1 409.5,847.4152 L409.5,1218.8929 A4,4 0 0 1 405.5,1222.8929 L186.5,1222.8929 A4,4 0 0 1 182.5,1218.8929 L182.5,826.8929 A4,4 0 0 1 186.5,822.8929" fill="#F4EEE3" style="stroke:#C68A3A;stroke-width:1.5;"/><line style="stroke:#C68A3A;stroke-width:1.5;" x1="182.5" x2="275.6288" y1="843.4152" y2="843.4152"/><text fill="#0E1014" font-family="'Inter, Helvetica, sans-serif'" font-size="12" font-weight="700" lengthAdjust="spacing" textLength="80.1288" x="186.5" y="836.5176">Inf&#233;rence tab</text></g><!--cluster UC_SET--><g class="cluster" data-qualified-name="Maestria . AI subsystem.UC_SET" data-source-line="18" id="ent0011"><path d="M203,1246.8929 L277.3418,1246.8929 A6,6 0 0 1 281.3418,1250.8929 L288.3418,1268.8538 L389,1268.8538 A4,4 0 0 1 393,1272.8538 L393,1628.8929 A4,4 0 0 1 389,1632.8929 L203,1632.8929 A4,4 0 0 1 199,1628.8929 L199,1250.8929 A4,4 0 0 1 203,1246.8929" fill="#F4EEE3" style="stroke:#C68A3A;stroke-width:1.5;"/><line style="stroke:#C68A3A;stroke-width:1.5;" x1="199" x2="288.3418" y1="1268.8538" y2="1268.8538"/><text fill="#0E1014" font-family="'Inter, Helvetica, sans-serif'" font-size="12" font-weight="700" lengthAdjust="spacing" textLength="76.3418" x="203" y="1261.8421">Settings &#9656; AI</text></g><!--cluster UC_MCP_SURF--><g class="cluster" data-qualified-name="Maestria . AI subsystem.UC_MCP_SURF" data-source-line="26" id="ent0017"><path d="M185,335.8929 L259.6345,335.8929 A6,6 0 0 1 263.6345,339.8929 L270.6345,356.4152 L678,356.4152 A4,4 0 0 1 682,360.4152 L682,794.8929 A4,4 0 0 1 678,798.8929 L185,798.8929 A4,4 0 0 1 181,794.8929 L181,339.8929 A4,4 0 0 1 185,335.8929" fill="#F4EEE3" style="stroke:#C68A3A;stroke-width:1.5;"/><line style="stroke:#C68A3A;stroke-width:1.5;" x1="181" x2="270.6345" y1="356.4152" y2="356.4152"/><text fill="#0E1014" font-family="'Inter, Helvetica, sans-serif'" font-size="12" font-weight="700" lengthAdjust="spacing" textLength="76.6345" x="185" y="349.5176">MCP surface</text></g><!--entity UC_OPEN--><g class="entity" data-qualified-name="Maestria . AI subsystem.UC_UI.UC_OPEN" data-source-line="11" id="ent0006"><ellipse cx="295.7581" cy="873.9445" fill="#F1F1F1" rx="78.2581" ry="18.0516" style="stroke:#181818;stroke-width:0.5;"/><text fill="#000000" font-family="'Inter, Helvetica, sans-serif'" font-size="12" lengthAdjust="spacing" textLength="131.8432" x="229.8365" y="877.7057">Open a .gguf model file</text></g><!--entity UC_RUN--><g class="entity" data-qualified-name="Maestria . AI subsystem.UC_UI.UC_RUN" data-source-line="12" id="ent0007"><ellipse cx="296.0385" cy="949.1006" fill="#F1F1F1" rx="96.5385" ry="21.7077" style="stroke:#181818;stroke-width:0.5;"/><text fill="#000000" font-family="'Inter, Helvetica, sans-serif'" font-size="12" lengthAdjust="spacing" textLength="172.4104" x="209.8333" y="952.8618">Run a chat model (browser UI)</text></g><!--entity UC_CH--><g class="entity" data-qualified-name="Maestria . AI subsystem.UC_UI.UC_CH" data-source-line="13" id="ent0008"><ellipse cx="296.0055" cy="1027.794" fill="#F1F1F1" rx="97.5055" ry="21.9011" style="stroke:#181818;stroke-width:0.5;"/><text fill="#000000" font-family="'Inter, Helvetica, sans-serif'" font-size="12" lengthAdjust="spacing" textLength="174.5069" x="208.752" y="1031.5552">Characterize / Re-characterize</text></g><!--entity UC_RADAR--><g class="entity" data-qualified-name="Maestria . AI subsystem.UC_UI.UC_RADAR" data-source-line="14" id="ent0009"><ellipse cx="296.0032" cy="1107.0018" fill="#F1F1F1" rx="89.5032" ry="21.6089" style="stroke:#181818;stroke-width:0.5;"/><text fill="#000000" font-family="'Inter, Helvetica, sans-serif'" font-size="12" lengthAdjust="spacing" textLength="135.0136" x="228.4964" y="1106.3883">View competence radar</text><text fill="#000000" font-family="'Inter, Helvetica, sans-serif'" font-size="12" lengthAdjust="spacing" textLength="61.1234" x="265.4415" y="1120.9107">(R5 + tree)</text></g><!--entity UC_BULK--><g class="entity" data-qualified-name="Maestria . AI subsystem.UC_UI.UC_BULK" data-source-line="15" id="ent0010"><ellipse cx="296.2203" cy="1184.9509" fill="#F1F1F1" rx="65.7203" ry="21.558" style="stroke:#181818;stroke-width:0.5;"/><text fill="#000000" font-family="'Inter, Helvetica, sans-serif'" font-size="12" lengthAdjust="spacing" textLength="98.1623" x="247.1392" y="1184.419">Bulk characterize</text><text fill="#000000" font-family="'Inter, Helvetica, sans-serif'" font-size="12" lengthAdjust="spacing" textLength="41.9307" x="275.255" y="1198.9414">(folder)</text></g><!--entity UC_PICK_EMB--><g class="entity" data-qualified-name="Maestria . AI subsystem.UC_SET.UC_PICK_EMB" data-source-line="19" id="ent0012"><ellipse cx="295.8552" cy="1302.7057" fill="#F1F1F1" rx="79.3552" ry="21.8128" style="stroke:#181818;stroke-width:0.5;"/><text fill="#000000" font-family="'Inter, Helvetica, sans-serif'" font-size="12" lengthAdjust="spacing" textLength="117.8834" x="236.9135" y="1301.7689">Pick embedder .gguf</text><text fill="#000000" font-family="'Inter, Helvetica, sans-serif'" font-size="12" lengthAdjust="spacing" textLength="63.9188" x="263.8957" y="1316.2912">(file picker)</text></g><!--entity UC_OPT_SBX--><g class="entity" data-qualified-name="Maestria . AI subsystem.UC_SET.UC_OPT_SBX" data-source-line="20" id="ent0013"><ellipse cx="295.8522" cy="1594.0172" fill="#F1F1F1" rx="74.8522" ry="23.1243" style="stroke:#181818;stroke-width:0.5;"/><text fill="#000000" font-family="'Inter, Helvetica, sans-serif'" font-size="12" lengthAdjust="spacing" textLength="103.7019" x="244.0012" y="1591.108">Enable code-tests</text><text fill="#000000" font-family="'Inter, Helvetica, sans-serif'" font-size="12" lengthAdjust="spacing" textLength="94.8896" x="248.4074" y="1605.6303">sandbox (opt-in)</text></g><!--entity UC_MCP--><g class="entity" data-qualified-name="Maestria . AI subsystem.UC_SET.UC_MCP" data-source-line="21" id="ent0014"><ellipse cx="295.9308" cy="1378.0791" fill="#F1F1F1" rx="78.9308" ry="18.1862" style="stroke:#181818;stroke-width:0.5;"/><text fill="#000000" font-family="'Inter, Helvetica, sans-serif'" font-size="12" lengthAdjust="spacing" textLength="133.3773" x="229.2422" y="1381.8402">Start / stop MCP server</text></g><!--entity UC_COPY_CFG--><g class="entity" data-qualified-name="Maestria . AI subsystem.UC_SET.UC_COPY_CFG" data-source-line="22" id="ent0015"><ellipse cx="296.2388" cy="1450.0406" fill="#F1F1F1" rx="81.2388" ry="18.6478" style="stroke:#181818;stroke-width:0.5;"/><text fill="#000000" font-family="'Inter, Helvetica, sans-serif'" font-size="12" lengthAdjust="spacing" textLength="138.6101" x="226.9337" y="1453.8018">Copy MCP configuration</text></g><!--entity UC_HW--><g class="entity" data-qualified-name="Maestria . AI subsystem.UC_SET.UC_HW" data-source-line="23" id="ent0016"><ellipse cx="295.8001" cy="1519.7529" fill="#F1F1F1" rx="67.3001" ry="15.86" style="stroke:#181818;stroke-width:0.5;"/><text fill="#000000" font-family="'Inter, Helvetica, sans-serif'" font-size="12" lengthAdjust="spacing" textLength="106.1393" x="242.7305" y="1523.5141">Override hardware</text></g><!--entity UC_SEARCH--><g class="entity" data-qualified-name="Maestria . AI subsystem.UC_MCP_SURF.UC_SEARCH" data-source-line="27" id="ent0018"><ellipse cx="295.814" cy="386.0557" fill="#F1F1F1" rx="71.314" ry="16.6628" style="stroke:#181818;stroke-width:0.5;"/><text fill="#000000" font-family="'Inter, Helvetica, sans-serif'" font-size="12" lengthAdjust="spacing" textLength="115.7357" x="237.9462" y="389.8169">models.search / .get</text></g><!--entity UC_MRUN--><g class="entity" data-qualified-name="Maestria . AI subsystem.UC_MCP_SURF.UC_MRUN" data-source-line="28" id="ent0019"><ellipse cx="600.7477" cy="460.9424" fill="#F1F1F1" rx="65.7477" ry="15.5495" style="stroke:#181818;stroke-width:0.5;"/><text fill="#000000" font-family="'Inter, Helvetica, sans-serif'" font-size="12" lengthAdjust="spacing" textLength="102.3553" x="549.57" y="464.7036">models.run / .stop</text></g><!--entity UC_ROUTE--><g class="entity" data-qualified-name="Maestria . AI subsystem.UC_MCP_SURF.UC_ROUTE" data-source-line="29" id="ent0020"><ellipse cx="295.901" cy="758.8491" fill="#F1F1F1" rx="55.401" ry="23.4562" style="stroke:#181818;stroke-width:0.5;"/><text fill="#000000" font-family="'Inter, Helvetica, sans-serif'" font-size="12" lengthAdjust="spacing" textLength="74.4015" x="258.7002" y="755.4646">models.route</text><text fill="#000000" font-family="'Inter, Helvetica, sans-serif'" font-size="12" lengthAdjust="spacing" textLength="73.2084" x="259.2968" y="769.987">(advice only)</text></g><!--entity UC_INSPECT--><g class="entity" data-qualified-name="Maestria . AI subsystem.UC_MCP_SURF.UC_INSPECT" data-source-line="30" id="ent0021"><ellipse cx="295.9383" cy="460.8687" fill="#F1F1F1" rx="98.9383" ry="23.4758" style="stroke:#181818;stroke-width:0.5;"/><text fill="#000000" font-family="'Inter, Helvetica, sans-serif'" font-size="12" lengthAdjust="spacing" textLength="134.4341" x="228.7212" y="457.281">models.get_run_params</text><text fill="#000000" font-family="'Inter, Helvetica, sans-serif'" font-size="12" lengthAdjust="spacing" textLength="136.0874" x="227.8946" y="471.8034">models.list_runner_flags</text></g><!--entity UC_TAGS--><g class="entity" data-qualified-name="Maestria . AI subsystem.UC_MCP_SURF.UC_TAGS" data-source-line="31" id="ent0022"><ellipse cx="296.0465" cy="535.8022" fill="#F1F1F1" rx="67.5465" ry="15.9093" style="stroke:#181818;stroke-width:0.5;"/><text fill="#000000" font-family="'Inter, Helvetica, sans-serif'" font-size="12" lengthAdjust="spacing" textLength="106.7359" x="242.6786" y="539.5634">tags.add / .remove</text></g><!--entity UC_DESC--><g class="entity" data-qualified-name="Maestria . AI subsystem.UC_MCP_SURF.UC_DESC" data-source-line="32" id="ent0023"><ellipse cx="296.0012" cy="603.6931" fill="#F1F1F1" rx="72.0012" ry="16.8002" style="stroke:#181818;stroke-width:0.5;"/><text fill="#000000" font-family="'Inter, Helvetica, sans-serif'" font-size="12" lengthAdjust="spacing" textLength="117.355" x="237.3237" y="607.4543">description.set / .get</text></g><!--entity UC_HW_TOOL--><g class="entity" data-qualified-name="Maestria . AI subsystem.UC_MCP_SURF.UC_HW_TOOL" data-source-line="33" id="ent0024"><ellipse cx="296.1804" cy="677.6776" fill="#F1F1F1" rx="68.6804" ry="21.7847" style="stroke:#181818;stroke-width:0.5;"/><text fill="#000000" font-family="'Inter, Helvetica, sans-serif'" font-size="12" lengthAdjust="spacing" textLength="101.5542" x="245.4033" y="676.785">hardware.detect /</text><text fill="#000000" font-family="'Inter, Helvetica, sans-serif'" font-size="12" lengthAdjust="spacing" textLength="53.9134" x="269.2237" y="691.3073">.autotune</text></g><!--entity A_USER--><g class="entity" data-qualified-name="A_USER" data-source-line="3" id="ent0001"><ellipse cx="58.1609" cy="1174.8929" fill="#FFFFFF" rx="8" ry="8" style="stroke:#0E1014;stroke-width:0.5;"/><path d="M58.1609,1182.8929 L58.1609,1209.8929 M45.1609,1190.8929 L71.1609,1190.8929 M58.1609,1209.8929 L45.1609,1224.8929 M58.1609,1209.8929 L71.1609,1224.8929" fill="none" style="stroke:#0E1014;stroke-width:0.5;"/><text fill="#000000" font-family="'Inter, Helvetica, sans-serif'" font-size="12" lengthAdjust="spacing" textLength="68.146" x="16" y="1238.0176">Human user</text><text fill="#000000" font-family="'Inter, Helvetica, sans-serif'" font-size="12" lengthAdjust="spacing" textLength="84.3217" x="16" y="1252.5399">(Inf&#233;rence tab)</text></g><!--entity A_MCP_CLI--><g class="entity" data-qualified-name="A_MCP_CLI" data-source-line="4" id="ent0002"><ellipse cx="57.8254" cy="485.3929" fill="#FFFFFF" rx="8" ry="8" style="stroke:#0E1014;stroke-width:0.5;"/><path d="M57.8254,493.3929 L57.8254,520.3929 M44.8254,501.3929 L70.8254,501.3929 M57.8254,520.3929 L44.8254,535.3929 M57.8254,520.3929 L70.8254,535.3929" fill="none" style="stroke:#0E1014;stroke-width:0.5;"/><text fill="#000000" font-family="'Inter, Helvetica, sans-serif'" font-size="12" lengthAdjust="spacing" textLength="61.1575" x="6" y="548.5176">MCP client</text><text fill="#000000" font-family="'Inter, Helvetica, sans-serif'" font-size="12" lengthAdjust="spacing" textLength="81.1513" x="6" y="563.0399">(Claude Code,</text><text fill="#000000" font-family="'Inter, Helvetica, sans-serif'" font-size="12" lengthAdjust="spacing" textLength="103.6507" x="6" y="577.5623">Cursor, deer-flow,</text><text fill="#000000" font-family="'Inter, Helvetica, sans-serif'" font-size="12" lengthAdjust="spacing" textLength="73.5322" x="6" y="592.0847">bash scripts)</text></g><!--entity A_EXT_EMB--><g class="entity" data-qualified-name="A_EXT_EMB" data-source-line="5" id="ent0003"><ellipse cx="600.3452" cy="1681.8929" fill="#FFFFFF" rx="8" ry="8" style="stroke:#0E1014;stroke-width:0.5;"/><path d="M600.3452,1689.8929 L600.3452,1716.8929 M587.3452,1697.8929 L613.3452,1697.8929 M600.3452,1716.8929 L587.3452,1731.8929 M600.3452,1716.8929 L613.3452,1731.8929" fill="none" style="stroke:#0E1014;stroke-width:0.5;"/><text fill="#000000" font-family="'Inter, Helvetica, sans-serif'" font-size="12" lengthAdjust="spacing" textLength="107.6904" x="546.5" y="1745.0176">External embedder</text><text fill="#000000" font-family="'Inter, Helvetica, sans-serif'" font-size="12" lengthAdjust="spacing" textLength="99.7986" x="546.5" y="1759.5399">(advanced setup)</text></g><g class="entity" data-qualified-name="GMN45" data-source-line="61" id="ent0046"><path d="M198,214.8929 L198,274.9823 A4,4 0 0 0 202,278.9823 L390.4955,278.9823 A4,4 0 0 0 394.4955,274.9823 L394.4955,220.8929 L384.4955,210.8929 L202,210.8929 A4,4 0 0 0 198,214.8929" fill="#FFFDF6" style="stroke:#C68A3A;stroke-width:0.5;"/><path d="M384.4955,210.8929 L384.4955,218.8929 A2,2 0 0 0 386.4955,220.8929 L394.4955,220.8929 L384.4955,210.8929" fill="#FFFDF6" style="stroke:#C68A3A;stroke-width:1;"/><text fill="#0E1014" font-family="'Inter, Helvetica, sans-serif'" font-size="12" lengthAdjust="spacing" textLength="175.4955" x="204" y="227.5176">Opt-in OFF by default. Unlocks</text><text fill="#0E1014" font-family="'Inter, Helvetica, sans-serif'" font-size="12" lengthAdjust="spacing" textLength="164.0924" x="204" y="242.0399">the 9 code-tests items in the</text><text fill="#0E1014" font-family="'Inter, Helvetica, sans-serif'" font-size="12" lengthAdjust="spacing" textLength="170.0582" x="204" y="256.5623">staircase; otherwise they stay</text><text fill="#0E1014" font-family="'Inter, Helvetica, sans-serif'" font-size="12" lengthAdjust="spacing" textLength="150.3712" x="204" y="271.0847">UNMEASURED (D12 prior).</text></g><g class="entity" data-qualified-name="GMN48" data-source-line="68" id="ent0049"><path d="M190,140.3929 L190,171.4376 A4,4 0 0 0 194,175.4376 L398.0576,175.4376 A4,4 0 0 0 402.0576,171.4376 L402.0576,146.3929 L392.0576,136.3929 L194,136.3929 A4,4 0 0 0 190,140.3929" fill="#FFFDF6" style="stroke:#C68A3A;stroke-width:0.5;"/><path d="M392.0576,136.3929 L392.0576,144.3929 A2,2 0 0 0 394.0576,146.3929 L402.0576,146.3929 L392.0576,136.3929" fill="#FFFDF6" style="stroke:#C68A3A;stroke-width:1;"/><text fill="#0E1014" font-family="'Inter, Helvetica, sans-serif'" font-size="12" lengthAdjust="spacing" textLength="185.8078" x="196" y="153.0176">Advice only &#8212; does NOT launch.</text><text fill="#0E1014" font-family="'Inter, Helvetica, sans-serif'" font-size="12" lengthAdjust="spacing" textLength="191.0576" x="196" y="167.5399">Caller follows up with models.run.</text></g><!--link A_USER to UC_OPEN--><g class="link" data-entity-1="ent0001" data-entity-2="ent0006" data-link-type="dependency" data-source-line="37" id="lnk25"><path d="M59.23,1166.3329 C62.08,1100.5929 77.41,978.0729 149,909.8929 C167.81,891.9829 189.1404,883.4992 214.2004,878.6692" fill="none" id="A_USER-to-UC_OPEN" style="stroke:#1A1D24;stroke-width:1;"/><polygon fill="#1A1D24" points="219.11,877.7229,209.5156,875.4985,214.2004,878.6692,211.0297,883.3539,219.11,877.7229" style="stroke:#1A1D24;stroke-width:1;stroke-linejoin:miter;stroke-miterlimit:10;"/></g><!--link A_USER to UC_RUN--><g class="link" data-entity-1="ent0001" data-entity-2="ent0007" data-link-type="dependency" data-source-line="38" id="lnk26"><path d="M65.05,1165.9729 C74.25,1115.3929 96.62,1034.2229 149,987.8929 C165.61,973.2029 182.3332,965.2676 203.7532,959.4776" fill="none" id="A_USER-to-UC_RUN" style="stroke:#1A1D24;stroke-width:1;"/><polygon fill="#1A1D24" points="208.58,958.1729,198.848,956.66,203.7532,959.4776,200.9356,964.3828,208.58,958.1729" style="stroke:#1A1D24;stroke-width:1;stroke-linejoin:miter;stroke-miterlimit:10;"/></g><!--link A_USER to UC_CH--><g class="link" data-entity-1="ent0001" data-entity-2="ent0008" data-link-type="dependency" data-source-line="39" id="lnk27"><path d="M76.59,1166.1729 C91.34,1134.2829 115.43,1092.7929 149,1067.8929 C167.47,1054.1929 185.5397,1046.4745 207.6797,1040.5545" fill="none" id="A_USER-to-UC_CH" style="stroke:#1A1D24;stroke-width:1;"/><polygon fill="#1A1D24" points="212.51,1039.2629,202.7822,1037.7235,207.6797,1040.5545,204.8487,1045.452,212.51,1039.2629" style="stroke:#1A1D24;stroke-width:1;stroke-linejoin:miter;stroke-miterlimit:10;"/></g><!--link A_USER to UC_RADAR--><g class="link" data-entity-1="ent0001" data-entity-2="ent0009" data-link-type="dependency" data-source-line="40" id="lnk28"><path d="M100.03,1176.4329 C114.75,1165.4229 131.94,1153.9929 149,1145.8929 C172.82,1134.5829 195.5843,1127.3353 220.3443,1121.2553" fill="none" id="A_USER-to-UC_RADAR" style="stroke:#1A1D24;stroke-width:1;"/><polygon fill="#1A1D24" points="225.2,1120.0629,215.5058,1118.3245,220.3443,1121.2553,217.4135,1126.0937,225.2,1120.0629" style="stroke:#1A1D24;stroke-width:1;stroke-linejoin:miter;stroke-miterlimit:10;"/></g><!--link A_USER to UC_BULK--><g class="link" data-entity-1="ent0001" data-entity-2="ent0010" data-link-type="dependency" data-source-line="41" id="lnk29"><path d="M100.11,1206.3629 C136.95,1202.3029 186.5401,1196.8404 228.5701,1192.2104" fill="none" id="A_USER-to-UC_BULK" style="stroke:#1A1D24;stroke-width:1;"/><polygon fill="#1A1D24" points="233.54,1191.6629,224.1561,1188.6724,228.5701,1192.2104,225.0321,1196.6243,233.54,1191.6629" style="stroke:#1A1D24;stroke-width:1;stroke-linejoin:miter;stroke-miterlimit:10;"/></g><!--link A_USER to UC_PICK_EMB--><g class="link" data-entity-1="ent0001" data-entity-2="ent0012" data-link-type="dependency" data-source-line="42" id="lnk30"><path d="M100.11,1226.9229 C141.71,1243.1329 201.2314,1266.3371 244.4614,1283.1871" fill="none" id="A_USER-to-UC_PICK_EMB" style="stroke:#1A1D24;stroke-width:1;"/><polygon fill="#1A1D24" points="249.12,1285.0029,242.1871,1278.0075,244.4614,1283.1871,239.2818,1285.4613,249.12,1285.0029" style="stroke:#1A1D24;stroke-width:1;stroke-linejoin:miter;stroke-miterlimit:10;"/></g><!--link A_USER to UC_OPT_SBX--><g class="link" data-entity-1="ent0001" data-entity-2="ent0013" data-link-type="dependency" data-source-line="43" id="lnk31"><path d="M65.17,1255.4829 C77.47,1338.1629 107.51,1510.7129 149,1552.8929 C168.39,1572.6029 191.5337,1582.0298 217.8737,1587.4798" fill="none" id="A_USER-to-UC_OPT_SBX" style="stroke:#1A1D24;stroke-width:1;"/><polygon fill="#1A1D24" points="222.77,1588.4929,214.7672,1582.7523,217.8737,1587.4798,213.1462,1590.5864,222.77,1588.4929" style="stroke:#1A1D24;stroke-width:1;stroke-linejoin:miter;stroke-miterlimit:10;"/></g><!--link A_USER to UC_MCP--><g class="link" data-entity-1="ent0001" data-entity-2="ent0014" data-link-type="dependency" data-source-line="44" id="lnk32"><path d="M90.94,1255.6029 C106.36,1277.4929 124.95,1304.3629 141,1328.8929 C144.71,1334.5729 143.52,1337.8929 149,1341.8929 C170.19,1357.3629 192.3494,1365.241 217.3994,1370.311" fill="none" id="A_USER-to-UC_MCP" style="stroke:#1A1D24;stroke-width:1;"/><polygon fill="#1A1D24" points="222.3,1371.3029,214.2724,1365.597,217.3994,1370.311,212.6854,1373.438,222.3,1371.3029" style="stroke:#1A1D24;stroke-width:1;stroke-linejoin:miter;stroke-miterlimit:10;"/></g><!--link A_USER to UC_COPY_CFG--><g class="link" data-entity-1="ent0001" data-entity-2="ent0015" data-link-type="dependency" data-source-line="45" id="lnk33"><path d="M67.05,1255.5429 C77.73,1301.7129 101.13,1372.5829 149,1412.8929 C168.6,1429.4029 189.6972,1437.663 214.3072,1442.843" fill="none" id="A_USER-to-UC_COPY_CFG" style="stroke:#1A1D24;stroke-width:1;"/><polygon fill="#1A1D24" points="219.2,1443.8729,211.2169,1438.1049,214.3072,1442.843,209.5691,1445.9334,219.2,1443.8729" style="stroke:#1A1D24;stroke-width:1;stroke-linejoin:miter;stroke-miterlimit:10;"/></g><!--link A_USER to UC_HW--><g class="link" data-entity-1="ent0001" data-entity-2="ent0016" data-link-type="dependency" data-source-line="46" id="lnk34"><path d="M60.65,1255.6129 C65.41,1316.7429 83.25,1425.6629 149,1485.8929 C170.49,1505.5829 196.168,1513.8621 223.838,1517.7221" fill="none" id="A_USER-to-UC_HW" style="stroke:#1A1D24;stroke-width:1;"/><polygon fill="#1A1D24" points="228.79,1518.4129,220.429,1513.2078,223.838,1517.7221,219.3237,1521.1311,228.79,1518.4129" style="stroke:#1A1D24;stroke-width:1;stroke-linejoin:miter;stroke-miterlimit:10;"/></g><!--link A_MCP_CLI to UC_SEARCH--><g class="link" data-entity-1="ent0002" data-entity-2="ent0018" data-link-type="dependency" data-source-line="48" id="lnk35"><path d="M93.11,476.5929 C107.82,455.8129 126.79,434.1229 149,419.8929 C172.67,404.7329 197.4261,397.1717 223.8361,392.5117" fill="none" id="A_MCP_CLI-to-UC_SEARCH" style="stroke:#1A1D24;stroke-width:1;"/><polygon fill="#1A1D24" points="228.76,391.6429,219.2019,389.2676,223.8361,392.5117,220.592,397.1459,228.76,391.6429" style="stroke:#1A1D24;stroke-width:1;stroke-linejoin:miter;stroke-miterlimit:10;"/></g><!--link A_MCP_CLI to UC_MRUN--><g class="link" data-entity-1="ent0002" data-entity-2="ent0019" data-link-type="dependency" data-source-line="49" id="lnk36"><path d="M62.88,476.6729 C71.07,372.4829 94.11,163.2029 149,118.8929 C241.86,43.9429 315.2,57.4529 417.5,118.8929 C542.91,194.2129 585.6956,383.4935 596.0056,440.2035" fill="none" id="A_MCP_CLI-to-UC_MRUN" style="stroke:#1A1D24;stroke-width:1;"/><polygon fill="#1A1D24" points="596.9,445.1229,599.2257,435.5526,596.0056,440.2035,591.3547,436.9835,596.9,445.1229" style="stroke:#1A1D24;stroke-width:1;stroke-linejoin:miter;stroke-miterlimit:10;"/></g><!--link A_MCP_CLI to UC_ROUTE--><g class="link" data-entity-1="ent0002" data-entity-2="ent0020" data-link-type="dependency" data-source-line="50" id="lnk37"><path d="M74.73,595.1829 C88.21,634.9829 111.53,685.6629 149,716.8929 C174.94,738.5029 206.5107,748.1652 236.5207,753.2652" fill="none" id="A_MCP_CLI-to-UC_ROUTE" style="stroke:#1A1D24;stroke-width:1;"/><polygon fill="#1A1D24" points="241.45,754.1029,233.2474,748.6516,236.5207,753.2652,231.907,756.5385,241.45,754.1029" style="stroke:#1A1D24;stroke-width:1;stroke-linejoin:miter;stroke-miterlimit:10;"/></g><!--link A_MCP_CLI to UC_INSPECT--><g class="link" data-entity-1="ent0002" data-entity-2="ent0021" data-link-type="dependency" data-source-line="51" id="lnk38"><path d="M110.13,515.6929 C122.76,510.9529 136.31,506.0629 149,501.8929 C174.76,493.4229 198.6084,486.4566 223.6684,479.5766" fill="none" id="A_MCP_CLI-to-UC_INSPECT" style="stroke:#1A1D24;stroke-width:1;"/><polygon fill="#1A1D24" points="228.49,478.2529,218.7522,476.7783,223.6684,479.5766,220.8701,484.4929,228.49,478.2529" style="stroke:#1A1D24;stroke-width:1;stroke-linejoin:miter;stroke-miterlimit:10;"/></g><!--link A_MCP_CLI to UC_TAGS--><g class="link" data-entity-1="ent0002" data-entity-2="ent0022" data-link-type="dependency" data-source-line="52" id="lnk39"><path d="M110.21,535.8929 C144.78,535.8929 185.75,535.8929 223.19,535.8929" fill="none" id="A_MCP_CLI-to-UC_TAGS" style="stroke:#1A1D24;stroke-width:1;"/><polygon fill="#1A1D24" points="228.19,535.8929,219.19,531.8929,223.19,535.8929,219.19,539.8929,228.19,535.8929" style="stroke:#1A1D24;stroke-width:1;stroke-linejoin:miter;stroke-miterlimit:10;"/></g><!--link A_MCP_CLI to UC_DESC--><g class="link" data-entity-1="ent0002" data-entity-2="ent0023" data-link-type="dependency" data-source-line="53" id="lnk40"><path d="M110.05,555.7829 C122.69,560.3729 136.26,565.0429 149,568.8929 C179.32,578.0529 208.8613,585.3082 236.6713,591.5482" fill="none" id="A_MCP_CLI-to-UC_DESC" style="stroke:#1A1D24;stroke-width:1;"/><polygon fill="#1A1D24" points="241.55,592.6429,233.6441,586.7695,236.6713,591.5482,231.8926,594.5754,241.55,592.6429" style="stroke:#1A1D24;stroke-width:1;stroke-linejoin:miter;stroke-miterlimit:10;"/></g><!--link A_MCP_CLI to UC_HW_TOOL--><g class="link" data-entity-1="ent0002" data-entity-2="ent0024" data-link-type="dependency" data-source-line="54" id="lnk41"><path d="M100.93,595.0129 C114.67,610.8729 131.07,626.7129 149,637.8929 C174.2,653.6129 200.712,662.1906 227.932,668.0506" fill="none" id="A_MCP_CLI-to-UC_HW_TOOL" style="stroke:#1A1D24;stroke-width:1;"/><polygon fill="#1A1D24" points="232.82,669.1029,224.8634,663.2983,227.932,668.0506,223.1797,671.1191,232.82,669.1029" style="stroke:#1A1D24;stroke-width:1;stroke-linejoin:miter;stroke-miterlimit:10;"/></g><!--link UC_PICK_EMB to A_EXT_EMB--><g class="link" data-entity-1="ent0012" data-entity-2="ent0003" data-link-type="dependency" data-source-line="56" id="lnk42"><path d="M364.15,1314.3329 C383.04,1320.1229 402.49,1328.8229 417.5,1341.8929 C521.14,1432.1529 569.8956,1589.9528 588.8456,1668.3728" fill="none" id="UC_PICK_EMB-to-A_EXT_EMB" style="stroke:#1A1D24;stroke-width:1;stroke-dasharray:7,7;"/><polygon fill="#1A1D24" points="590.02,1673.2329,591.7941,1663.5451,588.8456,1668.3728,584.0179,1665.4242,590.02,1673.2329" style="stroke:#1A1D24;stroke-width:1;stroke-linejoin:miter;stroke-miterlimit:10;"/><text fill="#000000" font-family="'Inter, Helvetica, sans-serif'" font-size="12" lengthAdjust="spacing" textLength="64.4472" x="436.7669" y="1339.5176">(alternative</text><text fill="#000000" font-family="'Inter, Helvetica, sans-serif'" font-size="12" lengthAdjust="spacing" textLength="71.9811" x="433" y="1354.0399">to managed)</text></g><!--link UC_ROUTE to UC_MRUN--><g class="link" data-entity-1="ent0020" data-entity-2="ent0019" data-link-type="dependency" data-source-line="57" id="lnk43"><path d="M346.66,748.9629 C369.82,742.5629 396.77,732.4529 417.5,716.8929 C508.86,648.2929 570.5057,525.0723 590.6357,480.9223" fill="none" id="UC_ROUTE-to-UC_MRUN" style="stroke:#1A1D24;stroke-width:1;stroke-dasharray:7,7;"/><polygon fill="#1A1D24" points="592.71,476.3729,585.3367,482.9024,590.6357,480.9223,592.6158,486.2213,592.71,476.3729" style="stroke:#1A1D24;stroke-width:1;stroke-linejoin:miter;stroke-miterlimit:10;"/><text fill="#000000" font-family="'Inter, Helvetica, sans-serif'" font-size="12" lengthAdjust="spacing" textLength="58.5156" x="439.5" y="613.5176">&#171;extends&#187;</text><text fill="#000000" font-family="'Inter, Helvetica, sans-serif'" font-size="12" lengthAdjust="spacing" textLength="53.8963" x="441.8096" y="628.0399">follow-up</text></g><!--link UC_INSPECT to UC_MRUN--><g class="link" data-entity-1="ent0021" data-entity-2="ent0019" data-link-type="dependency" data-source-line="58" id="lnk44"><path d="M395.21,460.8929 C440.93,460.8929 489.05,460.8929 529.66,460.8929" fill="none" id="UC_INSPECT-to-UC_MRUN" style="stroke:#1A1D24;stroke-width:1;stroke-dasharray:7,7;"/><polygon fill="#1A1D24" points="534.66,460.8929,525.66,456.8929,529.66,460.8929,525.66,464.8929,534.66,460.8929" style="stroke:#1A1D24;stroke-width:1;stroke-linejoin:miter;stroke-miterlimit:10;"/><text fill="#000000" font-family="'Inter, Helvetica, sans-serif'" font-size="12" lengthAdjust="spacing" textLength="66.1177" x="435.5" y="457.5176">&#171;precedes&#187;</text></g><!--link UC_OPT_SBX to GMN45--><g class="link" data-entity-1="ent0013" data-entity-2="ent0046" data-link-type="association" data-source-line="61" id="lnk47"><path d="M221.2,1590.9429 C184.53,1584.8929 144.98,1570.0829 129.5,1535.3929 C116.31,1505.8429 116.31,399.9429 129.5,370.3929 C147.5,330.0629 186.15,299.6729 221.69,278.9029" fill="none" id="UC_OPT_SBX-GMN45" style="stroke:#1A1D24;stroke-width:1;stroke-dasharray:7,7;"/></g><!--link UC_ROUTE to GMN48--><g class="link" data-entity-1="ent0020" data-entity-2="ent0049" data-link-type="association" data-source-line="68" id="lnk50"><path d="M240.31,758.0429 C199.35,753.9129 147.76,740.3229 129.5,699.3929 C107.36,649.7729 107.36,260.0129 129.5,210.3929 C140.53,185.6729 164.02,171.5529 189.96,163.6529" fill="none" id="UC_ROUTE-GMN48" style="stroke:#1A1D24;stroke-width:1;stroke-dasharray:7,7;"/></g><?plantuml-src VPJRZfim48Rl_HJUt2zHjxsgLf48OPCeR40SrAsqakM2aw0IY6opLLNrtJic6682pTNCduyPUmv-oCkqg3E6BMjEMblCXVnTC2klpmLw60LgmL8gs9ocikBYIYAPouBXA0v9uYGatiQUYr313XBB2lFyU98uopbBPLwL22c3baVuOgO_2Lqd9fwzTBqP_eCGnXUQ_gJ76oBOhKcodM4gSEA01HY6NtkSdlC3TwyfPOzJOT91O8uppaOZpcOYYhsomowESiQvPUBjDAPieFvENZ9oOys2ENNDOEliYFkwrAZsfueIasZvrjUbSSVPLoVG79WJfV63xyHvMNS5QdsJzZyOvpaCq8dox1VbJEERR_-j0AGbKHA-t1oZyOUrE5SPAuGb6ENf2S-nTMIoBvqT3jlMyhmk5InaTUaoJ0v1w2UnsxLOEQCn8JE1kEH2EJsBzxALYrmqUiauEHJqA7IaxJuAOEJDM180YsQPEXrdv-gZArXihoEJXLLCUNvH2mK5a8FRhzp8CNdT0YjZ4jOFpzzBYzQoadLvqnOI-xxNz0QwOvCaSaFy-BZeTicKLD5C1Ie-G9gbCBLc0qofczvXpkkScggQoa5QFNwc36C6YfeUnzjgiHsCE_trUfk1UktudQpRT_T7qwWxjMd7dQhBZMuA06_j0jl4VOiRxolk7qYFs5wCz9aQi3ts08EFtVqgGlqv1_3pymMUO0OZj5WWL5QIuH-LbDKPLmVpUT1XztxiAebudqRLfr7rywZw1R4omohhM6wzOiPtZJYIkzMV-eZ_0000?></g></svg>