<svg xmlns="http://www.w3.org/2000/svg" xmlns:xlink="http://www.w3.org/1999/xlink" contentStyleType="text/css" data-diagram-type="DESCRIPTION" height="1944px" preserveAspectRatio="none" style="width:720px;height:1944px;background:#F4EEE3;" version="1.1" viewBox="0 0 720 1944" width="720px" zoomAndPan="magnify"><?plantuml 1.2026.4?><defs/><g><rect fill="#F4EEE3" height="1944" style="stroke:none;stroke-width:1;" width="720" x="0" y="0"/><g class="title" data-source-line="4"><text fill="#000000" font-family="'Inter, Helvetica, sans-serif'" font-size="14" font-weight="700" lengthAdjust="spacing" textLength="358.2867" x="177.3566" y="23.5623">Use cases &#8212; who does what with the AI subsystem</text></g><!--cluster Maestria ? AI subsystem--><g class="cluster" data-qualified-name="Maestria . AI subsystem" data-source-line="8" id="ent0005"><rect fill="#F4EEE3" height="1428" rx="4" ry="4" style="stroke:#C68A3A;stroke-width:1;" width="549" x="157" y="273.4429"/><text fill="#000000" font-family="'Inter, Helvetica, sans-serif'" font-size="12" font-weight="700" lengthAdjust="spacing" textLength="151.752" x="355.624" y="287.0676">Maestria &#8212; AI subsystem</text></g><!--cluster UC_UI--><g class="cluster" data-qualified-name="Maestria . AI subsystem.UC_UI" data-source-line="10" id="ent0006"><path d="M186.5,867.4429 L264.6288,867.4429 A6,6 0 0 1 268.6288,871.4429 L275.6288,887.9652 L405.5,887.9652 A4,4 0 0 1 409.5,891.9652 L409.5,1263.4429 A4,4 0 0 1 405.5,1267.4429 L186.5,1267.4429 A4,4 0 0 1 182.5,1263.4429 L182.5,871.4429 A4,4 0 0 1 186.5,867.4429" fill="#F4EEE3" style="stroke:#C68A3A;stroke-width:1.5;"/><line style="stroke:#C68A3A;stroke-width:1.5;" x1="182.5" x2="275.6288" y1="887.9652" y2="887.9652"/><text fill="#0E1014" font-family="'Inter, Helvetica, sans-serif'" font-size="12" font-weight="700" lengthAdjust="spacing" textLength="80.1288" x="186.5" y="881.0676">Inf&#233;rence tab</text></g><!--cluster UC_SET--><g class="cluster" data-qualified-name="Maestria . AI subsystem.UC_SET" data-source-line="18" id="ent0012"><path d="M203,1291.4429 L277.3418,1291.4429 A6,6 0 0 1 281.3418,1295.4429 L288.3418,1313.4038 L389,1313.4038 A4,4 0 0 1 393,1317.4038 L393,1673.4429 A4,4 0 0 1 389,1677.4429 L203,1677.4429 A4,4 0 0 1 199,1673.4429 L199,1295.4429 A4,4 0 0 1 203,1291.4429" fill="#F4EEE3" style="stroke:#C68A3A;stroke-width:1.5;"/><line style="stroke:#C68A3A;stroke-width:1.5;" x1="199" x2="288.3418" y1="1313.4038" y2="1313.4038"/><text fill="#0E1014" font-family="'Inter, Helvetica, sans-serif'" font-size="12" font-weight="700" lengthAdjust="spacing" textLength="76.3418" x="203" y="1306.3921">Settings &#9656; AI</text></g><!--cluster UC_MCP_SURF--><g class="cluster" data-qualified-name="Maestria . AI subsystem.UC_MCP_SURF" data-source-line="26" id="ent0018"><path d="M185,314.4429 L259.6345,314.4429 A6,6 0 0 1 263.6345,318.4429 L270.6345,334.9652 L678,334.9652 A4,4 0 0 1 682,338.9652 L682,839.4429 A4,4 0 0 1 678,843.4429 L185,843.4429 A4,4 0 0 1 181,839.4429 L181,318.4429 A4,4 0 0 1 185,314.4429" fill="#F4EEE3" style="stroke:#C68A3A;stroke-width:1.5;"/><line style="stroke:#C68A3A;stroke-width:1.5;" x1="181" x2="270.6345" y1="334.9652" y2="334.9652"/><text fill="#0E1014" font-family="'Inter, Helvetica, sans-serif'" font-size="12" font-weight="700" lengthAdjust="spacing" textLength="76.6345" x="185" y="328.0676">MCP surface</text></g><!--entity UC_OPEN--><g class="entity" data-qualified-name="Maestria . AI subsystem.UC_UI.UC_OPEN" data-source-line="11" id="ent0007"><ellipse cx="295.7581" cy="1154.4945" fill="#F1F1F1" rx="78.2581" ry="18.0516" style="stroke:#181818;stroke-width:0.5;"/><text fill="#000000" font-family="'Inter, Helvetica, sans-serif'" font-size="12" lengthAdjust="spacing" textLength="131.8432" x="229.8365" y="1158.2557">Open a .gguf model file</text></g><!--entity UC_RUN--><g class="entity" data-qualified-name="Maestria . AI subsystem.UC_UI.UC_RUN" data-source-line="12" id="ent0008"><ellipse cx="296.0385" cy="1229.6506" fill="#F1F1F1" rx="96.5385" ry="21.7077" style="stroke:#181818;stroke-width:0.5;"/><text fill="#000000" font-family="'Inter, Helvetica, sans-serif'" font-size="12" lengthAdjust="spacing" textLength="172.4104" x="209.8333" y="1233.4118">Run a chat model (browser UI)</text></g><!--entity UC_CH--><g class="entity" data-qualified-name="Maestria . AI subsystem.UC_UI.UC_CH" data-source-line="13" id="ent0009"><ellipse cx="296.0055" cy="922.344" fill="#F1F1F1" rx="97.5055" ry="21.9011" style="stroke:#181818;stroke-width:0.5;"/><text fill="#000000" font-family="'Inter, Helvetica, sans-serif'" font-size="12" lengthAdjust="spacing" textLength="174.5069" x="208.752" y="926.1052">Characterize / Re-characterize</text></g><!--entity UC_RADAR--><g class="entity" data-qualified-name="Maestria . AI subsystem.UC_UI.UC_RADAR" data-source-line="14" id="ent0010"><ellipse cx="296.0032" cy="1001.5518" fill="#F1F1F1" rx="89.5032" ry="21.6089" style="stroke:#181818;stroke-width:0.5;"/><text fill="#000000" font-family="'Inter, Helvetica, sans-serif'" font-size="12" lengthAdjust="spacing" textLength="135.0136" x="228.4964" y="1000.9383">View competence radar</text><text fill="#000000" font-family="'Inter, Helvetica, sans-serif'" font-size="12" lengthAdjust="spacing" textLength="61.1234" x="265.4415" y="1015.4607">(R5 + tree)</text></g><!--entity UC_BULK--><g class="entity" data-qualified-name="Maestria . AI subsystem.UC_UI.UC_BULK" data-source-line="15" id="ent0011"><ellipse cx="296.2203" cy="1079.5009" fill="#F1F1F1" rx="65.7203" ry="21.558" style="stroke:#181818;stroke-width:0.5;"/><text fill="#000000" font-family="'Inter, Helvetica, sans-serif'" font-size="12" lengthAdjust="spacing" textLength="98.1623" x="247.1392" y="1078.969">Bulk characterize</text><text fill="#000000" font-family="'Inter, Helvetica, sans-serif'" font-size="12" lengthAdjust="spacing" textLength="41.9307" x="275.255" y="1093.4914">(folder)</text></g><!--entity UC_PICK_EMB--><g class="entity" data-qualified-name="Maestria . AI subsystem.UC_SET.UC_PICK_EMB" data-source-line="19" id="ent0013"><ellipse cx="295.8552" cy="1347.2557" fill="#F1F1F1" rx="79.3552" ry="21.8128" style="stroke:#181818;stroke-width:0.5;"/><text fill="#000000" font-family="'Inter, Helvetica, sans-serif'" font-size="12" lengthAdjust="spacing" textLength="117.8834" x="236.9135" y="1346.3189">Pick embedder .gguf</text><text fill="#000000" font-family="'Inter, Helvetica, sans-serif'" font-size="12" lengthAdjust="spacing" textLength="63.9188" x="263.8957" y="1360.8412">(file picker)</text></g><!--entity UC_OPT_SBX--><g class="entity" data-qualified-name="Maestria . AI subsystem.UC_SET.UC_OPT_SBX" data-source-line="20" id="ent0014"><ellipse cx="295.8522" cy="1638.5672" fill="#F1F1F1" rx="74.8522" ry="23.1243" style="stroke:#181818;stroke-width:0.5;"/><text fill="#000000" font-family="'Inter, Helvetica, sans-serif'" font-size="12" lengthAdjust="spacing" textLength="103.7019" x="244.0012" y="1635.658">Enable code-tests</text><text fill="#000000" font-family="'Inter, Helvetica, sans-serif'" font-size="12" lengthAdjust="spacing" textLength="94.8896" x="248.4074" y="1650.1803">sandbox (opt-in)</text></g><!--entity UC_MCP--><g class="entity" data-qualified-name="Maestria . AI subsystem.UC_SET.UC_MCP" data-source-line="21" id="ent0015"><ellipse cx="295.9308" cy="1422.6291" fill="#F1F1F1" rx="78.9308" ry="18.1862" style="stroke:#181818;stroke-width:0.5;"/><text fill="#000000" font-family="'Inter, Helvetica, sans-serif'" font-size="12" lengthAdjust="spacing" textLength="133.3773" x="229.2422" y="1426.3902">Start / stop MCP server</text></g><!--entity UC_COPY_CFG--><g class="entity" data-qualified-name="Maestria . AI subsystem.UC_SET.UC_COPY_CFG" data-source-line="22" id="ent0016"><ellipse cx="296.2388" cy="1494.5906" fill="#F1F1F1" rx="81.2388" ry="18.6478" style="stroke:#181818;stroke-width:0.5;"/><text fill="#000000" font-family="'Inter, Helvetica, sans-serif'" font-size="12" lengthAdjust="spacing" textLength="138.6101" x="226.9337" y="1498.3518">Copy MCP configuration</text></g><!--entity UC_HW--><g class="entity" data-qualified-name="Maestria . AI subsystem.UC_SET.UC_HW" data-source-line="23" id="ent0017"><ellipse cx="295.8001" cy="1564.3029" fill="#F1F1F1" rx="67.3001" ry="15.86" style="stroke:#181818;stroke-width:0.5;"/><text fill="#000000" font-family="'Inter, Helvetica, sans-serif'" font-size="12" lengthAdjust="spacing" textLength="106.1393" x="242.7305" y="1568.0641">Override hardware</text></g><!--entity UC_SEARCH--><g class="entity" data-qualified-name="Maestria . AI subsystem.UC_MCP_SURF.UC_SEARCH" data-source-line="27" id="ent0019"><ellipse cx="295.814" cy="446.6057" fill="#F1F1F1" rx="71.314" ry="16.6628" style="stroke:#181818;stroke-width:0.5;"/><text fill="#000000" font-family="'Inter, Helvetica, sans-serif'" font-size="12" lengthAdjust="spacing" textLength="115.7357" x="237.9462" y="450.3669">models.search / .get</text></g><!--entity UC_MRUN--><g class="entity" data-qualified-name="Maestria . AI subsystem.UC_MCP_SURF.UC_MRUN" data-source-line="28" id="ent0020"><ellipse cx="600.7477" cy="378.4924" fill="#F1F1F1" rx="65.7477" ry="15.5495" style="stroke:#181818;stroke-width:0.5;"/><text fill="#000000" font-family="'Inter, Helvetica, sans-serif'" font-size="12" lengthAdjust="spacing" textLength="102.3553" x="549.57" y="382.2536">models.run / .stop</text></g><!--entity UC_ROUTE--><g class="entity" data-qualified-name="Maestria . AI subsystem.UC_MCP_SURF.UC_ROUTE" data-source-line="29" id="ent0021"><ellipse cx="295.901" cy="371.3991" fill="#F1F1F1" rx="55.401" ry="23.4562" style="stroke:#181818;stroke-width:0.5;"/><text fill="#000000" font-family="'Inter, Helvetica, sans-serif'" font-size="12" lengthAdjust="spacing" textLength="74.4015" x="258.7002" y="368.0146">models.route</text><text fill="#000000" font-family="'Inter, Helvetica, sans-serif'" font-size="12" lengthAdjust="spacing" textLength="73.2084" x="259.2968" y="382.537">(advice only)</text></g><!--entity UC_INSPECT--><g class="entity" data-qualified-name="Maestria . AI subsystem.UC_MCP_SURF.UC_INSPECT" data-source-line="30" id="ent0022"><ellipse cx="295.9383" cy="521.4187" fill="#F1F1F1" rx="98.9383" ry="23.4758" style="stroke:#181818;stroke-width:0.5;"/><text fill="#000000" font-family="'Inter, Helvetica, sans-serif'" font-size="12" lengthAdjust="spacing" textLength="134.4341" x="228.7212" y="517.831">models.get_run_params</text><text fill="#000000" font-family="'Inter, Helvetica, sans-serif'" font-size="12" lengthAdjust="spacing" textLength="136.0874" x="227.8946" y="532.3534">models.list_runner_flags</text></g><!--entity UC_TAGS--><g class="entity" data-qualified-name="Maestria . AI subsystem.UC_MCP_SURF.UC_TAGS" data-source-line="31" id="ent0023"><ellipse cx="296.0465" cy="596.3522" fill="#F1F1F1" rx="67.5465" ry="15.9093" style="stroke:#181818;stroke-width:0.5;"/><text fill="#000000" font-family="'Inter, Helvetica, sans-serif'" font-size="12" lengthAdjust="spacing" textLength="106.7359" x="242.6786" y="600.1134">tags.add / .remove</text></g><!--entity UC_DESC--><g class="entity" data-qualified-name="Maestria . AI subsystem.UC_MCP_SURF.UC_DESC" data-source-line="32" id="ent0024"><ellipse cx="296.0012" cy="664.2431" fill="#F1F1F1" rx="72.0012" ry="16.8002" style="stroke:#181818;stroke-width:0.5;"/><text fill="#000000" font-family="'Inter, Helvetica, sans-serif'" font-size="12" lengthAdjust="spacing" textLength="117.355" x="237.3237" y="668.0043">description.set / .get</text></g><!--entity UC_FETCH--><g class="entity" data-qualified-name="Maestria . AI subsystem.UC_MCP_SURF.UC_FETCH" data-source-line="33" id="ent0025"><ellipse cx="295.9699" cy="732.6369" fill="#F1F1F1" rx="68.9699" ry="16.194" style="stroke:#181818;stroke-width:0.5;"/><text fill="#000000" font-family="'Inter, Helvetica, sans-serif'" font-size="12" lengthAdjust="spacing" textLength="110.162" x="240.889" y="736.3981">hf.fetch (metadata)</text></g><!--entity UC_HW_TOOL--><g class="entity" data-qualified-name="Maestria . AI subsystem.UC_MCP_SURF.UC_HW_TOOL" data-source-line="34" id="ent0026"><ellipse cx="296.1804" cy="805.2276" fill="#F1F1F1" rx="68.6804" ry="21.7847" style="stroke:#181818;stroke-width:0.5;"/><text fill="#000000" font-family="'Inter, Helvetica, sans-serif'" font-size="12" lengthAdjust="spacing" textLength="101.5542" x="245.4033" y="804.335">hardware.detect /</text><text fill="#000000" font-family="'Inter, Helvetica, sans-serif'" font-size="12" lengthAdjust="spacing" textLength="53.9134" x="269.2237" y="818.8573">.autotune</text></g><!--entity A_USER--><g class="entity" data-qualified-name="A_USER" data-source-line="3" id="ent0001"><ellipse cx="58.1609" cy="1219.4429" fill="#FFFFFF" rx="8" ry="8" style="stroke:#0E1014;stroke-width:0.5;"/><path d="M58.1609,1227.4429 L58.1609,1254.4429 M45.1609,1235.4429 L71.1609,1235.4429 M58.1609,1254.4429 L45.1609,1269.4429 M58.1609,1254.4429 L71.1609,1269.4429" fill="none" style="stroke:#0E1014;stroke-width:0.5;"/><text fill="#000000" font-family="'Inter, Helvetica, sans-serif'" font-size="12" lengthAdjust="spacing" textLength="68.146" x="16" y="1282.5676">Human user</text><text fill="#000000" font-family="'Inter, Helvetica, sans-serif'" font-size="12" lengthAdjust="spacing" textLength="84.3217" x="16" y="1297.0899">(Inf&#233;rence tab)</text></g><!--entity A_MCP_CLI--><g class="entity" data-qualified-name="A_MCP_CLI" data-source-line="4" id="ent0002"><ellipse cx="57.8254" cy="508.9429" fill="#FFFFFF" rx="8" ry="8" style="stroke:#0E1014;stroke-width:0.5;"/><path d="M57.8254,516.9429 L57.8254,543.9429 M44.8254,524.9429 L70.8254,524.9429 M57.8254,543.9429 L44.8254,558.9429 M57.8254,543.9429 L70.8254,558.9429" fill="none" style="stroke:#0E1014;stroke-width:0.5;"/><text fill="#000000" font-family="'Inter, Helvetica, sans-serif'" font-size="12" lengthAdjust="spacing" textLength="61.1575" x="6" y="572.0676">MCP client</text><text fill="#000000" font-family="'Inter, Helvetica, sans-serif'" font-size="12" lengthAdjust="spacing" textLength="81.1513" x="6" y="586.5899">(Claude Code,</text><text fill="#000000" font-family="'Inter, Helvetica, sans-serif'" font-size="12" lengthAdjust="spacing" textLength="103.6507" x="6" y="601.1123">Cursor, deer-flow,</text><text fill="#000000" font-family="'Inter, Helvetica, sans-serif'" font-size="12" lengthAdjust="spacing" textLength="73.5322" x="6" y="615.6347">bash scripts)</text></g><!--entity A_EXT_EMB--><g class="entity" data-qualified-name="A_EXT_EMB" data-source-line="5" id="ent0003"><ellipse cx="600.3452" cy="1850.4429" fill="#FFFFFF" rx="8" ry="8" style="stroke:#0E1014;stroke-width:0.5;"/><path d="M600.3452,1858.4429 L600.3452,1885.4429 M587.3452,1866.4429 L613.3452,1866.4429 M600.3452,1885.4429 L587.3452,1900.4429 M600.3452,1885.4429 L613.3452,1900.4429" fill="none" style="stroke:#0E1014;stroke-width:0.5;"/><text fill="#000000" font-family="'Inter, Helvetica, sans-serif'" font-size="12" lengthAdjust="spacing" textLength="107.6904" x="546.5" y="1913.5676">External embedder</text><text fill="#000000" font-family="'Inter, Helvetica, sans-serif'" font-size="12" lengthAdjust="spacing" textLength="99.7986" x="546.5" y="1928.0899">(advanced setup)</text></g><!--entity A_HF--><g class="entity" data-qualified-name="A_HF" data-source-line="6" id="ent0004"><ellipse cx="600.4336" cy="1726.4429" fill="#FFFFFF" rx="8" ry="8" style="stroke:#0E1014;stroke-width:0.5;"/><path d="M600.4336,1734.4429 L600.4336,1761.4429 M587.4336,1742.4429 L613.4336,1742.4429 M600.4336,1761.4429 L587.4336,1776.4429 M600.4336,1761.4429 L613.4336,1776.4429" fill="none" style="stroke:#0E1014;stroke-width:0.5;"/><text fill="#000000" font-family="'Inter, Helvetica, sans-serif'" font-size="12" lengthAdjust="spacing" textLength="78.5264" x="558" y="1789.5676">Hugging Face</text><text fill="#000000" font-family="'Inter, Helvetica, sans-serif'" font-size="12" lengthAdjust="spacing" textLength="84.8672" x="558" y="1804.0899">(metadata API)</text></g><g class="entity" data-qualified-name="GMN49" data-source-line="64" id="ent0050"><path d="M198,193.4429 L198,253.5323 A4,4 0 0 0 202,257.5323 L390.4955,257.5323 A4,4 0 0 0 394.4955,253.5323 L394.4955,199.4429 L384.4955,189.4429 L202,189.4429 A4,4 0 0 0 198,193.4429" fill="#FFFDF6" style="stroke:#C68A3A;stroke-width:0.5;"/><path d="M384.4955,189.4429 L384.4955,197.4429 A2,2 0 0 0 386.4955,199.4429 L394.4955,199.4429 L384.4955,189.4429" fill="#FFFDF6" style="stroke:#C68A3A;stroke-width:1;"/><text fill="#0E1014" font-family="'Inter, Helvetica, sans-serif'" font-size="12" lengthAdjust="spacing" textLength="175.4955" x="204" y="206.0676">Opt-in OFF by default. Unlocks</text><text fill="#0E1014" font-family="'Inter, Helvetica, sans-serif'" font-size="12" lengthAdjust="spacing" textLength="164.0924" x="204" y="220.5899">the 9 code-tests items in the</text><text fill="#0E1014" font-family="'Inter, Helvetica, sans-serif'" font-size="12" lengthAdjust="spacing" textLength="170.0582" x="204" y="235.1123">staircase; otherwise they stay</text><text fill="#0E1014" font-family="'Inter, Helvetica, sans-serif'" font-size="12" lengthAdjust="spacing" textLength="150.3712" x="204" y="249.6347">UNMEASURED (D12 prior).</text></g><g class="entity" data-qualified-name="GMN52" data-source-line="71" id="ent0053"><path d="M190,47.9429 L190,78.9876 A4,4 0 0 0 194,82.9876 L398.0576,82.9876 A4,4 0 0 0 402.0576,78.9876 L402.0576,53.9429 L392.0576,43.9429 L194,43.9429 A4,4 0 0 0 190,47.9429" fill="#FFFDF6" style="stroke:#C68A3A;stroke-width:0.5;"/><path d="M392.0576,43.9429 L392.0576,51.9429 A2,2 0 0 0 394.0576,53.9429 L402.0576,53.9429 L392.0576,43.9429" fill="#FFFDF6" style="stroke:#C68A3A;stroke-width:1;"/><text fill="#0E1014" font-family="'Inter, Helvetica, sans-serif'" font-size="12" lengthAdjust="spacing" textLength="185.8078" x="196" y="60.5676">Advice only &#8212; does NOT launch.</text><text fill="#0E1014" font-family="'Inter, Helvetica, sans-serif'" font-size="12" lengthAdjust="spacing" textLength="191.0576" x="196" y="75.0899">Caller follows up with models.run.</text></g><!--link A_USER to UC_OPEN--><g class="link" data-entity-1="ent0001" data-entity-2="ent0007" data-link-type="dependency" data-source-line="38" id="lnk27"><path d="M100.39,1220.4529 C115,1209.5329 132.03,1198.3029 149,1190.4429 C174.7,1178.5429 199.9601,1171.3062 226.1601,1165.7162" fill="none" id="A_USER-to-UC_OPEN" style="stroke:#1A1D24;stroke-width:1;"/><polygon fill="#1A1D24" points="231.05,1164.6729,221.4135,1162.6389,226.1601,1165.7162,223.0828,1170.4628,231.05,1164.6729" style="stroke:#1A1D24;stroke-width:1;stroke-linejoin:miter;stroke-miterlimit:10;"/></g><!--link A_USER to UC_RUN--><g class="link" data-entity-1="ent0001" data-entity-2="ent0008" data-link-type="dependency" data-source-line="39" id="lnk28"><path d="M100.11,1250.9129 C130.09,1247.6129 166.82,1243.5602 203.96,1239.4702" fill="none" id="A_USER-to-UC_RUN" style="stroke:#1A1D24;stroke-width:1;"/><polygon fill="#1A1D24" points="208.93,1238.9229,199.5462,1235.9321,203.96,1239.4702,200.4219,1243.884,208.93,1238.9229" style="stroke:#1A1D24;stroke-width:1;stroke-linejoin:miter;stroke-miterlimit:10;"/></g><!--link A_USER to UC_CH--><g class="link" data-entity-1="ent0001" data-entity-2="ent0009" data-link-type="dependency" data-source-line="40" id="lnk29"><path d="M59.91,1210.9329 C63.68,1146.8929 80.24,1029.1329 149,962.4429 C164.75,947.1629 180.9467,938.9464 202.1067,932.9964" fill="none" id="A_USER-to-UC_CH" style="stroke:#1A1D24;stroke-width:1;"/><polygon fill="#1A1D24" points="206.92,931.6429,197.1732,930.2285,202.1067,932.9964,199.3388,937.9298,206.92,931.6429" style="stroke:#1A1D24;stroke-width:1;stroke-linejoin:miter;stroke-miterlimit:10;"/></g><!--link A_USER to UC_RADAR--><g class="link" data-entity-1="ent0001" data-entity-2="ent0010" data-link-type="dependency" data-source-line="41" id="lnk30"><path d="M65.79,1210.7829 C75.58,1161.9029 98.4,1084.6229 149,1040.4429 C166.89,1024.8329 185.5177,1016.5891 208.4077,1010.8991" fill="none" id="A_USER-to-UC_RADAR" style="stroke:#1A1D24;stroke-width:1;"/><polygon fill="#1A1D24" points="213.26,1009.6929,203.5609,1007.9822,208.4077,1010.8991,205.4908,1015.7459,213.26,1009.6929" style="stroke:#1A1D24;stroke-width:1;stroke-linejoin:miter;stroke-miterlimit:10;"/></g><!--link A_USER to UC_BULK--><g class="link" data-entity-1="ent0001" data-entity-2="ent0011" data-link-type="dependency" data-source-line="42" id="lnk31"><path d="M77.79,1210.9129 C92.81,1180.5529 116.7,1141.7629 149,1118.4429 C173.46,1100.7829 200.4983,1092.0585 228.2683,1086.7685" fill="none" id="A_USER-to-UC_BULK" style="stroke:#1A1D24;stroke-width:1;"/><polygon fill="#1A1D24" points="233.18,1085.8329,223.5905,1083.5877,228.2683,1086.7685,225.0875,1091.4464,233.18,1085.8329" style="stroke:#1A1D24;stroke-width:1;stroke-linejoin:miter;stroke-miterlimit:10;"/></g><!--link A_USER to UC_PICK_EMB--><g class="link" data-entity-1="ent0001" data-entity-2="ent0013" data-link-type="dependency" data-source-line="43" id="lnk32"><path d="M100.11,1271.4729 C141.71,1287.6829 201.2314,1310.8871 244.4614,1327.7371" fill="none" id="A_USER-to-UC_PICK_EMB" style="stroke:#1A1D24;stroke-width:1;"/><polygon fill="#1A1D24" points="249.12,1329.5529,242.1871,1322.5575,244.4614,1327.7371,239.2818,1330.0113,249.12,1329.5529" style="stroke:#1A1D24;stroke-width:1;stroke-linejoin:miter;stroke-miterlimit:10;"/></g><!--link A_USER to UC_OPT_SBX--><g class="link" data-entity-1="ent0001" data-entity-2="ent0014" data-link-type="dependency" data-source-line="44" id="lnk33"><path d="M65.17,1300.0329 C77.47,1382.7129 107.51,1555.2629 149,1597.4429 C168.39,1617.1529 191.5337,1626.5798 217.8737,1632.0298" fill="none" id="A_USER-to-UC_OPT_SBX" style="stroke:#1A1D24;stroke-width:1;"/><polygon fill="#1A1D24" points="222.77,1633.0429,214.7672,1627.3023,217.8737,1632.0298,213.1462,1635.1364,222.77,1633.0429" style="stroke:#1A1D24;stroke-width:1;stroke-linejoin:miter;stroke-miterlimit:10;"/></g><!--link A_USER to UC_MCP--><g class="link" data-entity-1="ent0001" data-entity-2="ent0015" data-link-type="dependency" data-source-line="45" id="lnk34"><path d="M90.94,1300.1529 C106.36,1322.0429 124.95,1348.9129 141,1373.4429 C144.71,1379.1229 143.52,1382.4429 149,1386.4429 C170.19,1401.9129 192.3494,1409.791 217.3994,1414.861" fill="none" id="A_USER-to-UC_MCP" style="stroke:#1A1D24;stroke-width:1;"/><polygon fill="#1A1D24" points="222.3,1415.8529,214.2724,1410.147,217.3994,1414.861,212.6854,1417.988,222.3,1415.8529" style="stroke:#1A1D24;stroke-width:1;stroke-linejoin:miter;stroke-miterlimit:10;"/></g><!--link A_USER to UC_COPY_CFG--><g class="link" data-entity-1="ent0001" data-entity-2="ent0016" data-link-type="dependency" data-source-line="46" id="lnk35"><path d="M67.05,1300.0929 C77.73,1346.2629 101.13,1417.1329 149,1457.4429 C168.6,1473.9529 189.6972,1482.213 214.3072,1487.393" fill="none" id="A_USER-to-UC_COPY_CFG" style="stroke:#1A1D24;stroke-width:1;"/><polygon fill="#1A1D24" points="219.2,1488.4229,211.2169,1482.6549,214.3072,1487.393,209.5691,1490.4834,219.2,1488.4229" style="stroke:#1A1D24;stroke-width:1;stroke-linejoin:miter;stroke-miterlimit:10;"/></g><!--link A_USER to UC_HW--><g class="link" data-entity-1="ent0001" data-entity-2="ent0017" data-link-type="dependency" data-source-line="47" id="lnk36"><path d="M60.65,1300.1629 C65.41,1361.2929 83.25,1470.2129 149,1530.4429 C170.49,1550.1329 196.168,1558.4121 223.838,1562.2721" fill="none" id="A_USER-to-UC_HW" style="stroke:#1A1D24;stroke-width:1;"/><polygon fill="#1A1D24" points="228.79,1562.9629,220.429,1557.7578,223.838,1562.2721,219.3237,1565.6811,228.79,1562.9629" style="stroke:#1A1D24;stroke-width:1;stroke-linejoin:miter;stroke-miterlimit:10;"/></g><!--link A_MCP_CLI to UC_SEARCH--><g class="link" data-entity-1="ent0002" data-entity-2="ent0019" data-link-type="dependency" data-source-line="49" id="lnk37"><path d="M110.04,507.0929 C122.02,497.0429 135.32,487.4729 149,480.4429 C174.7,467.2429 200.645,460.0111 227.355,455.0211" fill="none" id="A_MCP_CLI-to-UC_SEARCH" style="stroke:#1A1D24;stroke-width:1;"/><polygon fill="#1A1D24" points="232.27,454.1029,222.6885,451.8237,227.355,455.0211,224.1576,459.6877,232.27,454.1029" style="stroke:#1A1D24;stroke-width:1;stroke-linejoin:miter;stroke-miterlimit:10;"/></g><!--link A_MCP_CLI to UC_MRUN--><g class="link" data-entity-1="ent0002" data-entity-2="ent0020" data-link-type="dependency" data-source-line="50" id="lnk38"><path d="M63.9,500.4129 C73.43,402.1729 98.11,211.8829 149,171.4429 C242.43,97.2029 308.77,122.2629 417.5,171.4429 C507.53,212.1629 568.4493,317.4385 589.5293,358.3385" fill="none" id="A_MCP_CLI-to-UC_MRUN" style="stroke:#1A1D24;stroke-width:1;"/><polygon fill="#1A1D24" points="591.82,362.7829,591.2523,352.9504,589.5293,358.3385,584.1413,356.6155,591.82,362.7829" style="stroke:#1A1D24;stroke-width:1;stroke-linejoin:miter;stroke-miterlimit:10;"/></g><!--link A_MCP_CLI to UC_ROUTE--><g class="link" data-entity-1="ent0002" data-entity-2="ent0021" data-link-type="dependency" data-source-line="51" id="lnk39"><path d="M82.5,500.3529 C97.37,470.0129 119.41,434.8229 149,412.4429 C175.77,392.1929 207.1645,382.803 236.8845,377.613" fill="none" id="A_MCP_CLI-to-UC_ROUTE" style="stroke:#1A1D24;stroke-width:1;"/><polygon fill="#1A1D24" points="241.81,376.7529,232.2561,374.3608,236.8845,377.613,233.6323,382.2415,241.81,376.7529" style="stroke:#1A1D24;stroke-width:1;stroke-linejoin:miter;stroke-miterlimit:10;"/></g><!--link A_MCP_CLI to UC_INSPECT--><g class="link" data-entity-1="ent0002" data-entity-2="ent0022" data-link-type="dependency" data-source-line="52" id="lnk40"><path d="M110.21,551.1929 C140.44,546.3329 174.4534,540.8464 208.7934,535.3264" fill="none" id="A_MCP_CLI-to-UC_INSPECT" style="stroke:#1A1D24;stroke-width:1;"/><polygon fill="#1A1D24" points="213.73,534.5329,204.2092,532.012,208.7934,535.3264,205.4789,539.9106,213.73,534.5329" style="stroke:#1A1D24;stroke-width:1;stroke-linejoin:miter;stroke-miterlimit:10;"/></g><!--link A_MCP_CLI to UC_TAGS--><g class="link" data-entity-1="ent0002" data-entity-2="ent0023" data-link-type="dependency" data-source-line="53" id="lnk41"><path d="M110.21,567.4729 C148.3,573.4429 195.3005,580.8076 234.4205,586.9476" fill="none" id="A_MCP_CLI-to-UC_TAGS" style="stroke:#1A1D24;stroke-width:1;"/><polygon fill="#1A1D24" points="239.36,587.7229,231.0891,582.3758,234.4205,586.9476,229.8486,590.279,239.36,587.7229" style="stroke:#1A1D24;stroke-width:1;stroke-linejoin:miter;stroke-miterlimit:10;"/></g><!--link A_MCP_CLI to UC_DESC--><g class="link" data-entity-1="ent0002" data-entity-2="ent0024" data-link-type="dependency" data-source-line="54" id="lnk42"><path d="M110.29,605.2929 C122.36,614.3429 135.62,623.0129 149,629.4429 C175.43,642.1529 201.9147,649.4746 228.8147,654.7846" fill="none" id="A_MCP_CLI-to-UC_DESC" style="stroke:#1A1D24;stroke-width:1;"/><polygon fill="#1A1D24" points="233.72,655.7529,225.665,650.0857,228.8147,654.7846,224.1157,657.9342,233.72,655.7529" style="stroke:#1A1D24;stroke-width:1;stroke-linejoin:miter;stroke-miterlimit:10;"/></g><!--link A_MCP_CLI to UC_FETCH--><g class="link" data-entity-1="ent0002" data-entity-2="ent0025" data-link-type="dependency" data-source-line="55" id="lnk43"><path d="M84.31,618.6529 C99.23,646.8229 120.77,678.6129 149,698.4429 C172.42,714.9029 197.7371,722.6765 224.6271,727.1265" fill="none" id="A_MCP_CLI-to-UC_FETCH" style="stroke:#1A1D24;stroke-width:1;"/><polygon fill="#1A1D24" points="229.56,727.9429,221.3338,722.5271,224.6271,727.1265,220.0277,730.4198,229.56,727.9429" style="stroke:#1A1D24;stroke-width:1;stroke-linejoin:miter;stroke-miterlimit:10;"/></g><!--link A_MCP_CLI to UC_HW_TOOL--><g class="link" data-entity-1="ent0002" data-entity-2="ent0026" data-link-type="dependency" data-source-line="56" id="lnk44"><path d="M70.33,618.7929 C82.22,665.1329 105.46,727.7829 149,765.4429 C171.26,784.7029 197.0779,793.8297 224.6079,799.0597" fill="none" id="A_MCP_CLI-to-UC_HW_TOOL" style="stroke:#1A1D24;stroke-width:1;"/><polygon fill="#1A1D24" points="229.52,799.9929,221.4247,794.3834,224.6079,799.0597,219.9316,802.2429,229.52,799.9929" style="stroke:#1A1D24;stroke-width:1;stroke-linejoin:miter;stroke-miterlimit:10;"/></g><!--link UC_FETCH to A_HF--><g class="link" data-entity-1="ent0025" data-entity-2="ent0004" data-link-type="dependency" data-source-line="58" id="lnk45"><path d="M362.57,736.9429 C382.75,741.5329 403.36,750.0129 417.5,765.4429 C548.44,908.2629 588.5409,1538.3191 597.2509,1712.9091" fill="none" id="UC_FETCH-to-A_HF" style="stroke:#1A1D24;stroke-width:1;stroke-dasharray:7,7;"/><polygon fill="#1A1D24" points="597.5,1717.9029,601.0466,1708.7148,597.2509,1712.9091,593.0565,1709.1134,597.5,1717.9029" style="stroke:#1A1D24;stroke-width:1;stroke-linejoin:miter;stroke-miterlimit:10;"/><text fill="#000000" font-family="'Inter, Helvetica, sans-serif'" font-size="12" lengthAdjust="spacing" textLength="46.9931" x="445.5" y="786.0676">(egress)</text></g><!--link UC_PICK_EMB to A_EXT_EMB--><g class="link" data-entity-1="ent0013" data-entity-2="ent0003" data-link-type="dependency" data-source-line="59" id="lnk46"><path d="M369.54,1355.8129 C387.99,1361.5429 405.87,1370.9829 417.5,1386.4429 C447.58,1426.4229 401.47,1796.8129 432,1836.4429 C458.58,1870.9429 503.0105,1882.0204 541.3105,1885.5004" fill="none" id="UC_PICK_EMB-to-A_EXT_EMB" style="stroke:#1A1D24;stroke-width:1;stroke-dasharray:7,7;"/><polygon fill="#1A1D24" points="546.29,1885.9529,537.6889,1881.1549,541.3105,1885.5004,536.965,1889.1221,546.29,1885.9529" style="stroke:#1A1D24;stroke-width:1;stroke-linejoin:miter;stroke-miterlimit:10;"/><text fill="#000000" font-family="'Inter, Helvetica, sans-serif'" font-size="12" lengthAdjust="spacing" textLength="64.4472" x="436.7669" y="1818.0676">(alternative</text><text fill="#000000" font-family="'Inter, Helvetica, sans-serif'" font-size="12" lengthAdjust="spacing" textLength="71.9811" x="433" y="1832.5899">to managed)</text></g><!--link UC_ROUTE to UC_MRUN--><g class="link" data-entity-1="ent0021" data-entity-2="ent0020" data-link-type="dependency" data-source-line="60" id="lnk47"><path d="M351.43,372.7029 C403.06,373.8929 475.6413,375.5776 530.2713,376.8376" fill="none" id="UC_ROUTE-to-UC_MRUN" style="stroke:#1A1D24;stroke-width:1;stroke-dasharray:7,7;"/><polygon fill="#1A1D24" points="535.27,376.9529,526.3646,372.7464,530.2713,376.8376,526.1802,380.7443,535.27,376.9529" style="stroke:#1A1D24;stroke-width:1;stroke-linejoin:miter;stroke-miterlimit:10;"/><text fill="#000000" font-family="'Inter, Helvetica, sans-serif'" font-size="12" lengthAdjust="spacing" textLength="58.5156" x="439.5" y="357.0676">&#171;extends&#187;</text><text fill="#000000" font-family="'Inter, Helvetica, sans-serif'" font-size="12" lengthAdjust="spacing" textLength="53.8963" x="441.8096" y="371.5899">follow-up</text></g><!--link UC_INSPECT to UC_MRUN--><g class="link" data-entity-1="ent0022" data-entity-2="ent0020" data-link-type="dependency" data-source-line="61" id="lnk48"><path d="M358.21,503.0229 C377.47,496.5929 398.63,488.8529 417.5,480.4429 C477.05,453.8929 538.5935,416.9085 572.4135,395.7085" fill="none" id="UC_INSPECT-to-UC_MRUN" style="stroke:#1A1D24;stroke-width:1;stroke-dasharray:7,7;"/><polygon fill="#1A1D24" points="576.65,393.0529,566.8999,394.4438,572.4135,395.7085,571.1489,401.2222,576.65,393.0529" style="stroke:#1A1D24;stroke-width:1;stroke-linejoin:miter;stroke-miterlimit:10;"/><text fill="#000000" font-family="'Inter, Helvetica, sans-serif'" font-size="12" lengthAdjust="spacing" textLength="66.1177" x="435.5" y="433.0676">&#171;precedes&#187;</text></g><!--link UC_OPT_SBX to GMN49--><g class="link" data-entity-1="ent0014" data-entity-2="ent0050" data-link-type="association" data-source-line="64" id="lnk51"><path d="M221.2,1635.4929 C184.53,1629.4429 144.98,1614.6329 129.5,1579.9429 C115.57,1548.7129 115.57,380.1729 129.5,348.9429 C147.5,308.6129 186.15,278.2229 221.69,257.4529" fill="none" id="UC_OPT_SBX-GMN49" style="stroke:#1A1D24;stroke-width:1;stroke-dasharray:7,7;"/></g><!--link UC_ROUTE to GMN52--><g class="link" data-entity-1="ent0021" data-entity-2="ent0053" data-link-type="association" data-source-line="71" id="lnk54"><path d="M252.58,356.6829 C211.32,339.9129 152.3,308.0429 129.5,256.9429 C106.14,204.5829 106.14,180.3029 129.5,127.9429 C140.68,102.8929 164.03,87.4529 189.8,77.9729" fill="none" id="UC_ROUTE-GMN52" style="stroke:#1A1D24;stroke-width:1;stroke-dasharray:7,7;"/></g><?plantuml-src RLLHRkCs4FtNAMRpvQ2mWXReHzk50KUHDyOciM5RxHO88D3II2P2aG8vYjTR5EWX5dk7tg3_lKbFqf5isPQSV0JouniEvytZy9tKYQfI1D-_YG_VxiRHJg4lgq9vxzuaL0uJuV1696IispCzagGG8eTGhpduxw-liDqOI0t_s6u4mLRI1cY3C9w2gzPkvmWBprEO4P01A_CDGIej9YIDzhpwG-YSTxrw5EZ8Ij7iUXv-1Nzu7a0faXUHCt6git__jgWJ11BhAn0EeY2Efam3_ZkS7Avc9MeGuETvbK5XKbIGIOLjm6mUFdK35bNDJ-ewzlJ1sfgjGmlHzBeDMqIzg60ZBAk4Ldv1k8453fCpf0qBxhjHlqhSGcAA4gcfn8fKs6SzMFm8tm5Pn5F2yTruqGs-hTGBd6VXmCoe5EqnwZPw-CX1VtQKMoAHr3atxji_B77BNOQhldPpcRm05cjCUTEzX7KEbWzANZfBD9y67-FmyROR7sgnPcx2CWw9--gUjHCwNPlFC30b3QM-FlLX5IzlFtNZboGiiPgEJ0cFmHou2wzesnX6UaqmvQxX9KPdCg-igFrr57ys_pqE9Xzw_k0DhMJZiv3fLjXZh-v_kr2kEK9bCv7WsHdYPRIOzALhhEDyXy8c6ox1pv5EIeyNVISS-9RDn-Iwu6E62w-rN5DHtNEHlahsZj5gTxBBB5g5RqRnEMBE4fVicu8RSe2LT0skqSQP4hbhTve-BUTXiEhkHKpmHPhMPxLOcDUZ7glnXsMNotCaiRAiEy5oK4-Bkt0PTFcRpC-GMBH1WSJtWSIngacuwklMTirF-GeblFkpzaL5XYfzribuDPizDEtaXexZQ1akO3WS7GT05we5xoASjKTfhcCNQovR5pfUYtxElTcxQ6tdNjhMiLsOdSb8xRpWOTg21rDTu8_xQdhetXyNSDliYuMchHTeqxmBTD-b2xZjWjTI-AaPmJY-dy3FCC3SedFNtfbeX_NmqwhvnIIXUD1fljIlx7j-I0gX-LwcJLHJKHDoA9e3th_7ppnOKpSQFMiUZSfiXrNfdGgzu9Vy524xTZJoF6q8OMs8J04cwmwfMJEzO3QPm7e7AMQYKkH3f9L9NXmJwjVlfxF91vBVCFwlwnLUToIahIty2nX6x5Qoc_bZLw_ic10zFOPZdYpX7Gpklly1IYkDlVOzBWVgaxrrllRMZqyJeNb7cvVvQRO29IgTR7oc148fdkbxKHnKvVxHFesXiqp_0m00?></g></svg>